G04 #@! TF.GenerationSoftware,KiCad,Pcbnew,(5.1.4)-1*
G04 #@! TF.CreationDate,2019-09-20T08:24:21+02:00*
G04 #@! TF.ProjectId,hb-rc-2-pbu-led,68622d72-632d-4322-9d70-62752d6c6564,rev?*
G04 #@! TF.SameCoordinates,Original*
G04 #@! TF.FileFunction,Copper,L1,Top*
G04 #@! TF.FilePolarity,Positive*
%FSLAX46Y46*%
G04 Gerber Fmt 4.6, Leading zero omitted, Abs format (unit mm)*
G04 Created by KiCad (PCBNEW (5.1.4)-1) date 2019-09-20 08:24:21*
%MOMM*%
%LPD*%
G04 APERTURE LIST*
%ADD10R,0.550000X1.500000*%
%ADD11R,1.500000X0.550000*%
%ADD12O,1.800000X1.800000*%
%ADD13R,1.800000X1.800000*%
%ADD14R,1.200000X2.000000*%
%ADD15R,1.200000X3.000000*%
%ADD16O,1.700000X1.700000*%
%ADD17R,1.700000X1.700000*%
%ADD18C,0.100000*%
%ADD19C,1.600000*%
%ADD20C,1.150000*%
%ADD21C,2.000000*%
%ADD22R,2.180000X1.600000*%
%ADD23R,1.060000X0.650000*%
%ADD24R,2.000000X3.800000*%
%ADD25R,2.000000X1.500000*%
%ADD26O,1.350000X1.350000*%
%ADD27R,1.350000X1.350000*%
%ADD28C,1.800000*%
%ADD29C,0.800000*%
%ADD30C,0.250000*%
%ADD31C,0.254000*%
G04 APERTURE END LIST*
D10*
X91960200Y-71905400D03*
X91160200Y-71905400D03*
X90360200Y-71905400D03*
X89560200Y-71905400D03*
X88760200Y-71905400D03*
X87960200Y-71905400D03*
X87160200Y-71905400D03*
X86360200Y-71905400D03*
X85560200Y-71905400D03*
X84760200Y-71905400D03*
X83960200Y-71905400D03*
D11*
X82260200Y-70205400D03*
X82260200Y-69405400D03*
X82260200Y-68605400D03*
X82260200Y-67805400D03*
X82260200Y-67005400D03*
X82260200Y-66205400D03*
X82260200Y-65405400D03*
X82260200Y-64605400D03*
X82260200Y-63805400D03*
X82260200Y-63005400D03*
X82260200Y-62205400D03*
D10*
X83960200Y-60505400D03*
X84760200Y-60505400D03*
X85560200Y-60505400D03*
X86360200Y-60505400D03*
X87160200Y-60505400D03*
X87960200Y-60505400D03*
X88760200Y-60505400D03*
X89560200Y-60505400D03*
X90360200Y-60505400D03*
X91160200Y-60505400D03*
X91960200Y-60505400D03*
D11*
X93660200Y-62205400D03*
X93660200Y-63005400D03*
X93660200Y-63805400D03*
X93660200Y-64605400D03*
X93660200Y-65405400D03*
X93660200Y-66205400D03*
X93660200Y-67005400D03*
X93660200Y-67805400D03*
X93660200Y-68605400D03*
X93660200Y-69405400D03*
X93660200Y-70205400D03*
D12*
X125984000Y-73025000D03*
D13*
X125984000Y-78105000D03*
D12*
X78486000Y-78105000D03*
D13*
X78486000Y-73025000D03*
D14*
X109855000Y-54229000D03*
X112395000Y-54229000D03*
X114935000Y-54229000D03*
X89344500Y-54229000D03*
X91948000Y-54229000D03*
D15*
X94488000Y-96227900D03*
X89382600Y-96227900D03*
X91922600Y-96215200D03*
X91922600Y-92278200D03*
X89509600Y-92202000D03*
D16*
X96774000Y-69850000D03*
X96774000Y-67310000D03*
X96774000Y-64770000D03*
X96774000Y-62230000D03*
X96774000Y-59690000D03*
D17*
X96774000Y-57150000D03*
D18*
G36*
X119954504Y-81991204D02*
G01*
X119978773Y-81994804D01*
X120002571Y-82000765D01*
X120025671Y-82009030D01*
X120047849Y-82019520D01*
X120068893Y-82032133D01*
X120088598Y-82046747D01*
X120106777Y-82063223D01*
X120123253Y-82081402D01*
X120137867Y-82101107D01*
X120150480Y-82122151D01*
X120160970Y-82144329D01*
X120169235Y-82167429D01*
X120175196Y-82191227D01*
X120178796Y-82215496D01*
X120180000Y-82240000D01*
X120180000Y-84340000D01*
X120178796Y-84364504D01*
X120175196Y-84388773D01*
X120169235Y-84412571D01*
X120160970Y-84435671D01*
X120150480Y-84457849D01*
X120137867Y-84478893D01*
X120123253Y-84498598D01*
X120106777Y-84516777D01*
X120088598Y-84533253D01*
X120068893Y-84547867D01*
X120047849Y-84560480D01*
X120025671Y-84570970D01*
X120002571Y-84579235D01*
X119978773Y-84585196D01*
X119954504Y-84588796D01*
X119930000Y-84590000D01*
X118830000Y-84590000D01*
X118805496Y-84588796D01*
X118781227Y-84585196D01*
X118757429Y-84579235D01*
X118734329Y-84570970D01*
X118712151Y-84560480D01*
X118691107Y-84547867D01*
X118671402Y-84533253D01*
X118653223Y-84516777D01*
X118636747Y-84498598D01*
X118622133Y-84478893D01*
X118609520Y-84457849D01*
X118599030Y-84435671D01*
X118590765Y-84412571D01*
X118584804Y-84388773D01*
X118581204Y-84364504D01*
X118580000Y-84340000D01*
X118580000Y-82240000D01*
X118581204Y-82215496D01*
X118584804Y-82191227D01*
X118590765Y-82167429D01*
X118599030Y-82144329D01*
X118609520Y-82122151D01*
X118622133Y-82101107D01*
X118636747Y-82081402D01*
X118653223Y-82063223D01*
X118671402Y-82046747D01*
X118691107Y-82032133D01*
X118712151Y-82019520D01*
X118734329Y-82009030D01*
X118757429Y-82000765D01*
X118781227Y-81994804D01*
X118805496Y-81991204D01*
X118830000Y-81990000D01*
X119930000Y-81990000D01*
X119954504Y-81991204D01*
X119954504Y-81991204D01*
G37*
D19*
X119380000Y-83290000D03*
D18*
G36*
X119954504Y-85591204D02*
G01*
X119978773Y-85594804D01*
X120002571Y-85600765D01*
X120025671Y-85609030D01*
X120047849Y-85619520D01*
X120068893Y-85632133D01*
X120088598Y-85646747D01*
X120106777Y-85663223D01*
X120123253Y-85681402D01*
X120137867Y-85701107D01*
X120150480Y-85722151D01*
X120160970Y-85744329D01*
X120169235Y-85767429D01*
X120175196Y-85791227D01*
X120178796Y-85815496D01*
X120180000Y-85840000D01*
X120180000Y-87940000D01*
X120178796Y-87964504D01*
X120175196Y-87988773D01*
X120169235Y-88012571D01*
X120160970Y-88035671D01*
X120150480Y-88057849D01*
X120137867Y-88078893D01*
X120123253Y-88098598D01*
X120106777Y-88116777D01*
X120088598Y-88133253D01*
X120068893Y-88147867D01*
X120047849Y-88160480D01*
X120025671Y-88170970D01*
X120002571Y-88179235D01*
X119978773Y-88185196D01*
X119954504Y-88188796D01*
X119930000Y-88190000D01*
X118830000Y-88190000D01*
X118805496Y-88188796D01*
X118781227Y-88185196D01*
X118757429Y-88179235D01*
X118734329Y-88170970D01*
X118712151Y-88160480D01*
X118691107Y-88147867D01*
X118671402Y-88133253D01*
X118653223Y-88116777D01*
X118636747Y-88098598D01*
X118622133Y-88078893D01*
X118609520Y-88057849D01*
X118599030Y-88035671D01*
X118590765Y-88012571D01*
X118584804Y-87988773D01*
X118581204Y-87964504D01*
X118580000Y-87940000D01*
X118580000Y-85840000D01*
X118581204Y-85815496D01*
X118584804Y-85791227D01*
X118590765Y-85767429D01*
X118599030Y-85744329D01*
X118609520Y-85722151D01*
X118622133Y-85701107D01*
X118636747Y-85681402D01*
X118653223Y-85663223D01*
X118671402Y-85646747D01*
X118691107Y-85632133D01*
X118712151Y-85619520D01*
X118734329Y-85609030D01*
X118757429Y-85600765D01*
X118781227Y-85594804D01*
X118805496Y-85591204D01*
X118830000Y-85590000D01*
X119930000Y-85590000D01*
X119954504Y-85591204D01*
X119954504Y-85591204D01*
G37*
D19*
X119380000Y-86890000D03*
D18*
G36*
X111191504Y-81991204D02*
G01*
X111215773Y-81994804D01*
X111239571Y-82000765D01*
X111262671Y-82009030D01*
X111284849Y-82019520D01*
X111305893Y-82032133D01*
X111325598Y-82046747D01*
X111343777Y-82063223D01*
X111360253Y-82081402D01*
X111374867Y-82101107D01*
X111387480Y-82122151D01*
X111397970Y-82144329D01*
X111406235Y-82167429D01*
X111412196Y-82191227D01*
X111415796Y-82215496D01*
X111417000Y-82240000D01*
X111417000Y-84340000D01*
X111415796Y-84364504D01*
X111412196Y-84388773D01*
X111406235Y-84412571D01*
X111397970Y-84435671D01*
X111387480Y-84457849D01*
X111374867Y-84478893D01*
X111360253Y-84498598D01*
X111343777Y-84516777D01*
X111325598Y-84533253D01*
X111305893Y-84547867D01*
X111284849Y-84560480D01*
X111262671Y-84570970D01*
X111239571Y-84579235D01*
X111215773Y-84585196D01*
X111191504Y-84588796D01*
X111167000Y-84590000D01*
X110067000Y-84590000D01*
X110042496Y-84588796D01*
X110018227Y-84585196D01*
X109994429Y-84579235D01*
X109971329Y-84570970D01*
X109949151Y-84560480D01*
X109928107Y-84547867D01*
X109908402Y-84533253D01*
X109890223Y-84516777D01*
X109873747Y-84498598D01*
X109859133Y-84478893D01*
X109846520Y-84457849D01*
X109836030Y-84435671D01*
X109827765Y-84412571D01*
X109821804Y-84388773D01*
X109818204Y-84364504D01*
X109817000Y-84340000D01*
X109817000Y-82240000D01*
X109818204Y-82215496D01*
X109821804Y-82191227D01*
X109827765Y-82167429D01*
X109836030Y-82144329D01*
X109846520Y-82122151D01*
X109859133Y-82101107D01*
X109873747Y-82081402D01*
X109890223Y-82063223D01*
X109908402Y-82046747D01*
X109928107Y-82032133D01*
X109949151Y-82019520D01*
X109971329Y-82009030D01*
X109994429Y-82000765D01*
X110018227Y-81994804D01*
X110042496Y-81991204D01*
X110067000Y-81990000D01*
X111167000Y-81990000D01*
X111191504Y-81991204D01*
X111191504Y-81991204D01*
G37*
D19*
X110617000Y-83290000D03*
D18*
G36*
X111191504Y-85591204D02*
G01*
X111215773Y-85594804D01*
X111239571Y-85600765D01*
X111262671Y-85609030D01*
X111284849Y-85619520D01*
X111305893Y-85632133D01*
X111325598Y-85646747D01*
X111343777Y-85663223D01*
X111360253Y-85681402D01*
X111374867Y-85701107D01*
X111387480Y-85722151D01*
X111397970Y-85744329D01*
X111406235Y-85767429D01*
X111412196Y-85791227D01*
X111415796Y-85815496D01*
X111417000Y-85840000D01*
X111417000Y-87940000D01*
X111415796Y-87964504D01*
X111412196Y-87988773D01*
X111406235Y-88012571D01*
X111397970Y-88035671D01*
X111387480Y-88057849D01*
X111374867Y-88078893D01*
X111360253Y-88098598D01*
X111343777Y-88116777D01*
X111325598Y-88133253D01*
X111305893Y-88147867D01*
X111284849Y-88160480D01*
X111262671Y-88170970D01*
X111239571Y-88179235D01*
X111215773Y-88185196D01*
X111191504Y-88188796D01*
X111167000Y-88190000D01*
X110067000Y-88190000D01*
X110042496Y-88188796D01*
X110018227Y-88185196D01*
X109994429Y-88179235D01*
X109971329Y-88170970D01*
X109949151Y-88160480D01*
X109928107Y-88147867D01*
X109908402Y-88133253D01*
X109890223Y-88116777D01*
X109873747Y-88098598D01*
X109859133Y-88078893D01*
X109846520Y-88057849D01*
X109836030Y-88035671D01*
X109827765Y-88012571D01*
X109821804Y-87988773D01*
X109818204Y-87964504D01*
X109817000Y-87940000D01*
X109817000Y-85840000D01*
X109818204Y-85815496D01*
X109821804Y-85791227D01*
X109827765Y-85767429D01*
X109836030Y-85744329D01*
X109846520Y-85722151D01*
X109859133Y-85701107D01*
X109873747Y-85681402D01*
X109890223Y-85663223D01*
X109908402Y-85646747D01*
X109928107Y-85632133D01*
X109949151Y-85619520D01*
X109971329Y-85609030D01*
X109994429Y-85600765D01*
X110018227Y-85594804D01*
X110042496Y-85591204D01*
X110067000Y-85590000D01*
X111167000Y-85590000D01*
X111191504Y-85591204D01*
X111191504Y-85591204D01*
G37*
D19*
X110617000Y-86890000D03*
D18*
G36*
X102034504Y-58476704D02*
G01*
X102058773Y-58480304D01*
X102082571Y-58486265D01*
X102105671Y-58494530D01*
X102127849Y-58505020D01*
X102148893Y-58517633D01*
X102168598Y-58532247D01*
X102186777Y-58548723D01*
X102203253Y-58566902D01*
X102217867Y-58586607D01*
X102230480Y-58607651D01*
X102240970Y-58629829D01*
X102249235Y-58652929D01*
X102255196Y-58676727D01*
X102258796Y-58700996D01*
X102260000Y-58725500D01*
X102260000Y-60825500D01*
X102258796Y-60850004D01*
X102255196Y-60874273D01*
X102249235Y-60898071D01*
X102240970Y-60921171D01*
X102230480Y-60943349D01*
X102217867Y-60964393D01*
X102203253Y-60984098D01*
X102186777Y-61002277D01*
X102168598Y-61018753D01*
X102148893Y-61033367D01*
X102127849Y-61045980D01*
X102105671Y-61056470D01*
X102082571Y-61064735D01*
X102058773Y-61070696D01*
X102034504Y-61074296D01*
X102010000Y-61075500D01*
X100910000Y-61075500D01*
X100885496Y-61074296D01*
X100861227Y-61070696D01*
X100837429Y-61064735D01*
X100814329Y-61056470D01*
X100792151Y-61045980D01*
X100771107Y-61033367D01*
X100751402Y-61018753D01*
X100733223Y-61002277D01*
X100716747Y-60984098D01*
X100702133Y-60964393D01*
X100689520Y-60943349D01*
X100679030Y-60921171D01*
X100670765Y-60898071D01*
X100664804Y-60874273D01*
X100661204Y-60850004D01*
X100660000Y-60825500D01*
X100660000Y-58725500D01*
X100661204Y-58700996D01*
X100664804Y-58676727D01*
X100670765Y-58652929D01*
X100679030Y-58629829D01*
X100689520Y-58607651D01*
X100702133Y-58586607D01*
X100716747Y-58566902D01*
X100733223Y-58548723D01*
X100751402Y-58532247D01*
X100771107Y-58517633D01*
X100792151Y-58505020D01*
X100814329Y-58494530D01*
X100837429Y-58486265D01*
X100861227Y-58480304D01*
X100885496Y-58476704D01*
X100910000Y-58475500D01*
X102010000Y-58475500D01*
X102034504Y-58476704D01*
X102034504Y-58476704D01*
G37*
D19*
X101460000Y-59775500D03*
D18*
G36*
X102034504Y-54876704D02*
G01*
X102058773Y-54880304D01*
X102082571Y-54886265D01*
X102105671Y-54894530D01*
X102127849Y-54905020D01*
X102148893Y-54917633D01*
X102168598Y-54932247D01*
X102186777Y-54948723D01*
X102203253Y-54966902D01*
X102217867Y-54986607D01*
X102230480Y-55007651D01*
X102240970Y-55029829D01*
X102249235Y-55052929D01*
X102255196Y-55076727D01*
X102258796Y-55100996D01*
X102260000Y-55125500D01*
X102260000Y-57225500D01*
X102258796Y-57250004D01*
X102255196Y-57274273D01*
X102249235Y-57298071D01*
X102240970Y-57321171D01*
X102230480Y-57343349D01*
X102217867Y-57364393D01*
X102203253Y-57384098D01*
X102186777Y-57402277D01*
X102168598Y-57418753D01*
X102148893Y-57433367D01*
X102127849Y-57445980D01*
X102105671Y-57456470D01*
X102082571Y-57464735D01*
X102058773Y-57470696D01*
X102034504Y-57474296D01*
X102010000Y-57475500D01*
X100910000Y-57475500D01*
X100885496Y-57474296D01*
X100861227Y-57470696D01*
X100837429Y-57464735D01*
X100814329Y-57456470D01*
X100792151Y-57445980D01*
X100771107Y-57433367D01*
X100751402Y-57418753D01*
X100733223Y-57402277D01*
X100716747Y-57384098D01*
X100702133Y-57364393D01*
X100689520Y-57343349D01*
X100679030Y-57321171D01*
X100670765Y-57298071D01*
X100664804Y-57274273D01*
X100661204Y-57250004D01*
X100660000Y-57225500D01*
X100660000Y-55125500D01*
X100661204Y-55100996D01*
X100664804Y-55076727D01*
X100670765Y-55052929D01*
X100679030Y-55029829D01*
X100689520Y-55007651D01*
X100702133Y-54986607D01*
X100716747Y-54966902D01*
X100733223Y-54948723D01*
X100751402Y-54932247D01*
X100771107Y-54917633D01*
X100792151Y-54905020D01*
X100814329Y-54894530D01*
X100837429Y-54886265D01*
X100861227Y-54880304D01*
X100885496Y-54876704D01*
X100910000Y-54875500D01*
X102010000Y-54875500D01*
X102034504Y-54876704D01*
X102034504Y-54876704D01*
G37*
D19*
X101460000Y-56175500D03*
D18*
G36*
X103618505Y-69633804D02*
G01*
X103642773Y-69637404D01*
X103666572Y-69643365D01*
X103689671Y-69651630D01*
X103711850Y-69662120D01*
X103732893Y-69674732D01*
X103752599Y-69689347D01*
X103770777Y-69705823D01*
X103787253Y-69724001D01*
X103801868Y-69743707D01*
X103814480Y-69764750D01*
X103824970Y-69786929D01*
X103833235Y-69810028D01*
X103839196Y-69833827D01*
X103842796Y-69858095D01*
X103844000Y-69882599D01*
X103844000Y-70782601D01*
X103842796Y-70807105D01*
X103839196Y-70831373D01*
X103833235Y-70855172D01*
X103824970Y-70878271D01*
X103814480Y-70900450D01*
X103801868Y-70921493D01*
X103787253Y-70941199D01*
X103770777Y-70959377D01*
X103752599Y-70975853D01*
X103732893Y-70990468D01*
X103711850Y-71003080D01*
X103689671Y-71013570D01*
X103666572Y-71021835D01*
X103642773Y-71027796D01*
X103618505Y-71031396D01*
X103594001Y-71032600D01*
X102943999Y-71032600D01*
X102919495Y-71031396D01*
X102895227Y-71027796D01*
X102871428Y-71021835D01*
X102848329Y-71013570D01*
X102826150Y-71003080D01*
X102805107Y-70990468D01*
X102785401Y-70975853D01*
X102767223Y-70959377D01*
X102750747Y-70941199D01*
X102736132Y-70921493D01*
X102723520Y-70900450D01*
X102713030Y-70878271D01*
X102704765Y-70855172D01*
X102698804Y-70831373D01*
X102695204Y-70807105D01*
X102694000Y-70782601D01*
X102694000Y-69882599D01*
X102695204Y-69858095D01*
X102698804Y-69833827D01*
X102704765Y-69810028D01*
X102713030Y-69786929D01*
X102723520Y-69764750D01*
X102736132Y-69743707D01*
X102750747Y-69724001D01*
X102767223Y-69705823D01*
X102785401Y-69689347D01*
X102805107Y-69674732D01*
X102826150Y-69662120D01*
X102848329Y-69651630D01*
X102871428Y-69643365D01*
X102895227Y-69637404D01*
X102919495Y-69633804D01*
X102943999Y-69632600D01*
X103594001Y-69632600D01*
X103618505Y-69633804D01*
X103618505Y-69633804D01*
G37*
D20*
X103269000Y-70332600D03*
D18*
G36*
X101568505Y-69633804D02*
G01*
X101592773Y-69637404D01*
X101616572Y-69643365D01*
X101639671Y-69651630D01*
X101661850Y-69662120D01*
X101682893Y-69674732D01*
X101702599Y-69689347D01*
X101720777Y-69705823D01*
X101737253Y-69724001D01*
X101751868Y-69743707D01*
X101764480Y-69764750D01*
X101774970Y-69786929D01*
X101783235Y-69810028D01*
X101789196Y-69833827D01*
X101792796Y-69858095D01*
X101794000Y-69882599D01*
X101794000Y-70782601D01*
X101792796Y-70807105D01*
X101789196Y-70831373D01*
X101783235Y-70855172D01*
X101774970Y-70878271D01*
X101764480Y-70900450D01*
X101751868Y-70921493D01*
X101737253Y-70941199D01*
X101720777Y-70959377D01*
X101702599Y-70975853D01*
X101682893Y-70990468D01*
X101661850Y-71003080D01*
X101639671Y-71013570D01*
X101616572Y-71021835D01*
X101592773Y-71027796D01*
X101568505Y-71031396D01*
X101544001Y-71032600D01*
X100893999Y-71032600D01*
X100869495Y-71031396D01*
X100845227Y-71027796D01*
X100821428Y-71021835D01*
X100798329Y-71013570D01*
X100776150Y-71003080D01*
X100755107Y-70990468D01*
X100735401Y-70975853D01*
X100717223Y-70959377D01*
X100700747Y-70941199D01*
X100686132Y-70921493D01*
X100673520Y-70900450D01*
X100663030Y-70878271D01*
X100654765Y-70855172D01*
X100648804Y-70831373D01*
X100645204Y-70807105D01*
X100644000Y-70782601D01*
X100644000Y-69882599D01*
X100645204Y-69858095D01*
X100648804Y-69833827D01*
X100654765Y-69810028D01*
X100663030Y-69786929D01*
X100673520Y-69764750D01*
X100686132Y-69743707D01*
X100700747Y-69724001D01*
X100717223Y-69705823D01*
X100735401Y-69689347D01*
X100755107Y-69674732D01*
X100776150Y-69662120D01*
X100798329Y-69651630D01*
X100821428Y-69643365D01*
X100845227Y-69637404D01*
X100869495Y-69633804D01*
X100893999Y-69632600D01*
X101544001Y-69632600D01*
X101568505Y-69633804D01*
X101568505Y-69633804D01*
G37*
D20*
X101219000Y-70332600D03*
D18*
G36*
X89247505Y-80942204D02*
G01*
X89271773Y-80945804D01*
X89295572Y-80951765D01*
X89318671Y-80960030D01*
X89340850Y-80970520D01*
X89361893Y-80983132D01*
X89381599Y-80997747D01*
X89399777Y-81014223D01*
X89416253Y-81032401D01*
X89430868Y-81052107D01*
X89443480Y-81073150D01*
X89453970Y-81095329D01*
X89462235Y-81118428D01*
X89468196Y-81142227D01*
X89471796Y-81166495D01*
X89473000Y-81190999D01*
X89473000Y-81841001D01*
X89471796Y-81865505D01*
X89468196Y-81889773D01*
X89462235Y-81913572D01*
X89453970Y-81936671D01*
X89443480Y-81958850D01*
X89430868Y-81979893D01*
X89416253Y-81999599D01*
X89399777Y-82017777D01*
X89381599Y-82034253D01*
X89361893Y-82048868D01*
X89340850Y-82061480D01*
X89318671Y-82071970D01*
X89295572Y-82080235D01*
X89271773Y-82086196D01*
X89247505Y-82089796D01*
X89223001Y-82091000D01*
X88322999Y-82091000D01*
X88298495Y-82089796D01*
X88274227Y-82086196D01*
X88250428Y-82080235D01*
X88227329Y-82071970D01*
X88205150Y-82061480D01*
X88184107Y-82048868D01*
X88164401Y-82034253D01*
X88146223Y-82017777D01*
X88129747Y-81999599D01*
X88115132Y-81979893D01*
X88102520Y-81958850D01*
X88092030Y-81936671D01*
X88083765Y-81913572D01*
X88077804Y-81889773D01*
X88074204Y-81865505D01*
X88073000Y-81841001D01*
X88073000Y-81190999D01*
X88074204Y-81166495D01*
X88077804Y-81142227D01*
X88083765Y-81118428D01*
X88092030Y-81095329D01*
X88102520Y-81073150D01*
X88115132Y-81052107D01*
X88129747Y-81032401D01*
X88146223Y-81014223D01*
X88164401Y-80997747D01*
X88184107Y-80983132D01*
X88205150Y-80970520D01*
X88227329Y-80960030D01*
X88250428Y-80951765D01*
X88274227Y-80945804D01*
X88298495Y-80942204D01*
X88322999Y-80941000D01*
X89223001Y-80941000D01*
X89247505Y-80942204D01*
X89247505Y-80942204D01*
G37*
D20*
X88773000Y-81516000D03*
D18*
G36*
X89247505Y-82992204D02*
G01*
X89271773Y-82995804D01*
X89295572Y-83001765D01*
X89318671Y-83010030D01*
X89340850Y-83020520D01*
X89361893Y-83033132D01*
X89381599Y-83047747D01*
X89399777Y-83064223D01*
X89416253Y-83082401D01*
X89430868Y-83102107D01*
X89443480Y-83123150D01*
X89453970Y-83145329D01*
X89462235Y-83168428D01*
X89468196Y-83192227D01*
X89471796Y-83216495D01*
X89473000Y-83240999D01*
X89473000Y-83891001D01*
X89471796Y-83915505D01*
X89468196Y-83939773D01*
X89462235Y-83963572D01*
X89453970Y-83986671D01*
X89443480Y-84008850D01*
X89430868Y-84029893D01*
X89416253Y-84049599D01*
X89399777Y-84067777D01*
X89381599Y-84084253D01*
X89361893Y-84098868D01*
X89340850Y-84111480D01*
X89318671Y-84121970D01*
X89295572Y-84130235D01*
X89271773Y-84136196D01*
X89247505Y-84139796D01*
X89223001Y-84141000D01*
X88322999Y-84141000D01*
X88298495Y-84139796D01*
X88274227Y-84136196D01*
X88250428Y-84130235D01*
X88227329Y-84121970D01*
X88205150Y-84111480D01*
X88184107Y-84098868D01*
X88164401Y-84084253D01*
X88146223Y-84067777D01*
X88129747Y-84049599D01*
X88115132Y-84029893D01*
X88102520Y-84008850D01*
X88092030Y-83986671D01*
X88083765Y-83963572D01*
X88077804Y-83939773D01*
X88074204Y-83915505D01*
X88073000Y-83891001D01*
X88073000Y-83240999D01*
X88074204Y-83216495D01*
X88077804Y-83192227D01*
X88083765Y-83168428D01*
X88092030Y-83145329D01*
X88102520Y-83123150D01*
X88115132Y-83102107D01*
X88129747Y-83082401D01*
X88146223Y-83064223D01*
X88164401Y-83047747D01*
X88184107Y-83033132D01*
X88205150Y-83020520D01*
X88227329Y-83010030D01*
X88250428Y-83001765D01*
X88274227Y-82995804D01*
X88298495Y-82992204D01*
X88322999Y-82991000D01*
X89223001Y-82991000D01*
X89247505Y-82992204D01*
X89247505Y-82992204D01*
G37*
D20*
X88773000Y-83566000D03*
D18*
G36*
X98901505Y-72199204D02*
G01*
X98925773Y-72202804D01*
X98949572Y-72208765D01*
X98972671Y-72217030D01*
X98994850Y-72227520D01*
X99015893Y-72240132D01*
X99035599Y-72254747D01*
X99053777Y-72271223D01*
X99070253Y-72289401D01*
X99084868Y-72309107D01*
X99097480Y-72330150D01*
X99107970Y-72352329D01*
X99116235Y-72375428D01*
X99122196Y-72399227D01*
X99125796Y-72423495D01*
X99127000Y-72447999D01*
X99127000Y-73348001D01*
X99125796Y-73372505D01*
X99122196Y-73396773D01*
X99116235Y-73420572D01*
X99107970Y-73443671D01*
X99097480Y-73465850D01*
X99084868Y-73486893D01*
X99070253Y-73506599D01*
X99053777Y-73524777D01*
X99035599Y-73541253D01*
X99015893Y-73555868D01*
X98994850Y-73568480D01*
X98972671Y-73578970D01*
X98949572Y-73587235D01*
X98925773Y-73593196D01*
X98901505Y-73596796D01*
X98877001Y-73598000D01*
X98226999Y-73598000D01*
X98202495Y-73596796D01*
X98178227Y-73593196D01*
X98154428Y-73587235D01*
X98131329Y-73578970D01*
X98109150Y-73568480D01*
X98088107Y-73555868D01*
X98068401Y-73541253D01*
X98050223Y-73524777D01*
X98033747Y-73506599D01*
X98019132Y-73486893D01*
X98006520Y-73465850D01*
X97996030Y-73443671D01*
X97987765Y-73420572D01*
X97981804Y-73396773D01*
X97978204Y-73372505D01*
X97977000Y-73348001D01*
X97977000Y-72447999D01*
X97978204Y-72423495D01*
X97981804Y-72399227D01*
X97987765Y-72375428D01*
X97996030Y-72352329D01*
X98006520Y-72330150D01*
X98019132Y-72309107D01*
X98033747Y-72289401D01*
X98050223Y-72271223D01*
X98068401Y-72254747D01*
X98088107Y-72240132D01*
X98109150Y-72227520D01*
X98131329Y-72217030D01*
X98154428Y-72208765D01*
X98178227Y-72202804D01*
X98202495Y-72199204D01*
X98226999Y-72198000D01*
X98877001Y-72198000D01*
X98901505Y-72199204D01*
X98901505Y-72199204D01*
G37*
D20*
X98552000Y-72898000D03*
D18*
G36*
X96851505Y-72199204D02*
G01*
X96875773Y-72202804D01*
X96899572Y-72208765D01*
X96922671Y-72217030D01*
X96944850Y-72227520D01*
X96965893Y-72240132D01*
X96985599Y-72254747D01*
X97003777Y-72271223D01*
X97020253Y-72289401D01*
X97034868Y-72309107D01*
X97047480Y-72330150D01*
X97057970Y-72352329D01*
X97066235Y-72375428D01*
X97072196Y-72399227D01*
X97075796Y-72423495D01*
X97077000Y-72447999D01*
X97077000Y-73348001D01*
X97075796Y-73372505D01*
X97072196Y-73396773D01*
X97066235Y-73420572D01*
X97057970Y-73443671D01*
X97047480Y-73465850D01*
X97034868Y-73486893D01*
X97020253Y-73506599D01*
X97003777Y-73524777D01*
X96985599Y-73541253D01*
X96965893Y-73555868D01*
X96944850Y-73568480D01*
X96922671Y-73578970D01*
X96899572Y-73587235D01*
X96875773Y-73593196D01*
X96851505Y-73596796D01*
X96827001Y-73598000D01*
X96176999Y-73598000D01*
X96152495Y-73596796D01*
X96128227Y-73593196D01*
X96104428Y-73587235D01*
X96081329Y-73578970D01*
X96059150Y-73568480D01*
X96038107Y-73555868D01*
X96018401Y-73541253D01*
X96000223Y-73524777D01*
X95983747Y-73506599D01*
X95969132Y-73486893D01*
X95956520Y-73465850D01*
X95946030Y-73443671D01*
X95937765Y-73420572D01*
X95931804Y-73396773D01*
X95928204Y-73372505D01*
X95927000Y-73348001D01*
X95927000Y-72447999D01*
X95928204Y-72423495D01*
X95931804Y-72399227D01*
X95937765Y-72375428D01*
X95946030Y-72352329D01*
X95956520Y-72330150D01*
X95969132Y-72309107D01*
X95983747Y-72289401D01*
X96000223Y-72271223D01*
X96018401Y-72254747D01*
X96038107Y-72240132D01*
X96059150Y-72227520D01*
X96081329Y-72217030D01*
X96104428Y-72208765D01*
X96128227Y-72202804D01*
X96152495Y-72199204D01*
X96176999Y-72198000D01*
X96827001Y-72198000D01*
X96851505Y-72199204D01*
X96851505Y-72199204D01*
G37*
D20*
X96502000Y-72898000D03*
D18*
G36*
X98901505Y-77279204D02*
G01*
X98925773Y-77282804D01*
X98949572Y-77288765D01*
X98972671Y-77297030D01*
X98994850Y-77307520D01*
X99015893Y-77320132D01*
X99035599Y-77334747D01*
X99053777Y-77351223D01*
X99070253Y-77369401D01*
X99084868Y-77389107D01*
X99097480Y-77410150D01*
X99107970Y-77432329D01*
X99116235Y-77455428D01*
X99122196Y-77479227D01*
X99125796Y-77503495D01*
X99127000Y-77527999D01*
X99127000Y-78428001D01*
X99125796Y-78452505D01*
X99122196Y-78476773D01*
X99116235Y-78500572D01*
X99107970Y-78523671D01*
X99097480Y-78545850D01*
X99084868Y-78566893D01*
X99070253Y-78586599D01*
X99053777Y-78604777D01*
X99035599Y-78621253D01*
X99015893Y-78635868D01*
X98994850Y-78648480D01*
X98972671Y-78658970D01*
X98949572Y-78667235D01*
X98925773Y-78673196D01*
X98901505Y-78676796D01*
X98877001Y-78678000D01*
X98226999Y-78678000D01*
X98202495Y-78676796D01*
X98178227Y-78673196D01*
X98154428Y-78667235D01*
X98131329Y-78658970D01*
X98109150Y-78648480D01*
X98088107Y-78635868D01*
X98068401Y-78621253D01*
X98050223Y-78604777D01*
X98033747Y-78586599D01*
X98019132Y-78566893D01*
X98006520Y-78545850D01*
X97996030Y-78523671D01*
X97987765Y-78500572D01*
X97981804Y-78476773D01*
X97978204Y-78452505D01*
X97977000Y-78428001D01*
X97977000Y-77527999D01*
X97978204Y-77503495D01*
X97981804Y-77479227D01*
X97987765Y-77455428D01*
X97996030Y-77432329D01*
X98006520Y-77410150D01*
X98019132Y-77389107D01*
X98033747Y-77369401D01*
X98050223Y-77351223D01*
X98068401Y-77334747D01*
X98088107Y-77320132D01*
X98109150Y-77307520D01*
X98131329Y-77297030D01*
X98154428Y-77288765D01*
X98178227Y-77282804D01*
X98202495Y-77279204D01*
X98226999Y-77278000D01*
X98877001Y-77278000D01*
X98901505Y-77279204D01*
X98901505Y-77279204D01*
G37*
D20*
X98552000Y-77978000D03*
D18*
G36*
X96851505Y-77279204D02*
G01*
X96875773Y-77282804D01*
X96899572Y-77288765D01*
X96922671Y-77297030D01*
X96944850Y-77307520D01*
X96965893Y-77320132D01*
X96985599Y-77334747D01*
X97003777Y-77351223D01*
X97020253Y-77369401D01*
X97034868Y-77389107D01*
X97047480Y-77410150D01*
X97057970Y-77432329D01*
X97066235Y-77455428D01*
X97072196Y-77479227D01*
X97075796Y-77503495D01*
X97077000Y-77527999D01*
X97077000Y-78428001D01*
X97075796Y-78452505D01*
X97072196Y-78476773D01*
X97066235Y-78500572D01*
X97057970Y-78523671D01*
X97047480Y-78545850D01*
X97034868Y-78566893D01*
X97020253Y-78586599D01*
X97003777Y-78604777D01*
X96985599Y-78621253D01*
X96965893Y-78635868D01*
X96944850Y-78648480D01*
X96922671Y-78658970D01*
X96899572Y-78667235D01*
X96875773Y-78673196D01*
X96851505Y-78676796D01*
X96827001Y-78678000D01*
X96176999Y-78678000D01*
X96152495Y-78676796D01*
X96128227Y-78673196D01*
X96104428Y-78667235D01*
X96081329Y-78658970D01*
X96059150Y-78648480D01*
X96038107Y-78635868D01*
X96018401Y-78621253D01*
X96000223Y-78604777D01*
X95983747Y-78586599D01*
X95969132Y-78566893D01*
X95956520Y-78545850D01*
X95946030Y-78523671D01*
X95937765Y-78500572D01*
X95931804Y-78476773D01*
X95928204Y-78452505D01*
X95927000Y-78428001D01*
X95927000Y-77527999D01*
X95928204Y-77503495D01*
X95931804Y-77479227D01*
X95937765Y-77455428D01*
X95946030Y-77432329D01*
X95956520Y-77410150D01*
X95969132Y-77389107D01*
X95983747Y-77369401D01*
X96000223Y-77351223D01*
X96018401Y-77334747D01*
X96038107Y-77320132D01*
X96059150Y-77307520D01*
X96081329Y-77297030D01*
X96104428Y-77288765D01*
X96128227Y-77282804D01*
X96152495Y-77279204D01*
X96176999Y-77278000D01*
X96827001Y-77278000D01*
X96851505Y-77279204D01*
X96851505Y-77279204D01*
G37*
D20*
X96502000Y-77978000D03*
D18*
G36*
X79849505Y-62171604D02*
G01*
X79873773Y-62175204D01*
X79897572Y-62181165D01*
X79920671Y-62189430D01*
X79942850Y-62199920D01*
X79963893Y-62212532D01*
X79983599Y-62227147D01*
X80001777Y-62243623D01*
X80018253Y-62261801D01*
X80032868Y-62281507D01*
X80045480Y-62302550D01*
X80055970Y-62324729D01*
X80064235Y-62347828D01*
X80070196Y-62371627D01*
X80073796Y-62395895D01*
X80075000Y-62420399D01*
X80075000Y-63070401D01*
X80073796Y-63094905D01*
X80070196Y-63119173D01*
X80064235Y-63142972D01*
X80055970Y-63166071D01*
X80045480Y-63188250D01*
X80032868Y-63209293D01*
X80018253Y-63228999D01*
X80001777Y-63247177D01*
X79983599Y-63263653D01*
X79963893Y-63278268D01*
X79942850Y-63290880D01*
X79920671Y-63301370D01*
X79897572Y-63309635D01*
X79873773Y-63315596D01*
X79849505Y-63319196D01*
X79825001Y-63320400D01*
X78924999Y-63320400D01*
X78900495Y-63319196D01*
X78876227Y-63315596D01*
X78852428Y-63309635D01*
X78829329Y-63301370D01*
X78807150Y-63290880D01*
X78786107Y-63278268D01*
X78766401Y-63263653D01*
X78748223Y-63247177D01*
X78731747Y-63228999D01*
X78717132Y-63209293D01*
X78704520Y-63188250D01*
X78694030Y-63166071D01*
X78685765Y-63142972D01*
X78679804Y-63119173D01*
X78676204Y-63094905D01*
X78675000Y-63070401D01*
X78675000Y-62420399D01*
X78676204Y-62395895D01*
X78679804Y-62371627D01*
X78685765Y-62347828D01*
X78694030Y-62324729D01*
X78704520Y-62302550D01*
X78717132Y-62281507D01*
X78731747Y-62261801D01*
X78748223Y-62243623D01*
X78766401Y-62227147D01*
X78786107Y-62212532D01*
X78807150Y-62199920D01*
X78829329Y-62189430D01*
X78852428Y-62181165D01*
X78876227Y-62175204D01*
X78900495Y-62171604D01*
X78924999Y-62170400D01*
X79825001Y-62170400D01*
X79849505Y-62171604D01*
X79849505Y-62171604D01*
G37*
D20*
X79375000Y-62745400D03*
D18*
G36*
X79849505Y-64221604D02*
G01*
X79873773Y-64225204D01*
X79897572Y-64231165D01*
X79920671Y-64239430D01*
X79942850Y-64249920D01*
X79963893Y-64262532D01*
X79983599Y-64277147D01*
X80001777Y-64293623D01*
X80018253Y-64311801D01*
X80032868Y-64331507D01*
X80045480Y-64352550D01*
X80055970Y-64374729D01*
X80064235Y-64397828D01*
X80070196Y-64421627D01*
X80073796Y-64445895D01*
X80075000Y-64470399D01*
X80075000Y-65120401D01*
X80073796Y-65144905D01*
X80070196Y-65169173D01*
X80064235Y-65192972D01*
X80055970Y-65216071D01*
X80045480Y-65238250D01*
X80032868Y-65259293D01*
X80018253Y-65278999D01*
X80001777Y-65297177D01*
X79983599Y-65313653D01*
X79963893Y-65328268D01*
X79942850Y-65340880D01*
X79920671Y-65351370D01*
X79897572Y-65359635D01*
X79873773Y-65365596D01*
X79849505Y-65369196D01*
X79825001Y-65370400D01*
X78924999Y-65370400D01*
X78900495Y-65369196D01*
X78876227Y-65365596D01*
X78852428Y-65359635D01*
X78829329Y-65351370D01*
X78807150Y-65340880D01*
X78786107Y-65328268D01*
X78766401Y-65313653D01*
X78748223Y-65297177D01*
X78731747Y-65278999D01*
X78717132Y-65259293D01*
X78704520Y-65238250D01*
X78694030Y-65216071D01*
X78685765Y-65192972D01*
X78679804Y-65169173D01*
X78676204Y-65144905D01*
X78675000Y-65120401D01*
X78675000Y-64470399D01*
X78676204Y-64445895D01*
X78679804Y-64421627D01*
X78685765Y-64397828D01*
X78694030Y-64374729D01*
X78704520Y-64352550D01*
X78717132Y-64331507D01*
X78731747Y-64311801D01*
X78748223Y-64293623D01*
X78766401Y-64277147D01*
X78786107Y-64262532D01*
X78807150Y-64249920D01*
X78829329Y-64239430D01*
X78852428Y-64231165D01*
X78876227Y-64225204D01*
X78900495Y-64221604D01*
X78924999Y-64220400D01*
X79825001Y-64220400D01*
X79849505Y-64221604D01*
X79849505Y-64221604D01*
G37*
D20*
X79375000Y-64795400D03*
D18*
G36*
X107281505Y-82856204D02*
G01*
X107305773Y-82859804D01*
X107329572Y-82865765D01*
X107352671Y-82874030D01*
X107374850Y-82884520D01*
X107395893Y-82897132D01*
X107415599Y-82911747D01*
X107433777Y-82928223D01*
X107450253Y-82946401D01*
X107464868Y-82966107D01*
X107477480Y-82987150D01*
X107487970Y-83009329D01*
X107496235Y-83032428D01*
X107502196Y-83056227D01*
X107505796Y-83080495D01*
X107507000Y-83104999D01*
X107507000Y-83755001D01*
X107505796Y-83779505D01*
X107502196Y-83803773D01*
X107496235Y-83827572D01*
X107487970Y-83850671D01*
X107477480Y-83872850D01*
X107464868Y-83893893D01*
X107450253Y-83913599D01*
X107433777Y-83931777D01*
X107415599Y-83948253D01*
X107395893Y-83962868D01*
X107374850Y-83975480D01*
X107352671Y-83985970D01*
X107329572Y-83994235D01*
X107305773Y-84000196D01*
X107281505Y-84003796D01*
X107257001Y-84005000D01*
X106356999Y-84005000D01*
X106332495Y-84003796D01*
X106308227Y-84000196D01*
X106284428Y-83994235D01*
X106261329Y-83985970D01*
X106239150Y-83975480D01*
X106218107Y-83962868D01*
X106198401Y-83948253D01*
X106180223Y-83931777D01*
X106163747Y-83913599D01*
X106149132Y-83893893D01*
X106136520Y-83872850D01*
X106126030Y-83850671D01*
X106117765Y-83827572D01*
X106111804Y-83803773D01*
X106108204Y-83779505D01*
X106107000Y-83755001D01*
X106107000Y-83104999D01*
X106108204Y-83080495D01*
X106111804Y-83056227D01*
X106117765Y-83032428D01*
X106126030Y-83009329D01*
X106136520Y-82987150D01*
X106149132Y-82966107D01*
X106163747Y-82946401D01*
X106180223Y-82928223D01*
X106198401Y-82911747D01*
X106218107Y-82897132D01*
X106239150Y-82884520D01*
X106261329Y-82874030D01*
X106284428Y-82865765D01*
X106308227Y-82859804D01*
X106332495Y-82856204D01*
X106356999Y-82855000D01*
X107257001Y-82855000D01*
X107281505Y-82856204D01*
X107281505Y-82856204D01*
G37*
D20*
X106807000Y-83430000D03*
D18*
G36*
X107281505Y-84906204D02*
G01*
X107305773Y-84909804D01*
X107329572Y-84915765D01*
X107352671Y-84924030D01*
X107374850Y-84934520D01*
X107395893Y-84947132D01*
X107415599Y-84961747D01*
X107433777Y-84978223D01*
X107450253Y-84996401D01*
X107464868Y-85016107D01*
X107477480Y-85037150D01*
X107487970Y-85059329D01*
X107496235Y-85082428D01*
X107502196Y-85106227D01*
X107505796Y-85130495D01*
X107507000Y-85154999D01*
X107507000Y-85805001D01*
X107505796Y-85829505D01*
X107502196Y-85853773D01*
X107496235Y-85877572D01*
X107487970Y-85900671D01*
X107477480Y-85922850D01*
X107464868Y-85943893D01*
X107450253Y-85963599D01*
X107433777Y-85981777D01*
X107415599Y-85998253D01*
X107395893Y-86012868D01*
X107374850Y-86025480D01*
X107352671Y-86035970D01*
X107329572Y-86044235D01*
X107305773Y-86050196D01*
X107281505Y-86053796D01*
X107257001Y-86055000D01*
X106356999Y-86055000D01*
X106332495Y-86053796D01*
X106308227Y-86050196D01*
X106284428Y-86044235D01*
X106261329Y-86035970D01*
X106239150Y-86025480D01*
X106218107Y-86012868D01*
X106198401Y-85998253D01*
X106180223Y-85981777D01*
X106163747Y-85963599D01*
X106149132Y-85943893D01*
X106136520Y-85922850D01*
X106126030Y-85900671D01*
X106117765Y-85877572D01*
X106111804Y-85853773D01*
X106108204Y-85829505D01*
X106107000Y-85805001D01*
X106107000Y-85154999D01*
X106108204Y-85130495D01*
X106111804Y-85106227D01*
X106117765Y-85082428D01*
X106126030Y-85059329D01*
X106136520Y-85037150D01*
X106149132Y-85016107D01*
X106163747Y-84996401D01*
X106180223Y-84978223D01*
X106198401Y-84961747D01*
X106218107Y-84947132D01*
X106239150Y-84934520D01*
X106261329Y-84924030D01*
X106284428Y-84915765D01*
X106308227Y-84909804D01*
X106332495Y-84906204D01*
X106356999Y-84905000D01*
X107257001Y-84905000D01*
X107281505Y-84906204D01*
X107281505Y-84906204D01*
G37*
D20*
X106807000Y-85480000D03*
D18*
G36*
X105122505Y-82856204D02*
G01*
X105146773Y-82859804D01*
X105170572Y-82865765D01*
X105193671Y-82874030D01*
X105215850Y-82884520D01*
X105236893Y-82897132D01*
X105256599Y-82911747D01*
X105274777Y-82928223D01*
X105291253Y-82946401D01*
X105305868Y-82966107D01*
X105318480Y-82987150D01*
X105328970Y-83009329D01*
X105337235Y-83032428D01*
X105343196Y-83056227D01*
X105346796Y-83080495D01*
X105348000Y-83104999D01*
X105348000Y-83755001D01*
X105346796Y-83779505D01*
X105343196Y-83803773D01*
X105337235Y-83827572D01*
X105328970Y-83850671D01*
X105318480Y-83872850D01*
X105305868Y-83893893D01*
X105291253Y-83913599D01*
X105274777Y-83931777D01*
X105256599Y-83948253D01*
X105236893Y-83962868D01*
X105215850Y-83975480D01*
X105193671Y-83985970D01*
X105170572Y-83994235D01*
X105146773Y-84000196D01*
X105122505Y-84003796D01*
X105098001Y-84005000D01*
X104197999Y-84005000D01*
X104173495Y-84003796D01*
X104149227Y-84000196D01*
X104125428Y-83994235D01*
X104102329Y-83985970D01*
X104080150Y-83975480D01*
X104059107Y-83962868D01*
X104039401Y-83948253D01*
X104021223Y-83931777D01*
X104004747Y-83913599D01*
X103990132Y-83893893D01*
X103977520Y-83872850D01*
X103967030Y-83850671D01*
X103958765Y-83827572D01*
X103952804Y-83803773D01*
X103949204Y-83779505D01*
X103948000Y-83755001D01*
X103948000Y-83104999D01*
X103949204Y-83080495D01*
X103952804Y-83056227D01*
X103958765Y-83032428D01*
X103967030Y-83009329D01*
X103977520Y-82987150D01*
X103990132Y-82966107D01*
X104004747Y-82946401D01*
X104021223Y-82928223D01*
X104039401Y-82911747D01*
X104059107Y-82897132D01*
X104080150Y-82884520D01*
X104102329Y-82874030D01*
X104125428Y-82865765D01*
X104149227Y-82859804D01*
X104173495Y-82856204D01*
X104197999Y-82855000D01*
X105098001Y-82855000D01*
X105122505Y-82856204D01*
X105122505Y-82856204D01*
G37*
D20*
X104648000Y-83430000D03*
D18*
G36*
X105122505Y-84906204D02*
G01*
X105146773Y-84909804D01*
X105170572Y-84915765D01*
X105193671Y-84924030D01*
X105215850Y-84934520D01*
X105236893Y-84947132D01*
X105256599Y-84961747D01*
X105274777Y-84978223D01*
X105291253Y-84996401D01*
X105305868Y-85016107D01*
X105318480Y-85037150D01*
X105328970Y-85059329D01*
X105337235Y-85082428D01*
X105343196Y-85106227D01*
X105346796Y-85130495D01*
X105348000Y-85154999D01*
X105348000Y-85805001D01*
X105346796Y-85829505D01*
X105343196Y-85853773D01*
X105337235Y-85877572D01*
X105328970Y-85900671D01*
X105318480Y-85922850D01*
X105305868Y-85943893D01*
X105291253Y-85963599D01*
X105274777Y-85981777D01*
X105256599Y-85998253D01*
X105236893Y-86012868D01*
X105215850Y-86025480D01*
X105193671Y-86035970D01*
X105170572Y-86044235D01*
X105146773Y-86050196D01*
X105122505Y-86053796D01*
X105098001Y-86055000D01*
X104197999Y-86055000D01*
X104173495Y-86053796D01*
X104149227Y-86050196D01*
X104125428Y-86044235D01*
X104102329Y-86035970D01*
X104080150Y-86025480D01*
X104059107Y-86012868D01*
X104039401Y-85998253D01*
X104021223Y-85981777D01*
X104004747Y-85963599D01*
X103990132Y-85943893D01*
X103977520Y-85922850D01*
X103967030Y-85900671D01*
X103958765Y-85877572D01*
X103952804Y-85853773D01*
X103949204Y-85829505D01*
X103948000Y-85805001D01*
X103948000Y-85154999D01*
X103949204Y-85130495D01*
X103952804Y-85106227D01*
X103958765Y-85082428D01*
X103967030Y-85059329D01*
X103977520Y-85037150D01*
X103990132Y-85016107D01*
X104004747Y-84996401D01*
X104021223Y-84978223D01*
X104039401Y-84961747D01*
X104059107Y-84947132D01*
X104080150Y-84934520D01*
X104102329Y-84924030D01*
X104125428Y-84915765D01*
X104149227Y-84909804D01*
X104173495Y-84906204D01*
X104197999Y-84905000D01*
X105098001Y-84905000D01*
X105122505Y-84906204D01*
X105122505Y-84906204D01*
G37*
D20*
X104648000Y-85480000D03*
D18*
G36*
X89247505Y-77413204D02*
G01*
X89271773Y-77416804D01*
X89295572Y-77422765D01*
X89318671Y-77431030D01*
X89340850Y-77441520D01*
X89361893Y-77454132D01*
X89381599Y-77468747D01*
X89399777Y-77485223D01*
X89416253Y-77503401D01*
X89430868Y-77523107D01*
X89443480Y-77544150D01*
X89453970Y-77566329D01*
X89462235Y-77589428D01*
X89468196Y-77613227D01*
X89471796Y-77637495D01*
X89473000Y-77661999D01*
X89473000Y-78312001D01*
X89471796Y-78336505D01*
X89468196Y-78360773D01*
X89462235Y-78384572D01*
X89453970Y-78407671D01*
X89443480Y-78429850D01*
X89430868Y-78450893D01*
X89416253Y-78470599D01*
X89399777Y-78488777D01*
X89381599Y-78505253D01*
X89361893Y-78519868D01*
X89340850Y-78532480D01*
X89318671Y-78542970D01*
X89295572Y-78551235D01*
X89271773Y-78557196D01*
X89247505Y-78560796D01*
X89223001Y-78562000D01*
X88322999Y-78562000D01*
X88298495Y-78560796D01*
X88274227Y-78557196D01*
X88250428Y-78551235D01*
X88227329Y-78542970D01*
X88205150Y-78532480D01*
X88184107Y-78519868D01*
X88164401Y-78505253D01*
X88146223Y-78488777D01*
X88129747Y-78470599D01*
X88115132Y-78450893D01*
X88102520Y-78429850D01*
X88092030Y-78407671D01*
X88083765Y-78384572D01*
X88077804Y-78360773D01*
X88074204Y-78336505D01*
X88073000Y-78312001D01*
X88073000Y-77661999D01*
X88074204Y-77637495D01*
X88077804Y-77613227D01*
X88083765Y-77589428D01*
X88092030Y-77566329D01*
X88102520Y-77544150D01*
X88115132Y-77523107D01*
X88129747Y-77503401D01*
X88146223Y-77485223D01*
X88164401Y-77468747D01*
X88184107Y-77454132D01*
X88205150Y-77441520D01*
X88227329Y-77431030D01*
X88250428Y-77422765D01*
X88274227Y-77416804D01*
X88298495Y-77413204D01*
X88322999Y-77412000D01*
X89223001Y-77412000D01*
X89247505Y-77413204D01*
X89247505Y-77413204D01*
G37*
D20*
X88773000Y-77987000D03*
D18*
G36*
X89247505Y-75363204D02*
G01*
X89271773Y-75366804D01*
X89295572Y-75372765D01*
X89318671Y-75381030D01*
X89340850Y-75391520D01*
X89361893Y-75404132D01*
X89381599Y-75418747D01*
X89399777Y-75435223D01*
X89416253Y-75453401D01*
X89430868Y-75473107D01*
X89443480Y-75494150D01*
X89453970Y-75516329D01*
X89462235Y-75539428D01*
X89468196Y-75563227D01*
X89471796Y-75587495D01*
X89473000Y-75611999D01*
X89473000Y-76262001D01*
X89471796Y-76286505D01*
X89468196Y-76310773D01*
X89462235Y-76334572D01*
X89453970Y-76357671D01*
X89443480Y-76379850D01*
X89430868Y-76400893D01*
X89416253Y-76420599D01*
X89399777Y-76438777D01*
X89381599Y-76455253D01*
X89361893Y-76469868D01*
X89340850Y-76482480D01*
X89318671Y-76492970D01*
X89295572Y-76501235D01*
X89271773Y-76507196D01*
X89247505Y-76510796D01*
X89223001Y-76512000D01*
X88322999Y-76512000D01*
X88298495Y-76510796D01*
X88274227Y-76507196D01*
X88250428Y-76501235D01*
X88227329Y-76492970D01*
X88205150Y-76482480D01*
X88184107Y-76469868D01*
X88164401Y-76455253D01*
X88146223Y-76438777D01*
X88129747Y-76420599D01*
X88115132Y-76400893D01*
X88102520Y-76379850D01*
X88092030Y-76357671D01*
X88083765Y-76334572D01*
X88077804Y-76310773D01*
X88074204Y-76286505D01*
X88073000Y-76262001D01*
X88073000Y-75611999D01*
X88074204Y-75587495D01*
X88077804Y-75563227D01*
X88083765Y-75539428D01*
X88092030Y-75516329D01*
X88102520Y-75494150D01*
X88115132Y-75473107D01*
X88129747Y-75453401D01*
X88146223Y-75435223D01*
X88164401Y-75418747D01*
X88184107Y-75404132D01*
X88205150Y-75391520D01*
X88227329Y-75381030D01*
X88250428Y-75372765D01*
X88274227Y-75366804D01*
X88298495Y-75363204D01*
X88322999Y-75362000D01*
X89223001Y-75362000D01*
X89247505Y-75363204D01*
X89247505Y-75363204D01*
G37*
D20*
X88773000Y-75937000D03*
D21*
X119380000Y-95631000D03*
X119380000Y-91694000D03*
D22*
X110218000Y-75565000D03*
X119398000Y-75565000D03*
D23*
X95334000Y-84074000D03*
X95334000Y-83124000D03*
X95334000Y-85024000D03*
X93134000Y-85024000D03*
X93134000Y-84074000D03*
X93134000Y-83124000D03*
D24*
X106070000Y-93599000D03*
D25*
X112370000Y-93599000D03*
X112370000Y-91299000D03*
X112370000Y-95899000D03*
D16*
X84455000Y-88646000D03*
X84455000Y-86106000D03*
X84455000Y-83566000D03*
X84455000Y-81026000D03*
X84455000Y-78486000D03*
D17*
X84455000Y-75946000D03*
D26*
X105893000Y-70362600D03*
X105893000Y-68362600D03*
X105893000Y-66362600D03*
X105893000Y-64362600D03*
X105893000Y-62362600D03*
X105893000Y-60362600D03*
X105893000Y-58362600D03*
D27*
X105893000Y-56362600D03*
D28*
X102235000Y-72948800D03*
X102235000Y-75488800D03*
D13*
X102235000Y-78028800D03*
D29*
X84912200Y-66573400D03*
X89027000Y-62255400D03*
X92100400Y-58597800D03*
X86893400Y-58242200D03*
X108280200Y-54102000D03*
X110972600Y-66827400D03*
X119862600Y-57937400D03*
X105740200Y-83413600D03*
X93853000Y-76200000D03*
X98409700Y-82815900D03*
X87399100Y-70481500D03*
X92235200Y-69753600D03*
X91854100Y-68301400D03*
X95205000Y-69426300D03*
X90191100Y-58752900D03*
X92203800Y-86140200D03*
X91811200Y-63031700D03*
X90993400Y-65409500D03*
X82840300Y-58210800D03*
D30*
X84544200Y-66205400D02*
X84912200Y-66573400D01*
X82260200Y-66205400D02*
X84544200Y-66205400D01*
X87160200Y-59505400D02*
X87147400Y-59492600D01*
X87160200Y-60505400D02*
X87160200Y-59505400D01*
X93660200Y-66205400D02*
X89852800Y-66205400D01*
X89852800Y-66205400D02*
X89027000Y-65379600D01*
X89027000Y-65379600D02*
X89027000Y-62255400D01*
X89027000Y-62255400D02*
X89027000Y-62255400D01*
X93134000Y-84074000D02*
X95334000Y-84074000D01*
X95334000Y-84074000D02*
X97586800Y-84074000D01*
X88523798Y-73279000D02*
X89077800Y-73279000D01*
X87960200Y-71905400D02*
X87960200Y-72715402D01*
X87960200Y-72715402D02*
X88523798Y-73279000D01*
X89077800Y-73279000D02*
X91135200Y-75336400D01*
X91135200Y-75336400D02*
X91135200Y-75336400D01*
X103134999Y-76388799D02*
X103468601Y-76388799D01*
X102235000Y-75488800D02*
X103134999Y-76388799D01*
X101335001Y-76388799D02*
X100776201Y-76388799D01*
X102235000Y-75488800D02*
X101335001Y-76388799D01*
X93660200Y-67005400D02*
X94735500Y-67005400D01*
X94735500Y-67005400D02*
X96310100Y-68580000D01*
X96310100Y-68580000D02*
X99466400Y-68580000D01*
X99466400Y-68580000D02*
X101219000Y-70332600D01*
X87960200Y-65405400D02*
X89560200Y-67005400D01*
X89560200Y-67005400D02*
X93660200Y-67005400D01*
X98409700Y-83124000D02*
X95334000Y-83124000D01*
X104648000Y-85480000D02*
X102292000Y-83124000D01*
X102292000Y-83124000D02*
X98409700Y-83124000D01*
X98409700Y-82815900D02*
X98409700Y-83124000D01*
X88457300Y-83566000D02*
X88773000Y-83566000D01*
X106807000Y-85480000D02*
X104648000Y-85480000D01*
X96774000Y-57150000D02*
X97949300Y-57150000D01*
X101460000Y-56175500D02*
X98923800Y-56175500D01*
X98923800Y-56175500D02*
X97949300Y-57150000D01*
X104892700Y-56362600D02*
X104705600Y-56175500D01*
X104705600Y-56175500D02*
X101460000Y-56175500D01*
X87960200Y-65405400D02*
X82260200Y-65405400D01*
X87960200Y-61580700D02*
X87960200Y-65405400D01*
X87960200Y-60505400D02*
X87960200Y-59430100D01*
X96774000Y-57150000D02*
X90240300Y-57150000D01*
X90240300Y-57150000D02*
X87960200Y-59430100D01*
X105893000Y-56362600D02*
X104892700Y-56362600D01*
X106807000Y-85480000D02*
X109207000Y-85480000D01*
X109207000Y-85480000D02*
X110617000Y-86890000D01*
X88457300Y-83566000D02*
X85630300Y-83566000D01*
X88457300Y-83566000D02*
X88457300Y-96227900D01*
X89382600Y-96227900D02*
X88457300Y-96227900D01*
X84455000Y-83566000D02*
X85630300Y-83566000D01*
X87960200Y-60505400D02*
X87960200Y-61580700D01*
X110617000Y-86890000D02*
X110617000Y-91846000D01*
X110617000Y-91846000D02*
X111294700Y-92523700D01*
X111294700Y-92523700D02*
X112370000Y-92523700D01*
X87399100Y-70481500D02*
X87160200Y-70720400D01*
X87160200Y-70720400D02*
X87160200Y-71905400D01*
X112370000Y-93599000D02*
X112370000Y-92523700D01*
X88773000Y-77987000D02*
X87907400Y-77121400D01*
X87907400Y-77121400D02*
X83447700Y-77121400D01*
X83447700Y-77121400D02*
X83279700Y-76953400D01*
X83279700Y-76953400D02*
X83279700Y-71067200D01*
X83279700Y-71067200D02*
X86778900Y-67568000D01*
X86778900Y-67568000D02*
X92347500Y-67568000D01*
X92347500Y-67568000D02*
X92584900Y-67805400D01*
X93660200Y-67805400D02*
X92584900Y-67805400D01*
X88773000Y-81516000D02*
X88773000Y-77987000D01*
X93660200Y-67805400D02*
X94735500Y-67805400D01*
X94735500Y-67805400D02*
X94735500Y-67811500D01*
X94735500Y-67811500D02*
X96774000Y-69850000D01*
X84455000Y-75946000D02*
X85630300Y-75946000D01*
X88773000Y-75937000D02*
X85639300Y-75937000D01*
X85639300Y-75937000D02*
X85630300Y-75946000D01*
X112370000Y-90761300D02*
X112370000Y-86201700D01*
X112370000Y-86201700D02*
X111417500Y-85249200D01*
X111417500Y-85249200D02*
X110128700Y-85249200D01*
X110128700Y-85249200D02*
X108964700Y-84085200D01*
X108964700Y-84085200D02*
X108964700Y-83987900D01*
X108964700Y-83987900D02*
X107067400Y-82090600D01*
X107067400Y-82090600D02*
X95022700Y-82090600D01*
X95022700Y-82090600D02*
X93989300Y-83124000D01*
X112370000Y-90761300D02*
X118447300Y-90761300D01*
X93134000Y-83124000D02*
X93989300Y-83124000D01*
X118447300Y-90761300D02*
X118447300Y-87822700D01*
X118447300Y-87822700D02*
X119380000Y-86890000D01*
X118447300Y-90761300D02*
X119380000Y-91694000D01*
X112370000Y-91299000D02*
X112370000Y-90761300D01*
X92278700Y-83124000D02*
X90434900Y-84967800D01*
X90434900Y-84967800D02*
X90434900Y-92202000D01*
X93134000Y-83124000D02*
X92278700Y-83124000D01*
X89509600Y-92202000D02*
X90434900Y-92202000D01*
X82260200Y-67005400D02*
X81184900Y-67005400D01*
X79375000Y-64795400D02*
X79375000Y-65195500D01*
X79375000Y-65195500D02*
X81184900Y-67005400D01*
X102235000Y-72948800D02*
X98602800Y-72948800D01*
X98602800Y-72948800D02*
X98552000Y-72898000D01*
X102235000Y-78028800D02*
X98602800Y-78028800D01*
X98602800Y-78028800D02*
X98552000Y-77978000D01*
X92235200Y-69753600D02*
X92583400Y-69405400D01*
X92583400Y-69405400D02*
X93660200Y-69405400D01*
X91854100Y-68301400D02*
X92158100Y-68605400D01*
X92158100Y-68605400D02*
X93660200Y-68605400D01*
X105893000Y-60362600D02*
X104892700Y-60362600D01*
X104892700Y-60362600D02*
X103025300Y-62230000D01*
X103025300Y-62230000D02*
X96774000Y-62230000D01*
X93660200Y-70205400D02*
X94735500Y-70205400D01*
X95205000Y-69426300D02*
X94735500Y-69895800D01*
X94735500Y-69895800D02*
X94735500Y-70205400D01*
X92847900Y-86654800D02*
X94478700Y-85024000D01*
X92847900Y-96215200D02*
X92847900Y-86654800D01*
X92847900Y-86654800D02*
X92718400Y-86654800D01*
X92718400Y-86654800D02*
X92203800Y-86140200D01*
X90191100Y-58752900D02*
X90360200Y-58922000D01*
X90360200Y-58922000D02*
X90360200Y-60505400D01*
X91922600Y-96215200D02*
X92847900Y-96215200D01*
X95334000Y-85024000D02*
X94478700Y-85024000D01*
X92278700Y-85024000D02*
X91478500Y-85824200D01*
X91478500Y-85824200D02*
X91478500Y-90008800D01*
X91478500Y-90008800D02*
X91922600Y-90452900D01*
X91922600Y-92278200D02*
X91922600Y-90452900D01*
X93134000Y-85024000D02*
X92278700Y-85024000D01*
X93660200Y-63005400D02*
X92584900Y-63005400D01*
X91811200Y-63031700D02*
X92558600Y-63031700D01*
X92558600Y-63031700D02*
X92584900Y-63005400D01*
X93660200Y-63805400D02*
X92584900Y-63805400D01*
X90993400Y-65409500D02*
X92584900Y-63818000D01*
X92584900Y-63818000D02*
X92584900Y-63805400D01*
X85560200Y-72980700D02*
X85560200Y-71905400D01*
X96502000Y-77978000D02*
X92481400Y-77978000D01*
X92481400Y-77978000D02*
X92481400Y-77952600D01*
X92481400Y-77952600D02*
X88468200Y-73939400D01*
X86518900Y-73939400D02*
X85560200Y-72980700D01*
X88468200Y-73939400D02*
X86518900Y-73939400D01*
X96502000Y-72898000D02*
X94652800Y-72898000D01*
X94652800Y-72898000D02*
X92310900Y-70556100D01*
X92310900Y-70556100D02*
X88774000Y-70556100D01*
X88774000Y-70556100D02*
X87950200Y-69732300D01*
X87950200Y-69732300D02*
X87024700Y-69732300D01*
X87024700Y-69732300D02*
X86360200Y-70396800D01*
X86360200Y-70396800D02*
X86360200Y-70830100D01*
X86360200Y-71905400D02*
X86360200Y-70830100D01*
X89560200Y-71905400D02*
X89560200Y-72980700D01*
X110218000Y-75565000D02*
X110218000Y-74439700D01*
X110218000Y-74439700D02*
X109997100Y-74218800D01*
X109997100Y-74218800D02*
X98672500Y-74218800D01*
X98672500Y-74218800D02*
X98455900Y-74435400D01*
X98455900Y-74435400D02*
X91014900Y-74435400D01*
X91014900Y-74435400D02*
X89560200Y-72980700D01*
X82260200Y-62205400D02*
X81184900Y-62205400D01*
X78486000Y-73025000D02*
X78486000Y-71799700D01*
X78486000Y-71799700D02*
X78321600Y-71635300D01*
X78321600Y-71635300D02*
X78321600Y-64256300D01*
X78321600Y-64256300D02*
X78931100Y-63646800D01*
X78931100Y-63646800D02*
X80116600Y-63646800D01*
X80116600Y-63646800D02*
X81184900Y-62578500D01*
X81184900Y-62578500D02*
X81184900Y-62205400D01*
X82840300Y-58210800D02*
X83960200Y-59330700D01*
X83960200Y-59330700D02*
X83960200Y-60505400D01*
X112395000Y-54229000D02*
X111469700Y-54229000D01*
X91948000Y-54229000D02*
X92873300Y-54229000D01*
X92873300Y-54229000D02*
X93041100Y-54061200D01*
X93041100Y-54061200D02*
X106606200Y-54061200D01*
X106606200Y-54061200D02*
X108099400Y-55554400D01*
X108099400Y-55554400D02*
X110606900Y-55554400D01*
X110606900Y-55554400D02*
X111469700Y-54691600D01*
X111469700Y-54691600D02*
X111469700Y-54229000D01*
X114935000Y-54229000D02*
X114009700Y-54229000D01*
X89344500Y-54229000D02*
X90269800Y-54229000D01*
X90269800Y-54229000D02*
X90269800Y-54691700D01*
X90269800Y-54691700D02*
X91132500Y-55554400D01*
X91132500Y-55554400D02*
X96049000Y-55554400D01*
X96049000Y-55554400D02*
X97073000Y-54530400D01*
X97073000Y-54530400D02*
X106249400Y-54530400D01*
X106249400Y-54530400D02*
X107751800Y-56032800D01*
X107751800Y-56032800D02*
X112668500Y-56032800D01*
X112668500Y-56032800D02*
X114009700Y-54691600D01*
X114009700Y-54691600D02*
X114009700Y-54229000D01*
X91960200Y-71905400D02*
X91960200Y-72980700D01*
X104208500Y-70362600D02*
X103088300Y-70362600D01*
X103088300Y-70362600D02*
X101635500Y-71815400D01*
X101635500Y-71815400D02*
X98023600Y-71815400D01*
X98023600Y-71815400D02*
X97527000Y-72312000D01*
X97527000Y-72312000D02*
X97527000Y-73471400D01*
X97527000Y-73471400D02*
X97013400Y-73985000D01*
X97013400Y-73985000D02*
X92964500Y-73985000D01*
X92964500Y-73985000D02*
X91960200Y-72980700D01*
X104208500Y-70362600D02*
X103299000Y-70362600D01*
X103299000Y-70362600D02*
X103269000Y-70332600D01*
X105893000Y-70362600D02*
X104208500Y-70362600D01*
X105893000Y-68362600D02*
X104892700Y-68362600D01*
X104892700Y-68362600D02*
X100124700Y-63594600D01*
X100124700Y-63594600D02*
X96357600Y-63594600D01*
X96357600Y-63594600D02*
X94968400Y-62205400D01*
X94968400Y-62205400D02*
X93660200Y-62205400D01*
D31*
G36*
X80621100Y-67516402D02*
G01*
X80644899Y-67545401D01*
X80673897Y-67569199D01*
X80760623Y-67640374D01*
X80872128Y-67699975D01*
X80872128Y-68080400D01*
X80884388Y-68204882D01*
X80884545Y-68205400D01*
X80884388Y-68205918D01*
X80872128Y-68330400D01*
X80872128Y-68880400D01*
X80884388Y-69004882D01*
X80884545Y-69005400D01*
X80884388Y-69005918D01*
X80872128Y-69130400D01*
X80872128Y-69680400D01*
X80884388Y-69804882D01*
X80884545Y-69805400D01*
X80884388Y-69805918D01*
X80872128Y-69930400D01*
X80872128Y-70480400D01*
X80884388Y-70604882D01*
X80920698Y-70724580D01*
X80979663Y-70834894D01*
X81059015Y-70931585D01*
X81155706Y-71010937D01*
X81266020Y-71069902D01*
X81385718Y-71106212D01*
X81510200Y-71118472D01*
X82519701Y-71118472D01*
X82519700Y-76916077D01*
X82516024Y-76953400D01*
X82519700Y-76990722D01*
X82519700Y-76990732D01*
X82530697Y-77102385D01*
X82564653Y-77214324D01*
X82574154Y-77245646D01*
X82644726Y-77377676D01*
X82673387Y-77412599D01*
X82739699Y-77493401D01*
X82768703Y-77517204D01*
X82883896Y-77632397D01*
X82907699Y-77661401D01*
X83023424Y-77756374D01*
X83130561Y-77813641D01*
X83076401Y-77914966D01*
X82991487Y-78194889D01*
X82962815Y-78486000D01*
X82991487Y-78777111D01*
X83076401Y-79057034D01*
X83214294Y-79315014D01*
X83399866Y-79541134D01*
X83625986Y-79726706D01*
X83680791Y-79756000D01*
X83625986Y-79785294D01*
X83399866Y-79970866D01*
X83214294Y-80196986D01*
X83076401Y-80454966D01*
X82991487Y-80734889D01*
X82962815Y-81026000D01*
X82991487Y-81317111D01*
X83076401Y-81597034D01*
X83214294Y-81855014D01*
X83399866Y-82081134D01*
X83625986Y-82266706D01*
X83680791Y-82296000D01*
X83625986Y-82325294D01*
X83399866Y-82510866D01*
X83214294Y-82736986D01*
X83076401Y-82994966D01*
X82991487Y-83274889D01*
X82962815Y-83566000D01*
X82991487Y-83857111D01*
X83076401Y-84137034D01*
X83214294Y-84395014D01*
X83399866Y-84621134D01*
X83625986Y-84806706D01*
X83690523Y-84841201D01*
X83573645Y-84910822D01*
X83357412Y-85105731D01*
X83183359Y-85339080D01*
X83058175Y-85601901D01*
X83013524Y-85749110D01*
X83134845Y-85979000D01*
X84328000Y-85979000D01*
X84328000Y-85959000D01*
X84582000Y-85959000D01*
X84582000Y-85979000D01*
X85775155Y-85979000D01*
X85896476Y-85749110D01*
X85851825Y-85601901D01*
X85726641Y-85339080D01*
X85552588Y-85105731D01*
X85336355Y-84910822D01*
X85219477Y-84841201D01*
X85284014Y-84806706D01*
X85510134Y-84621134D01*
X85695706Y-84395014D01*
X85732595Y-84326000D01*
X87553386Y-84326000D01*
X87584595Y-84384387D01*
X87695038Y-84518962D01*
X87697300Y-84520818D01*
X87697301Y-96190557D01*
X87693623Y-96227900D01*
X87708297Y-96376886D01*
X87751754Y-96520147D01*
X87822326Y-96652176D01*
X87917299Y-96767901D01*
X88033024Y-96862874D01*
X88144528Y-96922475D01*
X88144528Y-97340000D01*
X81562833Y-97340000D01*
X78130000Y-93735977D01*
X78130000Y-89002890D01*
X83013524Y-89002890D01*
X83058175Y-89150099D01*
X83183359Y-89412920D01*
X83357412Y-89646269D01*
X83573645Y-89841178D01*
X83823748Y-89990157D01*
X84098109Y-90087481D01*
X84328000Y-89966814D01*
X84328000Y-88773000D01*
X84582000Y-88773000D01*
X84582000Y-89966814D01*
X84811891Y-90087481D01*
X85086252Y-89990157D01*
X85336355Y-89841178D01*
X85552588Y-89646269D01*
X85726641Y-89412920D01*
X85851825Y-89150099D01*
X85896476Y-89002890D01*
X85775155Y-88773000D01*
X84582000Y-88773000D01*
X84328000Y-88773000D01*
X83134845Y-88773000D01*
X83013524Y-89002890D01*
X78130000Y-89002890D01*
X78130000Y-86462890D01*
X83013524Y-86462890D01*
X83058175Y-86610099D01*
X83183359Y-86872920D01*
X83357412Y-87106269D01*
X83573645Y-87301178D01*
X83699255Y-87376000D01*
X83573645Y-87450822D01*
X83357412Y-87645731D01*
X83183359Y-87879080D01*
X83058175Y-88141901D01*
X83013524Y-88289110D01*
X83134845Y-88519000D01*
X84328000Y-88519000D01*
X84328000Y-86233000D01*
X84582000Y-86233000D01*
X84582000Y-88519000D01*
X85775155Y-88519000D01*
X85896476Y-88289110D01*
X85851825Y-88141901D01*
X85726641Y-87879080D01*
X85552588Y-87645731D01*
X85336355Y-87450822D01*
X85210745Y-87376000D01*
X85336355Y-87301178D01*
X85552588Y-87106269D01*
X85726641Y-86872920D01*
X85851825Y-86610099D01*
X85896476Y-86462890D01*
X85775155Y-86233000D01*
X84582000Y-86233000D01*
X84328000Y-86233000D01*
X83134845Y-86233000D01*
X83013524Y-86462890D01*
X78130000Y-86462890D01*
X78130000Y-79591600D01*
X78359000Y-79475378D01*
X78359000Y-78232000D01*
X78613000Y-78232000D01*
X78613000Y-79475378D01*
X78850740Y-79596036D01*
X79011107Y-79547394D01*
X79282414Y-79417236D01*
X79523116Y-79236649D01*
X79723962Y-79012573D01*
X79877234Y-78753620D01*
X79977041Y-78469741D01*
X79856992Y-78232000D01*
X78613000Y-78232000D01*
X78359000Y-78232000D01*
X78339000Y-78232000D01*
X78339000Y-77978000D01*
X78359000Y-77978000D01*
X78359000Y-76734622D01*
X78613000Y-76734622D01*
X78613000Y-77978000D01*
X79856992Y-77978000D01*
X79977041Y-77740259D01*
X79877234Y-77456380D01*
X79723962Y-77197427D01*
X79523116Y-76973351D01*
X79282414Y-76792764D01*
X79011107Y-76662606D01*
X78850740Y-76613964D01*
X78613000Y-76734622D01*
X78359000Y-76734622D01*
X78130000Y-76618400D01*
X78130000Y-74563072D01*
X79386000Y-74563072D01*
X79510482Y-74550812D01*
X79630180Y-74514502D01*
X79740494Y-74455537D01*
X79837185Y-74376185D01*
X79916537Y-74279494D01*
X79975502Y-74169180D01*
X80011812Y-74049482D01*
X80024072Y-73925000D01*
X80024072Y-72125000D01*
X80011812Y-72000518D01*
X79975502Y-71880820D01*
X79916537Y-71770506D01*
X79837185Y-71673815D01*
X79740494Y-71594463D01*
X79630180Y-71535498D01*
X79510482Y-71499188D01*
X79386000Y-71486928D01*
X79180575Y-71486928D01*
X79120974Y-71375424D01*
X79081600Y-71327447D01*
X79081600Y-66008472D01*
X79113171Y-66008472D01*
X80621100Y-67516402D01*
X80621100Y-67516402D01*
G37*
X80621100Y-67516402D02*
X80644899Y-67545401D01*
X80673897Y-67569199D01*
X80760623Y-67640374D01*
X80872128Y-67699975D01*
X80872128Y-68080400D01*
X80884388Y-68204882D01*
X80884545Y-68205400D01*
X80884388Y-68205918D01*
X80872128Y-68330400D01*
X80872128Y-68880400D01*
X80884388Y-69004882D01*
X80884545Y-69005400D01*
X80884388Y-69005918D01*
X80872128Y-69130400D01*
X80872128Y-69680400D01*
X80884388Y-69804882D01*
X80884545Y-69805400D01*
X80884388Y-69805918D01*
X80872128Y-69930400D01*
X80872128Y-70480400D01*
X80884388Y-70604882D01*
X80920698Y-70724580D01*
X80979663Y-70834894D01*
X81059015Y-70931585D01*
X81155706Y-71010937D01*
X81266020Y-71069902D01*
X81385718Y-71106212D01*
X81510200Y-71118472D01*
X82519701Y-71118472D01*
X82519700Y-76916077D01*
X82516024Y-76953400D01*
X82519700Y-76990722D01*
X82519700Y-76990732D01*
X82530697Y-77102385D01*
X82564653Y-77214324D01*
X82574154Y-77245646D01*
X82644726Y-77377676D01*
X82673387Y-77412599D01*
X82739699Y-77493401D01*
X82768703Y-77517204D01*
X82883896Y-77632397D01*
X82907699Y-77661401D01*
X83023424Y-77756374D01*
X83130561Y-77813641D01*
X83076401Y-77914966D01*
X82991487Y-78194889D01*
X82962815Y-78486000D01*
X82991487Y-78777111D01*
X83076401Y-79057034D01*
X83214294Y-79315014D01*
X83399866Y-79541134D01*
X83625986Y-79726706D01*
X83680791Y-79756000D01*
X83625986Y-79785294D01*
X83399866Y-79970866D01*
X83214294Y-80196986D01*
X83076401Y-80454966D01*
X82991487Y-80734889D01*
X82962815Y-81026000D01*
X82991487Y-81317111D01*
X83076401Y-81597034D01*
X83214294Y-81855014D01*
X83399866Y-82081134D01*
X83625986Y-82266706D01*
X83680791Y-82296000D01*
X83625986Y-82325294D01*
X83399866Y-82510866D01*
X83214294Y-82736986D01*
X83076401Y-82994966D01*
X82991487Y-83274889D01*
X82962815Y-83566000D01*
X82991487Y-83857111D01*
X83076401Y-84137034D01*
X83214294Y-84395014D01*
X83399866Y-84621134D01*
X83625986Y-84806706D01*
X83690523Y-84841201D01*
X83573645Y-84910822D01*
X83357412Y-85105731D01*
X83183359Y-85339080D01*
X83058175Y-85601901D01*
X83013524Y-85749110D01*
X83134845Y-85979000D01*
X84328000Y-85979000D01*
X84328000Y-85959000D01*
X84582000Y-85959000D01*
X84582000Y-85979000D01*
X85775155Y-85979000D01*
X85896476Y-85749110D01*
X85851825Y-85601901D01*
X85726641Y-85339080D01*
X85552588Y-85105731D01*
X85336355Y-84910822D01*
X85219477Y-84841201D01*
X85284014Y-84806706D01*
X85510134Y-84621134D01*
X85695706Y-84395014D01*
X85732595Y-84326000D01*
X87553386Y-84326000D01*
X87584595Y-84384387D01*
X87695038Y-84518962D01*
X87697300Y-84520818D01*
X87697301Y-96190557D01*
X87693623Y-96227900D01*
X87708297Y-96376886D01*
X87751754Y-96520147D01*
X87822326Y-96652176D01*
X87917299Y-96767901D01*
X88033024Y-96862874D01*
X88144528Y-96922475D01*
X88144528Y-97340000D01*
X81562833Y-97340000D01*
X78130000Y-93735977D01*
X78130000Y-89002890D01*
X83013524Y-89002890D01*
X83058175Y-89150099D01*
X83183359Y-89412920D01*
X83357412Y-89646269D01*
X83573645Y-89841178D01*
X83823748Y-89990157D01*
X84098109Y-90087481D01*
X84328000Y-89966814D01*
X84328000Y-88773000D01*
X84582000Y-88773000D01*
X84582000Y-89966814D01*
X84811891Y-90087481D01*
X85086252Y-89990157D01*
X85336355Y-89841178D01*
X85552588Y-89646269D01*
X85726641Y-89412920D01*
X85851825Y-89150099D01*
X85896476Y-89002890D01*
X85775155Y-88773000D01*
X84582000Y-88773000D01*
X84328000Y-88773000D01*
X83134845Y-88773000D01*
X83013524Y-89002890D01*
X78130000Y-89002890D01*
X78130000Y-86462890D01*
X83013524Y-86462890D01*
X83058175Y-86610099D01*
X83183359Y-86872920D01*
X83357412Y-87106269D01*
X83573645Y-87301178D01*
X83699255Y-87376000D01*
X83573645Y-87450822D01*
X83357412Y-87645731D01*
X83183359Y-87879080D01*
X83058175Y-88141901D01*
X83013524Y-88289110D01*
X83134845Y-88519000D01*
X84328000Y-88519000D01*
X84328000Y-86233000D01*
X84582000Y-86233000D01*
X84582000Y-88519000D01*
X85775155Y-88519000D01*
X85896476Y-88289110D01*
X85851825Y-88141901D01*
X85726641Y-87879080D01*
X85552588Y-87645731D01*
X85336355Y-87450822D01*
X85210745Y-87376000D01*
X85336355Y-87301178D01*
X85552588Y-87106269D01*
X85726641Y-86872920D01*
X85851825Y-86610099D01*
X85896476Y-86462890D01*
X85775155Y-86233000D01*
X84582000Y-86233000D01*
X84328000Y-86233000D01*
X83134845Y-86233000D01*
X83013524Y-86462890D01*
X78130000Y-86462890D01*
X78130000Y-79591600D01*
X78359000Y-79475378D01*
X78359000Y-78232000D01*
X78613000Y-78232000D01*
X78613000Y-79475378D01*
X78850740Y-79596036D01*
X79011107Y-79547394D01*
X79282414Y-79417236D01*
X79523116Y-79236649D01*
X79723962Y-79012573D01*
X79877234Y-78753620D01*
X79977041Y-78469741D01*
X79856992Y-78232000D01*
X78613000Y-78232000D01*
X78359000Y-78232000D01*
X78339000Y-78232000D01*
X78339000Y-77978000D01*
X78359000Y-77978000D01*
X78359000Y-76734622D01*
X78613000Y-76734622D01*
X78613000Y-77978000D01*
X79856992Y-77978000D01*
X79977041Y-77740259D01*
X79877234Y-77456380D01*
X79723962Y-77197427D01*
X79523116Y-76973351D01*
X79282414Y-76792764D01*
X79011107Y-76662606D01*
X78850740Y-76613964D01*
X78613000Y-76734622D01*
X78359000Y-76734622D01*
X78130000Y-76618400D01*
X78130000Y-74563072D01*
X79386000Y-74563072D01*
X79510482Y-74550812D01*
X79630180Y-74514502D01*
X79740494Y-74455537D01*
X79837185Y-74376185D01*
X79916537Y-74279494D01*
X79975502Y-74169180D01*
X80011812Y-74049482D01*
X80024072Y-73925000D01*
X80024072Y-72125000D01*
X80011812Y-72000518D01*
X79975502Y-71880820D01*
X79916537Y-71770506D01*
X79837185Y-71673815D01*
X79740494Y-71594463D01*
X79630180Y-71535498D01*
X79510482Y-71499188D01*
X79386000Y-71486928D01*
X79180575Y-71486928D01*
X79120974Y-71375424D01*
X79081600Y-71327447D01*
X79081600Y-66008472D01*
X79113171Y-66008472D01*
X80621100Y-67516402D01*
G36*
X126340000Y-57083381D02*
G01*
X126340000Y-71528921D01*
X126284913Y-71512210D01*
X126059408Y-71490000D01*
X125908592Y-71490000D01*
X125683087Y-71512210D01*
X125393739Y-71599983D01*
X125127073Y-71742519D01*
X124893339Y-71934339D01*
X124701519Y-72168073D01*
X124558983Y-72434739D01*
X124471210Y-72724087D01*
X124441573Y-73025000D01*
X124471210Y-73325913D01*
X124558983Y-73615261D01*
X124701519Y-73881927D01*
X124893339Y-74115661D01*
X125127073Y-74307481D01*
X125393739Y-74450017D01*
X125683087Y-74537790D01*
X125908592Y-74560000D01*
X126059408Y-74560000D01*
X126284913Y-74537790D01*
X126340000Y-74521079D01*
X126340001Y-76569649D01*
X126269750Y-76570000D01*
X126111000Y-76728750D01*
X126111000Y-77978000D01*
X126131000Y-77978000D01*
X126131000Y-78232000D01*
X126111000Y-78232000D01*
X126111000Y-79481250D01*
X126269750Y-79640000D01*
X126340001Y-79640351D01*
X126340001Y-93735975D01*
X122907168Y-97340000D01*
X95725091Y-97340000D01*
X95723343Y-96649000D01*
X110731928Y-96649000D01*
X110744188Y-96773482D01*
X110780498Y-96893180D01*
X110839463Y-97003494D01*
X110918815Y-97100185D01*
X111015506Y-97179537D01*
X111125820Y-97238502D01*
X111245518Y-97274812D01*
X111370000Y-97287072D01*
X112084250Y-97284000D01*
X112243000Y-97125250D01*
X112243000Y-96026000D01*
X112497000Y-96026000D01*
X112497000Y-97125250D01*
X112655750Y-97284000D01*
X113370000Y-97287072D01*
X113494482Y-97274812D01*
X113614180Y-97238502D01*
X113724494Y-97179537D01*
X113821185Y-97100185D01*
X113900537Y-97003494D01*
X113959502Y-96893180D01*
X113995812Y-96773482D01*
X113996508Y-96766413D01*
X118424192Y-96766413D01*
X118519956Y-97030814D01*
X118809571Y-97171704D01*
X119121108Y-97253384D01*
X119442595Y-97272718D01*
X119761675Y-97228961D01*
X120066088Y-97123795D01*
X120240044Y-97030814D01*
X120335808Y-96766413D01*
X119380000Y-95810605D01*
X118424192Y-96766413D01*
X113996508Y-96766413D01*
X114008072Y-96649000D01*
X114005000Y-96184750D01*
X113846250Y-96026000D01*
X112497000Y-96026000D01*
X112243000Y-96026000D01*
X110893750Y-96026000D01*
X110735000Y-96184750D01*
X110731928Y-96649000D01*
X95723343Y-96649000D01*
X95723000Y-96513650D01*
X95564250Y-96354900D01*
X94615000Y-96354900D01*
X94615000Y-96374900D01*
X94361000Y-96374900D01*
X94361000Y-96354900D01*
X94341000Y-96354900D01*
X94341000Y-96100900D01*
X94361000Y-96100900D01*
X94361000Y-94251650D01*
X94615000Y-94251650D01*
X94615000Y-96100900D01*
X95564250Y-96100900D01*
X95723000Y-95942150D01*
X95726072Y-94727900D01*
X95713812Y-94603418D01*
X95677502Y-94483720D01*
X95618537Y-94373406D01*
X95539185Y-94276715D01*
X95442494Y-94197363D01*
X95332180Y-94138398D01*
X95212482Y-94102088D01*
X95088000Y-94089828D01*
X94773750Y-94092900D01*
X94615000Y-94251650D01*
X94361000Y-94251650D01*
X94202250Y-94092900D01*
X93888000Y-94089828D01*
X93763518Y-94102088D01*
X93643820Y-94138398D01*
X93607900Y-94157598D01*
X93607900Y-91699000D01*
X104431928Y-91699000D01*
X104431928Y-95499000D01*
X104444188Y-95623482D01*
X104480498Y-95743180D01*
X104539463Y-95853494D01*
X104618815Y-95950185D01*
X104715506Y-96029537D01*
X104825820Y-96088502D01*
X104945518Y-96124812D01*
X105070000Y-96137072D01*
X107070000Y-96137072D01*
X107194482Y-96124812D01*
X107314180Y-96088502D01*
X107424494Y-96029537D01*
X107521185Y-95950185D01*
X107600537Y-95853494D01*
X107659502Y-95743180D01*
X107695812Y-95623482D01*
X107708072Y-95499000D01*
X107708072Y-91699000D01*
X107695812Y-91574518D01*
X107659502Y-91454820D01*
X107600537Y-91344506D01*
X107521185Y-91247815D01*
X107424494Y-91168463D01*
X107314180Y-91109498D01*
X107194482Y-91073188D01*
X107070000Y-91060928D01*
X105070000Y-91060928D01*
X104945518Y-91073188D01*
X104825820Y-91109498D01*
X104715506Y-91168463D01*
X104618815Y-91247815D01*
X104539463Y-91344506D01*
X104480498Y-91454820D01*
X104444188Y-91574518D01*
X104431928Y-91699000D01*
X93607900Y-91699000D01*
X93607900Y-86969601D01*
X94620572Y-85956931D01*
X94679518Y-85974812D01*
X94804000Y-85987072D01*
X95864000Y-85987072D01*
X95988482Y-85974812D01*
X96108180Y-85938502D01*
X96218494Y-85879537D01*
X96315185Y-85800185D01*
X96394537Y-85703494D01*
X96453502Y-85593180D01*
X96489812Y-85473482D01*
X96502072Y-85349000D01*
X96502072Y-84699000D01*
X96489812Y-84574518D01*
X96482071Y-84549000D01*
X96489812Y-84523482D01*
X96502072Y-84399000D01*
X96499000Y-84359750D01*
X96340250Y-84201000D01*
X96258141Y-84201000D01*
X96218494Y-84168463D01*
X96108180Y-84109498D01*
X95991159Y-84074000D01*
X96108180Y-84038502D01*
X96218494Y-83979537D01*
X96258141Y-83947000D01*
X96340250Y-83947000D01*
X96403250Y-83884000D01*
X98372367Y-83884000D01*
X98409700Y-83887677D01*
X98447033Y-83884000D01*
X101977199Y-83884000D01*
X103309928Y-85216730D01*
X103309928Y-85805001D01*
X103326992Y-85978255D01*
X103377528Y-86144851D01*
X103459595Y-86298387D01*
X103570038Y-86432962D01*
X103704613Y-86543405D01*
X103858149Y-86625472D01*
X104024745Y-86676008D01*
X104197999Y-86693072D01*
X105098001Y-86693072D01*
X105271255Y-86676008D01*
X105437851Y-86625472D01*
X105591387Y-86543405D01*
X105725962Y-86432962D01*
X105727500Y-86431088D01*
X105729038Y-86432962D01*
X105863613Y-86543405D01*
X106017149Y-86625472D01*
X106183745Y-86676008D01*
X106356999Y-86693072D01*
X107257001Y-86693072D01*
X107430255Y-86676008D01*
X107596851Y-86625472D01*
X107750387Y-86543405D01*
X107884962Y-86432962D01*
X107995405Y-86298387D01*
X108026614Y-86240000D01*
X108892199Y-86240000D01*
X109178928Y-86526729D01*
X109178928Y-87940000D01*
X109195992Y-88113254D01*
X109246528Y-88279850D01*
X109328595Y-88433386D01*
X109439038Y-88567962D01*
X109573614Y-88678405D01*
X109727150Y-88760472D01*
X109857000Y-88799861D01*
X109857001Y-91808668D01*
X109853324Y-91846000D01*
X109857001Y-91883333D01*
X109867998Y-91994986D01*
X109881180Y-92038442D01*
X109911454Y-92138246D01*
X109982026Y-92270276D01*
X110030199Y-92328974D01*
X110077000Y-92386001D01*
X110105998Y-92409799D01*
X110730901Y-93034702D01*
X110731928Y-93035954D01*
X110731928Y-94349000D01*
X110744188Y-94473482D01*
X110780498Y-94593180D01*
X110839463Y-94703494D01*
X110876809Y-94749000D01*
X110839463Y-94794506D01*
X110780498Y-94904820D01*
X110744188Y-95024518D01*
X110731928Y-95149000D01*
X110735000Y-95613250D01*
X110893750Y-95772000D01*
X112243000Y-95772000D01*
X112243000Y-95752000D01*
X112497000Y-95752000D01*
X112497000Y-95772000D01*
X113846250Y-95772000D01*
X113924655Y-95693595D01*
X117738282Y-95693595D01*
X117782039Y-96012675D01*
X117887205Y-96317088D01*
X117980186Y-96491044D01*
X118244587Y-96586808D01*
X119200395Y-95631000D01*
X119559605Y-95631000D01*
X120515413Y-96586808D01*
X120779814Y-96491044D01*
X120920704Y-96201429D01*
X121002384Y-95889892D01*
X121021718Y-95568405D01*
X120977961Y-95249325D01*
X120872795Y-94944912D01*
X120779814Y-94770956D01*
X120515413Y-94675192D01*
X119559605Y-95631000D01*
X119200395Y-95631000D01*
X118244587Y-94675192D01*
X117980186Y-94770956D01*
X117839296Y-95060571D01*
X117757616Y-95372108D01*
X117738282Y-95693595D01*
X113924655Y-95693595D01*
X114005000Y-95613250D01*
X114008072Y-95149000D01*
X113995812Y-95024518D01*
X113959502Y-94904820D01*
X113900537Y-94794506D01*
X113863191Y-94749000D01*
X113900537Y-94703494D01*
X113959502Y-94593180D01*
X113989106Y-94495587D01*
X118424192Y-94495587D01*
X119380000Y-95451395D01*
X120335808Y-94495587D01*
X120240044Y-94231186D01*
X119950429Y-94090296D01*
X119638892Y-94008616D01*
X119317405Y-93989282D01*
X118998325Y-94033039D01*
X118693912Y-94138205D01*
X118519956Y-94231186D01*
X118424192Y-94495587D01*
X113989106Y-94495587D01*
X113995812Y-94473482D01*
X114008072Y-94349000D01*
X114008072Y-92849000D01*
X113995812Y-92724518D01*
X113959502Y-92604820D01*
X113900537Y-92494506D01*
X113863191Y-92449000D01*
X113900537Y-92403494D01*
X113959502Y-92293180D01*
X113995812Y-92173482D01*
X114008072Y-92049000D01*
X114008072Y-91521300D01*
X117747321Y-91521300D01*
X117745000Y-91532967D01*
X117745000Y-91855033D01*
X117807832Y-92170912D01*
X117931082Y-92468463D01*
X118110013Y-92736252D01*
X118337748Y-92963987D01*
X118605537Y-93142918D01*
X118903088Y-93266168D01*
X119218967Y-93329000D01*
X119541033Y-93329000D01*
X119856912Y-93266168D01*
X120154463Y-93142918D01*
X120422252Y-92963987D01*
X120649987Y-92736252D01*
X120828918Y-92468463D01*
X120952168Y-92170912D01*
X121015000Y-91855033D01*
X121015000Y-91532967D01*
X120952168Y-91217088D01*
X120828918Y-90919537D01*
X120649987Y-90651748D01*
X120422252Y-90424013D01*
X120154463Y-90245082D01*
X119856912Y-90121832D01*
X119541033Y-90059000D01*
X119218967Y-90059000D01*
X119207300Y-90061321D01*
X119207300Y-88828072D01*
X119930000Y-88828072D01*
X120103254Y-88811008D01*
X120269850Y-88760472D01*
X120423386Y-88678405D01*
X120557962Y-88567962D01*
X120668405Y-88433386D01*
X120750472Y-88279850D01*
X120801008Y-88113254D01*
X120818072Y-87940000D01*
X120818072Y-85840000D01*
X120801008Y-85666746D01*
X120750472Y-85500150D01*
X120668405Y-85346614D01*
X120557962Y-85212038D01*
X120481187Y-85149031D01*
X120534494Y-85120537D01*
X120631185Y-85041185D01*
X120710537Y-84944494D01*
X120769502Y-84834180D01*
X120805812Y-84714482D01*
X120818072Y-84590000D01*
X120815000Y-83575750D01*
X120656250Y-83417000D01*
X119507000Y-83417000D01*
X119507000Y-83437000D01*
X119253000Y-83437000D01*
X119253000Y-83417000D01*
X118103750Y-83417000D01*
X117945000Y-83575750D01*
X117941928Y-84590000D01*
X117954188Y-84714482D01*
X117990498Y-84834180D01*
X118049463Y-84944494D01*
X118128815Y-85041185D01*
X118225506Y-85120537D01*
X118278813Y-85149031D01*
X118202038Y-85212038D01*
X118091595Y-85346614D01*
X118009528Y-85500150D01*
X117958992Y-85666746D01*
X117941928Y-85840000D01*
X117941928Y-87253271D01*
X117936298Y-87258901D01*
X117907300Y-87282699D01*
X117883502Y-87311697D01*
X117883501Y-87311698D01*
X117812326Y-87398424D01*
X117741754Y-87530454D01*
X117711480Y-87630258D01*
X117704377Y-87653676D01*
X117698298Y-87673715D01*
X117683624Y-87822700D01*
X117687301Y-87860032D01*
X117687300Y-90001300D01*
X113692385Y-90001300D01*
X113614180Y-89959498D01*
X113494482Y-89923188D01*
X113370000Y-89910928D01*
X113130000Y-89910928D01*
X113130000Y-86239022D01*
X113133676Y-86201699D01*
X113130000Y-86164376D01*
X113130000Y-86164367D01*
X113119003Y-86052714D01*
X113075546Y-85909453D01*
X113004974Y-85777424D01*
X112981737Y-85749110D01*
X112933799Y-85690696D01*
X112933795Y-85690692D01*
X112910001Y-85661699D01*
X112881008Y-85637905D01*
X112022975Y-84779874D01*
X112042812Y-84714482D01*
X112055072Y-84590000D01*
X112052000Y-83575750D01*
X111893250Y-83417000D01*
X110744000Y-83417000D01*
X110744000Y-83437000D01*
X110490000Y-83437000D01*
X110490000Y-83417000D01*
X110470000Y-83417000D01*
X110470000Y-83163000D01*
X110490000Y-83163000D01*
X110490000Y-81513750D01*
X110744000Y-81513750D01*
X110744000Y-83163000D01*
X111893250Y-83163000D01*
X112052000Y-83004250D01*
X112055072Y-81990000D01*
X117941928Y-81990000D01*
X117945000Y-83004250D01*
X118103750Y-83163000D01*
X119253000Y-83163000D01*
X119253000Y-81513750D01*
X119507000Y-81513750D01*
X119507000Y-83163000D01*
X120656250Y-83163000D01*
X120815000Y-83004250D01*
X120818072Y-81990000D01*
X120805812Y-81865518D01*
X120769502Y-81745820D01*
X120710537Y-81635506D01*
X120631185Y-81538815D01*
X120534494Y-81459463D01*
X120424180Y-81400498D01*
X120304482Y-81364188D01*
X120180000Y-81351928D01*
X119665750Y-81355000D01*
X119507000Y-81513750D01*
X119253000Y-81513750D01*
X119094250Y-81355000D01*
X118580000Y-81351928D01*
X118455518Y-81364188D01*
X118335820Y-81400498D01*
X118225506Y-81459463D01*
X118128815Y-81538815D01*
X118049463Y-81635506D01*
X117990498Y-81745820D01*
X117954188Y-81865518D01*
X117941928Y-81990000D01*
X112055072Y-81990000D01*
X112042812Y-81865518D01*
X112006502Y-81745820D01*
X111947537Y-81635506D01*
X111868185Y-81538815D01*
X111771494Y-81459463D01*
X111661180Y-81400498D01*
X111541482Y-81364188D01*
X111417000Y-81351928D01*
X110902750Y-81355000D01*
X110744000Y-81513750D01*
X110490000Y-81513750D01*
X110331250Y-81355000D01*
X109817000Y-81351928D01*
X109692518Y-81364188D01*
X109572820Y-81400498D01*
X109462506Y-81459463D01*
X109365815Y-81538815D01*
X109286463Y-81635506D01*
X109227498Y-81745820D01*
X109191188Y-81865518D01*
X109178928Y-81990000D01*
X109182000Y-83004250D01*
X109340748Y-83162998D01*
X109214601Y-83162998D01*
X107631203Y-81579602D01*
X107607401Y-81550599D01*
X107491676Y-81455626D01*
X107359647Y-81385054D01*
X107216386Y-81341597D01*
X107104733Y-81330600D01*
X107104722Y-81330600D01*
X107067400Y-81326924D01*
X107030078Y-81330600D01*
X95060022Y-81330600D01*
X95022699Y-81326924D01*
X94985376Y-81330600D01*
X94985367Y-81330600D01*
X94873714Y-81341597D01*
X94730453Y-81385054D01*
X94598424Y-81455626D01*
X94482699Y-81550599D01*
X94458901Y-81579597D01*
X93847429Y-82191069D01*
X93788482Y-82173188D01*
X93664000Y-82160928D01*
X92604000Y-82160928D01*
X92479518Y-82173188D01*
X92359820Y-82209498D01*
X92249506Y-82268463D01*
X92152815Y-82347815D01*
X92130577Y-82374912D01*
X92129714Y-82374997D01*
X91986453Y-82418454D01*
X91854423Y-82489026D01*
X91774254Y-82554820D01*
X91738699Y-82583999D01*
X91714901Y-82612997D01*
X89981951Y-84345948D01*
X90043472Y-84230851D01*
X90094008Y-84064255D01*
X90111072Y-83891001D01*
X90111072Y-83240999D01*
X90094008Y-83067745D01*
X90043472Y-82901149D01*
X89961405Y-82747613D01*
X89850962Y-82613038D01*
X89763184Y-82541000D01*
X89850962Y-82468962D01*
X89961405Y-82334387D01*
X90043472Y-82180851D01*
X90094008Y-82014255D01*
X90111072Y-81841001D01*
X90111072Y-81190999D01*
X90094008Y-81017745D01*
X90043472Y-80851149D01*
X89961405Y-80697613D01*
X89850962Y-80563038D01*
X89716387Y-80452595D01*
X89562851Y-80370528D01*
X89533000Y-80361473D01*
X89533000Y-79141527D01*
X89562851Y-79132472D01*
X89716387Y-79050405D01*
X89850962Y-78939962D01*
X89961405Y-78805387D01*
X90043472Y-78651851D01*
X90094008Y-78485255D01*
X90111072Y-78312001D01*
X90111072Y-77661999D01*
X90094008Y-77488745D01*
X90043472Y-77322149D01*
X89961405Y-77168613D01*
X89850962Y-77034038D01*
X89763184Y-76962000D01*
X89850962Y-76889962D01*
X89961405Y-76755387D01*
X90043472Y-76601851D01*
X90046353Y-76592354D01*
X91835117Y-78381119D01*
X91846426Y-78402276D01*
X91917600Y-78489002D01*
X91941399Y-78518001D01*
X92057124Y-78612974D01*
X92189153Y-78683546D01*
X92332414Y-78727003D01*
X92481400Y-78741677D01*
X92518733Y-78738000D01*
X95347473Y-78738000D01*
X95356528Y-78767851D01*
X95438595Y-78921387D01*
X95549038Y-79055962D01*
X95683613Y-79166405D01*
X95837149Y-79248472D01*
X96003745Y-79299008D01*
X96176999Y-79316072D01*
X96827001Y-79316072D01*
X97000255Y-79299008D01*
X97166851Y-79248472D01*
X97320387Y-79166405D01*
X97454962Y-79055962D01*
X97527000Y-78968184D01*
X97599038Y-79055962D01*
X97733613Y-79166405D01*
X97887149Y-79248472D01*
X98053745Y-79299008D01*
X98226999Y-79316072D01*
X98877001Y-79316072D01*
X99050255Y-79299008D01*
X99216851Y-79248472D01*
X99370387Y-79166405D01*
X99504962Y-79055962D01*
X99615405Y-78921387D01*
X99686274Y-78788800D01*
X100696928Y-78788800D01*
X100696928Y-78928800D01*
X100709188Y-79053282D01*
X100745498Y-79172980D01*
X100804463Y-79283294D01*
X100883815Y-79379985D01*
X100980506Y-79459337D01*
X101090820Y-79518302D01*
X101210518Y-79554612D01*
X101335000Y-79566872D01*
X103135000Y-79566872D01*
X103259482Y-79554612D01*
X103379180Y-79518302D01*
X103489494Y-79459337D01*
X103586185Y-79379985D01*
X103665537Y-79283294D01*
X103724502Y-79172980D01*
X103760812Y-79053282D01*
X103765567Y-79005000D01*
X124445928Y-79005000D01*
X124458188Y-79129482D01*
X124494498Y-79249180D01*
X124553463Y-79359494D01*
X124632815Y-79456185D01*
X124729506Y-79535537D01*
X124839820Y-79594502D01*
X124959518Y-79630812D01*
X125084000Y-79643072D01*
X125698250Y-79640000D01*
X125857000Y-79481250D01*
X125857000Y-78232000D01*
X124607750Y-78232000D01*
X124449000Y-78390750D01*
X124445928Y-79005000D01*
X103765567Y-79005000D01*
X103773072Y-78928800D01*
X103773072Y-77205000D01*
X124445928Y-77205000D01*
X124449000Y-77819250D01*
X124607750Y-77978000D01*
X125857000Y-77978000D01*
X125857000Y-76728750D01*
X125698250Y-76570000D01*
X125084000Y-76566928D01*
X124959518Y-76579188D01*
X124839820Y-76615498D01*
X124729506Y-76674463D01*
X124632815Y-76753815D01*
X124553463Y-76850506D01*
X124494498Y-76960820D01*
X124458188Y-77080518D01*
X124445928Y-77205000D01*
X103773072Y-77205000D01*
X103773072Y-77128800D01*
X103760812Y-77004318D01*
X103724502Y-76884620D01*
X103665537Y-76774306D01*
X103586185Y-76677615D01*
X103489494Y-76598263D01*
X103379180Y-76539298D01*
X103368265Y-76535987D01*
X103415030Y-76489222D01*
X103299082Y-76373274D01*
X103553261Y-76289592D01*
X103684158Y-76017025D01*
X103759365Y-75724158D01*
X103775991Y-75422247D01*
X103733397Y-75122893D01*
X103682801Y-74978800D01*
X108489928Y-74978800D01*
X108489928Y-76365000D01*
X108502188Y-76489482D01*
X108538498Y-76609180D01*
X108597463Y-76719494D01*
X108676815Y-76816185D01*
X108773506Y-76895537D01*
X108883820Y-76954502D01*
X109003518Y-76990812D01*
X109128000Y-77003072D01*
X111308000Y-77003072D01*
X111432482Y-76990812D01*
X111552180Y-76954502D01*
X111662494Y-76895537D01*
X111759185Y-76816185D01*
X111838537Y-76719494D01*
X111897502Y-76609180D01*
X111933812Y-76489482D01*
X111946072Y-76365000D01*
X117669928Y-76365000D01*
X117682188Y-76489482D01*
X117718498Y-76609180D01*
X117777463Y-76719494D01*
X117856815Y-76816185D01*
X117953506Y-76895537D01*
X118063820Y-76954502D01*
X118183518Y-76990812D01*
X118308000Y-77003072D01*
X119112250Y-77000000D01*
X119271000Y-76841250D01*
X119271000Y-75692000D01*
X119525000Y-75692000D01*
X119525000Y-76841250D01*
X119683750Y-77000000D01*
X120488000Y-77003072D01*
X120612482Y-76990812D01*
X120732180Y-76954502D01*
X120842494Y-76895537D01*
X120939185Y-76816185D01*
X121018537Y-76719494D01*
X121077502Y-76609180D01*
X121113812Y-76489482D01*
X121126072Y-76365000D01*
X121123000Y-75850750D01*
X120964250Y-75692000D01*
X119525000Y-75692000D01*
X119271000Y-75692000D01*
X117831750Y-75692000D01*
X117673000Y-75850750D01*
X117669928Y-76365000D01*
X111946072Y-76365000D01*
X111946072Y-74765000D01*
X117669928Y-74765000D01*
X117673000Y-75279250D01*
X117831750Y-75438000D01*
X119271000Y-75438000D01*
X119271000Y-74288750D01*
X119525000Y-74288750D01*
X119525000Y-75438000D01*
X120964250Y-75438000D01*
X121123000Y-75279250D01*
X121126072Y-74765000D01*
X121113812Y-74640518D01*
X121077502Y-74520820D01*
X121018537Y-74410506D01*
X120939185Y-74313815D01*
X120842494Y-74234463D01*
X120732180Y-74175498D01*
X120612482Y-74139188D01*
X120488000Y-74126928D01*
X119683750Y-74130000D01*
X119525000Y-74288750D01*
X119271000Y-74288750D01*
X119112250Y-74130000D01*
X118308000Y-74126928D01*
X118183518Y-74139188D01*
X118063820Y-74175498D01*
X117953506Y-74234463D01*
X117856815Y-74313815D01*
X117777463Y-74410506D01*
X117718498Y-74520820D01*
X117682188Y-74640518D01*
X117669928Y-74765000D01*
X111946072Y-74765000D01*
X111933812Y-74640518D01*
X111897502Y-74520820D01*
X111838537Y-74410506D01*
X111759185Y-74313815D01*
X111662494Y-74234463D01*
X111552180Y-74175498D01*
X111432482Y-74139188D01*
X111308000Y-74126928D01*
X110912575Y-74126928D01*
X110852974Y-74015424D01*
X110758001Y-73899699D01*
X110728997Y-73875896D01*
X110560904Y-73707803D01*
X110537101Y-73678799D01*
X110421376Y-73583826D01*
X110289347Y-73513254D01*
X110146086Y-73469797D01*
X110034433Y-73458800D01*
X110034422Y-73458800D01*
X109997100Y-73455124D01*
X109959778Y-73458800D01*
X103685223Y-73458800D01*
X103711011Y-73396543D01*
X103770000Y-73099984D01*
X103770000Y-72797616D01*
X103711011Y-72501057D01*
X103595299Y-72221705D01*
X103427312Y-71970295D01*
X103213505Y-71756488D01*
X103085072Y-71670672D01*
X103594001Y-71670672D01*
X103767255Y-71653608D01*
X103933851Y-71603072D01*
X104087387Y-71521005D01*
X104221962Y-71410562D01*
X104332405Y-71275987D01*
X104414392Y-71122600D01*
X104822044Y-71122600D01*
X104962208Y-71293392D01*
X105161682Y-71457095D01*
X105389259Y-71578738D01*
X105636195Y-71653645D01*
X105828649Y-71672600D01*
X105957351Y-71672600D01*
X106149805Y-71653645D01*
X106396741Y-71578738D01*
X106624318Y-71457095D01*
X106823792Y-71293392D01*
X106987495Y-71093918D01*
X107109138Y-70866341D01*
X107184045Y-70619405D01*
X107209338Y-70362600D01*
X107184045Y-70105795D01*
X107109138Y-69858859D01*
X106987495Y-69631282D01*
X106823792Y-69431808D01*
X106739461Y-69362600D01*
X106823792Y-69293392D01*
X106987495Y-69093918D01*
X107109138Y-68866341D01*
X107184045Y-68619405D01*
X107209338Y-68362600D01*
X107184045Y-68105795D01*
X107109138Y-67858859D01*
X106987495Y-67631282D01*
X106823792Y-67431808D01*
X106739461Y-67362600D01*
X106823792Y-67293392D01*
X106987495Y-67093918D01*
X107109138Y-66866341D01*
X107184045Y-66619405D01*
X107209338Y-66362600D01*
X107184045Y-66105795D01*
X107109138Y-65858859D01*
X106987495Y-65631282D01*
X106823792Y-65431808D01*
X106739461Y-65362600D01*
X106823792Y-65293392D01*
X106987495Y-65093918D01*
X107109138Y-64866341D01*
X107184045Y-64619405D01*
X107209338Y-64362600D01*
X107184045Y-64105795D01*
X107129231Y-63925094D01*
X121238508Y-63925094D01*
X121238508Y-64333386D01*
X121318162Y-64733834D01*
X121474409Y-65111047D01*
X121701244Y-65450530D01*
X121989950Y-65739236D01*
X122329433Y-65966071D01*
X122706646Y-66122318D01*
X123107094Y-66201972D01*
X123515386Y-66201972D01*
X123915834Y-66122318D01*
X124293047Y-65966071D01*
X124632530Y-65739236D01*
X124921236Y-65450530D01*
X125148071Y-65111047D01*
X125304318Y-64733834D01*
X125383972Y-64333386D01*
X125383972Y-63925094D01*
X125304318Y-63524646D01*
X125148071Y-63147433D01*
X124921236Y-62807950D01*
X124632530Y-62519244D01*
X124293047Y-62292409D01*
X123915834Y-62136162D01*
X123515386Y-62056508D01*
X123107094Y-62056508D01*
X122706646Y-62136162D01*
X122329433Y-62292409D01*
X121989950Y-62519244D01*
X121701244Y-62807950D01*
X121474409Y-63147433D01*
X121318162Y-63524646D01*
X121238508Y-63925094D01*
X107129231Y-63925094D01*
X107109138Y-63858859D01*
X106987495Y-63631282D01*
X106823792Y-63431808D01*
X106739461Y-63362600D01*
X106823792Y-63293392D01*
X106987495Y-63093918D01*
X107109138Y-62866341D01*
X107184045Y-62619405D01*
X107209338Y-62362600D01*
X107184045Y-62105795D01*
X107109138Y-61858859D01*
X106987495Y-61631282D01*
X106823792Y-61431808D01*
X106739461Y-61362600D01*
X106823792Y-61293392D01*
X106987495Y-61093918D01*
X107109138Y-60866341D01*
X107184045Y-60619405D01*
X107209338Y-60362600D01*
X107184045Y-60105795D01*
X107109138Y-59858859D01*
X106987495Y-59631282D01*
X106823792Y-59431808D01*
X106735352Y-59359228D01*
X106871303Y-59233827D01*
X107022473Y-59026229D01*
X107130238Y-58793128D01*
X107160910Y-58692000D01*
X107037224Y-58489600D01*
X106020000Y-58489600D01*
X106020000Y-58509600D01*
X105766000Y-58509600D01*
X105766000Y-58489600D01*
X104748776Y-58489600D01*
X104625090Y-58692000D01*
X104655762Y-58793128D01*
X104763527Y-59026229D01*
X104914697Y-59233827D01*
X105050648Y-59359228D01*
X104962208Y-59431808D01*
X104819113Y-59606171D01*
X104743714Y-59613597D01*
X104600453Y-59657054D01*
X104468424Y-59727626D01*
X104468422Y-59727627D01*
X104468423Y-59727627D01*
X104381696Y-59798801D01*
X104381692Y-59798805D01*
X104352699Y-59822599D01*
X104328905Y-59851592D01*
X102836507Y-61343992D01*
X102849502Y-61319680D01*
X102885812Y-61199982D01*
X102898072Y-61075500D01*
X102895000Y-60061250D01*
X102736250Y-59902500D01*
X101587000Y-59902500D01*
X101587000Y-59922500D01*
X101333000Y-59922500D01*
X101333000Y-59902500D01*
X100183750Y-59902500D01*
X100025000Y-60061250D01*
X100021928Y-61075500D01*
X100034188Y-61199982D01*
X100070498Y-61319680D01*
X100129463Y-61429994D01*
X100162295Y-61470000D01*
X98051595Y-61470000D01*
X98014706Y-61400986D01*
X97829134Y-61174866D01*
X97603014Y-60989294D01*
X97538477Y-60954799D01*
X97655355Y-60885178D01*
X97871588Y-60690269D01*
X98045641Y-60456920D01*
X98170825Y-60194099D01*
X98215476Y-60046890D01*
X98094155Y-59817000D01*
X96901000Y-59817000D01*
X96901000Y-59837000D01*
X96647000Y-59837000D01*
X96647000Y-59817000D01*
X95453845Y-59817000D01*
X95332524Y-60046890D01*
X95377175Y-60194099D01*
X95502359Y-60456920D01*
X95676412Y-60690269D01*
X95892645Y-60885178D01*
X96009523Y-60954799D01*
X95944986Y-60989294D01*
X95718866Y-61174866D01*
X95533294Y-61400986D01*
X95427466Y-61598977D01*
X95392676Y-61570426D01*
X95260647Y-61499854D01*
X95117386Y-61456397D01*
X95005733Y-61445400D01*
X95005722Y-61445400D01*
X94968400Y-61441724D01*
X94931078Y-61445400D01*
X94820181Y-61445400D01*
X94764694Y-61399863D01*
X94654380Y-61340898D01*
X94534682Y-61304588D01*
X94410200Y-61292328D01*
X92910200Y-61292328D01*
X92869238Y-61296362D01*
X92873272Y-61255400D01*
X92873272Y-59755400D01*
X92861012Y-59630918D01*
X92824702Y-59511220D01*
X92765737Y-59400906D01*
X92686385Y-59304215D01*
X92589694Y-59224863D01*
X92479380Y-59165898D01*
X92359682Y-59129588D01*
X92235200Y-59117328D01*
X91685200Y-59117328D01*
X91560718Y-59129588D01*
X91560200Y-59129745D01*
X91559682Y-59129588D01*
X91435200Y-59117328D01*
X91160425Y-59117328D01*
X91186326Y-59054798D01*
X91226100Y-58854839D01*
X91226100Y-58650961D01*
X91186326Y-58451002D01*
X91108305Y-58262644D01*
X90995037Y-58093126D01*
X90850874Y-57948963D01*
X90792562Y-57910000D01*
X95285928Y-57910000D01*
X95285928Y-58000000D01*
X95298188Y-58124482D01*
X95334498Y-58244180D01*
X95393463Y-58354494D01*
X95472815Y-58451185D01*
X95569506Y-58530537D01*
X95679820Y-58589502D01*
X95760466Y-58613966D01*
X95676412Y-58689731D01*
X95502359Y-58923080D01*
X95377175Y-59185901D01*
X95332524Y-59333110D01*
X95453845Y-59563000D01*
X96647000Y-59563000D01*
X96647000Y-59543000D01*
X96901000Y-59543000D01*
X96901000Y-59563000D01*
X98094155Y-59563000D01*
X98215476Y-59333110D01*
X98170825Y-59185901D01*
X98045641Y-58923080D01*
X97871588Y-58689731D01*
X97787534Y-58613966D01*
X97868180Y-58589502D01*
X97978494Y-58530537D01*
X98075185Y-58451185D01*
X98154537Y-58354494D01*
X98213502Y-58244180D01*
X98249812Y-58124482D01*
X98262072Y-58000000D01*
X98262072Y-57844575D01*
X98373576Y-57784974D01*
X98489301Y-57690001D01*
X98513104Y-57660998D01*
X99238602Y-56935500D01*
X100021928Y-56935500D01*
X100021928Y-57225500D01*
X100038992Y-57398754D01*
X100089528Y-57565350D01*
X100171595Y-57718886D01*
X100282038Y-57853462D01*
X100358813Y-57916469D01*
X100305506Y-57944963D01*
X100208815Y-58024315D01*
X100129463Y-58121006D01*
X100070498Y-58231320D01*
X100034188Y-58351018D01*
X100021928Y-58475500D01*
X100025000Y-59489750D01*
X100183750Y-59648500D01*
X101333000Y-59648500D01*
X101333000Y-59628500D01*
X101587000Y-59628500D01*
X101587000Y-59648500D01*
X102736250Y-59648500D01*
X102895000Y-59489750D01*
X102898072Y-58475500D01*
X102885812Y-58351018D01*
X102849502Y-58231320D01*
X102790537Y-58121006D01*
X102711185Y-58024315D01*
X102614494Y-57944963D01*
X102561187Y-57916469D01*
X102637962Y-57853462D01*
X102748405Y-57718886D01*
X102830472Y-57565350D01*
X102881008Y-57398754D01*
X102898072Y-57225500D01*
X102898072Y-56935500D01*
X104392787Y-56935500D01*
X104468424Y-56997574D01*
X104581963Y-57058263D01*
X104592188Y-57162082D01*
X104628498Y-57281780D01*
X104687463Y-57392094D01*
X104766815Y-57488785D01*
X104860559Y-57565719D01*
X104763527Y-57698971D01*
X104655762Y-57932072D01*
X104625090Y-58033200D01*
X104748776Y-58235600D01*
X105766000Y-58235600D01*
X105766000Y-58215600D01*
X106020000Y-58215600D01*
X106020000Y-58235600D01*
X107037224Y-58235600D01*
X107160910Y-58033200D01*
X107130238Y-57932072D01*
X107022473Y-57698971D01*
X106925441Y-57565719D01*
X107019185Y-57488785D01*
X107098537Y-57392094D01*
X107157502Y-57281780D01*
X107193812Y-57162082D01*
X107206072Y-57037600D01*
X107206072Y-56565823D01*
X107211799Y-56572801D01*
X107240792Y-56596595D01*
X107240796Y-56596599D01*
X107292460Y-56638998D01*
X107327524Y-56667774D01*
X107459553Y-56738346D01*
X107602814Y-56781803D01*
X107714467Y-56792800D01*
X107714476Y-56792800D01*
X107751799Y-56796476D01*
X107789122Y-56792800D01*
X112631178Y-56792800D01*
X112668500Y-56796476D01*
X112705822Y-56792800D01*
X112705833Y-56792800D01*
X112817486Y-56781803D01*
X112960747Y-56738346D01*
X113092776Y-56667774D01*
X113208501Y-56572801D01*
X113232304Y-56543797D01*
X114004004Y-55772097D01*
X114090820Y-55818502D01*
X114210518Y-55854812D01*
X114335000Y-55867072D01*
X115535000Y-55867072D01*
X115659482Y-55854812D01*
X115779180Y-55818502D01*
X115889494Y-55759537D01*
X115986185Y-55680185D01*
X116065537Y-55583494D01*
X116124502Y-55473180D01*
X116160812Y-55353482D01*
X116173072Y-55229000D01*
X116173072Y-53660000D01*
X122916620Y-53660000D01*
X126340000Y-57083381D01*
X126340000Y-57083381D01*
G37*
X126340000Y-57083381D02*
X126340000Y-71528921D01*
X126284913Y-71512210D01*
X126059408Y-71490000D01*
X125908592Y-71490000D01*
X125683087Y-71512210D01*
X125393739Y-71599983D01*
X125127073Y-71742519D01*
X124893339Y-71934339D01*
X124701519Y-72168073D01*
X124558983Y-72434739D01*
X124471210Y-72724087D01*
X124441573Y-73025000D01*
X124471210Y-73325913D01*
X124558983Y-73615261D01*
X124701519Y-73881927D01*
X124893339Y-74115661D01*
X125127073Y-74307481D01*
X125393739Y-74450017D01*
X125683087Y-74537790D01*
X125908592Y-74560000D01*
X126059408Y-74560000D01*
X126284913Y-74537790D01*
X126340000Y-74521079D01*
X126340001Y-76569649D01*
X126269750Y-76570000D01*
X126111000Y-76728750D01*
X126111000Y-77978000D01*
X126131000Y-77978000D01*
X126131000Y-78232000D01*
X126111000Y-78232000D01*
X126111000Y-79481250D01*
X126269750Y-79640000D01*
X126340001Y-79640351D01*
X126340001Y-93735975D01*
X122907168Y-97340000D01*
X95725091Y-97340000D01*
X95723343Y-96649000D01*
X110731928Y-96649000D01*
X110744188Y-96773482D01*
X110780498Y-96893180D01*
X110839463Y-97003494D01*
X110918815Y-97100185D01*
X111015506Y-97179537D01*
X111125820Y-97238502D01*
X111245518Y-97274812D01*
X111370000Y-97287072D01*
X112084250Y-97284000D01*
X112243000Y-97125250D01*
X112243000Y-96026000D01*
X112497000Y-96026000D01*
X112497000Y-97125250D01*
X112655750Y-97284000D01*
X113370000Y-97287072D01*
X113494482Y-97274812D01*
X113614180Y-97238502D01*
X113724494Y-97179537D01*
X113821185Y-97100185D01*
X113900537Y-97003494D01*
X113959502Y-96893180D01*
X113995812Y-96773482D01*
X113996508Y-96766413D01*
X118424192Y-96766413D01*
X118519956Y-97030814D01*
X118809571Y-97171704D01*
X119121108Y-97253384D01*
X119442595Y-97272718D01*
X119761675Y-97228961D01*
X120066088Y-97123795D01*
X120240044Y-97030814D01*
X120335808Y-96766413D01*
X119380000Y-95810605D01*
X118424192Y-96766413D01*
X113996508Y-96766413D01*
X114008072Y-96649000D01*
X114005000Y-96184750D01*
X113846250Y-96026000D01*
X112497000Y-96026000D01*
X112243000Y-96026000D01*
X110893750Y-96026000D01*
X110735000Y-96184750D01*
X110731928Y-96649000D01*
X95723343Y-96649000D01*
X95723000Y-96513650D01*
X95564250Y-96354900D01*
X94615000Y-96354900D01*
X94615000Y-96374900D01*
X94361000Y-96374900D01*
X94361000Y-96354900D01*
X94341000Y-96354900D01*
X94341000Y-96100900D01*
X94361000Y-96100900D01*
X94361000Y-94251650D01*
X94615000Y-94251650D01*
X94615000Y-96100900D01*
X95564250Y-96100900D01*
X95723000Y-95942150D01*
X95726072Y-94727900D01*
X95713812Y-94603418D01*
X95677502Y-94483720D01*
X95618537Y-94373406D01*
X95539185Y-94276715D01*
X95442494Y-94197363D01*
X95332180Y-94138398D01*
X95212482Y-94102088D01*
X95088000Y-94089828D01*
X94773750Y-94092900D01*
X94615000Y-94251650D01*
X94361000Y-94251650D01*
X94202250Y-94092900D01*
X93888000Y-94089828D01*
X93763518Y-94102088D01*
X93643820Y-94138398D01*
X93607900Y-94157598D01*
X93607900Y-91699000D01*
X104431928Y-91699000D01*
X104431928Y-95499000D01*
X104444188Y-95623482D01*
X104480498Y-95743180D01*
X104539463Y-95853494D01*
X104618815Y-95950185D01*
X104715506Y-96029537D01*
X104825820Y-96088502D01*
X104945518Y-96124812D01*
X105070000Y-96137072D01*
X107070000Y-96137072D01*
X107194482Y-96124812D01*
X107314180Y-96088502D01*
X107424494Y-96029537D01*
X107521185Y-95950185D01*
X107600537Y-95853494D01*
X107659502Y-95743180D01*
X107695812Y-95623482D01*
X107708072Y-95499000D01*
X107708072Y-91699000D01*
X107695812Y-91574518D01*
X107659502Y-91454820D01*
X107600537Y-91344506D01*
X107521185Y-91247815D01*
X107424494Y-91168463D01*
X107314180Y-91109498D01*
X107194482Y-91073188D01*
X107070000Y-91060928D01*
X105070000Y-91060928D01*
X104945518Y-91073188D01*
X104825820Y-91109498D01*
X104715506Y-91168463D01*
X104618815Y-91247815D01*
X104539463Y-91344506D01*
X104480498Y-91454820D01*
X104444188Y-91574518D01*
X104431928Y-91699000D01*
X93607900Y-91699000D01*
X93607900Y-86969601D01*
X94620572Y-85956931D01*
X94679518Y-85974812D01*
X94804000Y-85987072D01*
X95864000Y-85987072D01*
X95988482Y-85974812D01*
X96108180Y-85938502D01*
X96218494Y-85879537D01*
X96315185Y-85800185D01*
X96394537Y-85703494D01*
X96453502Y-85593180D01*
X96489812Y-85473482D01*
X96502072Y-85349000D01*
X96502072Y-84699000D01*
X96489812Y-84574518D01*
X96482071Y-84549000D01*
X96489812Y-84523482D01*
X96502072Y-84399000D01*
X96499000Y-84359750D01*
X96340250Y-84201000D01*
X96258141Y-84201000D01*
X96218494Y-84168463D01*
X96108180Y-84109498D01*
X95991159Y-84074000D01*
X96108180Y-84038502D01*
X96218494Y-83979537D01*
X96258141Y-83947000D01*
X96340250Y-83947000D01*
X96403250Y-83884000D01*
X98372367Y-83884000D01*
X98409700Y-83887677D01*
X98447033Y-83884000D01*
X101977199Y-83884000D01*
X103309928Y-85216730D01*
X103309928Y-85805001D01*
X103326992Y-85978255D01*
X103377528Y-86144851D01*
X103459595Y-86298387D01*
X103570038Y-86432962D01*
X103704613Y-86543405D01*
X103858149Y-86625472D01*
X104024745Y-86676008D01*
X104197999Y-86693072D01*
X105098001Y-86693072D01*
X105271255Y-86676008D01*
X105437851Y-86625472D01*
X105591387Y-86543405D01*
X105725962Y-86432962D01*
X105727500Y-86431088D01*
X105729038Y-86432962D01*
X105863613Y-86543405D01*
X106017149Y-86625472D01*
X106183745Y-86676008D01*
X106356999Y-86693072D01*
X107257001Y-86693072D01*
X107430255Y-86676008D01*
X107596851Y-86625472D01*
X107750387Y-86543405D01*
X107884962Y-86432962D01*
X107995405Y-86298387D01*
X108026614Y-86240000D01*
X108892199Y-86240000D01*
X109178928Y-86526729D01*
X109178928Y-87940000D01*
X109195992Y-88113254D01*
X109246528Y-88279850D01*
X109328595Y-88433386D01*
X109439038Y-88567962D01*
X109573614Y-88678405D01*
X109727150Y-88760472D01*
X109857000Y-88799861D01*
X109857001Y-91808668D01*
X109853324Y-91846000D01*
X109857001Y-91883333D01*
X109867998Y-91994986D01*
X109881180Y-92038442D01*
X109911454Y-92138246D01*
X109982026Y-92270276D01*
X110030199Y-92328974D01*
X110077000Y-92386001D01*
X110105998Y-92409799D01*
X110730901Y-93034702D01*
X110731928Y-93035954D01*
X110731928Y-94349000D01*
X110744188Y-94473482D01*
X110780498Y-94593180D01*
X110839463Y-94703494D01*
X110876809Y-94749000D01*
X110839463Y-94794506D01*
X110780498Y-94904820D01*
X110744188Y-95024518D01*
X110731928Y-95149000D01*
X110735000Y-95613250D01*
X110893750Y-95772000D01*
X112243000Y-95772000D01*
X112243000Y-95752000D01*
X112497000Y-95752000D01*
X112497000Y-95772000D01*
X113846250Y-95772000D01*
X113924655Y-95693595D01*
X117738282Y-95693595D01*
X117782039Y-96012675D01*
X117887205Y-96317088D01*
X117980186Y-96491044D01*
X118244587Y-96586808D01*
X119200395Y-95631000D01*
X119559605Y-95631000D01*
X120515413Y-96586808D01*
X120779814Y-96491044D01*
X120920704Y-96201429D01*
X121002384Y-95889892D01*
X121021718Y-95568405D01*
X120977961Y-95249325D01*
X120872795Y-94944912D01*
X120779814Y-94770956D01*
X120515413Y-94675192D01*
X119559605Y-95631000D01*
X119200395Y-95631000D01*
X118244587Y-94675192D01*
X117980186Y-94770956D01*
X117839296Y-95060571D01*
X117757616Y-95372108D01*
X117738282Y-95693595D01*
X113924655Y-95693595D01*
X114005000Y-95613250D01*
X114008072Y-95149000D01*
X113995812Y-95024518D01*
X113959502Y-94904820D01*
X113900537Y-94794506D01*
X113863191Y-94749000D01*
X113900537Y-94703494D01*
X113959502Y-94593180D01*
X113989106Y-94495587D01*
X118424192Y-94495587D01*
X119380000Y-95451395D01*
X120335808Y-94495587D01*
X120240044Y-94231186D01*
X119950429Y-94090296D01*
X119638892Y-94008616D01*
X119317405Y-93989282D01*
X118998325Y-94033039D01*
X118693912Y-94138205D01*
X118519956Y-94231186D01*
X118424192Y-94495587D01*
X113989106Y-94495587D01*
X113995812Y-94473482D01*
X114008072Y-94349000D01*
X114008072Y-92849000D01*
X113995812Y-92724518D01*
X113959502Y-92604820D01*
X113900537Y-92494506D01*
X113863191Y-92449000D01*
X113900537Y-92403494D01*
X113959502Y-92293180D01*
X113995812Y-92173482D01*
X114008072Y-92049000D01*
X114008072Y-91521300D01*
X117747321Y-91521300D01*
X117745000Y-91532967D01*
X117745000Y-91855033D01*
X117807832Y-92170912D01*
X117931082Y-92468463D01*
X118110013Y-92736252D01*
X118337748Y-92963987D01*
X118605537Y-93142918D01*
X118903088Y-93266168D01*
X119218967Y-93329000D01*
X119541033Y-93329000D01*
X119856912Y-93266168D01*
X120154463Y-93142918D01*
X120422252Y-92963987D01*
X120649987Y-92736252D01*
X120828918Y-92468463D01*
X120952168Y-92170912D01*
X121015000Y-91855033D01*
X121015000Y-91532967D01*
X120952168Y-91217088D01*
X120828918Y-90919537D01*
X120649987Y-90651748D01*
X120422252Y-90424013D01*
X120154463Y-90245082D01*
X119856912Y-90121832D01*
X119541033Y-90059000D01*
X119218967Y-90059000D01*
X119207300Y-90061321D01*
X119207300Y-88828072D01*
X119930000Y-88828072D01*
X120103254Y-88811008D01*
X120269850Y-88760472D01*
X120423386Y-88678405D01*
X120557962Y-88567962D01*
X120668405Y-88433386D01*
X120750472Y-88279850D01*
X120801008Y-88113254D01*
X120818072Y-87940000D01*
X120818072Y-85840000D01*
X120801008Y-85666746D01*
X120750472Y-85500150D01*
X120668405Y-85346614D01*
X120557962Y-85212038D01*
X120481187Y-85149031D01*
X120534494Y-85120537D01*
X120631185Y-85041185D01*
X120710537Y-84944494D01*
X120769502Y-84834180D01*
X120805812Y-84714482D01*
X120818072Y-84590000D01*
X120815000Y-83575750D01*
X120656250Y-83417000D01*
X119507000Y-83417000D01*
X119507000Y-83437000D01*
X119253000Y-83437000D01*
X119253000Y-83417000D01*
X118103750Y-83417000D01*
X117945000Y-83575750D01*
X117941928Y-84590000D01*
X117954188Y-84714482D01*
X117990498Y-84834180D01*
X118049463Y-84944494D01*
X118128815Y-85041185D01*
X118225506Y-85120537D01*
X118278813Y-85149031D01*
X118202038Y-85212038D01*
X118091595Y-85346614D01*
X118009528Y-85500150D01*
X117958992Y-85666746D01*
X117941928Y-85840000D01*
X117941928Y-87253271D01*
X117936298Y-87258901D01*
X117907300Y-87282699D01*
X117883502Y-87311697D01*
X117883501Y-87311698D01*
X117812326Y-87398424D01*
X117741754Y-87530454D01*
X117711480Y-87630258D01*
X117704377Y-87653676D01*
X117698298Y-87673715D01*
X117683624Y-87822700D01*
X117687301Y-87860032D01*
X117687300Y-90001300D01*
X113692385Y-90001300D01*
X113614180Y-89959498D01*
X113494482Y-89923188D01*
X113370000Y-89910928D01*
X113130000Y-89910928D01*
X113130000Y-86239022D01*
X113133676Y-86201699D01*
X113130000Y-86164376D01*
X113130000Y-86164367D01*
X113119003Y-86052714D01*
X113075546Y-85909453D01*
X113004974Y-85777424D01*
X112981737Y-85749110D01*
X112933799Y-85690696D01*
X112933795Y-85690692D01*
X112910001Y-85661699D01*
X112881008Y-85637905D01*
X112022975Y-84779874D01*
X112042812Y-84714482D01*
X112055072Y-84590000D01*
X112052000Y-83575750D01*
X111893250Y-83417000D01*
X110744000Y-83417000D01*
X110744000Y-83437000D01*
X110490000Y-83437000D01*
X110490000Y-83417000D01*
X110470000Y-83417000D01*
X110470000Y-83163000D01*
X110490000Y-83163000D01*
X110490000Y-81513750D01*
X110744000Y-81513750D01*
X110744000Y-83163000D01*
X111893250Y-83163000D01*
X112052000Y-83004250D01*
X112055072Y-81990000D01*
X117941928Y-81990000D01*
X117945000Y-83004250D01*
X118103750Y-83163000D01*
X119253000Y-83163000D01*
X119253000Y-81513750D01*
X119507000Y-81513750D01*
X119507000Y-83163000D01*
X120656250Y-83163000D01*
X120815000Y-83004250D01*
X120818072Y-81990000D01*
X120805812Y-81865518D01*
X120769502Y-81745820D01*
X120710537Y-81635506D01*
X120631185Y-81538815D01*
X120534494Y-81459463D01*
X120424180Y-81400498D01*
X120304482Y-81364188D01*
X120180000Y-81351928D01*
X119665750Y-81355000D01*
X119507000Y-81513750D01*
X119253000Y-81513750D01*
X119094250Y-81355000D01*
X118580000Y-81351928D01*
X118455518Y-81364188D01*
X118335820Y-81400498D01*
X118225506Y-81459463D01*
X118128815Y-81538815D01*
X118049463Y-81635506D01*
X117990498Y-81745820D01*
X117954188Y-81865518D01*
X117941928Y-81990000D01*
X112055072Y-81990000D01*
X112042812Y-81865518D01*
X112006502Y-81745820D01*
X111947537Y-81635506D01*
X111868185Y-81538815D01*
X111771494Y-81459463D01*
X111661180Y-81400498D01*
X111541482Y-81364188D01*
X111417000Y-81351928D01*
X110902750Y-81355000D01*
X110744000Y-81513750D01*
X110490000Y-81513750D01*
X110331250Y-81355000D01*
X109817000Y-81351928D01*
X109692518Y-81364188D01*
X109572820Y-81400498D01*
X109462506Y-81459463D01*
X109365815Y-81538815D01*
X109286463Y-81635506D01*
X109227498Y-81745820D01*
X109191188Y-81865518D01*
X109178928Y-81990000D01*
X109182000Y-83004250D01*
X109340748Y-83162998D01*
X109214601Y-83162998D01*
X107631203Y-81579602D01*
X107607401Y-81550599D01*
X107491676Y-81455626D01*
X107359647Y-81385054D01*
X107216386Y-81341597D01*
X107104733Y-81330600D01*
X107104722Y-81330600D01*
X107067400Y-81326924D01*
X107030078Y-81330600D01*
X95060022Y-81330600D01*
X95022699Y-81326924D01*
X94985376Y-81330600D01*
X94985367Y-81330600D01*
X94873714Y-81341597D01*
X94730453Y-81385054D01*
X94598424Y-81455626D01*
X94482699Y-81550599D01*
X94458901Y-81579597D01*
X93847429Y-82191069D01*
X93788482Y-82173188D01*
X93664000Y-82160928D01*
X92604000Y-82160928D01*
X92479518Y-82173188D01*
X92359820Y-82209498D01*
X92249506Y-82268463D01*
X92152815Y-82347815D01*
X92130577Y-82374912D01*
X92129714Y-82374997D01*
X91986453Y-82418454D01*
X91854423Y-82489026D01*
X91774254Y-82554820D01*
X91738699Y-82583999D01*
X91714901Y-82612997D01*
X89981951Y-84345948D01*
X90043472Y-84230851D01*
X90094008Y-84064255D01*
X90111072Y-83891001D01*
X90111072Y-83240999D01*
X90094008Y-83067745D01*
X90043472Y-82901149D01*
X89961405Y-82747613D01*
X89850962Y-82613038D01*
X89763184Y-82541000D01*
X89850962Y-82468962D01*
X89961405Y-82334387D01*
X90043472Y-82180851D01*
X90094008Y-82014255D01*
X90111072Y-81841001D01*
X90111072Y-81190999D01*
X90094008Y-81017745D01*
X90043472Y-80851149D01*
X89961405Y-80697613D01*
X89850962Y-80563038D01*
X89716387Y-80452595D01*
X89562851Y-80370528D01*
X89533000Y-80361473D01*
X89533000Y-79141527D01*
X89562851Y-79132472D01*
X89716387Y-79050405D01*
X89850962Y-78939962D01*
X89961405Y-78805387D01*
X90043472Y-78651851D01*
X90094008Y-78485255D01*
X90111072Y-78312001D01*
X90111072Y-77661999D01*
X90094008Y-77488745D01*
X90043472Y-77322149D01*
X89961405Y-77168613D01*
X89850962Y-77034038D01*
X89763184Y-76962000D01*
X89850962Y-76889962D01*
X89961405Y-76755387D01*
X90043472Y-76601851D01*
X90046353Y-76592354D01*
X91835117Y-78381119D01*
X91846426Y-78402276D01*
X91917600Y-78489002D01*
X91941399Y-78518001D01*
X92057124Y-78612974D01*
X92189153Y-78683546D01*
X92332414Y-78727003D01*
X92481400Y-78741677D01*
X92518733Y-78738000D01*
X95347473Y-78738000D01*
X95356528Y-78767851D01*
X95438595Y-78921387D01*
X95549038Y-79055962D01*
X95683613Y-79166405D01*
X95837149Y-79248472D01*
X96003745Y-79299008D01*
X96176999Y-79316072D01*
X96827001Y-79316072D01*
X97000255Y-79299008D01*
X97166851Y-79248472D01*
X97320387Y-79166405D01*
X97454962Y-79055962D01*
X97527000Y-78968184D01*
X97599038Y-79055962D01*
X97733613Y-79166405D01*
X97887149Y-79248472D01*
X98053745Y-79299008D01*
X98226999Y-79316072D01*
X98877001Y-79316072D01*
X99050255Y-79299008D01*
X99216851Y-79248472D01*
X99370387Y-79166405D01*
X99504962Y-79055962D01*
X99615405Y-78921387D01*
X99686274Y-78788800D01*
X100696928Y-78788800D01*
X100696928Y-78928800D01*
X100709188Y-79053282D01*
X100745498Y-79172980D01*
X100804463Y-79283294D01*
X100883815Y-79379985D01*
X100980506Y-79459337D01*
X101090820Y-79518302D01*
X101210518Y-79554612D01*
X101335000Y-79566872D01*
X103135000Y-79566872D01*
X103259482Y-79554612D01*
X103379180Y-79518302D01*
X103489494Y-79459337D01*
X103586185Y-79379985D01*
X103665537Y-79283294D01*
X103724502Y-79172980D01*
X103760812Y-79053282D01*
X103765567Y-79005000D01*
X124445928Y-79005000D01*
X124458188Y-79129482D01*
X124494498Y-79249180D01*
X124553463Y-79359494D01*
X124632815Y-79456185D01*
X124729506Y-79535537D01*
X124839820Y-79594502D01*
X124959518Y-79630812D01*
X125084000Y-79643072D01*
X125698250Y-79640000D01*
X125857000Y-79481250D01*
X125857000Y-78232000D01*
X124607750Y-78232000D01*
X124449000Y-78390750D01*
X124445928Y-79005000D01*
X103765567Y-79005000D01*
X103773072Y-78928800D01*
X103773072Y-77205000D01*
X124445928Y-77205000D01*
X124449000Y-77819250D01*
X124607750Y-77978000D01*
X125857000Y-77978000D01*
X125857000Y-76728750D01*
X125698250Y-76570000D01*
X125084000Y-76566928D01*
X124959518Y-76579188D01*
X124839820Y-76615498D01*
X124729506Y-76674463D01*
X124632815Y-76753815D01*
X124553463Y-76850506D01*
X124494498Y-76960820D01*
X124458188Y-77080518D01*
X124445928Y-77205000D01*
X103773072Y-77205000D01*
X103773072Y-77128800D01*
X103760812Y-77004318D01*
X103724502Y-76884620D01*
X103665537Y-76774306D01*
X103586185Y-76677615D01*
X103489494Y-76598263D01*
X103379180Y-76539298D01*
X103368265Y-76535987D01*
X103415030Y-76489222D01*
X103299082Y-76373274D01*
X103553261Y-76289592D01*
X103684158Y-76017025D01*
X103759365Y-75724158D01*
X103775991Y-75422247D01*
X103733397Y-75122893D01*
X103682801Y-74978800D01*
X108489928Y-74978800D01*
X108489928Y-76365000D01*
X108502188Y-76489482D01*
X108538498Y-76609180D01*
X108597463Y-76719494D01*
X108676815Y-76816185D01*
X108773506Y-76895537D01*
X108883820Y-76954502D01*
X109003518Y-76990812D01*
X109128000Y-77003072D01*
X111308000Y-77003072D01*
X111432482Y-76990812D01*
X111552180Y-76954502D01*
X111662494Y-76895537D01*
X111759185Y-76816185D01*
X111838537Y-76719494D01*
X111897502Y-76609180D01*
X111933812Y-76489482D01*
X111946072Y-76365000D01*
X117669928Y-76365000D01*
X117682188Y-76489482D01*
X117718498Y-76609180D01*
X117777463Y-76719494D01*
X117856815Y-76816185D01*
X117953506Y-76895537D01*
X118063820Y-76954502D01*
X118183518Y-76990812D01*
X118308000Y-77003072D01*
X119112250Y-77000000D01*
X119271000Y-76841250D01*
X119271000Y-75692000D01*
X119525000Y-75692000D01*
X119525000Y-76841250D01*
X119683750Y-77000000D01*
X120488000Y-77003072D01*
X120612482Y-76990812D01*
X120732180Y-76954502D01*
X120842494Y-76895537D01*
X120939185Y-76816185D01*
X121018537Y-76719494D01*
X121077502Y-76609180D01*
X121113812Y-76489482D01*
X121126072Y-76365000D01*
X121123000Y-75850750D01*
X120964250Y-75692000D01*
X119525000Y-75692000D01*
X119271000Y-75692000D01*
X117831750Y-75692000D01*
X117673000Y-75850750D01*
X117669928Y-76365000D01*
X111946072Y-76365000D01*
X111946072Y-74765000D01*
X117669928Y-74765000D01*
X117673000Y-75279250D01*
X117831750Y-75438000D01*
X119271000Y-75438000D01*
X119271000Y-74288750D01*
X119525000Y-74288750D01*
X119525000Y-75438000D01*
X120964250Y-75438000D01*
X121123000Y-75279250D01*
X121126072Y-74765000D01*
X121113812Y-74640518D01*
X121077502Y-74520820D01*
X121018537Y-74410506D01*
X120939185Y-74313815D01*
X120842494Y-74234463D01*
X120732180Y-74175498D01*
X120612482Y-74139188D01*
X120488000Y-74126928D01*
X119683750Y-74130000D01*
X119525000Y-74288750D01*
X119271000Y-74288750D01*
X119112250Y-74130000D01*
X118308000Y-74126928D01*
X118183518Y-74139188D01*
X118063820Y-74175498D01*
X117953506Y-74234463D01*
X117856815Y-74313815D01*
X117777463Y-74410506D01*
X117718498Y-74520820D01*
X117682188Y-74640518D01*
X117669928Y-74765000D01*
X111946072Y-74765000D01*
X111933812Y-74640518D01*
X111897502Y-74520820D01*
X111838537Y-74410506D01*
X111759185Y-74313815D01*
X111662494Y-74234463D01*
X111552180Y-74175498D01*
X111432482Y-74139188D01*
X111308000Y-74126928D01*
X110912575Y-74126928D01*
X110852974Y-74015424D01*
X110758001Y-73899699D01*
X110728997Y-73875896D01*
X110560904Y-73707803D01*
X110537101Y-73678799D01*
X110421376Y-73583826D01*
X110289347Y-73513254D01*
X110146086Y-73469797D01*
X110034433Y-73458800D01*
X110034422Y-73458800D01*
X109997100Y-73455124D01*
X109959778Y-73458800D01*
X103685223Y-73458800D01*
X103711011Y-73396543D01*
X103770000Y-73099984D01*
X103770000Y-72797616D01*
X103711011Y-72501057D01*
X103595299Y-72221705D01*
X103427312Y-71970295D01*
X103213505Y-71756488D01*
X103085072Y-71670672D01*
X103594001Y-71670672D01*
X103767255Y-71653608D01*
X103933851Y-71603072D01*
X104087387Y-71521005D01*
X104221962Y-71410562D01*
X104332405Y-71275987D01*
X104414392Y-71122600D01*
X104822044Y-71122600D01*
X104962208Y-71293392D01*
X105161682Y-71457095D01*
X105389259Y-71578738D01*
X105636195Y-71653645D01*
X105828649Y-71672600D01*
X105957351Y-71672600D01*
X106149805Y-71653645D01*
X106396741Y-71578738D01*
X106624318Y-71457095D01*
X106823792Y-71293392D01*
X106987495Y-71093918D01*
X107109138Y-70866341D01*
X107184045Y-70619405D01*
X107209338Y-70362600D01*
X107184045Y-70105795D01*
X107109138Y-69858859D01*
X106987495Y-69631282D01*
X106823792Y-69431808D01*
X106739461Y-69362600D01*
X106823792Y-69293392D01*
X106987495Y-69093918D01*
X107109138Y-68866341D01*
X107184045Y-68619405D01*
X107209338Y-68362600D01*
X107184045Y-68105795D01*
X107109138Y-67858859D01*
X106987495Y-67631282D01*
X106823792Y-67431808D01*
X106739461Y-67362600D01*
X106823792Y-67293392D01*
X106987495Y-67093918D01*
X107109138Y-66866341D01*
X107184045Y-66619405D01*
X107209338Y-66362600D01*
X107184045Y-66105795D01*
X107109138Y-65858859D01*
X106987495Y-65631282D01*
X106823792Y-65431808D01*
X106739461Y-65362600D01*
X106823792Y-65293392D01*
X106987495Y-65093918D01*
X107109138Y-64866341D01*
X107184045Y-64619405D01*
X107209338Y-64362600D01*
X107184045Y-64105795D01*
X107129231Y-63925094D01*
X121238508Y-63925094D01*
X121238508Y-64333386D01*
X121318162Y-64733834D01*
X121474409Y-65111047D01*
X121701244Y-65450530D01*
X121989950Y-65739236D01*
X122329433Y-65966071D01*
X122706646Y-66122318D01*
X123107094Y-66201972D01*
X123515386Y-66201972D01*
X123915834Y-66122318D01*
X124293047Y-65966071D01*
X124632530Y-65739236D01*
X124921236Y-65450530D01*
X125148071Y-65111047D01*
X125304318Y-64733834D01*
X125383972Y-64333386D01*
X125383972Y-63925094D01*
X125304318Y-63524646D01*
X125148071Y-63147433D01*
X124921236Y-62807950D01*
X124632530Y-62519244D01*
X124293047Y-62292409D01*
X123915834Y-62136162D01*
X123515386Y-62056508D01*
X123107094Y-62056508D01*
X122706646Y-62136162D01*
X122329433Y-62292409D01*
X121989950Y-62519244D01*
X121701244Y-62807950D01*
X121474409Y-63147433D01*
X121318162Y-63524646D01*
X121238508Y-63925094D01*
X107129231Y-63925094D01*
X107109138Y-63858859D01*
X106987495Y-63631282D01*
X106823792Y-63431808D01*
X106739461Y-63362600D01*
X106823792Y-63293392D01*
X106987495Y-63093918D01*
X107109138Y-62866341D01*
X107184045Y-62619405D01*
X107209338Y-62362600D01*
X107184045Y-62105795D01*
X107109138Y-61858859D01*
X106987495Y-61631282D01*
X106823792Y-61431808D01*
X106739461Y-61362600D01*
X106823792Y-61293392D01*
X106987495Y-61093918D01*
X107109138Y-60866341D01*
X107184045Y-60619405D01*
X107209338Y-60362600D01*
X107184045Y-60105795D01*
X107109138Y-59858859D01*
X106987495Y-59631282D01*
X106823792Y-59431808D01*
X106735352Y-59359228D01*
X106871303Y-59233827D01*
X107022473Y-59026229D01*
X107130238Y-58793128D01*
X107160910Y-58692000D01*
X107037224Y-58489600D01*
X106020000Y-58489600D01*
X106020000Y-58509600D01*
X105766000Y-58509600D01*
X105766000Y-58489600D01*
X104748776Y-58489600D01*
X104625090Y-58692000D01*
X104655762Y-58793128D01*
X104763527Y-59026229D01*
X104914697Y-59233827D01*
X105050648Y-59359228D01*
X104962208Y-59431808D01*
X104819113Y-59606171D01*
X104743714Y-59613597D01*
X104600453Y-59657054D01*
X104468424Y-59727626D01*
X104468422Y-59727627D01*
X104468423Y-59727627D01*
X104381696Y-59798801D01*
X104381692Y-59798805D01*
X104352699Y-59822599D01*
X104328905Y-59851592D01*
X102836507Y-61343992D01*
X102849502Y-61319680D01*
X102885812Y-61199982D01*
X102898072Y-61075500D01*
X102895000Y-60061250D01*
X102736250Y-59902500D01*
X101587000Y-59902500D01*
X101587000Y-59922500D01*
X101333000Y-59922500D01*
X101333000Y-59902500D01*
X100183750Y-59902500D01*
X100025000Y-60061250D01*
X100021928Y-61075500D01*
X100034188Y-61199982D01*
X100070498Y-61319680D01*
X100129463Y-61429994D01*
X100162295Y-61470000D01*
X98051595Y-61470000D01*
X98014706Y-61400986D01*
X97829134Y-61174866D01*
X97603014Y-60989294D01*
X97538477Y-60954799D01*
X97655355Y-60885178D01*
X97871588Y-60690269D01*
X98045641Y-60456920D01*
X98170825Y-60194099D01*
X98215476Y-60046890D01*
X98094155Y-59817000D01*
X96901000Y-59817000D01*
X96901000Y-59837000D01*
X96647000Y-59837000D01*
X96647000Y-59817000D01*
X95453845Y-59817000D01*
X95332524Y-60046890D01*
X95377175Y-60194099D01*
X95502359Y-60456920D01*
X95676412Y-60690269D01*
X95892645Y-60885178D01*
X96009523Y-60954799D01*
X95944986Y-60989294D01*
X95718866Y-61174866D01*
X95533294Y-61400986D01*
X95427466Y-61598977D01*
X95392676Y-61570426D01*
X95260647Y-61499854D01*
X95117386Y-61456397D01*
X95005733Y-61445400D01*
X95005722Y-61445400D01*
X94968400Y-61441724D01*
X94931078Y-61445400D01*
X94820181Y-61445400D01*
X94764694Y-61399863D01*
X94654380Y-61340898D01*
X94534682Y-61304588D01*
X94410200Y-61292328D01*
X92910200Y-61292328D01*
X92869238Y-61296362D01*
X92873272Y-61255400D01*
X92873272Y-59755400D01*
X92861012Y-59630918D01*
X92824702Y-59511220D01*
X92765737Y-59400906D01*
X92686385Y-59304215D01*
X92589694Y-59224863D01*
X92479380Y-59165898D01*
X92359682Y-59129588D01*
X92235200Y-59117328D01*
X91685200Y-59117328D01*
X91560718Y-59129588D01*
X91560200Y-59129745D01*
X91559682Y-59129588D01*
X91435200Y-59117328D01*
X91160425Y-59117328D01*
X91186326Y-59054798D01*
X91226100Y-58854839D01*
X91226100Y-58650961D01*
X91186326Y-58451002D01*
X91108305Y-58262644D01*
X90995037Y-58093126D01*
X90850874Y-57948963D01*
X90792562Y-57910000D01*
X95285928Y-57910000D01*
X95285928Y-58000000D01*
X95298188Y-58124482D01*
X95334498Y-58244180D01*
X95393463Y-58354494D01*
X95472815Y-58451185D01*
X95569506Y-58530537D01*
X95679820Y-58589502D01*
X95760466Y-58613966D01*
X95676412Y-58689731D01*
X95502359Y-58923080D01*
X95377175Y-59185901D01*
X95332524Y-59333110D01*
X95453845Y-59563000D01*
X96647000Y-59563000D01*
X96647000Y-59543000D01*
X96901000Y-59543000D01*
X96901000Y-59563000D01*
X98094155Y-59563000D01*
X98215476Y-59333110D01*
X98170825Y-59185901D01*
X98045641Y-58923080D01*
X97871588Y-58689731D01*
X97787534Y-58613966D01*
X97868180Y-58589502D01*
X97978494Y-58530537D01*
X98075185Y-58451185D01*
X98154537Y-58354494D01*
X98213502Y-58244180D01*
X98249812Y-58124482D01*
X98262072Y-58000000D01*
X98262072Y-57844575D01*
X98373576Y-57784974D01*
X98489301Y-57690001D01*
X98513104Y-57660998D01*
X99238602Y-56935500D01*
X100021928Y-56935500D01*
X100021928Y-57225500D01*
X100038992Y-57398754D01*
X100089528Y-57565350D01*
X100171595Y-57718886D01*
X100282038Y-57853462D01*
X100358813Y-57916469D01*
X100305506Y-57944963D01*
X100208815Y-58024315D01*
X100129463Y-58121006D01*
X100070498Y-58231320D01*
X100034188Y-58351018D01*
X100021928Y-58475500D01*
X100025000Y-59489750D01*
X100183750Y-59648500D01*
X101333000Y-59648500D01*
X101333000Y-59628500D01*
X101587000Y-59628500D01*
X101587000Y-59648500D01*
X102736250Y-59648500D01*
X102895000Y-59489750D01*
X102898072Y-58475500D01*
X102885812Y-58351018D01*
X102849502Y-58231320D01*
X102790537Y-58121006D01*
X102711185Y-58024315D01*
X102614494Y-57944963D01*
X102561187Y-57916469D01*
X102637962Y-57853462D01*
X102748405Y-57718886D01*
X102830472Y-57565350D01*
X102881008Y-57398754D01*
X102898072Y-57225500D01*
X102898072Y-56935500D01*
X104392787Y-56935500D01*
X104468424Y-56997574D01*
X104581963Y-57058263D01*
X104592188Y-57162082D01*
X104628498Y-57281780D01*
X104687463Y-57392094D01*
X104766815Y-57488785D01*
X104860559Y-57565719D01*
X104763527Y-57698971D01*
X104655762Y-57932072D01*
X104625090Y-58033200D01*
X104748776Y-58235600D01*
X105766000Y-58235600D01*
X105766000Y-58215600D01*
X106020000Y-58215600D01*
X106020000Y-58235600D01*
X107037224Y-58235600D01*
X107160910Y-58033200D01*
X107130238Y-57932072D01*
X107022473Y-57698971D01*
X106925441Y-57565719D01*
X107019185Y-57488785D01*
X107098537Y-57392094D01*
X107157502Y-57281780D01*
X107193812Y-57162082D01*
X107206072Y-57037600D01*
X107206072Y-56565823D01*
X107211799Y-56572801D01*
X107240792Y-56596595D01*
X107240796Y-56596599D01*
X107292460Y-56638998D01*
X107327524Y-56667774D01*
X107459553Y-56738346D01*
X107602814Y-56781803D01*
X107714467Y-56792800D01*
X107714476Y-56792800D01*
X107751799Y-56796476D01*
X107789122Y-56792800D01*
X112631178Y-56792800D01*
X112668500Y-56796476D01*
X112705822Y-56792800D01*
X112705833Y-56792800D01*
X112817486Y-56781803D01*
X112960747Y-56738346D01*
X113092776Y-56667774D01*
X113208501Y-56572801D01*
X113232304Y-56543797D01*
X114004004Y-55772097D01*
X114090820Y-55818502D01*
X114210518Y-55854812D01*
X114335000Y-55867072D01*
X115535000Y-55867072D01*
X115659482Y-55854812D01*
X115779180Y-55818502D01*
X115889494Y-55759537D01*
X115986185Y-55680185D01*
X116065537Y-55583494D01*
X116124502Y-55473180D01*
X116160812Y-55353482D01*
X116173072Y-55229000D01*
X116173072Y-53660000D01*
X122916620Y-53660000D01*
X126340000Y-57083381D01*
G36*
X104775000Y-83303000D02*
G01*
X106680000Y-83303000D01*
X106680000Y-83283000D01*
X106934000Y-83283000D01*
X106934000Y-83303000D01*
X106954000Y-83303000D01*
X106954000Y-83557000D01*
X106934000Y-83557000D01*
X106934000Y-83577000D01*
X106680000Y-83577000D01*
X106680000Y-83557000D01*
X104775000Y-83557000D01*
X104775000Y-83577000D01*
X104521000Y-83577000D01*
X104521000Y-83557000D01*
X104501000Y-83557000D01*
X104501000Y-83303000D01*
X104521000Y-83303000D01*
X104521000Y-83283000D01*
X104775000Y-83283000D01*
X104775000Y-83303000D01*
X104775000Y-83303000D01*
G37*
X104775000Y-83303000D02*
X106680000Y-83303000D01*
X106680000Y-83283000D01*
X106934000Y-83283000D01*
X106934000Y-83303000D01*
X106954000Y-83303000D01*
X106954000Y-83557000D01*
X106934000Y-83557000D01*
X106934000Y-83577000D01*
X106680000Y-83577000D01*
X106680000Y-83557000D01*
X104775000Y-83557000D01*
X104775000Y-83577000D01*
X104521000Y-83577000D01*
X104521000Y-83557000D01*
X104501000Y-83557000D01*
X104501000Y-83303000D01*
X104521000Y-83303000D01*
X104521000Y-83283000D01*
X104775000Y-83283000D01*
X104775000Y-83303000D01*
G36*
X100710635Y-75253442D02*
G01*
X100694009Y-75555353D01*
X100736603Y-75854707D01*
X100836778Y-76139999D01*
X100916739Y-76289592D01*
X101170918Y-76373274D01*
X101054970Y-76489222D01*
X101101735Y-76535987D01*
X101090820Y-76539298D01*
X100980506Y-76598263D01*
X100883815Y-76677615D01*
X100804463Y-76774306D01*
X100745498Y-76884620D01*
X100709188Y-77004318D01*
X100696928Y-77128800D01*
X100696928Y-77268800D01*
X99721937Y-77268800D01*
X99697472Y-77188149D01*
X99615405Y-77034613D01*
X99504962Y-76900038D01*
X99370387Y-76789595D01*
X99216851Y-76707528D01*
X99050255Y-76656992D01*
X98877001Y-76639928D01*
X98226999Y-76639928D01*
X98053745Y-76656992D01*
X97887149Y-76707528D01*
X97733613Y-76789595D01*
X97599038Y-76900038D01*
X97527000Y-76987816D01*
X97454962Y-76900038D01*
X97320387Y-76789595D01*
X97166851Y-76707528D01*
X97000255Y-76656992D01*
X96827001Y-76639928D01*
X96176999Y-76639928D01*
X96003745Y-76656992D01*
X95837149Y-76707528D01*
X95683613Y-76789595D01*
X95549038Y-76900038D01*
X95438595Y-77034613D01*
X95356528Y-77188149D01*
X95347473Y-77218000D01*
X92821602Y-77218000D01*
X90754081Y-75150479D01*
X90865914Y-75184403D01*
X90977567Y-75195400D01*
X90977576Y-75195400D01*
X91014899Y-75199076D01*
X91052222Y-75195400D01*
X98418578Y-75195400D01*
X98455900Y-75199076D01*
X98493222Y-75195400D01*
X98493233Y-75195400D01*
X98604886Y-75184403D01*
X98748147Y-75140946D01*
X98880176Y-75070374D01*
X98991759Y-74978800D01*
X100781162Y-74978800D01*
X100710635Y-75253442D01*
X100710635Y-75253442D01*
G37*
X100710635Y-75253442D02*
X100694009Y-75555353D01*
X100736603Y-75854707D01*
X100836778Y-76139999D01*
X100916739Y-76289592D01*
X101170918Y-76373274D01*
X101054970Y-76489222D01*
X101101735Y-76535987D01*
X101090820Y-76539298D01*
X100980506Y-76598263D01*
X100883815Y-76677615D01*
X100804463Y-76774306D01*
X100745498Y-76884620D01*
X100709188Y-77004318D01*
X100696928Y-77128800D01*
X100696928Y-77268800D01*
X99721937Y-77268800D01*
X99697472Y-77188149D01*
X99615405Y-77034613D01*
X99504962Y-76900038D01*
X99370387Y-76789595D01*
X99216851Y-76707528D01*
X99050255Y-76656992D01*
X98877001Y-76639928D01*
X98226999Y-76639928D01*
X98053745Y-76656992D01*
X97887149Y-76707528D01*
X97733613Y-76789595D01*
X97599038Y-76900038D01*
X97527000Y-76987816D01*
X97454962Y-76900038D01*
X97320387Y-76789595D01*
X97166851Y-76707528D01*
X97000255Y-76656992D01*
X96827001Y-76639928D01*
X96176999Y-76639928D01*
X96003745Y-76656992D01*
X95837149Y-76707528D01*
X95683613Y-76789595D01*
X95549038Y-76900038D01*
X95438595Y-77034613D01*
X95356528Y-77188149D01*
X95347473Y-77218000D01*
X92821602Y-77218000D01*
X90754081Y-75150479D01*
X90865914Y-75184403D01*
X90977567Y-75195400D01*
X90977576Y-75195400D01*
X91014899Y-75199076D01*
X91052222Y-75195400D01*
X98418578Y-75195400D01*
X98455900Y-75199076D01*
X98493222Y-75195400D01*
X98493233Y-75195400D01*
X98604886Y-75184403D01*
X98748147Y-75140946D01*
X98880176Y-75070374D01*
X98991759Y-74978800D01*
X100781162Y-74978800D01*
X100710635Y-75253442D01*
G36*
X102428748Y-75474658D02*
G01*
X102414605Y-75488800D01*
X102428748Y-75502943D01*
X102249143Y-75682548D01*
X102235000Y-75668405D01*
X102220858Y-75682548D01*
X102041253Y-75502943D01*
X102055395Y-75488800D01*
X102041253Y-75474658D01*
X102220858Y-75295053D01*
X102235000Y-75309195D01*
X102249143Y-75295053D01*
X102428748Y-75474658D01*
X102428748Y-75474658D01*
G37*
X102428748Y-75474658D02*
X102414605Y-75488800D01*
X102428748Y-75502943D01*
X102249143Y-75682548D01*
X102235000Y-75668405D01*
X102220858Y-75682548D01*
X102041253Y-75502943D01*
X102055395Y-75488800D01*
X102041253Y-75474658D01*
X102220858Y-75295053D01*
X102235000Y-75309195D01*
X102249143Y-75295053D01*
X102428748Y-75474658D01*
G36*
X88287998Y-66808000D02*
G01*
X86816222Y-66808000D01*
X86778899Y-66804324D01*
X86741576Y-66808000D01*
X86741567Y-66808000D01*
X86629914Y-66818997D01*
X86486653Y-66862454D01*
X86354623Y-66933026D01*
X86273183Y-66999863D01*
X86238899Y-67027999D01*
X86215101Y-67056997D01*
X83648272Y-69623827D01*
X83648272Y-69130400D01*
X83636012Y-69005918D01*
X83635855Y-69005400D01*
X83636012Y-69004882D01*
X83648272Y-68880400D01*
X83648272Y-68330400D01*
X83636012Y-68205918D01*
X83635855Y-68205400D01*
X83636012Y-68204882D01*
X83648272Y-68080400D01*
X83648272Y-67530400D01*
X83636012Y-67405918D01*
X83635855Y-67405400D01*
X83636012Y-67404882D01*
X83648272Y-67280400D01*
X83648272Y-66730400D01*
X83636012Y-66605918D01*
X83635654Y-66604737D01*
X83645200Y-66491150D01*
X83553117Y-66399067D01*
X83540737Y-66375906D01*
X83461385Y-66279215D01*
X83371441Y-66205400D01*
X83420181Y-66165400D01*
X87645399Y-66165400D01*
X88287998Y-66808000D01*
X88287998Y-66808000D01*
G37*
X88287998Y-66808000D02*
X86816222Y-66808000D01*
X86778899Y-66804324D01*
X86741576Y-66808000D01*
X86741567Y-66808000D01*
X86629914Y-66818997D01*
X86486653Y-66862454D01*
X86354623Y-66933026D01*
X86273183Y-66999863D01*
X86238899Y-67027999D01*
X86215101Y-67056997D01*
X83648272Y-69623827D01*
X83648272Y-69130400D01*
X83636012Y-69005918D01*
X83635855Y-69005400D01*
X83636012Y-69004882D01*
X83648272Y-68880400D01*
X83648272Y-68330400D01*
X83636012Y-68205918D01*
X83635855Y-68205400D01*
X83636012Y-68204882D01*
X83648272Y-68080400D01*
X83648272Y-67530400D01*
X83636012Y-67405918D01*
X83635855Y-67405400D01*
X83636012Y-67404882D01*
X83648272Y-67280400D01*
X83648272Y-66730400D01*
X83636012Y-66605918D01*
X83635654Y-66604737D01*
X83645200Y-66491150D01*
X83553117Y-66399067D01*
X83540737Y-66375906D01*
X83461385Y-66279215D01*
X83371441Y-66205400D01*
X83420181Y-66165400D01*
X87645399Y-66165400D01*
X88287998Y-66808000D01*
G36*
X91560718Y-61881212D02*
G01*
X91685200Y-61893472D01*
X92235200Y-61893472D01*
X92276162Y-61889438D01*
X92272128Y-61930400D01*
X92272128Y-62102347D01*
X92113098Y-62036474D01*
X91913139Y-61996700D01*
X91709261Y-61996700D01*
X91509302Y-62036474D01*
X91320944Y-62114495D01*
X91151426Y-62227763D01*
X91007263Y-62371926D01*
X90893995Y-62541444D01*
X90815974Y-62729802D01*
X90776200Y-62929761D01*
X90776200Y-63133639D01*
X90815974Y-63333598D01*
X90893995Y-63521956D01*
X91007263Y-63691474D01*
X91151426Y-63835637D01*
X91320944Y-63948905D01*
X91362132Y-63965966D01*
X90953599Y-64374500D01*
X90891461Y-64374500D01*
X90691502Y-64414274D01*
X90503144Y-64492295D01*
X90333626Y-64605563D01*
X90189463Y-64749726D01*
X90076195Y-64919244D01*
X89998174Y-65107602D01*
X89958400Y-65307561D01*
X89958400Y-65511439D01*
X89998174Y-65711398D01*
X90076195Y-65899756D01*
X90189463Y-66069274D01*
X90333626Y-66213437D01*
X90381462Y-66245400D01*
X89875002Y-66245400D01*
X88720200Y-65090599D01*
X88720200Y-61893472D01*
X89035200Y-61893472D01*
X89159682Y-61881212D01*
X89160200Y-61881055D01*
X89160718Y-61881212D01*
X89285200Y-61893472D01*
X89835200Y-61893472D01*
X89959682Y-61881212D01*
X89960200Y-61881055D01*
X89960718Y-61881212D01*
X90085200Y-61893472D01*
X90635200Y-61893472D01*
X90759682Y-61881212D01*
X90760200Y-61881055D01*
X90760718Y-61881212D01*
X90885200Y-61893472D01*
X91435200Y-61893472D01*
X91559682Y-61881212D01*
X91560200Y-61881055D01*
X91560718Y-61881212D01*
X91560718Y-61881212D01*
G37*
X91560718Y-61881212D02*
X91685200Y-61893472D01*
X92235200Y-61893472D01*
X92276162Y-61889438D01*
X92272128Y-61930400D01*
X92272128Y-62102347D01*
X92113098Y-62036474D01*
X91913139Y-61996700D01*
X91709261Y-61996700D01*
X91509302Y-62036474D01*
X91320944Y-62114495D01*
X91151426Y-62227763D01*
X91007263Y-62371926D01*
X90893995Y-62541444D01*
X90815974Y-62729802D01*
X90776200Y-62929761D01*
X90776200Y-63133639D01*
X90815974Y-63333598D01*
X90893995Y-63521956D01*
X91007263Y-63691474D01*
X91151426Y-63835637D01*
X91320944Y-63948905D01*
X91362132Y-63965966D01*
X90953599Y-64374500D01*
X90891461Y-64374500D01*
X90691502Y-64414274D01*
X90503144Y-64492295D01*
X90333626Y-64605563D01*
X90189463Y-64749726D01*
X90076195Y-64919244D01*
X89998174Y-65107602D01*
X89958400Y-65307561D01*
X89958400Y-65511439D01*
X89998174Y-65711398D01*
X90076195Y-65899756D01*
X90189463Y-66069274D01*
X90333626Y-66213437D01*
X90381462Y-66245400D01*
X89875002Y-66245400D01*
X88720200Y-65090599D01*
X88720200Y-61893472D01*
X89035200Y-61893472D01*
X89159682Y-61881212D01*
X89160200Y-61881055D01*
X89160718Y-61881212D01*
X89285200Y-61893472D01*
X89835200Y-61893472D01*
X89959682Y-61881212D01*
X89960200Y-61881055D01*
X89960718Y-61881212D01*
X90085200Y-61893472D01*
X90635200Y-61893472D01*
X90759682Y-61881212D01*
X90760200Y-61881055D01*
X90760718Y-61881212D01*
X90885200Y-61893472D01*
X91435200Y-61893472D01*
X91559682Y-61881212D01*
X91560200Y-61881055D01*
X91560718Y-61881212D01*
G36*
X88106428Y-55229000D02*
G01*
X88118688Y-55353482D01*
X88154998Y-55473180D01*
X88213963Y-55583494D01*
X88293315Y-55680185D01*
X88390006Y-55759537D01*
X88500320Y-55818502D01*
X88620018Y-55854812D01*
X88744500Y-55867072D01*
X89944500Y-55867072D01*
X90068982Y-55854812D01*
X90188680Y-55818502D01*
X90275431Y-55772132D01*
X90568701Y-56065403D01*
X90592499Y-56094401D01*
X90621497Y-56118199D01*
X90708223Y-56189374D01*
X90753571Y-56213613D01*
X90840253Y-56259946D01*
X90983514Y-56303403D01*
X91095167Y-56314400D01*
X91095176Y-56314400D01*
X91132499Y-56318076D01*
X91169822Y-56314400D01*
X95285928Y-56314400D01*
X95285928Y-56390000D01*
X90277622Y-56390000D01*
X90240299Y-56386324D01*
X90202976Y-56390000D01*
X90202967Y-56390000D01*
X90091314Y-56400997D01*
X89948053Y-56444454D01*
X89816024Y-56515026D01*
X89700299Y-56609999D01*
X89676501Y-56638997D01*
X87449198Y-58866301D01*
X87420200Y-58890099D01*
X87396402Y-58919097D01*
X87396401Y-58919098D01*
X87325226Y-59005824D01*
X87254654Y-59137854D01*
X87240080Y-59185901D01*
X87211198Y-59281114D01*
X87206314Y-59330700D01*
X87205501Y-59338960D01*
X87160200Y-59394159D01*
X87086385Y-59304215D01*
X86989694Y-59224863D01*
X86966533Y-59212483D01*
X86874450Y-59120400D01*
X86760863Y-59129946D01*
X86759682Y-59129588D01*
X86635200Y-59117328D01*
X86085200Y-59117328D01*
X85960718Y-59129588D01*
X85960200Y-59129745D01*
X85959682Y-59129588D01*
X85835200Y-59117328D01*
X85285200Y-59117328D01*
X85160718Y-59129588D01*
X85160200Y-59129745D01*
X85159682Y-59129588D01*
X85035200Y-59117328D01*
X84689672Y-59117328D01*
X84665746Y-59038453D01*
X84595174Y-58906424D01*
X84500201Y-58790699D01*
X84471204Y-58766902D01*
X83875300Y-58170999D01*
X83875300Y-58108861D01*
X83835526Y-57908902D01*
X83757505Y-57720544D01*
X83644237Y-57551026D01*
X83500074Y-57406863D01*
X83330556Y-57293595D01*
X83142198Y-57215574D01*
X82942239Y-57175800D01*
X82738361Y-57175800D01*
X82538402Y-57215574D01*
X82350044Y-57293595D01*
X82180526Y-57406863D01*
X82036363Y-57551026D01*
X81923095Y-57720544D01*
X81845074Y-57908902D01*
X81805300Y-58108861D01*
X81805300Y-58312739D01*
X81845074Y-58512698D01*
X81923095Y-58701056D01*
X82036363Y-58870574D01*
X82180526Y-59014737D01*
X82350044Y-59128005D01*
X82538402Y-59206026D01*
X82738361Y-59245800D01*
X82800499Y-59245800D01*
X83088767Y-59534069D01*
X83059388Y-59630918D01*
X83047128Y-59755400D01*
X83047128Y-61255400D01*
X83051162Y-61296362D01*
X83010200Y-61292328D01*
X81510200Y-61292328D01*
X81385718Y-61304588D01*
X81266020Y-61340898D01*
X81155706Y-61399863D01*
X81093761Y-61450699D01*
X81035914Y-61456397D01*
X80892653Y-61499854D01*
X80760624Y-61570426D01*
X80644899Y-61665399D01*
X80563459Y-61764634D01*
X80526185Y-61719215D01*
X80429494Y-61639863D01*
X80319180Y-61580898D01*
X80199482Y-61544588D01*
X80075000Y-61532328D01*
X79660750Y-61535400D01*
X79502000Y-61694150D01*
X79502000Y-62618400D01*
X79522000Y-62618400D01*
X79522000Y-62872400D01*
X79502000Y-62872400D01*
X79502000Y-62886800D01*
X79248000Y-62886800D01*
X79248000Y-62872400D01*
X79228000Y-62872400D01*
X79228000Y-62618400D01*
X79248000Y-62618400D01*
X79248000Y-61694150D01*
X79089250Y-61535400D01*
X78675000Y-61532328D01*
X78550518Y-61544588D01*
X78430820Y-61580898D01*
X78320506Y-61639863D01*
X78223815Y-61719215D01*
X78144463Y-61815906D01*
X78130000Y-61842964D01*
X78130000Y-57083380D01*
X81553381Y-53660000D01*
X88106428Y-53660000D01*
X88106428Y-55229000D01*
X88106428Y-55229000D01*
G37*
X88106428Y-55229000D02*
X88118688Y-55353482D01*
X88154998Y-55473180D01*
X88213963Y-55583494D01*
X88293315Y-55680185D01*
X88390006Y-55759537D01*
X88500320Y-55818502D01*
X88620018Y-55854812D01*
X88744500Y-55867072D01*
X89944500Y-55867072D01*
X90068982Y-55854812D01*
X90188680Y-55818502D01*
X90275431Y-55772132D01*
X90568701Y-56065403D01*
X90592499Y-56094401D01*
X90621497Y-56118199D01*
X90708223Y-56189374D01*
X90753571Y-56213613D01*
X90840253Y-56259946D01*
X90983514Y-56303403D01*
X91095167Y-56314400D01*
X91095176Y-56314400D01*
X91132499Y-56318076D01*
X91169822Y-56314400D01*
X95285928Y-56314400D01*
X95285928Y-56390000D01*
X90277622Y-56390000D01*
X90240299Y-56386324D01*
X90202976Y-56390000D01*
X90202967Y-56390000D01*
X90091314Y-56400997D01*
X89948053Y-56444454D01*
X89816024Y-56515026D01*
X89700299Y-56609999D01*
X89676501Y-56638997D01*
X87449198Y-58866301D01*
X87420200Y-58890099D01*
X87396402Y-58919097D01*
X87396401Y-58919098D01*
X87325226Y-59005824D01*
X87254654Y-59137854D01*
X87240080Y-59185901D01*
X87211198Y-59281114D01*
X87206314Y-59330700D01*
X87205501Y-59338960D01*
X87160200Y-59394159D01*
X87086385Y-59304215D01*
X86989694Y-59224863D01*
X86966533Y-59212483D01*
X86874450Y-59120400D01*
X86760863Y-59129946D01*
X86759682Y-59129588D01*
X86635200Y-59117328D01*
X86085200Y-59117328D01*
X85960718Y-59129588D01*
X85960200Y-59129745D01*
X85959682Y-59129588D01*
X85835200Y-59117328D01*
X85285200Y-59117328D01*
X85160718Y-59129588D01*
X85160200Y-59129745D01*
X85159682Y-59129588D01*
X85035200Y-59117328D01*
X84689672Y-59117328D01*
X84665746Y-59038453D01*
X84595174Y-58906424D01*
X84500201Y-58790699D01*
X84471204Y-58766902D01*
X83875300Y-58170999D01*
X83875300Y-58108861D01*
X83835526Y-57908902D01*
X83757505Y-57720544D01*
X83644237Y-57551026D01*
X83500074Y-57406863D01*
X83330556Y-57293595D01*
X83142198Y-57215574D01*
X82942239Y-57175800D01*
X82738361Y-57175800D01*
X82538402Y-57215574D01*
X82350044Y-57293595D01*
X82180526Y-57406863D01*
X82036363Y-57551026D01*
X81923095Y-57720544D01*
X81845074Y-57908902D01*
X81805300Y-58108861D01*
X81805300Y-58312739D01*
X81845074Y-58512698D01*
X81923095Y-58701056D01*
X82036363Y-58870574D01*
X82180526Y-59014737D01*
X82350044Y-59128005D01*
X82538402Y-59206026D01*
X82738361Y-59245800D01*
X82800499Y-59245800D01*
X83088767Y-59534069D01*
X83059388Y-59630918D01*
X83047128Y-59755400D01*
X83047128Y-61255400D01*
X83051162Y-61296362D01*
X83010200Y-61292328D01*
X81510200Y-61292328D01*
X81385718Y-61304588D01*
X81266020Y-61340898D01*
X81155706Y-61399863D01*
X81093761Y-61450699D01*
X81035914Y-61456397D01*
X80892653Y-61499854D01*
X80760624Y-61570426D01*
X80644899Y-61665399D01*
X80563459Y-61764634D01*
X80526185Y-61719215D01*
X80429494Y-61639863D01*
X80319180Y-61580898D01*
X80199482Y-61544588D01*
X80075000Y-61532328D01*
X79660750Y-61535400D01*
X79502000Y-61694150D01*
X79502000Y-62618400D01*
X79522000Y-62618400D01*
X79522000Y-62872400D01*
X79502000Y-62872400D01*
X79502000Y-62886800D01*
X79248000Y-62886800D01*
X79248000Y-62872400D01*
X79228000Y-62872400D01*
X79228000Y-62618400D01*
X79248000Y-62618400D01*
X79248000Y-61694150D01*
X79089250Y-61535400D01*
X78675000Y-61532328D01*
X78550518Y-61544588D01*
X78430820Y-61580898D01*
X78320506Y-61639863D01*
X78223815Y-61719215D01*
X78144463Y-61815906D01*
X78130000Y-61842964D01*
X78130000Y-57083380D01*
X81553381Y-53660000D01*
X88106428Y-53660000D01*
X88106428Y-55229000D01*
G36*
X108620000Y-53943250D02*
G01*
X108778750Y-54102000D01*
X109728000Y-54102000D01*
X109728000Y-54082000D01*
X109982000Y-54082000D01*
X109982000Y-54102000D01*
X110002000Y-54102000D01*
X110002000Y-54356000D01*
X109982000Y-54356000D01*
X109982000Y-54376000D01*
X109728000Y-54376000D01*
X109728000Y-54356000D01*
X108778750Y-54356000D01*
X108620000Y-54514750D01*
X108618797Y-54794400D01*
X108414202Y-54794400D01*
X107279801Y-53660000D01*
X108618782Y-53660000D01*
X108620000Y-53943250D01*
X108620000Y-53943250D01*
G37*
X108620000Y-53943250D02*
X108778750Y-54102000D01*
X109728000Y-54102000D01*
X109728000Y-54082000D01*
X109982000Y-54082000D01*
X109982000Y-54102000D01*
X110002000Y-54102000D01*
X110002000Y-54356000D01*
X109982000Y-54356000D01*
X109982000Y-54376000D01*
X109728000Y-54376000D01*
X109728000Y-54356000D01*
X108778750Y-54356000D01*
X108620000Y-54514750D01*
X108618797Y-54794400D01*
X108414202Y-54794400D01*
X107279801Y-53660000D01*
X108618782Y-53660000D01*
X108620000Y-53943250D01*
M02*
