M48
; DRILL file {KiCad (5.1.4)-1} date 20.09.2019 08:24:23
; FORMAT={-:-/ absolute / inch / decimal}
; #@! TF.CreationDate,2019-09-20T08:24:23+02:00
; #@! TF.GenerationSoftware,Kicad,Pcbnew,(5.1.4)-1
; #@! TF.FileFunction,Plated,1,2,PTH
FMAT,2
INCH
T1C0.0157
T2C0.0315
T3C0.0354
T4C0.0394
%
G90
G05
T1
X3.2614Y-2.2918
X3.343Y-2.621
X3.421Y-2.293
X3.4409Y-2.7749
X3.505Y-2.451
X3.5508Y-2.3131
X3.5824Y-2.5752
X3.6146Y-2.4816
X3.6163Y-2.689
X3.626Y-2.307
X3.6301Y-3.3913
X3.6313Y-2.7462
X3.695Y-3.0
X3.7482Y-2.7333
X3.8744Y-3.2605
X4.163Y-3.284
X4.263Y-2.13
X4.369Y-2.631
X4.719Y-2.281
T2
X4.169Y-2.219
X4.169Y-2.2977
X4.169Y-2.3765
X4.169Y-2.4552
X4.169Y-2.534
X4.169Y-2.6127
X4.169Y-2.6914
X4.169Y-2.7702
T3
X4.025Y-2.872
X4.025Y-2.972
X4.025Y-3.072
T4
X3.81Y-2.25
X3.81Y-2.35
X3.81Y-2.45
X3.81Y-2.55
X3.81Y-2.65
X3.81Y-2.75
X3.325Y-2.99
X3.325Y-3.09
X3.325Y-3.19
X3.325Y-3.29
X3.325Y-3.39
X3.325Y-3.49
X3.09Y-2.875
X3.09Y-3.075
X4.96Y-2.875
X4.96Y-3.075
T0
M30
