G04 #@! TF.GenerationSoftware,KiCad,Pcbnew,(5.1.4)-1*
G04 #@! TF.CreationDate,2019-09-20T08:24:21+02:00*
G04 #@! TF.ProjectId,hb-rc-2-pbu-led,68622d72-632d-4322-9d70-62752d6c6564,rev?*
G04 #@! TF.SameCoordinates,Original*
G04 #@! TF.FileFunction,Soldermask,Bot*
G04 #@! TF.FilePolarity,Negative*
%FSLAX46Y46*%
G04 Gerber Fmt 4.6, Leading zero omitted, Abs format (unit mm)*
G04 Created by KiCad (PCBNEW (5.1.4)-1) date 2019-09-20 08:24:21*
%MOMM*%
%LPD*%
G04 APERTURE LIST*
%ADD10C,0.100000*%
G04 APERTURE END LIST*
D10*
G36*
X84565442Y-87751518D02*
G01*
X84631627Y-87758037D01*
X84801466Y-87809557D01*
X84957991Y-87893222D01*
X84993729Y-87922552D01*
X85095186Y-88005814D01*
X85178448Y-88107271D01*
X85207778Y-88143009D01*
X85291443Y-88299534D01*
X85342963Y-88469373D01*
X85360359Y-88646000D01*
X85342963Y-88822627D01*
X85291443Y-88992466D01*
X85207778Y-89148991D01*
X85178448Y-89184729D01*
X85095186Y-89286186D01*
X84993729Y-89369448D01*
X84957991Y-89398778D01*
X84801466Y-89482443D01*
X84631627Y-89533963D01*
X84565442Y-89540482D01*
X84499260Y-89547000D01*
X84410740Y-89547000D01*
X84344558Y-89540482D01*
X84278373Y-89533963D01*
X84108534Y-89482443D01*
X83952009Y-89398778D01*
X83916271Y-89369448D01*
X83814814Y-89286186D01*
X83731552Y-89184729D01*
X83702222Y-89148991D01*
X83618557Y-88992466D01*
X83567037Y-88822627D01*
X83549641Y-88646000D01*
X83567037Y-88469373D01*
X83618557Y-88299534D01*
X83702222Y-88143009D01*
X83731552Y-88107271D01*
X83814814Y-88005814D01*
X83916271Y-87922552D01*
X83952009Y-87893222D01*
X84108534Y-87809557D01*
X84278373Y-87758037D01*
X84344558Y-87751518D01*
X84410740Y-87745000D01*
X84499260Y-87745000D01*
X84565442Y-87751518D01*
X84565442Y-87751518D01*
G37*
G36*
X84565443Y-85211519D02*
G01*
X84631627Y-85218037D01*
X84801466Y-85269557D01*
X84957991Y-85353222D01*
X84993729Y-85382552D01*
X85095186Y-85465814D01*
X85178448Y-85567271D01*
X85207778Y-85603009D01*
X85291443Y-85759534D01*
X85342963Y-85929373D01*
X85360359Y-86106000D01*
X85342963Y-86282627D01*
X85291443Y-86452466D01*
X85207778Y-86608991D01*
X85178448Y-86644729D01*
X85095186Y-86746186D01*
X84993729Y-86829448D01*
X84957991Y-86858778D01*
X84801466Y-86942443D01*
X84631627Y-86993963D01*
X84565442Y-87000482D01*
X84499260Y-87007000D01*
X84410740Y-87007000D01*
X84344558Y-87000482D01*
X84278373Y-86993963D01*
X84108534Y-86942443D01*
X83952009Y-86858778D01*
X83916271Y-86829448D01*
X83814814Y-86746186D01*
X83731552Y-86644729D01*
X83702222Y-86608991D01*
X83618557Y-86452466D01*
X83567037Y-86282627D01*
X83549641Y-86106000D01*
X83567037Y-85929373D01*
X83618557Y-85759534D01*
X83702222Y-85603009D01*
X83731552Y-85567271D01*
X83814814Y-85465814D01*
X83916271Y-85382552D01*
X83952009Y-85353222D01*
X84108534Y-85269557D01*
X84278373Y-85218037D01*
X84344557Y-85211519D01*
X84410740Y-85205000D01*
X84499260Y-85205000D01*
X84565443Y-85211519D01*
X84565443Y-85211519D01*
G37*
G36*
X84565442Y-82671518D02*
G01*
X84631627Y-82678037D01*
X84801466Y-82729557D01*
X84957991Y-82813222D01*
X84993729Y-82842552D01*
X85095186Y-82925814D01*
X85178448Y-83027271D01*
X85207778Y-83063009D01*
X85291443Y-83219534D01*
X85342963Y-83389373D01*
X85360359Y-83566000D01*
X85342963Y-83742627D01*
X85291443Y-83912466D01*
X85207778Y-84068991D01*
X85178448Y-84104729D01*
X85095186Y-84206186D01*
X84993729Y-84289448D01*
X84957991Y-84318778D01*
X84801466Y-84402443D01*
X84631627Y-84453963D01*
X84565443Y-84460481D01*
X84499260Y-84467000D01*
X84410740Y-84467000D01*
X84344557Y-84460481D01*
X84278373Y-84453963D01*
X84108534Y-84402443D01*
X83952009Y-84318778D01*
X83916271Y-84289448D01*
X83814814Y-84206186D01*
X83731552Y-84104729D01*
X83702222Y-84068991D01*
X83618557Y-83912466D01*
X83567037Y-83742627D01*
X83549641Y-83566000D01*
X83567037Y-83389373D01*
X83618557Y-83219534D01*
X83702222Y-83063009D01*
X83731552Y-83027271D01*
X83814814Y-82925814D01*
X83916271Y-82842552D01*
X83952009Y-82813222D01*
X84108534Y-82729557D01*
X84278373Y-82678037D01*
X84344558Y-82671518D01*
X84410740Y-82665000D01*
X84499260Y-82665000D01*
X84565442Y-82671518D01*
X84565442Y-82671518D01*
G37*
G36*
X84565443Y-80131519D02*
G01*
X84631627Y-80138037D01*
X84801466Y-80189557D01*
X84957991Y-80273222D01*
X84993729Y-80302552D01*
X85095186Y-80385814D01*
X85178448Y-80487271D01*
X85207778Y-80523009D01*
X85291443Y-80679534D01*
X85342963Y-80849373D01*
X85360359Y-81026000D01*
X85342963Y-81202627D01*
X85291443Y-81372466D01*
X85207778Y-81528991D01*
X85178448Y-81564729D01*
X85095186Y-81666186D01*
X84993729Y-81749448D01*
X84957991Y-81778778D01*
X84801466Y-81862443D01*
X84631627Y-81913963D01*
X84565442Y-81920482D01*
X84499260Y-81927000D01*
X84410740Y-81927000D01*
X84344558Y-81920482D01*
X84278373Y-81913963D01*
X84108534Y-81862443D01*
X83952009Y-81778778D01*
X83916271Y-81749448D01*
X83814814Y-81666186D01*
X83731552Y-81564729D01*
X83702222Y-81528991D01*
X83618557Y-81372466D01*
X83567037Y-81202627D01*
X83549641Y-81026000D01*
X83567037Y-80849373D01*
X83618557Y-80679534D01*
X83702222Y-80523009D01*
X83731552Y-80487271D01*
X83814814Y-80385814D01*
X83916271Y-80302552D01*
X83952009Y-80273222D01*
X84108534Y-80189557D01*
X84278373Y-80138037D01*
X84344557Y-80131519D01*
X84410740Y-80125000D01*
X84499260Y-80125000D01*
X84565443Y-80131519D01*
X84565443Y-80131519D01*
G37*
G36*
X84565442Y-77591518D02*
G01*
X84631627Y-77598037D01*
X84801466Y-77649557D01*
X84957991Y-77733222D01*
X84993729Y-77762552D01*
X85095186Y-77845814D01*
X85178448Y-77947271D01*
X85207778Y-77983009D01*
X85291443Y-78139534D01*
X85342963Y-78309373D01*
X85360359Y-78486000D01*
X85342963Y-78662627D01*
X85291443Y-78832466D01*
X85207778Y-78988991D01*
X85178448Y-79024729D01*
X85095186Y-79126186D01*
X84993729Y-79209448D01*
X84957991Y-79238778D01*
X84801466Y-79322443D01*
X84631627Y-79373963D01*
X84565442Y-79380482D01*
X84499260Y-79387000D01*
X84410740Y-79387000D01*
X84344558Y-79380482D01*
X84278373Y-79373963D01*
X84108534Y-79322443D01*
X83952009Y-79238778D01*
X83916271Y-79209448D01*
X83814814Y-79126186D01*
X83731552Y-79024729D01*
X83702222Y-78988991D01*
X83618557Y-78832466D01*
X83567037Y-78662627D01*
X83549641Y-78486000D01*
X83567037Y-78309373D01*
X83618557Y-78139534D01*
X83702222Y-77983009D01*
X83731552Y-77947271D01*
X83814814Y-77845814D01*
X83916271Y-77762552D01*
X83952009Y-77733222D01*
X84108534Y-77649557D01*
X84278373Y-77598037D01*
X84344558Y-77591518D01*
X84410740Y-77585000D01*
X84499260Y-77585000D01*
X84565442Y-77591518D01*
X84565442Y-77591518D01*
G37*
G36*
X126935000Y-79056000D02*
G01*
X125033000Y-79056000D01*
X125033000Y-77154000D01*
X126935000Y-77154000D01*
X126935000Y-79056000D01*
X126935000Y-79056000D01*
G37*
G36*
X78672425Y-77167760D02*
G01*
X78672428Y-77167761D01*
X78672429Y-77167761D01*
X78851693Y-77222140D01*
X78851696Y-77222142D01*
X78851697Y-77222142D01*
X79016903Y-77310446D01*
X79161712Y-77429288D01*
X79280554Y-77574097D01*
X79368858Y-77739303D01*
X79368860Y-77739307D01*
X79423239Y-77918571D01*
X79423240Y-77918575D01*
X79441601Y-78105000D01*
X79423240Y-78291425D01*
X79423239Y-78291428D01*
X79423239Y-78291429D01*
X79368860Y-78470693D01*
X79368858Y-78470696D01*
X79368858Y-78470697D01*
X79280554Y-78635903D01*
X79161712Y-78780712D01*
X79016903Y-78899554D01*
X78851697Y-78987858D01*
X78851693Y-78987860D01*
X78672429Y-79042239D01*
X78672428Y-79042239D01*
X78672425Y-79042240D01*
X78532718Y-79056000D01*
X78439282Y-79056000D01*
X78299575Y-79042240D01*
X78299572Y-79042239D01*
X78299571Y-79042239D01*
X78120307Y-78987860D01*
X78120303Y-78987858D01*
X77955097Y-78899554D01*
X77810288Y-78780712D01*
X77691446Y-78635903D01*
X77603142Y-78470697D01*
X77603142Y-78470696D01*
X77603140Y-78470693D01*
X77548761Y-78291429D01*
X77548761Y-78291428D01*
X77548760Y-78291425D01*
X77530399Y-78105000D01*
X77548760Y-77918575D01*
X77548761Y-77918571D01*
X77603140Y-77739307D01*
X77603142Y-77739303D01*
X77691446Y-77574097D01*
X77810288Y-77429288D01*
X77955097Y-77310446D01*
X78120303Y-77222142D01*
X78120304Y-77222142D01*
X78120307Y-77222140D01*
X78299571Y-77167761D01*
X78299572Y-77167761D01*
X78299575Y-77167760D01*
X78439282Y-77154000D01*
X78532718Y-77154000D01*
X78672425Y-77167760D01*
X78672425Y-77167760D01*
G37*
G36*
X103186000Y-78979800D02*
G01*
X101284000Y-78979800D01*
X101284000Y-77077800D01*
X103186000Y-77077800D01*
X103186000Y-78979800D01*
X103186000Y-78979800D01*
G37*
G36*
X85356000Y-76847000D02*
G01*
X83554000Y-76847000D01*
X83554000Y-75045000D01*
X85356000Y-75045000D01*
X85356000Y-76847000D01*
X85356000Y-76847000D01*
G37*
G36*
X102512395Y-74574346D02*
G01*
X102685466Y-74646034D01*
X102685467Y-74646035D01*
X102841227Y-74750110D01*
X102973690Y-74882573D01*
X102973691Y-74882575D01*
X103077766Y-75038334D01*
X103149454Y-75211405D01*
X103186000Y-75395133D01*
X103186000Y-75582467D01*
X103149454Y-75766195D01*
X103077766Y-75939266D01*
X103077765Y-75939267D01*
X102973690Y-76095027D01*
X102841227Y-76227490D01*
X102762818Y-76279881D01*
X102685466Y-76331566D01*
X102512395Y-76403254D01*
X102328667Y-76439800D01*
X102141333Y-76439800D01*
X101957605Y-76403254D01*
X101784534Y-76331566D01*
X101707182Y-76279881D01*
X101628773Y-76227490D01*
X101496310Y-76095027D01*
X101392235Y-75939267D01*
X101392234Y-75939266D01*
X101320546Y-75766195D01*
X101284000Y-75582467D01*
X101284000Y-75395133D01*
X101320546Y-75211405D01*
X101392234Y-75038334D01*
X101496309Y-74882575D01*
X101496310Y-74882573D01*
X101628773Y-74750110D01*
X101784533Y-74646035D01*
X101784534Y-74646034D01*
X101957605Y-74574346D01*
X102141333Y-74537800D01*
X102328667Y-74537800D01*
X102512395Y-74574346D01*
X102512395Y-74574346D01*
G37*
G36*
X79437000Y-73976000D02*
G01*
X77535000Y-73976000D01*
X77535000Y-72074000D01*
X79437000Y-72074000D01*
X79437000Y-73976000D01*
X79437000Y-73976000D01*
G37*
G36*
X126170425Y-72087760D02*
G01*
X126170428Y-72087761D01*
X126170429Y-72087761D01*
X126349693Y-72142140D01*
X126349696Y-72142142D01*
X126349697Y-72142142D01*
X126514903Y-72230446D01*
X126659712Y-72349288D01*
X126778554Y-72494097D01*
X126866858Y-72659303D01*
X126866860Y-72659307D01*
X126921239Y-72838571D01*
X126921240Y-72838575D01*
X126939601Y-73025000D01*
X126921240Y-73211425D01*
X126921239Y-73211428D01*
X126921239Y-73211429D01*
X126866860Y-73390693D01*
X126866858Y-73390696D01*
X126866858Y-73390697D01*
X126778554Y-73555903D01*
X126659712Y-73700712D01*
X126514903Y-73819554D01*
X126349697Y-73907858D01*
X126349693Y-73907860D01*
X126170429Y-73962239D01*
X126170428Y-73962239D01*
X126170425Y-73962240D01*
X126030718Y-73976000D01*
X125937282Y-73976000D01*
X125797575Y-73962240D01*
X125797572Y-73962239D01*
X125797571Y-73962239D01*
X125618307Y-73907860D01*
X125618303Y-73907858D01*
X125453097Y-73819554D01*
X125308288Y-73700712D01*
X125189446Y-73555903D01*
X125101142Y-73390697D01*
X125101142Y-73390696D01*
X125101140Y-73390693D01*
X125046761Y-73211429D01*
X125046761Y-73211428D01*
X125046760Y-73211425D01*
X125028399Y-73025000D01*
X125046760Y-72838575D01*
X125046761Y-72838571D01*
X125101140Y-72659307D01*
X125101142Y-72659303D01*
X125189446Y-72494097D01*
X125308288Y-72349288D01*
X125453097Y-72230446D01*
X125618303Y-72142142D01*
X125618304Y-72142142D01*
X125618307Y-72142140D01*
X125797571Y-72087761D01*
X125797572Y-72087761D01*
X125797575Y-72087760D01*
X125937282Y-72074000D01*
X126030718Y-72074000D01*
X126170425Y-72087760D01*
X126170425Y-72087760D01*
G37*
G36*
X102512395Y-72034346D02*
G01*
X102685466Y-72106034D01*
X102685467Y-72106035D01*
X102841227Y-72210110D01*
X102973690Y-72342573D01*
X103026081Y-72420982D01*
X103077766Y-72498334D01*
X103149454Y-72671405D01*
X103186000Y-72855133D01*
X103186000Y-73042467D01*
X103149454Y-73226195D01*
X103077766Y-73399266D01*
X103077765Y-73399267D01*
X102973690Y-73555027D01*
X102841227Y-73687490D01*
X102762818Y-73739881D01*
X102685466Y-73791566D01*
X102512395Y-73863254D01*
X102328667Y-73899800D01*
X102141333Y-73899800D01*
X101957605Y-73863254D01*
X101784534Y-73791566D01*
X101707182Y-73739881D01*
X101628773Y-73687490D01*
X101496310Y-73555027D01*
X101392235Y-73399267D01*
X101392234Y-73399266D01*
X101320546Y-73226195D01*
X101284000Y-73042467D01*
X101284000Y-72855133D01*
X101320546Y-72671405D01*
X101392234Y-72498334D01*
X101443919Y-72420982D01*
X101496310Y-72342573D01*
X101628773Y-72210110D01*
X101784533Y-72106035D01*
X101784534Y-72106034D01*
X101957605Y-72034346D01*
X102141333Y-71997800D01*
X102328667Y-71997800D01*
X102512395Y-72034346D01*
X102512395Y-72034346D01*
G37*
G36*
X105964213Y-69640102D02*
G01*
X106035321Y-69647105D01*
X106172172Y-69688619D01*
X106172175Y-69688620D01*
X106298294Y-69756032D01*
X106408843Y-69846757D01*
X106499568Y-69957306D01*
X106566980Y-70083425D01*
X106566981Y-70083428D01*
X106608495Y-70220279D01*
X106622512Y-70362600D01*
X106608495Y-70504921D01*
X106566981Y-70641772D01*
X106566980Y-70641775D01*
X106499568Y-70767894D01*
X106408843Y-70878443D01*
X106298294Y-70969168D01*
X106172175Y-71036580D01*
X106172172Y-71036581D01*
X106035321Y-71078095D01*
X105964213Y-71085098D01*
X105928660Y-71088600D01*
X105857340Y-71088600D01*
X105821787Y-71085098D01*
X105750679Y-71078095D01*
X105613828Y-71036581D01*
X105613825Y-71036580D01*
X105487706Y-70969168D01*
X105377157Y-70878443D01*
X105286432Y-70767894D01*
X105219020Y-70641775D01*
X105219019Y-70641772D01*
X105177505Y-70504921D01*
X105163488Y-70362600D01*
X105177505Y-70220279D01*
X105219019Y-70083428D01*
X105219020Y-70083425D01*
X105286432Y-69957306D01*
X105377157Y-69846757D01*
X105487706Y-69756032D01*
X105613825Y-69688620D01*
X105613828Y-69688619D01*
X105750679Y-69647105D01*
X105821787Y-69640102D01*
X105857340Y-69636600D01*
X105928660Y-69636600D01*
X105964213Y-69640102D01*
X105964213Y-69640102D01*
G37*
G36*
X96884443Y-68955519D02*
G01*
X96950627Y-68962037D01*
X97120466Y-69013557D01*
X97276991Y-69097222D01*
X97312729Y-69126552D01*
X97414186Y-69209814D01*
X97497448Y-69311271D01*
X97526778Y-69347009D01*
X97610443Y-69503534D01*
X97661963Y-69673373D01*
X97679359Y-69850000D01*
X97661963Y-70026627D01*
X97610443Y-70196466D01*
X97526778Y-70352991D01*
X97518892Y-70362600D01*
X97414186Y-70490186D01*
X97312729Y-70573448D01*
X97276991Y-70602778D01*
X97120466Y-70686443D01*
X96950627Y-70737963D01*
X96884443Y-70744481D01*
X96818260Y-70751000D01*
X96729740Y-70751000D01*
X96663557Y-70744481D01*
X96597373Y-70737963D01*
X96427534Y-70686443D01*
X96271009Y-70602778D01*
X96235271Y-70573448D01*
X96133814Y-70490186D01*
X96029108Y-70362600D01*
X96021222Y-70352991D01*
X95937557Y-70196466D01*
X95886037Y-70026627D01*
X95868641Y-69850000D01*
X95886037Y-69673373D01*
X95937557Y-69503534D01*
X96021222Y-69347009D01*
X96050552Y-69311271D01*
X96133814Y-69209814D01*
X96235271Y-69126552D01*
X96271009Y-69097222D01*
X96427534Y-69013557D01*
X96597373Y-68962037D01*
X96663557Y-68955519D01*
X96729740Y-68949000D01*
X96818260Y-68949000D01*
X96884443Y-68955519D01*
X96884443Y-68955519D01*
G37*
G36*
X105964213Y-67640102D02*
G01*
X106035321Y-67647105D01*
X106172172Y-67688619D01*
X106172175Y-67688620D01*
X106298294Y-67756032D01*
X106408843Y-67846757D01*
X106499568Y-67957306D01*
X106566980Y-68083425D01*
X106566981Y-68083428D01*
X106608495Y-68220279D01*
X106622512Y-68362600D01*
X106608495Y-68504921D01*
X106566981Y-68641772D01*
X106566980Y-68641775D01*
X106499568Y-68767894D01*
X106408843Y-68878443D01*
X106298294Y-68969168D01*
X106172175Y-69036580D01*
X106172172Y-69036581D01*
X106035321Y-69078095D01*
X105964213Y-69085098D01*
X105928660Y-69088600D01*
X105857340Y-69088600D01*
X105821787Y-69085098D01*
X105750679Y-69078095D01*
X105613828Y-69036581D01*
X105613825Y-69036580D01*
X105487706Y-68969168D01*
X105377157Y-68878443D01*
X105286432Y-68767894D01*
X105219020Y-68641775D01*
X105219019Y-68641772D01*
X105177505Y-68504921D01*
X105163488Y-68362600D01*
X105177505Y-68220279D01*
X105219019Y-68083428D01*
X105219020Y-68083425D01*
X105286432Y-67957306D01*
X105377157Y-67846757D01*
X105487706Y-67756032D01*
X105613825Y-67688620D01*
X105613828Y-67688619D01*
X105750679Y-67647105D01*
X105821787Y-67640102D01*
X105857340Y-67636600D01*
X105928660Y-67636600D01*
X105964213Y-67640102D01*
X105964213Y-67640102D01*
G37*
G36*
X96884443Y-66415519D02*
G01*
X96950627Y-66422037D01*
X97120466Y-66473557D01*
X97276991Y-66557222D01*
X97312729Y-66586552D01*
X97414186Y-66669814D01*
X97494677Y-66767894D01*
X97526778Y-66807009D01*
X97610443Y-66963534D01*
X97661963Y-67133373D01*
X97679359Y-67310000D01*
X97661963Y-67486627D01*
X97610443Y-67656466D01*
X97526778Y-67812991D01*
X97499067Y-67846757D01*
X97414186Y-67950186D01*
X97312729Y-68033448D01*
X97276991Y-68062778D01*
X97120466Y-68146443D01*
X96950627Y-68197963D01*
X96884443Y-68204481D01*
X96818260Y-68211000D01*
X96729740Y-68211000D01*
X96663557Y-68204481D01*
X96597373Y-68197963D01*
X96427534Y-68146443D01*
X96271009Y-68062778D01*
X96235271Y-68033448D01*
X96133814Y-67950186D01*
X96048933Y-67846757D01*
X96021222Y-67812991D01*
X95937557Y-67656466D01*
X95886037Y-67486627D01*
X95868641Y-67310000D01*
X95886037Y-67133373D01*
X95937557Y-66963534D01*
X96021222Y-66807009D01*
X96053323Y-66767894D01*
X96133814Y-66669814D01*
X96235271Y-66586552D01*
X96271009Y-66557222D01*
X96427534Y-66473557D01*
X96597373Y-66422037D01*
X96663557Y-66415519D01*
X96729740Y-66409000D01*
X96818260Y-66409000D01*
X96884443Y-66415519D01*
X96884443Y-66415519D01*
G37*
G36*
X105964213Y-65640102D02*
G01*
X106035321Y-65647105D01*
X106172172Y-65688619D01*
X106172175Y-65688620D01*
X106298294Y-65756032D01*
X106408843Y-65846757D01*
X106499568Y-65957306D01*
X106566980Y-66083425D01*
X106566981Y-66083428D01*
X106608495Y-66220279D01*
X106622512Y-66362600D01*
X106608495Y-66504921D01*
X106592629Y-66557222D01*
X106566980Y-66641775D01*
X106499568Y-66767894D01*
X106408843Y-66878443D01*
X106298294Y-66969168D01*
X106172175Y-67036580D01*
X106172172Y-67036581D01*
X106035321Y-67078095D01*
X105964213Y-67085098D01*
X105928660Y-67088600D01*
X105857340Y-67088600D01*
X105821787Y-67085098D01*
X105750679Y-67078095D01*
X105613828Y-67036581D01*
X105613825Y-67036580D01*
X105487706Y-66969168D01*
X105377157Y-66878443D01*
X105286432Y-66767894D01*
X105219020Y-66641775D01*
X105193371Y-66557222D01*
X105177505Y-66504921D01*
X105163488Y-66362600D01*
X105177505Y-66220279D01*
X105219019Y-66083428D01*
X105219020Y-66083425D01*
X105286432Y-65957306D01*
X105377157Y-65846757D01*
X105487706Y-65756032D01*
X105613825Y-65688620D01*
X105613828Y-65688619D01*
X105750679Y-65647105D01*
X105821787Y-65640102D01*
X105857340Y-65636600D01*
X105928660Y-65636600D01*
X105964213Y-65640102D01*
X105964213Y-65640102D01*
G37*
G36*
X96884442Y-63875518D02*
G01*
X96950627Y-63882037D01*
X97120466Y-63933557D01*
X97276991Y-64017222D01*
X97312729Y-64046552D01*
X97414186Y-64129814D01*
X97488429Y-64220281D01*
X97526778Y-64267009D01*
X97610443Y-64423534D01*
X97661963Y-64593373D01*
X97679359Y-64770000D01*
X97661963Y-64946627D01*
X97610443Y-65116466D01*
X97526778Y-65272991D01*
X97497448Y-65308729D01*
X97414186Y-65410186D01*
X97312729Y-65493448D01*
X97276991Y-65522778D01*
X97120466Y-65606443D01*
X96950627Y-65657963D01*
X96884442Y-65664482D01*
X96818260Y-65671000D01*
X96729740Y-65671000D01*
X96663558Y-65664482D01*
X96597373Y-65657963D01*
X96427534Y-65606443D01*
X96271009Y-65522778D01*
X96235271Y-65493448D01*
X96133814Y-65410186D01*
X96050552Y-65308729D01*
X96021222Y-65272991D01*
X95937557Y-65116466D01*
X95886037Y-64946627D01*
X95868641Y-64770000D01*
X95886037Y-64593373D01*
X95937557Y-64423534D01*
X96021222Y-64267009D01*
X96059571Y-64220281D01*
X96133814Y-64129814D01*
X96235271Y-64046552D01*
X96271009Y-64017222D01*
X96427534Y-63933557D01*
X96597373Y-63882037D01*
X96663558Y-63875518D01*
X96729740Y-63869000D01*
X96818260Y-63869000D01*
X96884442Y-63875518D01*
X96884442Y-63875518D01*
G37*
G36*
X105964213Y-63640102D02*
G01*
X106035321Y-63647105D01*
X106172172Y-63688619D01*
X106172175Y-63688620D01*
X106298294Y-63756032D01*
X106408843Y-63846757D01*
X106499568Y-63957306D01*
X106566980Y-64083425D01*
X106566981Y-64083428D01*
X106608495Y-64220279D01*
X106622512Y-64362600D01*
X106608495Y-64504921D01*
X106581663Y-64593373D01*
X106566980Y-64641775D01*
X106499568Y-64767894D01*
X106408843Y-64878443D01*
X106298294Y-64969168D01*
X106172175Y-65036580D01*
X106172172Y-65036581D01*
X106035321Y-65078095D01*
X105964213Y-65085098D01*
X105928660Y-65088600D01*
X105857340Y-65088600D01*
X105821787Y-65085098D01*
X105750679Y-65078095D01*
X105613828Y-65036581D01*
X105613825Y-65036580D01*
X105487706Y-64969168D01*
X105377157Y-64878443D01*
X105286432Y-64767894D01*
X105219020Y-64641775D01*
X105204337Y-64593373D01*
X105177505Y-64504921D01*
X105163488Y-64362600D01*
X105177505Y-64220279D01*
X105219019Y-64083428D01*
X105219020Y-64083425D01*
X105286432Y-63957306D01*
X105377157Y-63846757D01*
X105487706Y-63756032D01*
X105613825Y-63688620D01*
X105613828Y-63688619D01*
X105750679Y-63647105D01*
X105821787Y-63640102D01*
X105857340Y-63636600D01*
X105928660Y-63636600D01*
X105964213Y-63640102D01*
X105964213Y-63640102D01*
G37*
G36*
X96884443Y-61335519D02*
G01*
X96950627Y-61342037D01*
X97120466Y-61393557D01*
X97276991Y-61477222D01*
X97312729Y-61506552D01*
X97414186Y-61589814D01*
X97495272Y-61688619D01*
X97526778Y-61727009D01*
X97610443Y-61883534D01*
X97661963Y-62053373D01*
X97679359Y-62230000D01*
X97661963Y-62406627D01*
X97610443Y-62576466D01*
X97526778Y-62732991D01*
X97498134Y-62767894D01*
X97414186Y-62870186D01*
X97312729Y-62953448D01*
X97276991Y-62982778D01*
X97120466Y-63066443D01*
X96950627Y-63117963D01*
X96884443Y-63124481D01*
X96818260Y-63131000D01*
X96729740Y-63131000D01*
X96663557Y-63124481D01*
X96597373Y-63117963D01*
X96427534Y-63066443D01*
X96271009Y-62982778D01*
X96235271Y-62953448D01*
X96133814Y-62870186D01*
X96049866Y-62767894D01*
X96021222Y-62732991D01*
X95937557Y-62576466D01*
X95886037Y-62406627D01*
X95868641Y-62230000D01*
X95886037Y-62053373D01*
X95937557Y-61883534D01*
X96021222Y-61727009D01*
X96052728Y-61688619D01*
X96133814Y-61589814D01*
X96235271Y-61506552D01*
X96271009Y-61477222D01*
X96427534Y-61393557D01*
X96597373Y-61342037D01*
X96663557Y-61335519D01*
X96729740Y-61329000D01*
X96818260Y-61329000D01*
X96884443Y-61335519D01*
X96884443Y-61335519D01*
G37*
G36*
X105964213Y-61640102D02*
G01*
X106035321Y-61647105D01*
X106172172Y-61688619D01*
X106172175Y-61688620D01*
X106298294Y-61756032D01*
X106408843Y-61846757D01*
X106499568Y-61957306D01*
X106566980Y-62083425D01*
X106566981Y-62083428D01*
X106608495Y-62220279D01*
X106622512Y-62362600D01*
X106608495Y-62504921D01*
X106586791Y-62576468D01*
X106566980Y-62641775D01*
X106499568Y-62767894D01*
X106408843Y-62878443D01*
X106298294Y-62969168D01*
X106172175Y-63036580D01*
X106172172Y-63036581D01*
X106035321Y-63078095D01*
X105964213Y-63085098D01*
X105928660Y-63088600D01*
X105857340Y-63088600D01*
X105821787Y-63085098D01*
X105750679Y-63078095D01*
X105613828Y-63036581D01*
X105613825Y-63036580D01*
X105487706Y-62969168D01*
X105377157Y-62878443D01*
X105286432Y-62767894D01*
X105219020Y-62641775D01*
X105199209Y-62576468D01*
X105177505Y-62504921D01*
X105163488Y-62362600D01*
X105177505Y-62220279D01*
X105219019Y-62083428D01*
X105219020Y-62083425D01*
X105286432Y-61957306D01*
X105377157Y-61846757D01*
X105487706Y-61756032D01*
X105613825Y-61688620D01*
X105613828Y-61688619D01*
X105750679Y-61647105D01*
X105821787Y-61640102D01*
X105857340Y-61636600D01*
X105928660Y-61636600D01*
X105964213Y-61640102D01*
X105964213Y-61640102D01*
G37*
G36*
X105964213Y-59640102D02*
G01*
X106035321Y-59647105D01*
X106172172Y-59688619D01*
X106172175Y-59688620D01*
X106298294Y-59756032D01*
X106408843Y-59846757D01*
X106499568Y-59957306D01*
X106566980Y-60083425D01*
X106566981Y-60083428D01*
X106608495Y-60220279D01*
X106622512Y-60362600D01*
X106608495Y-60504921D01*
X106566981Y-60641772D01*
X106566980Y-60641775D01*
X106499568Y-60767894D01*
X106408843Y-60878443D01*
X106298294Y-60969168D01*
X106172175Y-61036580D01*
X106172172Y-61036581D01*
X106035321Y-61078095D01*
X105964213Y-61085098D01*
X105928660Y-61088600D01*
X105857340Y-61088600D01*
X105821787Y-61085098D01*
X105750679Y-61078095D01*
X105613828Y-61036581D01*
X105613825Y-61036580D01*
X105487706Y-60969168D01*
X105377157Y-60878443D01*
X105286432Y-60767894D01*
X105219020Y-60641775D01*
X105219019Y-60641772D01*
X105177505Y-60504921D01*
X105163488Y-60362600D01*
X105177505Y-60220279D01*
X105219019Y-60083428D01*
X105219020Y-60083425D01*
X105286432Y-59957306D01*
X105377157Y-59846757D01*
X105487706Y-59756032D01*
X105613825Y-59688620D01*
X105613828Y-59688619D01*
X105750679Y-59647105D01*
X105821787Y-59640102D01*
X105857340Y-59636600D01*
X105928660Y-59636600D01*
X105964213Y-59640102D01*
X105964213Y-59640102D01*
G37*
G36*
X96884442Y-58795518D02*
G01*
X96950627Y-58802037D01*
X97120466Y-58853557D01*
X97276991Y-58937222D01*
X97312729Y-58966552D01*
X97414186Y-59049814D01*
X97497448Y-59151271D01*
X97526778Y-59187009D01*
X97610443Y-59343534D01*
X97661963Y-59513373D01*
X97679359Y-59690000D01*
X97661963Y-59866627D01*
X97610443Y-60036466D01*
X97526778Y-60192991D01*
X97497448Y-60228729D01*
X97414186Y-60330186D01*
X97312729Y-60413448D01*
X97276991Y-60442778D01*
X97120466Y-60526443D01*
X96950627Y-60577963D01*
X96884443Y-60584481D01*
X96818260Y-60591000D01*
X96729740Y-60591000D01*
X96663557Y-60584481D01*
X96597373Y-60577963D01*
X96427534Y-60526443D01*
X96271009Y-60442778D01*
X96235271Y-60413448D01*
X96133814Y-60330186D01*
X96050552Y-60228729D01*
X96021222Y-60192991D01*
X95937557Y-60036466D01*
X95886037Y-59866627D01*
X95868641Y-59690000D01*
X95886037Y-59513373D01*
X95937557Y-59343534D01*
X96021222Y-59187009D01*
X96050552Y-59151271D01*
X96133814Y-59049814D01*
X96235271Y-58966552D01*
X96271009Y-58937222D01*
X96427534Y-58853557D01*
X96597373Y-58802037D01*
X96663558Y-58795518D01*
X96729740Y-58789000D01*
X96818260Y-58789000D01*
X96884442Y-58795518D01*
X96884442Y-58795518D01*
G37*
G36*
X105964213Y-57640102D02*
G01*
X106035321Y-57647105D01*
X106172172Y-57688619D01*
X106172175Y-57688620D01*
X106298294Y-57756032D01*
X106408843Y-57846757D01*
X106499568Y-57957306D01*
X106566980Y-58083425D01*
X106566981Y-58083428D01*
X106608495Y-58220279D01*
X106622512Y-58362600D01*
X106608495Y-58504921D01*
X106566981Y-58641772D01*
X106566980Y-58641775D01*
X106499568Y-58767894D01*
X106408843Y-58878443D01*
X106298294Y-58969168D01*
X106172175Y-59036580D01*
X106172172Y-59036581D01*
X106035321Y-59078095D01*
X105964213Y-59085098D01*
X105928660Y-59088600D01*
X105857340Y-59088600D01*
X105821787Y-59085098D01*
X105750679Y-59078095D01*
X105613828Y-59036581D01*
X105613825Y-59036580D01*
X105487706Y-58969168D01*
X105377157Y-58878443D01*
X105286432Y-58767894D01*
X105219020Y-58641775D01*
X105219019Y-58641772D01*
X105177505Y-58504921D01*
X105163488Y-58362600D01*
X105177505Y-58220279D01*
X105219019Y-58083428D01*
X105219020Y-58083425D01*
X105286432Y-57957306D01*
X105377157Y-57846757D01*
X105487706Y-57756032D01*
X105613825Y-57688620D01*
X105613828Y-57688619D01*
X105750679Y-57647105D01*
X105821787Y-57640102D01*
X105857340Y-57636600D01*
X105928660Y-57636600D01*
X105964213Y-57640102D01*
X105964213Y-57640102D01*
G37*
G36*
X97675000Y-58051000D02*
G01*
X95873000Y-58051000D01*
X95873000Y-56249000D01*
X97675000Y-56249000D01*
X97675000Y-58051000D01*
X97675000Y-58051000D01*
G37*
G36*
X106619000Y-57088600D02*
G01*
X105167000Y-57088600D01*
X105167000Y-55636600D01*
X106619000Y-55636600D01*
X106619000Y-57088600D01*
X106619000Y-57088600D01*
G37*
M02*
