G04 #@! TF.GenerationSoftware,KiCad,Pcbnew,(5.1.4)-1*
G04 #@! TF.CreationDate,2019-09-20T08:24:21+02:00*
G04 #@! TF.ProjectId,hb-rc-2-pbu-led,68622d72-632d-4322-9d70-62752d6c6564,rev?*
G04 #@! TF.SameCoordinates,Original*
G04 #@! TF.FileFunction,Copper,L2,Bot*
G04 #@! TF.FilePolarity,Positive*
%FSLAX46Y46*%
G04 Gerber Fmt 4.6, Leading zero omitted, Abs format (unit mm)*
G04 Created by KiCad (PCBNEW (5.1.4)-1) date 2019-09-20 08:24:21*
%MOMM*%
%LPD*%
G04 APERTURE LIST*
%ADD10O,1.800000X1.800000*%
%ADD11R,1.800000X1.800000*%
%ADD12O,1.700000X1.700000*%
%ADD13R,1.700000X1.700000*%
%ADD14O,1.350000X1.350000*%
%ADD15R,1.350000X1.350000*%
%ADD16C,1.800000*%
%ADD17C,0.800000*%
%ADD18C,0.250000*%
%ADD19C,0.254000*%
G04 APERTURE END LIST*
D10*
X125984000Y-73025000D03*
D11*
X125984000Y-78105000D03*
D10*
X78486000Y-78105000D03*
D11*
X78486000Y-73025000D03*
D12*
X96774000Y-69850000D03*
X96774000Y-67310000D03*
X96774000Y-64770000D03*
X96774000Y-62230000D03*
X96774000Y-59690000D03*
D13*
X96774000Y-57150000D03*
D12*
X84455000Y-88646000D03*
X84455000Y-86106000D03*
X84455000Y-83566000D03*
X84455000Y-81026000D03*
X84455000Y-78486000D03*
D13*
X84455000Y-75946000D03*
D14*
X105893000Y-70362600D03*
X105893000Y-68362600D03*
X105893000Y-66362600D03*
X105893000Y-64362600D03*
X105893000Y-62362600D03*
X105893000Y-60362600D03*
X105893000Y-58362600D03*
D15*
X105893000Y-56362600D03*
D16*
X102235000Y-72948800D03*
X102235000Y-75488800D03*
D11*
X102235000Y-78028800D03*
D17*
X84912200Y-66573400D03*
X89027000Y-62255400D03*
X92100400Y-58597800D03*
X86893400Y-58242200D03*
X108280200Y-54102000D03*
X110972600Y-66827400D03*
X119862600Y-57937400D03*
X105740200Y-83413600D03*
X93853000Y-76200000D03*
X98409700Y-82815900D03*
X87399100Y-70481500D03*
X92235200Y-69753600D03*
X91854100Y-68301400D03*
X95205000Y-69426300D03*
X90191100Y-58752900D03*
X92203800Y-86140200D03*
X91811200Y-63031700D03*
X90993400Y-65409500D03*
X82840300Y-58210800D03*
D18*
X84455000Y-82978300D02*
X98247300Y-82978300D01*
X98247300Y-82978300D02*
X98409700Y-82815900D01*
X84455000Y-82978300D02*
X84455000Y-82390700D01*
X84455000Y-83566000D02*
X84455000Y-82978300D01*
X96774000Y-57150000D02*
X95598700Y-57150000D01*
X95598700Y-57150000D02*
X87399100Y-65349600D01*
X87399100Y-65349600D02*
X87399100Y-70481500D01*
X87399100Y-70481500D02*
X83279700Y-74600900D01*
X83279700Y-74600900D02*
X83279700Y-81582800D01*
X83279700Y-81582800D02*
X84087600Y-82390700D01*
X84087600Y-82390700D02*
X84455000Y-82390700D01*
X97949300Y-69293200D02*
X97949300Y-70370900D01*
X97949300Y-70370900D02*
X97278200Y-71042000D01*
X97278200Y-71042000D02*
X93523600Y-71042000D01*
X93523600Y-71042000D02*
X92235200Y-69753600D01*
X96774000Y-68485300D02*
X97141400Y-68485300D01*
X97141400Y-68485300D02*
X97949300Y-69293200D01*
X105893000Y-64362600D02*
X102879900Y-64362600D01*
X102879900Y-64362600D02*
X97949300Y-69293200D01*
X96774000Y-67310000D02*
X96774000Y-68485300D01*
X98015500Y-62362600D02*
X98015500Y-63528500D01*
X98015500Y-63528500D02*
X96774000Y-64770000D01*
X104892700Y-62362600D02*
X98015500Y-62362600D01*
X98015500Y-62362600D02*
X98015500Y-61788100D01*
X98015500Y-61788100D02*
X97277100Y-61049700D01*
X97277100Y-61049700D02*
X96273900Y-61049700D01*
X96273900Y-61049700D02*
X92510000Y-64813600D01*
X92510000Y-64813600D02*
X92510000Y-67645500D01*
X92510000Y-67645500D02*
X91854100Y-68301400D01*
X105893000Y-62362600D02*
X104892700Y-62362600D01*
X96774000Y-62230000D02*
X96774000Y-63405300D01*
X96774000Y-63405300D02*
X96406700Y-63405300D01*
X96406700Y-63405300D02*
X95205000Y-64607000D01*
X95205000Y-64607000D02*
X95205000Y-69426300D01*
X92203800Y-86140200D02*
X90899600Y-84836000D01*
X90899600Y-84836000D02*
X84015600Y-84836000D01*
X84015600Y-84836000D02*
X82816900Y-83637300D01*
X82816900Y-83637300D02*
X82816900Y-66127100D01*
X82816900Y-66127100D02*
X90191100Y-58752900D01*
X91811200Y-63031700D02*
X91811200Y-67318600D01*
X91811200Y-67318600D02*
X90792300Y-68337500D01*
X90792300Y-68337500D02*
X90792300Y-73880700D01*
X90792300Y-73880700D02*
X84822300Y-79850700D01*
X84822300Y-79850700D02*
X84455000Y-79850700D01*
X84455000Y-81026000D02*
X84455000Y-79850700D01*
X84455000Y-78486000D02*
X84455000Y-77310700D01*
X84455000Y-77310700D02*
X85263000Y-77310700D01*
X85263000Y-77310700D02*
X89695800Y-72877900D01*
X89695800Y-72877900D02*
X89695800Y-66707100D01*
X89695800Y-66707100D02*
X90993400Y-65409500D01*
X125984000Y-73025000D02*
X124758700Y-73025000D01*
X124758700Y-73025000D02*
X107071800Y-55338100D01*
X107071800Y-55338100D02*
X85713000Y-55338100D01*
X85713000Y-55338100D02*
X82840300Y-58210800D01*
D19*
G36*
X126340000Y-57083381D02*
G01*
X126340000Y-71528921D01*
X126284913Y-71512210D01*
X126059408Y-71490000D01*
X125908592Y-71490000D01*
X125683087Y-71512210D01*
X125393739Y-71599983D01*
X125127073Y-71742519D01*
X124893339Y-71934339D01*
X124825501Y-72016999D01*
X116733596Y-63925094D01*
X121238508Y-63925094D01*
X121238508Y-64333386D01*
X121318162Y-64733834D01*
X121474409Y-65111047D01*
X121701244Y-65450530D01*
X121989950Y-65739236D01*
X122329433Y-65966071D01*
X122706646Y-66122318D01*
X123107094Y-66201972D01*
X123515386Y-66201972D01*
X123915834Y-66122318D01*
X124293047Y-65966071D01*
X124632530Y-65739236D01*
X124921236Y-65450530D01*
X125148071Y-65111047D01*
X125304318Y-64733834D01*
X125383972Y-64333386D01*
X125383972Y-63925094D01*
X125304318Y-63524646D01*
X125148071Y-63147433D01*
X124921236Y-62807950D01*
X124632530Y-62519244D01*
X124293047Y-62292409D01*
X123915834Y-62136162D01*
X123515386Y-62056508D01*
X123107094Y-62056508D01*
X122706646Y-62136162D01*
X122329433Y-62292409D01*
X121989950Y-62519244D01*
X121701244Y-62807950D01*
X121474409Y-63147433D01*
X121318162Y-63524646D01*
X121238508Y-63925094D01*
X116733596Y-63925094D01*
X107635604Y-54827103D01*
X107611801Y-54798099D01*
X107496076Y-54703126D01*
X107364047Y-54632554D01*
X107220786Y-54589097D01*
X107109133Y-54578100D01*
X107109122Y-54578100D01*
X107071800Y-54574424D01*
X107034478Y-54578100D01*
X85750322Y-54578100D01*
X85712999Y-54574424D01*
X85675676Y-54578100D01*
X85675667Y-54578100D01*
X85564014Y-54589097D01*
X85420753Y-54632554D01*
X85288724Y-54703126D01*
X85172999Y-54798099D01*
X85149201Y-54827097D01*
X82800499Y-57175800D01*
X82738361Y-57175800D01*
X82538402Y-57215574D01*
X82350044Y-57293595D01*
X82180526Y-57406863D01*
X82036363Y-57551026D01*
X81923095Y-57720544D01*
X81845074Y-57908902D01*
X81805300Y-58108861D01*
X81805300Y-58312739D01*
X81845074Y-58512698D01*
X81923095Y-58701056D01*
X82036363Y-58870574D01*
X82180526Y-59014737D01*
X82350044Y-59128005D01*
X82538402Y-59206026D01*
X82738361Y-59245800D01*
X82942239Y-59245800D01*
X83142198Y-59206026D01*
X83330556Y-59128005D01*
X83500074Y-59014737D01*
X83644237Y-58870574D01*
X83757505Y-58701056D01*
X83835526Y-58512698D01*
X83875300Y-58312739D01*
X83875300Y-58250601D01*
X86027802Y-56098100D01*
X95321672Y-56098100D01*
X95298188Y-56175518D01*
X95285928Y-56300000D01*
X95285928Y-56455425D01*
X95174424Y-56515026D01*
X95058699Y-56609999D01*
X95034901Y-56638997D01*
X86888103Y-64785796D01*
X86859099Y-64809599D01*
X86810823Y-64868424D01*
X86764126Y-64925324D01*
X86707493Y-65031276D01*
X86693554Y-65057354D01*
X86650097Y-65200615D01*
X86639100Y-65312268D01*
X86639100Y-65312278D01*
X86635424Y-65349600D01*
X86639100Y-65386923D01*
X86639101Y-69777788D01*
X86595163Y-69821726D01*
X86481895Y-69991244D01*
X86403874Y-70179602D01*
X86364100Y-70379561D01*
X86364100Y-70441698D01*
X83576900Y-73228899D01*
X83576900Y-66441901D01*
X90230902Y-59787900D01*
X90293039Y-59787900D01*
X90492998Y-59748126D01*
X90681356Y-59670105D01*
X90850874Y-59556837D01*
X90995037Y-59412674D01*
X91108305Y-59243156D01*
X91186326Y-59054798D01*
X91226100Y-58854839D01*
X91226100Y-58650961D01*
X91186326Y-58451002D01*
X91108305Y-58262644D01*
X90995037Y-58093126D01*
X90850874Y-57948963D01*
X90681356Y-57835695D01*
X90492998Y-57757674D01*
X90293039Y-57717900D01*
X90089161Y-57717900D01*
X89889202Y-57757674D01*
X89700844Y-57835695D01*
X89531326Y-57948963D01*
X89387163Y-58093126D01*
X89273895Y-58262644D01*
X89195874Y-58451002D01*
X89156100Y-58650961D01*
X89156100Y-58713098D01*
X82305898Y-65563301D01*
X82276900Y-65587099D01*
X82253102Y-65616097D01*
X82253101Y-65616098D01*
X82181926Y-65702824D01*
X82111354Y-65834854D01*
X82067898Y-65978115D01*
X82053224Y-66127100D01*
X82056901Y-66164433D01*
X82056900Y-83599978D01*
X82053224Y-83637300D01*
X82056900Y-83674622D01*
X82056900Y-83674632D01*
X82067897Y-83786285D01*
X82111354Y-83929546D01*
X82181926Y-84061576D01*
X82190747Y-84072324D01*
X82276899Y-84177301D01*
X82305903Y-84201104D01*
X83294660Y-85189862D01*
X83183359Y-85339080D01*
X83058175Y-85601901D01*
X83013524Y-85749110D01*
X83134845Y-85979000D01*
X84328000Y-85979000D01*
X84328000Y-85959000D01*
X84582000Y-85959000D01*
X84582000Y-85979000D01*
X85775155Y-85979000D01*
X85896476Y-85749110D01*
X85851825Y-85601901D01*
X85849014Y-85596000D01*
X90584799Y-85596000D01*
X91168800Y-86180002D01*
X91168800Y-86242139D01*
X91208574Y-86442098D01*
X91286595Y-86630456D01*
X91399863Y-86799974D01*
X91544026Y-86944137D01*
X91713544Y-87057405D01*
X91901902Y-87135426D01*
X92101861Y-87175200D01*
X92305739Y-87175200D01*
X92505698Y-87135426D01*
X92694056Y-87057405D01*
X92863574Y-86944137D01*
X93007737Y-86799974D01*
X93121005Y-86630456D01*
X93199026Y-86442098D01*
X93238800Y-86242139D01*
X93238800Y-86038261D01*
X93199026Y-85838302D01*
X93121005Y-85649944D01*
X93007737Y-85480426D01*
X92863574Y-85336263D01*
X92694056Y-85222995D01*
X92505698Y-85144974D01*
X92305739Y-85105200D01*
X92243602Y-85105200D01*
X91463404Y-84325003D01*
X91439601Y-84295999D01*
X91323876Y-84201026D01*
X91191847Y-84130454D01*
X91048586Y-84086997D01*
X90936933Y-84076000D01*
X90936922Y-84076000D01*
X90899600Y-84072324D01*
X90862278Y-84076000D01*
X85852114Y-84076000D01*
X85918513Y-83857111D01*
X85930215Y-83738300D01*
X97931986Y-83738300D01*
X98107802Y-83811126D01*
X98307761Y-83850900D01*
X98511639Y-83850900D01*
X98711598Y-83811126D01*
X98899956Y-83733105D01*
X99069474Y-83619837D01*
X99213637Y-83475674D01*
X99326905Y-83306156D01*
X99404926Y-83117798D01*
X99444700Y-82917839D01*
X99444700Y-82713961D01*
X99404926Y-82514002D01*
X99326905Y-82325644D01*
X99213637Y-82156126D01*
X99069474Y-82011963D01*
X98899956Y-81898695D01*
X98711598Y-81820674D01*
X98511639Y-81780900D01*
X98307761Y-81780900D01*
X98107802Y-81820674D01*
X97919444Y-81898695D01*
X97749926Y-82011963D01*
X97605763Y-82156126D01*
X97564220Y-82218300D01*
X85342997Y-82218300D01*
X85510134Y-82081134D01*
X85695706Y-81855014D01*
X85833599Y-81597034D01*
X85918513Y-81317111D01*
X85947185Y-81026000D01*
X85918513Y-80734889D01*
X85833599Y-80454966D01*
X85695706Y-80196986D01*
X85630396Y-80117405D01*
X90192448Y-75555353D01*
X100694009Y-75555353D01*
X100736603Y-75854707D01*
X100836778Y-76139999D01*
X100916739Y-76289592D01*
X101170918Y-76373274D01*
X101054970Y-76489222D01*
X101101735Y-76535987D01*
X101090820Y-76539298D01*
X100980506Y-76598263D01*
X100883815Y-76677615D01*
X100804463Y-76774306D01*
X100745498Y-76884620D01*
X100709188Y-77004318D01*
X100696928Y-77128800D01*
X100696928Y-78928800D01*
X100709188Y-79053282D01*
X100745498Y-79172980D01*
X100804463Y-79283294D01*
X100883815Y-79379985D01*
X100980506Y-79459337D01*
X101090820Y-79518302D01*
X101210518Y-79554612D01*
X101335000Y-79566872D01*
X103135000Y-79566872D01*
X103259482Y-79554612D01*
X103379180Y-79518302D01*
X103489494Y-79459337D01*
X103586185Y-79379985D01*
X103665537Y-79283294D01*
X103724502Y-79172980D01*
X103760812Y-79053282D01*
X103765567Y-79005000D01*
X124445928Y-79005000D01*
X124458188Y-79129482D01*
X124494498Y-79249180D01*
X124553463Y-79359494D01*
X124632815Y-79456185D01*
X124729506Y-79535537D01*
X124839820Y-79594502D01*
X124959518Y-79630812D01*
X125084000Y-79643072D01*
X125698250Y-79640000D01*
X125857000Y-79481250D01*
X125857000Y-78232000D01*
X124607750Y-78232000D01*
X124449000Y-78390750D01*
X124445928Y-79005000D01*
X103765567Y-79005000D01*
X103773072Y-78928800D01*
X103773072Y-77205000D01*
X124445928Y-77205000D01*
X124449000Y-77819250D01*
X124607750Y-77978000D01*
X125857000Y-77978000D01*
X125857000Y-76728750D01*
X125698250Y-76570000D01*
X125084000Y-76566928D01*
X124959518Y-76579188D01*
X124839820Y-76615498D01*
X124729506Y-76674463D01*
X124632815Y-76753815D01*
X124553463Y-76850506D01*
X124494498Y-76960820D01*
X124458188Y-77080518D01*
X124445928Y-77205000D01*
X103773072Y-77205000D01*
X103773072Y-77128800D01*
X103760812Y-77004318D01*
X103724502Y-76884620D01*
X103665537Y-76774306D01*
X103586185Y-76677615D01*
X103489494Y-76598263D01*
X103379180Y-76539298D01*
X103368265Y-76535987D01*
X103415030Y-76489222D01*
X103299082Y-76373274D01*
X103553261Y-76289592D01*
X103684158Y-76017025D01*
X103759365Y-75724158D01*
X103775991Y-75422247D01*
X103733397Y-75122893D01*
X103633222Y-74837601D01*
X103553261Y-74688008D01*
X103299080Y-74604325D01*
X102414605Y-75488800D01*
X102428748Y-75502943D01*
X102249143Y-75682548D01*
X102235000Y-75668405D01*
X102220858Y-75682548D01*
X102041253Y-75502943D01*
X102055395Y-75488800D01*
X101170920Y-74604325D01*
X100916739Y-74688008D01*
X100785842Y-74960575D01*
X100710635Y-75253442D01*
X100694009Y-75555353D01*
X90192448Y-75555353D01*
X91303303Y-74444499D01*
X91332301Y-74420701D01*
X91368834Y-74376185D01*
X91427274Y-74304977D01*
X91497846Y-74172947D01*
X91515223Y-74115661D01*
X91541303Y-74029686D01*
X91552300Y-73918033D01*
X91552300Y-73918023D01*
X91555976Y-73880700D01*
X91552300Y-73843377D01*
X91552300Y-72797616D01*
X100700000Y-72797616D01*
X100700000Y-73099984D01*
X100758989Y-73396543D01*
X100874701Y-73675895D01*
X101042688Y-73927305D01*
X101256495Y-74141112D01*
X101410105Y-74243751D01*
X101350525Y-74424720D01*
X102235000Y-75309195D01*
X103119475Y-74424720D01*
X103059895Y-74243751D01*
X103213505Y-74141112D01*
X103427312Y-73927305D01*
X103595299Y-73675895D01*
X103711011Y-73396543D01*
X103770000Y-73099984D01*
X103770000Y-72797616D01*
X103711011Y-72501057D01*
X103595299Y-72221705D01*
X103427312Y-71970295D01*
X103213505Y-71756488D01*
X102962095Y-71588501D01*
X102682743Y-71472789D01*
X102386184Y-71413800D01*
X102083816Y-71413800D01*
X101787257Y-71472789D01*
X101507905Y-71588501D01*
X101256495Y-71756488D01*
X101042688Y-71970295D01*
X100874701Y-72221705D01*
X100758989Y-72501057D01*
X100700000Y-72797616D01*
X91552300Y-72797616D01*
X91552300Y-70534411D01*
X91575426Y-70557537D01*
X91744944Y-70670805D01*
X91933302Y-70748826D01*
X92133261Y-70788600D01*
X92195399Y-70788600D01*
X92959801Y-71553003D01*
X92983599Y-71582001D01*
X93099324Y-71676974D01*
X93231353Y-71747546D01*
X93374614Y-71791003D01*
X93486267Y-71802000D01*
X93486275Y-71802000D01*
X93523600Y-71805676D01*
X93560925Y-71802000D01*
X97240878Y-71802000D01*
X97278200Y-71805676D01*
X97315522Y-71802000D01*
X97315533Y-71802000D01*
X97427186Y-71791003D01*
X97570447Y-71747546D01*
X97702476Y-71676974D01*
X97818201Y-71582001D01*
X97842003Y-71552998D01*
X98460302Y-70934700D01*
X98489301Y-70910901D01*
X98584274Y-70795176D01*
X98654846Y-70663147D01*
X98698303Y-70519886D01*
X98709300Y-70408233D01*
X98709300Y-70408225D01*
X98712976Y-70370900D01*
X98709300Y-70333575D01*
X98709300Y-69608001D01*
X103194703Y-65122600D01*
X104822044Y-65122600D01*
X104962208Y-65293392D01*
X105046539Y-65362600D01*
X104962208Y-65431808D01*
X104798505Y-65631282D01*
X104676862Y-65858859D01*
X104601955Y-66105795D01*
X104576662Y-66362600D01*
X104601955Y-66619405D01*
X104676862Y-66866341D01*
X104798505Y-67093918D01*
X104962208Y-67293392D01*
X105046539Y-67362600D01*
X104962208Y-67431808D01*
X104798505Y-67631282D01*
X104676862Y-67858859D01*
X104601955Y-68105795D01*
X104576662Y-68362600D01*
X104601955Y-68619405D01*
X104676862Y-68866341D01*
X104798505Y-69093918D01*
X104962208Y-69293392D01*
X105046539Y-69362600D01*
X104962208Y-69431808D01*
X104798505Y-69631282D01*
X104676862Y-69858859D01*
X104601955Y-70105795D01*
X104576662Y-70362600D01*
X104601955Y-70619405D01*
X104676862Y-70866341D01*
X104798505Y-71093918D01*
X104962208Y-71293392D01*
X105161682Y-71457095D01*
X105389259Y-71578738D01*
X105636195Y-71653645D01*
X105828649Y-71672600D01*
X105957351Y-71672600D01*
X106149805Y-71653645D01*
X106396741Y-71578738D01*
X106624318Y-71457095D01*
X106823792Y-71293392D01*
X106987495Y-71093918D01*
X107109138Y-70866341D01*
X107184045Y-70619405D01*
X107209338Y-70362600D01*
X107184045Y-70105795D01*
X107109138Y-69858859D01*
X106987495Y-69631282D01*
X106823792Y-69431808D01*
X106739461Y-69362600D01*
X106823792Y-69293392D01*
X106987495Y-69093918D01*
X107109138Y-68866341D01*
X107184045Y-68619405D01*
X107209338Y-68362600D01*
X107184045Y-68105795D01*
X107109138Y-67858859D01*
X106987495Y-67631282D01*
X106823792Y-67431808D01*
X106739461Y-67362600D01*
X106823792Y-67293392D01*
X106987495Y-67093918D01*
X107109138Y-66866341D01*
X107184045Y-66619405D01*
X107209338Y-66362600D01*
X107184045Y-66105795D01*
X107109138Y-65858859D01*
X106987495Y-65631282D01*
X106823792Y-65431808D01*
X106739461Y-65362600D01*
X106823792Y-65293392D01*
X106987495Y-65093918D01*
X107109138Y-64866341D01*
X107184045Y-64619405D01*
X107209338Y-64362600D01*
X107184045Y-64105795D01*
X107109138Y-63858859D01*
X106987495Y-63631282D01*
X106823792Y-63431808D01*
X106739461Y-63362600D01*
X106823792Y-63293392D01*
X106987495Y-63093918D01*
X107109138Y-62866341D01*
X107184045Y-62619405D01*
X107209338Y-62362600D01*
X107184045Y-62105795D01*
X107109138Y-61858859D01*
X106987495Y-61631282D01*
X106823792Y-61431808D01*
X106739461Y-61362600D01*
X106823792Y-61293392D01*
X106987495Y-61093918D01*
X107109138Y-60866341D01*
X107184045Y-60619405D01*
X107209338Y-60362600D01*
X107184045Y-60105795D01*
X107109138Y-59858859D01*
X106987495Y-59631282D01*
X106823792Y-59431808D01*
X106735352Y-59359228D01*
X106871303Y-59233827D01*
X107022473Y-59026229D01*
X107130238Y-58793128D01*
X107160910Y-58692000D01*
X107037224Y-58489600D01*
X106020000Y-58489600D01*
X106020000Y-58509600D01*
X105766000Y-58509600D01*
X105766000Y-58489600D01*
X104748776Y-58489600D01*
X104625090Y-58692000D01*
X104655762Y-58793128D01*
X104763527Y-59026229D01*
X104914697Y-59233827D01*
X105050648Y-59359228D01*
X104962208Y-59431808D01*
X104798505Y-59631282D01*
X104676862Y-59858859D01*
X104601955Y-60105795D01*
X104576662Y-60362600D01*
X104601955Y-60619405D01*
X104676862Y-60866341D01*
X104798505Y-61093918D01*
X104962208Y-61293392D01*
X105046539Y-61362600D01*
X104962208Y-61431808D01*
X104822044Y-61602600D01*
X98753427Y-61602600D01*
X98721046Y-61495853D01*
X98650474Y-61363824D01*
X98555501Y-61248099D01*
X98526502Y-61224301D01*
X97923232Y-60621031D01*
X98045641Y-60456920D01*
X98170825Y-60194099D01*
X98215476Y-60046890D01*
X98094155Y-59817000D01*
X96901000Y-59817000D01*
X96901000Y-59837000D01*
X96647000Y-59837000D01*
X96647000Y-59817000D01*
X95453845Y-59817000D01*
X95332524Y-60046890D01*
X95377175Y-60194099D01*
X95502359Y-60456920D01*
X95626049Y-60622748D01*
X92729510Y-63519289D01*
X92806426Y-63333598D01*
X92846200Y-63133639D01*
X92846200Y-62929761D01*
X92806426Y-62729802D01*
X92728405Y-62541444D01*
X92615137Y-62371926D01*
X92470974Y-62227763D01*
X92301456Y-62114495D01*
X92113098Y-62036474D01*
X91913139Y-61996700D01*
X91826801Y-61996700D01*
X95427515Y-58395987D01*
X95472815Y-58451185D01*
X95569506Y-58530537D01*
X95679820Y-58589502D01*
X95760466Y-58613966D01*
X95676412Y-58689731D01*
X95502359Y-58923080D01*
X95377175Y-59185901D01*
X95332524Y-59333110D01*
X95453845Y-59563000D01*
X96647000Y-59563000D01*
X96647000Y-59543000D01*
X96901000Y-59543000D01*
X96901000Y-59563000D01*
X98094155Y-59563000D01*
X98215476Y-59333110D01*
X98170825Y-59185901D01*
X98045641Y-58923080D01*
X97871588Y-58689731D01*
X97787534Y-58613966D01*
X97868180Y-58589502D01*
X97978494Y-58530537D01*
X98075185Y-58451185D01*
X98154537Y-58354494D01*
X98213502Y-58244180D01*
X98249812Y-58124482D01*
X98262072Y-58000000D01*
X98262072Y-56300000D01*
X98249812Y-56175518D01*
X98226328Y-56098100D01*
X104579928Y-56098100D01*
X104579928Y-57037600D01*
X104592188Y-57162082D01*
X104628498Y-57281780D01*
X104687463Y-57392094D01*
X104766815Y-57488785D01*
X104860559Y-57565719D01*
X104763527Y-57698971D01*
X104655762Y-57932072D01*
X104625090Y-58033200D01*
X104748776Y-58235600D01*
X105766000Y-58235600D01*
X105766000Y-58215600D01*
X106020000Y-58215600D01*
X106020000Y-58235600D01*
X107037224Y-58235600D01*
X107160910Y-58033200D01*
X107130238Y-57932072D01*
X107022473Y-57698971D01*
X106925441Y-57565719D01*
X107019185Y-57488785D01*
X107098537Y-57392094D01*
X107157502Y-57281780D01*
X107193812Y-57162082D01*
X107206072Y-57037600D01*
X107206072Y-56547173D01*
X124194901Y-73536003D01*
X124218699Y-73565001D01*
X124334424Y-73659974D01*
X124466453Y-73730546D01*
X124609714Y-73774003D01*
X124645728Y-73777550D01*
X124701519Y-73881927D01*
X124893339Y-74115661D01*
X125127073Y-74307481D01*
X125393739Y-74450017D01*
X125683087Y-74537790D01*
X125908592Y-74560000D01*
X126059408Y-74560000D01*
X126284913Y-74537790D01*
X126340000Y-74521079D01*
X126340001Y-76569649D01*
X126269750Y-76570000D01*
X126111000Y-76728750D01*
X126111000Y-77978000D01*
X126131000Y-77978000D01*
X126131000Y-78232000D01*
X126111000Y-78232000D01*
X126111000Y-79481250D01*
X126269750Y-79640000D01*
X126340001Y-79640351D01*
X126340001Y-93735975D01*
X122907168Y-97340000D01*
X81562833Y-97340000D01*
X78130000Y-93735977D01*
X78130000Y-89002890D01*
X83013524Y-89002890D01*
X83058175Y-89150099D01*
X83183359Y-89412920D01*
X83357412Y-89646269D01*
X83573645Y-89841178D01*
X83823748Y-89990157D01*
X84098109Y-90087481D01*
X84328000Y-89966814D01*
X84328000Y-88773000D01*
X84582000Y-88773000D01*
X84582000Y-89966814D01*
X84811891Y-90087481D01*
X85086252Y-89990157D01*
X85336355Y-89841178D01*
X85552588Y-89646269D01*
X85726641Y-89412920D01*
X85851825Y-89150099D01*
X85896476Y-89002890D01*
X85775155Y-88773000D01*
X84582000Y-88773000D01*
X84328000Y-88773000D01*
X83134845Y-88773000D01*
X83013524Y-89002890D01*
X78130000Y-89002890D01*
X78130000Y-86462890D01*
X83013524Y-86462890D01*
X83058175Y-86610099D01*
X83183359Y-86872920D01*
X83357412Y-87106269D01*
X83573645Y-87301178D01*
X83699255Y-87376000D01*
X83573645Y-87450822D01*
X83357412Y-87645731D01*
X83183359Y-87879080D01*
X83058175Y-88141901D01*
X83013524Y-88289110D01*
X83134845Y-88519000D01*
X84328000Y-88519000D01*
X84328000Y-86233000D01*
X84582000Y-86233000D01*
X84582000Y-88519000D01*
X85775155Y-88519000D01*
X85896476Y-88289110D01*
X85851825Y-88141901D01*
X85726641Y-87879080D01*
X85552588Y-87645731D01*
X85336355Y-87450822D01*
X85210745Y-87376000D01*
X85336355Y-87301178D01*
X85552588Y-87106269D01*
X85726641Y-86872920D01*
X85851825Y-86610099D01*
X85896476Y-86462890D01*
X85775155Y-86233000D01*
X84582000Y-86233000D01*
X84328000Y-86233000D01*
X83134845Y-86233000D01*
X83013524Y-86462890D01*
X78130000Y-86462890D01*
X78130000Y-79591600D01*
X78359000Y-79475378D01*
X78359000Y-78232000D01*
X78613000Y-78232000D01*
X78613000Y-79475378D01*
X78850740Y-79596036D01*
X79011107Y-79547394D01*
X79282414Y-79417236D01*
X79523116Y-79236649D01*
X79723962Y-79012573D01*
X79877234Y-78753620D01*
X79977041Y-78469741D01*
X79856992Y-78232000D01*
X78613000Y-78232000D01*
X78359000Y-78232000D01*
X78339000Y-78232000D01*
X78339000Y-77978000D01*
X78359000Y-77978000D01*
X78359000Y-76734622D01*
X78613000Y-76734622D01*
X78613000Y-77978000D01*
X79856992Y-77978000D01*
X79977041Y-77740259D01*
X79877234Y-77456380D01*
X79723962Y-77197427D01*
X79523116Y-76973351D01*
X79282414Y-76792764D01*
X79011107Y-76662606D01*
X78850740Y-76613964D01*
X78613000Y-76734622D01*
X78359000Y-76734622D01*
X78130000Y-76618400D01*
X78130000Y-74563072D01*
X79386000Y-74563072D01*
X79510482Y-74550812D01*
X79630180Y-74514502D01*
X79740494Y-74455537D01*
X79837185Y-74376185D01*
X79916537Y-74279494D01*
X79975502Y-74169180D01*
X80011812Y-74049482D01*
X80024072Y-73925000D01*
X80024072Y-72125000D01*
X80011812Y-72000518D01*
X79975502Y-71880820D01*
X79916537Y-71770506D01*
X79837185Y-71673815D01*
X79740494Y-71594463D01*
X79630180Y-71535498D01*
X79510482Y-71499188D01*
X79386000Y-71486928D01*
X78130000Y-71486928D01*
X78130000Y-57083380D01*
X81553381Y-53660000D01*
X122916620Y-53660000D01*
X126340000Y-57083381D01*
X126340000Y-57083381D01*
G37*
X126340000Y-57083381D02*
X126340000Y-71528921D01*
X126284913Y-71512210D01*
X126059408Y-71490000D01*
X125908592Y-71490000D01*
X125683087Y-71512210D01*
X125393739Y-71599983D01*
X125127073Y-71742519D01*
X124893339Y-71934339D01*
X124825501Y-72016999D01*
X116733596Y-63925094D01*
X121238508Y-63925094D01*
X121238508Y-64333386D01*
X121318162Y-64733834D01*
X121474409Y-65111047D01*
X121701244Y-65450530D01*
X121989950Y-65739236D01*
X122329433Y-65966071D01*
X122706646Y-66122318D01*
X123107094Y-66201972D01*
X123515386Y-66201972D01*
X123915834Y-66122318D01*
X124293047Y-65966071D01*
X124632530Y-65739236D01*
X124921236Y-65450530D01*
X125148071Y-65111047D01*
X125304318Y-64733834D01*
X125383972Y-64333386D01*
X125383972Y-63925094D01*
X125304318Y-63524646D01*
X125148071Y-63147433D01*
X124921236Y-62807950D01*
X124632530Y-62519244D01*
X124293047Y-62292409D01*
X123915834Y-62136162D01*
X123515386Y-62056508D01*
X123107094Y-62056508D01*
X122706646Y-62136162D01*
X122329433Y-62292409D01*
X121989950Y-62519244D01*
X121701244Y-62807950D01*
X121474409Y-63147433D01*
X121318162Y-63524646D01*
X121238508Y-63925094D01*
X116733596Y-63925094D01*
X107635604Y-54827103D01*
X107611801Y-54798099D01*
X107496076Y-54703126D01*
X107364047Y-54632554D01*
X107220786Y-54589097D01*
X107109133Y-54578100D01*
X107109122Y-54578100D01*
X107071800Y-54574424D01*
X107034478Y-54578100D01*
X85750322Y-54578100D01*
X85712999Y-54574424D01*
X85675676Y-54578100D01*
X85675667Y-54578100D01*
X85564014Y-54589097D01*
X85420753Y-54632554D01*
X85288724Y-54703126D01*
X85172999Y-54798099D01*
X85149201Y-54827097D01*
X82800499Y-57175800D01*
X82738361Y-57175800D01*
X82538402Y-57215574D01*
X82350044Y-57293595D01*
X82180526Y-57406863D01*
X82036363Y-57551026D01*
X81923095Y-57720544D01*
X81845074Y-57908902D01*
X81805300Y-58108861D01*
X81805300Y-58312739D01*
X81845074Y-58512698D01*
X81923095Y-58701056D01*
X82036363Y-58870574D01*
X82180526Y-59014737D01*
X82350044Y-59128005D01*
X82538402Y-59206026D01*
X82738361Y-59245800D01*
X82942239Y-59245800D01*
X83142198Y-59206026D01*
X83330556Y-59128005D01*
X83500074Y-59014737D01*
X83644237Y-58870574D01*
X83757505Y-58701056D01*
X83835526Y-58512698D01*
X83875300Y-58312739D01*
X83875300Y-58250601D01*
X86027802Y-56098100D01*
X95321672Y-56098100D01*
X95298188Y-56175518D01*
X95285928Y-56300000D01*
X95285928Y-56455425D01*
X95174424Y-56515026D01*
X95058699Y-56609999D01*
X95034901Y-56638997D01*
X86888103Y-64785796D01*
X86859099Y-64809599D01*
X86810823Y-64868424D01*
X86764126Y-64925324D01*
X86707493Y-65031276D01*
X86693554Y-65057354D01*
X86650097Y-65200615D01*
X86639100Y-65312268D01*
X86639100Y-65312278D01*
X86635424Y-65349600D01*
X86639100Y-65386923D01*
X86639101Y-69777788D01*
X86595163Y-69821726D01*
X86481895Y-69991244D01*
X86403874Y-70179602D01*
X86364100Y-70379561D01*
X86364100Y-70441698D01*
X83576900Y-73228899D01*
X83576900Y-66441901D01*
X90230902Y-59787900D01*
X90293039Y-59787900D01*
X90492998Y-59748126D01*
X90681356Y-59670105D01*
X90850874Y-59556837D01*
X90995037Y-59412674D01*
X91108305Y-59243156D01*
X91186326Y-59054798D01*
X91226100Y-58854839D01*
X91226100Y-58650961D01*
X91186326Y-58451002D01*
X91108305Y-58262644D01*
X90995037Y-58093126D01*
X90850874Y-57948963D01*
X90681356Y-57835695D01*
X90492998Y-57757674D01*
X90293039Y-57717900D01*
X90089161Y-57717900D01*
X89889202Y-57757674D01*
X89700844Y-57835695D01*
X89531326Y-57948963D01*
X89387163Y-58093126D01*
X89273895Y-58262644D01*
X89195874Y-58451002D01*
X89156100Y-58650961D01*
X89156100Y-58713098D01*
X82305898Y-65563301D01*
X82276900Y-65587099D01*
X82253102Y-65616097D01*
X82253101Y-65616098D01*
X82181926Y-65702824D01*
X82111354Y-65834854D01*
X82067898Y-65978115D01*
X82053224Y-66127100D01*
X82056901Y-66164433D01*
X82056900Y-83599978D01*
X82053224Y-83637300D01*
X82056900Y-83674622D01*
X82056900Y-83674632D01*
X82067897Y-83786285D01*
X82111354Y-83929546D01*
X82181926Y-84061576D01*
X82190747Y-84072324D01*
X82276899Y-84177301D01*
X82305903Y-84201104D01*
X83294660Y-85189862D01*
X83183359Y-85339080D01*
X83058175Y-85601901D01*
X83013524Y-85749110D01*
X83134845Y-85979000D01*
X84328000Y-85979000D01*
X84328000Y-85959000D01*
X84582000Y-85959000D01*
X84582000Y-85979000D01*
X85775155Y-85979000D01*
X85896476Y-85749110D01*
X85851825Y-85601901D01*
X85849014Y-85596000D01*
X90584799Y-85596000D01*
X91168800Y-86180002D01*
X91168800Y-86242139D01*
X91208574Y-86442098D01*
X91286595Y-86630456D01*
X91399863Y-86799974D01*
X91544026Y-86944137D01*
X91713544Y-87057405D01*
X91901902Y-87135426D01*
X92101861Y-87175200D01*
X92305739Y-87175200D01*
X92505698Y-87135426D01*
X92694056Y-87057405D01*
X92863574Y-86944137D01*
X93007737Y-86799974D01*
X93121005Y-86630456D01*
X93199026Y-86442098D01*
X93238800Y-86242139D01*
X93238800Y-86038261D01*
X93199026Y-85838302D01*
X93121005Y-85649944D01*
X93007737Y-85480426D01*
X92863574Y-85336263D01*
X92694056Y-85222995D01*
X92505698Y-85144974D01*
X92305739Y-85105200D01*
X92243602Y-85105200D01*
X91463404Y-84325003D01*
X91439601Y-84295999D01*
X91323876Y-84201026D01*
X91191847Y-84130454D01*
X91048586Y-84086997D01*
X90936933Y-84076000D01*
X90936922Y-84076000D01*
X90899600Y-84072324D01*
X90862278Y-84076000D01*
X85852114Y-84076000D01*
X85918513Y-83857111D01*
X85930215Y-83738300D01*
X97931986Y-83738300D01*
X98107802Y-83811126D01*
X98307761Y-83850900D01*
X98511639Y-83850900D01*
X98711598Y-83811126D01*
X98899956Y-83733105D01*
X99069474Y-83619837D01*
X99213637Y-83475674D01*
X99326905Y-83306156D01*
X99404926Y-83117798D01*
X99444700Y-82917839D01*
X99444700Y-82713961D01*
X99404926Y-82514002D01*
X99326905Y-82325644D01*
X99213637Y-82156126D01*
X99069474Y-82011963D01*
X98899956Y-81898695D01*
X98711598Y-81820674D01*
X98511639Y-81780900D01*
X98307761Y-81780900D01*
X98107802Y-81820674D01*
X97919444Y-81898695D01*
X97749926Y-82011963D01*
X97605763Y-82156126D01*
X97564220Y-82218300D01*
X85342997Y-82218300D01*
X85510134Y-82081134D01*
X85695706Y-81855014D01*
X85833599Y-81597034D01*
X85918513Y-81317111D01*
X85947185Y-81026000D01*
X85918513Y-80734889D01*
X85833599Y-80454966D01*
X85695706Y-80196986D01*
X85630396Y-80117405D01*
X90192448Y-75555353D01*
X100694009Y-75555353D01*
X100736603Y-75854707D01*
X100836778Y-76139999D01*
X100916739Y-76289592D01*
X101170918Y-76373274D01*
X101054970Y-76489222D01*
X101101735Y-76535987D01*
X101090820Y-76539298D01*
X100980506Y-76598263D01*
X100883815Y-76677615D01*
X100804463Y-76774306D01*
X100745498Y-76884620D01*
X100709188Y-77004318D01*
X100696928Y-77128800D01*
X100696928Y-78928800D01*
X100709188Y-79053282D01*
X100745498Y-79172980D01*
X100804463Y-79283294D01*
X100883815Y-79379985D01*
X100980506Y-79459337D01*
X101090820Y-79518302D01*
X101210518Y-79554612D01*
X101335000Y-79566872D01*
X103135000Y-79566872D01*
X103259482Y-79554612D01*
X103379180Y-79518302D01*
X103489494Y-79459337D01*
X103586185Y-79379985D01*
X103665537Y-79283294D01*
X103724502Y-79172980D01*
X103760812Y-79053282D01*
X103765567Y-79005000D01*
X124445928Y-79005000D01*
X124458188Y-79129482D01*
X124494498Y-79249180D01*
X124553463Y-79359494D01*
X124632815Y-79456185D01*
X124729506Y-79535537D01*
X124839820Y-79594502D01*
X124959518Y-79630812D01*
X125084000Y-79643072D01*
X125698250Y-79640000D01*
X125857000Y-79481250D01*
X125857000Y-78232000D01*
X124607750Y-78232000D01*
X124449000Y-78390750D01*
X124445928Y-79005000D01*
X103765567Y-79005000D01*
X103773072Y-78928800D01*
X103773072Y-77205000D01*
X124445928Y-77205000D01*
X124449000Y-77819250D01*
X124607750Y-77978000D01*
X125857000Y-77978000D01*
X125857000Y-76728750D01*
X125698250Y-76570000D01*
X125084000Y-76566928D01*
X124959518Y-76579188D01*
X124839820Y-76615498D01*
X124729506Y-76674463D01*
X124632815Y-76753815D01*
X124553463Y-76850506D01*
X124494498Y-76960820D01*
X124458188Y-77080518D01*
X124445928Y-77205000D01*
X103773072Y-77205000D01*
X103773072Y-77128800D01*
X103760812Y-77004318D01*
X103724502Y-76884620D01*
X103665537Y-76774306D01*
X103586185Y-76677615D01*
X103489494Y-76598263D01*
X103379180Y-76539298D01*
X103368265Y-76535987D01*
X103415030Y-76489222D01*
X103299082Y-76373274D01*
X103553261Y-76289592D01*
X103684158Y-76017025D01*
X103759365Y-75724158D01*
X103775991Y-75422247D01*
X103733397Y-75122893D01*
X103633222Y-74837601D01*
X103553261Y-74688008D01*
X103299080Y-74604325D01*
X102414605Y-75488800D01*
X102428748Y-75502943D01*
X102249143Y-75682548D01*
X102235000Y-75668405D01*
X102220858Y-75682548D01*
X102041253Y-75502943D01*
X102055395Y-75488800D01*
X101170920Y-74604325D01*
X100916739Y-74688008D01*
X100785842Y-74960575D01*
X100710635Y-75253442D01*
X100694009Y-75555353D01*
X90192448Y-75555353D01*
X91303303Y-74444499D01*
X91332301Y-74420701D01*
X91368834Y-74376185D01*
X91427274Y-74304977D01*
X91497846Y-74172947D01*
X91515223Y-74115661D01*
X91541303Y-74029686D01*
X91552300Y-73918033D01*
X91552300Y-73918023D01*
X91555976Y-73880700D01*
X91552300Y-73843377D01*
X91552300Y-72797616D01*
X100700000Y-72797616D01*
X100700000Y-73099984D01*
X100758989Y-73396543D01*
X100874701Y-73675895D01*
X101042688Y-73927305D01*
X101256495Y-74141112D01*
X101410105Y-74243751D01*
X101350525Y-74424720D01*
X102235000Y-75309195D01*
X103119475Y-74424720D01*
X103059895Y-74243751D01*
X103213505Y-74141112D01*
X103427312Y-73927305D01*
X103595299Y-73675895D01*
X103711011Y-73396543D01*
X103770000Y-73099984D01*
X103770000Y-72797616D01*
X103711011Y-72501057D01*
X103595299Y-72221705D01*
X103427312Y-71970295D01*
X103213505Y-71756488D01*
X102962095Y-71588501D01*
X102682743Y-71472789D01*
X102386184Y-71413800D01*
X102083816Y-71413800D01*
X101787257Y-71472789D01*
X101507905Y-71588501D01*
X101256495Y-71756488D01*
X101042688Y-71970295D01*
X100874701Y-72221705D01*
X100758989Y-72501057D01*
X100700000Y-72797616D01*
X91552300Y-72797616D01*
X91552300Y-70534411D01*
X91575426Y-70557537D01*
X91744944Y-70670805D01*
X91933302Y-70748826D01*
X92133261Y-70788600D01*
X92195399Y-70788600D01*
X92959801Y-71553003D01*
X92983599Y-71582001D01*
X93099324Y-71676974D01*
X93231353Y-71747546D01*
X93374614Y-71791003D01*
X93486267Y-71802000D01*
X93486275Y-71802000D01*
X93523600Y-71805676D01*
X93560925Y-71802000D01*
X97240878Y-71802000D01*
X97278200Y-71805676D01*
X97315522Y-71802000D01*
X97315533Y-71802000D01*
X97427186Y-71791003D01*
X97570447Y-71747546D01*
X97702476Y-71676974D01*
X97818201Y-71582001D01*
X97842003Y-71552998D01*
X98460302Y-70934700D01*
X98489301Y-70910901D01*
X98584274Y-70795176D01*
X98654846Y-70663147D01*
X98698303Y-70519886D01*
X98709300Y-70408233D01*
X98709300Y-70408225D01*
X98712976Y-70370900D01*
X98709300Y-70333575D01*
X98709300Y-69608001D01*
X103194703Y-65122600D01*
X104822044Y-65122600D01*
X104962208Y-65293392D01*
X105046539Y-65362600D01*
X104962208Y-65431808D01*
X104798505Y-65631282D01*
X104676862Y-65858859D01*
X104601955Y-66105795D01*
X104576662Y-66362600D01*
X104601955Y-66619405D01*
X104676862Y-66866341D01*
X104798505Y-67093918D01*
X104962208Y-67293392D01*
X105046539Y-67362600D01*
X104962208Y-67431808D01*
X104798505Y-67631282D01*
X104676862Y-67858859D01*
X104601955Y-68105795D01*
X104576662Y-68362600D01*
X104601955Y-68619405D01*
X104676862Y-68866341D01*
X104798505Y-69093918D01*
X104962208Y-69293392D01*
X105046539Y-69362600D01*
X104962208Y-69431808D01*
X104798505Y-69631282D01*
X104676862Y-69858859D01*
X104601955Y-70105795D01*
X104576662Y-70362600D01*
X104601955Y-70619405D01*
X104676862Y-70866341D01*
X104798505Y-71093918D01*
X104962208Y-71293392D01*
X105161682Y-71457095D01*
X105389259Y-71578738D01*
X105636195Y-71653645D01*
X105828649Y-71672600D01*
X105957351Y-71672600D01*
X106149805Y-71653645D01*
X106396741Y-71578738D01*
X106624318Y-71457095D01*
X106823792Y-71293392D01*
X106987495Y-71093918D01*
X107109138Y-70866341D01*
X107184045Y-70619405D01*
X107209338Y-70362600D01*
X107184045Y-70105795D01*
X107109138Y-69858859D01*
X106987495Y-69631282D01*
X106823792Y-69431808D01*
X106739461Y-69362600D01*
X106823792Y-69293392D01*
X106987495Y-69093918D01*
X107109138Y-68866341D01*
X107184045Y-68619405D01*
X107209338Y-68362600D01*
X107184045Y-68105795D01*
X107109138Y-67858859D01*
X106987495Y-67631282D01*
X106823792Y-67431808D01*
X106739461Y-67362600D01*
X106823792Y-67293392D01*
X106987495Y-67093918D01*
X107109138Y-66866341D01*
X107184045Y-66619405D01*
X107209338Y-66362600D01*
X107184045Y-66105795D01*
X107109138Y-65858859D01*
X106987495Y-65631282D01*
X106823792Y-65431808D01*
X106739461Y-65362600D01*
X106823792Y-65293392D01*
X106987495Y-65093918D01*
X107109138Y-64866341D01*
X107184045Y-64619405D01*
X107209338Y-64362600D01*
X107184045Y-64105795D01*
X107109138Y-63858859D01*
X106987495Y-63631282D01*
X106823792Y-63431808D01*
X106739461Y-63362600D01*
X106823792Y-63293392D01*
X106987495Y-63093918D01*
X107109138Y-62866341D01*
X107184045Y-62619405D01*
X107209338Y-62362600D01*
X107184045Y-62105795D01*
X107109138Y-61858859D01*
X106987495Y-61631282D01*
X106823792Y-61431808D01*
X106739461Y-61362600D01*
X106823792Y-61293392D01*
X106987495Y-61093918D01*
X107109138Y-60866341D01*
X107184045Y-60619405D01*
X107209338Y-60362600D01*
X107184045Y-60105795D01*
X107109138Y-59858859D01*
X106987495Y-59631282D01*
X106823792Y-59431808D01*
X106735352Y-59359228D01*
X106871303Y-59233827D01*
X107022473Y-59026229D01*
X107130238Y-58793128D01*
X107160910Y-58692000D01*
X107037224Y-58489600D01*
X106020000Y-58489600D01*
X106020000Y-58509600D01*
X105766000Y-58509600D01*
X105766000Y-58489600D01*
X104748776Y-58489600D01*
X104625090Y-58692000D01*
X104655762Y-58793128D01*
X104763527Y-59026229D01*
X104914697Y-59233827D01*
X105050648Y-59359228D01*
X104962208Y-59431808D01*
X104798505Y-59631282D01*
X104676862Y-59858859D01*
X104601955Y-60105795D01*
X104576662Y-60362600D01*
X104601955Y-60619405D01*
X104676862Y-60866341D01*
X104798505Y-61093918D01*
X104962208Y-61293392D01*
X105046539Y-61362600D01*
X104962208Y-61431808D01*
X104822044Y-61602600D01*
X98753427Y-61602600D01*
X98721046Y-61495853D01*
X98650474Y-61363824D01*
X98555501Y-61248099D01*
X98526502Y-61224301D01*
X97923232Y-60621031D01*
X98045641Y-60456920D01*
X98170825Y-60194099D01*
X98215476Y-60046890D01*
X98094155Y-59817000D01*
X96901000Y-59817000D01*
X96901000Y-59837000D01*
X96647000Y-59837000D01*
X96647000Y-59817000D01*
X95453845Y-59817000D01*
X95332524Y-60046890D01*
X95377175Y-60194099D01*
X95502359Y-60456920D01*
X95626049Y-60622748D01*
X92729510Y-63519289D01*
X92806426Y-63333598D01*
X92846200Y-63133639D01*
X92846200Y-62929761D01*
X92806426Y-62729802D01*
X92728405Y-62541444D01*
X92615137Y-62371926D01*
X92470974Y-62227763D01*
X92301456Y-62114495D01*
X92113098Y-62036474D01*
X91913139Y-61996700D01*
X91826801Y-61996700D01*
X95427515Y-58395987D01*
X95472815Y-58451185D01*
X95569506Y-58530537D01*
X95679820Y-58589502D01*
X95760466Y-58613966D01*
X95676412Y-58689731D01*
X95502359Y-58923080D01*
X95377175Y-59185901D01*
X95332524Y-59333110D01*
X95453845Y-59563000D01*
X96647000Y-59563000D01*
X96647000Y-59543000D01*
X96901000Y-59543000D01*
X96901000Y-59563000D01*
X98094155Y-59563000D01*
X98215476Y-59333110D01*
X98170825Y-59185901D01*
X98045641Y-58923080D01*
X97871588Y-58689731D01*
X97787534Y-58613966D01*
X97868180Y-58589502D01*
X97978494Y-58530537D01*
X98075185Y-58451185D01*
X98154537Y-58354494D01*
X98213502Y-58244180D01*
X98249812Y-58124482D01*
X98262072Y-58000000D01*
X98262072Y-56300000D01*
X98249812Y-56175518D01*
X98226328Y-56098100D01*
X104579928Y-56098100D01*
X104579928Y-57037600D01*
X104592188Y-57162082D01*
X104628498Y-57281780D01*
X104687463Y-57392094D01*
X104766815Y-57488785D01*
X104860559Y-57565719D01*
X104763527Y-57698971D01*
X104655762Y-57932072D01*
X104625090Y-58033200D01*
X104748776Y-58235600D01*
X105766000Y-58235600D01*
X105766000Y-58215600D01*
X106020000Y-58215600D01*
X106020000Y-58235600D01*
X107037224Y-58235600D01*
X107160910Y-58033200D01*
X107130238Y-57932072D01*
X107022473Y-57698971D01*
X106925441Y-57565719D01*
X107019185Y-57488785D01*
X107098537Y-57392094D01*
X107157502Y-57281780D01*
X107193812Y-57162082D01*
X107206072Y-57037600D01*
X107206072Y-56547173D01*
X124194901Y-73536003D01*
X124218699Y-73565001D01*
X124334424Y-73659974D01*
X124466453Y-73730546D01*
X124609714Y-73774003D01*
X124645728Y-73777550D01*
X124701519Y-73881927D01*
X124893339Y-74115661D01*
X125127073Y-74307481D01*
X125393739Y-74450017D01*
X125683087Y-74537790D01*
X125908592Y-74560000D01*
X126059408Y-74560000D01*
X126284913Y-74537790D01*
X126340000Y-74521079D01*
X126340001Y-76569649D01*
X126269750Y-76570000D01*
X126111000Y-76728750D01*
X126111000Y-77978000D01*
X126131000Y-77978000D01*
X126131000Y-78232000D01*
X126111000Y-78232000D01*
X126111000Y-79481250D01*
X126269750Y-79640000D01*
X126340001Y-79640351D01*
X126340001Y-93735975D01*
X122907168Y-97340000D01*
X81562833Y-97340000D01*
X78130000Y-93735977D01*
X78130000Y-89002890D01*
X83013524Y-89002890D01*
X83058175Y-89150099D01*
X83183359Y-89412920D01*
X83357412Y-89646269D01*
X83573645Y-89841178D01*
X83823748Y-89990157D01*
X84098109Y-90087481D01*
X84328000Y-89966814D01*
X84328000Y-88773000D01*
X84582000Y-88773000D01*
X84582000Y-89966814D01*
X84811891Y-90087481D01*
X85086252Y-89990157D01*
X85336355Y-89841178D01*
X85552588Y-89646269D01*
X85726641Y-89412920D01*
X85851825Y-89150099D01*
X85896476Y-89002890D01*
X85775155Y-88773000D01*
X84582000Y-88773000D01*
X84328000Y-88773000D01*
X83134845Y-88773000D01*
X83013524Y-89002890D01*
X78130000Y-89002890D01*
X78130000Y-86462890D01*
X83013524Y-86462890D01*
X83058175Y-86610099D01*
X83183359Y-86872920D01*
X83357412Y-87106269D01*
X83573645Y-87301178D01*
X83699255Y-87376000D01*
X83573645Y-87450822D01*
X83357412Y-87645731D01*
X83183359Y-87879080D01*
X83058175Y-88141901D01*
X83013524Y-88289110D01*
X83134845Y-88519000D01*
X84328000Y-88519000D01*
X84328000Y-86233000D01*
X84582000Y-86233000D01*
X84582000Y-88519000D01*
X85775155Y-88519000D01*
X85896476Y-88289110D01*
X85851825Y-88141901D01*
X85726641Y-87879080D01*
X85552588Y-87645731D01*
X85336355Y-87450822D01*
X85210745Y-87376000D01*
X85336355Y-87301178D01*
X85552588Y-87106269D01*
X85726641Y-86872920D01*
X85851825Y-86610099D01*
X85896476Y-86462890D01*
X85775155Y-86233000D01*
X84582000Y-86233000D01*
X84328000Y-86233000D01*
X83134845Y-86233000D01*
X83013524Y-86462890D01*
X78130000Y-86462890D01*
X78130000Y-79591600D01*
X78359000Y-79475378D01*
X78359000Y-78232000D01*
X78613000Y-78232000D01*
X78613000Y-79475378D01*
X78850740Y-79596036D01*
X79011107Y-79547394D01*
X79282414Y-79417236D01*
X79523116Y-79236649D01*
X79723962Y-79012573D01*
X79877234Y-78753620D01*
X79977041Y-78469741D01*
X79856992Y-78232000D01*
X78613000Y-78232000D01*
X78359000Y-78232000D01*
X78339000Y-78232000D01*
X78339000Y-77978000D01*
X78359000Y-77978000D01*
X78359000Y-76734622D01*
X78613000Y-76734622D01*
X78613000Y-77978000D01*
X79856992Y-77978000D01*
X79977041Y-77740259D01*
X79877234Y-77456380D01*
X79723962Y-77197427D01*
X79523116Y-76973351D01*
X79282414Y-76792764D01*
X79011107Y-76662606D01*
X78850740Y-76613964D01*
X78613000Y-76734622D01*
X78359000Y-76734622D01*
X78130000Y-76618400D01*
X78130000Y-74563072D01*
X79386000Y-74563072D01*
X79510482Y-74550812D01*
X79630180Y-74514502D01*
X79740494Y-74455537D01*
X79837185Y-74376185D01*
X79916537Y-74279494D01*
X79975502Y-74169180D01*
X80011812Y-74049482D01*
X80024072Y-73925000D01*
X80024072Y-72125000D01*
X80011812Y-72000518D01*
X79975502Y-71880820D01*
X79916537Y-71770506D01*
X79837185Y-71673815D01*
X79740494Y-71594463D01*
X79630180Y-71535498D01*
X79510482Y-71499188D01*
X79386000Y-71486928D01*
X78130000Y-71486928D01*
X78130000Y-57083380D01*
X81553381Y-53660000D01*
X122916620Y-53660000D01*
X126340000Y-57083381D01*
M02*
