M48
; DRILL file {KiCad (5.1.4)-1} date 10.09.2019 08:34:54
; FORMAT={-:-/ absolute / inch / decimal}
; #@! TF.CreationDate,2019-09-10T08:34:54+02:00
; #@! TF.GenerationSoftware,Kicad,Pcbnew,(5.1.4)-1
; #@! TF.FileFunction,Plated,1,2,PTH
FMAT,2
INCH
T1C0.0157
T2C0.0315
T3C0.0354
T4C0.0394
%
G90
G05
T1
X3.3157Y-2.5134
X3.4018Y-2.4859
X3.4213Y-3.7859
X3.4649Y-2.604
X3.5302Y-2.6363
X3.5695Y-2.1347
X3.5989Y-2.8457
X3.6207Y-2.8073
X3.6436Y-2.5011
X3.6811Y-2.7615
X3.7522Y-3.3888
X4.375Y-2.1346
T2
X4.169Y-2.219
X4.169Y-2.2977
X4.169Y-2.3765
X4.169Y-2.4552
X4.169Y-2.534
X4.169Y-2.6127
X4.169Y-2.6914
X4.169Y-2.7702
T3
X4.025Y-2.872
X4.025Y-2.972
X4.025Y-3.072
T4
X3.325Y-2.99
X3.325Y-3.09
X3.325Y-3.19
X3.325Y-3.29
X3.325Y-3.39
X3.325Y-3.49
X3.7775Y-2.2465
X3.7775Y-2.3465
X3.7775Y-2.4465
X3.7775Y-2.5465
X3.7775Y-2.6465
X3.7775Y-2.7465
X4.96Y-2.875
X4.96Y-3.075
X3.09Y-2.875
X3.09Y-3.075
T0
M30
