G04 #@! TF.GenerationSoftware,KiCad,Pcbnew,(5.1.4-0-10_14)*
G04 #@! TF.CreationDate,2019-09-18T16:42:36+02:00*
G04 #@! TF.ProjectId,hb-rc-2-pbu-led,68622d72-632d-4322-9d70-62752d6c6564,rev?*
G04 #@! TF.SameCoordinates,Original*
G04 #@! TF.FileFunction,Soldermask,Top*
G04 #@! TF.FilePolarity,Negative*
%FSLAX46Y46*%
G04 Gerber Fmt 4.6, Leading zero omitted, Abs format (unit mm)*
G04 Created by KiCad (PCBNEW (5.1.4-0-10_14)) date 2019-09-18 16:42:36*
%MOMM*%
%LPD*%
G04 APERTURE LIST*
%ADD10C,0.100000*%
G04 APERTURE END LIST*
D10*
G36*
X95139000Y-97778900D02*
G01*
X93837000Y-97778900D01*
X93837000Y-94676900D01*
X95139000Y-94676900D01*
X95139000Y-97778900D01*
X95139000Y-97778900D01*
G37*
G36*
X90033600Y-97778900D02*
G01*
X88731600Y-97778900D01*
X88731600Y-94676900D01*
X90033600Y-94676900D01*
X90033600Y-97778900D01*
X90033600Y-97778900D01*
G37*
G36*
X92573600Y-97766200D02*
G01*
X91271600Y-97766200D01*
X91271600Y-94664200D01*
X92573600Y-94664200D01*
X92573600Y-97766200D01*
X92573600Y-97766200D01*
G37*
G36*
X113421000Y-96700000D02*
G01*
X111319000Y-96700000D01*
X111319000Y-95098000D01*
X113421000Y-95098000D01*
X113421000Y-96700000D01*
X113421000Y-96700000D01*
G37*
G36*
X119686564Y-94620389D02*
G01*
X119877833Y-94699615D01*
X119877835Y-94699616D01*
X120049973Y-94814635D01*
X120196365Y-94961027D01*
X120311385Y-95133167D01*
X120390611Y-95324436D01*
X120431000Y-95527484D01*
X120431000Y-95734516D01*
X120390611Y-95937564D01*
X120311385Y-96128833D01*
X120311384Y-96128835D01*
X120196365Y-96300973D01*
X120049973Y-96447365D01*
X119877835Y-96562384D01*
X119877834Y-96562385D01*
X119877833Y-96562385D01*
X119686564Y-96641611D01*
X119483516Y-96682000D01*
X119276484Y-96682000D01*
X119073436Y-96641611D01*
X118882167Y-96562385D01*
X118882166Y-96562385D01*
X118882165Y-96562384D01*
X118710027Y-96447365D01*
X118563635Y-96300973D01*
X118448616Y-96128835D01*
X118448615Y-96128833D01*
X118369389Y-95937564D01*
X118329000Y-95734516D01*
X118329000Y-95527484D01*
X118369389Y-95324436D01*
X118448615Y-95133167D01*
X118563635Y-94961027D01*
X118710027Y-94814635D01*
X118882165Y-94699616D01*
X118882167Y-94699615D01*
X119073436Y-94620389D01*
X119276484Y-94580000D01*
X119483516Y-94580000D01*
X119686564Y-94620389D01*
X119686564Y-94620389D01*
G37*
G36*
X107121000Y-95550000D02*
G01*
X105019000Y-95550000D01*
X105019000Y-91648000D01*
X107121000Y-91648000D01*
X107121000Y-95550000D01*
X107121000Y-95550000D01*
G37*
G36*
X113421000Y-94400000D02*
G01*
X111319000Y-94400000D01*
X111319000Y-92798000D01*
X113421000Y-92798000D01*
X113421000Y-94400000D01*
X113421000Y-94400000D01*
G37*
G36*
X92573600Y-93829200D02*
G01*
X91271600Y-93829200D01*
X91271600Y-90727200D01*
X92573600Y-90727200D01*
X92573600Y-93829200D01*
X92573600Y-93829200D01*
G37*
G36*
X90160600Y-93753000D02*
G01*
X88858600Y-93753000D01*
X88858600Y-90651000D01*
X90160600Y-90651000D01*
X90160600Y-93753000D01*
X90160600Y-93753000D01*
G37*
G36*
X119686564Y-90683389D02*
G01*
X119792333Y-90727200D01*
X119877835Y-90762616D01*
X120049973Y-90877635D01*
X120196365Y-91024027D01*
X120311385Y-91196167D01*
X120390611Y-91387436D01*
X120431000Y-91590484D01*
X120431000Y-91797516D01*
X120390611Y-92000564D01*
X120349423Y-92100000D01*
X120311384Y-92191835D01*
X120196365Y-92363973D01*
X120049973Y-92510365D01*
X119877835Y-92625384D01*
X119877834Y-92625385D01*
X119877833Y-92625385D01*
X119686564Y-92704611D01*
X119483516Y-92745000D01*
X119276484Y-92745000D01*
X119073436Y-92704611D01*
X118882167Y-92625385D01*
X118882166Y-92625385D01*
X118882165Y-92625384D01*
X118710027Y-92510365D01*
X118563635Y-92363973D01*
X118448616Y-92191835D01*
X118410577Y-92100000D01*
X118369389Y-92000564D01*
X118329000Y-91797516D01*
X118329000Y-91590484D01*
X118369389Y-91387436D01*
X118448615Y-91196167D01*
X118563635Y-91024027D01*
X118710027Y-90877635D01*
X118882165Y-90762616D01*
X118967667Y-90727200D01*
X119073436Y-90683389D01*
X119276484Y-90643000D01*
X119483516Y-90643000D01*
X119686564Y-90683389D01*
X119686564Y-90683389D01*
G37*
G36*
X113421000Y-92100000D02*
G01*
X111319000Y-92100000D01*
X111319000Y-90498000D01*
X113421000Y-90498000D01*
X113421000Y-92100000D01*
X113421000Y-92100000D01*
G37*
G36*
X84565442Y-87751518D02*
G01*
X84631627Y-87758037D01*
X84801466Y-87809557D01*
X84957991Y-87893222D01*
X84993729Y-87922552D01*
X85095186Y-88005814D01*
X85169196Y-88095997D01*
X85207778Y-88143009D01*
X85291443Y-88299534D01*
X85342963Y-88469373D01*
X85360359Y-88646000D01*
X85342963Y-88822627D01*
X85291443Y-88992466D01*
X85207778Y-89148991D01*
X85178448Y-89184729D01*
X85095186Y-89286186D01*
X84993729Y-89369448D01*
X84957991Y-89398778D01*
X84801466Y-89482443D01*
X84631627Y-89533963D01*
X84565442Y-89540482D01*
X84499260Y-89547000D01*
X84410740Y-89547000D01*
X84344558Y-89540482D01*
X84278373Y-89533963D01*
X84108534Y-89482443D01*
X83952009Y-89398778D01*
X83916271Y-89369448D01*
X83814814Y-89286186D01*
X83731552Y-89184729D01*
X83702222Y-89148991D01*
X83618557Y-88992466D01*
X83567037Y-88822627D01*
X83549641Y-88646000D01*
X83567037Y-88469373D01*
X83618557Y-88299534D01*
X83702222Y-88143009D01*
X83740804Y-88095997D01*
X83814814Y-88005814D01*
X83916271Y-87922552D01*
X83952009Y-87893222D01*
X84108534Y-87809557D01*
X84278373Y-87758037D01*
X84344558Y-87751518D01*
X84410740Y-87745000D01*
X84499260Y-87745000D01*
X84565442Y-87751518D01*
X84565442Y-87751518D01*
G37*
G36*
X120085997Y-85543051D02*
G01*
X120119652Y-85553261D01*
X120150665Y-85569838D01*
X120177851Y-85592149D01*
X120200162Y-85619335D01*
X120216739Y-85650348D01*
X120226949Y-85684003D01*
X120231000Y-85725138D01*
X120231000Y-88054862D01*
X120226949Y-88095997D01*
X120216739Y-88129652D01*
X120200162Y-88160665D01*
X120177851Y-88187851D01*
X120150665Y-88210162D01*
X120119652Y-88226739D01*
X120085997Y-88236949D01*
X120044862Y-88241000D01*
X118715138Y-88241000D01*
X118674003Y-88236949D01*
X118640348Y-88226739D01*
X118609335Y-88210162D01*
X118582149Y-88187851D01*
X118559838Y-88160665D01*
X118543261Y-88129652D01*
X118533051Y-88095997D01*
X118529000Y-88054862D01*
X118529000Y-85725138D01*
X118533051Y-85684003D01*
X118543261Y-85650348D01*
X118559838Y-85619335D01*
X118582149Y-85592149D01*
X118609335Y-85569838D01*
X118640348Y-85553261D01*
X118674003Y-85543051D01*
X118715138Y-85539000D01*
X120044862Y-85539000D01*
X120085997Y-85543051D01*
X120085997Y-85543051D01*
G37*
G36*
X111322997Y-85543051D02*
G01*
X111356652Y-85553261D01*
X111387665Y-85569838D01*
X111414851Y-85592149D01*
X111437162Y-85619335D01*
X111453739Y-85650348D01*
X111463949Y-85684003D01*
X111468000Y-85725138D01*
X111468000Y-88054862D01*
X111463949Y-88095997D01*
X111453739Y-88129652D01*
X111437162Y-88160665D01*
X111414851Y-88187851D01*
X111387665Y-88210162D01*
X111356652Y-88226739D01*
X111322997Y-88236949D01*
X111281862Y-88241000D01*
X109952138Y-88241000D01*
X109911003Y-88236949D01*
X109877348Y-88226739D01*
X109846335Y-88210162D01*
X109819149Y-88187851D01*
X109796838Y-88160665D01*
X109780261Y-88129652D01*
X109770051Y-88095997D01*
X109766000Y-88054862D01*
X109766000Y-85725138D01*
X109770051Y-85684003D01*
X109780261Y-85650348D01*
X109796838Y-85619335D01*
X109819149Y-85592149D01*
X109846335Y-85569838D01*
X109877348Y-85553261D01*
X109911003Y-85543051D01*
X109952138Y-85539000D01*
X111281862Y-85539000D01*
X111322997Y-85543051D01*
X111322997Y-85543051D01*
G37*
G36*
X84565443Y-85211519D02*
G01*
X84631627Y-85218037D01*
X84801466Y-85269557D01*
X84957991Y-85353222D01*
X84993729Y-85382552D01*
X85095186Y-85465814D01*
X85166951Y-85553261D01*
X85207778Y-85603009D01*
X85291443Y-85759534D01*
X85342963Y-85929373D01*
X85360359Y-86106000D01*
X85342963Y-86282627D01*
X85291443Y-86452466D01*
X85207778Y-86608991D01*
X85178448Y-86644729D01*
X85095186Y-86746186D01*
X84993729Y-86829448D01*
X84957991Y-86858778D01*
X84801466Y-86942443D01*
X84631627Y-86993963D01*
X84565442Y-87000482D01*
X84499260Y-87007000D01*
X84410740Y-87007000D01*
X84344558Y-87000482D01*
X84278373Y-86993963D01*
X84108534Y-86942443D01*
X83952009Y-86858778D01*
X83916271Y-86829448D01*
X83814814Y-86746186D01*
X83731552Y-86644729D01*
X83702222Y-86608991D01*
X83618557Y-86452466D01*
X83567037Y-86282627D01*
X83549641Y-86106000D01*
X83567037Y-85929373D01*
X83618557Y-85759534D01*
X83702222Y-85603009D01*
X83743049Y-85553261D01*
X83814814Y-85465814D01*
X83916271Y-85382552D01*
X83952009Y-85353222D01*
X84108534Y-85269557D01*
X84278373Y-85218037D01*
X84344557Y-85211519D01*
X84410740Y-85205000D01*
X84499260Y-85205000D01*
X84565443Y-85211519D01*
X84565443Y-85211519D01*
G37*
G36*
X105236674Y-84858465D02*
G01*
X105274367Y-84869899D01*
X105309103Y-84888466D01*
X105339548Y-84913452D01*
X105364534Y-84943897D01*
X105383101Y-84978633D01*
X105394535Y-85016326D01*
X105399000Y-85061661D01*
X105399000Y-85898339D01*
X105394535Y-85943674D01*
X105383101Y-85981367D01*
X105364534Y-86016103D01*
X105339548Y-86046548D01*
X105309103Y-86071534D01*
X105274367Y-86090101D01*
X105236674Y-86101535D01*
X105191339Y-86106000D01*
X104104661Y-86106000D01*
X104059326Y-86101535D01*
X104021633Y-86090101D01*
X103986897Y-86071534D01*
X103956452Y-86046548D01*
X103931466Y-86016103D01*
X103912899Y-85981367D01*
X103901465Y-85943674D01*
X103897000Y-85898339D01*
X103897000Y-85061661D01*
X103901465Y-85016326D01*
X103912899Y-84978633D01*
X103931466Y-84943897D01*
X103956452Y-84913452D01*
X103986897Y-84888466D01*
X104021633Y-84869899D01*
X104059326Y-84858465D01*
X104104661Y-84854000D01*
X105191339Y-84854000D01*
X105236674Y-84858465D01*
X105236674Y-84858465D01*
G37*
G36*
X107395674Y-84858465D02*
G01*
X107433367Y-84869899D01*
X107468103Y-84888466D01*
X107498548Y-84913452D01*
X107523534Y-84943897D01*
X107542101Y-84978633D01*
X107553535Y-85016326D01*
X107558000Y-85061661D01*
X107558000Y-85898339D01*
X107553535Y-85943674D01*
X107542101Y-85981367D01*
X107523534Y-86016103D01*
X107498548Y-86046548D01*
X107468103Y-86071534D01*
X107433367Y-86090101D01*
X107395674Y-86101535D01*
X107350339Y-86106000D01*
X106263661Y-86106000D01*
X106218326Y-86101535D01*
X106180633Y-86090101D01*
X106145897Y-86071534D01*
X106115452Y-86046548D01*
X106090466Y-86016103D01*
X106071899Y-85981367D01*
X106060465Y-85943674D01*
X106056000Y-85898339D01*
X106056000Y-85061661D01*
X106060465Y-85016326D01*
X106071899Y-84978633D01*
X106090466Y-84943897D01*
X106115452Y-84913452D01*
X106145897Y-84888466D01*
X106180633Y-84869899D01*
X106218326Y-84858465D01*
X106263661Y-84854000D01*
X107350339Y-84854000D01*
X107395674Y-84858465D01*
X107395674Y-84858465D01*
G37*
G36*
X95915000Y-85400000D02*
G01*
X94753000Y-85400000D01*
X94753000Y-82748000D01*
X95915000Y-82748000D01*
X95915000Y-85400000D01*
X95915000Y-85400000D01*
G37*
G36*
X93715000Y-85400000D02*
G01*
X92553000Y-85400000D01*
X92553000Y-82748000D01*
X93715000Y-82748000D01*
X93715000Y-85400000D01*
X93715000Y-85400000D01*
G37*
G36*
X120085997Y-81943051D02*
G01*
X120119652Y-81953261D01*
X120150665Y-81969838D01*
X120177851Y-81992149D01*
X120200162Y-82019335D01*
X120216739Y-82050348D01*
X120226949Y-82084003D01*
X120231000Y-82125138D01*
X120231000Y-84454862D01*
X120226949Y-84495997D01*
X120216739Y-84529652D01*
X120200162Y-84560665D01*
X120177851Y-84587851D01*
X120150665Y-84610162D01*
X120119652Y-84626739D01*
X120085997Y-84636949D01*
X120044862Y-84641000D01*
X118715138Y-84641000D01*
X118674003Y-84636949D01*
X118640348Y-84626739D01*
X118609335Y-84610162D01*
X118582149Y-84587851D01*
X118559838Y-84560665D01*
X118543261Y-84529652D01*
X118533051Y-84495997D01*
X118529000Y-84454862D01*
X118529000Y-82125138D01*
X118533051Y-82084003D01*
X118543261Y-82050348D01*
X118559838Y-82019335D01*
X118582149Y-81992149D01*
X118609335Y-81969838D01*
X118640348Y-81953261D01*
X118674003Y-81943051D01*
X118715138Y-81939000D01*
X120044862Y-81939000D01*
X120085997Y-81943051D01*
X120085997Y-81943051D01*
G37*
G36*
X111322997Y-81943051D02*
G01*
X111356652Y-81953261D01*
X111387665Y-81969838D01*
X111414851Y-81992149D01*
X111437162Y-82019335D01*
X111453739Y-82050348D01*
X111463949Y-82084003D01*
X111468000Y-82125138D01*
X111468000Y-84454862D01*
X111463949Y-84495997D01*
X111453739Y-84529652D01*
X111437162Y-84560665D01*
X111414851Y-84587851D01*
X111387665Y-84610162D01*
X111356652Y-84626739D01*
X111322997Y-84636949D01*
X111281862Y-84641000D01*
X109952138Y-84641000D01*
X109911003Y-84636949D01*
X109877348Y-84626739D01*
X109846335Y-84610162D01*
X109819149Y-84587851D01*
X109796838Y-84560665D01*
X109780261Y-84529652D01*
X109770051Y-84495997D01*
X109766000Y-84454862D01*
X109766000Y-82125138D01*
X109770051Y-82084003D01*
X109780261Y-82050348D01*
X109796838Y-82019335D01*
X109819149Y-81992149D01*
X109846335Y-81969838D01*
X109877348Y-81953261D01*
X109911003Y-81943051D01*
X109952138Y-81939000D01*
X111281862Y-81939000D01*
X111322997Y-81943051D01*
X111322997Y-81943051D01*
G37*
G36*
X84565442Y-82671518D02*
G01*
X84631627Y-82678037D01*
X84801466Y-82729557D01*
X84957991Y-82813222D01*
X84988751Y-82838466D01*
X85095186Y-82925814D01*
X85172250Y-83019718D01*
X85207778Y-83063009D01*
X85291443Y-83219534D01*
X85342963Y-83389373D01*
X85360359Y-83566000D01*
X85342963Y-83742627D01*
X85291443Y-83912466D01*
X85207778Y-84068991D01*
X85180603Y-84102103D01*
X85095186Y-84206186D01*
X84993729Y-84289448D01*
X84957991Y-84318778D01*
X84801466Y-84402443D01*
X84631627Y-84453963D01*
X84565443Y-84460481D01*
X84499260Y-84467000D01*
X84410740Y-84467000D01*
X84344557Y-84460481D01*
X84278373Y-84453963D01*
X84108534Y-84402443D01*
X83952009Y-84318778D01*
X83916271Y-84289448D01*
X83814814Y-84206186D01*
X83729397Y-84102103D01*
X83702222Y-84068991D01*
X83618557Y-83912466D01*
X83567037Y-83742627D01*
X83549641Y-83566000D01*
X83567037Y-83389373D01*
X83618557Y-83219534D01*
X83702222Y-83063009D01*
X83737750Y-83019718D01*
X83814814Y-82925814D01*
X83921249Y-82838466D01*
X83952009Y-82813222D01*
X84108534Y-82729557D01*
X84278373Y-82678037D01*
X84344558Y-82671518D01*
X84410740Y-82665000D01*
X84499260Y-82665000D01*
X84565442Y-82671518D01*
X84565442Y-82671518D01*
G37*
G36*
X89361674Y-82944465D02*
G01*
X89399367Y-82955899D01*
X89434103Y-82974466D01*
X89464548Y-82999452D01*
X89489534Y-83029897D01*
X89508101Y-83064633D01*
X89519535Y-83102326D01*
X89524000Y-83147661D01*
X89524000Y-83984339D01*
X89519535Y-84029674D01*
X89508101Y-84067367D01*
X89489534Y-84102103D01*
X89464548Y-84132548D01*
X89434103Y-84157534D01*
X89399367Y-84176101D01*
X89361674Y-84187535D01*
X89316339Y-84192000D01*
X88229661Y-84192000D01*
X88184326Y-84187535D01*
X88146633Y-84176101D01*
X88111897Y-84157534D01*
X88081452Y-84132548D01*
X88056466Y-84102103D01*
X88037899Y-84067367D01*
X88026465Y-84029674D01*
X88022000Y-83984339D01*
X88022000Y-83147661D01*
X88026465Y-83102326D01*
X88037899Y-83064633D01*
X88056466Y-83029897D01*
X88081452Y-82999452D01*
X88111897Y-82974466D01*
X88146633Y-82955899D01*
X88184326Y-82944465D01*
X88229661Y-82940000D01*
X89316339Y-82940000D01*
X89361674Y-82944465D01*
X89361674Y-82944465D01*
G37*
G36*
X105236674Y-82808465D02*
G01*
X105274367Y-82819899D01*
X105309103Y-82838466D01*
X105339548Y-82863452D01*
X105364534Y-82893897D01*
X105383101Y-82928633D01*
X105394535Y-82966326D01*
X105399000Y-83011661D01*
X105399000Y-83848339D01*
X105394535Y-83893674D01*
X105383101Y-83931367D01*
X105364534Y-83966103D01*
X105339548Y-83996548D01*
X105309103Y-84021534D01*
X105274367Y-84040101D01*
X105236674Y-84051535D01*
X105191339Y-84056000D01*
X104104661Y-84056000D01*
X104059326Y-84051535D01*
X104021633Y-84040101D01*
X103986897Y-84021534D01*
X103956452Y-83996548D01*
X103931466Y-83966103D01*
X103912899Y-83931367D01*
X103901465Y-83893674D01*
X103897000Y-83848339D01*
X103897000Y-83011661D01*
X103901465Y-82966326D01*
X103912899Y-82928633D01*
X103931466Y-82893897D01*
X103956452Y-82863452D01*
X103986897Y-82838466D01*
X104021633Y-82819899D01*
X104059326Y-82808465D01*
X104104661Y-82804000D01*
X105191339Y-82804000D01*
X105236674Y-82808465D01*
X105236674Y-82808465D01*
G37*
G36*
X107395674Y-82808465D02*
G01*
X107433367Y-82819899D01*
X107468103Y-82838466D01*
X107498548Y-82863452D01*
X107523534Y-82893897D01*
X107542101Y-82928633D01*
X107553535Y-82966326D01*
X107558000Y-83011661D01*
X107558000Y-83848339D01*
X107553535Y-83893674D01*
X107542101Y-83931367D01*
X107523534Y-83966103D01*
X107498548Y-83996548D01*
X107468103Y-84021534D01*
X107433367Y-84040101D01*
X107395674Y-84051535D01*
X107350339Y-84056000D01*
X106263661Y-84056000D01*
X106218326Y-84051535D01*
X106180633Y-84040101D01*
X106145897Y-84021534D01*
X106115452Y-83996548D01*
X106090466Y-83966103D01*
X106071899Y-83931367D01*
X106060465Y-83893674D01*
X106056000Y-83848339D01*
X106056000Y-83011661D01*
X106060465Y-82966326D01*
X106071899Y-82928633D01*
X106090466Y-82893897D01*
X106115452Y-82863452D01*
X106145897Y-82838466D01*
X106180633Y-82819899D01*
X106218326Y-82808465D01*
X106263661Y-82804000D01*
X107350339Y-82804000D01*
X107395674Y-82808465D01*
X107395674Y-82808465D01*
G37*
G36*
X89361674Y-80894465D02*
G01*
X89399367Y-80905899D01*
X89434103Y-80924466D01*
X89464548Y-80949452D01*
X89489534Y-80979897D01*
X89508101Y-81014633D01*
X89519535Y-81052326D01*
X89524000Y-81097661D01*
X89524000Y-81934339D01*
X89519535Y-81979674D01*
X89508101Y-82017367D01*
X89489534Y-82052103D01*
X89464548Y-82082548D01*
X89434103Y-82107534D01*
X89399367Y-82126101D01*
X89361674Y-82137535D01*
X89316339Y-82142000D01*
X88229661Y-82142000D01*
X88184326Y-82137535D01*
X88146633Y-82126101D01*
X88111897Y-82107534D01*
X88081452Y-82082548D01*
X88056466Y-82052103D01*
X88037899Y-82017367D01*
X88026465Y-81979674D01*
X88022000Y-81934339D01*
X88022000Y-81097661D01*
X88026465Y-81052326D01*
X88037899Y-81014633D01*
X88056466Y-80979897D01*
X88081452Y-80949452D01*
X88111897Y-80924466D01*
X88146633Y-80905899D01*
X88184326Y-80894465D01*
X88229661Y-80890000D01*
X89316339Y-80890000D01*
X89361674Y-80894465D01*
X89361674Y-80894465D01*
G37*
G36*
X84565443Y-80131519D02*
G01*
X84631627Y-80138037D01*
X84801466Y-80189557D01*
X84957991Y-80273222D01*
X84993729Y-80302552D01*
X85095186Y-80385814D01*
X85178448Y-80487271D01*
X85207778Y-80523009D01*
X85291443Y-80679534D01*
X85342963Y-80849373D01*
X85360359Y-81026000D01*
X85342963Y-81202627D01*
X85291443Y-81372466D01*
X85207778Y-81528991D01*
X85178448Y-81564729D01*
X85095186Y-81666186D01*
X84993729Y-81749448D01*
X84957991Y-81778778D01*
X84801466Y-81862443D01*
X84631627Y-81913963D01*
X84565442Y-81920482D01*
X84499260Y-81927000D01*
X84410740Y-81927000D01*
X84344558Y-81920482D01*
X84278373Y-81913963D01*
X84108534Y-81862443D01*
X83952009Y-81778778D01*
X83916271Y-81749448D01*
X83814814Y-81666186D01*
X83731552Y-81564729D01*
X83702222Y-81528991D01*
X83618557Y-81372466D01*
X83567037Y-81202627D01*
X83549641Y-81026000D01*
X83567037Y-80849373D01*
X83618557Y-80679534D01*
X83702222Y-80523009D01*
X83731552Y-80487271D01*
X83814814Y-80385814D01*
X83916271Y-80302552D01*
X83952009Y-80273222D01*
X84108534Y-80189557D01*
X84278373Y-80138037D01*
X84344557Y-80131519D01*
X84410740Y-80125000D01*
X84499260Y-80125000D01*
X84565443Y-80131519D01*
X84565443Y-80131519D01*
G37*
G36*
X84565442Y-77591518D02*
G01*
X84631627Y-77598037D01*
X84801466Y-77649557D01*
X84957991Y-77733222D01*
X84993729Y-77762552D01*
X85095186Y-77845814D01*
X85178448Y-77947271D01*
X85207778Y-77983009D01*
X85291443Y-78139534D01*
X85342963Y-78309373D01*
X85360359Y-78486000D01*
X85342963Y-78662627D01*
X85291443Y-78832466D01*
X85207778Y-78988991D01*
X85178448Y-79024729D01*
X85095186Y-79126186D01*
X84993729Y-79209448D01*
X84957991Y-79238778D01*
X84801466Y-79322443D01*
X84631627Y-79373963D01*
X84565442Y-79380482D01*
X84499260Y-79387000D01*
X84410740Y-79387000D01*
X84344558Y-79380482D01*
X84278373Y-79373963D01*
X84108534Y-79322443D01*
X83952009Y-79238778D01*
X83916271Y-79209448D01*
X83814814Y-79126186D01*
X83731552Y-79024729D01*
X83702222Y-78988991D01*
X83618557Y-78832466D01*
X83567037Y-78662627D01*
X83549641Y-78486000D01*
X83567037Y-78309373D01*
X83618557Y-78139534D01*
X83702222Y-77983009D01*
X83731552Y-77947271D01*
X83814814Y-77845814D01*
X83916271Y-77762552D01*
X83952009Y-77733222D01*
X84108534Y-77649557D01*
X84278373Y-77598037D01*
X84344558Y-77591518D01*
X84410740Y-77585000D01*
X84499260Y-77585000D01*
X84565442Y-77591518D01*
X84565442Y-77591518D01*
G37*
G36*
X78672425Y-77167760D02*
G01*
X78672428Y-77167761D01*
X78672429Y-77167761D01*
X78851693Y-77222140D01*
X78851696Y-77222142D01*
X78851697Y-77222142D01*
X79016903Y-77310446D01*
X79161712Y-77429288D01*
X79280554Y-77574097D01*
X79368858Y-77739303D01*
X79368860Y-77739307D01*
X79423239Y-77918571D01*
X79423240Y-77918575D01*
X79441601Y-78105000D01*
X79423240Y-78291425D01*
X79423239Y-78291428D01*
X79423239Y-78291429D01*
X79368860Y-78470693D01*
X79368858Y-78470696D01*
X79368858Y-78470697D01*
X79280554Y-78635903D01*
X79161712Y-78780712D01*
X79016903Y-78899554D01*
X78851697Y-78987858D01*
X78851693Y-78987860D01*
X78672429Y-79042239D01*
X78672428Y-79042239D01*
X78672425Y-79042240D01*
X78532718Y-79056000D01*
X78439282Y-79056000D01*
X78299575Y-79042240D01*
X78299572Y-79042239D01*
X78299571Y-79042239D01*
X78120307Y-78987860D01*
X78120303Y-78987858D01*
X77955097Y-78899554D01*
X77810288Y-78780712D01*
X77691446Y-78635903D01*
X77603142Y-78470697D01*
X77603142Y-78470696D01*
X77603140Y-78470693D01*
X77548761Y-78291429D01*
X77548761Y-78291428D01*
X77548760Y-78291425D01*
X77530399Y-78105000D01*
X77548760Y-77918575D01*
X77548761Y-77918571D01*
X77603140Y-77739307D01*
X77603142Y-77739303D01*
X77691446Y-77574097D01*
X77810288Y-77429288D01*
X77955097Y-77310446D01*
X78120303Y-77222142D01*
X78120304Y-77222142D01*
X78120307Y-77222140D01*
X78299571Y-77167761D01*
X78299572Y-77167761D01*
X78299575Y-77167760D01*
X78439282Y-77154000D01*
X78532718Y-77154000D01*
X78672425Y-77167760D01*
X78672425Y-77167760D01*
G37*
G36*
X126935000Y-79056000D02*
G01*
X125033000Y-79056000D01*
X125033000Y-77154000D01*
X126935000Y-77154000D01*
X126935000Y-79056000D01*
X126935000Y-79056000D01*
G37*
G36*
X103186000Y-78979800D02*
G01*
X101284000Y-78979800D01*
X101284000Y-77077800D01*
X103186000Y-77077800D01*
X103186000Y-78979800D01*
X103186000Y-78979800D01*
G37*
G36*
X99015674Y-77231465D02*
G01*
X99053367Y-77242899D01*
X99088103Y-77261466D01*
X99118548Y-77286452D01*
X99143534Y-77316897D01*
X99162101Y-77351633D01*
X99173535Y-77389326D01*
X99178000Y-77434661D01*
X99178000Y-78521339D01*
X99173535Y-78566674D01*
X99162101Y-78604367D01*
X99143534Y-78639103D01*
X99118548Y-78669548D01*
X99088103Y-78694534D01*
X99053367Y-78713101D01*
X99015674Y-78724535D01*
X98970339Y-78729000D01*
X98133661Y-78729000D01*
X98088326Y-78724535D01*
X98050633Y-78713101D01*
X98015897Y-78694534D01*
X97985452Y-78669548D01*
X97960466Y-78639103D01*
X97941899Y-78604367D01*
X97930465Y-78566674D01*
X97926000Y-78521339D01*
X97926000Y-77434661D01*
X97930465Y-77389326D01*
X97941899Y-77351633D01*
X97960466Y-77316897D01*
X97985452Y-77286452D01*
X98015897Y-77261466D01*
X98050633Y-77242899D01*
X98088326Y-77231465D01*
X98133661Y-77227000D01*
X98970339Y-77227000D01*
X99015674Y-77231465D01*
X99015674Y-77231465D01*
G37*
G36*
X96965674Y-77231465D02*
G01*
X97003367Y-77242899D01*
X97038103Y-77261466D01*
X97068548Y-77286452D01*
X97093534Y-77316897D01*
X97112101Y-77351633D01*
X97123535Y-77389326D01*
X97128000Y-77434661D01*
X97128000Y-78521339D01*
X97123535Y-78566674D01*
X97112101Y-78604367D01*
X97093534Y-78639103D01*
X97068548Y-78669548D01*
X97038103Y-78694534D01*
X97003367Y-78713101D01*
X96965674Y-78724535D01*
X96920339Y-78729000D01*
X96083661Y-78729000D01*
X96038326Y-78724535D01*
X96000633Y-78713101D01*
X95965897Y-78694534D01*
X95935452Y-78669548D01*
X95910466Y-78639103D01*
X95891899Y-78604367D01*
X95880465Y-78566674D01*
X95876000Y-78521339D01*
X95876000Y-77434661D01*
X95880465Y-77389326D01*
X95891899Y-77351633D01*
X95910466Y-77316897D01*
X95935452Y-77286452D01*
X95965897Y-77261466D01*
X96000633Y-77242899D01*
X96038326Y-77231465D01*
X96083661Y-77227000D01*
X96920339Y-77227000D01*
X96965674Y-77231465D01*
X96965674Y-77231465D01*
G37*
G36*
X89361674Y-77365465D02*
G01*
X89399367Y-77376899D01*
X89434103Y-77395466D01*
X89464548Y-77420452D01*
X89489534Y-77450897D01*
X89508101Y-77485633D01*
X89519535Y-77523326D01*
X89524000Y-77568661D01*
X89524000Y-78405339D01*
X89519535Y-78450674D01*
X89508101Y-78488367D01*
X89489534Y-78523103D01*
X89464548Y-78553548D01*
X89434103Y-78578534D01*
X89399367Y-78597101D01*
X89361674Y-78608535D01*
X89316339Y-78613000D01*
X88229661Y-78613000D01*
X88184326Y-78608535D01*
X88146633Y-78597101D01*
X88111897Y-78578534D01*
X88081452Y-78553548D01*
X88056466Y-78523103D01*
X88037899Y-78488367D01*
X88026465Y-78450674D01*
X88022000Y-78405339D01*
X88022000Y-77568661D01*
X88026465Y-77523326D01*
X88037899Y-77485633D01*
X88056466Y-77450897D01*
X88081452Y-77420452D01*
X88111897Y-77395466D01*
X88146633Y-77376899D01*
X88184326Y-77365465D01*
X88229661Y-77361000D01*
X89316339Y-77361000D01*
X89361674Y-77365465D01*
X89361674Y-77365465D01*
G37*
G36*
X85356000Y-76847000D02*
G01*
X83554000Y-76847000D01*
X83554000Y-75045000D01*
X85356000Y-75045000D01*
X85356000Y-76847000D01*
X85356000Y-76847000D01*
G37*
G36*
X89361674Y-75315465D02*
G01*
X89399367Y-75326899D01*
X89434103Y-75345466D01*
X89464548Y-75370452D01*
X89489534Y-75400897D01*
X89508101Y-75435633D01*
X89519535Y-75473326D01*
X89524000Y-75518661D01*
X89524000Y-76355339D01*
X89519535Y-76400674D01*
X89508101Y-76438367D01*
X89489534Y-76473103D01*
X89464548Y-76503548D01*
X89434103Y-76528534D01*
X89399367Y-76547101D01*
X89361674Y-76558535D01*
X89316339Y-76563000D01*
X88229661Y-76563000D01*
X88184326Y-76558535D01*
X88146633Y-76547101D01*
X88111897Y-76528534D01*
X88081452Y-76503548D01*
X88056466Y-76473103D01*
X88037899Y-76438367D01*
X88026465Y-76400674D01*
X88022000Y-76355339D01*
X88022000Y-75518661D01*
X88026465Y-75473326D01*
X88037899Y-75435633D01*
X88056466Y-75400897D01*
X88081452Y-75370452D01*
X88111897Y-75345466D01*
X88146633Y-75326899D01*
X88184326Y-75315465D01*
X88229661Y-75311000D01*
X89316339Y-75311000D01*
X89361674Y-75315465D01*
X89361674Y-75315465D01*
G37*
G36*
X102512395Y-74574346D02*
G01*
X102685466Y-74646034D01*
X102685467Y-74646035D01*
X102841227Y-74750110D01*
X102973690Y-74882573D01*
X102973691Y-74882575D01*
X103077766Y-75038334D01*
X103149454Y-75211405D01*
X103186000Y-75395133D01*
X103186000Y-75582467D01*
X103149454Y-75766195D01*
X103077766Y-75939266D01*
X103077765Y-75939267D01*
X102973690Y-76095027D01*
X102841227Y-76227490D01*
X102762818Y-76279881D01*
X102685466Y-76331566D01*
X102512395Y-76403254D01*
X102328667Y-76439800D01*
X102141333Y-76439800D01*
X101957605Y-76403254D01*
X101784534Y-76331566D01*
X101707182Y-76279881D01*
X101628773Y-76227490D01*
X101496310Y-76095027D01*
X101392235Y-75939267D01*
X101392234Y-75939266D01*
X101320546Y-75766195D01*
X101284000Y-75582467D01*
X101284000Y-75395133D01*
X101320546Y-75211405D01*
X101392234Y-75038334D01*
X101496309Y-74882575D01*
X101496310Y-74882573D01*
X101628773Y-74750110D01*
X101784533Y-74646035D01*
X101784534Y-74646034D01*
X101957605Y-74574346D01*
X102141333Y-74537800D01*
X102328667Y-74537800D01*
X102512395Y-74574346D01*
X102512395Y-74574346D01*
G37*
G36*
X120539000Y-76416000D02*
G01*
X118257000Y-76416000D01*
X118257000Y-74714000D01*
X120539000Y-74714000D01*
X120539000Y-76416000D01*
X120539000Y-76416000D01*
G37*
G36*
X111359000Y-76416000D02*
G01*
X109077000Y-76416000D01*
X109077000Y-74714000D01*
X111359000Y-74714000D01*
X111359000Y-76416000D01*
X111359000Y-76416000D01*
G37*
G36*
X126170425Y-72087760D02*
G01*
X126170428Y-72087761D01*
X126170429Y-72087761D01*
X126349693Y-72142140D01*
X126349696Y-72142142D01*
X126349697Y-72142142D01*
X126514903Y-72230446D01*
X126659712Y-72349288D01*
X126778554Y-72494097D01*
X126866858Y-72659303D01*
X126866860Y-72659307D01*
X126921239Y-72838571D01*
X126921240Y-72838575D01*
X126939601Y-73025000D01*
X126921240Y-73211425D01*
X126921239Y-73211428D01*
X126921239Y-73211429D01*
X126866860Y-73390693D01*
X126866858Y-73390696D01*
X126866858Y-73390697D01*
X126778554Y-73555903D01*
X126659712Y-73700712D01*
X126514903Y-73819554D01*
X126349697Y-73907858D01*
X126349693Y-73907860D01*
X126170429Y-73962239D01*
X126170428Y-73962239D01*
X126170425Y-73962240D01*
X126030718Y-73976000D01*
X125937282Y-73976000D01*
X125797575Y-73962240D01*
X125797572Y-73962239D01*
X125797571Y-73962239D01*
X125618307Y-73907860D01*
X125618303Y-73907858D01*
X125453097Y-73819554D01*
X125308288Y-73700712D01*
X125189446Y-73555903D01*
X125101142Y-73390697D01*
X125101142Y-73390696D01*
X125101140Y-73390693D01*
X125046761Y-73211429D01*
X125046761Y-73211428D01*
X125046760Y-73211425D01*
X125028399Y-73025000D01*
X125046760Y-72838575D01*
X125046761Y-72838571D01*
X125101140Y-72659307D01*
X125101142Y-72659303D01*
X125189446Y-72494097D01*
X125308288Y-72349288D01*
X125453097Y-72230446D01*
X125618303Y-72142142D01*
X125618304Y-72142142D01*
X125618307Y-72142140D01*
X125797571Y-72087761D01*
X125797572Y-72087761D01*
X125797575Y-72087760D01*
X125937282Y-72074000D01*
X126030718Y-72074000D01*
X126170425Y-72087760D01*
X126170425Y-72087760D01*
G37*
G36*
X79437000Y-73976000D02*
G01*
X77535000Y-73976000D01*
X77535000Y-72074000D01*
X79437000Y-72074000D01*
X79437000Y-73976000D01*
X79437000Y-73976000D01*
G37*
G36*
X102512395Y-72034346D02*
G01*
X102685466Y-72106034D01*
X102685467Y-72106035D01*
X102841227Y-72210110D01*
X102973690Y-72342573D01*
X102981767Y-72354661D01*
X103077766Y-72498334D01*
X103149454Y-72671405D01*
X103186000Y-72855133D01*
X103186000Y-73042467D01*
X103149454Y-73226195D01*
X103077766Y-73399266D01*
X103077765Y-73399267D01*
X102973690Y-73555027D01*
X102841227Y-73687490D01*
X102762818Y-73739881D01*
X102685466Y-73791566D01*
X102512395Y-73863254D01*
X102328667Y-73899800D01*
X102141333Y-73899800D01*
X101957605Y-73863254D01*
X101784534Y-73791566D01*
X101707182Y-73739881D01*
X101628773Y-73687490D01*
X101496310Y-73555027D01*
X101392235Y-73399267D01*
X101392234Y-73399266D01*
X101320546Y-73226195D01*
X101284000Y-73042467D01*
X101284000Y-72855133D01*
X101320546Y-72671405D01*
X101392234Y-72498334D01*
X101488233Y-72354661D01*
X101496310Y-72342573D01*
X101628773Y-72210110D01*
X101784533Y-72106035D01*
X101784534Y-72106034D01*
X101957605Y-72034346D01*
X102141333Y-71997800D01*
X102328667Y-71997800D01*
X102512395Y-72034346D01*
X102512395Y-72034346D01*
G37*
G36*
X99015674Y-72151465D02*
G01*
X99053367Y-72162899D01*
X99088103Y-72181466D01*
X99118548Y-72206452D01*
X99143534Y-72236897D01*
X99162101Y-72271633D01*
X99173535Y-72309326D01*
X99178000Y-72354661D01*
X99178000Y-73441339D01*
X99173535Y-73486674D01*
X99162101Y-73524367D01*
X99143534Y-73559103D01*
X99118548Y-73589548D01*
X99088103Y-73614534D01*
X99053367Y-73633101D01*
X99015674Y-73644535D01*
X98970339Y-73649000D01*
X98133661Y-73649000D01*
X98088326Y-73644535D01*
X98050633Y-73633101D01*
X98015897Y-73614534D01*
X97985452Y-73589548D01*
X97960466Y-73559103D01*
X97941899Y-73524367D01*
X97930465Y-73486674D01*
X97926000Y-73441339D01*
X97926000Y-72354661D01*
X97930465Y-72309326D01*
X97941899Y-72271633D01*
X97960466Y-72236897D01*
X97985452Y-72206452D01*
X98015897Y-72181466D01*
X98050633Y-72162899D01*
X98088326Y-72151465D01*
X98133661Y-72147000D01*
X98970339Y-72147000D01*
X99015674Y-72151465D01*
X99015674Y-72151465D01*
G37*
G36*
X96965674Y-72151465D02*
G01*
X97003367Y-72162899D01*
X97038103Y-72181466D01*
X97068548Y-72206452D01*
X97093534Y-72236897D01*
X97112101Y-72271633D01*
X97123535Y-72309326D01*
X97128000Y-72354661D01*
X97128000Y-73441339D01*
X97123535Y-73486674D01*
X97112101Y-73524367D01*
X97093534Y-73559103D01*
X97068548Y-73589548D01*
X97038103Y-73614534D01*
X97003367Y-73633101D01*
X96965674Y-73644535D01*
X96920339Y-73649000D01*
X96083661Y-73649000D01*
X96038326Y-73644535D01*
X96000633Y-73633101D01*
X95965897Y-73614534D01*
X95935452Y-73589548D01*
X95910466Y-73559103D01*
X95891899Y-73524367D01*
X95880465Y-73486674D01*
X95876000Y-73441339D01*
X95876000Y-72354661D01*
X95880465Y-72309326D01*
X95891899Y-72271633D01*
X95910466Y-72236897D01*
X95935452Y-72206452D01*
X95965897Y-72181466D01*
X96000633Y-72162899D01*
X96038326Y-72151465D01*
X96083661Y-72147000D01*
X96920339Y-72147000D01*
X96965674Y-72151465D01*
X96965674Y-72151465D01*
G37*
G36*
X89994000Y-71585500D02*
G01*
X83742000Y-71585500D01*
X83742000Y-69883500D01*
X89994000Y-69883500D01*
X89994000Y-71585500D01*
X89994000Y-71585500D01*
G37*
G36*
X105964213Y-69640102D02*
G01*
X106035321Y-69647105D01*
X106172172Y-69688619D01*
X106172175Y-69688620D01*
X106298294Y-69756032D01*
X106408843Y-69846757D01*
X106499568Y-69957306D01*
X106566980Y-70083425D01*
X106566981Y-70083428D01*
X106608495Y-70220279D01*
X106622512Y-70362600D01*
X106608495Y-70504921D01*
X106580398Y-70597542D01*
X106566980Y-70641775D01*
X106499568Y-70767894D01*
X106408843Y-70878443D01*
X106298294Y-70969168D01*
X106172175Y-71036580D01*
X106172172Y-71036581D01*
X106035321Y-71078095D01*
X105979426Y-71083600D01*
X105928660Y-71088600D01*
X105857340Y-71088600D01*
X105806574Y-71083600D01*
X105750679Y-71078095D01*
X105613828Y-71036581D01*
X105613825Y-71036580D01*
X105487706Y-70969168D01*
X105377157Y-70878443D01*
X105286432Y-70767894D01*
X105219020Y-70641775D01*
X105205602Y-70597542D01*
X105177505Y-70504921D01*
X105163488Y-70362600D01*
X105177505Y-70220279D01*
X105219019Y-70083428D01*
X105219020Y-70083425D01*
X105286432Y-69957306D01*
X105377157Y-69846757D01*
X105487706Y-69756032D01*
X105613825Y-69688620D01*
X105613828Y-69688619D01*
X105750679Y-69647105D01*
X105821787Y-69640102D01*
X105857340Y-69636600D01*
X105928660Y-69636600D01*
X105964213Y-69640102D01*
X105964213Y-69640102D01*
G37*
G36*
X103732674Y-69586065D02*
G01*
X103770367Y-69597499D01*
X103805103Y-69616066D01*
X103835548Y-69641052D01*
X103860534Y-69671497D01*
X103879101Y-69706233D01*
X103890535Y-69743926D01*
X103895000Y-69789261D01*
X103895000Y-70875939D01*
X103890535Y-70921274D01*
X103879101Y-70958967D01*
X103860534Y-70993703D01*
X103835548Y-71024148D01*
X103805103Y-71049134D01*
X103770367Y-71067701D01*
X103732674Y-71079135D01*
X103687339Y-71083600D01*
X102850661Y-71083600D01*
X102805326Y-71079135D01*
X102767633Y-71067701D01*
X102732897Y-71049134D01*
X102702452Y-71024148D01*
X102677466Y-70993703D01*
X102658899Y-70958967D01*
X102647465Y-70921274D01*
X102643000Y-70875939D01*
X102643000Y-69789261D01*
X102647465Y-69743926D01*
X102658899Y-69706233D01*
X102677466Y-69671497D01*
X102702452Y-69641052D01*
X102732897Y-69616066D01*
X102767633Y-69597499D01*
X102805326Y-69586065D01*
X102850661Y-69581600D01*
X103687339Y-69581600D01*
X103732674Y-69586065D01*
X103732674Y-69586065D01*
G37*
G36*
X101682674Y-69586065D02*
G01*
X101720367Y-69597499D01*
X101755103Y-69616066D01*
X101785548Y-69641052D01*
X101810534Y-69671497D01*
X101829101Y-69706233D01*
X101840535Y-69743926D01*
X101845000Y-69789261D01*
X101845000Y-70875939D01*
X101840535Y-70921274D01*
X101829101Y-70958967D01*
X101810534Y-70993703D01*
X101785548Y-71024148D01*
X101755103Y-71049134D01*
X101720367Y-71067701D01*
X101682674Y-71079135D01*
X101637339Y-71083600D01*
X100800661Y-71083600D01*
X100755326Y-71079135D01*
X100717633Y-71067701D01*
X100682897Y-71049134D01*
X100652452Y-71024148D01*
X100627466Y-70993703D01*
X100608899Y-70958967D01*
X100597465Y-70921274D01*
X100593000Y-70875939D01*
X100593000Y-69789261D01*
X100597465Y-69743926D01*
X100608899Y-69706233D01*
X100627466Y-69671497D01*
X100652452Y-69641052D01*
X100682897Y-69616066D01*
X100717633Y-69597499D01*
X100755326Y-69586065D01*
X100800661Y-69581600D01*
X101637339Y-69581600D01*
X101682674Y-69586065D01*
X101682674Y-69586065D01*
G37*
G36*
X96058943Y-68866619D02*
G01*
X96125127Y-68873137D01*
X96294966Y-68924657D01*
X96451491Y-69008322D01*
X96485923Y-69036580D01*
X96588686Y-69120914D01*
X96671948Y-69222371D01*
X96701278Y-69258109D01*
X96784943Y-69414634D01*
X96836463Y-69584473D01*
X96853859Y-69761100D01*
X96836463Y-69937727D01*
X96784943Y-70107566D01*
X96701278Y-70264091D01*
X96671948Y-70299829D01*
X96588686Y-70401286D01*
X96487229Y-70484548D01*
X96451491Y-70513878D01*
X96294966Y-70597543D01*
X96125127Y-70649063D01*
X96058943Y-70655581D01*
X95992760Y-70662100D01*
X95904240Y-70662100D01*
X95838057Y-70655581D01*
X95771873Y-70649063D01*
X95602034Y-70597543D01*
X95445509Y-70513878D01*
X95409771Y-70484548D01*
X95308314Y-70401286D01*
X95225052Y-70299829D01*
X95195722Y-70264091D01*
X95112057Y-70107566D01*
X95060537Y-69937727D01*
X95043141Y-69761100D01*
X95060537Y-69584473D01*
X95112057Y-69414634D01*
X95195722Y-69258109D01*
X95225052Y-69222371D01*
X95308314Y-69120914D01*
X95411077Y-69036580D01*
X95445509Y-69008322D01*
X95602034Y-68924657D01*
X95771873Y-68873137D01*
X95838057Y-68866619D01*
X95904240Y-68860100D01*
X95992760Y-68860100D01*
X96058943Y-68866619D01*
X96058943Y-68866619D01*
G37*
G36*
X83469000Y-69610500D02*
G01*
X81767000Y-69610500D01*
X81767000Y-63358500D01*
X83469000Y-63358500D01*
X83469000Y-69610500D01*
X83469000Y-69610500D01*
G37*
G36*
X91969000Y-69610500D02*
G01*
X90267000Y-69610500D01*
X90267000Y-63358500D01*
X91969000Y-63358500D01*
X91969000Y-69610500D01*
X91969000Y-69610500D01*
G37*
G36*
X105964213Y-67640102D02*
G01*
X106035321Y-67647105D01*
X106172172Y-67688619D01*
X106172175Y-67688620D01*
X106298294Y-67756032D01*
X106408843Y-67846757D01*
X106499568Y-67957306D01*
X106566980Y-68083425D01*
X106566981Y-68083428D01*
X106608495Y-68220279D01*
X106622512Y-68362600D01*
X106608495Y-68504921D01*
X106566981Y-68641772D01*
X106566980Y-68641775D01*
X106499568Y-68767894D01*
X106408843Y-68878443D01*
X106298294Y-68969168D01*
X106172175Y-69036580D01*
X106172172Y-69036581D01*
X106035321Y-69078095D01*
X105964213Y-69085098D01*
X105928660Y-69088600D01*
X105857340Y-69088600D01*
X105821787Y-69085098D01*
X105750679Y-69078095D01*
X105613828Y-69036581D01*
X105613825Y-69036580D01*
X105487706Y-68969168D01*
X105377157Y-68878443D01*
X105286432Y-68767894D01*
X105219020Y-68641775D01*
X105219019Y-68641772D01*
X105177505Y-68504921D01*
X105163488Y-68362600D01*
X105177505Y-68220279D01*
X105219019Y-68083428D01*
X105219020Y-68083425D01*
X105286432Y-67957306D01*
X105377157Y-67846757D01*
X105487706Y-67756032D01*
X105613825Y-67688620D01*
X105613828Y-67688619D01*
X105750679Y-67647105D01*
X105821787Y-67640102D01*
X105857340Y-67636600D01*
X105928660Y-67636600D01*
X105964213Y-67640102D01*
X105964213Y-67640102D01*
G37*
G36*
X96058942Y-66326618D02*
G01*
X96125127Y-66333137D01*
X96294966Y-66384657D01*
X96294968Y-66384658D01*
X96373229Y-66426490D01*
X96451491Y-66468322D01*
X96487229Y-66497652D01*
X96588686Y-66580914D01*
X96671948Y-66682371D01*
X96701278Y-66718109D01*
X96784943Y-66874634D01*
X96836463Y-67044473D01*
X96853859Y-67221100D01*
X96836463Y-67397727D01*
X96784943Y-67567566D01*
X96701278Y-67724091D01*
X96675064Y-67756033D01*
X96588686Y-67861286D01*
X96487229Y-67944548D01*
X96451491Y-67973878D01*
X96294966Y-68057543D01*
X96125127Y-68109063D01*
X96058942Y-68115582D01*
X95992760Y-68122100D01*
X95904240Y-68122100D01*
X95838058Y-68115582D01*
X95771873Y-68109063D01*
X95602034Y-68057543D01*
X95445509Y-67973878D01*
X95409771Y-67944548D01*
X95308314Y-67861286D01*
X95221936Y-67756033D01*
X95195722Y-67724091D01*
X95112057Y-67567566D01*
X95060537Y-67397727D01*
X95043141Y-67221100D01*
X95060537Y-67044473D01*
X95112057Y-66874634D01*
X95195722Y-66718109D01*
X95225052Y-66682371D01*
X95308314Y-66580914D01*
X95409771Y-66497652D01*
X95445509Y-66468322D01*
X95523771Y-66426490D01*
X95602032Y-66384658D01*
X95602034Y-66384657D01*
X95771873Y-66333137D01*
X95838058Y-66326618D01*
X95904240Y-66320100D01*
X95992760Y-66320100D01*
X96058942Y-66326618D01*
X96058942Y-66326618D01*
G37*
G36*
X105964213Y-65640102D02*
G01*
X106035321Y-65647105D01*
X106172172Y-65688619D01*
X106172175Y-65688620D01*
X106298294Y-65756032D01*
X106408843Y-65846757D01*
X106499568Y-65957306D01*
X106566980Y-66083425D01*
X106566981Y-66083428D01*
X106608495Y-66220279D01*
X106622512Y-66362600D01*
X106608495Y-66504921D01*
X106585442Y-66580914D01*
X106566980Y-66641775D01*
X106499568Y-66767894D01*
X106408843Y-66878443D01*
X106298294Y-66969168D01*
X106172175Y-67036580D01*
X106172172Y-67036581D01*
X106035321Y-67078095D01*
X105964213Y-67085098D01*
X105928660Y-67088600D01*
X105857340Y-67088600D01*
X105821787Y-67085098D01*
X105750679Y-67078095D01*
X105613828Y-67036581D01*
X105613825Y-67036580D01*
X105487706Y-66969168D01*
X105377157Y-66878443D01*
X105286432Y-66767894D01*
X105219020Y-66641775D01*
X105200558Y-66580914D01*
X105177505Y-66504921D01*
X105163488Y-66362600D01*
X105177505Y-66220279D01*
X105219019Y-66083428D01*
X105219020Y-66083425D01*
X105286432Y-65957306D01*
X105377157Y-65846757D01*
X105487706Y-65756032D01*
X105613825Y-65688620D01*
X105613828Y-65688619D01*
X105750679Y-65647105D01*
X105821787Y-65640102D01*
X105857340Y-65636600D01*
X105928660Y-65636600D01*
X105964213Y-65640102D01*
X105964213Y-65640102D01*
G37*
G36*
X96058943Y-63786619D02*
G01*
X96125127Y-63793137D01*
X96294966Y-63844657D01*
X96451491Y-63928322D01*
X96486807Y-63957305D01*
X96588686Y-64040914D01*
X96671948Y-64142371D01*
X96701278Y-64178109D01*
X96784943Y-64334634D01*
X96836463Y-64504473D01*
X96853859Y-64681100D01*
X96836463Y-64857727D01*
X96784943Y-65027566D01*
X96784942Y-65027568D01*
X96752319Y-65088600D01*
X96701278Y-65184091D01*
X96671948Y-65219829D01*
X96588686Y-65321286D01*
X96487229Y-65404548D01*
X96451491Y-65433878D01*
X96294966Y-65517543D01*
X96125127Y-65569063D01*
X96058942Y-65575582D01*
X95992760Y-65582100D01*
X95904240Y-65582100D01*
X95838058Y-65575582D01*
X95771873Y-65569063D01*
X95602034Y-65517543D01*
X95445509Y-65433878D01*
X95409771Y-65404548D01*
X95308314Y-65321286D01*
X95225052Y-65219829D01*
X95195722Y-65184091D01*
X95144681Y-65088600D01*
X95112058Y-65027568D01*
X95112057Y-65027566D01*
X95060537Y-64857727D01*
X95043141Y-64681100D01*
X95060537Y-64504473D01*
X95112057Y-64334634D01*
X95195722Y-64178109D01*
X95225052Y-64142371D01*
X95308314Y-64040914D01*
X95410193Y-63957305D01*
X95445509Y-63928322D01*
X95602034Y-63844657D01*
X95771873Y-63793137D01*
X95838057Y-63786619D01*
X95904240Y-63780100D01*
X95992760Y-63780100D01*
X96058943Y-63786619D01*
X96058943Y-63786619D01*
G37*
G36*
X105964213Y-63640102D02*
G01*
X106035321Y-63647105D01*
X106172172Y-63688619D01*
X106172175Y-63688620D01*
X106298294Y-63756032D01*
X106408843Y-63846757D01*
X106499568Y-63957306D01*
X106566980Y-64083425D01*
X106566981Y-64083428D01*
X106608495Y-64220279D01*
X106622512Y-64362600D01*
X106608495Y-64504921D01*
X106566981Y-64641772D01*
X106566980Y-64641775D01*
X106499568Y-64767894D01*
X106408843Y-64878443D01*
X106298294Y-64969168D01*
X106172175Y-65036580D01*
X106172172Y-65036581D01*
X106035321Y-65078095D01*
X105964213Y-65085098D01*
X105928660Y-65088600D01*
X105857340Y-65088600D01*
X105821787Y-65085098D01*
X105750679Y-65078095D01*
X105613828Y-65036581D01*
X105613825Y-65036580D01*
X105487706Y-64969168D01*
X105377157Y-64878443D01*
X105286432Y-64767894D01*
X105219020Y-64641775D01*
X105219019Y-64641772D01*
X105177505Y-64504921D01*
X105163488Y-64362600D01*
X105177505Y-64220279D01*
X105219019Y-64083428D01*
X105219020Y-64083425D01*
X105286432Y-63957306D01*
X105377157Y-63846757D01*
X105487706Y-63756032D01*
X105613825Y-63688620D01*
X105613828Y-63688619D01*
X105750679Y-63647105D01*
X105821787Y-63640102D01*
X105857340Y-63636600D01*
X105928660Y-63636600D01*
X105964213Y-63640102D01*
X105964213Y-63640102D01*
G37*
G36*
X105943981Y-61638109D02*
G01*
X106035321Y-61647105D01*
X106172172Y-61688619D01*
X106172175Y-61688620D01*
X106298294Y-61756032D01*
X106408843Y-61846757D01*
X106499568Y-61957306D01*
X106566980Y-62083425D01*
X106566981Y-62083428D01*
X106608495Y-62220279D01*
X106622512Y-62362600D01*
X106608495Y-62504921D01*
X106566981Y-62641772D01*
X106566980Y-62641775D01*
X106499568Y-62767894D01*
X106408843Y-62878443D01*
X106298294Y-62969168D01*
X106172175Y-63036580D01*
X106172172Y-63036581D01*
X106035321Y-63078095D01*
X105964213Y-63085098D01*
X105928660Y-63088600D01*
X105857340Y-63088600D01*
X105821787Y-63085098D01*
X105750679Y-63078095D01*
X105613828Y-63036581D01*
X105613825Y-63036580D01*
X105487706Y-62969168D01*
X105377157Y-62878443D01*
X105286432Y-62767894D01*
X105219020Y-62641775D01*
X105219019Y-62641772D01*
X105177505Y-62504921D01*
X105163488Y-62362600D01*
X105177505Y-62220279D01*
X105219019Y-62083428D01*
X105219020Y-62083425D01*
X105286432Y-61957306D01*
X105377157Y-61846757D01*
X105487706Y-61756032D01*
X105613825Y-61688620D01*
X105613828Y-61688619D01*
X105750679Y-61647105D01*
X105842019Y-61638109D01*
X105857340Y-61636600D01*
X105928660Y-61636600D01*
X105943981Y-61638109D01*
X105943981Y-61638109D01*
G37*
G36*
X89994000Y-63085500D02*
G01*
X83742000Y-63085500D01*
X83742000Y-61383500D01*
X89994000Y-61383500D01*
X89994000Y-63085500D01*
X89994000Y-63085500D01*
G37*
G36*
X96058942Y-61246618D02*
G01*
X96125127Y-61253137D01*
X96294966Y-61304657D01*
X96451491Y-61388322D01*
X96487229Y-61417652D01*
X96588686Y-61500914D01*
X96671948Y-61602371D01*
X96701278Y-61638109D01*
X96784943Y-61794634D01*
X96836463Y-61964473D01*
X96853859Y-62141100D01*
X96836463Y-62317727D01*
X96784943Y-62487566D01*
X96784942Y-62487568D01*
X96743111Y-62565828D01*
X96701278Y-62644091D01*
X96671948Y-62679829D01*
X96588686Y-62781286D01*
X96487229Y-62864548D01*
X96451491Y-62893878D01*
X96451489Y-62893879D01*
X96310635Y-62969168D01*
X96294966Y-62977543D01*
X96125127Y-63029063D01*
X96058943Y-63035581D01*
X95992760Y-63042100D01*
X95904240Y-63042100D01*
X95838057Y-63035581D01*
X95771873Y-63029063D01*
X95602034Y-62977543D01*
X95586366Y-62969168D01*
X95445511Y-62893879D01*
X95445509Y-62893878D01*
X95409771Y-62864548D01*
X95308314Y-62781286D01*
X95225052Y-62679829D01*
X95195722Y-62644091D01*
X95153889Y-62565828D01*
X95112058Y-62487568D01*
X95112057Y-62487566D01*
X95060537Y-62317727D01*
X95043141Y-62141100D01*
X95060537Y-61964473D01*
X95112057Y-61794634D01*
X95195722Y-61638109D01*
X95225052Y-61602371D01*
X95308314Y-61500914D01*
X95409771Y-61417652D01*
X95445509Y-61388322D01*
X95602034Y-61304657D01*
X95771873Y-61253137D01*
X95838058Y-61246618D01*
X95904240Y-61240100D01*
X95992760Y-61240100D01*
X96058942Y-61246618D01*
X96058942Y-61246618D01*
G37*
G36*
X102165997Y-58428551D02*
G01*
X102199652Y-58438761D01*
X102230665Y-58455338D01*
X102257851Y-58477649D01*
X102280162Y-58504835D01*
X102296739Y-58535848D01*
X102306949Y-58569503D01*
X102311000Y-58610638D01*
X102311000Y-60940362D01*
X102306949Y-60981497D01*
X102296739Y-61015152D01*
X102280162Y-61046165D01*
X102257851Y-61073351D01*
X102230665Y-61095662D01*
X102199652Y-61112239D01*
X102165997Y-61122449D01*
X102124862Y-61126500D01*
X100795138Y-61126500D01*
X100754003Y-61122449D01*
X100720348Y-61112239D01*
X100689335Y-61095662D01*
X100662149Y-61073351D01*
X100639838Y-61046165D01*
X100623261Y-61015152D01*
X100613051Y-60981497D01*
X100609000Y-60940362D01*
X100609000Y-58610638D01*
X100613051Y-58569503D01*
X100623261Y-58535848D01*
X100639838Y-58504835D01*
X100662149Y-58477649D01*
X100689335Y-58455338D01*
X100720348Y-58438761D01*
X100754003Y-58428551D01*
X100795138Y-58424500D01*
X102124862Y-58424500D01*
X102165997Y-58428551D01*
X102165997Y-58428551D01*
G37*
G36*
X105964213Y-59640102D02*
G01*
X106035321Y-59647105D01*
X106172172Y-59688619D01*
X106172175Y-59688620D01*
X106298294Y-59756032D01*
X106408843Y-59846757D01*
X106499568Y-59957306D01*
X106566980Y-60083425D01*
X106566981Y-60083428D01*
X106608495Y-60220279D01*
X106622512Y-60362600D01*
X106608495Y-60504921D01*
X106571451Y-60627035D01*
X106566980Y-60641775D01*
X106499568Y-60767894D01*
X106408843Y-60878443D01*
X106298294Y-60969168D01*
X106172175Y-61036580D01*
X106172172Y-61036581D01*
X106035321Y-61078095D01*
X105964213Y-61085098D01*
X105928660Y-61088600D01*
X105857340Y-61088600D01*
X105821787Y-61085098D01*
X105750679Y-61078095D01*
X105613828Y-61036581D01*
X105613825Y-61036580D01*
X105487706Y-60969168D01*
X105377157Y-60878443D01*
X105286432Y-60767894D01*
X105219020Y-60641775D01*
X105214549Y-60627035D01*
X105177505Y-60504921D01*
X105163488Y-60362600D01*
X105177505Y-60220279D01*
X105219019Y-60083428D01*
X105219020Y-60083425D01*
X105286432Y-59957306D01*
X105377157Y-59846757D01*
X105487706Y-59756032D01*
X105613825Y-59688620D01*
X105613828Y-59688619D01*
X105750679Y-59647105D01*
X105821787Y-59640102D01*
X105857340Y-59636600D01*
X105928660Y-59636600D01*
X105964213Y-59640102D01*
X105964213Y-59640102D01*
G37*
G36*
X88855674Y-59133965D02*
G01*
X88893367Y-59145399D01*
X88928103Y-59163966D01*
X88958548Y-59188952D01*
X88983534Y-59219397D01*
X89002101Y-59254133D01*
X89013535Y-59291826D01*
X89018000Y-59337161D01*
X89018000Y-60423839D01*
X89013535Y-60469174D01*
X89002101Y-60506867D01*
X88983534Y-60541603D01*
X88958548Y-60572048D01*
X88928103Y-60597034D01*
X88893367Y-60615601D01*
X88855674Y-60627035D01*
X88810339Y-60631500D01*
X87973661Y-60631500D01*
X87928326Y-60627035D01*
X87890633Y-60615601D01*
X87855897Y-60597034D01*
X87825452Y-60572048D01*
X87800466Y-60541603D01*
X87781899Y-60506867D01*
X87770465Y-60469174D01*
X87766000Y-60423839D01*
X87766000Y-59337161D01*
X87770465Y-59291826D01*
X87781899Y-59254133D01*
X87800466Y-59219397D01*
X87825452Y-59188952D01*
X87855897Y-59163966D01*
X87890633Y-59145399D01*
X87928326Y-59133965D01*
X87973661Y-59129500D01*
X88810339Y-59129500D01*
X88855674Y-59133965D01*
X88855674Y-59133965D01*
G37*
G36*
X86805674Y-59133965D02*
G01*
X86843367Y-59145399D01*
X86878103Y-59163966D01*
X86908548Y-59188952D01*
X86933534Y-59219397D01*
X86952101Y-59254133D01*
X86963535Y-59291826D01*
X86968000Y-59337161D01*
X86968000Y-60423839D01*
X86963535Y-60469174D01*
X86952101Y-60506867D01*
X86933534Y-60541603D01*
X86908548Y-60572048D01*
X86878103Y-60597034D01*
X86843367Y-60615601D01*
X86805674Y-60627035D01*
X86760339Y-60631500D01*
X85923661Y-60631500D01*
X85878326Y-60627035D01*
X85840633Y-60615601D01*
X85805897Y-60597034D01*
X85775452Y-60572048D01*
X85750466Y-60541603D01*
X85731899Y-60506867D01*
X85720465Y-60469174D01*
X85716000Y-60423839D01*
X85716000Y-59337161D01*
X85720465Y-59291826D01*
X85731899Y-59254133D01*
X85750466Y-59219397D01*
X85775452Y-59188952D01*
X85805897Y-59163966D01*
X85840633Y-59145399D01*
X85878326Y-59133965D01*
X85923661Y-59129500D01*
X86760339Y-59129500D01*
X86805674Y-59133965D01*
X86805674Y-59133965D01*
G37*
G36*
X96058943Y-58706619D02*
G01*
X96125127Y-58713137D01*
X96294966Y-58764657D01*
X96451491Y-58848322D01*
X96487229Y-58877652D01*
X96588686Y-58960914D01*
X96650783Y-59036581D01*
X96701278Y-59098109D01*
X96784943Y-59254634D01*
X96836463Y-59424473D01*
X96853859Y-59601100D01*
X96836463Y-59777727D01*
X96784943Y-59947566D01*
X96701278Y-60104091D01*
X96671948Y-60139829D01*
X96588686Y-60241286D01*
X96487229Y-60324548D01*
X96451491Y-60353878D01*
X96294966Y-60437543D01*
X96125127Y-60489063D01*
X96058943Y-60495581D01*
X95992760Y-60502100D01*
X95904240Y-60502100D01*
X95838057Y-60495581D01*
X95771873Y-60489063D01*
X95602034Y-60437543D01*
X95445509Y-60353878D01*
X95409771Y-60324548D01*
X95308314Y-60241286D01*
X95225052Y-60139829D01*
X95195722Y-60104091D01*
X95112057Y-59947566D01*
X95060537Y-59777727D01*
X95043141Y-59601100D01*
X95060537Y-59424473D01*
X95112057Y-59254634D01*
X95195722Y-59098109D01*
X95246217Y-59036581D01*
X95308314Y-58960914D01*
X95409771Y-58877652D01*
X95445509Y-58848322D01*
X95602034Y-58764657D01*
X95771873Y-58713137D01*
X95838057Y-58706619D01*
X95904240Y-58700100D01*
X95992760Y-58700100D01*
X96058943Y-58706619D01*
X96058943Y-58706619D01*
G37*
G36*
X105964213Y-57640102D02*
G01*
X106035321Y-57647105D01*
X106172172Y-57688619D01*
X106172175Y-57688620D01*
X106298294Y-57756032D01*
X106408843Y-57846757D01*
X106499568Y-57957306D01*
X106566980Y-58083425D01*
X106566981Y-58083428D01*
X106608495Y-58220279D01*
X106622512Y-58362600D01*
X106608495Y-58504921D01*
X106567957Y-58638555D01*
X106566980Y-58641775D01*
X106499568Y-58767894D01*
X106408843Y-58878443D01*
X106298294Y-58969168D01*
X106172175Y-59036580D01*
X106172172Y-59036581D01*
X106035321Y-59078095D01*
X105964213Y-59085098D01*
X105928660Y-59088600D01*
X105857340Y-59088600D01*
X105821787Y-59085098D01*
X105750679Y-59078095D01*
X105613828Y-59036581D01*
X105613825Y-59036580D01*
X105487706Y-58969168D01*
X105377157Y-58878443D01*
X105286432Y-58767894D01*
X105219020Y-58641775D01*
X105218043Y-58638555D01*
X105177505Y-58504921D01*
X105163488Y-58362600D01*
X105177505Y-58220279D01*
X105219019Y-58083428D01*
X105219020Y-58083425D01*
X105286432Y-57957306D01*
X105377157Y-57846757D01*
X105487706Y-57756032D01*
X105613825Y-57688620D01*
X105613828Y-57688619D01*
X105750679Y-57647105D01*
X105821787Y-57640102D01*
X105857340Y-57636600D01*
X105928660Y-57636600D01*
X105964213Y-57640102D01*
X105964213Y-57640102D01*
G37*
G36*
X96849500Y-57962100D02*
G01*
X95047500Y-57962100D01*
X95047500Y-56160100D01*
X96849500Y-56160100D01*
X96849500Y-57962100D01*
X96849500Y-57962100D01*
G37*
G36*
X102165997Y-54828551D02*
G01*
X102199652Y-54838761D01*
X102230665Y-54855338D01*
X102257851Y-54877649D01*
X102280162Y-54904835D01*
X102296739Y-54935848D01*
X102306949Y-54969503D01*
X102311000Y-55010638D01*
X102311000Y-57340362D01*
X102306949Y-57381497D01*
X102296739Y-57415152D01*
X102280162Y-57446165D01*
X102257851Y-57473351D01*
X102230665Y-57495662D01*
X102199652Y-57512239D01*
X102165997Y-57522449D01*
X102124862Y-57526500D01*
X100795138Y-57526500D01*
X100754003Y-57522449D01*
X100720348Y-57512239D01*
X100689335Y-57495662D01*
X100662149Y-57473351D01*
X100639838Y-57446165D01*
X100623261Y-57415152D01*
X100613051Y-57381497D01*
X100609000Y-57340362D01*
X100609000Y-55010638D01*
X100613051Y-54969503D01*
X100623261Y-54935848D01*
X100639838Y-54904835D01*
X100662149Y-54877649D01*
X100689335Y-54855338D01*
X100720348Y-54838761D01*
X100754003Y-54828551D01*
X100795138Y-54824500D01*
X102124862Y-54824500D01*
X102165997Y-54828551D01*
X102165997Y-54828551D01*
G37*
G36*
X106619000Y-57088600D02*
G01*
X105167000Y-57088600D01*
X105167000Y-55636600D01*
X106619000Y-55636600D01*
X106619000Y-57088600D01*
X106619000Y-57088600D01*
G37*
G36*
X92599000Y-55280000D02*
G01*
X91297000Y-55280000D01*
X91297000Y-53178000D01*
X92599000Y-53178000D01*
X92599000Y-55280000D01*
X92599000Y-55280000D01*
G37*
G36*
X89995500Y-55280000D02*
G01*
X88693500Y-55280000D01*
X88693500Y-53178000D01*
X89995500Y-53178000D01*
X89995500Y-55280000D01*
X89995500Y-55280000D01*
G37*
G36*
X115586000Y-55280000D02*
G01*
X114284000Y-55280000D01*
X114284000Y-53178000D01*
X115586000Y-53178000D01*
X115586000Y-55280000D01*
X115586000Y-55280000D01*
G37*
G36*
X113046000Y-55280000D02*
G01*
X111744000Y-55280000D01*
X111744000Y-53178000D01*
X113046000Y-53178000D01*
X113046000Y-55280000D01*
X113046000Y-55280000D01*
G37*
G36*
X110506000Y-55280000D02*
G01*
X109204000Y-55280000D01*
X109204000Y-53178000D01*
X110506000Y-53178000D01*
X110506000Y-55280000D01*
X110506000Y-55280000D01*
G37*
M02*
