G04 #@! TF.GenerationSoftware,KiCad,Pcbnew,(5.1.4)-1*
G04 #@! TF.CreationDate,2019-09-10T08:34:51+02:00*
G04 #@! TF.ProjectId,hb-rc-2-pbu-led,68622d72-632d-4322-9d70-62752d6c6564,rev?*
G04 #@! TF.SameCoordinates,Original*
G04 #@! TF.FileFunction,Copper,L1,Top*
G04 #@! TF.FilePolarity,Positive*
%FSLAX46Y46*%
G04 Gerber Fmt 4.6, Leading zero omitted, Abs format (unit mm)*
G04 Created by KiCad (PCBNEW (5.1.4)-1) date 2019-09-10 08:34:51*
%MOMM*%
%LPD*%
G04 APERTURE LIST*
%ADD10O,1.800000X1.800000*%
%ADD11R,1.800000X1.800000*%
%ADD12R,1.200000X2.000000*%
%ADD13R,1.200000X3.000000*%
%ADD14O,1.700000X1.700000*%
%ADD15R,1.700000X1.700000*%
%ADD16C,0.100000*%
%ADD17C,1.600000*%
%ADD18C,1.150000*%
%ADD19C,2.000000*%
%ADD20R,2.180000X1.600000*%
%ADD21R,1.060000X0.650000*%
%ADD22R,2.000000X3.800000*%
%ADD23R,2.000000X1.500000*%
%ADD24R,1.600000X0.550000*%
%ADD25R,0.550000X1.600000*%
%ADD26O,1.350000X1.350000*%
%ADD27R,1.350000X1.350000*%
%ADD28C,1.800000*%
%ADD29C,0.800000*%
%ADD30C,0.250000*%
%ADD31C,0.254000*%
G04 APERTURE END LIST*
D10*
X125984000Y-73025000D03*
D11*
X125984000Y-78105000D03*
D10*
X78486000Y-78105000D03*
D11*
X78486000Y-73025000D03*
D12*
X109855000Y-54229000D03*
X112395000Y-54229000D03*
X114935000Y-54229000D03*
X91948000Y-54229000D03*
X89383000Y-54229000D03*
D13*
X94488000Y-96227900D03*
X91922600Y-96227900D03*
X89382600Y-96215200D03*
X89382600Y-92278200D03*
X92049600Y-92202000D03*
D14*
X95948500Y-69761100D03*
X95948500Y-67221100D03*
X95948500Y-64681100D03*
X95948500Y-62141100D03*
X95948500Y-59601100D03*
D15*
X95948500Y-57061100D03*
D16*
G36*
X119954504Y-81991204D02*
G01*
X119978773Y-81994804D01*
X120002571Y-82000765D01*
X120025671Y-82009030D01*
X120047849Y-82019520D01*
X120068893Y-82032133D01*
X120088598Y-82046747D01*
X120106777Y-82063223D01*
X120123253Y-82081402D01*
X120137867Y-82101107D01*
X120150480Y-82122151D01*
X120160970Y-82144329D01*
X120169235Y-82167429D01*
X120175196Y-82191227D01*
X120178796Y-82215496D01*
X120180000Y-82240000D01*
X120180000Y-84340000D01*
X120178796Y-84364504D01*
X120175196Y-84388773D01*
X120169235Y-84412571D01*
X120160970Y-84435671D01*
X120150480Y-84457849D01*
X120137867Y-84478893D01*
X120123253Y-84498598D01*
X120106777Y-84516777D01*
X120088598Y-84533253D01*
X120068893Y-84547867D01*
X120047849Y-84560480D01*
X120025671Y-84570970D01*
X120002571Y-84579235D01*
X119978773Y-84585196D01*
X119954504Y-84588796D01*
X119930000Y-84590000D01*
X118830000Y-84590000D01*
X118805496Y-84588796D01*
X118781227Y-84585196D01*
X118757429Y-84579235D01*
X118734329Y-84570970D01*
X118712151Y-84560480D01*
X118691107Y-84547867D01*
X118671402Y-84533253D01*
X118653223Y-84516777D01*
X118636747Y-84498598D01*
X118622133Y-84478893D01*
X118609520Y-84457849D01*
X118599030Y-84435671D01*
X118590765Y-84412571D01*
X118584804Y-84388773D01*
X118581204Y-84364504D01*
X118580000Y-84340000D01*
X118580000Y-82240000D01*
X118581204Y-82215496D01*
X118584804Y-82191227D01*
X118590765Y-82167429D01*
X118599030Y-82144329D01*
X118609520Y-82122151D01*
X118622133Y-82101107D01*
X118636747Y-82081402D01*
X118653223Y-82063223D01*
X118671402Y-82046747D01*
X118691107Y-82032133D01*
X118712151Y-82019520D01*
X118734329Y-82009030D01*
X118757429Y-82000765D01*
X118781227Y-81994804D01*
X118805496Y-81991204D01*
X118830000Y-81990000D01*
X119930000Y-81990000D01*
X119954504Y-81991204D01*
X119954504Y-81991204D01*
G37*
D17*
X119380000Y-83290000D03*
D16*
G36*
X119954504Y-85591204D02*
G01*
X119978773Y-85594804D01*
X120002571Y-85600765D01*
X120025671Y-85609030D01*
X120047849Y-85619520D01*
X120068893Y-85632133D01*
X120088598Y-85646747D01*
X120106777Y-85663223D01*
X120123253Y-85681402D01*
X120137867Y-85701107D01*
X120150480Y-85722151D01*
X120160970Y-85744329D01*
X120169235Y-85767429D01*
X120175196Y-85791227D01*
X120178796Y-85815496D01*
X120180000Y-85840000D01*
X120180000Y-87940000D01*
X120178796Y-87964504D01*
X120175196Y-87988773D01*
X120169235Y-88012571D01*
X120160970Y-88035671D01*
X120150480Y-88057849D01*
X120137867Y-88078893D01*
X120123253Y-88098598D01*
X120106777Y-88116777D01*
X120088598Y-88133253D01*
X120068893Y-88147867D01*
X120047849Y-88160480D01*
X120025671Y-88170970D01*
X120002571Y-88179235D01*
X119978773Y-88185196D01*
X119954504Y-88188796D01*
X119930000Y-88190000D01*
X118830000Y-88190000D01*
X118805496Y-88188796D01*
X118781227Y-88185196D01*
X118757429Y-88179235D01*
X118734329Y-88170970D01*
X118712151Y-88160480D01*
X118691107Y-88147867D01*
X118671402Y-88133253D01*
X118653223Y-88116777D01*
X118636747Y-88098598D01*
X118622133Y-88078893D01*
X118609520Y-88057849D01*
X118599030Y-88035671D01*
X118590765Y-88012571D01*
X118584804Y-87988773D01*
X118581204Y-87964504D01*
X118580000Y-87940000D01*
X118580000Y-85840000D01*
X118581204Y-85815496D01*
X118584804Y-85791227D01*
X118590765Y-85767429D01*
X118599030Y-85744329D01*
X118609520Y-85722151D01*
X118622133Y-85701107D01*
X118636747Y-85681402D01*
X118653223Y-85663223D01*
X118671402Y-85646747D01*
X118691107Y-85632133D01*
X118712151Y-85619520D01*
X118734329Y-85609030D01*
X118757429Y-85600765D01*
X118781227Y-85594804D01*
X118805496Y-85591204D01*
X118830000Y-85590000D01*
X119930000Y-85590000D01*
X119954504Y-85591204D01*
X119954504Y-85591204D01*
G37*
D17*
X119380000Y-86890000D03*
D16*
G36*
X111191504Y-81991204D02*
G01*
X111215773Y-81994804D01*
X111239571Y-82000765D01*
X111262671Y-82009030D01*
X111284849Y-82019520D01*
X111305893Y-82032133D01*
X111325598Y-82046747D01*
X111343777Y-82063223D01*
X111360253Y-82081402D01*
X111374867Y-82101107D01*
X111387480Y-82122151D01*
X111397970Y-82144329D01*
X111406235Y-82167429D01*
X111412196Y-82191227D01*
X111415796Y-82215496D01*
X111417000Y-82240000D01*
X111417000Y-84340000D01*
X111415796Y-84364504D01*
X111412196Y-84388773D01*
X111406235Y-84412571D01*
X111397970Y-84435671D01*
X111387480Y-84457849D01*
X111374867Y-84478893D01*
X111360253Y-84498598D01*
X111343777Y-84516777D01*
X111325598Y-84533253D01*
X111305893Y-84547867D01*
X111284849Y-84560480D01*
X111262671Y-84570970D01*
X111239571Y-84579235D01*
X111215773Y-84585196D01*
X111191504Y-84588796D01*
X111167000Y-84590000D01*
X110067000Y-84590000D01*
X110042496Y-84588796D01*
X110018227Y-84585196D01*
X109994429Y-84579235D01*
X109971329Y-84570970D01*
X109949151Y-84560480D01*
X109928107Y-84547867D01*
X109908402Y-84533253D01*
X109890223Y-84516777D01*
X109873747Y-84498598D01*
X109859133Y-84478893D01*
X109846520Y-84457849D01*
X109836030Y-84435671D01*
X109827765Y-84412571D01*
X109821804Y-84388773D01*
X109818204Y-84364504D01*
X109817000Y-84340000D01*
X109817000Y-82240000D01*
X109818204Y-82215496D01*
X109821804Y-82191227D01*
X109827765Y-82167429D01*
X109836030Y-82144329D01*
X109846520Y-82122151D01*
X109859133Y-82101107D01*
X109873747Y-82081402D01*
X109890223Y-82063223D01*
X109908402Y-82046747D01*
X109928107Y-82032133D01*
X109949151Y-82019520D01*
X109971329Y-82009030D01*
X109994429Y-82000765D01*
X110018227Y-81994804D01*
X110042496Y-81991204D01*
X110067000Y-81990000D01*
X111167000Y-81990000D01*
X111191504Y-81991204D01*
X111191504Y-81991204D01*
G37*
D17*
X110617000Y-83290000D03*
D16*
G36*
X111191504Y-85591204D02*
G01*
X111215773Y-85594804D01*
X111239571Y-85600765D01*
X111262671Y-85609030D01*
X111284849Y-85619520D01*
X111305893Y-85632133D01*
X111325598Y-85646747D01*
X111343777Y-85663223D01*
X111360253Y-85681402D01*
X111374867Y-85701107D01*
X111387480Y-85722151D01*
X111397970Y-85744329D01*
X111406235Y-85767429D01*
X111412196Y-85791227D01*
X111415796Y-85815496D01*
X111417000Y-85840000D01*
X111417000Y-87940000D01*
X111415796Y-87964504D01*
X111412196Y-87988773D01*
X111406235Y-88012571D01*
X111397970Y-88035671D01*
X111387480Y-88057849D01*
X111374867Y-88078893D01*
X111360253Y-88098598D01*
X111343777Y-88116777D01*
X111325598Y-88133253D01*
X111305893Y-88147867D01*
X111284849Y-88160480D01*
X111262671Y-88170970D01*
X111239571Y-88179235D01*
X111215773Y-88185196D01*
X111191504Y-88188796D01*
X111167000Y-88190000D01*
X110067000Y-88190000D01*
X110042496Y-88188796D01*
X110018227Y-88185196D01*
X109994429Y-88179235D01*
X109971329Y-88170970D01*
X109949151Y-88160480D01*
X109928107Y-88147867D01*
X109908402Y-88133253D01*
X109890223Y-88116777D01*
X109873747Y-88098598D01*
X109859133Y-88078893D01*
X109846520Y-88057849D01*
X109836030Y-88035671D01*
X109827765Y-88012571D01*
X109821804Y-87988773D01*
X109818204Y-87964504D01*
X109817000Y-87940000D01*
X109817000Y-85840000D01*
X109818204Y-85815496D01*
X109821804Y-85791227D01*
X109827765Y-85767429D01*
X109836030Y-85744329D01*
X109846520Y-85722151D01*
X109859133Y-85701107D01*
X109873747Y-85681402D01*
X109890223Y-85663223D01*
X109908402Y-85646747D01*
X109928107Y-85632133D01*
X109949151Y-85619520D01*
X109971329Y-85609030D01*
X109994429Y-85600765D01*
X110018227Y-85594804D01*
X110042496Y-85591204D01*
X110067000Y-85590000D01*
X111167000Y-85590000D01*
X111191504Y-85591204D01*
X111191504Y-85591204D01*
G37*
D17*
X110617000Y-86890000D03*
D16*
G36*
X102034504Y-58476704D02*
G01*
X102058773Y-58480304D01*
X102082571Y-58486265D01*
X102105671Y-58494530D01*
X102127849Y-58505020D01*
X102148893Y-58517633D01*
X102168598Y-58532247D01*
X102186777Y-58548723D01*
X102203253Y-58566902D01*
X102217867Y-58586607D01*
X102230480Y-58607651D01*
X102240970Y-58629829D01*
X102249235Y-58652929D01*
X102255196Y-58676727D01*
X102258796Y-58700996D01*
X102260000Y-58725500D01*
X102260000Y-60825500D01*
X102258796Y-60850004D01*
X102255196Y-60874273D01*
X102249235Y-60898071D01*
X102240970Y-60921171D01*
X102230480Y-60943349D01*
X102217867Y-60964393D01*
X102203253Y-60984098D01*
X102186777Y-61002277D01*
X102168598Y-61018753D01*
X102148893Y-61033367D01*
X102127849Y-61045980D01*
X102105671Y-61056470D01*
X102082571Y-61064735D01*
X102058773Y-61070696D01*
X102034504Y-61074296D01*
X102010000Y-61075500D01*
X100910000Y-61075500D01*
X100885496Y-61074296D01*
X100861227Y-61070696D01*
X100837429Y-61064735D01*
X100814329Y-61056470D01*
X100792151Y-61045980D01*
X100771107Y-61033367D01*
X100751402Y-61018753D01*
X100733223Y-61002277D01*
X100716747Y-60984098D01*
X100702133Y-60964393D01*
X100689520Y-60943349D01*
X100679030Y-60921171D01*
X100670765Y-60898071D01*
X100664804Y-60874273D01*
X100661204Y-60850004D01*
X100660000Y-60825500D01*
X100660000Y-58725500D01*
X100661204Y-58700996D01*
X100664804Y-58676727D01*
X100670765Y-58652929D01*
X100679030Y-58629829D01*
X100689520Y-58607651D01*
X100702133Y-58586607D01*
X100716747Y-58566902D01*
X100733223Y-58548723D01*
X100751402Y-58532247D01*
X100771107Y-58517633D01*
X100792151Y-58505020D01*
X100814329Y-58494530D01*
X100837429Y-58486265D01*
X100861227Y-58480304D01*
X100885496Y-58476704D01*
X100910000Y-58475500D01*
X102010000Y-58475500D01*
X102034504Y-58476704D01*
X102034504Y-58476704D01*
G37*
D17*
X101460000Y-59775500D03*
D16*
G36*
X102034504Y-54876704D02*
G01*
X102058773Y-54880304D01*
X102082571Y-54886265D01*
X102105671Y-54894530D01*
X102127849Y-54905020D01*
X102148893Y-54917633D01*
X102168598Y-54932247D01*
X102186777Y-54948723D01*
X102203253Y-54966902D01*
X102217867Y-54986607D01*
X102230480Y-55007651D01*
X102240970Y-55029829D01*
X102249235Y-55052929D01*
X102255196Y-55076727D01*
X102258796Y-55100996D01*
X102260000Y-55125500D01*
X102260000Y-57225500D01*
X102258796Y-57250004D01*
X102255196Y-57274273D01*
X102249235Y-57298071D01*
X102240970Y-57321171D01*
X102230480Y-57343349D01*
X102217867Y-57364393D01*
X102203253Y-57384098D01*
X102186777Y-57402277D01*
X102168598Y-57418753D01*
X102148893Y-57433367D01*
X102127849Y-57445980D01*
X102105671Y-57456470D01*
X102082571Y-57464735D01*
X102058773Y-57470696D01*
X102034504Y-57474296D01*
X102010000Y-57475500D01*
X100910000Y-57475500D01*
X100885496Y-57474296D01*
X100861227Y-57470696D01*
X100837429Y-57464735D01*
X100814329Y-57456470D01*
X100792151Y-57445980D01*
X100771107Y-57433367D01*
X100751402Y-57418753D01*
X100733223Y-57402277D01*
X100716747Y-57384098D01*
X100702133Y-57364393D01*
X100689520Y-57343349D01*
X100679030Y-57321171D01*
X100670765Y-57298071D01*
X100664804Y-57274273D01*
X100661204Y-57250004D01*
X100660000Y-57225500D01*
X100660000Y-55125500D01*
X100661204Y-55100996D01*
X100664804Y-55076727D01*
X100670765Y-55052929D01*
X100679030Y-55029829D01*
X100689520Y-55007651D01*
X100702133Y-54986607D01*
X100716747Y-54966902D01*
X100733223Y-54948723D01*
X100751402Y-54932247D01*
X100771107Y-54917633D01*
X100792151Y-54905020D01*
X100814329Y-54894530D01*
X100837429Y-54886265D01*
X100861227Y-54880304D01*
X100885496Y-54876704D01*
X100910000Y-54875500D01*
X102010000Y-54875500D01*
X102034504Y-54876704D01*
X102034504Y-54876704D01*
G37*
D17*
X101460000Y-56175500D03*
D16*
G36*
X103618505Y-69633804D02*
G01*
X103642773Y-69637404D01*
X103666572Y-69643365D01*
X103689671Y-69651630D01*
X103711850Y-69662120D01*
X103732893Y-69674732D01*
X103752599Y-69689347D01*
X103770777Y-69705823D01*
X103787253Y-69724001D01*
X103801868Y-69743707D01*
X103814480Y-69764750D01*
X103824970Y-69786929D01*
X103833235Y-69810028D01*
X103839196Y-69833827D01*
X103842796Y-69858095D01*
X103844000Y-69882599D01*
X103844000Y-70782601D01*
X103842796Y-70807105D01*
X103839196Y-70831373D01*
X103833235Y-70855172D01*
X103824970Y-70878271D01*
X103814480Y-70900450D01*
X103801868Y-70921493D01*
X103787253Y-70941199D01*
X103770777Y-70959377D01*
X103752599Y-70975853D01*
X103732893Y-70990468D01*
X103711850Y-71003080D01*
X103689671Y-71013570D01*
X103666572Y-71021835D01*
X103642773Y-71027796D01*
X103618505Y-71031396D01*
X103594001Y-71032600D01*
X102943999Y-71032600D01*
X102919495Y-71031396D01*
X102895227Y-71027796D01*
X102871428Y-71021835D01*
X102848329Y-71013570D01*
X102826150Y-71003080D01*
X102805107Y-70990468D01*
X102785401Y-70975853D01*
X102767223Y-70959377D01*
X102750747Y-70941199D01*
X102736132Y-70921493D01*
X102723520Y-70900450D01*
X102713030Y-70878271D01*
X102704765Y-70855172D01*
X102698804Y-70831373D01*
X102695204Y-70807105D01*
X102694000Y-70782601D01*
X102694000Y-69882599D01*
X102695204Y-69858095D01*
X102698804Y-69833827D01*
X102704765Y-69810028D01*
X102713030Y-69786929D01*
X102723520Y-69764750D01*
X102736132Y-69743707D01*
X102750747Y-69724001D01*
X102767223Y-69705823D01*
X102785401Y-69689347D01*
X102805107Y-69674732D01*
X102826150Y-69662120D01*
X102848329Y-69651630D01*
X102871428Y-69643365D01*
X102895227Y-69637404D01*
X102919495Y-69633804D01*
X102943999Y-69632600D01*
X103594001Y-69632600D01*
X103618505Y-69633804D01*
X103618505Y-69633804D01*
G37*
D18*
X103269000Y-70332600D03*
D16*
G36*
X101568505Y-69633804D02*
G01*
X101592773Y-69637404D01*
X101616572Y-69643365D01*
X101639671Y-69651630D01*
X101661850Y-69662120D01*
X101682893Y-69674732D01*
X101702599Y-69689347D01*
X101720777Y-69705823D01*
X101737253Y-69724001D01*
X101751868Y-69743707D01*
X101764480Y-69764750D01*
X101774970Y-69786929D01*
X101783235Y-69810028D01*
X101789196Y-69833827D01*
X101792796Y-69858095D01*
X101794000Y-69882599D01*
X101794000Y-70782601D01*
X101792796Y-70807105D01*
X101789196Y-70831373D01*
X101783235Y-70855172D01*
X101774970Y-70878271D01*
X101764480Y-70900450D01*
X101751868Y-70921493D01*
X101737253Y-70941199D01*
X101720777Y-70959377D01*
X101702599Y-70975853D01*
X101682893Y-70990468D01*
X101661850Y-71003080D01*
X101639671Y-71013570D01*
X101616572Y-71021835D01*
X101592773Y-71027796D01*
X101568505Y-71031396D01*
X101544001Y-71032600D01*
X100893999Y-71032600D01*
X100869495Y-71031396D01*
X100845227Y-71027796D01*
X100821428Y-71021835D01*
X100798329Y-71013570D01*
X100776150Y-71003080D01*
X100755107Y-70990468D01*
X100735401Y-70975853D01*
X100717223Y-70959377D01*
X100700747Y-70941199D01*
X100686132Y-70921493D01*
X100673520Y-70900450D01*
X100663030Y-70878271D01*
X100654765Y-70855172D01*
X100648804Y-70831373D01*
X100645204Y-70807105D01*
X100644000Y-70782601D01*
X100644000Y-69882599D01*
X100645204Y-69858095D01*
X100648804Y-69833827D01*
X100654765Y-69810028D01*
X100663030Y-69786929D01*
X100673520Y-69764750D01*
X100686132Y-69743707D01*
X100700747Y-69724001D01*
X100717223Y-69705823D01*
X100735401Y-69689347D01*
X100755107Y-69674732D01*
X100776150Y-69662120D01*
X100798329Y-69651630D01*
X100821428Y-69643365D01*
X100845227Y-69637404D01*
X100869495Y-69633804D01*
X100893999Y-69632600D01*
X101544001Y-69632600D01*
X101568505Y-69633804D01*
X101568505Y-69633804D01*
G37*
D18*
X101219000Y-70332600D03*
D16*
G36*
X89247505Y-80942204D02*
G01*
X89271773Y-80945804D01*
X89295572Y-80951765D01*
X89318671Y-80960030D01*
X89340850Y-80970520D01*
X89361893Y-80983132D01*
X89381599Y-80997747D01*
X89399777Y-81014223D01*
X89416253Y-81032401D01*
X89430868Y-81052107D01*
X89443480Y-81073150D01*
X89453970Y-81095329D01*
X89462235Y-81118428D01*
X89468196Y-81142227D01*
X89471796Y-81166495D01*
X89473000Y-81190999D01*
X89473000Y-81841001D01*
X89471796Y-81865505D01*
X89468196Y-81889773D01*
X89462235Y-81913572D01*
X89453970Y-81936671D01*
X89443480Y-81958850D01*
X89430868Y-81979893D01*
X89416253Y-81999599D01*
X89399777Y-82017777D01*
X89381599Y-82034253D01*
X89361893Y-82048868D01*
X89340850Y-82061480D01*
X89318671Y-82071970D01*
X89295572Y-82080235D01*
X89271773Y-82086196D01*
X89247505Y-82089796D01*
X89223001Y-82091000D01*
X88322999Y-82091000D01*
X88298495Y-82089796D01*
X88274227Y-82086196D01*
X88250428Y-82080235D01*
X88227329Y-82071970D01*
X88205150Y-82061480D01*
X88184107Y-82048868D01*
X88164401Y-82034253D01*
X88146223Y-82017777D01*
X88129747Y-81999599D01*
X88115132Y-81979893D01*
X88102520Y-81958850D01*
X88092030Y-81936671D01*
X88083765Y-81913572D01*
X88077804Y-81889773D01*
X88074204Y-81865505D01*
X88073000Y-81841001D01*
X88073000Y-81190999D01*
X88074204Y-81166495D01*
X88077804Y-81142227D01*
X88083765Y-81118428D01*
X88092030Y-81095329D01*
X88102520Y-81073150D01*
X88115132Y-81052107D01*
X88129747Y-81032401D01*
X88146223Y-81014223D01*
X88164401Y-80997747D01*
X88184107Y-80983132D01*
X88205150Y-80970520D01*
X88227329Y-80960030D01*
X88250428Y-80951765D01*
X88274227Y-80945804D01*
X88298495Y-80942204D01*
X88322999Y-80941000D01*
X89223001Y-80941000D01*
X89247505Y-80942204D01*
X89247505Y-80942204D01*
G37*
D18*
X88773000Y-81516000D03*
D16*
G36*
X89247505Y-82992204D02*
G01*
X89271773Y-82995804D01*
X89295572Y-83001765D01*
X89318671Y-83010030D01*
X89340850Y-83020520D01*
X89361893Y-83033132D01*
X89381599Y-83047747D01*
X89399777Y-83064223D01*
X89416253Y-83082401D01*
X89430868Y-83102107D01*
X89443480Y-83123150D01*
X89453970Y-83145329D01*
X89462235Y-83168428D01*
X89468196Y-83192227D01*
X89471796Y-83216495D01*
X89473000Y-83240999D01*
X89473000Y-83891001D01*
X89471796Y-83915505D01*
X89468196Y-83939773D01*
X89462235Y-83963572D01*
X89453970Y-83986671D01*
X89443480Y-84008850D01*
X89430868Y-84029893D01*
X89416253Y-84049599D01*
X89399777Y-84067777D01*
X89381599Y-84084253D01*
X89361893Y-84098868D01*
X89340850Y-84111480D01*
X89318671Y-84121970D01*
X89295572Y-84130235D01*
X89271773Y-84136196D01*
X89247505Y-84139796D01*
X89223001Y-84141000D01*
X88322999Y-84141000D01*
X88298495Y-84139796D01*
X88274227Y-84136196D01*
X88250428Y-84130235D01*
X88227329Y-84121970D01*
X88205150Y-84111480D01*
X88184107Y-84098868D01*
X88164401Y-84084253D01*
X88146223Y-84067777D01*
X88129747Y-84049599D01*
X88115132Y-84029893D01*
X88102520Y-84008850D01*
X88092030Y-83986671D01*
X88083765Y-83963572D01*
X88077804Y-83939773D01*
X88074204Y-83915505D01*
X88073000Y-83891001D01*
X88073000Y-83240999D01*
X88074204Y-83216495D01*
X88077804Y-83192227D01*
X88083765Y-83168428D01*
X88092030Y-83145329D01*
X88102520Y-83123150D01*
X88115132Y-83102107D01*
X88129747Y-83082401D01*
X88146223Y-83064223D01*
X88164401Y-83047747D01*
X88184107Y-83033132D01*
X88205150Y-83020520D01*
X88227329Y-83010030D01*
X88250428Y-83001765D01*
X88274227Y-82995804D01*
X88298495Y-82992204D01*
X88322999Y-82991000D01*
X89223001Y-82991000D01*
X89247505Y-82992204D01*
X89247505Y-82992204D01*
G37*
D18*
X88773000Y-83566000D03*
D16*
G36*
X98901505Y-72199204D02*
G01*
X98925773Y-72202804D01*
X98949572Y-72208765D01*
X98972671Y-72217030D01*
X98994850Y-72227520D01*
X99015893Y-72240132D01*
X99035599Y-72254747D01*
X99053777Y-72271223D01*
X99070253Y-72289401D01*
X99084868Y-72309107D01*
X99097480Y-72330150D01*
X99107970Y-72352329D01*
X99116235Y-72375428D01*
X99122196Y-72399227D01*
X99125796Y-72423495D01*
X99127000Y-72447999D01*
X99127000Y-73348001D01*
X99125796Y-73372505D01*
X99122196Y-73396773D01*
X99116235Y-73420572D01*
X99107970Y-73443671D01*
X99097480Y-73465850D01*
X99084868Y-73486893D01*
X99070253Y-73506599D01*
X99053777Y-73524777D01*
X99035599Y-73541253D01*
X99015893Y-73555868D01*
X98994850Y-73568480D01*
X98972671Y-73578970D01*
X98949572Y-73587235D01*
X98925773Y-73593196D01*
X98901505Y-73596796D01*
X98877001Y-73598000D01*
X98226999Y-73598000D01*
X98202495Y-73596796D01*
X98178227Y-73593196D01*
X98154428Y-73587235D01*
X98131329Y-73578970D01*
X98109150Y-73568480D01*
X98088107Y-73555868D01*
X98068401Y-73541253D01*
X98050223Y-73524777D01*
X98033747Y-73506599D01*
X98019132Y-73486893D01*
X98006520Y-73465850D01*
X97996030Y-73443671D01*
X97987765Y-73420572D01*
X97981804Y-73396773D01*
X97978204Y-73372505D01*
X97977000Y-73348001D01*
X97977000Y-72447999D01*
X97978204Y-72423495D01*
X97981804Y-72399227D01*
X97987765Y-72375428D01*
X97996030Y-72352329D01*
X98006520Y-72330150D01*
X98019132Y-72309107D01*
X98033747Y-72289401D01*
X98050223Y-72271223D01*
X98068401Y-72254747D01*
X98088107Y-72240132D01*
X98109150Y-72227520D01*
X98131329Y-72217030D01*
X98154428Y-72208765D01*
X98178227Y-72202804D01*
X98202495Y-72199204D01*
X98226999Y-72198000D01*
X98877001Y-72198000D01*
X98901505Y-72199204D01*
X98901505Y-72199204D01*
G37*
D18*
X98552000Y-72898000D03*
D16*
G36*
X96851505Y-72199204D02*
G01*
X96875773Y-72202804D01*
X96899572Y-72208765D01*
X96922671Y-72217030D01*
X96944850Y-72227520D01*
X96965893Y-72240132D01*
X96985599Y-72254747D01*
X97003777Y-72271223D01*
X97020253Y-72289401D01*
X97034868Y-72309107D01*
X97047480Y-72330150D01*
X97057970Y-72352329D01*
X97066235Y-72375428D01*
X97072196Y-72399227D01*
X97075796Y-72423495D01*
X97077000Y-72447999D01*
X97077000Y-73348001D01*
X97075796Y-73372505D01*
X97072196Y-73396773D01*
X97066235Y-73420572D01*
X97057970Y-73443671D01*
X97047480Y-73465850D01*
X97034868Y-73486893D01*
X97020253Y-73506599D01*
X97003777Y-73524777D01*
X96985599Y-73541253D01*
X96965893Y-73555868D01*
X96944850Y-73568480D01*
X96922671Y-73578970D01*
X96899572Y-73587235D01*
X96875773Y-73593196D01*
X96851505Y-73596796D01*
X96827001Y-73598000D01*
X96176999Y-73598000D01*
X96152495Y-73596796D01*
X96128227Y-73593196D01*
X96104428Y-73587235D01*
X96081329Y-73578970D01*
X96059150Y-73568480D01*
X96038107Y-73555868D01*
X96018401Y-73541253D01*
X96000223Y-73524777D01*
X95983747Y-73506599D01*
X95969132Y-73486893D01*
X95956520Y-73465850D01*
X95946030Y-73443671D01*
X95937765Y-73420572D01*
X95931804Y-73396773D01*
X95928204Y-73372505D01*
X95927000Y-73348001D01*
X95927000Y-72447999D01*
X95928204Y-72423495D01*
X95931804Y-72399227D01*
X95937765Y-72375428D01*
X95946030Y-72352329D01*
X95956520Y-72330150D01*
X95969132Y-72309107D01*
X95983747Y-72289401D01*
X96000223Y-72271223D01*
X96018401Y-72254747D01*
X96038107Y-72240132D01*
X96059150Y-72227520D01*
X96081329Y-72217030D01*
X96104428Y-72208765D01*
X96128227Y-72202804D01*
X96152495Y-72199204D01*
X96176999Y-72198000D01*
X96827001Y-72198000D01*
X96851505Y-72199204D01*
X96851505Y-72199204D01*
G37*
D18*
X96502000Y-72898000D03*
D16*
G36*
X98901505Y-77279204D02*
G01*
X98925773Y-77282804D01*
X98949572Y-77288765D01*
X98972671Y-77297030D01*
X98994850Y-77307520D01*
X99015893Y-77320132D01*
X99035599Y-77334747D01*
X99053777Y-77351223D01*
X99070253Y-77369401D01*
X99084868Y-77389107D01*
X99097480Y-77410150D01*
X99107970Y-77432329D01*
X99116235Y-77455428D01*
X99122196Y-77479227D01*
X99125796Y-77503495D01*
X99127000Y-77527999D01*
X99127000Y-78428001D01*
X99125796Y-78452505D01*
X99122196Y-78476773D01*
X99116235Y-78500572D01*
X99107970Y-78523671D01*
X99097480Y-78545850D01*
X99084868Y-78566893D01*
X99070253Y-78586599D01*
X99053777Y-78604777D01*
X99035599Y-78621253D01*
X99015893Y-78635868D01*
X98994850Y-78648480D01*
X98972671Y-78658970D01*
X98949572Y-78667235D01*
X98925773Y-78673196D01*
X98901505Y-78676796D01*
X98877001Y-78678000D01*
X98226999Y-78678000D01*
X98202495Y-78676796D01*
X98178227Y-78673196D01*
X98154428Y-78667235D01*
X98131329Y-78658970D01*
X98109150Y-78648480D01*
X98088107Y-78635868D01*
X98068401Y-78621253D01*
X98050223Y-78604777D01*
X98033747Y-78586599D01*
X98019132Y-78566893D01*
X98006520Y-78545850D01*
X97996030Y-78523671D01*
X97987765Y-78500572D01*
X97981804Y-78476773D01*
X97978204Y-78452505D01*
X97977000Y-78428001D01*
X97977000Y-77527999D01*
X97978204Y-77503495D01*
X97981804Y-77479227D01*
X97987765Y-77455428D01*
X97996030Y-77432329D01*
X98006520Y-77410150D01*
X98019132Y-77389107D01*
X98033747Y-77369401D01*
X98050223Y-77351223D01*
X98068401Y-77334747D01*
X98088107Y-77320132D01*
X98109150Y-77307520D01*
X98131329Y-77297030D01*
X98154428Y-77288765D01*
X98178227Y-77282804D01*
X98202495Y-77279204D01*
X98226999Y-77278000D01*
X98877001Y-77278000D01*
X98901505Y-77279204D01*
X98901505Y-77279204D01*
G37*
D18*
X98552000Y-77978000D03*
D16*
G36*
X96851505Y-77279204D02*
G01*
X96875773Y-77282804D01*
X96899572Y-77288765D01*
X96922671Y-77297030D01*
X96944850Y-77307520D01*
X96965893Y-77320132D01*
X96985599Y-77334747D01*
X97003777Y-77351223D01*
X97020253Y-77369401D01*
X97034868Y-77389107D01*
X97047480Y-77410150D01*
X97057970Y-77432329D01*
X97066235Y-77455428D01*
X97072196Y-77479227D01*
X97075796Y-77503495D01*
X97077000Y-77527999D01*
X97077000Y-78428001D01*
X97075796Y-78452505D01*
X97072196Y-78476773D01*
X97066235Y-78500572D01*
X97057970Y-78523671D01*
X97047480Y-78545850D01*
X97034868Y-78566893D01*
X97020253Y-78586599D01*
X97003777Y-78604777D01*
X96985599Y-78621253D01*
X96965893Y-78635868D01*
X96944850Y-78648480D01*
X96922671Y-78658970D01*
X96899572Y-78667235D01*
X96875773Y-78673196D01*
X96851505Y-78676796D01*
X96827001Y-78678000D01*
X96176999Y-78678000D01*
X96152495Y-78676796D01*
X96128227Y-78673196D01*
X96104428Y-78667235D01*
X96081329Y-78658970D01*
X96059150Y-78648480D01*
X96038107Y-78635868D01*
X96018401Y-78621253D01*
X96000223Y-78604777D01*
X95983747Y-78586599D01*
X95969132Y-78566893D01*
X95956520Y-78545850D01*
X95946030Y-78523671D01*
X95937765Y-78500572D01*
X95931804Y-78476773D01*
X95928204Y-78452505D01*
X95927000Y-78428001D01*
X95927000Y-77527999D01*
X95928204Y-77503495D01*
X95931804Y-77479227D01*
X95937765Y-77455428D01*
X95946030Y-77432329D01*
X95956520Y-77410150D01*
X95969132Y-77389107D01*
X95983747Y-77369401D01*
X96000223Y-77351223D01*
X96018401Y-77334747D01*
X96038107Y-77320132D01*
X96059150Y-77307520D01*
X96081329Y-77297030D01*
X96104428Y-77288765D01*
X96128227Y-77282804D01*
X96152495Y-77279204D01*
X96176999Y-77278000D01*
X96827001Y-77278000D01*
X96851505Y-77279204D01*
X96851505Y-77279204D01*
G37*
D18*
X96502000Y-77978000D03*
D16*
G36*
X86691505Y-58229204D02*
G01*
X86715773Y-58232804D01*
X86739572Y-58238765D01*
X86762671Y-58247030D01*
X86784850Y-58257520D01*
X86805893Y-58270132D01*
X86825599Y-58284747D01*
X86843777Y-58301223D01*
X86860253Y-58319401D01*
X86874868Y-58339107D01*
X86887480Y-58360150D01*
X86897970Y-58382329D01*
X86906235Y-58405428D01*
X86912196Y-58429227D01*
X86915796Y-58453495D01*
X86917000Y-58477999D01*
X86917000Y-59378001D01*
X86915796Y-59402505D01*
X86912196Y-59426773D01*
X86906235Y-59450572D01*
X86897970Y-59473671D01*
X86887480Y-59495850D01*
X86874868Y-59516893D01*
X86860253Y-59536599D01*
X86843777Y-59554777D01*
X86825599Y-59571253D01*
X86805893Y-59585868D01*
X86784850Y-59598480D01*
X86762671Y-59608970D01*
X86739572Y-59617235D01*
X86715773Y-59623196D01*
X86691505Y-59626796D01*
X86667001Y-59628000D01*
X86016999Y-59628000D01*
X85992495Y-59626796D01*
X85968227Y-59623196D01*
X85944428Y-59617235D01*
X85921329Y-59608970D01*
X85899150Y-59598480D01*
X85878107Y-59585868D01*
X85858401Y-59571253D01*
X85840223Y-59554777D01*
X85823747Y-59536599D01*
X85809132Y-59516893D01*
X85796520Y-59495850D01*
X85786030Y-59473671D01*
X85777765Y-59450572D01*
X85771804Y-59426773D01*
X85768204Y-59402505D01*
X85767000Y-59378001D01*
X85767000Y-58477999D01*
X85768204Y-58453495D01*
X85771804Y-58429227D01*
X85777765Y-58405428D01*
X85786030Y-58382329D01*
X85796520Y-58360150D01*
X85809132Y-58339107D01*
X85823747Y-58319401D01*
X85840223Y-58301223D01*
X85858401Y-58284747D01*
X85878107Y-58270132D01*
X85899150Y-58257520D01*
X85921329Y-58247030D01*
X85944428Y-58238765D01*
X85968227Y-58232804D01*
X85992495Y-58229204D01*
X86016999Y-58228000D01*
X86667001Y-58228000D01*
X86691505Y-58229204D01*
X86691505Y-58229204D01*
G37*
D18*
X86342000Y-58928000D03*
D16*
G36*
X88741505Y-58229204D02*
G01*
X88765773Y-58232804D01*
X88789572Y-58238765D01*
X88812671Y-58247030D01*
X88834850Y-58257520D01*
X88855893Y-58270132D01*
X88875599Y-58284747D01*
X88893777Y-58301223D01*
X88910253Y-58319401D01*
X88924868Y-58339107D01*
X88937480Y-58360150D01*
X88947970Y-58382329D01*
X88956235Y-58405428D01*
X88962196Y-58429227D01*
X88965796Y-58453495D01*
X88967000Y-58477999D01*
X88967000Y-59378001D01*
X88965796Y-59402505D01*
X88962196Y-59426773D01*
X88956235Y-59450572D01*
X88947970Y-59473671D01*
X88937480Y-59495850D01*
X88924868Y-59516893D01*
X88910253Y-59536599D01*
X88893777Y-59554777D01*
X88875599Y-59571253D01*
X88855893Y-59585868D01*
X88834850Y-59598480D01*
X88812671Y-59608970D01*
X88789572Y-59617235D01*
X88765773Y-59623196D01*
X88741505Y-59626796D01*
X88717001Y-59628000D01*
X88066999Y-59628000D01*
X88042495Y-59626796D01*
X88018227Y-59623196D01*
X87994428Y-59617235D01*
X87971329Y-59608970D01*
X87949150Y-59598480D01*
X87928107Y-59585868D01*
X87908401Y-59571253D01*
X87890223Y-59554777D01*
X87873747Y-59536599D01*
X87859132Y-59516893D01*
X87846520Y-59495850D01*
X87836030Y-59473671D01*
X87827765Y-59450572D01*
X87821804Y-59426773D01*
X87818204Y-59402505D01*
X87817000Y-59378001D01*
X87817000Y-58477999D01*
X87818204Y-58453495D01*
X87821804Y-58429227D01*
X87827765Y-58405428D01*
X87836030Y-58382329D01*
X87846520Y-58360150D01*
X87859132Y-58339107D01*
X87873747Y-58319401D01*
X87890223Y-58301223D01*
X87908401Y-58284747D01*
X87928107Y-58270132D01*
X87949150Y-58257520D01*
X87971329Y-58247030D01*
X87994428Y-58238765D01*
X88018227Y-58232804D01*
X88042495Y-58229204D01*
X88066999Y-58228000D01*
X88717001Y-58228000D01*
X88741505Y-58229204D01*
X88741505Y-58229204D01*
G37*
D18*
X88392000Y-58928000D03*
D16*
G36*
X107281505Y-82856204D02*
G01*
X107305773Y-82859804D01*
X107329572Y-82865765D01*
X107352671Y-82874030D01*
X107374850Y-82884520D01*
X107395893Y-82897132D01*
X107415599Y-82911747D01*
X107433777Y-82928223D01*
X107450253Y-82946401D01*
X107464868Y-82966107D01*
X107477480Y-82987150D01*
X107487970Y-83009329D01*
X107496235Y-83032428D01*
X107502196Y-83056227D01*
X107505796Y-83080495D01*
X107507000Y-83104999D01*
X107507000Y-83755001D01*
X107505796Y-83779505D01*
X107502196Y-83803773D01*
X107496235Y-83827572D01*
X107487970Y-83850671D01*
X107477480Y-83872850D01*
X107464868Y-83893893D01*
X107450253Y-83913599D01*
X107433777Y-83931777D01*
X107415599Y-83948253D01*
X107395893Y-83962868D01*
X107374850Y-83975480D01*
X107352671Y-83985970D01*
X107329572Y-83994235D01*
X107305773Y-84000196D01*
X107281505Y-84003796D01*
X107257001Y-84005000D01*
X106356999Y-84005000D01*
X106332495Y-84003796D01*
X106308227Y-84000196D01*
X106284428Y-83994235D01*
X106261329Y-83985970D01*
X106239150Y-83975480D01*
X106218107Y-83962868D01*
X106198401Y-83948253D01*
X106180223Y-83931777D01*
X106163747Y-83913599D01*
X106149132Y-83893893D01*
X106136520Y-83872850D01*
X106126030Y-83850671D01*
X106117765Y-83827572D01*
X106111804Y-83803773D01*
X106108204Y-83779505D01*
X106107000Y-83755001D01*
X106107000Y-83104999D01*
X106108204Y-83080495D01*
X106111804Y-83056227D01*
X106117765Y-83032428D01*
X106126030Y-83009329D01*
X106136520Y-82987150D01*
X106149132Y-82966107D01*
X106163747Y-82946401D01*
X106180223Y-82928223D01*
X106198401Y-82911747D01*
X106218107Y-82897132D01*
X106239150Y-82884520D01*
X106261329Y-82874030D01*
X106284428Y-82865765D01*
X106308227Y-82859804D01*
X106332495Y-82856204D01*
X106356999Y-82855000D01*
X107257001Y-82855000D01*
X107281505Y-82856204D01*
X107281505Y-82856204D01*
G37*
D18*
X106807000Y-83430000D03*
D16*
G36*
X107281505Y-84906204D02*
G01*
X107305773Y-84909804D01*
X107329572Y-84915765D01*
X107352671Y-84924030D01*
X107374850Y-84934520D01*
X107395893Y-84947132D01*
X107415599Y-84961747D01*
X107433777Y-84978223D01*
X107450253Y-84996401D01*
X107464868Y-85016107D01*
X107477480Y-85037150D01*
X107487970Y-85059329D01*
X107496235Y-85082428D01*
X107502196Y-85106227D01*
X107505796Y-85130495D01*
X107507000Y-85154999D01*
X107507000Y-85805001D01*
X107505796Y-85829505D01*
X107502196Y-85853773D01*
X107496235Y-85877572D01*
X107487970Y-85900671D01*
X107477480Y-85922850D01*
X107464868Y-85943893D01*
X107450253Y-85963599D01*
X107433777Y-85981777D01*
X107415599Y-85998253D01*
X107395893Y-86012868D01*
X107374850Y-86025480D01*
X107352671Y-86035970D01*
X107329572Y-86044235D01*
X107305773Y-86050196D01*
X107281505Y-86053796D01*
X107257001Y-86055000D01*
X106356999Y-86055000D01*
X106332495Y-86053796D01*
X106308227Y-86050196D01*
X106284428Y-86044235D01*
X106261329Y-86035970D01*
X106239150Y-86025480D01*
X106218107Y-86012868D01*
X106198401Y-85998253D01*
X106180223Y-85981777D01*
X106163747Y-85963599D01*
X106149132Y-85943893D01*
X106136520Y-85922850D01*
X106126030Y-85900671D01*
X106117765Y-85877572D01*
X106111804Y-85853773D01*
X106108204Y-85829505D01*
X106107000Y-85805001D01*
X106107000Y-85154999D01*
X106108204Y-85130495D01*
X106111804Y-85106227D01*
X106117765Y-85082428D01*
X106126030Y-85059329D01*
X106136520Y-85037150D01*
X106149132Y-85016107D01*
X106163747Y-84996401D01*
X106180223Y-84978223D01*
X106198401Y-84961747D01*
X106218107Y-84947132D01*
X106239150Y-84934520D01*
X106261329Y-84924030D01*
X106284428Y-84915765D01*
X106308227Y-84909804D01*
X106332495Y-84906204D01*
X106356999Y-84905000D01*
X107257001Y-84905000D01*
X107281505Y-84906204D01*
X107281505Y-84906204D01*
G37*
D18*
X106807000Y-85480000D03*
D16*
G36*
X105122505Y-82856204D02*
G01*
X105146773Y-82859804D01*
X105170572Y-82865765D01*
X105193671Y-82874030D01*
X105215850Y-82884520D01*
X105236893Y-82897132D01*
X105256599Y-82911747D01*
X105274777Y-82928223D01*
X105291253Y-82946401D01*
X105305868Y-82966107D01*
X105318480Y-82987150D01*
X105328970Y-83009329D01*
X105337235Y-83032428D01*
X105343196Y-83056227D01*
X105346796Y-83080495D01*
X105348000Y-83104999D01*
X105348000Y-83755001D01*
X105346796Y-83779505D01*
X105343196Y-83803773D01*
X105337235Y-83827572D01*
X105328970Y-83850671D01*
X105318480Y-83872850D01*
X105305868Y-83893893D01*
X105291253Y-83913599D01*
X105274777Y-83931777D01*
X105256599Y-83948253D01*
X105236893Y-83962868D01*
X105215850Y-83975480D01*
X105193671Y-83985970D01*
X105170572Y-83994235D01*
X105146773Y-84000196D01*
X105122505Y-84003796D01*
X105098001Y-84005000D01*
X104197999Y-84005000D01*
X104173495Y-84003796D01*
X104149227Y-84000196D01*
X104125428Y-83994235D01*
X104102329Y-83985970D01*
X104080150Y-83975480D01*
X104059107Y-83962868D01*
X104039401Y-83948253D01*
X104021223Y-83931777D01*
X104004747Y-83913599D01*
X103990132Y-83893893D01*
X103977520Y-83872850D01*
X103967030Y-83850671D01*
X103958765Y-83827572D01*
X103952804Y-83803773D01*
X103949204Y-83779505D01*
X103948000Y-83755001D01*
X103948000Y-83104999D01*
X103949204Y-83080495D01*
X103952804Y-83056227D01*
X103958765Y-83032428D01*
X103967030Y-83009329D01*
X103977520Y-82987150D01*
X103990132Y-82966107D01*
X104004747Y-82946401D01*
X104021223Y-82928223D01*
X104039401Y-82911747D01*
X104059107Y-82897132D01*
X104080150Y-82884520D01*
X104102329Y-82874030D01*
X104125428Y-82865765D01*
X104149227Y-82859804D01*
X104173495Y-82856204D01*
X104197999Y-82855000D01*
X105098001Y-82855000D01*
X105122505Y-82856204D01*
X105122505Y-82856204D01*
G37*
D18*
X104648000Y-83430000D03*
D16*
G36*
X105122505Y-84906204D02*
G01*
X105146773Y-84909804D01*
X105170572Y-84915765D01*
X105193671Y-84924030D01*
X105215850Y-84934520D01*
X105236893Y-84947132D01*
X105256599Y-84961747D01*
X105274777Y-84978223D01*
X105291253Y-84996401D01*
X105305868Y-85016107D01*
X105318480Y-85037150D01*
X105328970Y-85059329D01*
X105337235Y-85082428D01*
X105343196Y-85106227D01*
X105346796Y-85130495D01*
X105348000Y-85154999D01*
X105348000Y-85805001D01*
X105346796Y-85829505D01*
X105343196Y-85853773D01*
X105337235Y-85877572D01*
X105328970Y-85900671D01*
X105318480Y-85922850D01*
X105305868Y-85943893D01*
X105291253Y-85963599D01*
X105274777Y-85981777D01*
X105256599Y-85998253D01*
X105236893Y-86012868D01*
X105215850Y-86025480D01*
X105193671Y-86035970D01*
X105170572Y-86044235D01*
X105146773Y-86050196D01*
X105122505Y-86053796D01*
X105098001Y-86055000D01*
X104197999Y-86055000D01*
X104173495Y-86053796D01*
X104149227Y-86050196D01*
X104125428Y-86044235D01*
X104102329Y-86035970D01*
X104080150Y-86025480D01*
X104059107Y-86012868D01*
X104039401Y-85998253D01*
X104021223Y-85981777D01*
X104004747Y-85963599D01*
X103990132Y-85943893D01*
X103977520Y-85922850D01*
X103967030Y-85900671D01*
X103958765Y-85877572D01*
X103952804Y-85853773D01*
X103949204Y-85829505D01*
X103948000Y-85805001D01*
X103948000Y-85154999D01*
X103949204Y-85130495D01*
X103952804Y-85106227D01*
X103958765Y-85082428D01*
X103967030Y-85059329D01*
X103977520Y-85037150D01*
X103990132Y-85016107D01*
X104004747Y-84996401D01*
X104021223Y-84978223D01*
X104039401Y-84961747D01*
X104059107Y-84947132D01*
X104080150Y-84934520D01*
X104102329Y-84924030D01*
X104125428Y-84915765D01*
X104149227Y-84909804D01*
X104173495Y-84906204D01*
X104197999Y-84905000D01*
X105098001Y-84905000D01*
X105122505Y-84906204D01*
X105122505Y-84906204D01*
G37*
D18*
X104648000Y-85480000D03*
D16*
G36*
X89247505Y-77413204D02*
G01*
X89271773Y-77416804D01*
X89295572Y-77422765D01*
X89318671Y-77431030D01*
X89340850Y-77441520D01*
X89361893Y-77454132D01*
X89381599Y-77468747D01*
X89399777Y-77485223D01*
X89416253Y-77503401D01*
X89430868Y-77523107D01*
X89443480Y-77544150D01*
X89453970Y-77566329D01*
X89462235Y-77589428D01*
X89468196Y-77613227D01*
X89471796Y-77637495D01*
X89473000Y-77661999D01*
X89473000Y-78312001D01*
X89471796Y-78336505D01*
X89468196Y-78360773D01*
X89462235Y-78384572D01*
X89453970Y-78407671D01*
X89443480Y-78429850D01*
X89430868Y-78450893D01*
X89416253Y-78470599D01*
X89399777Y-78488777D01*
X89381599Y-78505253D01*
X89361893Y-78519868D01*
X89340850Y-78532480D01*
X89318671Y-78542970D01*
X89295572Y-78551235D01*
X89271773Y-78557196D01*
X89247505Y-78560796D01*
X89223001Y-78562000D01*
X88322999Y-78562000D01*
X88298495Y-78560796D01*
X88274227Y-78557196D01*
X88250428Y-78551235D01*
X88227329Y-78542970D01*
X88205150Y-78532480D01*
X88184107Y-78519868D01*
X88164401Y-78505253D01*
X88146223Y-78488777D01*
X88129747Y-78470599D01*
X88115132Y-78450893D01*
X88102520Y-78429850D01*
X88092030Y-78407671D01*
X88083765Y-78384572D01*
X88077804Y-78360773D01*
X88074204Y-78336505D01*
X88073000Y-78312001D01*
X88073000Y-77661999D01*
X88074204Y-77637495D01*
X88077804Y-77613227D01*
X88083765Y-77589428D01*
X88092030Y-77566329D01*
X88102520Y-77544150D01*
X88115132Y-77523107D01*
X88129747Y-77503401D01*
X88146223Y-77485223D01*
X88164401Y-77468747D01*
X88184107Y-77454132D01*
X88205150Y-77441520D01*
X88227329Y-77431030D01*
X88250428Y-77422765D01*
X88274227Y-77416804D01*
X88298495Y-77413204D01*
X88322999Y-77412000D01*
X89223001Y-77412000D01*
X89247505Y-77413204D01*
X89247505Y-77413204D01*
G37*
D18*
X88773000Y-77987000D03*
D16*
G36*
X89247505Y-75363204D02*
G01*
X89271773Y-75366804D01*
X89295572Y-75372765D01*
X89318671Y-75381030D01*
X89340850Y-75391520D01*
X89361893Y-75404132D01*
X89381599Y-75418747D01*
X89399777Y-75435223D01*
X89416253Y-75453401D01*
X89430868Y-75473107D01*
X89443480Y-75494150D01*
X89453970Y-75516329D01*
X89462235Y-75539428D01*
X89468196Y-75563227D01*
X89471796Y-75587495D01*
X89473000Y-75611999D01*
X89473000Y-76262001D01*
X89471796Y-76286505D01*
X89468196Y-76310773D01*
X89462235Y-76334572D01*
X89453970Y-76357671D01*
X89443480Y-76379850D01*
X89430868Y-76400893D01*
X89416253Y-76420599D01*
X89399777Y-76438777D01*
X89381599Y-76455253D01*
X89361893Y-76469868D01*
X89340850Y-76482480D01*
X89318671Y-76492970D01*
X89295572Y-76501235D01*
X89271773Y-76507196D01*
X89247505Y-76510796D01*
X89223001Y-76512000D01*
X88322999Y-76512000D01*
X88298495Y-76510796D01*
X88274227Y-76507196D01*
X88250428Y-76501235D01*
X88227329Y-76492970D01*
X88205150Y-76482480D01*
X88184107Y-76469868D01*
X88164401Y-76455253D01*
X88146223Y-76438777D01*
X88129747Y-76420599D01*
X88115132Y-76400893D01*
X88102520Y-76379850D01*
X88092030Y-76357671D01*
X88083765Y-76334572D01*
X88077804Y-76310773D01*
X88074204Y-76286505D01*
X88073000Y-76262001D01*
X88073000Y-75611999D01*
X88074204Y-75587495D01*
X88077804Y-75563227D01*
X88083765Y-75539428D01*
X88092030Y-75516329D01*
X88102520Y-75494150D01*
X88115132Y-75473107D01*
X88129747Y-75453401D01*
X88146223Y-75435223D01*
X88164401Y-75418747D01*
X88184107Y-75404132D01*
X88205150Y-75391520D01*
X88227329Y-75381030D01*
X88250428Y-75372765D01*
X88274227Y-75366804D01*
X88298495Y-75363204D01*
X88322999Y-75362000D01*
X89223001Y-75362000D01*
X89247505Y-75363204D01*
X89247505Y-75363204D01*
G37*
D18*
X88773000Y-75937000D03*
D19*
X119380000Y-95631000D03*
X119380000Y-91694000D03*
D20*
X110218000Y-75565000D03*
X119398000Y-75565000D03*
D21*
X95334000Y-84074000D03*
X95334000Y-83124000D03*
X95334000Y-85024000D03*
X93134000Y-85024000D03*
X93134000Y-84074000D03*
X93134000Y-83124000D03*
D22*
X106070000Y-93599000D03*
D23*
X112370000Y-93599000D03*
X112370000Y-91299000D03*
X112370000Y-95899000D03*
D24*
X82618000Y-68332000D03*
X82618000Y-67532000D03*
X82618000Y-66732000D03*
X82618000Y-65932000D03*
X82618000Y-65132000D03*
X82618000Y-64332000D03*
X82618000Y-63532000D03*
X82618000Y-62732000D03*
D25*
X84068000Y-61282000D03*
X84868000Y-61282000D03*
X85668000Y-61282000D03*
X86468000Y-61282000D03*
X87268000Y-61282000D03*
X88068000Y-61282000D03*
X88868000Y-61282000D03*
X89668000Y-61282000D03*
D24*
X91118000Y-62732000D03*
X91118000Y-63532000D03*
X91118000Y-64332000D03*
X91118000Y-65132000D03*
X91118000Y-65932000D03*
X91118000Y-66732000D03*
X91118000Y-67532000D03*
X91118000Y-68332000D03*
D25*
X89668000Y-69782000D03*
X88868000Y-69782000D03*
X88068000Y-69782000D03*
X87268000Y-69782000D03*
X86468000Y-69782000D03*
X85668000Y-69782000D03*
X84868000Y-69782000D03*
X84068000Y-69782000D03*
D14*
X84455000Y-88646000D03*
X84455000Y-86106000D03*
X84455000Y-83566000D03*
X84455000Y-81026000D03*
X84455000Y-78486000D03*
D15*
X84455000Y-75946000D03*
D26*
X105893000Y-70362600D03*
X105893000Y-68362600D03*
X105893000Y-66362600D03*
X105893000Y-64362600D03*
X105893000Y-62362600D03*
X105893000Y-60362600D03*
X105893000Y-58362600D03*
D27*
X105893000Y-56362600D03*
D28*
X102235000Y-72948800D03*
X102235000Y-75488800D03*
D11*
X102235000Y-78028800D03*
D29*
X93500700Y-70141900D03*
X88007700Y-66140600D03*
X92548000Y-63528300D03*
X86901700Y-96161600D03*
X89666600Y-66962900D03*
X95305700Y-86074400D03*
X91412100Y-72281300D03*
X84219400Y-63839900D03*
X91966200Y-71305700D03*
X86406900Y-63140800D03*
X111125000Y-54219700D03*
X90665500Y-54220600D03*
D30*
X110617000Y-86890000D02*
X110617000Y-91846000D01*
X110617000Y-91846000D02*
X111294700Y-92523700D01*
X111294700Y-92523700D02*
X112370000Y-92523700D01*
X109207000Y-85480000D02*
X110617000Y-86890000D01*
X112370000Y-93599000D02*
X112370000Y-92523700D01*
X95334000Y-83124000D02*
X94478700Y-83124000D01*
X94478700Y-83124000D02*
X94478700Y-82961300D01*
X94478700Y-82961300D02*
X93991100Y-82473700D01*
X93991100Y-82473700D02*
X89865300Y-82473700D01*
X89865300Y-82473700D02*
X88773000Y-83566000D01*
X104648000Y-85480000D02*
X102292000Y-83124000D01*
X102292000Y-83124000D02*
X95334000Y-83124000D01*
X88437000Y-83566000D02*
X88773000Y-83566000D01*
X85630300Y-83566000D02*
X88437000Y-83566000D01*
X88437000Y-83566000D02*
X88437000Y-93896400D01*
X88437000Y-93896400D02*
X88644200Y-94103600D01*
X88644200Y-94103600D02*
X89925700Y-94103600D01*
X89925700Y-94103600D02*
X90997300Y-95175200D01*
X90997300Y-95175200D02*
X90997300Y-96227900D01*
X95948500Y-57061100D02*
X97123800Y-57061100D01*
X101460000Y-56175500D02*
X98009400Y-56175500D01*
X98009400Y-56175500D02*
X97123800Y-57061100D01*
X104892700Y-56362600D02*
X104705600Y-56175500D01*
X104705600Y-56175500D02*
X101460000Y-56175500D01*
X91922600Y-96227900D02*
X90997300Y-96227900D01*
X106989200Y-71363000D02*
X102249400Y-71363000D01*
X102249400Y-71363000D02*
X101219000Y-70332600D01*
X109207000Y-85480000D02*
X109207000Y-82256600D01*
X109207000Y-82256600D02*
X111633400Y-79830200D01*
X111633400Y-79830200D02*
X111633400Y-74628400D01*
X111633400Y-74628400D02*
X108368000Y-71363000D01*
X108368000Y-71363000D02*
X106989200Y-71363000D01*
X105441100Y-56362600D02*
X106989200Y-57910700D01*
X106989200Y-57910700D02*
X106989200Y-71363000D01*
X84455000Y-83566000D02*
X85630300Y-83566000D01*
X88868000Y-61282000D02*
X88868000Y-60156700D01*
X95948500Y-57061100D02*
X91963600Y-57061100D01*
X91963600Y-57061100D02*
X88868000Y-60156700D01*
X88868000Y-62407300D02*
X88868000Y-67856700D01*
X88868000Y-67856700D02*
X88068000Y-68656700D01*
X106807000Y-85480000D02*
X104648000Y-85480000D01*
X86468000Y-68656700D02*
X88068000Y-68656700D01*
X88068000Y-69782000D02*
X88068000Y-68656700D01*
X106807000Y-85480000D02*
X109207000Y-85480000D01*
X105441100Y-56362600D02*
X104892700Y-56362600D01*
X105893000Y-56362600D02*
X105441100Y-56362600D01*
X88868000Y-61282000D02*
X88868000Y-62407300D01*
X86468000Y-69782000D02*
X86468000Y-68656700D01*
X93500700Y-70141900D02*
X92104300Y-70141900D01*
X92104300Y-70141900D02*
X89822900Y-72423300D01*
X89822900Y-72423300D02*
X89822900Y-76937100D01*
X89822900Y-76937100D02*
X88773000Y-77987000D01*
X82618000Y-65932000D02*
X81492700Y-65932000D01*
X81492700Y-65932000D02*
X80583900Y-66840800D01*
X80583900Y-66840800D02*
X80583900Y-78823300D01*
X80583900Y-78823300D02*
X84056600Y-82296000D01*
X84056600Y-82296000D02*
X87993000Y-82296000D01*
X87993000Y-82296000D02*
X88773000Y-81516000D01*
X88773000Y-77987000D02*
X88773000Y-81516000D01*
X84455000Y-75946000D02*
X85630300Y-75946000D01*
X88773000Y-75937000D02*
X85639300Y-75937000D01*
X85639300Y-75937000D02*
X85630300Y-75946000D01*
X112370000Y-91299000D02*
X113695300Y-91299000D01*
X113734700Y-91694000D02*
X113734700Y-94473400D01*
X113734700Y-94473400D02*
X113533700Y-94674400D01*
X113533700Y-94674400D02*
X110166600Y-94674400D01*
X110166600Y-94674400D02*
X109016600Y-95824400D01*
X109016600Y-95824400D02*
X98626100Y-95824400D01*
X98626100Y-95824400D02*
X93989300Y-91187600D01*
X113695300Y-91299000D02*
X113695300Y-91654600D01*
X113695300Y-91654600D02*
X113734700Y-91694000D01*
X113734700Y-91694000D02*
X119380000Y-91694000D01*
X93989300Y-91187600D02*
X92974900Y-92202000D01*
X93989300Y-83124000D02*
X93989300Y-91187600D01*
X119380000Y-91694000D02*
X119380000Y-86890000D01*
X93134000Y-83124000D02*
X93989300Y-83124000D01*
X92049600Y-92202000D02*
X92974900Y-92202000D01*
X87268000Y-61282000D02*
X87268000Y-60052000D01*
X87268000Y-60052000D02*
X88392000Y-58928000D01*
X102235000Y-72948800D02*
X98602800Y-72948800D01*
X98602800Y-72948800D02*
X98552000Y-72898000D01*
X102235000Y-78028800D02*
X98602800Y-78028800D01*
X98602800Y-78028800D02*
X98552000Y-77978000D01*
X103269000Y-70332600D02*
X101493400Y-68557000D01*
X101493400Y-68557000D02*
X95598700Y-68557000D01*
X95598700Y-68557000D02*
X92243300Y-65201600D01*
X92243300Y-65201600D02*
X92243300Y-64332000D01*
X103269000Y-70332600D02*
X104862700Y-70332600D01*
X104862700Y-70332600D02*
X104892700Y-70362600D01*
X91118000Y-64332000D02*
X92243300Y-64332000D01*
X105893000Y-70362600D02*
X104892700Y-70362600D01*
X88007700Y-66140600D02*
X85816300Y-68332000D01*
X85816300Y-68332000D02*
X82618000Y-68332000D01*
X105893000Y-64362600D02*
X104892700Y-64362600D01*
X104892700Y-64362600D02*
X103209500Y-66045800D01*
X103209500Y-66045800D02*
X95948500Y-66045800D01*
X95948500Y-66045800D02*
X95612800Y-66045800D01*
X95612800Y-66045800D02*
X93722100Y-64155100D01*
X93722100Y-64155100D02*
X93722100Y-63649100D01*
X93722100Y-63649100D02*
X92805000Y-62732000D01*
X92805000Y-62732000D02*
X92243300Y-62732000D01*
X95948500Y-67221100D02*
X95948500Y-66045800D01*
X91118000Y-62732000D02*
X92243300Y-62732000D01*
X95948500Y-64681100D02*
X92549400Y-61282000D01*
X92549400Y-61282000D02*
X89668000Y-61282000D01*
X91118000Y-63532000D02*
X92243300Y-63532000D01*
X92548000Y-63528300D02*
X92247000Y-63528300D01*
X92247000Y-63528300D02*
X92243300Y-63532000D01*
X89382600Y-96215200D02*
X88457300Y-96215200D01*
X86901700Y-96161600D02*
X88403700Y-96161600D01*
X88403700Y-96161600D02*
X88457300Y-96215200D01*
X91118000Y-65132000D02*
X89992700Y-65132000D01*
X89992700Y-65132000D02*
X89992700Y-66636800D01*
X89992700Y-66636800D02*
X89666600Y-66962900D01*
X95334000Y-85024000D02*
X94478700Y-85024000D01*
X95305700Y-86074400D02*
X95023800Y-86074400D01*
X95023800Y-86074400D02*
X94478700Y-85529300D01*
X94478700Y-85529300D02*
X94478700Y-85024000D01*
X89382600Y-92278200D02*
X90307900Y-92278200D01*
X93134000Y-85024000D02*
X92278700Y-85024000D01*
X92278700Y-85024000D02*
X90307900Y-86994800D01*
X90307900Y-86994800D02*
X90307900Y-92278200D01*
X84455000Y-81026000D02*
X84455000Y-79850700D01*
X82618000Y-66732000D02*
X81492700Y-66732000D01*
X81492700Y-66732000D02*
X81042300Y-67182400D01*
X81042300Y-67182400D02*
X81042300Y-76805300D01*
X81042300Y-76805300D02*
X84087700Y-79850700D01*
X84087700Y-79850700D02*
X84455000Y-79850700D01*
X82618000Y-67532000D02*
X81492700Y-67532000D01*
X84455000Y-78486000D02*
X84455000Y-77310700D01*
X84455000Y-77310700D02*
X83647000Y-77310700D01*
X83647000Y-77310700D02*
X81492700Y-75156400D01*
X81492700Y-75156400D02*
X81492700Y-67532000D01*
X84068000Y-61282000D02*
X84068000Y-62407300D01*
X84068000Y-62407300D02*
X84068000Y-63688500D01*
X84068000Y-63688500D02*
X84219400Y-63839900D01*
X91412100Y-72281300D02*
X96502000Y-77371200D01*
X96502000Y-77371200D02*
X96502000Y-77978000D01*
X84868000Y-61282000D02*
X84868000Y-62407300D01*
X91966200Y-71305700D02*
X94909700Y-71305700D01*
X94909700Y-71305700D02*
X96502000Y-72898000D01*
X84868000Y-62407300D02*
X85673400Y-62407300D01*
X85673400Y-62407300D02*
X86406900Y-63140800D01*
X110218000Y-75565000D02*
X110218000Y-74439700D01*
X91118000Y-65932000D02*
X92243300Y-65932000D01*
X92243300Y-65932000D02*
X92243300Y-67718100D01*
X92243300Y-67718100D02*
X96113300Y-71588100D01*
X96113300Y-71588100D02*
X96817500Y-71588100D01*
X96817500Y-71588100D02*
X97609400Y-72380000D01*
X97609400Y-72380000D02*
X97609400Y-73613500D01*
X97609400Y-73613500D02*
X98214700Y-74218800D01*
X98214700Y-74218800D02*
X109997100Y-74218800D01*
X109997100Y-74218800D02*
X110218000Y-74439700D01*
X82618000Y-63532000D02*
X81492700Y-63532000D01*
X81492700Y-63532000D02*
X78486000Y-66538700D01*
X78486000Y-66538700D02*
X78486000Y-73025000D01*
X125984000Y-73025000D02*
X124758700Y-73025000D01*
X82618000Y-62732000D02*
X82618000Y-60968900D01*
X82618000Y-60968900D02*
X88030600Y-55556300D01*
X88030600Y-55556300D02*
X96015600Y-55556300D01*
X96015600Y-55556300D02*
X97044500Y-54527400D01*
X97044500Y-54527400D02*
X106261100Y-54527400D01*
X106261100Y-54527400D02*
X124758700Y-73025000D01*
X112395000Y-54229000D02*
X111469700Y-54229000D01*
X111125000Y-54219700D02*
X111460400Y-54219700D01*
X111460400Y-54219700D02*
X111469700Y-54229000D01*
X89383000Y-54229000D02*
X90657100Y-54229000D01*
X90657100Y-54229000D02*
X90665500Y-54220600D01*
X114935000Y-54229000D02*
X114009700Y-54229000D01*
X91948000Y-54229000D02*
X92873300Y-54229000D01*
X92873300Y-54229000D02*
X93041500Y-54060800D01*
X93041500Y-54060800D02*
X106774400Y-54060800D01*
X106774400Y-54060800D02*
X108268000Y-55554400D01*
X108268000Y-55554400D02*
X113146900Y-55554400D01*
X113146900Y-55554400D02*
X114009700Y-54691600D01*
X114009700Y-54691600D02*
X114009700Y-54229000D01*
D31*
G36*
X124194901Y-73536003D02*
G01*
X124218699Y-73565001D01*
X124334424Y-73659974D01*
X124466453Y-73730546D01*
X124609714Y-73774003D01*
X124645728Y-73777550D01*
X124701519Y-73881927D01*
X124893339Y-74115661D01*
X125127073Y-74307481D01*
X125393739Y-74450017D01*
X125683087Y-74537790D01*
X125908592Y-74560000D01*
X126059408Y-74560000D01*
X126284913Y-74537790D01*
X126340000Y-74521079D01*
X126340001Y-76569649D01*
X126269750Y-76570000D01*
X126111000Y-76728750D01*
X126111000Y-77978000D01*
X126131000Y-77978000D01*
X126131000Y-78232000D01*
X126111000Y-78232000D01*
X126111000Y-79481250D01*
X126269750Y-79640000D01*
X126340001Y-79640351D01*
X126340001Y-93735975D01*
X122907168Y-97340000D01*
X95725091Y-97340000D01*
X95723343Y-96649000D01*
X110731928Y-96649000D01*
X110744188Y-96773482D01*
X110780498Y-96893180D01*
X110839463Y-97003494D01*
X110918815Y-97100185D01*
X111015506Y-97179537D01*
X111125820Y-97238502D01*
X111245518Y-97274812D01*
X111370000Y-97287072D01*
X112084250Y-97284000D01*
X112243000Y-97125250D01*
X112243000Y-96026000D01*
X112497000Y-96026000D01*
X112497000Y-97125250D01*
X112655750Y-97284000D01*
X113370000Y-97287072D01*
X113494482Y-97274812D01*
X113614180Y-97238502D01*
X113724494Y-97179537D01*
X113821185Y-97100185D01*
X113900537Y-97003494D01*
X113959502Y-96893180D01*
X113995812Y-96773482D01*
X113996508Y-96766413D01*
X118424192Y-96766413D01*
X118519956Y-97030814D01*
X118809571Y-97171704D01*
X119121108Y-97253384D01*
X119442595Y-97272718D01*
X119761675Y-97228961D01*
X120066088Y-97123795D01*
X120240044Y-97030814D01*
X120335808Y-96766413D01*
X119380000Y-95810605D01*
X118424192Y-96766413D01*
X113996508Y-96766413D01*
X114008072Y-96649000D01*
X114005000Y-96184750D01*
X113846250Y-96026000D01*
X112497000Y-96026000D01*
X112243000Y-96026000D01*
X110893750Y-96026000D01*
X110735000Y-96184750D01*
X110731928Y-96649000D01*
X95723343Y-96649000D01*
X95723000Y-96513650D01*
X95564250Y-96354900D01*
X94615000Y-96354900D01*
X94615000Y-96374900D01*
X94361000Y-96374900D01*
X94361000Y-96354900D01*
X93411750Y-96354900D01*
X93253000Y-96513650D01*
X93250909Y-97340000D01*
X93160672Y-97340000D01*
X93160672Y-94727900D01*
X93249928Y-94727900D01*
X93253000Y-95942150D01*
X93411750Y-96100900D01*
X94361000Y-96100900D01*
X94361000Y-94251650D01*
X94615000Y-94251650D01*
X94615000Y-96100900D01*
X95564250Y-96100900D01*
X95723000Y-95942150D01*
X95726072Y-94727900D01*
X95713812Y-94603418D01*
X95677502Y-94483720D01*
X95618537Y-94373406D01*
X95539185Y-94276715D01*
X95442494Y-94197363D01*
X95332180Y-94138398D01*
X95212482Y-94102088D01*
X95088000Y-94089828D01*
X94773750Y-94092900D01*
X94615000Y-94251650D01*
X94361000Y-94251650D01*
X94202250Y-94092900D01*
X93888000Y-94089828D01*
X93763518Y-94102088D01*
X93643820Y-94138398D01*
X93533506Y-94197363D01*
X93436815Y-94276715D01*
X93357463Y-94373406D01*
X93298498Y-94483720D01*
X93262188Y-94603418D01*
X93249928Y-94727900D01*
X93160672Y-94727900D01*
X93148412Y-94603418D01*
X93112102Y-94483720D01*
X93053137Y-94373406D01*
X92973785Y-94276715D01*
X92953141Y-94259773D01*
X93004094Y-94232537D01*
X93100785Y-94153185D01*
X93180137Y-94056494D01*
X93239102Y-93946180D01*
X93275412Y-93826482D01*
X93287672Y-93702000D01*
X93287672Y-92896575D01*
X93399176Y-92836974D01*
X93514901Y-92742001D01*
X93538704Y-92712998D01*
X93989300Y-92262401D01*
X98062305Y-96335408D01*
X98086099Y-96364401D01*
X98115092Y-96388195D01*
X98115096Y-96388199D01*
X98185785Y-96446211D01*
X98201824Y-96459374D01*
X98333853Y-96529946D01*
X98477114Y-96573403D01*
X98588767Y-96584400D01*
X98588776Y-96584400D01*
X98626099Y-96588076D01*
X98663422Y-96584400D01*
X108979278Y-96584400D01*
X109016600Y-96588076D01*
X109053922Y-96584400D01*
X109053933Y-96584400D01*
X109165586Y-96573403D01*
X109308847Y-96529946D01*
X109440876Y-96459374D01*
X109556601Y-96364401D01*
X109580404Y-96335397D01*
X110481402Y-95434400D01*
X110733817Y-95434400D01*
X110735000Y-95613250D01*
X110893750Y-95772000D01*
X112243000Y-95772000D01*
X112243000Y-95752000D01*
X112497000Y-95752000D01*
X112497000Y-95772000D01*
X113846250Y-95772000D01*
X113924655Y-95693595D01*
X117738282Y-95693595D01*
X117782039Y-96012675D01*
X117887205Y-96317088D01*
X117980186Y-96491044D01*
X118244587Y-96586808D01*
X119200395Y-95631000D01*
X119559605Y-95631000D01*
X120515413Y-96586808D01*
X120779814Y-96491044D01*
X120920704Y-96201429D01*
X121002384Y-95889892D01*
X121021718Y-95568405D01*
X120977961Y-95249325D01*
X120872795Y-94944912D01*
X120779814Y-94770956D01*
X120515413Y-94675192D01*
X119559605Y-95631000D01*
X119200395Y-95631000D01*
X118244587Y-94675192D01*
X117980186Y-94770956D01*
X117839296Y-95060571D01*
X117757616Y-95372108D01*
X117738282Y-95693595D01*
X113924655Y-95693595D01*
X114005000Y-95613250D01*
X114007279Y-95268912D01*
X114073701Y-95214401D01*
X114097504Y-95185397D01*
X114245697Y-95037204D01*
X114274701Y-95013401D01*
X114369674Y-94897676D01*
X114440246Y-94765647D01*
X114483703Y-94622386D01*
X114494700Y-94510733D01*
X114494700Y-94510723D01*
X114496190Y-94495587D01*
X118424192Y-94495587D01*
X119380000Y-95451395D01*
X120335808Y-94495587D01*
X120240044Y-94231186D01*
X119950429Y-94090296D01*
X119638892Y-94008616D01*
X119317405Y-93989282D01*
X118998325Y-94033039D01*
X118693912Y-94138205D01*
X118519956Y-94231186D01*
X118424192Y-94495587D01*
X114496190Y-94495587D01*
X114498376Y-94473400D01*
X114494700Y-94436077D01*
X114494700Y-92454000D01*
X117925091Y-92454000D01*
X117931082Y-92468463D01*
X118110013Y-92736252D01*
X118337748Y-92963987D01*
X118605537Y-93142918D01*
X118903088Y-93266168D01*
X119218967Y-93329000D01*
X119541033Y-93329000D01*
X119856912Y-93266168D01*
X120154463Y-93142918D01*
X120422252Y-92963987D01*
X120649987Y-92736252D01*
X120828918Y-92468463D01*
X120952168Y-92170912D01*
X121015000Y-91855033D01*
X121015000Y-91532967D01*
X120952168Y-91217088D01*
X120828918Y-90919537D01*
X120649987Y-90651748D01*
X120422252Y-90424013D01*
X120154463Y-90245082D01*
X120140000Y-90239091D01*
X120140000Y-88799861D01*
X120269850Y-88760472D01*
X120423386Y-88678405D01*
X120557962Y-88567962D01*
X120668405Y-88433386D01*
X120750472Y-88279850D01*
X120801008Y-88113254D01*
X120818072Y-87940000D01*
X120818072Y-85840000D01*
X120801008Y-85666746D01*
X120750472Y-85500150D01*
X120668405Y-85346614D01*
X120557962Y-85212038D01*
X120481187Y-85149031D01*
X120534494Y-85120537D01*
X120631185Y-85041185D01*
X120710537Y-84944494D01*
X120769502Y-84834180D01*
X120805812Y-84714482D01*
X120818072Y-84590000D01*
X120815000Y-83575750D01*
X120656250Y-83417000D01*
X119507000Y-83417000D01*
X119507000Y-83437000D01*
X119253000Y-83437000D01*
X119253000Y-83417000D01*
X118103750Y-83417000D01*
X117945000Y-83575750D01*
X117941928Y-84590000D01*
X117954188Y-84714482D01*
X117990498Y-84834180D01*
X118049463Y-84944494D01*
X118128815Y-85041185D01*
X118225506Y-85120537D01*
X118278813Y-85149031D01*
X118202038Y-85212038D01*
X118091595Y-85346614D01*
X118009528Y-85500150D01*
X117958992Y-85666746D01*
X117941928Y-85840000D01*
X117941928Y-87940000D01*
X117958992Y-88113254D01*
X118009528Y-88279850D01*
X118091595Y-88433386D01*
X118202038Y-88567962D01*
X118336614Y-88678405D01*
X118490150Y-88760472D01*
X118620001Y-88799861D01*
X118620000Y-90239091D01*
X118605537Y-90245082D01*
X118337748Y-90424013D01*
X118110013Y-90651748D01*
X117931082Y-90919537D01*
X117925091Y-90934000D01*
X114361958Y-90934000D01*
X114330274Y-90874724D01*
X114235301Y-90758999D01*
X114119576Y-90664026D01*
X114008072Y-90604425D01*
X114008072Y-90549000D01*
X113995812Y-90424518D01*
X113959502Y-90304820D01*
X113900537Y-90194506D01*
X113821185Y-90097815D01*
X113724494Y-90018463D01*
X113614180Y-89959498D01*
X113494482Y-89923188D01*
X113370000Y-89910928D01*
X111377000Y-89910928D01*
X111377000Y-88799861D01*
X111506850Y-88760472D01*
X111660386Y-88678405D01*
X111794962Y-88567962D01*
X111905405Y-88433386D01*
X111987472Y-88279850D01*
X112038008Y-88113254D01*
X112055072Y-87940000D01*
X112055072Y-85840000D01*
X112038008Y-85666746D01*
X111987472Y-85500150D01*
X111905405Y-85346614D01*
X111794962Y-85212038D01*
X111718187Y-85149031D01*
X111771494Y-85120537D01*
X111868185Y-85041185D01*
X111947537Y-84944494D01*
X112006502Y-84834180D01*
X112042812Y-84714482D01*
X112055072Y-84590000D01*
X112052000Y-83575750D01*
X111893250Y-83417000D01*
X110744000Y-83417000D01*
X110744000Y-83437000D01*
X110490000Y-83437000D01*
X110490000Y-83417000D01*
X110470000Y-83417000D01*
X110470000Y-83163000D01*
X110490000Y-83163000D01*
X110490000Y-83143000D01*
X110744000Y-83143000D01*
X110744000Y-83163000D01*
X111893250Y-83163000D01*
X112052000Y-83004250D01*
X112055072Y-81990000D01*
X117941928Y-81990000D01*
X117945000Y-83004250D01*
X118103750Y-83163000D01*
X119253000Y-83163000D01*
X119253000Y-81513750D01*
X119507000Y-81513750D01*
X119507000Y-83163000D01*
X120656250Y-83163000D01*
X120815000Y-83004250D01*
X120818072Y-81990000D01*
X120805812Y-81865518D01*
X120769502Y-81745820D01*
X120710537Y-81635506D01*
X120631185Y-81538815D01*
X120534494Y-81459463D01*
X120424180Y-81400498D01*
X120304482Y-81364188D01*
X120180000Y-81351928D01*
X119665750Y-81355000D01*
X119507000Y-81513750D01*
X119253000Y-81513750D01*
X119094250Y-81355000D01*
X118580000Y-81351928D01*
X118455518Y-81364188D01*
X118335820Y-81400498D01*
X118225506Y-81459463D01*
X118128815Y-81538815D01*
X118049463Y-81635506D01*
X117990498Y-81745820D01*
X117954188Y-81865518D01*
X117941928Y-81990000D01*
X112055072Y-81990000D01*
X112042812Y-81865518D01*
X112006502Y-81745820D01*
X111947537Y-81635506D01*
X111868185Y-81538815D01*
X111771494Y-81459463D01*
X111661180Y-81400498D01*
X111541482Y-81364188D01*
X111417000Y-81351928D01*
X111185088Y-81353313D01*
X112144404Y-80393998D01*
X112173401Y-80370201D01*
X112268374Y-80254476D01*
X112338946Y-80122447D01*
X112382403Y-79979186D01*
X112393400Y-79867533D01*
X112393400Y-79867525D01*
X112397076Y-79830200D01*
X112393400Y-79792875D01*
X112393400Y-79005000D01*
X124445928Y-79005000D01*
X124458188Y-79129482D01*
X124494498Y-79249180D01*
X124553463Y-79359494D01*
X124632815Y-79456185D01*
X124729506Y-79535537D01*
X124839820Y-79594502D01*
X124959518Y-79630812D01*
X125084000Y-79643072D01*
X125698250Y-79640000D01*
X125857000Y-79481250D01*
X125857000Y-78232000D01*
X124607750Y-78232000D01*
X124449000Y-78390750D01*
X124445928Y-79005000D01*
X112393400Y-79005000D01*
X112393400Y-77205000D01*
X124445928Y-77205000D01*
X124449000Y-77819250D01*
X124607750Y-77978000D01*
X125857000Y-77978000D01*
X125857000Y-76728750D01*
X125698250Y-76570000D01*
X125084000Y-76566928D01*
X124959518Y-76579188D01*
X124839820Y-76615498D01*
X124729506Y-76674463D01*
X124632815Y-76753815D01*
X124553463Y-76850506D01*
X124494498Y-76960820D01*
X124458188Y-77080518D01*
X124445928Y-77205000D01*
X112393400Y-77205000D01*
X112393400Y-76365000D01*
X117669928Y-76365000D01*
X117682188Y-76489482D01*
X117718498Y-76609180D01*
X117777463Y-76719494D01*
X117856815Y-76816185D01*
X117953506Y-76895537D01*
X118063820Y-76954502D01*
X118183518Y-76990812D01*
X118308000Y-77003072D01*
X119112250Y-77000000D01*
X119271000Y-76841250D01*
X119271000Y-75692000D01*
X119525000Y-75692000D01*
X119525000Y-76841250D01*
X119683750Y-77000000D01*
X120488000Y-77003072D01*
X120612482Y-76990812D01*
X120732180Y-76954502D01*
X120842494Y-76895537D01*
X120939185Y-76816185D01*
X121018537Y-76719494D01*
X121077502Y-76609180D01*
X121113812Y-76489482D01*
X121126072Y-76365000D01*
X121123000Y-75850750D01*
X120964250Y-75692000D01*
X119525000Y-75692000D01*
X119271000Y-75692000D01*
X117831750Y-75692000D01*
X117673000Y-75850750D01*
X117669928Y-76365000D01*
X112393400Y-76365000D01*
X112393400Y-74765000D01*
X117669928Y-74765000D01*
X117673000Y-75279250D01*
X117831750Y-75438000D01*
X119271000Y-75438000D01*
X119271000Y-74288750D01*
X119525000Y-74288750D01*
X119525000Y-75438000D01*
X120964250Y-75438000D01*
X121123000Y-75279250D01*
X121126072Y-74765000D01*
X121113812Y-74640518D01*
X121077502Y-74520820D01*
X121018537Y-74410506D01*
X120939185Y-74313815D01*
X120842494Y-74234463D01*
X120732180Y-74175498D01*
X120612482Y-74139188D01*
X120488000Y-74126928D01*
X119683750Y-74130000D01*
X119525000Y-74288750D01*
X119271000Y-74288750D01*
X119112250Y-74130000D01*
X118308000Y-74126928D01*
X118183518Y-74139188D01*
X118063820Y-74175498D01*
X117953506Y-74234463D01*
X117856815Y-74313815D01*
X117777463Y-74410506D01*
X117718498Y-74520820D01*
X117682188Y-74640518D01*
X117669928Y-74765000D01*
X112393400Y-74765000D01*
X112393400Y-74665723D01*
X112397076Y-74628400D01*
X112393400Y-74591077D01*
X112393400Y-74591067D01*
X112382403Y-74479414D01*
X112338946Y-74336153D01*
X112276219Y-74218800D01*
X112268374Y-74204123D01*
X112197199Y-74117397D01*
X112173401Y-74088399D01*
X112144403Y-74064601D01*
X108931804Y-70852003D01*
X108908001Y-70822999D01*
X108792276Y-70728026D01*
X108660247Y-70657454D01*
X108516986Y-70613997D01*
X108405333Y-70603000D01*
X108405322Y-70603000D01*
X108368000Y-70599324D01*
X108330678Y-70603000D01*
X107749200Y-70603000D01*
X107749200Y-57948022D01*
X107752876Y-57910699D01*
X107749200Y-57873377D01*
X107749200Y-57873367D01*
X107738203Y-57761714D01*
X107694746Y-57618453D01*
X107667851Y-57568137D01*
X107624174Y-57486423D01*
X107552999Y-57399697D01*
X107529201Y-57370699D01*
X107500204Y-57346902D01*
X107204712Y-57051410D01*
X107206072Y-57037600D01*
X107206072Y-56547173D01*
X124194901Y-73536003D01*
X124194901Y-73536003D01*
G37*
X124194901Y-73536003D02*
X124218699Y-73565001D01*
X124334424Y-73659974D01*
X124466453Y-73730546D01*
X124609714Y-73774003D01*
X124645728Y-73777550D01*
X124701519Y-73881927D01*
X124893339Y-74115661D01*
X125127073Y-74307481D01*
X125393739Y-74450017D01*
X125683087Y-74537790D01*
X125908592Y-74560000D01*
X126059408Y-74560000D01*
X126284913Y-74537790D01*
X126340000Y-74521079D01*
X126340001Y-76569649D01*
X126269750Y-76570000D01*
X126111000Y-76728750D01*
X126111000Y-77978000D01*
X126131000Y-77978000D01*
X126131000Y-78232000D01*
X126111000Y-78232000D01*
X126111000Y-79481250D01*
X126269750Y-79640000D01*
X126340001Y-79640351D01*
X126340001Y-93735975D01*
X122907168Y-97340000D01*
X95725091Y-97340000D01*
X95723343Y-96649000D01*
X110731928Y-96649000D01*
X110744188Y-96773482D01*
X110780498Y-96893180D01*
X110839463Y-97003494D01*
X110918815Y-97100185D01*
X111015506Y-97179537D01*
X111125820Y-97238502D01*
X111245518Y-97274812D01*
X111370000Y-97287072D01*
X112084250Y-97284000D01*
X112243000Y-97125250D01*
X112243000Y-96026000D01*
X112497000Y-96026000D01*
X112497000Y-97125250D01*
X112655750Y-97284000D01*
X113370000Y-97287072D01*
X113494482Y-97274812D01*
X113614180Y-97238502D01*
X113724494Y-97179537D01*
X113821185Y-97100185D01*
X113900537Y-97003494D01*
X113959502Y-96893180D01*
X113995812Y-96773482D01*
X113996508Y-96766413D01*
X118424192Y-96766413D01*
X118519956Y-97030814D01*
X118809571Y-97171704D01*
X119121108Y-97253384D01*
X119442595Y-97272718D01*
X119761675Y-97228961D01*
X120066088Y-97123795D01*
X120240044Y-97030814D01*
X120335808Y-96766413D01*
X119380000Y-95810605D01*
X118424192Y-96766413D01*
X113996508Y-96766413D01*
X114008072Y-96649000D01*
X114005000Y-96184750D01*
X113846250Y-96026000D01*
X112497000Y-96026000D01*
X112243000Y-96026000D01*
X110893750Y-96026000D01*
X110735000Y-96184750D01*
X110731928Y-96649000D01*
X95723343Y-96649000D01*
X95723000Y-96513650D01*
X95564250Y-96354900D01*
X94615000Y-96354900D01*
X94615000Y-96374900D01*
X94361000Y-96374900D01*
X94361000Y-96354900D01*
X93411750Y-96354900D01*
X93253000Y-96513650D01*
X93250909Y-97340000D01*
X93160672Y-97340000D01*
X93160672Y-94727900D01*
X93249928Y-94727900D01*
X93253000Y-95942150D01*
X93411750Y-96100900D01*
X94361000Y-96100900D01*
X94361000Y-94251650D01*
X94615000Y-94251650D01*
X94615000Y-96100900D01*
X95564250Y-96100900D01*
X95723000Y-95942150D01*
X95726072Y-94727900D01*
X95713812Y-94603418D01*
X95677502Y-94483720D01*
X95618537Y-94373406D01*
X95539185Y-94276715D01*
X95442494Y-94197363D01*
X95332180Y-94138398D01*
X95212482Y-94102088D01*
X95088000Y-94089828D01*
X94773750Y-94092900D01*
X94615000Y-94251650D01*
X94361000Y-94251650D01*
X94202250Y-94092900D01*
X93888000Y-94089828D01*
X93763518Y-94102088D01*
X93643820Y-94138398D01*
X93533506Y-94197363D01*
X93436815Y-94276715D01*
X93357463Y-94373406D01*
X93298498Y-94483720D01*
X93262188Y-94603418D01*
X93249928Y-94727900D01*
X93160672Y-94727900D01*
X93148412Y-94603418D01*
X93112102Y-94483720D01*
X93053137Y-94373406D01*
X92973785Y-94276715D01*
X92953141Y-94259773D01*
X93004094Y-94232537D01*
X93100785Y-94153185D01*
X93180137Y-94056494D01*
X93239102Y-93946180D01*
X93275412Y-93826482D01*
X93287672Y-93702000D01*
X93287672Y-92896575D01*
X93399176Y-92836974D01*
X93514901Y-92742001D01*
X93538704Y-92712998D01*
X93989300Y-92262401D01*
X98062305Y-96335408D01*
X98086099Y-96364401D01*
X98115092Y-96388195D01*
X98115096Y-96388199D01*
X98185785Y-96446211D01*
X98201824Y-96459374D01*
X98333853Y-96529946D01*
X98477114Y-96573403D01*
X98588767Y-96584400D01*
X98588776Y-96584400D01*
X98626099Y-96588076D01*
X98663422Y-96584400D01*
X108979278Y-96584400D01*
X109016600Y-96588076D01*
X109053922Y-96584400D01*
X109053933Y-96584400D01*
X109165586Y-96573403D01*
X109308847Y-96529946D01*
X109440876Y-96459374D01*
X109556601Y-96364401D01*
X109580404Y-96335397D01*
X110481402Y-95434400D01*
X110733817Y-95434400D01*
X110735000Y-95613250D01*
X110893750Y-95772000D01*
X112243000Y-95772000D01*
X112243000Y-95752000D01*
X112497000Y-95752000D01*
X112497000Y-95772000D01*
X113846250Y-95772000D01*
X113924655Y-95693595D01*
X117738282Y-95693595D01*
X117782039Y-96012675D01*
X117887205Y-96317088D01*
X117980186Y-96491044D01*
X118244587Y-96586808D01*
X119200395Y-95631000D01*
X119559605Y-95631000D01*
X120515413Y-96586808D01*
X120779814Y-96491044D01*
X120920704Y-96201429D01*
X121002384Y-95889892D01*
X121021718Y-95568405D01*
X120977961Y-95249325D01*
X120872795Y-94944912D01*
X120779814Y-94770956D01*
X120515413Y-94675192D01*
X119559605Y-95631000D01*
X119200395Y-95631000D01*
X118244587Y-94675192D01*
X117980186Y-94770956D01*
X117839296Y-95060571D01*
X117757616Y-95372108D01*
X117738282Y-95693595D01*
X113924655Y-95693595D01*
X114005000Y-95613250D01*
X114007279Y-95268912D01*
X114073701Y-95214401D01*
X114097504Y-95185397D01*
X114245697Y-95037204D01*
X114274701Y-95013401D01*
X114369674Y-94897676D01*
X114440246Y-94765647D01*
X114483703Y-94622386D01*
X114494700Y-94510733D01*
X114494700Y-94510723D01*
X114496190Y-94495587D01*
X118424192Y-94495587D01*
X119380000Y-95451395D01*
X120335808Y-94495587D01*
X120240044Y-94231186D01*
X119950429Y-94090296D01*
X119638892Y-94008616D01*
X119317405Y-93989282D01*
X118998325Y-94033039D01*
X118693912Y-94138205D01*
X118519956Y-94231186D01*
X118424192Y-94495587D01*
X114496190Y-94495587D01*
X114498376Y-94473400D01*
X114494700Y-94436077D01*
X114494700Y-92454000D01*
X117925091Y-92454000D01*
X117931082Y-92468463D01*
X118110013Y-92736252D01*
X118337748Y-92963987D01*
X118605537Y-93142918D01*
X118903088Y-93266168D01*
X119218967Y-93329000D01*
X119541033Y-93329000D01*
X119856912Y-93266168D01*
X120154463Y-93142918D01*
X120422252Y-92963987D01*
X120649987Y-92736252D01*
X120828918Y-92468463D01*
X120952168Y-92170912D01*
X121015000Y-91855033D01*
X121015000Y-91532967D01*
X120952168Y-91217088D01*
X120828918Y-90919537D01*
X120649987Y-90651748D01*
X120422252Y-90424013D01*
X120154463Y-90245082D01*
X120140000Y-90239091D01*
X120140000Y-88799861D01*
X120269850Y-88760472D01*
X120423386Y-88678405D01*
X120557962Y-88567962D01*
X120668405Y-88433386D01*
X120750472Y-88279850D01*
X120801008Y-88113254D01*
X120818072Y-87940000D01*
X120818072Y-85840000D01*
X120801008Y-85666746D01*
X120750472Y-85500150D01*
X120668405Y-85346614D01*
X120557962Y-85212038D01*
X120481187Y-85149031D01*
X120534494Y-85120537D01*
X120631185Y-85041185D01*
X120710537Y-84944494D01*
X120769502Y-84834180D01*
X120805812Y-84714482D01*
X120818072Y-84590000D01*
X120815000Y-83575750D01*
X120656250Y-83417000D01*
X119507000Y-83417000D01*
X119507000Y-83437000D01*
X119253000Y-83437000D01*
X119253000Y-83417000D01*
X118103750Y-83417000D01*
X117945000Y-83575750D01*
X117941928Y-84590000D01*
X117954188Y-84714482D01*
X117990498Y-84834180D01*
X118049463Y-84944494D01*
X118128815Y-85041185D01*
X118225506Y-85120537D01*
X118278813Y-85149031D01*
X118202038Y-85212038D01*
X118091595Y-85346614D01*
X118009528Y-85500150D01*
X117958992Y-85666746D01*
X117941928Y-85840000D01*
X117941928Y-87940000D01*
X117958992Y-88113254D01*
X118009528Y-88279850D01*
X118091595Y-88433386D01*
X118202038Y-88567962D01*
X118336614Y-88678405D01*
X118490150Y-88760472D01*
X118620001Y-88799861D01*
X118620000Y-90239091D01*
X118605537Y-90245082D01*
X118337748Y-90424013D01*
X118110013Y-90651748D01*
X117931082Y-90919537D01*
X117925091Y-90934000D01*
X114361958Y-90934000D01*
X114330274Y-90874724D01*
X114235301Y-90758999D01*
X114119576Y-90664026D01*
X114008072Y-90604425D01*
X114008072Y-90549000D01*
X113995812Y-90424518D01*
X113959502Y-90304820D01*
X113900537Y-90194506D01*
X113821185Y-90097815D01*
X113724494Y-90018463D01*
X113614180Y-89959498D01*
X113494482Y-89923188D01*
X113370000Y-89910928D01*
X111377000Y-89910928D01*
X111377000Y-88799861D01*
X111506850Y-88760472D01*
X111660386Y-88678405D01*
X111794962Y-88567962D01*
X111905405Y-88433386D01*
X111987472Y-88279850D01*
X112038008Y-88113254D01*
X112055072Y-87940000D01*
X112055072Y-85840000D01*
X112038008Y-85666746D01*
X111987472Y-85500150D01*
X111905405Y-85346614D01*
X111794962Y-85212038D01*
X111718187Y-85149031D01*
X111771494Y-85120537D01*
X111868185Y-85041185D01*
X111947537Y-84944494D01*
X112006502Y-84834180D01*
X112042812Y-84714482D01*
X112055072Y-84590000D01*
X112052000Y-83575750D01*
X111893250Y-83417000D01*
X110744000Y-83417000D01*
X110744000Y-83437000D01*
X110490000Y-83437000D01*
X110490000Y-83417000D01*
X110470000Y-83417000D01*
X110470000Y-83163000D01*
X110490000Y-83163000D01*
X110490000Y-83143000D01*
X110744000Y-83143000D01*
X110744000Y-83163000D01*
X111893250Y-83163000D01*
X112052000Y-83004250D01*
X112055072Y-81990000D01*
X117941928Y-81990000D01*
X117945000Y-83004250D01*
X118103750Y-83163000D01*
X119253000Y-83163000D01*
X119253000Y-81513750D01*
X119507000Y-81513750D01*
X119507000Y-83163000D01*
X120656250Y-83163000D01*
X120815000Y-83004250D01*
X120818072Y-81990000D01*
X120805812Y-81865518D01*
X120769502Y-81745820D01*
X120710537Y-81635506D01*
X120631185Y-81538815D01*
X120534494Y-81459463D01*
X120424180Y-81400498D01*
X120304482Y-81364188D01*
X120180000Y-81351928D01*
X119665750Y-81355000D01*
X119507000Y-81513750D01*
X119253000Y-81513750D01*
X119094250Y-81355000D01*
X118580000Y-81351928D01*
X118455518Y-81364188D01*
X118335820Y-81400498D01*
X118225506Y-81459463D01*
X118128815Y-81538815D01*
X118049463Y-81635506D01*
X117990498Y-81745820D01*
X117954188Y-81865518D01*
X117941928Y-81990000D01*
X112055072Y-81990000D01*
X112042812Y-81865518D01*
X112006502Y-81745820D01*
X111947537Y-81635506D01*
X111868185Y-81538815D01*
X111771494Y-81459463D01*
X111661180Y-81400498D01*
X111541482Y-81364188D01*
X111417000Y-81351928D01*
X111185088Y-81353313D01*
X112144404Y-80393998D01*
X112173401Y-80370201D01*
X112268374Y-80254476D01*
X112338946Y-80122447D01*
X112382403Y-79979186D01*
X112393400Y-79867533D01*
X112393400Y-79867525D01*
X112397076Y-79830200D01*
X112393400Y-79792875D01*
X112393400Y-79005000D01*
X124445928Y-79005000D01*
X124458188Y-79129482D01*
X124494498Y-79249180D01*
X124553463Y-79359494D01*
X124632815Y-79456185D01*
X124729506Y-79535537D01*
X124839820Y-79594502D01*
X124959518Y-79630812D01*
X125084000Y-79643072D01*
X125698250Y-79640000D01*
X125857000Y-79481250D01*
X125857000Y-78232000D01*
X124607750Y-78232000D01*
X124449000Y-78390750D01*
X124445928Y-79005000D01*
X112393400Y-79005000D01*
X112393400Y-77205000D01*
X124445928Y-77205000D01*
X124449000Y-77819250D01*
X124607750Y-77978000D01*
X125857000Y-77978000D01*
X125857000Y-76728750D01*
X125698250Y-76570000D01*
X125084000Y-76566928D01*
X124959518Y-76579188D01*
X124839820Y-76615498D01*
X124729506Y-76674463D01*
X124632815Y-76753815D01*
X124553463Y-76850506D01*
X124494498Y-76960820D01*
X124458188Y-77080518D01*
X124445928Y-77205000D01*
X112393400Y-77205000D01*
X112393400Y-76365000D01*
X117669928Y-76365000D01*
X117682188Y-76489482D01*
X117718498Y-76609180D01*
X117777463Y-76719494D01*
X117856815Y-76816185D01*
X117953506Y-76895537D01*
X118063820Y-76954502D01*
X118183518Y-76990812D01*
X118308000Y-77003072D01*
X119112250Y-77000000D01*
X119271000Y-76841250D01*
X119271000Y-75692000D01*
X119525000Y-75692000D01*
X119525000Y-76841250D01*
X119683750Y-77000000D01*
X120488000Y-77003072D01*
X120612482Y-76990812D01*
X120732180Y-76954502D01*
X120842494Y-76895537D01*
X120939185Y-76816185D01*
X121018537Y-76719494D01*
X121077502Y-76609180D01*
X121113812Y-76489482D01*
X121126072Y-76365000D01*
X121123000Y-75850750D01*
X120964250Y-75692000D01*
X119525000Y-75692000D01*
X119271000Y-75692000D01*
X117831750Y-75692000D01*
X117673000Y-75850750D01*
X117669928Y-76365000D01*
X112393400Y-76365000D01*
X112393400Y-74765000D01*
X117669928Y-74765000D01*
X117673000Y-75279250D01*
X117831750Y-75438000D01*
X119271000Y-75438000D01*
X119271000Y-74288750D01*
X119525000Y-74288750D01*
X119525000Y-75438000D01*
X120964250Y-75438000D01*
X121123000Y-75279250D01*
X121126072Y-74765000D01*
X121113812Y-74640518D01*
X121077502Y-74520820D01*
X121018537Y-74410506D01*
X120939185Y-74313815D01*
X120842494Y-74234463D01*
X120732180Y-74175498D01*
X120612482Y-74139188D01*
X120488000Y-74126928D01*
X119683750Y-74130000D01*
X119525000Y-74288750D01*
X119271000Y-74288750D01*
X119112250Y-74130000D01*
X118308000Y-74126928D01*
X118183518Y-74139188D01*
X118063820Y-74175498D01*
X117953506Y-74234463D01*
X117856815Y-74313815D01*
X117777463Y-74410506D01*
X117718498Y-74520820D01*
X117682188Y-74640518D01*
X117669928Y-74765000D01*
X112393400Y-74765000D01*
X112393400Y-74665723D01*
X112397076Y-74628400D01*
X112393400Y-74591077D01*
X112393400Y-74591067D01*
X112382403Y-74479414D01*
X112338946Y-74336153D01*
X112276219Y-74218800D01*
X112268374Y-74204123D01*
X112197199Y-74117397D01*
X112173401Y-74088399D01*
X112144403Y-74064601D01*
X108931804Y-70852003D01*
X108908001Y-70822999D01*
X108792276Y-70728026D01*
X108660247Y-70657454D01*
X108516986Y-70613997D01*
X108405333Y-70603000D01*
X108405322Y-70603000D01*
X108368000Y-70599324D01*
X108330678Y-70603000D01*
X107749200Y-70603000D01*
X107749200Y-57948022D01*
X107752876Y-57910699D01*
X107749200Y-57873377D01*
X107749200Y-57873367D01*
X107738203Y-57761714D01*
X107694746Y-57618453D01*
X107667851Y-57568137D01*
X107624174Y-57486423D01*
X107552999Y-57399697D01*
X107529201Y-57370699D01*
X107500204Y-57346902D01*
X107204712Y-57051410D01*
X107206072Y-57037600D01*
X107206072Y-56547173D01*
X124194901Y-73536003D01*
G36*
X79823901Y-77366274D02*
G01*
X79723962Y-77197427D01*
X79523116Y-76973351D01*
X79282414Y-76792764D01*
X79011107Y-76662606D01*
X78850740Y-76613964D01*
X78613000Y-76734622D01*
X78613000Y-77978000D01*
X78633000Y-77978000D01*
X78633000Y-78232000D01*
X78613000Y-78232000D01*
X78613000Y-79475378D01*
X78850740Y-79596036D01*
X79011107Y-79547394D01*
X79282414Y-79417236D01*
X79523116Y-79236649D01*
X79723962Y-79012573D01*
X79822473Y-78846138D01*
X79823901Y-78860633D01*
X79828791Y-78910276D01*
X79834898Y-78972285D01*
X79878354Y-79115546D01*
X79948926Y-79247576D01*
X80004272Y-79315014D01*
X80043900Y-79363301D01*
X80072898Y-79387099D01*
X83308271Y-82622474D01*
X83214294Y-82736986D01*
X83076401Y-82994966D01*
X82991487Y-83274889D01*
X82962815Y-83566000D01*
X82991487Y-83857111D01*
X83076401Y-84137034D01*
X83214294Y-84395014D01*
X83399866Y-84621134D01*
X83625986Y-84806706D01*
X83690523Y-84841201D01*
X83573645Y-84910822D01*
X83357412Y-85105731D01*
X83183359Y-85339080D01*
X83058175Y-85601901D01*
X83013524Y-85749110D01*
X83134845Y-85979000D01*
X84328000Y-85979000D01*
X84328000Y-85959000D01*
X84582000Y-85959000D01*
X84582000Y-85979000D01*
X85775155Y-85979000D01*
X85896476Y-85749110D01*
X85851825Y-85601901D01*
X85726641Y-85339080D01*
X85552588Y-85105731D01*
X85336355Y-84910822D01*
X85219477Y-84841201D01*
X85284014Y-84806706D01*
X85510134Y-84621134D01*
X85695706Y-84395014D01*
X85732595Y-84326000D01*
X87553386Y-84326000D01*
X87584595Y-84384387D01*
X87677000Y-84496983D01*
X87677001Y-93859068D01*
X87673324Y-93896400D01*
X87677001Y-93933733D01*
X87684377Y-94008616D01*
X87687998Y-94045385D01*
X87731454Y-94188646D01*
X87802026Y-94320676D01*
X87863717Y-94395846D01*
X87897000Y-94436401D01*
X87925998Y-94460199D01*
X88080396Y-94614597D01*
X88104199Y-94643601D01*
X88148036Y-94679577D01*
X88144528Y-94715200D01*
X88144528Y-95401600D01*
X87605411Y-95401600D01*
X87561474Y-95357663D01*
X87391956Y-95244395D01*
X87203598Y-95166374D01*
X87003639Y-95126600D01*
X86799761Y-95126600D01*
X86599802Y-95166374D01*
X86411444Y-95244395D01*
X86241926Y-95357663D01*
X86097763Y-95501826D01*
X85984495Y-95671344D01*
X85906474Y-95859702D01*
X85866700Y-96059661D01*
X85866700Y-96263539D01*
X85906474Y-96463498D01*
X85984495Y-96651856D01*
X86097763Y-96821374D01*
X86241926Y-96965537D01*
X86411444Y-97078805D01*
X86599802Y-97156826D01*
X86799761Y-97196600D01*
X87003639Y-97196600D01*
X87203598Y-97156826D01*
X87391956Y-97078805D01*
X87561474Y-96965537D01*
X87605411Y-96921600D01*
X88144528Y-96921600D01*
X88144528Y-97340000D01*
X81562833Y-97340000D01*
X78130000Y-93735977D01*
X78130000Y-89002890D01*
X83013524Y-89002890D01*
X83058175Y-89150099D01*
X83183359Y-89412920D01*
X83357412Y-89646269D01*
X83573645Y-89841178D01*
X83823748Y-89990157D01*
X84098109Y-90087481D01*
X84328000Y-89966814D01*
X84328000Y-88773000D01*
X84582000Y-88773000D01*
X84582000Y-89966814D01*
X84811891Y-90087481D01*
X85086252Y-89990157D01*
X85336355Y-89841178D01*
X85552588Y-89646269D01*
X85726641Y-89412920D01*
X85851825Y-89150099D01*
X85896476Y-89002890D01*
X85775155Y-88773000D01*
X84582000Y-88773000D01*
X84328000Y-88773000D01*
X83134845Y-88773000D01*
X83013524Y-89002890D01*
X78130000Y-89002890D01*
X78130000Y-86462890D01*
X83013524Y-86462890D01*
X83058175Y-86610099D01*
X83183359Y-86872920D01*
X83357412Y-87106269D01*
X83573645Y-87301178D01*
X83699255Y-87376000D01*
X83573645Y-87450822D01*
X83357412Y-87645731D01*
X83183359Y-87879080D01*
X83058175Y-88141901D01*
X83013524Y-88289110D01*
X83134845Y-88519000D01*
X84328000Y-88519000D01*
X84328000Y-86233000D01*
X84582000Y-86233000D01*
X84582000Y-88519000D01*
X85775155Y-88519000D01*
X85896476Y-88289110D01*
X85851825Y-88141901D01*
X85726641Y-87879080D01*
X85552588Y-87645731D01*
X85336355Y-87450822D01*
X85210745Y-87376000D01*
X85336355Y-87301178D01*
X85552588Y-87106269D01*
X85726641Y-86872920D01*
X85851825Y-86610099D01*
X85896476Y-86462890D01*
X85775155Y-86233000D01*
X84582000Y-86233000D01*
X84328000Y-86233000D01*
X83134845Y-86233000D01*
X83013524Y-86462890D01*
X78130000Y-86462890D01*
X78130000Y-79591600D01*
X78359000Y-79475378D01*
X78359000Y-78232000D01*
X78339000Y-78232000D01*
X78339000Y-77978000D01*
X78359000Y-77978000D01*
X78359000Y-76734622D01*
X78130000Y-76618400D01*
X78130000Y-74563072D01*
X79386000Y-74563072D01*
X79510482Y-74550812D01*
X79630180Y-74514502D01*
X79740494Y-74455537D01*
X79823901Y-74387087D01*
X79823901Y-77366274D01*
X79823901Y-77366274D01*
G37*
X79823901Y-77366274D02*
X79723962Y-77197427D01*
X79523116Y-76973351D01*
X79282414Y-76792764D01*
X79011107Y-76662606D01*
X78850740Y-76613964D01*
X78613000Y-76734622D01*
X78613000Y-77978000D01*
X78633000Y-77978000D01*
X78633000Y-78232000D01*
X78613000Y-78232000D01*
X78613000Y-79475378D01*
X78850740Y-79596036D01*
X79011107Y-79547394D01*
X79282414Y-79417236D01*
X79523116Y-79236649D01*
X79723962Y-79012573D01*
X79822473Y-78846138D01*
X79823901Y-78860633D01*
X79828791Y-78910276D01*
X79834898Y-78972285D01*
X79878354Y-79115546D01*
X79948926Y-79247576D01*
X80004272Y-79315014D01*
X80043900Y-79363301D01*
X80072898Y-79387099D01*
X83308271Y-82622474D01*
X83214294Y-82736986D01*
X83076401Y-82994966D01*
X82991487Y-83274889D01*
X82962815Y-83566000D01*
X82991487Y-83857111D01*
X83076401Y-84137034D01*
X83214294Y-84395014D01*
X83399866Y-84621134D01*
X83625986Y-84806706D01*
X83690523Y-84841201D01*
X83573645Y-84910822D01*
X83357412Y-85105731D01*
X83183359Y-85339080D01*
X83058175Y-85601901D01*
X83013524Y-85749110D01*
X83134845Y-85979000D01*
X84328000Y-85979000D01*
X84328000Y-85959000D01*
X84582000Y-85959000D01*
X84582000Y-85979000D01*
X85775155Y-85979000D01*
X85896476Y-85749110D01*
X85851825Y-85601901D01*
X85726641Y-85339080D01*
X85552588Y-85105731D01*
X85336355Y-84910822D01*
X85219477Y-84841201D01*
X85284014Y-84806706D01*
X85510134Y-84621134D01*
X85695706Y-84395014D01*
X85732595Y-84326000D01*
X87553386Y-84326000D01*
X87584595Y-84384387D01*
X87677000Y-84496983D01*
X87677001Y-93859068D01*
X87673324Y-93896400D01*
X87677001Y-93933733D01*
X87684377Y-94008616D01*
X87687998Y-94045385D01*
X87731454Y-94188646D01*
X87802026Y-94320676D01*
X87863717Y-94395846D01*
X87897000Y-94436401D01*
X87925998Y-94460199D01*
X88080396Y-94614597D01*
X88104199Y-94643601D01*
X88148036Y-94679577D01*
X88144528Y-94715200D01*
X88144528Y-95401600D01*
X87605411Y-95401600D01*
X87561474Y-95357663D01*
X87391956Y-95244395D01*
X87203598Y-95166374D01*
X87003639Y-95126600D01*
X86799761Y-95126600D01*
X86599802Y-95166374D01*
X86411444Y-95244395D01*
X86241926Y-95357663D01*
X86097763Y-95501826D01*
X85984495Y-95671344D01*
X85906474Y-95859702D01*
X85866700Y-96059661D01*
X85866700Y-96263539D01*
X85906474Y-96463498D01*
X85984495Y-96651856D01*
X86097763Y-96821374D01*
X86241926Y-96965537D01*
X86411444Y-97078805D01*
X86599802Y-97156826D01*
X86799761Y-97196600D01*
X87003639Y-97196600D01*
X87203598Y-97156826D01*
X87391956Y-97078805D01*
X87561474Y-96965537D01*
X87605411Y-96921600D01*
X88144528Y-96921600D01*
X88144528Y-97340000D01*
X81562833Y-97340000D01*
X78130000Y-93735977D01*
X78130000Y-89002890D01*
X83013524Y-89002890D01*
X83058175Y-89150099D01*
X83183359Y-89412920D01*
X83357412Y-89646269D01*
X83573645Y-89841178D01*
X83823748Y-89990157D01*
X84098109Y-90087481D01*
X84328000Y-89966814D01*
X84328000Y-88773000D01*
X84582000Y-88773000D01*
X84582000Y-89966814D01*
X84811891Y-90087481D01*
X85086252Y-89990157D01*
X85336355Y-89841178D01*
X85552588Y-89646269D01*
X85726641Y-89412920D01*
X85851825Y-89150099D01*
X85896476Y-89002890D01*
X85775155Y-88773000D01*
X84582000Y-88773000D01*
X84328000Y-88773000D01*
X83134845Y-88773000D01*
X83013524Y-89002890D01*
X78130000Y-89002890D01*
X78130000Y-86462890D01*
X83013524Y-86462890D01*
X83058175Y-86610099D01*
X83183359Y-86872920D01*
X83357412Y-87106269D01*
X83573645Y-87301178D01*
X83699255Y-87376000D01*
X83573645Y-87450822D01*
X83357412Y-87645731D01*
X83183359Y-87879080D01*
X83058175Y-88141901D01*
X83013524Y-88289110D01*
X83134845Y-88519000D01*
X84328000Y-88519000D01*
X84328000Y-86233000D01*
X84582000Y-86233000D01*
X84582000Y-88519000D01*
X85775155Y-88519000D01*
X85896476Y-88289110D01*
X85851825Y-88141901D01*
X85726641Y-87879080D01*
X85552588Y-87645731D01*
X85336355Y-87450822D01*
X85210745Y-87376000D01*
X85336355Y-87301178D01*
X85552588Y-87106269D01*
X85726641Y-86872920D01*
X85851825Y-86610099D01*
X85896476Y-86462890D01*
X85775155Y-86233000D01*
X84582000Y-86233000D01*
X84328000Y-86233000D01*
X83134845Y-86233000D01*
X83013524Y-86462890D01*
X78130000Y-86462890D01*
X78130000Y-79591600D01*
X78359000Y-79475378D01*
X78359000Y-78232000D01*
X78339000Y-78232000D01*
X78339000Y-77978000D01*
X78359000Y-77978000D01*
X78359000Y-76734622D01*
X78130000Y-76618400D01*
X78130000Y-74563072D01*
X79386000Y-74563072D01*
X79510482Y-74550812D01*
X79630180Y-74514502D01*
X79740494Y-74455537D01*
X79823901Y-74387087D01*
X79823901Y-77366274D01*
G36*
X90608163Y-72941074D02*
G01*
X90752326Y-73085237D01*
X90921844Y-73198505D01*
X91110202Y-73276526D01*
X91310161Y-73316300D01*
X91372299Y-73316300D01*
X95330372Y-77274374D01*
X95305992Y-77354745D01*
X95288928Y-77527999D01*
X95288928Y-78428001D01*
X95305992Y-78601255D01*
X95356528Y-78767851D01*
X95438595Y-78921387D01*
X95549038Y-79055962D01*
X95683613Y-79166405D01*
X95837149Y-79248472D01*
X96003745Y-79299008D01*
X96176999Y-79316072D01*
X96827001Y-79316072D01*
X97000255Y-79299008D01*
X97166851Y-79248472D01*
X97320387Y-79166405D01*
X97454962Y-79055962D01*
X97527000Y-78968184D01*
X97599038Y-79055962D01*
X97733613Y-79166405D01*
X97887149Y-79248472D01*
X98053745Y-79299008D01*
X98226999Y-79316072D01*
X98877001Y-79316072D01*
X99050255Y-79299008D01*
X99216851Y-79248472D01*
X99370387Y-79166405D01*
X99504962Y-79055962D01*
X99615405Y-78921387D01*
X99686274Y-78788800D01*
X100696928Y-78788800D01*
X100696928Y-78928800D01*
X100709188Y-79053282D01*
X100745498Y-79172980D01*
X100804463Y-79283294D01*
X100883815Y-79379985D01*
X100980506Y-79459337D01*
X101090820Y-79518302D01*
X101210518Y-79554612D01*
X101335000Y-79566872D01*
X103135000Y-79566872D01*
X103259482Y-79554612D01*
X103379180Y-79518302D01*
X103489494Y-79459337D01*
X103586185Y-79379985D01*
X103665537Y-79283294D01*
X103724502Y-79172980D01*
X103760812Y-79053282D01*
X103773072Y-78928800D01*
X103773072Y-77128800D01*
X103760812Y-77004318D01*
X103724502Y-76884620D01*
X103665537Y-76774306D01*
X103586185Y-76677615D01*
X103489494Y-76598263D01*
X103379180Y-76539298D01*
X103368265Y-76535987D01*
X103415030Y-76489222D01*
X103299082Y-76373274D01*
X103553261Y-76289592D01*
X103684158Y-76017025D01*
X103759365Y-75724158D01*
X103775991Y-75422247D01*
X103733397Y-75122893D01*
X103682801Y-74978800D01*
X108489928Y-74978800D01*
X108489928Y-76365000D01*
X108502188Y-76489482D01*
X108538498Y-76609180D01*
X108597463Y-76719494D01*
X108676815Y-76816185D01*
X108773506Y-76895537D01*
X108883820Y-76954502D01*
X109003518Y-76990812D01*
X109128000Y-77003072D01*
X110873401Y-77003072D01*
X110873400Y-79515398D01*
X108695998Y-81692801D01*
X108667000Y-81716599D01*
X108643202Y-81745597D01*
X108643201Y-81745598D01*
X108572026Y-81832324D01*
X108501454Y-81964354D01*
X108475649Y-82049424D01*
X108457998Y-82107614D01*
X108447231Y-82216928D01*
X108443324Y-82256600D01*
X108447001Y-82293932D01*
X108447000Y-84720000D01*
X108026614Y-84720000D01*
X107995405Y-84661613D01*
X107884962Y-84527038D01*
X107878406Y-84521658D01*
X107958185Y-84456185D01*
X108037537Y-84359494D01*
X108096502Y-84249180D01*
X108132812Y-84129482D01*
X108145072Y-84005000D01*
X108142000Y-83715750D01*
X107983250Y-83557000D01*
X106934000Y-83557000D01*
X106934000Y-83577000D01*
X106680000Y-83577000D01*
X106680000Y-83557000D01*
X104775000Y-83557000D01*
X104775000Y-83577000D01*
X104521000Y-83577000D01*
X104521000Y-83557000D01*
X104501000Y-83557000D01*
X104501000Y-83303000D01*
X104521000Y-83303000D01*
X104521000Y-82378750D01*
X104775000Y-82378750D01*
X104775000Y-83303000D01*
X106680000Y-83303000D01*
X106680000Y-82378750D01*
X106934000Y-82378750D01*
X106934000Y-83303000D01*
X107983250Y-83303000D01*
X108142000Y-83144250D01*
X108145072Y-82855000D01*
X108132812Y-82730518D01*
X108096502Y-82610820D01*
X108037537Y-82500506D01*
X107958185Y-82403815D01*
X107861494Y-82324463D01*
X107751180Y-82265498D01*
X107631482Y-82229188D01*
X107507000Y-82216928D01*
X107092750Y-82220000D01*
X106934000Y-82378750D01*
X106680000Y-82378750D01*
X106521250Y-82220000D01*
X106107000Y-82216928D01*
X105982518Y-82229188D01*
X105862820Y-82265498D01*
X105752506Y-82324463D01*
X105727500Y-82344985D01*
X105702494Y-82324463D01*
X105592180Y-82265498D01*
X105472482Y-82229188D01*
X105348000Y-82216928D01*
X104933750Y-82220000D01*
X104775000Y-82378750D01*
X104521000Y-82378750D01*
X104362250Y-82220000D01*
X103948000Y-82216928D01*
X103823518Y-82229188D01*
X103703820Y-82265498D01*
X103593506Y-82324463D01*
X103496815Y-82403815D01*
X103417463Y-82500506D01*
X103358498Y-82610820D01*
X103322188Y-82730518D01*
X103309928Y-82855000D01*
X103312205Y-83069404D01*
X102855804Y-82613003D01*
X102832001Y-82583999D01*
X102716276Y-82489026D01*
X102584247Y-82418454D01*
X102440986Y-82374997D01*
X102329333Y-82364000D01*
X102329322Y-82364000D01*
X102292000Y-82360324D01*
X102254678Y-82364000D01*
X96328468Y-82364000D01*
X96315185Y-82347815D01*
X96218494Y-82268463D01*
X96108180Y-82209498D01*
X95988482Y-82173188D01*
X95864000Y-82160928D01*
X94804000Y-82160928D01*
X94757690Y-82165489D01*
X94554904Y-81962703D01*
X94531101Y-81933699D01*
X94415376Y-81838726D01*
X94283347Y-81768154D01*
X94140086Y-81724697D01*
X94028433Y-81713700D01*
X94028422Y-81713700D01*
X93991100Y-81710024D01*
X93953778Y-81713700D01*
X90111072Y-81713700D01*
X90111072Y-81190999D01*
X90094008Y-81017745D01*
X90043472Y-80851149D01*
X89961405Y-80697613D01*
X89850962Y-80563038D01*
X89716387Y-80452595D01*
X89562851Y-80370528D01*
X89533000Y-80361473D01*
X89533000Y-79141527D01*
X89562851Y-79132472D01*
X89716387Y-79050405D01*
X89850962Y-78939962D01*
X89961405Y-78805387D01*
X90043472Y-78651851D01*
X90094008Y-78485255D01*
X90111072Y-78312001D01*
X90111072Y-77723730D01*
X90333903Y-77500899D01*
X90362901Y-77477101D01*
X90457874Y-77361376D01*
X90528446Y-77229347D01*
X90571903Y-77086086D01*
X90582900Y-76974433D01*
X90582900Y-76974423D01*
X90586576Y-76937100D01*
X90582900Y-76899777D01*
X90582900Y-72903265D01*
X90608163Y-72941074D01*
X90608163Y-72941074D01*
G37*
X90608163Y-72941074D02*
X90752326Y-73085237D01*
X90921844Y-73198505D01*
X91110202Y-73276526D01*
X91310161Y-73316300D01*
X91372299Y-73316300D01*
X95330372Y-77274374D01*
X95305992Y-77354745D01*
X95288928Y-77527999D01*
X95288928Y-78428001D01*
X95305992Y-78601255D01*
X95356528Y-78767851D01*
X95438595Y-78921387D01*
X95549038Y-79055962D01*
X95683613Y-79166405D01*
X95837149Y-79248472D01*
X96003745Y-79299008D01*
X96176999Y-79316072D01*
X96827001Y-79316072D01*
X97000255Y-79299008D01*
X97166851Y-79248472D01*
X97320387Y-79166405D01*
X97454962Y-79055962D01*
X97527000Y-78968184D01*
X97599038Y-79055962D01*
X97733613Y-79166405D01*
X97887149Y-79248472D01*
X98053745Y-79299008D01*
X98226999Y-79316072D01*
X98877001Y-79316072D01*
X99050255Y-79299008D01*
X99216851Y-79248472D01*
X99370387Y-79166405D01*
X99504962Y-79055962D01*
X99615405Y-78921387D01*
X99686274Y-78788800D01*
X100696928Y-78788800D01*
X100696928Y-78928800D01*
X100709188Y-79053282D01*
X100745498Y-79172980D01*
X100804463Y-79283294D01*
X100883815Y-79379985D01*
X100980506Y-79459337D01*
X101090820Y-79518302D01*
X101210518Y-79554612D01*
X101335000Y-79566872D01*
X103135000Y-79566872D01*
X103259482Y-79554612D01*
X103379180Y-79518302D01*
X103489494Y-79459337D01*
X103586185Y-79379985D01*
X103665537Y-79283294D01*
X103724502Y-79172980D01*
X103760812Y-79053282D01*
X103773072Y-78928800D01*
X103773072Y-77128800D01*
X103760812Y-77004318D01*
X103724502Y-76884620D01*
X103665537Y-76774306D01*
X103586185Y-76677615D01*
X103489494Y-76598263D01*
X103379180Y-76539298D01*
X103368265Y-76535987D01*
X103415030Y-76489222D01*
X103299082Y-76373274D01*
X103553261Y-76289592D01*
X103684158Y-76017025D01*
X103759365Y-75724158D01*
X103775991Y-75422247D01*
X103733397Y-75122893D01*
X103682801Y-74978800D01*
X108489928Y-74978800D01*
X108489928Y-76365000D01*
X108502188Y-76489482D01*
X108538498Y-76609180D01*
X108597463Y-76719494D01*
X108676815Y-76816185D01*
X108773506Y-76895537D01*
X108883820Y-76954502D01*
X109003518Y-76990812D01*
X109128000Y-77003072D01*
X110873401Y-77003072D01*
X110873400Y-79515398D01*
X108695998Y-81692801D01*
X108667000Y-81716599D01*
X108643202Y-81745597D01*
X108643201Y-81745598D01*
X108572026Y-81832324D01*
X108501454Y-81964354D01*
X108475649Y-82049424D01*
X108457998Y-82107614D01*
X108447231Y-82216928D01*
X108443324Y-82256600D01*
X108447001Y-82293932D01*
X108447000Y-84720000D01*
X108026614Y-84720000D01*
X107995405Y-84661613D01*
X107884962Y-84527038D01*
X107878406Y-84521658D01*
X107958185Y-84456185D01*
X108037537Y-84359494D01*
X108096502Y-84249180D01*
X108132812Y-84129482D01*
X108145072Y-84005000D01*
X108142000Y-83715750D01*
X107983250Y-83557000D01*
X106934000Y-83557000D01*
X106934000Y-83577000D01*
X106680000Y-83577000D01*
X106680000Y-83557000D01*
X104775000Y-83557000D01*
X104775000Y-83577000D01*
X104521000Y-83577000D01*
X104521000Y-83557000D01*
X104501000Y-83557000D01*
X104501000Y-83303000D01*
X104521000Y-83303000D01*
X104521000Y-82378750D01*
X104775000Y-82378750D01*
X104775000Y-83303000D01*
X106680000Y-83303000D01*
X106680000Y-82378750D01*
X106934000Y-82378750D01*
X106934000Y-83303000D01*
X107983250Y-83303000D01*
X108142000Y-83144250D01*
X108145072Y-82855000D01*
X108132812Y-82730518D01*
X108096502Y-82610820D01*
X108037537Y-82500506D01*
X107958185Y-82403815D01*
X107861494Y-82324463D01*
X107751180Y-82265498D01*
X107631482Y-82229188D01*
X107507000Y-82216928D01*
X107092750Y-82220000D01*
X106934000Y-82378750D01*
X106680000Y-82378750D01*
X106521250Y-82220000D01*
X106107000Y-82216928D01*
X105982518Y-82229188D01*
X105862820Y-82265498D01*
X105752506Y-82324463D01*
X105727500Y-82344985D01*
X105702494Y-82324463D01*
X105592180Y-82265498D01*
X105472482Y-82229188D01*
X105348000Y-82216928D01*
X104933750Y-82220000D01*
X104775000Y-82378750D01*
X104521000Y-82378750D01*
X104362250Y-82220000D01*
X103948000Y-82216928D01*
X103823518Y-82229188D01*
X103703820Y-82265498D01*
X103593506Y-82324463D01*
X103496815Y-82403815D01*
X103417463Y-82500506D01*
X103358498Y-82610820D01*
X103322188Y-82730518D01*
X103309928Y-82855000D01*
X103312205Y-83069404D01*
X102855804Y-82613003D01*
X102832001Y-82583999D01*
X102716276Y-82489026D01*
X102584247Y-82418454D01*
X102440986Y-82374997D01*
X102329333Y-82364000D01*
X102329322Y-82364000D01*
X102292000Y-82360324D01*
X102254678Y-82364000D01*
X96328468Y-82364000D01*
X96315185Y-82347815D01*
X96218494Y-82268463D01*
X96108180Y-82209498D01*
X95988482Y-82173188D01*
X95864000Y-82160928D01*
X94804000Y-82160928D01*
X94757690Y-82165489D01*
X94554904Y-81962703D01*
X94531101Y-81933699D01*
X94415376Y-81838726D01*
X94283347Y-81768154D01*
X94140086Y-81724697D01*
X94028433Y-81713700D01*
X94028422Y-81713700D01*
X93991100Y-81710024D01*
X93953778Y-81713700D01*
X90111072Y-81713700D01*
X90111072Y-81190999D01*
X90094008Y-81017745D01*
X90043472Y-80851149D01*
X89961405Y-80697613D01*
X89850962Y-80563038D01*
X89716387Y-80452595D01*
X89562851Y-80370528D01*
X89533000Y-80361473D01*
X89533000Y-79141527D01*
X89562851Y-79132472D01*
X89716387Y-79050405D01*
X89850962Y-78939962D01*
X89961405Y-78805387D01*
X90043472Y-78651851D01*
X90094008Y-78485255D01*
X90111072Y-78312001D01*
X90111072Y-77723730D01*
X90333903Y-77500899D01*
X90362901Y-77477101D01*
X90457874Y-77361376D01*
X90528446Y-77229347D01*
X90571903Y-77086086D01*
X90582900Y-76974433D01*
X90582900Y-76974423D01*
X90586576Y-76937100D01*
X90582900Y-76899777D01*
X90582900Y-72903265D01*
X90608163Y-72941074D01*
G36*
X102428748Y-75474658D02*
G01*
X102414605Y-75488800D01*
X102428748Y-75502943D01*
X102249143Y-75682548D01*
X102235000Y-75668405D01*
X102220858Y-75682548D01*
X102041253Y-75502943D01*
X102055395Y-75488800D01*
X102041253Y-75474658D01*
X102220858Y-75295053D01*
X102235000Y-75309195D01*
X102249143Y-75295053D01*
X102428748Y-75474658D01*
X102428748Y-75474658D01*
G37*
X102428748Y-75474658D02*
X102414605Y-75488800D01*
X102428748Y-75502943D01*
X102249143Y-75682548D01*
X102235000Y-75668405D01*
X102220858Y-75682548D01*
X102041253Y-75502943D01*
X102055395Y-75488800D01*
X102041253Y-75474658D01*
X102220858Y-75295053D01*
X102235000Y-75309195D01*
X102249143Y-75295053D01*
X102428748Y-75474658D01*
G36*
X100021928Y-57225500D02*
G01*
X100038992Y-57398754D01*
X100089528Y-57565350D01*
X100171595Y-57718886D01*
X100282038Y-57853462D01*
X100358813Y-57916469D01*
X100305506Y-57944963D01*
X100208815Y-58024315D01*
X100129463Y-58121006D01*
X100070498Y-58231320D01*
X100034188Y-58351018D01*
X100021928Y-58475500D01*
X100025000Y-59489750D01*
X100183750Y-59648500D01*
X101333000Y-59648500D01*
X101333000Y-59628500D01*
X101587000Y-59628500D01*
X101587000Y-59648500D01*
X102736250Y-59648500D01*
X102895000Y-59489750D01*
X102898072Y-58475500D01*
X102885812Y-58351018D01*
X102849502Y-58231320D01*
X102790537Y-58121006D01*
X102711185Y-58024315D01*
X102614494Y-57944963D01*
X102561187Y-57916469D01*
X102637962Y-57853462D01*
X102748405Y-57718886D01*
X102830472Y-57565350D01*
X102881008Y-57398754D01*
X102898072Y-57225500D01*
X102898072Y-56935500D01*
X104392787Y-56935500D01*
X104468424Y-56997574D01*
X104581963Y-57058263D01*
X104592188Y-57162082D01*
X104628498Y-57281780D01*
X104687463Y-57392094D01*
X104766815Y-57488785D01*
X104860559Y-57565719D01*
X104763527Y-57698971D01*
X104655762Y-57932072D01*
X104625090Y-58033200D01*
X104748776Y-58235600D01*
X105766000Y-58235600D01*
X105766000Y-58215600D01*
X106020000Y-58215600D01*
X106020000Y-58235600D01*
X106040000Y-58235600D01*
X106040000Y-58489600D01*
X106020000Y-58489600D01*
X106020000Y-58509600D01*
X105766000Y-58509600D01*
X105766000Y-58489600D01*
X104748776Y-58489600D01*
X104625090Y-58692000D01*
X104655762Y-58793128D01*
X104763527Y-59026229D01*
X104914697Y-59233827D01*
X105050648Y-59359228D01*
X104962208Y-59431808D01*
X104798505Y-59631282D01*
X104676862Y-59858859D01*
X104601955Y-60105795D01*
X104576662Y-60362600D01*
X104601955Y-60619405D01*
X104676862Y-60866341D01*
X104798505Y-61093918D01*
X104962208Y-61293392D01*
X105046539Y-61362600D01*
X104962208Y-61431808D01*
X104798505Y-61631282D01*
X104676862Y-61858859D01*
X104601955Y-62105795D01*
X104576662Y-62362600D01*
X104601955Y-62619405D01*
X104676862Y-62866341D01*
X104798505Y-63093918D01*
X104962208Y-63293392D01*
X105046539Y-63362600D01*
X104962208Y-63431808D01*
X104819113Y-63606171D01*
X104743714Y-63613597D01*
X104600453Y-63657054D01*
X104468424Y-63727626D01*
X104352699Y-63822599D01*
X104328901Y-63851597D01*
X102894699Y-65285800D01*
X97309104Y-65285800D01*
X97327099Y-65252134D01*
X97412013Y-64972211D01*
X97440685Y-64681100D01*
X97412013Y-64389989D01*
X97327099Y-64110066D01*
X97189206Y-63852086D01*
X97003634Y-63625966D01*
X96777514Y-63440394D01*
X96722709Y-63411100D01*
X96777514Y-63381806D01*
X97003634Y-63196234D01*
X97189206Y-62970114D01*
X97327099Y-62712134D01*
X97412013Y-62432211D01*
X97440685Y-62141100D01*
X97412013Y-61849989D01*
X97327099Y-61570066D01*
X97189206Y-61312086D01*
X97003634Y-61085966D01*
X96990882Y-61075500D01*
X100021928Y-61075500D01*
X100034188Y-61199982D01*
X100070498Y-61319680D01*
X100129463Y-61429994D01*
X100208815Y-61526685D01*
X100305506Y-61606037D01*
X100415820Y-61665002D01*
X100535518Y-61701312D01*
X100660000Y-61713572D01*
X101174250Y-61710500D01*
X101333000Y-61551750D01*
X101333000Y-59902500D01*
X101587000Y-59902500D01*
X101587000Y-61551750D01*
X101745750Y-61710500D01*
X102260000Y-61713572D01*
X102384482Y-61701312D01*
X102504180Y-61665002D01*
X102614494Y-61606037D01*
X102711185Y-61526685D01*
X102790537Y-61429994D01*
X102849502Y-61319680D01*
X102885812Y-61199982D01*
X102898072Y-61075500D01*
X102895000Y-60061250D01*
X102736250Y-59902500D01*
X101587000Y-59902500D01*
X101333000Y-59902500D01*
X100183750Y-59902500D01*
X100025000Y-60061250D01*
X100021928Y-61075500D01*
X96990882Y-61075500D01*
X96777514Y-60900394D01*
X96712977Y-60865899D01*
X96829855Y-60796278D01*
X97046088Y-60601369D01*
X97220141Y-60368020D01*
X97345325Y-60105199D01*
X97389976Y-59957990D01*
X97268655Y-59728100D01*
X96075500Y-59728100D01*
X96075500Y-59748100D01*
X95821500Y-59748100D01*
X95821500Y-59728100D01*
X94628345Y-59728100D01*
X94507024Y-59957990D01*
X94551675Y-60105199D01*
X94676859Y-60368020D01*
X94850912Y-60601369D01*
X95067145Y-60796278D01*
X95184023Y-60865899D01*
X95119486Y-60900394D01*
X94893366Y-61085966D01*
X94707794Y-61312086D01*
X94569901Y-61570066D01*
X94484987Y-61849989D01*
X94458735Y-62116533D01*
X93113204Y-60771003D01*
X93089401Y-60741999D01*
X92973676Y-60647026D01*
X92841647Y-60576454D01*
X92698386Y-60532997D01*
X92586733Y-60522000D01*
X92586722Y-60522000D01*
X92549400Y-60518324D01*
X92512078Y-60522000D01*
X90581072Y-60522000D01*
X90581072Y-60482000D01*
X90568812Y-60357518D01*
X90532502Y-60237820D01*
X90473537Y-60127506D01*
X90394185Y-60030815D01*
X90297494Y-59951463D01*
X90200098Y-59899403D01*
X92278402Y-57821100D01*
X94460428Y-57821100D01*
X94460428Y-57911100D01*
X94472688Y-58035582D01*
X94508998Y-58155280D01*
X94567963Y-58265594D01*
X94647315Y-58362285D01*
X94744006Y-58441637D01*
X94854320Y-58500602D01*
X94934966Y-58525066D01*
X94850912Y-58600831D01*
X94676859Y-58834180D01*
X94551675Y-59097001D01*
X94507024Y-59244210D01*
X94628345Y-59474100D01*
X95821500Y-59474100D01*
X95821500Y-59454100D01*
X96075500Y-59454100D01*
X96075500Y-59474100D01*
X97268655Y-59474100D01*
X97389976Y-59244210D01*
X97345325Y-59097001D01*
X97220141Y-58834180D01*
X97046088Y-58600831D01*
X96962034Y-58525066D01*
X97042680Y-58500602D01*
X97152994Y-58441637D01*
X97249685Y-58362285D01*
X97329037Y-58265594D01*
X97388002Y-58155280D01*
X97424312Y-58035582D01*
X97436572Y-57911100D01*
X97436572Y-57755675D01*
X97548076Y-57696074D01*
X97663801Y-57601101D01*
X97687603Y-57572098D01*
X98324202Y-56935500D01*
X100021928Y-56935500D01*
X100021928Y-57225500D01*
X100021928Y-57225500D01*
G37*
X100021928Y-57225500D02*
X100038992Y-57398754D01*
X100089528Y-57565350D01*
X100171595Y-57718886D01*
X100282038Y-57853462D01*
X100358813Y-57916469D01*
X100305506Y-57944963D01*
X100208815Y-58024315D01*
X100129463Y-58121006D01*
X100070498Y-58231320D01*
X100034188Y-58351018D01*
X100021928Y-58475500D01*
X100025000Y-59489750D01*
X100183750Y-59648500D01*
X101333000Y-59648500D01*
X101333000Y-59628500D01*
X101587000Y-59628500D01*
X101587000Y-59648500D01*
X102736250Y-59648500D01*
X102895000Y-59489750D01*
X102898072Y-58475500D01*
X102885812Y-58351018D01*
X102849502Y-58231320D01*
X102790537Y-58121006D01*
X102711185Y-58024315D01*
X102614494Y-57944963D01*
X102561187Y-57916469D01*
X102637962Y-57853462D01*
X102748405Y-57718886D01*
X102830472Y-57565350D01*
X102881008Y-57398754D01*
X102898072Y-57225500D01*
X102898072Y-56935500D01*
X104392787Y-56935500D01*
X104468424Y-56997574D01*
X104581963Y-57058263D01*
X104592188Y-57162082D01*
X104628498Y-57281780D01*
X104687463Y-57392094D01*
X104766815Y-57488785D01*
X104860559Y-57565719D01*
X104763527Y-57698971D01*
X104655762Y-57932072D01*
X104625090Y-58033200D01*
X104748776Y-58235600D01*
X105766000Y-58235600D01*
X105766000Y-58215600D01*
X106020000Y-58215600D01*
X106020000Y-58235600D01*
X106040000Y-58235600D01*
X106040000Y-58489600D01*
X106020000Y-58489600D01*
X106020000Y-58509600D01*
X105766000Y-58509600D01*
X105766000Y-58489600D01*
X104748776Y-58489600D01*
X104625090Y-58692000D01*
X104655762Y-58793128D01*
X104763527Y-59026229D01*
X104914697Y-59233827D01*
X105050648Y-59359228D01*
X104962208Y-59431808D01*
X104798505Y-59631282D01*
X104676862Y-59858859D01*
X104601955Y-60105795D01*
X104576662Y-60362600D01*
X104601955Y-60619405D01*
X104676862Y-60866341D01*
X104798505Y-61093918D01*
X104962208Y-61293392D01*
X105046539Y-61362600D01*
X104962208Y-61431808D01*
X104798505Y-61631282D01*
X104676862Y-61858859D01*
X104601955Y-62105795D01*
X104576662Y-62362600D01*
X104601955Y-62619405D01*
X104676862Y-62866341D01*
X104798505Y-63093918D01*
X104962208Y-63293392D01*
X105046539Y-63362600D01*
X104962208Y-63431808D01*
X104819113Y-63606171D01*
X104743714Y-63613597D01*
X104600453Y-63657054D01*
X104468424Y-63727626D01*
X104352699Y-63822599D01*
X104328901Y-63851597D01*
X102894699Y-65285800D01*
X97309104Y-65285800D01*
X97327099Y-65252134D01*
X97412013Y-64972211D01*
X97440685Y-64681100D01*
X97412013Y-64389989D01*
X97327099Y-64110066D01*
X97189206Y-63852086D01*
X97003634Y-63625966D01*
X96777514Y-63440394D01*
X96722709Y-63411100D01*
X96777514Y-63381806D01*
X97003634Y-63196234D01*
X97189206Y-62970114D01*
X97327099Y-62712134D01*
X97412013Y-62432211D01*
X97440685Y-62141100D01*
X97412013Y-61849989D01*
X97327099Y-61570066D01*
X97189206Y-61312086D01*
X97003634Y-61085966D01*
X96990882Y-61075500D01*
X100021928Y-61075500D01*
X100034188Y-61199982D01*
X100070498Y-61319680D01*
X100129463Y-61429994D01*
X100208815Y-61526685D01*
X100305506Y-61606037D01*
X100415820Y-61665002D01*
X100535518Y-61701312D01*
X100660000Y-61713572D01*
X101174250Y-61710500D01*
X101333000Y-61551750D01*
X101333000Y-59902500D01*
X101587000Y-59902500D01*
X101587000Y-61551750D01*
X101745750Y-61710500D01*
X102260000Y-61713572D01*
X102384482Y-61701312D01*
X102504180Y-61665002D01*
X102614494Y-61606037D01*
X102711185Y-61526685D01*
X102790537Y-61429994D01*
X102849502Y-61319680D01*
X102885812Y-61199982D01*
X102898072Y-61075500D01*
X102895000Y-60061250D01*
X102736250Y-59902500D01*
X101587000Y-59902500D01*
X101333000Y-59902500D01*
X100183750Y-59902500D01*
X100025000Y-60061250D01*
X100021928Y-61075500D01*
X96990882Y-61075500D01*
X96777514Y-60900394D01*
X96712977Y-60865899D01*
X96829855Y-60796278D01*
X97046088Y-60601369D01*
X97220141Y-60368020D01*
X97345325Y-60105199D01*
X97389976Y-59957990D01*
X97268655Y-59728100D01*
X96075500Y-59728100D01*
X96075500Y-59748100D01*
X95821500Y-59748100D01*
X95821500Y-59728100D01*
X94628345Y-59728100D01*
X94507024Y-59957990D01*
X94551675Y-60105199D01*
X94676859Y-60368020D01*
X94850912Y-60601369D01*
X95067145Y-60796278D01*
X95184023Y-60865899D01*
X95119486Y-60900394D01*
X94893366Y-61085966D01*
X94707794Y-61312086D01*
X94569901Y-61570066D01*
X94484987Y-61849989D01*
X94458735Y-62116533D01*
X93113204Y-60771003D01*
X93089401Y-60741999D01*
X92973676Y-60647026D01*
X92841647Y-60576454D01*
X92698386Y-60532997D01*
X92586733Y-60522000D01*
X92586722Y-60522000D01*
X92549400Y-60518324D01*
X92512078Y-60522000D01*
X90581072Y-60522000D01*
X90581072Y-60482000D01*
X90568812Y-60357518D01*
X90532502Y-60237820D01*
X90473537Y-60127506D01*
X90394185Y-60030815D01*
X90297494Y-59951463D01*
X90200098Y-59899403D01*
X92278402Y-57821100D01*
X94460428Y-57821100D01*
X94460428Y-57911100D01*
X94472688Y-58035582D01*
X94508998Y-58155280D01*
X94567963Y-58265594D01*
X94647315Y-58362285D01*
X94744006Y-58441637D01*
X94854320Y-58500602D01*
X94934966Y-58525066D01*
X94850912Y-58600831D01*
X94676859Y-58834180D01*
X94551675Y-59097001D01*
X94507024Y-59244210D01*
X94628345Y-59474100D01*
X95821500Y-59474100D01*
X95821500Y-59454100D01*
X96075500Y-59454100D01*
X96075500Y-59474100D01*
X97268655Y-59474100D01*
X97389976Y-59244210D01*
X97345325Y-59097001D01*
X97220141Y-58834180D01*
X97046088Y-58600831D01*
X96962034Y-58525066D01*
X97042680Y-58500602D01*
X97152994Y-58441637D01*
X97249685Y-58362285D01*
X97329037Y-58265594D01*
X97388002Y-58155280D01*
X97424312Y-58035582D01*
X97436572Y-57911100D01*
X97436572Y-57755675D01*
X97548076Y-57696074D01*
X97663801Y-57601101D01*
X97687603Y-57572098D01*
X98324202Y-56935500D01*
X100021928Y-56935500D01*
X100021928Y-57225500D01*
G36*
X86469000Y-58801000D02*
G01*
X86489000Y-58801000D01*
X86489000Y-59055000D01*
X86469000Y-59055000D01*
X86469000Y-59075000D01*
X86215000Y-59075000D01*
X86215000Y-59055000D01*
X86195000Y-59055000D01*
X86195000Y-58801000D01*
X86215000Y-58801000D01*
X86215000Y-58781000D01*
X86469000Y-58781000D01*
X86469000Y-58801000D01*
X86469000Y-58801000D01*
G37*
X86469000Y-58801000D02*
X86489000Y-58801000D01*
X86489000Y-59055000D01*
X86469000Y-59055000D01*
X86469000Y-59075000D01*
X86215000Y-59075000D01*
X86215000Y-59055000D01*
X86195000Y-59055000D01*
X86195000Y-58801000D01*
X86215000Y-58801000D01*
X86215000Y-58781000D01*
X86469000Y-58781000D01*
X86469000Y-58801000D01*
G36*
X108620000Y-53943250D02*
G01*
X108778750Y-54102000D01*
X109728000Y-54102000D01*
X109728000Y-54082000D01*
X109982000Y-54082000D01*
X109982000Y-54102000D01*
X110002000Y-54102000D01*
X110002000Y-54356000D01*
X109982000Y-54356000D01*
X109982000Y-54376000D01*
X109728000Y-54376000D01*
X109728000Y-54356000D01*
X108778750Y-54356000D01*
X108620000Y-54514750D01*
X108618797Y-54794400D01*
X108582803Y-54794400D01*
X107448401Y-53660000D01*
X108618782Y-53660000D01*
X108620000Y-53943250D01*
X108620000Y-53943250D01*
G37*
X108620000Y-53943250D02*
X108778750Y-54102000D01*
X109728000Y-54102000D01*
X109728000Y-54082000D01*
X109982000Y-54082000D01*
X109982000Y-54102000D01*
X110002000Y-54102000D01*
X110002000Y-54356000D01*
X109982000Y-54356000D01*
X109982000Y-54376000D01*
X109728000Y-54376000D01*
X109728000Y-54356000D01*
X108778750Y-54356000D01*
X108620000Y-54514750D01*
X108618797Y-54794400D01*
X108582803Y-54794400D01*
X107448401Y-53660000D01*
X108618782Y-53660000D01*
X108620000Y-53943250D01*
M02*
