G04 #@! TF.GenerationSoftware,KiCad,Pcbnew,(5.1.4-0-10_14)*
G04 #@! TF.CreationDate,2019-09-18T16:42:36+02:00*
G04 #@! TF.ProjectId,hb-rc-2-pbu-led,68622d72-632d-4322-9d70-62752d6c6564,rev?*
G04 #@! TF.SameCoordinates,Original*
G04 #@! TF.FileFunction,Copper,L1,Top*
G04 #@! TF.FilePolarity,Positive*
%FSLAX46Y46*%
G04 Gerber Fmt 4.6, Leading zero omitted, Abs format (unit mm)*
G04 Created by KiCad (PCBNEW (5.1.4-0-10_14)) date 2019-09-18 16:42:36*
%MOMM*%
%LPD*%
G04 APERTURE LIST*
%ADD10O,1.800000X1.800000*%
%ADD11R,1.800000X1.800000*%
%ADD12R,1.200000X2.000000*%
%ADD13R,1.200000X3.000000*%
%ADD14O,1.700000X1.700000*%
%ADD15R,1.700000X1.700000*%
%ADD16C,0.100000*%
%ADD17C,1.600000*%
%ADD18C,1.150000*%
%ADD19C,2.000000*%
%ADD20R,2.180000X1.600000*%
%ADD21R,1.060000X0.650000*%
%ADD22R,2.000000X3.800000*%
%ADD23R,2.000000X1.500000*%
%ADD24R,1.600000X0.550000*%
%ADD25R,0.550000X1.600000*%
%ADD26O,1.350000X1.350000*%
%ADD27R,1.350000X1.350000*%
%ADD28C,1.800000*%
%ADD29C,0.800000*%
%ADD30C,0.250000*%
%ADD31C,0.254000*%
G04 APERTURE END LIST*
D10*
X125984000Y-73025000D03*
D11*
X125984000Y-78105000D03*
D10*
X78486000Y-78105000D03*
D11*
X78486000Y-73025000D03*
D12*
X109855000Y-54229000D03*
X112395000Y-54229000D03*
X114935000Y-54229000D03*
X89344500Y-54229000D03*
X91948000Y-54229000D03*
D13*
X94488000Y-96227900D03*
X89382600Y-96227900D03*
X91922600Y-96215200D03*
X91922600Y-92278200D03*
X89509600Y-92202000D03*
D14*
X95948500Y-69761100D03*
X95948500Y-67221100D03*
X95948500Y-64681100D03*
X95948500Y-62141100D03*
X95948500Y-59601100D03*
D15*
X95948500Y-57061100D03*
D16*
G36*
X119954504Y-81991204D02*
G01*
X119978773Y-81994804D01*
X120002571Y-82000765D01*
X120025671Y-82009030D01*
X120047849Y-82019520D01*
X120068893Y-82032133D01*
X120088598Y-82046747D01*
X120106777Y-82063223D01*
X120123253Y-82081402D01*
X120137867Y-82101107D01*
X120150480Y-82122151D01*
X120160970Y-82144329D01*
X120169235Y-82167429D01*
X120175196Y-82191227D01*
X120178796Y-82215496D01*
X120180000Y-82240000D01*
X120180000Y-84340000D01*
X120178796Y-84364504D01*
X120175196Y-84388773D01*
X120169235Y-84412571D01*
X120160970Y-84435671D01*
X120150480Y-84457849D01*
X120137867Y-84478893D01*
X120123253Y-84498598D01*
X120106777Y-84516777D01*
X120088598Y-84533253D01*
X120068893Y-84547867D01*
X120047849Y-84560480D01*
X120025671Y-84570970D01*
X120002571Y-84579235D01*
X119978773Y-84585196D01*
X119954504Y-84588796D01*
X119930000Y-84590000D01*
X118830000Y-84590000D01*
X118805496Y-84588796D01*
X118781227Y-84585196D01*
X118757429Y-84579235D01*
X118734329Y-84570970D01*
X118712151Y-84560480D01*
X118691107Y-84547867D01*
X118671402Y-84533253D01*
X118653223Y-84516777D01*
X118636747Y-84498598D01*
X118622133Y-84478893D01*
X118609520Y-84457849D01*
X118599030Y-84435671D01*
X118590765Y-84412571D01*
X118584804Y-84388773D01*
X118581204Y-84364504D01*
X118580000Y-84340000D01*
X118580000Y-82240000D01*
X118581204Y-82215496D01*
X118584804Y-82191227D01*
X118590765Y-82167429D01*
X118599030Y-82144329D01*
X118609520Y-82122151D01*
X118622133Y-82101107D01*
X118636747Y-82081402D01*
X118653223Y-82063223D01*
X118671402Y-82046747D01*
X118691107Y-82032133D01*
X118712151Y-82019520D01*
X118734329Y-82009030D01*
X118757429Y-82000765D01*
X118781227Y-81994804D01*
X118805496Y-81991204D01*
X118830000Y-81990000D01*
X119930000Y-81990000D01*
X119954504Y-81991204D01*
X119954504Y-81991204D01*
G37*
D17*
X119380000Y-83290000D03*
D16*
G36*
X119954504Y-85591204D02*
G01*
X119978773Y-85594804D01*
X120002571Y-85600765D01*
X120025671Y-85609030D01*
X120047849Y-85619520D01*
X120068893Y-85632133D01*
X120088598Y-85646747D01*
X120106777Y-85663223D01*
X120123253Y-85681402D01*
X120137867Y-85701107D01*
X120150480Y-85722151D01*
X120160970Y-85744329D01*
X120169235Y-85767429D01*
X120175196Y-85791227D01*
X120178796Y-85815496D01*
X120180000Y-85840000D01*
X120180000Y-87940000D01*
X120178796Y-87964504D01*
X120175196Y-87988773D01*
X120169235Y-88012571D01*
X120160970Y-88035671D01*
X120150480Y-88057849D01*
X120137867Y-88078893D01*
X120123253Y-88098598D01*
X120106777Y-88116777D01*
X120088598Y-88133253D01*
X120068893Y-88147867D01*
X120047849Y-88160480D01*
X120025671Y-88170970D01*
X120002571Y-88179235D01*
X119978773Y-88185196D01*
X119954504Y-88188796D01*
X119930000Y-88190000D01*
X118830000Y-88190000D01*
X118805496Y-88188796D01*
X118781227Y-88185196D01*
X118757429Y-88179235D01*
X118734329Y-88170970D01*
X118712151Y-88160480D01*
X118691107Y-88147867D01*
X118671402Y-88133253D01*
X118653223Y-88116777D01*
X118636747Y-88098598D01*
X118622133Y-88078893D01*
X118609520Y-88057849D01*
X118599030Y-88035671D01*
X118590765Y-88012571D01*
X118584804Y-87988773D01*
X118581204Y-87964504D01*
X118580000Y-87940000D01*
X118580000Y-85840000D01*
X118581204Y-85815496D01*
X118584804Y-85791227D01*
X118590765Y-85767429D01*
X118599030Y-85744329D01*
X118609520Y-85722151D01*
X118622133Y-85701107D01*
X118636747Y-85681402D01*
X118653223Y-85663223D01*
X118671402Y-85646747D01*
X118691107Y-85632133D01*
X118712151Y-85619520D01*
X118734329Y-85609030D01*
X118757429Y-85600765D01*
X118781227Y-85594804D01*
X118805496Y-85591204D01*
X118830000Y-85590000D01*
X119930000Y-85590000D01*
X119954504Y-85591204D01*
X119954504Y-85591204D01*
G37*
D17*
X119380000Y-86890000D03*
D16*
G36*
X111191504Y-81991204D02*
G01*
X111215773Y-81994804D01*
X111239571Y-82000765D01*
X111262671Y-82009030D01*
X111284849Y-82019520D01*
X111305893Y-82032133D01*
X111325598Y-82046747D01*
X111343777Y-82063223D01*
X111360253Y-82081402D01*
X111374867Y-82101107D01*
X111387480Y-82122151D01*
X111397970Y-82144329D01*
X111406235Y-82167429D01*
X111412196Y-82191227D01*
X111415796Y-82215496D01*
X111417000Y-82240000D01*
X111417000Y-84340000D01*
X111415796Y-84364504D01*
X111412196Y-84388773D01*
X111406235Y-84412571D01*
X111397970Y-84435671D01*
X111387480Y-84457849D01*
X111374867Y-84478893D01*
X111360253Y-84498598D01*
X111343777Y-84516777D01*
X111325598Y-84533253D01*
X111305893Y-84547867D01*
X111284849Y-84560480D01*
X111262671Y-84570970D01*
X111239571Y-84579235D01*
X111215773Y-84585196D01*
X111191504Y-84588796D01*
X111167000Y-84590000D01*
X110067000Y-84590000D01*
X110042496Y-84588796D01*
X110018227Y-84585196D01*
X109994429Y-84579235D01*
X109971329Y-84570970D01*
X109949151Y-84560480D01*
X109928107Y-84547867D01*
X109908402Y-84533253D01*
X109890223Y-84516777D01*
X109873747Y-84498598D01*
X109859133Y-84478893D01*
X109846520Y-84457849D01*
X109836030Y-84435671D01*
X109827765Y-84412571D01*
X109821804Y-84388773D01*
X109818204Y-84364504D01*
X109817000Y-84340000D01*
X109817000Y-82240000D01*
X109818204Y-82215496D01*
X109821804Y-82191227D01*
X109827765Y-82167429D01*
X109836030Y-82144329D01*
X109846520Y-82122151D01*
X109859133Y-82101107D01*
X109873747Y-82081402D01*
X109890223Y-82063223D01*
X109908402Y-82046747D01*
X109928107Y-82032133D01*
X109949151Y-82019520D01*
X109971329Y-82009030D01*
X109994429Y-82000765D01*
X110018227Y-81994804D01*
X110042496Y-81991204D01*
X110067000Y-81990000D01*
X111167000Y-81990000D01*
X111191504Y-81991204D01*
X111191504Y-81991204D01*
G37*
D17*
X110617000Y-83290000D03*
D16*
G36*
X111191504Y-85591204D02*
G01*
X111215773Y-85594804D01*
X111239571Y-85600765D01*
X111262671Y-85609030D01*
X111284849Y-85619520D01*
X111305893Y-85632133D01*
X111325598Y-85646747D01*
X111343777Y-85663223D01*
X111360253Y-85681402D01*
X111374867Y-85701107D01*
X111387480Y-85722151D01*
X111397970Y-85744329D01*
X111406235Y-85767429D01*
X111412196Y-85791227D01*
X111415796Y-85815496D01*
X111417000Y-85840000D01*
X111417000Y-87940000D01*
X111415796Y-87964504D01*
X111412196Y-87988773D01*
X111406235Y-88012571D01*
X111397970Y-88035671D01*
X111387480Y-88057849D01*
X111374867Y-88078893D01*
X111360253Y-88098598D01*
X111343777Y-88116777D01*
X111325598Y-88133253D01*
X111305893Y-88147867D01*
X111284849Y-88160480D01*
X111262671Y-88170970D01*
X111239571Y-88179235D01*
X111215773Y-88185196D01*
X111191504Y-88188796D01*
X111167000Y-88190000D01*
X110067000Y-88190000D01*
X110042496Y-88188796D01*
X110018227Y-88185196D01*
X109994429Y-88179235D01*
X109971329Y-88170970D01*
X109949151Y-88160480D01*
X109928107Y-88147867D01*
X109908402Y-88133253D01*
X109890223Y-88116777D01*
X109873747Y-88098598D01*
X109859133Y-88078893D01*
X109846520Y-88057849D01*
X109836030Y-88035671D01*
X109827765Y-88012571D01*
X109821804Y-87988773D01*
X109818204Y-87964504D01*
X109817000Y-87940000D01*
X109817000Y-85840000D01*
X109818204Y-85815496D01*
X109821804Y-85791227D01*
X109827765Y-85767429D01*
X109836030Y-85744329D01*
X109846520Y-85722151D01*
X109859133Y-85701107D01*
X109873747Y-85681402D01*
X109890223Y-85663223D01*
X109908402Y-85646747D01*
X109928107Y-85632133D01*
X109949151Y-85619520D01*
X109971329Y-85609030D01*
X109994429Y-85600765D01*
X110018227Y-85594804D01*
X110042496Y-85591204D01*
X110067000Y-85590000D01*
X111167000Y-85590000D01*
X111191504Y-85591204D01*
X111191504Y-85591204D01*
G37*
D17*
X110617000Y-86890000D03*
D16*
G36*
X102034504Y-58476704D02*
G01*
X102058773Y-58480304D01*
X102082571Y-58486265D01*
X102105671Y-58494530D01*
X102127849Y-58505020D01*
X102148893Y-58517633D01*
X102168598Y-58532247D01*
X102186777Y-58548723D01*
X102203253Y-58566902D01*
X102217867Y-58586607D01*
X102230480Y-58607651D01*
X102240970Y-58629829D01*
X102249235Y-58652929D01*
X102255196Y-58676727D01*
X102258796Y-58700996D01*
X102260000Y-58725500D01*
X102260000Y-60825500D01*
X102258796Y-60850004D01*
X102255196Y-60874273D01*
X102249235Y-60898071D01*
X102240970Y-60921171D01*
X102230480Y-60943349D01*
X102217867Y-60964393D01*
X102203253Y-60984098D01*
X102186777Y-61002277D01*
X102168598Y-61018753D01*
X102148893Y-61033367D01*
X102127849Y-61045980D01*
X102105671Y-61056470D01*
X102082571Y-61064735D01*
X102058773Y-61070696D01*
X102034504Y-61074296D01*
X102010000Y-61075500D01*
X100910000Y-61075500D01*
X100885496Y-61074296D01*
X100861227Y-61070696D01*
X100837429Y-61064735D01*
X100814329Y-61056470D01*
X100792151Y-61045980D01*
X100771107Y-61033367D01*
X100751402Y-61018753D01*
X100733223Y-61002277D01*
X100716747Y-60984098D01*
X100702133Y-60964393D01*
X100689520Y-60943349D01*
X100679030Y-60921171D01*
X100670765Y-60898071D01*
X100664804Y-60874273D01*
X100661204Y-60850004D01*
X100660000Y-60825500D01*
X100660000Y-58725500D01*
X100661204Y-58700996D01*
X100664804Y-58676727D01*
X100670765Y-58652929D01*
X100679030Y-58629829D01*
X100689520Y-58607651D01*
X100702133Y-58586607D01*
X100716747Y-58566902D01*
X100733223Y-58548723D01*
X100751402Y-58532247D01*
X100771107Y-58517633D01*
X100792151Y-58505020D01*
X100814329Y-58494530D01*
X100837429Y-58486265D01*
X100861227Y-58480304D01*
X100885496Y-58476704D01*
X100910000Y-58475500D01*
X102010000Y-58475500D01*
X102034504Y-58476704D01*
X102034504Y-58476704D01*
G37*
D17*
X101460000Y-59775500D03*
D16*
G36*
X102034504Y-54876704D02*
G01*
X102058773Y-54880304D01*
X102082571Y-54886265D01*
X102105671Y-54894530D01*
X102127849Y-54905020D01*
X102148893Y-54917633D01*
X102168598Y-54932247D01*
X102186777Y-54948723D01*
X102203253Y-54966902D01*
X102217867Y-54986607D01*
X102230480Y-55007651D01*
X102240970Y-55029829D01*
X102249235Y-55052929D01*
X102255196Y-55076727D01*
X102258796Y-55100996D01*
X102260000Y-55125500D01*
X102260000Y-57225500D01*
X102258796Y-57250004D01*
X102255196Y-57274273D01*
X102249235Y-57298071D01*
X102240970Y-57321171D01*
X102230480Y-57343349D01*
X102217867Y-57364393D01*
X102203253Y-57384098D01*
X102186777Y-57402277D01*
X102168598Y-57418753D01*
X102148893Y-57433367D01*
X102127849Y-57445980D01*
X102105671Y-57456470D01*
X102082571Y-57464735D01*
X102058773Y-57470696D01*
X102034504Y-57474296D01*
X102010000Y-57475500D01*
X100910000Y-57475500D01*
X100885496Y-57474296D01*
X100861227Y-57470696D01*
X100837429Y-57464735D01*
X100814329Y-57456470D01*
X100792151Y-57445980D01*
X100771107Y-57433367D01*
X100751402Y-57418753D01*
X100733223Y-57402277D01*
X100716747Y-57384098D01*
X100702133Y-57364393D01*
X100689520Y-57343349D01*
X100679030Y-57321171D01*
X100670765Y-57298071D01*
X100664804Y-57274273D01*
X100661204Y-57250004D01*
X100660000Y-57225500D01*
X100660000Y-55125500D01*
X100661204Y-55100996D01*
X100664804Y-55076727D01*
X100670765Y-55052929D01*
X100679030Y-55029829D01*
X100689520Y-55007651D01*
X100702133Y-54986607D01*
X100716747Y-54966902D01*
X100733223Y-54948723D01*
X100751402Y-54932247D01*
X100771107Y-54917633D01*
X100792151Y-54905020D01*
X100814329Y-54894530D01*
X100837429Y-54886265D01*
X100861227Y-54880304D01*
X100885496Y-54876704D01*
X100910000Y-54875500D01*
X102010000Y-54875500D01*
X102034504Y-54876704D01*
X102034504Y-54876704D01*
G37*
D17*
X101460000Y-56175500D03*
D16*
G36*
X103618505Y-69633804D02*
G01*
X103642773Y-69637404D01*
X103666572Y-69643365D01*
X103689671Y-69651630D01*
X103711850Y-69662120D01*
X103732893Y-69674732D01*
X103752599Y-69689347D01*
X103770777Y-69705823D01*
X103787253Y-69724001D01*
X103801868Y-69743707D01*
X103814480Y-69764750D01*
X103824970Y-69786929D01*
X103833235Y-69810028D01*
X103839196Y-69833827D01*
X103842796Y-69858095D01*
X103844000Y-69882599D01*
X103844000Y-70782601D01*
X103842796Y-70807105D01*
X103839196Y-70831373D01*
X103833235Y-70855172D01*
X103824970Y-70878271D01*
X103814480Y-70900450D01*
X103801868Y-70921493D01*
X103787253Y-70941199D01*
X103770777Y-70959377D01*
X103752599Y-70975853D01*
X103732893Y-70990468D01*
X103711850Y-71003080D01*
X103689671Y-71013570D01*
X103666572Y-71021835D01*
X103642773Y-71027796D01*
X103618505Y-71031396D01*
X103594001Y-71032600D01*
X102943999Y-71032600D01*
X102919495Y-71031396D01*
X102895227Y-71027796D01*
X102871428Y-71021835D01*
X102848329Y-71013570D01*
X102826150Y-71003080D01*
X102805107Y-70990468D01*
X102785401Y-70975853D01*
X102767223Y-70959377D01*
X102750747Y-70941199D01*
X102736132Y-70921493D01*
X102723520Y-70900450D01*
X102713030Y-70878271D01*
X102704765Y-70855172D01*
X102698804Y-70831373D01*
X102695204Y-70807105D01*
X102694000Y-70782601D01*
X102694000Y-69882599D01*
X102695204Y-69858095D01*
X102698804Y-69833827D01*
X102704765Y-69810028D01*
X102713030Y-69786929D01*
X102723520Y-69764750D01*
X102736132Y-69743707D01*
X102750747Y-69724001D01*
X102767223Y-69705823D01*
X102785401Y-69689347D01*
X102805107Y-69674732D01*
X102826150Y-69662120D01*
X102848329Y-69651630D01*
X102871428Y-69643365D01*
X102895227Y-69637404D01*
X102919495Y-69633804D01*
X102943999Y-69632600D01*
X103594001Y-69632600D01*
X103618505Y-69633804D01*
X103618505Y-69633804D01*
G37*
D18*
X103269000Y-70332600D03*
D16*
G36*
X101568505Y-69633804D02*
G01*
X101592773Y-69637404D01*
X101616572Y-69643365D01*
X101639671Y-69651630D01*
X101661850Y-69662120D01*
X101682893Y-69674732D01*
X101702599Y-69689347D01*
X101720777Y-69705823D01*
X101737253Y-69724001D01*
X101751868Y-69743707D01*
X101764480Y-69764750D01*
X101774970Y-69786929D01*
X101783235Y-69810028D01*
X101789196Y-69833827D01*
X101792796Y-69858095D01*
X101794000Y-69882599D01*
X101794000Y-70782601D01*
X101792796Y-70807105D01*
X101789196Y-70831373D01*
X101783235Y-70855172D01*
X101774970Y-70878271D01*
X101764480Y-70900450D01*
X101751868Y-70921493D01*
X101737253Y-70941199D01*
X101720777Y-70959377D01*
X101702599Y-70975853D01*
X101682893Y-70990468D01*
X101661850Y-71003080D01*
X101639671Y-71013570D01*
X101616572Y-71021835D01*
X101592773Y-71027796D01*
X101568505Y-71031396D01*
X101544001Y-71032600D01*
X100893999Y-71032600D01*
X100869495Y-71031396D01*
X100845227Y-71027796D01*
X100821428Y-71021835D01*
X100798329Y-71013570D01*
X100776150Y-71003080D01*
X100755107Y-70990468D01*
X100735401Y-70975853D01*
X100717223Y-70959377D01*
X100700747Y-70941199D01*
X100686132Y-70921493D01*
X100673520Y-70900450D01*
X100663030Y-70878271D01*
X100654765Y-70855172D01*
X100648804Y-70831373D01*
X100645204Y-70807105D01*
X100644000Y-70782601D01*
X100644000Y-69882599D01*
X100645204Y-69858095D01*
X100648804Y-69833827D01*
X100654765Y-69810028D01*
X100663030Y-69786929D01*
X100673520Y-69764750D01*
X100686132Y-69743707D01*
X100700747Y-69724001D01*
X100717223Y-69705823D01*
X100735401Y-69689347D01*
X100755107Y-69674732D01*
X100776150Y-69662120D01*
X100798329Y-69651630D01*
X100821428Y-69643365D01*
X100845227Y-69637404D01*
X100869495Y-69633804D01*
X100893999Y-69632600D01*
X101544001Y-69632600D01*
X101568505Y-69633804D01*
X101568505Y-69633804D01*
G37*
D18*
X101219000Y-70332600D03*
D16*
G36*
X89247505Y-80942204D02*
G01*
X89271773Y-80945804D01*
X89295572Y-80951765D01*
X89318671Y-80960030D01*
X89340850Y-80970520D01*
X89361893Y-80983132D01*
X89381599Y-80997747D01*
X89399777Y-81014223D01*
X89416253Y-81032401D01*
X89430868Y-81052107D01*
X89443480Y-81073150D01*
X89453970Y-81095329D01*
X89462235Y-81118428D01*
X89468196Y-81142227D01*
X89471796Y-81166495D01*
X89473000Y-81190999D01*
X89473000Y-81841001D01*
X89471796Y-81865505D01*
X89468196Y-81889773D01*
X89462235Y-81913572D01*
X89453970Y-81936671D01*
X89443480Y-81958850D01*
X89430868Y-81979893D01*
X89416253Y-81999599D01*
X89399777Y-82017777D01*
X89381599Y-82034253D01*
X89361893Y-82048868D01*
X89340850Y-82061480D01*
X89318671Y-82071970D01*
X89295572Y-82080235D01*
X89271773Y-82086196D01*
X89247505Y-82089796D01*
X89223001Y-82091000D01*
X88322999Y-82091000D01*
X88298495Y-82089796D01*
X88274227Y-82086196D01*
X88250428Y-82080235D01*
X88227329Y-82071970D01*
X88205150Y-82061480D01*
X88184107Y-82048868D01*
X88164401Y-82034253D01*
X88146223Y-82017777D01*
X88129747Y-81999599D01*
X88115132Y-81979893D01*
X88102520Y-81958850D01*
X88092030Y-81936671D01*
X88083765Y-81913572D01*
X88077804Y-81889773D01*
X88074204Y-81865505D01*
X88073000Y-81841001D01*
X88073000Y-81190999D01*
X88074204Y-81166495D01*
X88077804Y-81142227D01*
X88083765Y-81118428D01*
X88092030Y-81095329D01*
X88102520Y-81073150D01*
X88115132Y-81052107D01*
X88129747Y-81032401D01*
X88146223Y-81014223D01*
X88164401Y-80997747D01*
X88184107Y-80983132D01*
X88205150Y-80970520D01*
X88227329Y-80960030D01*
X88250428Y-80951765D01*
X88274227Y-80945804D01*
X88298495Y-80942204D01*
X88322999Y-80941000D01*
X89223001Y-80941000D01*
X89247505Y-80942204D01*
X89247505Y-80942204D01*
G37*
D18*
X88773000Y-81516000D03*
D16*
G36*
X89247505Y-82992204D02*
G01*
X89271773Y-82995804D01*
X89295572Y-83001765D01*
X89318671Y-83010030D01*
X89340850Y-83020520D01*
X89361893Y-83033132D01*
X89381599Y-83047747D01*
X89399777Y-83064223D01*
X89416253Y-83082401D01*
X89430868Y-83102107D01*
X89443480Y-83123150D01*
X89453970Y-83145329D01*
X89462235Y-83168428D01*
X89468196Y-83192227D01*
X89471796Y-83216495D01*
X89473000Y-83240999D01*
X89473000Y-83891001D01*
X89471796Y-83915505D01*
X89468196Y-83939773D01*
X89462235Y-83963572D01*
X89453970Y-83986671D01*
X89443480Y-84008850D01*
X89430868Y-84029893D01*
X89416253Y-84049599D01*
X89399777Y-84067777D01*
X89381599Y-84084253D01*
X89361893Y-84098868D01*
X89340850Y-84111480D01*
X89318671Y-84121970D01*
X89295572Y-84130235D01*
X89271773Y-84136196D01*
X89247505Y-84139796D01*
X89223001Y-84141000D01*
X88322999Y-84141000D01*
X88298495Y-84139796D01*
X88274227Y-84136196D01*
X88250428Y-84130235D01*
X88227329Y-84121970D01*
X88205150Y-84111480D01*
X88184107Y-84098868D01*
X88164401Y-84084253D01*
X88146223Y-84067777D01*
X88129747Y-84049599D01*
X88115132Y-84029893D01*
X88102520Y-84008850D01*
X88092030Y-83986671D01*
X88083765Y-83963572D01*
X88077804Y-83939773D01*
X88074204Y-83915505D01*
X88073000Y-83891001D01*
X88073000Y-83240999D01*
X88074204Y-83216495D01*
X88077804Y-83192227D01*
X88083765Y-83168428D01*
X88092030Y-83145329D01*
X88102520Y-83123150D01*
X88115132Y-83102107D01*
X88129747Y-83082401D01*
X88146223Y-83064223D01*
X88164401Y-83047747D01*
X88184107Y-83033132D01*
X88205150Y-83020520D01*
X88227329Y-83010030D01*
X88250428Y-83001765D01*
X88274227Y-82995804D01*
X88298495Y-82992204D01*
X88322999Y-82991000D01*
X89223001Y-82991000D01*
X89247505Y-82992204D01*
X89247505Y-82992204D01*
G37*
D18*
X88773000Y-83566000D03*
D16*
G36*
X98901505Y-72199204D02*
G01*
X98925773Y-72202804D01*
X98949572Y-72208765D01*
X98972671Y-72217030D01*
X98994850Y-72227520D01*
X99015893Y-72240132D01*
X99035599Y-72254747D01*
X99053777Y-72271223D01*
X99070253Y-72289401D01*
X99084868Y-72309107D01*
X99097480Y-72330150D01*
X99107970Y-72352329D01*
X99116235Y-72375428D01*
X99122196Y-72399227D01*
X99125796Y-72423495D01*
X99127000Y-72447999D01*
X99127000Y-73348001D01*
X99125796Y-73372505D01*
X99122196Y-73396773D01*
X99116235Y-73420572D01*
X99107970Y-73443671D01*
X99097480Y-73465850D01*
X99084868Y-73486893D01*
X99070253Y-73506599D01*
X99053777Y-73524777D01*
X99035599Y-73541253D01*
X99015893Y-73555868D01*
X98994850Y-73568480D01*
X98972671Y-73578970D01*
X98949572Y-73587235D01*
X98925773Y-73593196D01*
X98901505Y-73596796D01*
X98877001Y-73598000D01*
X98226999Y-73598000D01*
X98202495Y-73596796D01*
X98178227Y-73593196D01*
X98154428Y-73587235D01*
X98131329Y-73578970D01*
X98109150Y-73568480D01*
X98088107Y-73555868D01*
X98068401Y-73541253D01*
X98050223Y-73524777D01*
X98033747Y-73506599D01*
X98019132Y-73486893D01*
X98006520Y-73465850D01*
X97996030Y-73443671D01*
X97987765Y-73420572D01*
X97981804Y-73396773D01*
X97978204Y-73372505D01*
X97977000Y-73348001D01*
X97977000Y-72447999D01*
X97978204Y-72423495D01*
X97981804Y-72399227D01*
X97987765Y-72375428D01*
X97996030Y-72352329D01*
X98006520Y-72330150D01*
X98019132Y-72309107D01*
X98033747Y-72289401D01*
X98050223Y-72271223D01*
X98068401Y-72254747D01*
X98088107Y-72240132D01*
X98109150Y-72227520D01*
X98131329Y-72217030D01*
X98154428Y-72208765D01*
X98178227Y-72202804D01*
X98202495Y-72199204D01*
X98226999Y-72198000D01*
X98877001Y-72198000D01*
X98901505Y-72199204D01*
X98901505Y-72199204D01*
G37*
D18*
X98552000Y-72898000D03*
D16*
G36*
X96851505Y-72199204D02*
G01*
X96875773Y-72202804D01*
X96899572Y-72208765D01*
X96922671Y-72217030D01*
X96944850Y-72227520D01*
X96965893Y-72240132D01*
X96985599Y-72254747D01*
X97003777Y-72271223D01*
X97020253Y-72289401D01*
X97034868Y-72309107D01*
X97047480Y-72330150D01*
X97057970Y-72352329D01*
X97066235Y-72375428D01*
X97072196Y-72399227D01*
X97075796Y-72423495D01*
X97077000Y-72447999D01*
X97077000Y-73348001D01*
X97075796Y-73372505D01*
X97072196Y-73396773D01*
X97066235Y-73420572D01*
X97057970Y-73443671D01*
X97047480Y-73465850D01*
X97034868Y-73486893D01*
X97020253Y-73506599D01*
X97003777Y-73524777D01*
X96985599Y-73541253D01*
X96965893Y-73555868D01*
X96944850Y-73568480D01*
X96922671Y-73578970D01*
X96899572Y-73587235D01*
X96875773Y-73593196D01*
X96851505Y-73596796D01*
X96827001Y-73598000D01*
X96176999Y-73598000D01*
X96152495Y-73596796D01*
X96128227Y-73593196D01*
X96104428Y-73587235D01*
X96081329Y-73578970D01*
X96059150Y-73568480D01*
X96038107Y-73555868D01*
X96018401Y-73541253D01*
X96000223Y-73524777D01*
X95983747Y-73506599D01*
X95969132Y-73486893D01*
X95956520Y-73465850D01*
X95946030Y-73443671D01*
X95937765Y-73420572D01*
X95931804Y-73396773D01*
X95928204Y-73372505D01*
X95927000Y-73348001D01*
X95927000Y-72447999D01*
X95928204Y-72423495D01*
X95931804Y-72399227D01*
X95937765Y-72375428D01*
X95946030Y-72352329D01*
X95956520Y-72330150D01*
X95969132Y-72309107D01*
X95983747Y-72289401D01*
X96000223Y-72271223D01*
X96018401Y-72254747D01*
X96038107Y-72240132D01*
X96059150Y-72227520D01*
X96081329Y-72217030D01*
X96104428Y-72208765D01*
X96128227Y-72202804D01*
X96152495Y-72199204D01*
X96176999Y-72198000D01*
X96827001Y-72198000D01*
X96851505Y-72199204D01*
X96851505Y-72199204D01*
G37*
D18*
X96502000Y-72898000D03*
D16*
G36*
X98901505Y-77279204D02*
G01*
X98925773Y-77282804D01*
X98949572Y-77288765D01*
X98972671Y-77297030D01*
X98994850Y-77307520D01*
X99015893Y-77320132D01*
X99035599Y-77334747D01*
X99053777Y-77351223D01*
X99070253Y-77369401D01*
X99084868Y-77389107D01*
X99097480Y-77410150D01*
X99107970Y-77432329D01*
X99116235Y-77455428D01*
X99122196Y-77479227D01*
X99125796Y-77503495D01*
X99127000Y-77527999D01*
X99127000Y-78428001D01*
X99125796Y-78452505D01*
X99122196Y-78476773D01*
X99116235Y-78500572D01*
X99107970Y-78523671D01*
X99097480Y-78545850D01*
X99084868Y-78566893D01*
X99070253Y-78586599D01*
X99053777Y-78604777D01*
X99035599Y-78621253D01*
X99015893Y-78635868D01*
X98994850Y-78648480D01*
X98972671Y-78658970D01*
X98949572Y-78667235D01*
X98925773Y-78673196D01*
X98901505Y-78676796D01*
X98877001Y-78678000D01*
X98226999Y-78678000D01*
X98202495Y-78676796D01*
X98178227Y-78673196D01*
X98154428Y-78667235D01*
X98131329Y-78658970D01*
X98109150Y-78648480D01*
X98088107Y-78635868D01*
X98068401Y-78621253D01*
X98050223Y-78604777D01*
X98033747Y-78586599D01*
X98019132Y-78566893D01*
X98006520Y-78545850D01*
X97996030Y-78523671D01*
X97987765Y-78500572D01*
X97981804Y-78476773D01*
X97978204Y-78452505D01*
X97977000Y-78428001D01*
X97977000Y-77527999D01*
X97978204Y-77503495D01*
X97981804Y-77479227D01*
X97987765Y-77455428D01*
X97996030Y-77432329D01*
X98006520Y-77410150D01*
X98019132Y-77389107D01*
X98033747Y-77369401D01*
X98050223Y-77351223D01*
X98068401Y-77334747D01*
X98088107Y-77320132D01*
X98109150Y-77307520D01*
X98131329Y-77297030D01*
X98154428Y-77288765D01*
X98178227Y-77282804D01*
X98202495Y-77279204D01*
X98226999Y-77278000D01*
X98877001Y-77278000D01*
X98901505Y-77279204D01*
X98901505Y-77279204D01*
G37*
D18*
X98552000Y-77978000D03*
D16*
G36*
X96851505Y-77279204D02*
G01*
X96875773Y-77282804D01*
X96899572Y-77288765D01*
X96922671Y-77297030D01*
X96944850Y-77307520D01*
X96965893Y-77320132D01*
X96985599Y-77334747D01*
X97003777Y-77351223D01*
X97020253Y-77369401D01*
X97034868Y-77389107D01*
X97047480Y-77410150D01*
X97057970Y-77432329D01*
X97066235Y-77455428D01*
X97072196Y-77479227D01*
X97075796Y-77503495D01*
X97077000Y-77527999D01*
X97077000Y-78428001D01*
X97075796Y-78452505D01*
X97072196Y-78476773D01*
X97066235Y-78500572D01*
X97057970Y-78523671D01*
X97047480Y-78545850D01*
X97034868Y-78566893D01*
X97020253Y-78586599D01*
X97003777Y-78604777D01*
X96985599Y-78621253D01*
X96965893Y-78635868D01*
X96944850Y-78648480D01*
X96922671Y-78658970D01*
X96899572Y-78667235D01*
X96875773Y-78673196D01*
X96851505Y-78676796D01*
X96827001Y-78678000D01*
X96176999Y-78678000D01*
X96152495Y-78676796D01*
X96128227Y-78673196D01*
X96104428Y-78667235D01*
X96081329Y-78658970D01*
X96059150Y-78648480D01*
X96038107Y-78635868D01*
X96018401Y-78621253D01*
X96000223Y-78604777D01*
X95983747Y-78586599D01*
X95969132Y-78566893D01*
X95956520Y-78545850D01*
X95946030Y-78523671D01*
X95937765Y-78500572D01*
X95931804Y-78476773D01*
X95928204Y-78452505D01*
X95927000Y-78428001D01*
X95927000Y-77527999D01*
X95928204Y-77503495D01*
X95931804Y-77479227D01*
X95937765Y-77455428D01*
X95946030Y-77432329D01*
X95956520Y-77410150D01*
X95969132Y-77389107D01*
X95983747Y-77369401D01*
X96000223Y-77351223D01*
X96018401Y-77334747D01*
X96038107Y-77320132D01*
X96059150Y-77307520D01*
X96081329Y-77297030D01*
X96104428Y-77288765D01*
X96128227Y-77282804D01*
X96152495Y-77279204D01*
X96176999Y-77278000D01*
X96827001Y-77278000D01*
X96851505Y-77279204D01*
X96851505Y-77279204D01*
G37*
D18*
X96502000Y-77978000D03*
D16*
G36*
X86691505Y-59181704D02*
G01*
X86715773Y-59185304D01*
X86739572Y-59191265D01*
X86762671Y-59199530D01*
X86784850Y-59210020D01*
X86805893Y-59222632D01*
X86825599Y-59237247D01*
X86843777Y-59253723D01*
X86860253Y-59271901D01*
X86874868Y-59291607D01*
X86887480Y-59312650D01*
X86897970Y-59334829D01*
X86906235Y-59357928D01*
X86912196Y-59381727D01*
X86915796Y-59405995D01*
X86917000Y-59430499D01*
X86917000Y-60330501D01*
X86915796Y-60355005D01*
X86912196Y-60379273D01*
X86906235Y-60403072D01*
X86897970Y-60426171D01*
X86887480Y-60448350D01*
X86874868Y-60469393D01*
X86860253Y-60489099D01*
X86843777Y-60507277D01*
X86825599Y-60523753D01*
X86805893Y-60538368D01*
X86784850Y-60550980D01*
X86762671Y-60561470D01*
X86739572Y-60569735D01*
X86715773Y-60575696D01*
X86691505Y-60579296D01*
X86667001Y-60580500D01*
X86016999Y-60580500D01*
X85992495Y-60579296D01*
X85968227Y-60575696D01*
X85944428Y-60569735D01*
X85921329Y-60561470D01*
X85899150Y-60550980D01*
X85878107Y-60538368D01*
X85858401Y-60523753D01*
X85840223Y-60507277D01*
X85823747Y-60489099D01*
X85809132Y-60469393D01*
X85796520Y-60448350D01*
X85786030Y-60426171D01*
X85777765Y-60403072D01*
X85771804Y-60379273D01*
X85768204Y-60355005D01*
X85767000Y-60330501D01*
X85767000Y-59430499D01*
X85768204Y-59405995D01*
X85771804Y-59381727D01*
X85777765Y-59357928D01*
X85786030Y-59334829D01*
X85796520Y-59312650D01*
X85809132Y-59291607D01*
X85823747Y-59271901D01*
X85840223Y-59253723D01*
X85858401Y-59237247D01*
X85878107Y-59222632D01*
X85899150Y-59210020D01*
X85921329Y-59199530D01*
X85944428Y-59191265D01*
X85968227Y-59185304D01*
X85992495Y-59181704D01*
X86016999Y-59180500D01*
X86667001Y-59180500D01*
X86691505Y-59181704D01*
X86691505Y-59181704D01*
G37*
D18*
X86342000Y-59880500D03*
D16*
G36*
X88741505Y-59181704D02*
G01*
X88765773Y-59185304D01*
X88789572Y-59191265D01*
X88812671Y-59199530D01*
X88834850Y-59210020D01*
X88855893Y-59222632D01*
X88875599Y-59237247D01*
X88893777Y-59253723D01*
X88910253Y-59271901D01*
X88924868Y-59291607D01*
X88937480Y-59312650D01*
X88947970Y-59334829D01*
X88956235Y-59357928D01*
X88962196Y-59381727D01*
X88965796Y-59405995D01*
X88967000Y-59430499D01*
X88967000Y-60330501D01*
X88965796Y-60355005D01*
X88962196Y-60379273D01*
X88956235Y-60403072D01*
X88947970Y-60426171D01*
X88937480Y-60448350D01*
X88924868Y-60469393D01*
X88910253Y-60489099D01*
X88893777Y-60507277D01*
X88875599Y-60523753D01*
X88855893Y-60538368D01*
X88834850Y-60550980D01*
X88812671Y-60561470D01*
X88789572Y-60569735D01*
X88765773Y-60575696D01*
X88741505Y-60579296D01*
X88717001Y-60580500D01*
X88066999Y-60580500D01*
X88042495Y-60579296D01*
X88018227Y-60575696D01*
X87994428Y-60569735D01*
X87971329Y-60561470D01*
X87949150Y-60550980D01*
X87928107Y-60538368D01*
X87908401Y-60523753D01*
X87890223Y-60507277D01*
X87873747Y-60489099D01*
X87859132Y-60469393D01*
X87846520Y-60448350D01*
X87836030Y-60426171D01*
X87827765Y-60403072D01*
X87821804Y-60379273D01*
X87818204Y-60355005D01*
X87817000Y-60330501D01*
X87817000Y-59430499D01*
X87818204Y-59405995D01*
X87821804Y-59381727D01*
X87827765Y-59357928D01*
X87836030Y-59334829D01*
X87846520Y-59312650D01*
X87859132Y-59291607D01*
X87873747Y-59271901D01*
X87890223Y-59253723D01*
X87908401Y-59237247D01*
X87928107Y-59222632D01*
X87949150Y-59210020D01*
X87971329Y-59199530D01*
X87994428Y-59191265D01*
X88018227Y-59185304D01*
X88042495Y-59181704D01*
X88066999Y-59180500D01*
X88717001Y-59180500D01*
X88741505Y-59181704D01*
X88741505Y-59181704D01*
G37*
D18*
X88392000Y-59880500D03*
D16*
G36*
X107281505Y-82856204D02*
G01*
X107305773Y-82859804D01*
X107329572Y-82865765D01*
X107352671Y-82874030D01*
X107374850Y-82884520D01*
X107395893Y-82897132D01*
X107415599Y-82911747D01*
X107433777Y-82928223D01*
X107450253Y-82946401D01*
X107464868Y-82966107D01*
X107477480Y-82987150D01*
X107487970Y-83009329D01*
X107496235Y-83032428D01*
X107502196Y-83056227D01*
X107505796Y-83080495D01*
X107507000Y-83104999D01*
X107507000Y-83755001D01*
X107505796Y-83779505D01*
X107502196Y-83803773D01*
X107496235Y-83827572D01*
X107487970Y-83850671D01*
X107477480Y-83872850D01*
X107464868Y-83893893D01*
X107450253Y-83913599D01*
X107433777Y-83931777D01*
X107415599Y-83948253D01*
X107395893Y-83962868D01*
X107374850Y-83975480D01*
X107352671Y-83985970D01*
X107329572Y-83994235D01*
X107305773Y-84000196D01*
X107281505Y-84003796D01*
X107257001Y-84005000D01*
X106356999Y-84005000D01*
X106332495Y-84003796D01*
X106308227Y-84000196D01*
X106284428Y-83994235D01*
X106261329Y-83985970D01*
X106239150Y-83975480D01*
X106218107Y-83962868D01*
X106198401Y-83948253D01*
X106180223Y-83931777D01*
X106163747Y-83913599D01*
X106149132Y-83893893D01*
X106136520Y-83872850D01*
X106126030Y-83850671D01*
X106117765Y-83827572D01*
X106111804Y-83803773D01*
X106108204Y-83779505D01*
X106107000Y-83755001D01*
X106107000Y-83104999D01*
X106108204Y-83080495D01*
X106111804Y-83056227D01*
X106117765Y-83032428D01*
X106126030Y-83009329D01*
X106136520Y-82987150D01*
X106149132Y-82966107D01*
X106163747Y-82946401D01*
X106180223Y-82928223D01*
X106198401Y-82911747D01*
X106218107Y-82897132D01*
X106239150Y-82884520D01*
X106261329Y-82874030D01*
X106284428Y-82865765D01*
X106308227Y-82859804D01*
X106332495Y-82856204D01*
X106356999Y-82855000D01*
X107257001Y-82855000D01*
X107281505Y-82856204D01*
X107281505Y-82856204D01*
G37*
D18*
X106807000Y-83430000D03*
D16*
G36*
X107281505Y-84906204D02*
G01*
X107305773Y-84909804D01*
X107329572Y-84915765D01*
X107352671Y-84924030D01*
X107374850Y-84934520D01*
X107395893Y-84947132D01*
X107415599Y-84961747D01*
X107433777Y-84978223D01*
X107450253Y-84996401D01*
X107464868Y-85016107D01*
X107477480Y-85037150D01*
X107487970Y-85059329D01*
X107496235Y-85082428D01*
X107502196Y-85106227D01*
X107505796Y-85130495D01*
X107507000Y-85154999D01*
X107507000Y-85805001D01*
X107505796Y-85829505D01*
X107502196Y-85853773D01*
X107496235Y-85877572D01*
X107487970Y-85900671D01*
X107477480Y-85922850D01*
X107464868Y-85943893D01*
X107450253Y-85963599D01*
X107433777Y-85981777D01*
X107415599Y-85998253D01*
X107395893Y-86012868D01*
X107374850Y-86025480D01*
X107352671Y-86035970D01*
X107329572Y-86044235D01*
X107305773Y-86050196D01*
X107281505Y-86053796D01*
X107257001Y-86055000D01*
X106356999Y-86055000D01*
X106332495Y-86053796D01*
X106308227Y-86050196D01*
X106284428Y-86044235D01*
X106261329Y-86035970D01*
X106239150Y-86025480D01*
X106218107Y-86012868D01*
X106198401Y-85998253D01*
X106180223Y-85981777D01*
X106163747Y-85963599D01*
X106149132Y-85943893D01*
X106136520Y-85922850D01*
X106126030Y-85900671D01*
X106117765Y-85877572D01*
X106111804Y-85853773D01*
X106108204Y-85829505D01*
X106107000Y-85805001D01*
X106107000Y-85154999D01*
X106108204Y-85130495D01*
X106111804Y-85106227D01*
X106117765Y-85082428D01*
X106126030Y-85059329D01*
X106136520Y-85037150D01*
X106149132Y-85016107D01*
X106163747Y-84996401D01*
X106180223Y-84978223D01*
X106198401Y-84961747D01*
X106218107Y-84947132D01*
X106239150Y-84934520D01*
X106261329Y-84924030D01*
X106284428Y-84915765D01*
X106308227Y-84909804D01*
X106332495Y-84906204D01*
X106356999Y-84905000D01*
X107257001Y-84905000D01*
X107281505Y-84906204D01*
X107281505Y-84906204D01*
G37*
D18*
X106807000Y-85480000D03*
D16*
G36*
X105122505Y-82856204D02*
G01*
X105146773Y-82859804D01*
X105170572Y-82865765D01*
X105193671Y-82874030D01*
X105215850Y-82884520D01*
X105236893Y-82897132D01*
X105256599Y-82911747D01*
X105274777Y-82928223D01*
X105291253Y-82946401D01*
X105305868Y-82966107D01*
X105318480Y-82987150D01*
X105328970Y-83009329D01*
X105337235Y-83032428D01*
X105343196Y-83056227D01*
X105346796Y-83080495D01*
X105348000Y-83104999D01*
X105348000Y-83755001D01*
X105346796Y-83779505D01*
X105343196Y-83803773D01*
X105337235Y-83827572D01*
X105328970Y-83850671D01*
X105318480Y-83872850D01*
X105305868Y-83893893D01*
X105291253Y-83913599D01*
X105274777Y-83931777D01*
X105256599Y-83948253D01*
X105236893Y-83962868D01*
X105215850Y-83975480D01*
X105193671Y-83985970D01*
X105170572Y-83994235D01*
X105146773Y-84000196D01*
X105122505Y-84003796D01*
X105098001Y-84005000D01*
X104197999Y-84005000D01*
X104173495Y-84003796D01*
X104149227Y-84000196D01*
X104125428Y-83994235D01*
X104102329Y-83985970D01*
X104080150Y-83975480D01*
X104059107Y-83962868D01*
X104039401Y-83948253D01*
X104021223Y-83931777D01*
X104004747Y-83913599D01*
X103990132Y-83893893D01*
X103977520Y-83872850D01*
X103967030Y-83850671D01*
X103958765Y-83827572D01*
X103952804Y-83803773D01*
X103949204Y-83779505D01*
X103948000Y-83755001D01*
X103948000Y-83104999D01*
X103949204Y-83080495D01*
X103952804Y-83056227D01*
X103958765Y-83032428D01*
X103967030Y-83009329D01*
X103977520Y-82987150D01*
X103990132Y-82966107D01*
X104004747Y-82946401D01*
X104021223Y-82928223D01*
X104039401Y-82911747D01*
X104059107Y-82897132D01*
X104080150Y-82884520D01*
X104102329Y-82874030D01*
X104125428Y-82865765D01*
X104149227Y-82859804D01*
X104173495Y-82856204D01*
X104197999Y-82855000D01*
X105098001Y-82855000D01*
X105122505Y-82856204D01*
X105122505Y-82856204D01*
G37*
D18*
X104648000Y-83430000D03*
D16*
G36*
X105122505Y-84906204D02*
G01*
X105146773Y-84909804D01*
X105170572Y-84915765D01*
X105193671Y-84924030D01*
X105215850Y-84934520D01*
X105236893Y-84947132D01*
X105256599Y-84961747D01*
X105274777Y-84978223D01*
X105291253Y-84996401D01*
X105305868Y-85016107D01*
X105318480Y-85037150D01*
X105328970Y-85059329D01*
X105337235Y-85082428D01*
X105343196Y-85106227D01*
X105346796Y-85130495D01*
X105348000Y-85154999D01*
X105348000Y-85805001D01*
X105346796Y-85829505D01*
X105343196Y-85853773D01*
X105337235Y-85877572D01*
X105328970Y-85900671D01*
X105318480Y-85922850D01*
X105305868Y-85943893D01*
X105291253Y-85963599D01*
X105274777Y-85981777D01*
X105256599Y-85998253D01*
X105236893Y-86012868D01*
X105215850Y-86025480D01*
X105193671Y-86035970D01*
X105170572Y-86044235D01*
X105146773Y-86050196D01*
X105122505Y-86053796D01*
X105098001Y-86055000D01*
X104197999Y-86055000D01*
X104173495Y-86053796D01*
X104149227Y-86050196D01*
X104125428Y-86044235D01*
X104102329Y-86035970D01*
X104080150Y-86025480D01*
X104059107Y-86012868D01*
X104039401Y-85998253D01*
X104021223Y-85981777D01*
X104004747Y-85963599D01*
X103990132Y-85943893D01*
X103977520Y-85922850D01*
X103967030Y-85900671D01*
X103958765Y-85877572D01*
X103952804Y-85853773D01*
X103949204Y-85829505D01*
X103948000Y-85805001D01*
X103948000Y-85154999D01*
X103949204Y-85130495D01*
X103952804Y-85106227D01*
X103958765Y-85082428D01*
X103967030Y-85059329D01*
X103977520Y-85037150D01*
X103990132Y-85016107D01*
X104004747Y-84996401D01*
X104021223Y-84978223D01*
X104039401Y-84961747D01*
X104059107Y-84947132D01*
X104080150Y-84934520D01*
X104102329Y-84924030D01*
X104125428Y-84915765D01*
X104149227Y-84909804D01*
X104173495Y-84906204D01*
X104197999Y-84905000D01*
X105098001Y-84905000D01*
X105122505Y-84906204D01*
X105122505Y-84906204D01*
G37*
D18*
X104648000Y-85480000D03*
D16*
G36*
X89247505Y-77413204D02*
G01*
X89271773Y-77416804D01*
X89295572Y-77422765D01*
X89318671Y-77431030D01*
X89340850Y-77441520D01*
X89361893Y-77454132D01*
X89381599Y-77468747D01*
X89399777Y-77485223D01*
X89416253Y-77503401D01*
X89430868Y-77523107D01*
X89443480Y-77544150D01*
X89453970Y-77566329D01*
X89462235Y-77589428D01*
X89468196Y-77613227D01*
X89471796Y-77637495D01*
X89473000Y-77661999D01*
X89473000Y-78312001D01*
X89471796Y-78336505D01*
X89468196Y-78360773D01*
X89462235Y-78384572D01*
X89453970Y-78407671D01*
X89443480Y-78429850D01*
X89430868Y-78450893D01*
X89416253Y-78470599D01*
X89399777Y-78488777D01*
X89381599Y-78505253D01*
X89361893Y-78519868D01*
X89340850Y-78532480D01*
X89318671Y-78542970D01*
X89295572Y-78551235D01*
X89271773Y-78557196D01*
X89247505Y-78560796D01*
X89223001Y-78562000D01*
X88322999Y-78562000D01*
X88298495Y-78560796D01*
X88274227Y-78557196D01*
X88250428Y-78551235D01*
X88227329Y-78542970D01*
X88205150Y-78532480D01*
X88184107Y-78519868D01*
X88164401Y-78505253D01*
X88146223Y-78488777D01*
X88129747Y-78470599D01*
X88115132Y-78450893D01*
X88102520Y-78429850D01*
X88092030Y-78407671D01*
X88083765Y-78384572D01*
X88077804Y-78360773D01*
X88074204Y-78336505D01*
X88073000Y-78312001D01*
X88073000Y-77661999D01*
X88074204Y-77637495D01*
X88077804Y-77613227D01*
X88083765Y-77589428D01*
X88092030Y-77566329D01*
X88102520Y-77544150D01*
X88115132Y-77523107D01*
X88129747Y-77503401D01*
X88146223Y-77485223D01*
X88164401Y-77468747D01*
X88184107Y-77454132D01*
X88205150Y-77441520D01*
X88227329Y-77431030D01*
X88250428Y-77422765D01*
X88274227Y-77416804D01*
X88298495Y-77413204D01*
X88322999Y-77412000D01*
X89223001Y-77412000D01*
X89247505Y-77413204D01*
X89247505Y-77413204D01*
G37*
D18*
X88773000Y-77987000D03*
D16*
G36*
X89247505Y-75363204D02*
G01*
X89271773Y-75366804D01*
X89295572Y-75372765D01*
X89318671Y-75381030D01*
X89340850Y-75391520D01*
X89361893Y-75404132D01*
X89381599Y-75418747D01*
X89399777Y-75435223D01*
X89416253Y-75453401D01*
X89430868Y-75473107D01*
X89443480Y-75494150D01*
X89453970Y-75516329D01*
X89462235Y-75539428D01*
X89468196Y-75563227D01*
X89471796Y-75587495D01*
X89473000Y-75611999D01*
X89473000Y-76262001D01*
X89471796Y-76286505D01*
X89468196Y-76310773D01*
X89462235Y-76334572D01*
X89453970Y-76357671D01*
X89443480Y-76379850D01*
X89430868Y-76400893D01*
X89416253Y-76420599D01*
X89399777Y-76438777D01*
X89381599Y-76455253D01*
X89361893Y-76469868D01*
X89340850Y-76482480D01*
X89318671Y-76492970D01*
X89295572Y-76501235D01*
X89271773Y-76507196D01*
X89247505Y-76510796D01*
X89223001Y-76512000D01*
X88322999Y-76512000D01*
X88298495Y-76510796D01*
X88274227Y-76507196D01*
X88250428Y-76501235D01*
X88227329Y-76492970D01*
X88205150Y-76482480D01*
X88184107Y-76469868D01*
X88164401Y-76455253D01*
X88146223Y-76438777D01*
X88129747Y-76420599D01*
X88115132Y-76400893D01*
X88102520Y-76379850D01*
X88092030Y-76357671D01*
X88083765Y-76334572D01*
X88077804Y-76310773D01*
X88074204Y-76286505D01*
X88073000Y-76262001D01*
X88073000Y-75611999D01*
X88074204Y-75587495D01*
X88077804Y-75563227D01*
X88083765Y-75539428D01*
X88092030Y-75516329D01*
X88102520Y-75494150D01*
X88115132Y-75473107D01*
X88129747Y-75453401D01*
X88146223Y-75435223D01*
X88164401Y-75418747D01*
X88184107Y-75404132D01*
X88205150Y-75391520D01*
X88227329Y-75381030D01*
X88250428Y-75372765D01*
X88274227Y-75366804D01*
X88298495Y-75363204D01*
X88322999Y-75362000D01*
X89223001Y-75362000D01*
X89247505Y-75363204D01*
X89247505Y-75363204D01*
G37*
D18*
X88773000Y-75937000D03*
D19*
X119380000Y-95631000D03*
X119380000Y-91694000D03*
D20*
X110218000Y-75565000D03*
X119398000Y-75565000D03*
D21*
X95334000Y-84074000D03*
X95334000Y-83124000D03*
X95334000Y-85024000D03*
X93134000Y-85024000D03*
X93134000Y-84074000D03*
X93134000Y-83124000D03*
D22*
X106070000Y-93599000D03*
D23*
X112370000Y-93599000D03*
X112370000Y-91299000D03*
X112370000Y-95899000D03*
D24*
X82618000Y-69284500D03*
X82618000Y-68484500D03*
X82618000Y-67684500D03*
X82618000Y-66884500D03*
X82618000Y-66084500D03*
X82618000Y-65284500D03*
X82618000Y-64484500D03*
X82618000Y-63684500D03*
D25*
X84068000Y-62234500D03*
X84868000Y-62234500D03*
X85668000Y-62234500D03*
X86468000Y-62234500D03*
X87268000Y-62234500D03*
X88068000Y-62234500D03*
X88868000Y-62234500D03*
X89668000Y-62234500D03*
D24*
X91118000Y-63684500D03*
X91118000Y-64484500D03*
X91118000Y-65284500D03*
X91118000Y-66084500D03*
X91118000Y-66884500D03*
X91118000Y-67684500D03*
X91118000Y-68484500D03*
X91118000Y-69284500D03*
D25*
X89668000Y-70734500D03*
X88868000Y-70734500D03*
X88068000Y-70734500D03*
X87268000Y-70734500D03*
X86468000Y-70734500D03*
X85668000Y-70734500D03*
X84868000Y-70734500D03*
X84068000Y-70734500D03*
D14*
X84455000Y-88646000D03*
X84455000Y-86106000D03*
X84455000Y-83566000D03*
X84455000Y-81026000D03*
X84455000Y-78486000D03*
D15*
X84455000Y-75946000D03*
D26*
X105893000Y-70362600D03*
X105893000Y-68362600D03*
X105893000Y-66362600D03*
X105893000Y-64362600D03*
X105893000Y-62362600D03*
X105893000Y-60362600D03*
X105893000Y-58362600D03*
D27*
X105893000Y-56362600D03*
D28*
X102235000Y-72948800D03*
X102235000Y-75488800D03*
D11*
X102235000Y-78028800D03*
D29*
X87268000Y-72815500D03*
X85668000Y-72510500D03*
X108204000Y-54038500D03*
X123317000Y-58166000D03*
X116395500Y-66040000D03*
X92145800Y-71023900D03*
X88252200Y-68634400D03*
X92938400Y-64578700D03*
X94040000Y-70067000D03*
X93279800Y-96161600D03*
X93461500Y-86074400D03*
X94939700Y-77383100D03*
X85969500Y-67078900D03*
X94942300Y-72361600D03*
X86078300Y-65439300D03*
X82494200Y-61921200D03*
D30*
X86468000Y-60006500D02*
X86342000Y-59880500D01*
X86468000Y-62234500D02*
X86468000Y-60006500D01*
X87268000Y-70734500D02*
X87268000Y-72815500D01*
X85668000Y-70734500D02*
X85668000Y-72510500D01*
X87268000Y-72815500D02*
X87268000Y-72815500D01*
X85668000Y-72510500D02*
X85668000Y-72510500D01*
X95948500Y-57061100D02*
X97123800Y-57061100D01*
X101460000Y-56175500D02*
X98009400Y-56175500D01*
X98009400Y-56175500D02*
X97123800Y-57061100D01*
X104892700Y-56362600D02*
X104705600Y-56175500D01*
X104705600Y-56175500D02*
X101460000Y-56175500D01*
X88868000Y-62234500D02*
X88868000Y-61109200D01*
X95948500Y-57061100D02*
X92916100Y-57061100D01*
X92916100Y-57061100D02*
X88868000Y-61109200D01*
X112319300Y-85187700D02*
X110617000Y-86890000D01*
X112370000Y-93599000D02*
X119415300Y-93599000D01*
X119415300Y-93599000D02*
X120782800Y-92231500D01*
X120782800Y-92231500D02*
X120782800Y-85871400D01*
X120782800Y-85871400D02*
X120099100Y-85187700D01*
X120099100Y-85187700D02*
X112319300Y-85187700D01*
X112319300Y-85187700D02*
X112319300Y-75302100D01*
X112319300Y-75302100D02*
X107846200Y-70829000D01*
X107846200Y-70829000D02*
X106920200Y-70829000D01*
X106920200Y-70829000D02*
X106361200Y-71388000D01*
X106361200Y-71388000D02*
X102274400Y-71388000D01*
X102274400Y-71388000D02*
X101219000Y-70332600D01*
X105441100Y-56362600D02*
X106920200Y-57841700D01*
X106920200Y-57841700D02*
X106920200Y-70829000D01*
X105441100Y-56362600D02*
X104892700Y-56362600D01*
X105893000Y-56362600D02*
X105441100Y-56362600D01*
X88868000Y-63359800D02*
X88977500Y-63469300D01*
X88977500Y-63469300D02*
X88977500Y-68934900D01*
X88977500Y-68934900D02*
X88303200Y-69609200D01*
X88303200Y-69609200D02*
X88068000Y-69609200D01*
X94478700Y-83124000D02*
X93828300Y-82473600D01*
X93828300Y-82473600D02*
X89865400Y-82473600D01*
X89865400Y-82473600D02*
X88773000Y-83566000D01*
X95334000Y-83124000D02*
X94478700Y-83124000D01*
X104648000Y-85480000D02*
X102292000Y-83124000D01*
X102292000Y-83124000D02*
X95334000Y-83124000D01*
X88576600Y-83762400D02*
X88773000Y-83566000D01*
X89382600Y-94402600D02*
X89080300Y-94402600D01*
X89080300Y-94402600D02*
X88576600Y-93898900D01*
X88576600Y-93898900D02*
X88576600Y-83762400D01*
X88576600Y-83762400D02*
X85826700Y-83762400D01*
X85826700Y-83762400D02*
X85630300Y-83566000D01*
X84455000Y-83566000D02*
X85630300Y-83566000D01*
X88068000Y-70734500D02*
X88068000Y-69609200D01*
X86468000Y-69609200D02*
X88068000Y-69609200D01*
X88868000Y-62234500D02*
X88868000Y-63359800D01*
X89382600Y-96227900D02*
X89382600Y-94402600D01*
X106807000Y-85480000D02*
X104648000Y-85480000D01*
X106807000Y-85480000D02*
X109207000Y-85480000D01*
X109207000Y-85480000D02*
X110617000Y-86890000D01*
X86468000Y-70734500D02*
X86468000Y-69609200D01*
X88773000Y-77987000D02*
X92145800Y-74614200D01*
X92145800Y-74614200D02*
X92145800Y-71023900D01*
X88773000Y-81516000D02*
X88773000Y-77987000D01*
X82618000Y-66884500D02*
X81492700Y-66884500D01*
X81492700Y-66884500D02*
X80533500Y-67843700D01*
X80533500Y-67843700D02*
X80533500Y-78772900D01*
X80533500Y-78772900D02*
X83988400Y-82227800D01*
X83988400Y-82227800D02*
X88061200Y-82227800D01*
X88061200Y-82227800D02*
X88773000Y-81516000D01*
X84455000Y-75946000D02*
X85630300Y-75946000D01*
X88773000Y-75937000D02*
X85639300Y-75937000D01*
X85639300Y-75937000D02*
X85630300Y-75946000D01*
X93134000Y-83124000D02*
X92278700Y-83124000D01*
X89509600Y-92202000D02*
X89509600Y-85893100D01*
X89509600Y-85893100D02*
X92278700Y-83124000D01*
X112370000Y-91299000D02*
X95461900Y-91299000D01*
X95461900Y-91299000D02*
X92657300Y-94103600D01*
X92657300Y-94103600D02*
X91165600Y-94103600D01*
X91165600Y-94103600D02*
X89509600Y-92447600D01*
X89509600Y-92447600D02*
X89509600Y-92202000D01*
X118985000Y-91299000D02*
X112370000Y-91299000D01*
X118985000Y-91299000D02*
X119380000Y-91694000D01*
X118985000Y-91299000D02*
X118985000Y-87285000D01*
X118985000Y-87285000D02*
X119380000Y-86890000D01*
X87268000Y-62234500D02*
X87268000Y-61004500D01*
X87268000Y-61004500D02*
X88392000Y-59880500D01*
X102235000Y-72948800D02*
X98602800Y-72948800D01*
X98602800Y-72948800D02*
X98552000Y-72898000D01*
X102235000Y-78028800D02*
X98602800Y-78028800D01*
X98602800Y-78028800D02*
X98552000Y-77978000D01*
X103269000Y-70332600D02*
X101427500Y-68491100D01*
X101427500Y-68491100D02*
X95551100Y-68491100D01*
X95551100Y-68491100D02*
X92344500Y-65284500D01*
X92344500Y-65284500D02*
X91118000Y-65284500D01*
X105893000Y-70362600D02*
X103299000Y-70362600D01*
X103299000Y-70362600D02*
X103269000Y-70332600D01*
X82618000Y-69284500D02*
X83743300Y-69284500D01*
X88252200Y-68634400D02*
X84393400Y-68634400D01*
X84393400Y-68634400D02*
X83743300Y-69284500D01*
X105893000Y-64362600D02*
X104892700Y-64362600D01*
X104892700Y-64362600D02*
X103209500Y-66045800D01*
X103209500Y-66045800D02*
X95948500Y-66045800D01*
X95948500Y-67221100D02*
X95948500Y-66045800D01*
X95948500Y-66045800D02*
X95431300Y-66045800D01*
X95431300Y-66045800D02*
X93070000Y-63684500D01*
X93070000Y-63684500D02*
X91118000Y-63684500D01*
X95948500Y-64681100D02*
X94773200Y-64681100D01*
X89668000Y-62234500D02*
X92326600Y-62234500D01*
X92326600Y-62234500D02*
X94773200Y-64681100D01*
X91118000Y-64484500D02*
X92243300Y-64484500D01*
X92938400Y-64578700D02*
X92337500Y-64578700D01*
X92337500Y-64578700D02*
X92243300Y-64484500D01*
X91118000Y-66084500D02*
X92243300Y-66084500D01*
X92243300Y-66084500D02*
X94040000Y-67881200D01*
X94040000Y-67881200D02*
X94040000Y-70067000D01*
X91922600Y-96215200D02*
X92847900Y-96215200D01*
X93279800Y-96161600D02*
X92901500Y-96161600D01*
X92901500Y-96161600D02*
X92847900Y-96215200D01*
X94478700Y-85024000D02*
X93461500Y-86041200D01*
X93461500Y-86041200D02*
X93461500Y-86074400D01*
X95334000Y-85024000D02*
X94478700Y-85024000D01*
X92278700Y-85024000D02*
X91922600Y-85380100D01*
X91922600Y-85380100D02*
X91922600Y-90452900D01*
X91922600Y-92278200D02*
X91922600Y-90452900D01*
X93134000Y-85024000D02*
X92278700Y-85024000D01*
X82618000Y-67684500D02*
X81492700Y-67684500D01*
X84455000Y-81026000D02*
X84455000Y-79850700D01*
X84455000Y-79850700D02*
X84087700Y-79850700D01*
X84087700Y-79850700D02*
X80983900Y-76746900D01*
X80983900Y-76746900D02*
X80983900Y-68193300D01*
X80983900Y-68193300D02*
X81492700Y-67684500D01*
X82618000Y-68484500D02*
X81492700Y-68484500D01*
X84455000Y-78486000D02*
X84455000Y-77310700D01*
X84455000Y-77310700D02*
X83647000Y-77310700D01*
X83647000Y-77310700D02*
X81492700Y-75156400D01*
X81492700Y-75156400D02*
X81492700Y-68484500D01*
X94939700Y-77383100D02*
X95907100Y-77383100D01*
X95907100Y-77383100D02*
X96502000Y-77978000D01*
X84068000Y-62234500D02*
X84068000Y-65177400D01*
X84068000Y-65177400D02*
X85969500Y-67078900D01*
X96502000Y-72898000D02*
X95965600Y-72361600D01*
X95965600Y-72361600D02*
X94942300Y-72361600D01*
X84868000Y-62234500D02*
X84868000Y-64229000D01*
X84868000Y-64229000D02*
X86078300Y-65439300D01*
X92243300Y-66884500D02*
X92871100Y-67512300D01*
X92871100Y-67512300D02*
X92871100Y-71316100D01*
X92871100Y-71316100D02*
X95773800Y-74218800D01*
X95773800Y-74218800D02*
X109997100Y-74218800D01*
X109997100Y-74218800D02*
X110218000Y-74439700D01*
X110218000Y-75565000D02*
X110218000Y-74439700D01*
X91118000Y-66884500D02*
X92243300Y-66884500D01*
X82618000Y-64484500D02*
X81492700Y-64484500D01*
X78486000Y-73025000D02*
X78486000Y-67491200D01*
X78486000Y-67491200D02*
X81492700Y-64484500D01*
X82618000Y-63684500D02*
X81492700Y-63684500D01*
X81492700Y-63684500D02*
X81492700Y-62922700D01*
X81492700Y-62922700D02*
X82494200Y-61921200D01*
X112395000Y-54229000D02*
X111469700Y-54229000D01*
X91948000Y-54229000D02*
X92873300Y-54229000D01*
X92873300Y-54229000D02*
X93041100Y-54061200D01*
X93041100Y-54061200D02*
X106590900Y-54061200D01*
X106590900Y-54061200D02*
X108084100Y-55554400D01*
X108084100Y-55554400D02*
X110606900Y-55554400D01*
X110606900Y-55554400D02*
X111469700Y-54691600D01*
X111469700Y-54691600D02*
X111469700Y-54229000D01*
X114935000Y-54229000D02*
X114009700Y-54229000D01*
X89344500Y-54229000D02*
X90269800Y-54229000D01*
X90269800Y-54229000D02*
X90269800Y-54691700D01*
X90269800Y-54691700D02*
X91132500Y-55554400D01*
X91132500Y-55554400D02*
X97618600Y-55554400D01*
X97618600Y-55554400D02*
X98642600Y-54530400D01*
X98642600Y-54530400D02*
X105896200Y-54530400D01*
X105896200Y-54530400D02*
X107382100Y-56016300D01*
X107382100Y-56016300D02*
X112685000Y-56016300D01*
X112685000Y-56016300D02*
X114009700Y-54691600D01*
X114009700Y-54691600D02*
X114009700Y-54229000D01*
D31*
G36*
X79773501Y-77281123D02*
G01*
X79723962Y-77197427D01*
X79523116Y-76973351D01*
X79282414Y-76792764D01*
X79011107Y-76662606D01*
X78850740Y-76613964D01*
X78613000Y-76734622D01*
X78613000Y-77978000D01*
X78633000Y-77978000D01*
X78633000Y-78232000D01*
X78613000Y-78232000D01*
X78613000Y-79475378D01*
X78850740Y-79596036D01*
X79011107Y-79547394D01*
X79282414Y-79417236D01*
X79523116Y-79236649D01*
X79723962Y-79012573D01*
X79783519Y-78911951D01*
X79784498Y-78921886D01*
X79789981Y-78939962D01*
X79827954Y-79065146D01*
X79898526Y-79197176D01*
X79941613Y-79249677D01*
X79993500Y-79312901D01*
X80022498Y-79336699D01*
X83308271Y-82622474D01*
X83214294Y-82736986D01*
X83076401Y-82994966D01*
X82991487Y-83274889D01*
X82962815Y-83566000D01*
X82991487Y-83857111D01*
X83076401Y-84137034D01*
X83214294Y-84395014D01*
X83399866Y-84621134D01*
X83625986Y-84806706D01*
X83690523Y-84841201D01*
X83573645Y-84910822D01*
X83357412Y-85105731D01*
X83183359Y-85339080D01*
X83058175Y-85601901D01*
X83013524Y-85749110D01*
X83134845Y-85979000D01*
X84328000Y-85979000D01*
X84328000Y-85959000D01*
X84582000Y-85959000D01*
X84582000Y-85979000D01*
X85775155Y-85979000D01*
X85896476Y-85749110D01*
X85851825Y-85601901D01*
X85726641Y-85339080D01*
X85552588Y-85105731D01*
X85336355Y-84910822D01*
X85219477Y-84841201D01*
X85284014Y-84806706D01*
X85510134Y-84621134D01*
X85615641Y-84492574D01*
X85677714Y-84511403D01*
X85826700Y-84526077D01*
X85864033Y-84522400D01*
X87699227Y-84522400D01*
X87816601Y-84618726D01*
X87816600Y-93861578D01*
X87812924Y-93898900D01*
X87816600Y-93936222D01*
X87816600Y-93936232D01*
X87827597Y-94047885D01*
X87859539Y-94153185D01*
X87871054Y-94191146D01*
X87941626Y-94323176D01*
X87974043Y-94362676D01*
X88036599Y-94438901D01*
X88065603Y-94462704D01*
X88168316Y-94565417D01*
X88156788Y-94603418D01*
X88144528Y-94727900D01*
X88144528Y-97340000D01*
X81562833Y-97340000D01*
X78130000Y-93735977D01*
X78130000Y-89002890D01*
X83013524Y-89002890D01*
X83058175Y-89150099D01*
X83183359Y-89412920D01*
X83357412Y-89646269D01*
X83573645Y-89841178D01*
X83823748Y-89990157D01*
X84098109Y-90087481D01*
X84328000Y-89966814D01*
X84328000Y-88773000D01*
X84582000Y-88773000D01*
X84582000Y-89966814D01*
X84811891Y-90087481D01*
X85086252Y-89990157D01*
X85336355Y-89841178D01*
X85552588Y-89646269D01*
X85726641Y-89412920D01*
X85851825Y-89150099D01*
X85896476Y-89002890D01*
X85775155Y-88773000D01*
X84582000Y-88773000D01*
X84328000Y-88773000D01*
X83134845Y-88773000D01*
X83013524Y-89002890D01*
X78130000Y-89002890D01*
X78130000Y-86462890D01*
X83013524Y-86462890D01*
X83058175Y-86610099D01*
X83183359Y-86872920D01*
X83357412Y-87106269D01*
X83573645Y-87301178D01*
X83699255Y-87376000D01*
X83573645Y-87450822D01*
X83357412Y-87645731D01*
X83183359Y-87879080D01*
X83058175Y-88141901D01*
X83013524Y-88289110D01*
X83134845Y-88519000D01*
X84328000Y-88519000D01*
X84328000Y-86233000D01*
X84582000Y-86233000D01*
X84582000Y-88519000D01*
X85775155Y-88519000D01*
X85896476Y-88289110D01*
X85851825Y-88141901D01*
X85726641Y-87879080D01*
X85552588Y-87645731D01*
X85336355Y-87450822D01*
X85210745Y-87376000D01*
X85336355Y-87301178D01*
X85552588Y-87106269D01*
X85726641Y-86872920D01*
X85851825Y-86610099D01*
X85896476Y-86462890D01*
X85775155Y-86233000D01*
X84582000Y-86233000D01*
X84328000Y-86233000D01*
X83134845Y-86233000D01*
X83013524Y-86462890D01*
X78130000Y-86462890D01*
X78130000Y-79591600D01*
X78359000Y-79475378D01*
X78359000Y-78232000D01*
X78339000Y-78232000D01*
X78339000Y-77978000D01*
X78359000Y-77978000D01*
X78359000Y-76734622D01*
X78130000Y-76618400D01*
X78130000Y-74563072D01*
X79386000Y-74563072D01*
X79510482Y-74550812D01*
X79630180Y-74514502D01*
X79740494Y-74455537D01*
X79773501Y-74428449D01*
X79773501Y-77281123D01*
X79773501Y-77281123D01*
G37*
X79773501Y-77281123D02*
X79723962Y-77197427D01*
X79523116Y-76973351D01*
X79282414Y-76792764D01*
X79011107Y-76662606D01*
X78850740Y-76613964D01*
X78613000Y-76734622D01*
X78613000Y-77978000D01*
X78633000Y-77978000D01*
X78633000Y-78232000D01*
X78613000Y-78232000D01*
X78613000Y-79475378D01*
X78850740Y-79596036D01*
X79011107Y-79547394D01*
X79282414Y-79417236D01*
X79523116Y-79236649D01*
X79723962Y-79012573D01*
X79783519Y-78911951D01*
X79784498Y-78921886D01*
X79789981Y-78939962D01*
X79827954Y-79065146D01*
X79898526Y-79197176D01*
X79941613Y-79249677D01*
X79993500Y-79312901D01*
X80022498Y-79336699D01*
X83308271Y-82622474D01*
X83214294Y-82736986D01*
X83076401Y-82994966D01*
X82991487Y-83274889D01*
X82962815Y-83566000D01*
X82991487Y-83857111D01*
X83076401Y-84137034D01*
X83214294Y-84395014D01*
X83399866Y-84621134D01*
X83625986Y-84806706D01*
X83690523Y-84841201D01*
X83573645Y-84910822D01*
X83357412Y-85105731D01*
X83183359Y-85339080D01*
X83058175Y-85601901D01*
X83013524Y-85749110D01*
X83134845Y-85979000D01*
X84328000Y-85979000D01*
X84328000Y-85959000D01*
X84582000Y-85959000D01*
X84582000Y-85979000D01*
X85775155Y-85979000D01*
X85896476Y-85749110D01*
X85851825Y-85601901D01*
X85726641Y-85339080D01*
X85552588Y-85105731D01*
X85336355Y-84910822D01*
X85219477Y-84841201D01*
X85284014Y-84806706D01*
X85510134Y-84621134D01*
X85615641Y-84492574D01*
X85677714Y-84511403D01*
X85826700Y-84526077D01*
X85864033Y-84522400D01*
X87699227Y-84522400D01*
X87816601Y-84618726D01*
X87816600Y-93861578D01*
X87812924Y-93898900D01*
X87816600Y-93936222D01*
X87816600Y-93936232D01*
X87827597Y-94047885D01*
X87859539Y-94153185D01*
X87871054Y-94191146D01*
X87941626Y-94323176D01*
X87974043Y-94362676D01*
X88036599Y-94438901D01*
X88065603Y-94462704D01*
X88168316Y-94565417D01*
X88156788Y-94603418D01*
X88144528Y-94727900D01*
X88144528Y-97340000D01*
X81562833Y-97340000D01*
X78130000Y-93735977D01*
X78130000Y-89002890D01*
X83013524Y-89002890D01*
X83058175Y-89150099D01*
X83183359Y-89412920D01*
X83357412Y-89646269D01*
X83573645Y-89841178D01*
X83823748Y-89990157D01*
X84098109Y-90087481D01*
X84328000Y-89966814D01*
X84328000Y-88773000D01*
X84582000Y-88773000D01*
X84582000Y-89966814D01*
X84811891Y-90087481D01*
X85086252Y-89990157D01*
X85336355Y-89841178D01*
X85552588Y-89646269D01*
X85726641Y-89412920D01*
X85851825Y-89150099D01*
X85896476Y-89002890D01*
X85775155Y-88773000D01*
X84582000Y-88773000D01*
X84328000Y-88773000D01*
X83134845Y-88773000D01*
X83013524Y-89002890D01*
X78130000Y-89002890D01*
X78130000Y-86462890D01*
X83013524Y-86462890D01*
X83058175Y-86610099D01*
X83183359Y-86872920D01*
X83357412Y-87106269D01*
X83573645Y-87301178D01*
X83699255Y-87376000D01*
X83573645Y-87450822D01*
X83357412Y-87645731D01*
X83183359Y-87879080D01*
X83058175Y-88141901D01*
X83013524Y-88289110D01*
X83134845Y-88519000D01*
X84328000Y-88519000D01*
X84328000Y-86233000D01*
X84582000Y-86233000D01*
X84582000Y-88519000D01*
X85775155Y-88519000D01*
X85896476Y-88289110D01*
X85851825Y-88141901D01*
X85726641Y-87879080D01*
X85552588Y-87645731D01*
X85336355Y-87450822D01*
X85210745Y-87376000D01*
X85336355Y-87301178D01*
X85552588Y-87106269D01*
X85726641Y-86872920D01*
X85851825Y-86610099D01*
X85896476Y-86462890D01*
X85775155Y-86233000D01*
X84582000Y-86233000D01*
X84328000Y-86233000D01*
X83134845Y-86233000D01*
X83013524Y-86462890D01*
X78130000Y-86462890D01*
X78130000Y-79591600D01*
X78359000Y-79475378D01*
X78359000Y-78232000D01*
X78339000Y-78232000D01*
X78339000Y-77978000D01*
X78359000Y-77978000D01*
X78359000Y-76734622D01*
X78130000Y-76618400D01*
X78130000Y-74563072D01*
X79386000Y-74563072D01*
X79510482Y-74550812D01*
X79630180Y-74514502D01*
X79740494Y-74455537D01*
X79773501Y-74428449D01*
X79773501Y-77281123D01*
G36*
X126340000Y-57083381D02*
G01*
X126340000Y-71528921D01*
X126284913Y-71512210D01*
X126059408Y-71490000D01*
X125908592Y-71490000D01*
X125683087Y-71512210D01*
X125393739Y-71599983D01*
X125127073Y-71742519D01*
X124893339Y-71934339D01*
X124701519Y-72168073D01*
X124558983Y-72434739D01*
X124471210Y-72724087D01*
X124441573Y-73025000D01*
X124471210Y-73325913D01*
X124558983Y-73615261D01*
X124701519Y-73881927D01*
X124893339Y-74115661D01*
X125127073Y-74307481D01*
X125393739Y-74450017D01*
X125683087Y-74537790D01*
X125908592Y-74560000D01*
X126059408Y-74560000D01*
X126284913Y-74537790D01*
X126340000Y-74521079D01*
X126340001Y-76569649D01*
X126269750Y-76570000D01*
X126111000Y-76728750D01*
X126111000Y-77978000D01*
X126131000Y-77978000D01*
X126131000Y-78232000D01*
X126111000Y-78232000D01*
X126111000Y-79481250D01*
X126269750Y-79640000D01*
X126340001Y-79640351D01*
X126340001Y-93735975D01*
X122907168Y-97340000D01*
X95725091Y-97340000D01*
X95723343Y-96649000D01*
X110731928Y-96649000D01*
X110744188Y-96773482D01*
X110780498Y-96893180D01*
X110839463Y-97003494D01*
X110918815Y-97100185D01*
X111015506Y-97179537D01*
X111125820Y-97238502D01*
X111245518Y-97274812D01*
X111370000Y-97287072D01*
X112084250Y-97284000D01*
X112243000Y-97125250D01*
X112243000Y-96026000D01*
X112497000Y-96026000D01*
X112497000Y-97125250D01*
X112655750Y-97284000D01*
X113370000Y-97287072D01*
X113494482Y-97274812D01*
X113614180Y-97238502D01*
X113724494Y-97179537D01*
X113821185Y-97100185D01*
X113900537Y-97003494D01*
X113959502Y-96893180D01*
X113995812Y-96773482D01*
X113996508Y-96766413D01*
X118424192Y-96766413D01*
X118519956Y-97030814D01*
X118809571Y-97171704D01*
X119121108Y-97253384D01*
X119442595Y-97272718D01*
X119761675Y-97228961D01*
X120066088Y-97123795D01*
X120240044Y-97030814D01*
X120335808Y-96766413D01*
X119380000Y-95810605D01*
X118424192Y-96766413D01*
X113996508Y-96766413D01*
X114008072Y-96649000D01*
X114005000Y-96184750D01*
X113846250Y-96026000D01*
X112497000Y-96026000D01*
X112243000Y-96026000D01*
X110893750Y-96026000D01*
X110735000Y-96184750D01*
X110731928Y-96649000D01*
X95723343Y-96649000D01*
X95723000Y-96513650D01*
X95564250Y-96354900D01*
X94615000Y-96354900D01*
X94615000Y-96374900D01*
X94361000Y-96374900D01*
X94361000Y-96354900D01*
X94341000Y-96354900D01*
X94341000Y-96100900D01*
X94361000Y-96100900D01*
X94361000Y-94251650D01*
X94615000Y-94251650D01*
X94615000Y-96100900D01*
X95564250Y-96100900D01*
X95723000Y-95942150D01*
X95726072Y-94727900D01*
X95713812Y-94603418D01*
X95677502Y-94483720D01*
X95618537Y-94373406D01*
X95539185Y-94276715D01*
X95442494Y-94197363D01*
X95332180Y-94138398D01*
X95212482Y-94102088D01*
X95088000Y-94089828D01*
X94773750Y-94092900D01*
X94615000Y-94251650D01*
X94361000Y-94251650D01*
X94202250Y-94092900D01*
X93888000Y-94089828D01*
X93763518Y-94102088D01*
X93720592Y-94115110D01*
X95776702Y-92059000D01*
X104431928Y-92059000D01*
X104431928Y-95499000D01*
X104444188Y-95623482D01*
X104480498Y-95743180D01*
X104539463Y-95853494D01*
X104618815Y-95950185D01*
X104715506Y-96029537D01*
X104825820Y-96088502D01*
X104945518Y-96124812D01*
X105070000Y-96137072D01*
X107070000Y-96137072D01*
X107194482Y-96124812D01*
X107314180Y-96088502D01*
X107424494Y-96029537D01*
X107521185Y-95950185D01*
X107600537Y-95853494D01*
X107659502Y-95743180D01*
X107695812Y-95623482D01*
X107708072Y-95499000D01*
X107708072Y-92059000D01*
X110732913Y-92059000D01*
X110744188Y-92173482D01*
X110780498Y-92293180D01*
X110839463Y-92403494D01*
X110876809Y-92449000D01*
X110839463Y-92494506D01*
X110780498Y-92604820D01*
X110744188Y-92724518D01*
X110731928Y-92849000D01*
X110731928Y-94349000D01*
X110744188Y-94473482D01*
X110780498Y-94593180D01*
X110839463Y-94703494D01*
X110876809Y-94749000D01*
X110839463Y-94794506D01*
X110780498Y-94904820D01*
X110744188Y-95024518D01*
X110731928Y-95149000D01*
X110735000Y-95613250D01*
X110893750Y-95772000D01*
X112243000Y-95772000D01*
X112243000Y-95752000D01*
X112497000Y-95752000D01*
X112497000Y-95772000D01*
X113846250Y-95772000D01*
X113924655Y-95693595D01*
X117738282Y-95693595D01*
X117782039Y-96012675D01*
X117887205Y-96317088D01*
X117980186Y-96491044D01*
X118244587Y-96586808D01*
X119200395Y-95631000D01*
X119559605Y-95631000D01*
X120515413Y-96586808D01*
X120779814Y-96491044D01*
X120920704Y-96201429D01*
X121002384Y-95889892D01*
X121021718Y-95568405D01*
X120977961Y-95249325D01*
X120872795Y-94944912D01*
X120779814Y-94770956D01*
X120515413Y-94675192D01*
X119559605Y-95631000D01*
X119200395Y-95631000D01*
X118244587Y-94675192D01*
X117980186Y-94770956D01*
X117839296Y-95060571D01*
X117757616Y-95372108D01*
X117738282Y-95693595D01*
X113924655Y-95693595D01*
X114005000Y-95613250D01*
X114008072Y-95149000D01*
X113995812Y-95024518D01*
X113959502Y-94904820D01*
X113900537Y-94794506D01*
X113863191Y-94749000D01*
X113900537Y-94703494D01*
X113959502Y-94593180D01*
X113995812Y-94473482D01*
X114007087Y-94359000D01*
X118473663Y-94359000D01*
X118424192Y-94495587D01*
X119380000Y-95451395D01*
X120335808Y-94495587D01*
X120240044Y-94231186D01*
X119982973Y-94106128D01*
X121293804Y-92795298D01*
X121322801Y-92771501D01*
X121361359Y-92724518D01*
X121417774Y-92655777D01*
X121488346Y-92523747D01*
X121497216Y-92494506D01*
X121531803Y-92380486D01*
X121542800Y-92268833D01*
X121542800Y-92268824D01*
X121546476Y-92231501D01*
X121542800Y-92194178D01*
X121542800Y-85908723D01*
X121546476Y-85871400D01*
X121542800Y-85834077D01*
X121542800Y-85834067D01*
X121531803Y-85722414D01*
X121488346Y-85579153D01*
X121417774Y-85447124D01*
X121322801Y-85331399D01*
X121293802Y-85307601D01*
X120781344Y-84795143D01*
X120805812Y-84714482D01*
X120818072Y-84590000D01*
X120815000Y-83575750D01*
X120656250Y-83417000D01*
X119507000Y-83417000D01*
X119507000Y-83437000D01*
X119253000Y-83437000D01*
X119253000Y-83417000D01*
X118103750Y-83417000D01*
X117945000Y-83575750D01*
X117942420Y-84427700D01*
X113079300Y-84427700D01*
X113079300Y-81990000D01*
X117941928Y-81990000D01*
X117945000Y-83004250D01*
X118103750Y-83163000D01*
X119253000Y-83163000D01*
X119253000Y-81513750D01*
X119507000Y-81513750D01*
X119507000Y-83163000D01*
X120656250Y-83163000D01*
X120815000Y-83004250D01*
X120818072Y-81990000D01*
X120805812Y-81865518D01*
X120769502Y-81745820D01*
X120710537Y-81635506D01*
X120631185Y-81538815D01*
X120534494Y-81459463D01*
X120424180Y-81400498D01*
X120304482Y-81364188D01*
X120180000Y-81351928D01*
X119665750Y-81355000D01*
X119507000Y-81513750D01*
X119253000Y-81513750D01*
X119094250Y-81355000D01*
X118580000Y-81351928D01*
X118455518Y-81364188D01*
X118335820Y-81400498D01*
X118225506Y-81459463D01*
X118128815Y-81538815D01*
X118049463Y-81635506D01*
X117990498Y-81745820D01*
X117954188Y-81865518D01*
X117941928Y-81990000D01*
X113079300Y-81990000D01*
X113079300Y-79005000D01*
X124445928Y-79005000D01*
X124458188Y-79129482D01*
X124494498Y-79249180D01*
X124553463Y-79359494D01*
X124632815Y-79456185D01*
X124729506Y-79535537D01*
X124839820Y-79594502D01*
X124959518Y-79630812D01*
X125084000Y-79643072D01*
X125698250Y-79640000D01*
X125857000Y-79481250D01*
X125857000Y-78232000D01*
X124607750Y-78232000D01*
X124449000Y-78390750D01*
X124445928Y-79005000D01*
X113079300Y-79005000D01*
X113079300Y-77205000D01*
X124445928Y-77205000D01*
X124449000Y-77819250D01*
X124607750Y-77978000D01*
X125857000Y-77978000D01*
X125857000Y-76728750D01*
X125698250Y-76570000D01*
X125084000Y-76566928D01*
X124959518Y-76579188D01*
X124839820Y-76615498D01*
X124729506Y-76674463D01*
X124632815Y-76753815D01*
X124553463Y-76850506D01*
X124494498Y-76960820D01*
X124458188Y-77080518D01*
X124445928Y-77205000D01*
X113079300Y-77205000D01*
X113079300Y-76365000D01*
X117669928Y-76365000D01*
X117682188Y-76489482D01*
X117718498Y-76609180D01*
X117777463Y-76719494D01*
X117856815Y-76816185D01*
X117953506Y-76895537D01*
X118063820Y-76954502D01*
X118183518Y-76990812D01*
X118308000Y-77003072D01*
X119112250Y-77000000D01*
X119271000Y-76841250D01*
X119271000Y-75692000D01*
X119525000Y-75692000D01*
X119525000Y-76841250D01*
X119683750Y-77000000D01*
X120488000Y-77003072D01*
X120612482Y-76990812D01*
X120732180Y-76954502D01*
X120842494Y-76895537D01*
X120939185Y-76816185D01*
X121018537Y-76719494D01*
X121077502Y-76609180D01*
X121113812Y-76489482D01*
X121126072Y-76365000D01*
X121123000Y-75850750D01*
X120964250Y-75692000D01*
X119525000Y-75692000D01*
X119271000Y-75692000D01*
X117831750Y-75692000D01*
X117673000Y-75850750D01*
X117669928Y-76365000D01*
X113079300Y-76365000D01*
X113079300Y-75339425D01*
X113082976Y-75302100D01*
X113079300Y-75264775D01*
X113079300Y-75264767D01*
X113068303Y-75153114D01*
X113024846Y-75009853D01*
X112954274Y-74877824D01*
X112861682Y-74765000D01*
X117669928Y-74765000D01*
X117673000Y-75279250D01*
X117831750Y-75438000D01*
X119271000Y-75438000D01*
X119271000Y-74288750D01*
X119525000Y-74288750D01*
X119525000Y-75438000D01*
X120964250Y-75438000D01*
X121123000Y-75279250D01*
X121126072Y-74765000D01*
X121113812Y-74640518D01*
X121077502Y-74520820D01*
X121018537Y-74410506D01*
X120939185Y-74313815D01*
X120842494Y-74234463D01*
X120732180Y-74175498D01*
X120612482Y-74139188D01*
X120488000Y-74126928D01*
X119683750Y-74130000D01*
X119525000Y-74288750D01*
X119271000Y-74288750D01*
X119112250Y-74130000D01*
X118308000Y-74126928D01*
X118183518Y-74139188D01*
X118063820Y-74175498D01*
X117953506Y-74234463D01*
X117856815Y-74313815D01*
X117777463Y-74410506D01*
X117718498Y-74520820D01*
X117682188Y-74640518D01*
X117669928Y-74765000D01*
X112861682Y-74765000D01*
X112859301Y-74762099D01*
X112830303Y-74738301D01*
X108410004Y-70318003D01*
X108386201Y-70288999D01*
X108270476Y-70194026D01*
X108138447Y-70123454D01*
X107995186Y-70079997D01*
X107883533Y-70069000D01*
X107883522Y-70069000D01*
X107846200Y-70065324D01*
X107808878Y-70069000D01*
X107680200Y-70069000D01*
X107680200Y-63925094D01*
X121238508Y-63925094D01*
X121238508Y-64333386D01*
X121318162Y-64733834D01*
X121474409Y-65111047D01*
X121701244Y-65450530D01*
X121989950Y-65739236D01*
X122329433Y-65966071D01*
X122706646Y-66122318D01*
X123107094Y-66201972D01*
X123515386Y-66201972D01*
X123915834Y-66122318D01*
X124293047Y-65966071D01*
X124632530Y-65739236D01*
X124921236Y-65450530D01*
X125148071Y-65111047D01*
X125304318Y-64733834D01*
X125383972Y-64333386D01*
X125383972Y-63925094D01*
X125304318Y-63524646D01*
X125148071Y-63147433D01*
X124921236Y-62807950D01*
X124632530Y-62519244D01*
X124293047Y-62292409D01*
X123915834Y-62136162D01*
X123515386Y-62056508D01*
X123107094Y-62056508D01*
X122706646Y-62136162D01*
X122329433Y-62292409D01*
X121989950Y-62519244D01*
X121701244Y-62807950D01*
X121474409Y-63147433D01*
X121318162Y-63524646D01*
X121238508Y-63925094D01*
X107680200Y-63925094D01*
X107680200Y-57879022D01*
X107683876Y-57841699D01*
X107680200Y-57804376D01*
X107680200Y-57804367D01*
X107669203Y-57692714D01*
X107625746Y-57549453D01*
X107555174Y-57417424D01*
X107460201Y-57301699D01*
X107431204Y-57277902D01*
X107204712Y-57051410D01*
X107206072Y-57037600D01*
X107206072Y-56757100D01*
X107233114Y-56765303D01*
X107344767Y-56776300D01*
X107344777Y-56776300D01*
X107382100Y-56779976D01*
X107419423Y-56776300D01*
X112647678Y-56776300D01*
X112685000Y-56779976D01*
X112722322Y-56776300D01*
X112722333Y-56776300D01*
X112833986Y-56765303D01*
X112977247Y-56721846D01*
X113109276Y-56651274D01*
X113225001Y-56556301D01*
X113248804Y-56527297D01*
X114004004Y-55772097D01*
X114090820Y-55818502D01*
X114210518Y-55854812D01*
X114335000Y-55867072D01*
X115535000Y-55867072D01*
X115659482Y-55854812D01*
X115779180Y-55818502D01*
X115889494Y-55759537D01*
X115986185Y-55680185D01*
X116065537Y-55583494D01*
X116124502Y-55473180D01*
X116160812Y-55353482D01*
X116173072Y-55229000D01*
X116173072Y-53660000D01*
X122916620Y-53660000D01*
X126340000Y-57083381D01*
X126340000Y-57083381D01*
G37*
X126340000Y-57083381D02*
X126340000Y-71528921D01*
X126284913Y-71512210D01*
X126059408Y-71490000D01*
X125908592Y-71490000D01*
X125683087Y-71512210D01*
X125393739Y-71599983D01*
X125127073Y-71742519D01*
X124893339Y-71934339D01*
X124701519Y-72168073D01*
X124558983Y-72434739D01*
X124471210Y-72724087D01*
X124441573Y-73025000D01*
X124471210Y-73325913D01*
X124558983Y-73615261D01*
X124701519Y-73881927D01*
X124893339Y-74115661D01*
X125127073Y-74307481D01*
X125393739Y-74450017D01*
X125683087Y-74537790D01*
X125908592Y-74560000D01*
X126059408Y-74560000D01*
X126284913Y-74537790D01*
X126340000Y-74521079D01*
X126340001Y-76569649D01*
X126269750Y-76570000D01*
X126111000Y-76728750D01*
X126111000Y-77978000D01*
X126131000Y-77978000D01*
X126131000Y-78232000D01*
X126111000Y-78232000D01*
X126111000Y-79481250D01*
X126269750Y-79640000D01*
X126340001Y-79640351D01*
X126340001Y-93735975D01*
X122907168Y-97340000D01*
X95725091Y-97340000D01*
X95723343Y-96649000D01*
X110731928Y-96649000D01*
X110744188Y-96773482D01*
X110780498Y-96893180D01*
X110839463Y-97003494D01*
X110918815Y-97100185D01*
X111015506Y-97179537D01*
X111125820Y-97238502D01*
X111245518Y-97274812D01*
X111370000Y-97287072D01*
X112084250Y-97284000D01*
X112243000Y-97125250D01*
X112243000Y-96026000D01*
X112497000Y-96026000D01*
X112497000Y-97125250D01*
X112655750Y-97284000D01*
X113370000Y-97287072D01*
X113494482Y-97274812D01*
X113614180Y-97238502D01*
X113724494Y-97179537D01*
X113821185Y-97100185D01*
X113900537Y-97003494D01*
X113959502Y-96893180D01*
X113995812Y-96773482D01*
X113996508Y-96766413D01*
X118424192Y-96766413D01*
X118519956Y-97030814D01*
X118809571Y-97171704D01*
X119121108Y-97253384D01*
X119442595Y-97272718D01*
X119761675Y-97228961D01*
X120066088Y-97123795D01*
X120240044Y-97030814D01*
X120335808Y-96766413D01*
X119380000Y-95810605D01*
X118424192Y-96766413D01*
X113996508Y-96766413D01*
X114008072Y-96649000D01*
X114005000Y-96184750D01*
X113846250Y-96026000D01*
X112497000Y-96026000D01*
X112243000Y-96026000D01*
X110893750Y-96026000D01*
X110735000Y-96184750D01*
X110731928Y-96649000D01*
X95723343Y-96649000D01*
X95723000Y-96513650D01*
X95564250Y-96354900D01*
X94615000Y-96354900D01*
X94615000Y-96374900D01*
X94361000Y-96374900D01*
X94361000Y-96354900D01*
X94341000Y-96354900D01*
X94341000Y-96100900D01*
X94361000Y-96100900D01*
X94361000Y-94251650D01*
X94615000Y-94251650D01*
X94615000Y-96100900D01*
X95564250Y-96100900D01*
X95723000Y-95942150D01*
X95726072Y-94727900D01*
X95713812Y-94603418D01*
X95677502Y-94483720D01*
X95618537Y-94373406D01*
X95539185Y-94276715D01*
X95442494Y-94197363D01*
X95332180Y-94138398D01*
X95212482Y-94102088D01*
X95088000Y-94089828D01*
X94773750Y-94092900D01*
X94615000Y-94251650D01*
X94361000Y-94251650D01*
X94202250Y-94092900D01*
X93888000Y-94089828D01*
X93763518Y-94102088D01*
X93720592Y-94115110D01*
X95776702Y-92059000D01*
X104431928Y-92059000D01*
X104431928Y-95499000D01*
X104444188Y-95623482D01*
X104480498Y-95743180D01*
X104539463Y-95853494D01*
X104618815Y-95950185D01*
X104715506Y-96029537D01*
X104825820Y-96088502D01*
X104945518Y-96124812D01*
X105070000Y-96137072D01*
X107070000Y-96137072D01*
X107194482Y-96124812D01*
X107314180Y-96088502D01*
X107424494Y-96029537D01*
X107521185Y-95950185D01*
X107600537Y-95853494D01*
X107659502Y-95743180D01*
X107695812Y-95623482D01*
X107708072Y-95499000D01*
X107708072Y-92059000D01*
X110732913Y-92059000D01*
X110744188Y-92173482D01*
X110780498Y-92293180D01*
X110839463Y-92403494D01*
X110876809Y-92449000D01*
X110839463Y-92494506D01*
X110780498Y-92604820D01*
X110744188Y-92724518D01*
X110731928Y-92849000D01*
X110731928Y-94349000D01*
X110744188Y-94473482D01*
X110780498Y-94593180D01*
X110839463Y-94703494D01*
X110876809Y-94749000D01*
X110839463Y-94794506D01*
X110780498Y-94904820D01*
X110744188Y-95024518D01*
X110731928Y-95149000D01*
X110735000Y-95613250D01*
X110893750Y-95772000D01*
X112243000Y-95772000D01*
X112243000Y-95752000D01*
X112497000Y-95752000D01*
X112497000Y-95772000D01*
X113846250Y-95772000D01*
X113924655Y-95693595D01*
X117738282Y-95693595D01*
X117782039Y-96012675D01*
X117887205Y-96317088D01*
X117980186Y-96491044D01*
X118244587Y-96586808D01*
X119200395Y-95631000D01*
X119559605Y-95631000D01*
X120515413Y-96586808D01*
X120779814Y-96491044D01*
X120920704Y-96201429D01*
X121002384Y-95889892D01*
X121021718Y-95568405D01*
X120977961Y-95249325D01*
X120872795Y-94944912D01*
X120779814Y-94770956D01*
X120515413Y-94675192D01*
X119559605Y-95631000D01*
X119200395Y-95631000D01*
X118244587Y-94675192D01*
X117980186Y-94770956D01*
X117839296Y-95060571D01*
X117757616Y-95372108D01*
X117738282Y-95693595D01*
X113924655Y-95693595D01*
X114005000Y-95613250D01*
X114008072Y-95149000D01*
X113995812Y-95024518D01*
X113959502Y-94904820D01*
X113900537Y-94794506D01*
X113863191Y-94749000D01*
X113900537Y-94703494D01*
X113959502Y-94593180D01*
X113995812Y-94473482D01*
X114007087Y-94359000D01*
X118473663Y-94359000D01*
X118424192Y-94495587D01*
X119380000Y-95451395D01*
X120335808Y-94495587D01*
X120240044Y-94231186D01*
X119982973Y-94106128D01*
X121293804Y-92795298D01*
X121322801Y-92771501D01*
X121361359Y-92724518D01*
X121417774Y-92655777D01*
X121488346Y-92523747D01*
X121497216Y-92494506D01*
X121531803Y-92380486D01*
X121542800Y-92268833D01*
X121542800Y-92268824D01*
X121546476Y-92231501D01*
X121542800Y-92194178D01*
X121542800Y-85908723D01*
X121546476Y-85871400D01*
X121542800Y-85834077D01*
X121542800Y-85834067D01*
X121531803Y-85722414D01*
X121488346Y-85579153D01*
X121417774Y-85447124D01*
X121322801Y-85331399D01*
X121293802Y-85307601D01*
X120781344Y-84795143D01*
X120805812Y-84714482D01*
X120818072Y-84590000D01*
X120815000Y-83575750D01*
X120656250Y-83417000D01*
X119507000Y-83417000D01*
X119507000Y-83437000D01*
X119253000Y-83437000D01*
X119253000Y-83417000D01*
X118103750Y-83417000D01*
X117945000Y-83575750D01*
X117942420Y-84427700D01*
X113079300Y-84427700D01*
X113079300Y-81990000D01*
X117941928Y-81990000D01*
X117945000Y-83004250D01*
X118103750Y-83163000D01*
X119253000Y-83163000D01*
X119253000Y-81513750D01*
X119507000Y-81513750D01*
X119507000Y-83163000D01*
X120656250Y-83163000D01*
X120815000Y-83004250D01*
X120818072Y-81990000D01*
X120805812Y-81865518D01*
X120769502Y-81745820D01*
X120710537Y-81635506D01*
X120631185Y-81538815D01*
X120534494Y-81459463D01*
X120424180Y-81400498D01*
X120304482Y-81364188D01*
X120180000Y-81351928D01*
X119665750Y-81355000D01*
X119507000Y-81513750D01*
X119253000Y-81513750D01*
X119094250Y-81355000D01*
X118580000Y-81351928D01*
X118455518Y-81364188D01*
X118335820Y-81400498D01*
X118225506Y-81459463D01*
X118128815Y-81538815D01*
X118049463Y-81635506D01*
X117990498Y-81745820D01*
X117954188Y-81865518D01*
X117941928Y-81990000D01*
X113079300Y-81990000D01*
X113079300Y-79005000D01*
X124445928Y-79005000D01*
X124458188Y-79129482D01*
X124494498Y-79249180D01*
X124553463Y-79359494D01*
X124632815Y-79456185D01*
X124729506Y-79535537D01*
X124839820Y-79594502D01*
X124959518Y-79630812D01*
X125084000Y-79643072D01*
X125698250Y-79640000D01*
X125857000Y-79481250D01*
X125857000Y-78232000D01*
X124607750Y-78232000D01*
X124449000Y-78390750D01*
X124445928Y-79005000D01*
X113079300Y-79005000D01*
X113079300Y-77205000D01*
X124445928Y-77205000D01*
X124449000Y-77819250D01*
X124607750Y-77978000D01*
X125857000Y-77978000D01*
X125857000Y-76728750D01*
X125698250Y-76570000D01*
X125084000Y-76566928D01*
X124959518Y-76579188D01*
X124839820Y-76615498D01*
X124729506Y-76674463D01*
X124632815Y-76753815D01*
X124553463Y-76850506D01*
X124494498Y-76960820D01*
X124458188Y-77080518D01*
X124445928Y-77205000D01*
X113079300Y-77205000D01*
X113079300Y-76365000D01*
X117669928Y-76365000D01*
X117682188Y-76489482D01*
X117718498Y-76609180D01*
X117777463Y-76719494D01*
X117856815Y-76816185D01*
X117953506Y-76895537D01*
X118063820Y-76954502D01*
X118183518Y-76990812D01*
X118308000Y-77003072D01*
X119112250Y-77000000D01*
X119271000Y-76841250D01*
X119271000Y-75692000D01*
X119525000Y-75692000D01*
X119525000Y-76841250D01*
X119683750Y-77000000D01*
X120488000Y-77003072D01*
X120612482Y-76990812D01*
X120732180Y-76954502D01*
X120842494Y-76895537D01*
X120939185Y-76816185D01*
X121018537Y-76719494D01*
X121077502Y-76609180D01*
X121113812Y-76489482D01*
X121126072Y-76365000D01*
X121123000Y-75850750D01*
X120964250Y-75692000D01*
X119525000Y-75692000D01*
X119271000Y-75692000D01*
X117831750Y-75692000D01*
X117673000Y-75850750D01*
X117669928Y-76365000D01*
X113079300Y-76365000D01*
X113079300Y-75339425D01*
X113082976Y-75302100D01*
X113079300Y-75264775D01*
X113079300Y-75264767D01*
X113068303Y-75153114D01*
X113024846Y-75009853D01*
X112954274Y-74877824D01*
X112861682Y-74765000D01*
X117669928Y-74765000D01*
X117673000Y-75279250D01*
X117831750Y-75438000D01*
X119271000Y-75438000D01*
X119271000Y-74288750D01*
X119525000Y-74288750D01*
X119525000Y-75438000D01*
X120964250Y-75438000D01*
X121123000Y-75279250D01*
X121126072Y-74765000D01*
X121113812Y-74640518D01*
X121077502Y-74520820D01*
X121018537Y-74410506D01*
X120939185Y-74313815D01*
X120842494Y-74234463D01*
X120732180Y-74175498D01*
X120612482Y-74139188D01*
X120488000Y-74126928D01*
X119683750Y-74130000D01*
X119525000Y-74288750D01*
X119271000Y-74288750D01*
X119112250Y-74130000D01*
X118308000Y-74126928D01*
X118183518Y-74139188D01*
X118063820Y-74175498D01*
X117953506Y-74234463D01*
X117856815Y-74313815D01*
X117777463Y-74410506D01*
X117718498Y-74520820D01*
X117682188Y-74640518D01*
X117669928Y-74765000D01*
X112861682Y-74765000D01*
X112859301Y-74762099D01*
X112830303Y-74738301D01*
X108410004Y-70318003D01*
X108386201Y-70288999D01*
X108270476Y-70194026D01*
X108138447Y-70123454D01*
X107995186Y-70079997D01*
X107883533Y-70069000D01*
X107883522Y-70069000D01*
X107846200Y-70065324D01*
X107808878Y-70069000D01*
X107680200Y-70069000D01*
X107680200Y-63925094D01*
X121238508Y-63925094D01*
X121238508Y-64333386D01*
X121318162Y-64733834D01*
X121474409Y-65111047D01*
X121701244Y-65450530D01*
X121989950Y-65739236D01*
X122329433Y-65966071D01*
X122706646Y-66122318D01*
X123107094Y-66201972D01*
X123515386Y-66201972D01*
X123915834Y-66122318D01*
X124293047Y-65966071D01*
X124632530Y-65739236D01*
X124921236Y-65450530D01*
X125148071Y-65111047D01*
X125304318Y-64733834D01*
X125383972Y-64333386D01*
X125383972Y-63925094D01*
X125304318Y-63524646D01*
X125148071Y-63147433D01*
X124921236Y-62807950D01*
X124632530Y-62519244D01*
X124293047Y-62292409D01*
X123915834Y-62136162D01*
X123515386Y-62056508D01*
X123107094Y-62056508D01*
X122706646Y-62136162D01*
X122329433Y-62292409D01*
X121989950Y-62519244D01*
X121701244Y-62807950D01*
X121474409Y-63147433D01*
X121318162Y-63524646D01*
X121238508Y-63925094D01*
X107680200Y-63925094D01*
X107680200Y-57879022D01*
X107683876Y-57841699D01*
X107680200Y-57804376D01*
X107680200Y-57804367D01*
X107669203Y-57692714D01*
X107625746Y-57549453D01*
X107555174Y-57417424D01*
X107460201Y-57301699D01*
X107431204Y-57277902D01*
X107204712Y-57051410D01*
X107206072Y-57037600D01*
X107206072Y-56757100D01*
X107233114Y-56765303D01*
X107344767Y-56776300D01*
X107344777Y-56776300D01*
X107382100Y-56779976D01*
X107419423Y-56776300D01*
X112647678Y-56776300D01*
X112685000Y-56779976D01*
X112722322Y-56776300D01*
X112722333Y-56776300D01*
X112833986Y-56765303D01*
X112977247Y-56721846D01*
X113109276Y-56651274D01*
X113225001Y-56556301D01*
X113248804Y-56527297D01*
X114004004Y-55772097D01*
X114090820Y-55818502D01*
X114210518Y-55854812D01*
X114335000Y-55867072D01*
X115535000Y-55867072D01*
X115659482Y-55854812D01*
X115779180Y-55818502D01*
X115889494Y-55759537D01*
X115986185Y-55680185D01*
X116065537Y-55583494D01*
X116124502Y-55473180D01*
X116160812Y-55353482D01*
X116173072Y-55229000D01*
X116173072Y-53660000D01*
X122916620Y-53660000D01*
X126340000Y-57083381D01*
G36*
X95210000Y-74729802D02*
G01*
X95233799Y-74758801D01*
X95349524Y-74853774D01*
X95481553Y-74924346D01*
X95624814Y-74967803D01*
X95736467Y-74978800D01*
X95736475Y-74978800D01*
X95773800Y-74982476D01*
X95811125Y-74978800D01*
X100781162Y-74978800D01*
X100710635Y-75253442D01*
X100694009Y-75555353D01*
X100736603Y-75854707D01*
X100836778Y-76139999D01*
X100916739Y-76289592D01*
X101170918Y-76373274D01*
X101054970Y-76489222D01*
X101101735Y-76535987D01*
X101090820Y-76539298D01*
X100980506Y-76598263D01*
X100883815Y-76677615D01*
X100804463Y-76774306D01*
X100745498Y-76884620D01*
X100709188Y-77004318D01*
X100696928Y-77128800D01*
X100696928Y-77268800D01*
X99721937Y-77268800D01*
X99697472Y-77188149D01*
X99615405Y-77034613D01*
X99504962Y-76900038D01*
X99370387Y-76789595D01*
X99216851Y-76707528D01*
X99050255Y-76656992D01*
X98877001Y-76639928D01*
X98226999Y-76639928D01*
X98053745Y-76656992D01*
X97887149Y-76707528D01*
X97733613Y-76789595D01*
X97599038Y-76900038D01*
X97527000Y-76987816D01*
X97454962Y-76900038D01*
X97320387Y-76789595D01*
X97166851Y-76707528D01*
X97000255Y-76656992D01*
X96827001Y-76639928D01*
X96176999Y-76639928D01*
X96100233Y-76647489D01*
X96056086Y-76634097D01*
X95944433Y-76623100D01*
X95944422Y-76623100D01*
X95907100Y-76619424D01*
X95869778Y-76623100D01*
X95643411Y-76623100D01*
X95599474Y-76579163D01*
X95429956Y-76465895D01*
X95241598Y-76387874D01*
X95041639Y-76348100D01*
X94837761Y-76348100D01*
X94637802Y-76387874D01*
X94449444Y-76465895D01*
X94279926Y-76579163D01*
X94135763Y-76723326D01*
X94022495Y-76892844D01*
X93944474Y-77081202D01*
X93904700Y-77281161D01*
X93904700Y-77485039D01*
X93944474Y-77684998D01*
X94022495Y-77873356D01*
X94135763Y-78042874D01*
X94279926Y-78187037D01*
X94449444Y-78300305D01*
X94637802Y-78378326D01*
X94837761Y-78418100D01*
X95041639Y-78418100D01*
X95241598Y-78378326D01*
X95288928Y-78358721D01*
X95288928Y-78428001D01*
X95305992Y-78601255D01*
X95356528Y-78767851D01*
X95438595Y-78921387D01*
X95549038Y-79055962D01*
X95683613Y-79166405D01*
X95837149Y-79248472D01*
X96003745Y-79299008D01*
X96176999Y-79316072D01*
X96827001Y-79316072D01*
X97000255Y-79299008D01*
X97166851Y-79248472D01*
X97320387Y-79166405D01*
X97454962Y-79055962D01*
X97527000Y-78968184D01*
X97599038Y-79055962D01*
X97733613Y-79166405D01*
X97887149Y-79248472D01*
X98053745Y-79299008D01*
X98226999Y-79316072D01*
X98877001Y-79316072D01*
X99050255Y-79299008D01*
X99216851Y-79248472D01*
X99370387Y-79166405D01*
X99504962Y-79055962D01*
X99615405Y-78921387D01*
X99686274Y-78788800D01*
X100696928Y-78788800D01*
X100696928Y-78928800D01*
X100709188Y-79053282D01*
X100745498Y-79172980D01*
X100804463Y-79283294D01*
X100883815Y-79379985D01*
X100980506Y-79459337D01*
X101090820Y-79518302D01*
X101210518Y-79554612D01*
X101335000Y-79566872D01*
X103135000Y-79566872D01*
X103259482Y-79554612D01*
X103379180Y-79518302D01*
X103489494Y-79459337D01*
X103586185Y-79379985D01*
X103665537Y-79283294D01*
X103724502Y-79172980D01*
X103760812Y-79053282D01*
X103773072Y-78928800D01*
X103773072Y-77128800D01*
X103760812Y-77004318D01*
X103724502Y-76884620D01*
X103665537Y-76774306D01*
X103586185Y-76677615D01*
X103489494Y-76598263D01*
X103379180Y-76539298D01*
X103368265Y-76535987D01*
X103415030Y-76489222D01*
X103299082Y-76373274D01*
X103553261Y-76289592D01*
X103684158Y-76017025D01*
X103759365Y-75724158D01*
X103775991Y-75422247D01*
X103733397Y-75122893D01*
X103682801Y-74978800D01*
X108489928Y-74978800D01*
X108489928Y-76365000D01*
X108502188Y-76489482D01*
X108538498Y-76609180D01*
X108597463Y-76719494D01*
X108676815Y-76816185D01*
X108773506Y-76895537D01*
X108883820Y-76954502D01*
X109003518Y-76990812D01*
X109128000Y-77003072D01*
X111308000Y-77003072D01*
X111432482Y-76990812D01*
X111552180Y-76954502D01*
X111559301Y-76950696D01*
X111559300Y-81369593D01*
X111541482Y-81364188D01*
X111417000Y-81351928D01*
X110902750Y-81355000D01*
X110744000Y-81513750D01*
X110744000Y-83163000D01*
X110764000Y-83163000D01*
X110764000Y-83417000D01*
X110744000Y-83417000D01*
X110744000Y-83437000D01*
X110490000Y-83437000D01*
X110490000Y-83417000D01*
X109340750Y-83417000D01*
X109182000Y-83575750D01*
X109178928Y-84590000D01*
X109191188Y-84714482D01*
X109192189Y-84717783D01*
X109169678Y-84720000D01*
X108026614Y-84720000D01*
X107995405Y-84661613D01*
X107884962Y-84527038D01*
X107878406Y-84521658D01*
X107958185Y-84456185D01*
X108037537Y-84359494D01*
X108096502Y-84249180D01*
X108132812Y-84129482D01*
X108145072Y-84005000D01*
X108142000Y-83715750D01*
X107983250Y-83557000D01*
X106934000Y-83557000D01*
X106934000Y-83577000D01*
X106680000Y-83577000D01*
X106680000Y-83557000D01*
X104775000Y-83557000D01*
X104775000Y-83577000D01*
X104521000Y-83577000D01*
X104521000Y-83557000D01*
X104501000Y-83557000D01*
X104501000Y-83303000D01*
X104521000Y-83303000D01*
X104521000Y-82378750D01*
X104775000Y-82378750D01*
X104775000Y-83303000D01*
X106680000Y-83303000D01*
X106680000Y-82378750D01*
X106934000Y-82378750D01*
X106934000Y-83303000D01*
X107983250Y-83303000D01*
X108142000Y-83144250D01*
X108145072Y-82855000D01*
X108132812Y-82730518D01*
X108096502Y-82610820D01*
X108037537Y-82500506D01*
X107958185Y-82403815D01*
X107861494Y-82324463D01*
X107751180Y-82265498D01*
X107631482Y-82229188D01*
X107507000Y-82216928D01*
X107092750Y-82220000D01*
X106934000Y-82378750D01*
X106680000Y-82378750D01*
X106521250Y-82220000D01*
X106107000Y-82216928D01*
X105982518Y-82229188D01*
X105862820Y-82265498D01*
X105752506Y-82324463D01*
X105727500Y-82344985D01*
X105702494Y-82324463D01*
X105592180Y-82265498D01*
X105472482Y-82229188D01*
X105348000Y-82216928D01*
X104933750Y-82220000D01*
X104775000Y-82378750D01*
X104521000Y-82378750D01*
X104362250Y-82220000D01*
X103948000Y-82216928D01*
X103823518Y-82229188D01*
X103703820Y-82265498D01*
X103593506Y-82324463D01*
X103496815Y-82403815D01*
X103417463Y-82500506D01*
X103358498Y-82610820D01*
X103322188Y-82730518D01*
X103309928Y-82855000D01*
X103312205Y-83069404D01*
X102855804Y-82613003D01*
X102832001Y-82583999D01*
X102716276Y-82489026D01*
X102584247Y-82418454D01*
X102440986Y-82374997D01*
X102329333Y-82364000D01*
X102329322Y-82364000D01*
X102292000Y-82360324D01*
X102254678Y-82364000D01*
X96328468Y-82364000D01*
X96315185Y-82347815D01*
X96218494Y-82268463D01*
X96108180Y-82209498D01*
X95988482Y-82173188D01*
X95864000Y-82160928D01*
X94804000Y-82160928D01*
X94679518Y-82173188D01*
X94620571Y-82191069D01*
X94419502Y-81990000D01*
X109178928Y-81990000D01*
X109182000Y-83004250D01*
X109340750Y-83163000D01*
X110490000Y-83163000D01*
X110490000Y-81513750D01*
X110331250Y-81355000D01*
X109817000Y-81351928D01*
X109692518Y-81364188D01*
X109572820Y-81400498D01*
X109462506Y-81459463D01*
X109365815Y-81538815D01*
X109286463Y-81635506D01*
X109227498Y-81745820D01*
X109191188Y-81865518D01*
X109178928Y-81990000D01*
X94419502Y-81990000D01*
X94392103Y-81962602D01*
X94368301Y-81933599D01*
X94252576Y-81838626D01*
X94120547Y-81768054D01*
X93977286Y-81724597D01*
X93865633Y-81713600D01*
X93865622Y-81713600D01*
X93828300Y-81709924D01*
X93790978Y-81713600D01*
X90111072Y-81713600D01*
X90111072Y-81190999D01*
X90094008Y-81017745D01*
X90043472Y-80851149D01*
X89961405Y-80697613D01*
X89850962Y-80563038D01*
X89716387Y-80452595D01*
X89562851Y-80370528D01*
X89533000Y-80361473D01*
X89533000Y-79141527D01*
X89562851Y-79132472D01*
X89716387Y-79050405D01*
X89850962Y-78939962D01*
X89961405Y-78805387D01*
X90043472Y-78651851D01*
X90094008Y-78485255D01*
X90111072Y-78312001D01*
X90111072Y-77723729D01*
X92656804Y-75177998D01*
X92685801Y-75154201D01*
X92780774Y-75038476D01*
X92851346Y-74906447D01*
X92894803Y-74763186D01*
X92905800Y-74651533D01*
X92905800Y-74651532D01*
X92909477Y-74614200D01*
X92905800Y-74576867D01*
X92905800Y-72425601D01*
X95210000Y-74729802D01*
X95210000Y-74729802D01*
G37*
X95210000Y-74729802D02*
X95233799Y-74758801D01*
X95349524Y-74853774D01*
X95481553Y-74924346D01*
X95624814Y-74967803D01*
X95736467Y-74978800D01*
X95736475Y-74978800D01*
X95773800Y-74982476D01*
X95811125Y-74978800D01*
X100781162Y-74978800D01*
X100710635Y-75253442D01*
X100694009Y-75555353D01*
X100736603Y-75854707D01*
X100836778Y-76139999D01*
X100916739Y-76289592D01*
X101170918Y-76373274D01*
X101054970Y-76489222D01*
X101101735Y-76535987D01*
X101090820Y-76539298D01*
X100980506Y-76598263D01*
X100883815Y-76677615D01*
X100804463Y-76774306D01*
X100745498Y-76884620D01*
X100709188Y-77004318D01*
X100696928Y-77128800D01*
X100696928Y-77268800D01*
X99721937Y-77268800D01*
X99697472Y-77188149D01*
X99615405Y-77034613D01*
X99504962Y-76900038D01*
X99370387Y-76789595D01*
X99216851Y-76707528D01*
X99050255Y-76656992D01*
X98877001Y-76639928D01*
X98226999Y-76639928D01*
X98053745Y-76656992D01*
X97887149Y-76707528D01*
X97733613Y-76789595D01*
X97599038Y-76900038D01*
X97527000Y-76987816D01*
X97454962Y-76900038D01*
X97320387Y-76789595D01*
X97166851Y-76707528D01*
X97000255Y-76656992D01*
X96827001Y-76639928D01*
X96176999Y-76639928D01*
X96100233Y-76647489D01*
X96056086Y-76634097D01*
X95944433Y-76623100D01*
X95944422Y-76623100D01*
X95907100Y-76619424D01*
X95869778Y-76623100D01*
X95643411Y-76623100D01*
X95599474Y-76579163D01*
X95429956Y-76465895D01*
X95241598Y-76387874D01*
X95041639Y-76348100D01*
X94837761Y-76348100D01*
X94637802Y-76387874D01*
X94449444Y-76465895D01*
X94279926Y-76579163D01*
X94135763Y-76723326D01*
X94022495Y-76892844D01*
X93944474Y-77081202D01*
X93904700Y-77281161D01*
X93904700Y-77485039D01*
X93944474Y-77684998D01*
X94022495Y-77873356D01*
X94135763Y-78042874D01*
X94279926Y-78187037D01*
X94449444Y-78300305D01*
X94637802Y-78378326D01*
X94837761Y-78418100D01*
X95041639Y-78418100D01*
X95241598Y-78378326D01*
X95288928Y-78358721D01*
X95288928Y-78428001D01*
X95305992Y-78601255D01*
X95356528Y-78767851D01*
X95438595Y-78921387D01*
X95549038Y-79055962D01*
X95683613Y-79166405D01*
X95837149Y-79248472D01*
X96003745Y-79299008D01*
X96176999Y-79316072D01*
X96827001Y-79316072D01*
X97000255Y-79299008D01*
X97166851Y-79248472D01*
X97320387Y-79166405D01*
X97454962Y-79055962D01*
X97527000Y-78968184D01*
X97599038Y-79055962D01*
X97733613Y-79166405D01*
X97887149Y-79248472D01*
X98053745Y-79299008D01*
X98226999Y-79316072D01*
X98877001Y-79316072D01*
X99050255Y-79299008D01*
X99216851Y-79248472D01*
X99370387Y-79166405D01*
X99504962Y-79055962D01*
X99615405Y-78921387D01*
X99686274Y-78788800D01*
X100696928Y-78788800D01*
X100696928Y-78928800D01*
X100709188Y-79053282D01*
X100745498Y-79172980D01*
X100804463Y-79283294D01*
X100883815Y-79379985D01*
X100980506Y-79459337D01*
X101090820Y-79518302D01*
X101210518Y-79554612D01*
X101335000Y-79566872D01*
X103135000Y-79566872D01*
X103259482Y-79554612D01*
X103379180Y-79518302D01*
X103489494Y-79459337D01*
X103586185Y-79379985D01*
X103665537Y-79283294D01*
X103724502Y-79172980D01*
X103760812Y-79053282D01*
X103773072Y-78928800D01*
X103773072Y-77128800D01*
X103760812Y-77004318D01*
X103724502Y-76884620D01*
X103665537Y-76774306D01*
X103586185Y-76677615D01*
X103489494Y-76598263D01*
X103379180Y-76539298D01*
X103368265Y-76535987D01*
X103415030Y-76489222D01*
X103299082Y-76373274D01*
X103553261Y-76289592D01*
X103684158Y-76017025D01*
X103759365Y-75724158D01*
X103775991Y-75422247D01*
X103733397Y-75122893D01*
X103682801Y-74978800D01*
X108489928Y-74978800D01*
X108489928Y-76365000D01*
X108502188Y-76489482D01*
X108538498Y-76609180D01*
X108597463Y-76719494D01*
X108676815Y-76816185D01*
X108773506Y-76895537D01*
X108883820Y-76954502D01*
X109003518Y-76990812D01*
X109128000Y-77003072D01*
X111308000Y-77003072D01*
X111432482Y-76990812D01*
X111552180Y-76954502D01*
X111559301Y-76950696D01*
X111559300Y-81369593D01*
X111541482Y-81364188D01*
X111417000Y-81351928D01*
X110902750Y-81355000D01*
X110744000Y-81513750D01*
X110744000Y-83163000D01*
X110764000Y-83163000D01*
X110764000Y-83417000D01*
X110744000Y-83417000D01*
X110744000Y-83437000D01*
X110490000Y-83437000D01*
X110490000Y-83417000D01*
X109340750Y-83417000D01*
X109182000Y-83575750D01*
X109178928Y-84590000D01*
X109191188Y-84714482D01*
X109192189Y-84717783D01*
X109169678Y-84720000D01*
X108026614Y-84720000D01*
X107995405Y-84661613D01*
X107884962Y-84527038D01*
X107878406Y-84521658D01*
X107958185Y-84456185D01*
X108037537Y-84359494D01*
X108096502Y-84249180D01*
X108132812Y-84129482D01*
X108145072Y-84005000D01*
X108142000Y-83715750D01*
X107983250Y-83557000D01*
X106934000Y-83557000D01*
X106934000Y-83577000D01*
X106680000Y-83577000D01*
X106680000Y-83557000D01*
X104775000Y-83557000D01*
X104775000Y-83577000D01*
X104521000Y-83577000D01*
X104521000Y-83557000D01*
X104501000Y-83557000D01*
X104501000Y-83303000D01*
X104521000Y-83303000D01*
X104521000Y-82378750D01*
X104775000Y-82378750D01*
X104775000Y-83303000D01*
X106680000Y-83303000D01*
X106680000Y-82378750D01*
X106934000Y-82378750D01*
X106934000Y-83303000D01*
X107983250Y-83303000D01*
X108142000Y-83144250D01*
X108145072Y-82855000D01*
X108132812Y-82730518D01*
X108096502Y-82610820D01*
X108037537Y-82500506D01*
X107958185Y-82403815D01*
X107861494Y-82324463D01*
X107751180Y-82265498D01*
X107631482Y-82229188D01*
X107507000Y-82216928D01*
X107092750Y-82220000D01*
X106934000Y-82378750D01*
X106680000Y-82378750D01*
X106521250Y-82220000D01*
X106107000Y-82216928D01*
X105982518Y-82229188D01*
X105862820Y-82265498D01*
X105752506Y-82324463D01*
X105727500Y-82344985D01*
X105702494Y-82324463D01*
X105592180Y-82265498D01*
X105472482Y-82229188D01*
X105348000Y-82216928D01*
X104933750Y-82220000D01*
X104775000Y-82378750D01*
X104521000Y-82378750D01*
X104362250Y-82220000D01*
X103948000Y-82216928D01*
X103823518Y-82229188D01*
X103703820Y-82265498D01*
X103593506Y-82324463D01*
X103496815Y-82403815D01*
X103417463Y-82500506D01*
X103358498Y-82610820D01*
X103322188Y-82730518D01*
X103309928Y-82855000D01*
X103312205Y-83069404D01*
X102855804Y-82613003D01*
X102832001Y-82583999D01*
X102716276Y-82489026D01*
X102584247Y-82418454D01*
X102440986Y-82374997D01*
X102329333Y-82364000D01*
X102329322Y-82364000D01*
X102292000Y-82360324D01*
X102254678Y-82364000D01*
X96328468Y-82364000D01*
X96315185Y-82347815D01*
X96218494Y-82268463D01*
X96108180Y-82209498D01*
X95988482Y-82173188D01*
X95864000Y-82160928D01*
X94804000Y-82160928D01*
X94679518Y-82173188D01*
X94620571Y-82191069D01*
X94419502Y-81990000D01*
X109178928Y-81990000D01*
X109182000Y-83004250D01*
X109340750Y-83163000D01*
X110490000Y-83163000D01*
X110490000Y-81513750D01*
X110331250Y-81355000D01*
X109817000Y-81351928D01*
X109692518Y-81364188D01*
X109572820Y-81400498D01*
X109462506Y-81459463D01*
X109365815Y-81538815D01*
X109286463Y-81635506D01*
X109227498Y-81745820D01*
X109191188Y-81865518D01*
X109178928Y-81990000D01*
X94419502Y-81990000D01*
X94392103Y-81962602D01*
X94368301Y-81933599D01*
X94252576Y-81838626D01*
X94120547Y-81768054D01*
X93977286Y-81724597D01*
X93865633Y-81713600D01*
X93865622Y-81713600D01*
X93828300Y-81709924D01*
X93790978Y-81713600D01*
X90111072Y-81713600D01*
X90111072Y-81190999D01*
X90094008Y-81017745D01*
X90043472Y-80851149D01*
X89961405Y-80697613D01*
X89850962Y-80563038D01*
X89716387Y-80452595D01*
X89562851Y-80370528D01*
X89533000Y-80361473D01*
X89533000Y-79141527D01*
X89562851Y-79132472D01*
X89716387Y-79050405D01*
X89850962Y-78939962D01*
X89961405Y-78805387D01*
X90043472Y-78651851D01*
X90094008Y-78485255D01*
X90111072Y-78312001D01*
X90111072Y-77723729D01*
X92656804Y-75177998D01*
X92685801Y-75154201D01*
X92780774Y-75038476D01*
X92851346Y-74906447D01*
X92894803Y-74763186D01*
X92905800Y-74651533D01*
X92905800Y-74651532D01*
X92909477Y-74614200D01*
X92905800Y-74576867D01*
X92905800Y-72425601D01*
X95210000Y-74729802D01*
G36*
X102428748Y-75474658D02*
G01*
X102414605Y-75488800D01*
X102428748Y-75502943D01*
X102249143Y-75682548D01*
X102235000Y-75668405D01*
X102220858Y-75682548D01*
X102041253Y-75502943D01*
X102055395Y-75488800D01*
X102041253Y-75474658D01*
X102220858Y-75295053D01*
X102235000Y-75309195D01*
X102249143Y-75295053D01*
X102428748Y-75474658D01*
X102428748Y-75474658D01*
G37*
X102428748Y-75474658D02*
X102414605Y-75488800D01*
X102428748Y-75502943D01*
X102249143Y-75682548D01*
X102235000Y-75668405D01*
X102220858Y-75682548D01*
X102041253Y-75502943D01*
X102055395Y-75488800D01*
X102041253Y-75474658D01*
X102220858Y-75295053D01*
X102235000Y-75309195D01*
X102249143Y-75295053D01*
X102428748Y-75474658D01*
G36*
X83154928Y-71534500D02*
G01*
X83167188Y-71658982D01*
X83203498Y-71778680D01*
X83262463Y-71888994D01*
X83341815Y-71985685D01*
X83438506Y-72065037D01*
X83548820Y-72124002D01*
X83668518Y-72160312D01*
X83793000Y-72172572D01*
X84343000Y-72172572D01*
X84467482Y-72160312D01*
X84468000Y-72160155D01*
X84468518Y-72160312D01*
X84593000Y-72172572D01*
X85143000Y-72172572D01*
X85267482Y-72160312D01*
X85268620Y-72159967D01*
X85382250Y-72169500D01*
X85474333Y-72077417D01*
X85497494Y-72065037D01*
X85594185Y-71985685D01*
X85668000Y-71895741D01*
X85741815Y-71985685D01*
X85838506Y-72065037D01*
X85861667Y-72077417D01*
X85953750Y-72169500D01*
X86067380Y-72159967D01*
X86068518Y-72160312D01*
X86193000Y-72172572D01*
X86743000Y-72172572D01*
X86867482Y-72160312D01*
X86868620Y-72159967D01*
X86982250Y-72169500D01*
X87074333Y-72077417D01*
X87097494Y-72065037D01*
X87194185Y-71985685D01*
X87268000Y-71895741D01*
X87341815Y-71985685D01*
X87438506Y-72065037D01*
X87461667Y-72077417D01*
X87553750Y-72169500D01*
X87667380Y-72159967D01*
X87668518Y-72160312D01*
X87793000Y-72172572D01*
X88343000Y-72172572D01*
X88467482Y-72160312D01*
X88468000Y-72160155D01*
X88468518Y-72160312D01*
X88593000Y-72172572D01*
X89143000Y-72172572D01*
X89267482Y-72160312D01*
X89268000Y-72160155D01*
X89268518Y-72160312D01*
X89393000Y-72172572D01*
X89943000Y-72172572D01*
X90067482Y-72160312D01*
X90187180Y-72124002D01*
X90297494Y-72065037D01*
X90394185Y-71985685D01*
X90473537Y-71888994D01*
X90532502Y-71778680D01*
X90568812Y-71658982D01*
X90581072Y-71534500D01*
X90581072Y-70197572D01*
X91519537Y-70197572D01*
X91486026Y-70219963D01*
X91341863Y-70364126D01*
X91228595Y-70533644D01*
X91150574Y-70722002D01*
X91110800Y-70921961D01*
X91110800Y-71125839D01*
X91150574Y-71325798D01*
X91228595Y-71514156D01*
X91341863Y-71683674D01*
X91385801Y-71727612D01*
X91385800Y-74299398D01*
X90107676Y-75577522D01*
X90094008Y-75438745D01*
X90043472Y-75272149D01*
X89961405Y-75118613D01*
X89850962Y-74984038D01*
X89716387Y-74873595D01*
X89562851Y-74791528D01*
X89396255Y-74740992D01*
X89223001Y-74723928D01*
X88322999Y-74723928D01*
X88149745Y-74740992D01*
X87983149Y-74791528D01*
X87829613Y-74873595D01*
X87695038Y-74984038D01*
X87584595Y-75118613D01*
X87553386Y-75177000D01*
X85943072Y-75177000D01*
X85943072Y-75096000D01*
X85930812Y-74971518D01*
X85894502Y-74851820D01*
X85835537Y-74741506D01*
X85756185Y-74644815D01*
X85659494Y-74565463D01*
X85549180Y-74506498D01*
X85429482Y-74470188D01*
X85305000Y-74457928D01*
X83605000Y-74457928D01*
X83480518Y-74470188D01*
X83360820Y-74506498D01*
X83250506Y-74565463D01*
X83153815Y-74644815D01*
X83074463Y-74741506D01*
X83015498Y-74851820D01*
X82979188Y-74971518D01*
X82966928Y-75096000D01*
X82966928Y-75555827D01*
X82252700Y-74841599D01*
X82252700Y-70197572D01*
X83154928Y-70197572D01*
X83154928Y-71534500D01*
X83154928Y-71534500D01*
G37*
X83154928Y-71534500D02*
X83167188Y-71658982D01*
X83203498Y-71778680D01*
X83262463Y-71888994D01*
X83341815Y-71985685D01*
X83438506Y-72065037D01*
X83548820Y-72124002D01*
X83668518Y-72160312D01*
X83793000Y-72172572D01*
X84343000Y-72172572D01*
X84467482Y-72160312D01*
X84468000Y-72160155D01*
X84468518Y-72160312D01*
X84593000Y-72172572D01*
X85143000Y-72172572D01*
X85267482Y-72160312D01*
X85268620Y-72159967D01*
X85382250Y-72169500D01*
X85474333Y-72077417D01*
X85497494Y-72065037D01*
X85594185Y-71985685D01*
X85668000Y-71895741D01*
X85741815Y-71985685D01*
X85838506Y-72065037D01*
X85861667Y-72077417D01*
X85953750Y-72169500D01*
X86067380Y-72159967D01*
X86068518Y-72160312D01*
X86193000Y-72172572D01*
X86743000Y-72172572D01*
X86867482Y-72160312D01*
X86868620Y-72159967D01*
X86982250Y-72169500D01*
X87074333Y-72077417D01*
X87097494Y-72065037D01*
X87194185Y-71985685D01*
X87268000Y-71895741D01*
X87341815Y-71985685D01*
X87438506Y-72065037D01*
X87461667Y-72077417D01*
X87553750Y-72169500D01*
X87667380Y-72159967D01*
X87668518Y-72160312D01*
X87793000Y-72172572D01*
X88343000Y-72172572D01*
X88467482Y-72160312D01*
X88468000Y-72160155D01*
X88468518Y-72160312D01*
X88593000Y-72172572D01*
X89143000Y-72172572D01*
X89267482Y-72160312D01*
X89268000Y-72160155D01*
X89268518Y-72160312D01*
X89393000Y-72172572D01*
X89943000Y-72172572D01*
X90067482Y-72160312D01*
X90187180Y-72124002D01*
X90297494Y-72065037D01*
X90394185Y-71985685D01*
X90473537Y-71888994D01*
X90532502Y-71778680D01*
X90568812Y-71658982D01*
X90581072Y-71534500D01*
X90581072Y-70197572D01*
X91519537Y-70197572D01*
X91486026Y-70219963D01*
X91341863Y-70364126D01*
X91228595Y-70533644D01*
X91150574Y-70722002D01*
X91110800Y-70921961D01*
X91110800Y-71125839D01*
X91150574Y-71325798D01*
X91228595Y-71514156D01*
X91341863Y-71683674D01*
X91385801Y-71727612D01*
X91385800Y-74299398D01*
X90107676Y-75577522D01*
X90094008Y-75438745D01*
X90043472Y-75272149D01*
X89961405Y-75118613D01*
X89850962Y-74984038D01*
X89716387Y-74873595D01*
X89562851Y-74791528D01*
X89396255Y-74740992D01*
X89223001Y-74723928D01*
X88322999Y-74723928D01*
X88149745Y-74740992D01*
X87983149Y-74791528D01*
X87829613Y-74873595D01*
X87695038Y-74984038D01*
X87584595Y-75118613D01*
X87553386Y-75177000D01*
X85943072Y-75177000D01*
X85943072Y-75096000D01*
X85930812Y-74971518D01*
X85894502Y-74851820D01*
X85835537Y-74741506D01*
X85756185Y-74644815D01*
X85659494Y-74565463D01*
X85549180Y-74506498D01*
X85429482Y-74470188D01*
X85305000Y-74457928D01*
X83605000Y-74457928D01*
X83480518Y-74470188D01*
X83360820Y-74506498D01*
X83250506Y-74565463D01*
X83153815Y-74644815D01*
X83074463Y-74741506D01*
X83015498Y-74851820D01*
X82979188Y-74971518D01*
X82966928Y-75096000D01*
X82966928Y-75555827D01*
X82252700Y-74841599D01*
X82252700Y-70197572D01*
X83154928Y-70197572D01*
X83154928Y-71534500D01*
G36*
X88106428Y-55229000D02*
G01*
X88118688Y-55353482D01*
X88154998Y-55473180D01*
X88213963Y-55583494D01*
X88293315Y-55680185D01*
X88390006Y-55759537D01*
X88500320Y-55818502D01*
X88620018Y-55854812D01*
X88744500Y-55867072D01*
X89944500Y-55867072D01*
X90068982Y-55854812D01*
X90188680Y-55818502D01*
X90275431Y-55772132D01*
X90568701Y-56065403D01*
X90592499Y-56094401D01*
X90621497Y-56118199D01*
X90708223Y-56189374D01*
X90837688Y-56258575D01*
X90840253Y-56259946D01*
X90983514Y-56303403D01*
X91095167Y-56314400D01*
X91095176Y-56314400D01*
X91132499Y-56318076D01*
X91169822Y-56314400D01*
X92759522Y-56314400D01*
X92623853Y-56355554D01*
X92491823Y-56426126D01*
X92408183Y-56494768D01*
X92376099Y-56521099D01*
X92352301Y-56550097D01*
X89593132Y-59309267D01*
X89588008Y-59257245D01*
X89537472Y-59090649D01*
X89455405Y-58937113D01*
X89344962Y-58802538D01*
X89210387Y-58692095D01*
X89056851Y-58610028D01*
X88890255Y-58559492D01*
X88717001Y-58542428D01*
X88066999Y-58542428D01*
X87893745Y-58559492D01*
X87727149Y-58610028D01*
X87573613Y-58692095D01*
X87439038Y-58802538D01*
X87433658Y-58809094D01*
X87368185Y-58729315D01*
X87271494Y-58649963D01*
X87161180Y-58590998D01*
X87041482Y-58554688D01*
X86917000Y-58542428D01*
X86627750Y-58545500D01*
X86469000Y-58704250D01*
X86469000Y-59753500D01*
X86489000Y-59753500D01*
X86489000Y-60007500D01*
X86469000Y-60007500D01*
X86469000Y-60027500D01*
X86215000Y-60027500D01*
X86215000Y-60007500D01*
X85290750Y-60007500D01*
X85132000Y-60166250D01*
X85128928Y-60580500D01*
X85141188Y-60704982D01*
X85169726Y-60799060D01*
X85143000Y-60796428D01*
X84593000Y-60796428D01*
X84468518Y-60808688D01*
X84468000Y-60808845D01*
X84467482Y-60808688D01*
X84343000Y-60796428D01*
X83793000Y-60796428D01*
X83668518Y-60808688D01*
X83548820Y-60844998D01*
X83438506Y-60903963D01*
X83341815Y-60983315D01*
X83262463Y-61080006D01*
X83211695Y-61174984D01*
X83153974Y-61117263D01*
X82984456Y-61003995D01*
X82796098Y-60925974D01*
X82596139Y-60886200D01*
X82392261Y-60886200D01*
X82192302Y-60925974D01*
X82003944Y-61003995D01*
X81834426Y-61117263D01*
X81690263Y-61261426D01*
X81576995Y-61430944D01*
X81498974Y-61619302D01*
X81459200Y-61819261D01*
X81459200Y-61881398D01*
X80981698Y-62358901D01*
X80952700Y-62382699D01*
X80928902Y-62411697D01*
X80928901Y-62411698D01*
X80857726Y-62498424D01*
X80787154Y-62630454D01*
X80778563Y-62658776D01*
X80743697Y-62773714D01*
X80732700Y-62885367D01*
X80732700Y-62885378D01*
X80729024Y-62922700D01*
X80732700Y-62960022D01*
X80732700Y-63647167D01*
X80729023Y-63684500D01*
X80743697Y-63833486D01*
X80787154Y-63976747D01*
X80835397Y-64067001D01*
X78130000Y-66772399D01*
X78130000Y-59180500D01*
X85128928Y-59180500D01*
X85132000Y-59594750D01*
X85290750Y-59753500D01*
X86215000Y-59753500D01*
X86215000Y-58704250D01*
X86056250Y-58545500D01*
X85767000Y-58542428D01*
X85642518Y-58554688D01*
X85522820Y-58590998D01*
X85412506Y-58649963D01*
X85315815Y-58729315D01*
X85236463Y-58826006D01*
X85177498Y-58936320D01*
X85141188Y-59056018D01*
X85128928Y-59180500D01*
X78130000Y-59180500D01*
X78130000Y-57083380D01*
X81553381Y-53660000D01*
X88106428Y-53660000D01*
X88106428Y-55229000D01*
X88106428Y-55229000D01*
G37*
X88106428Y-55229000D02*
X88118688Y-55353482D01*
X88154998Y-55473180D01*
X88213963Y-55583494D01*
X88293315Y-55680185D01*
X88390006Y-55759537D01*
X88500320Y-55818502D01*
X88620018Y-55854812D01*
X88744500Y-55867072D01*
X89944500Y-55867072D01*
X90068982Y-55854812D01*
X90188680Y-55818502D01*
X90275431Y-55772132D01*
X90568701Y-56065403D01*
X90592499Y-56094401D01*
X90621497Y-56118199D01*
X90708223Y-56189374D01*
X90837688Y-56258575D01*
X90840253Y-56259946D01*
X90983514Y-56303403D01*
X91095167Y-56314400D01*
X91095176Y-56314400D01*
X91132499Y-56318076D01*
X91169822Y-56314400D01*
X92759522Y-56314400D01*
X92623853Y-56355554D01*
X92491823Y-56426126D01*
X92408183Y-56494768D01*
X92376099Y-56521099D01*
X92352301Y-56550097D01*
X89593132Y-59309267D01*
X89588008Y-59257245D01*
X89537472Y-59090649D01*
X89455405Y-58937113D01*
X89344962Y-58802538D01*
X89210387Y-58692095D01*
X89056851Y-58610028D01*
X88890255Y-58559492D01*
X88717001Y-58542428D01*
X88066999Y-58542428D01*
X87893745Y-58559492D01*
X87727149Y-58610028D01*
X87573613Y-58692095D01*
X87439038Y-58802538D01*
X87433658Y-58809094D01*
X87368185Y-58729315D01*
X87271494Y-58649963D01*
X87161180Y-58590998D01*
X87041482Y-58554688D01*
X86917000Y-58542428D01*
X86627750Y-58545500D01*
X86469000Y-58704250D01*
X86469000Y-59753500D01*
X86489000Y-59753500D01*
X86489000Y-60007500D01*
X86469000Y-60007500D01*
X86469000Y-60027500D01*
X86215000Y-60027500D01*
X86215000Y-60007500D01*
X85290750Y-60007500D01*
X85132000Y-60166250D01*
X85128928Y-60580500D01*
X85141188Y-60704982D01*
X85169726Y-60799060D01*
X85143000Y-60796428D01*
X84593000Y-60796428D01*
X84468518Y-60808688D01*
X84468000Y-60808845D01*
X84467482Y-60808688D01*
X84343000Y-60796428D01*
X83793000Y-60796428D01*
X83668518Y-60808688D01*
X83548820Y-60844998D01*
X83438506Y-60903963D01*
X83341815Y-60983315D01*
X83262463Y-61080006D01*
X83211695Y-61174984D01*
X83153974Y-61117263D01*
X82984456Y-61003995D01*
X82796098Y-60925974D01*
X82596139Y-60886200D01*
X82392261Y-60886200D01*
X82192302Y-60925974D01*
X82003944Y-61003995D01*
X81834426Y-61117263D01*
X81690263Y-61261426D01*
X81576995Y-61430944D01*
X81498974Y-61619302D01*
X81459200Y-61819261D01*
X81459200Y-61881398D01*
X80981698Y-62358901D01*
X80952700Y-62382699D01*
X80928902Y-62411697D01*
X80928901Y-62411698D01*
X80857726Y-62498424D01*
X80787154Y-62630454D01*
X80778563Y-62658776D01*
X80743697Y-62773714D01*
X80732700Y-62885367D01*
X80732700Y-62885378D01*
X80729024Y-62922700D01*
X80732700Y-62960022D01*
X80732700Y-63647167D01*
X80729023Y-63684500D01*
X80743697Y-63833486D01*
X80787154Y-63976747D01*
X80835397Y-64067001D01*
X78130000Y-66772399D01*
X78130000Y-59180500D01*
X85128928Y-59180500D01*
X85132000Y-59594750D01*
X85290750Y-59753500D01*
X86215000Y-59753500D01*
X86215000Y-58704250D01*
X86056250Y-58545500D01*
X85767000Y-58542428D01*
X85642518Y-58554688D01*
X85522820Y-58590998D01*
X85412506Y-58649963D01*
X85315815Y-58729315D01*
X85236463Y-58826006D01*
X85177498Y-58936320D01*
X85141188Y-59056018D01*
X85128928Y-59180500D01*
X78130000Y-59180500D01*
X78130000Y-57083380D01*
X81553381Y-53660000D01*
X88106428Y-53660000D01*
X88106428Y-55229000D01*
G36*
X100021928Y-57225500D02*
G01*
X100038992Y-57398754D01*
X100089528Y-57565350D01*
X100171595Y-57718886D01*
X100282038Y-57853462D01*
X100358813Y-57916469D01*
X100305506Y-57944963D01*
X100208815Y-58024315D01*
X100129463Y-58121006D01*
X100070498Y-58231320D01*
X100034188Y-58351018D01*
X100021928Y-58475500D01*
X100025000Y-59489750D01*
X100183750Y-59648500D01*
X101333000Y-59648500D01*
X101333000Y-59628500D01*
X101587000Y-59628500D01*
X101587000Y-59648500D01*
X102736250Y-59648500D01*
X102895000Y-59489750D01*
X102898072Y-58475500D01*
X102885812Y-58351018D01*
X102849502Y-58231320D01*
X102790537Y-58121006D01*
X102711185Y-58024315D01*
X102614494Y-57944963D01*
X102561187Y-57916469D01*
X102637962Y-57853462D01*
X102748405Y-57718886D01*
X102830472Y-57565350D01*
X102881008Y-57398754D01*
X102898072Y-57225500D01*
X102898072Y-56935500D01*
X104392787Y-56935500D01*
X104468424Y-56997574D01*
X104581963Y-57058263D01*
X104592188Y-57162082D01*
X104628498Y-57281780D01*
X104687463Y-57392094D01*
X104766815Y-57488785D01*
X104860559Y-57565719D01*
X104763527Y-57698971D01*
X104655762Y-57932072D01*
X104625090Y-58033200D01*
X104748776Y-58235600D01*
X105766000Y-58235600D01*
X105766000Y-58215600D01*
X106020000Y-58215600D01*
X106020000Y-58235600D01*
X106040000Y-58235600D01*
X106040000Y-58489600D01*
X106020000Y-58489600D01*
X106020000Y-58509600D01*
X105766000Y-58509600D01*
X105766000Y-58489600D01*
X104748776Y-58489600D01*
X104625090Y-58692000D01*
X104655762Y-58793128D01*
X104763527Y-59026229D01*
X104914697Y-59233827D01*
X105050648Y-59359228D01*
X104962208Y-59431808D01*
X104798505Y-59631282D01*
X104676862Y-59858859D01*
X104601955Y-60105795D01*
X104576662Y-60362600D01*
X104601955Y-60619405D01*
X104676862Y-60866341D01*
X104798505Y-61093918D01*
X104962208Y-61293392D01*
X105046539Y-61362600D01*
X104962208Y-61431808D01*
X104798505Y-61631282D01*
X104676862Y-61858859D01*
X104601955Y-62105795D01*
X104576662Y-62362600D01*
X104601955Y-62619405D01*
X104676862Y-62866341D01*
X104798505Y-63093918D01*
X104962208Y-63293392D01*
X105046539Y-63362600D01*
X104962208Y-63431808D01*
X104819113Y-63606171D01*
X104743714Y-63613597D01*
X104600453Y-63657054D01*
X104468424Y-63727626D01*
X104352699Y-63822599D01*
X104328901Y-63851597D01*
X102894699Y-65285800D01*
X97309104Y-65285800D01*
X97327099Y-65252134D01*
X97412013Y-64972211D01*
X97440685Y-64681100D01*
X97412013Y-64389989D01*
X97327099Y-64110066D01*
X97189206Y-63852086D01*
X97003634Y-63625966D01*
X96777514Y-63440394D01*
X96722709Y-63411100D01*
X96777514Y-63381806D01*
X97003634Y-63196234D01*
X97189206Y-62970114D01*
X97327099Y-62712134D01*
X97412013Y-62432211D01*
X97440685Y-62141100D01*
X97412013Y-61849989D01*
X97327099Y-61570066D01*
X97189206Y-61312086D01*
X97003634Y-61085966D01*
X96990882Y-61075500D01*
X100021928Y-61075500D01*
X100034188Y-61199982D01*
X100070498Y-61319680D01*
X100129463Y-61429994D01*
X100208815Y-61526685D01*
X100305506Y-61606037D01*
X100415820Y-61665002D01*
X100535518Y-61701312D01*
X100660000Y-61713572D01*
X101174250Y-61710500D01*
X101333000Y-61551750D01*
X101333000Y-59902500D01*
X101587000Y-59902500D01*
X101587000Y-61551750D01*
X101745750Y-61710500D01*
X102260000Y-61713572D01*
X102384482Y-61701312D01*
X102504180Y-61665002D01*
X102614494Y-61606037D01*
X102711185Y-61526685D01*
X102790537Y-61429994D01*
X102849502Y-61319680D01*
X102885812Y-61199982D01*
X102898072Y-61075500D01*
X102895000Y-60061250D01*
X102736250Y-59902500D01*
X101587000Y-59902500D01*
X101333000Y-59902500D01*
X100183750Y-59902500D01*
X100025000Y-60061250D01*
X100021928Y-61075500D01*
X96990882Y-61075500D01*
X96777514Y-60900394D01*
X96712977Y-60865899D01*
X96829855Y-60796278D01*
X97046088Y-60601369D01*
X97220141Y-60368020D01*
X97345325Y-60105199D01*
X97389976Y-59957990D01*
X97268655Y-59728100D01*
X96075500Y-59728100D01*
X96075500Y-59748100D01*
X95821500Y-59748100D01*
X95821500Y-59728100D01*
X94628345Y-59728100D01*
X94507024Y-59957990D01*
X94551675Y-60105199D01*
X94676859Y-60368020D01*
X94850912Y-60601369D01*
X95067145Y-60796278D01*
X95184023Y-60865899D01*
X95119486Y-60900394D01*
X94893366Y-61085966D01*
X94707794Y-61312086D01*
X94569901Y-61570066D01*
X94484987Y-61849989D01*
X94456315Y-62141100D01*
X94484987Y-62432211D01*
X94569901Y-62712134D01*
X94707794Y-62970114D01*
X94893366Y-63196234D01*
X95119486Y-63381806D01*
X95174291Y-63411100D01*
X95119486Y-63440394D01*
X94893366Y-63625966D01*
X94848066Y-63681164D01*
X92890404Y-61723503D01*
X92866601Y-61694499D01*
X92750876Y-61599526D01*
X92618847Y-61528954D01*
X92475586Y-61485497D01*
X92363933Y-61474500D01*
X92363922Y-61474500D01*
X92326600Y-61470824D01*
X92289278Y-61474500D01*
X90581072Y-61474500D01*
X90581072Y-61434500D01*
X90568812Y-61310018D01*
X90532502Y-61190320D01*
X90473537Y-61080006D01*
X90394185Y-60983315D01*
X90297494Y-60903963D01*
X90200098Y-60851903D01*
X93230902Y-57821100D01*
X94460428Y-57821100D01*
X94460428Y-57911100D01*
X94472688Y-58035582D01*
X94508998Y-58155280D01*
X94567963Y-58265594D01*
X94647315Y-58362285D01*
X94744006Y-58441637D01*
X94854320Y-58500602D01*
X94934966Y-58525066D01*
X94850912Y-58600831D01*
X94676859Y-58834180D01*
X94551675Y-59097001D01*
X94507024Y-59244210D01*
X94628345Y-59474100D01*
X95821500Y-59474100D01*
X95821500Y-59454100D01*
X96075500Y-59454100D01*
X96075500Y-59474100D01*
X97268655Y-59474100D01*
X97389976Y-59244210D01*
X97345325Y-59097001D01*
X97220141Y-58834180D01*
X97046088Y-58600831D01*
X96962034Y-58525066D01*
X97042680Y-58500602D01*
X97152994Y-58441637D01*
X97249685Y-58362285D01*
X97329037Y-58265594D01*
X97388002Y-58155280D01*
X97424312Y-58035582D01*
X97436572Y-57911100D01*
X97436572Y-57755675D01*
X97548076Y-57696074D01*
X97663801Y-57601101D01*
X97687603Y-57572098D01*
X98324202Y-56935500D01*
X100021928Y-56935500D01*
X100021928Y-57225500D01*
X100021928Y-57225500D01*
G37*
X100021928Y-57225500D02*
X100038992Y-57398754D01*
X100089528Y-57565350D01*
X100171595Y-57718886D01*
X100282038Y-57853462D01*
X100358813Y-57916469D01*
X100305506Y-57944963D01*
X100208815Y-58024315D01*
X100129463Y-58121006D01*
X100070498Y-58231320D01*
X100034188Y-58351018D01*
X100021928Y-58475500D01*
X100025000Y-59489750D01*
X100183750Y-59648500D01*
X101333000Y-59648500D01*
X101333000Y-59628500D01*
X101587000Y-59628500D01*
X101587000Y-59648500D01*
X102736250Y-59648500D01*
X102895000Y-59489750D01*
X102898072Y-58475500D01*
X102885812Y-58351018D01*
X102849502Y-58231320D01*
X102790537Y-58121006D01*
X102711185Y-58024315D01*
X102614494Y-57944963D01*
X102561187Y-57916469D01*
X102637962Y-57853462D01*
X102748405Y-57718886D01*
X102830472Y-57565350D01*
X102881008Y-57398754D01*
X102898072Y-57225500D01*
X102898072Y-56935500D01*
X104392787Y-56935500D01*
X104468424Y-56997574D01*
X104581963Y-57058263D01*
X104592188Y-57162082D01*
X104628498Y-57281780D01*
X104687463Y-57392094D01*
X104766815Y-57488785D01*
X104860559Y-57565719D01*
X104763527Y-57698971D01*
X104655762Y-57932072D01*
X104625090Y-58033200D01*
X104748776Y-58235600D01*
X105766000Y-58235600D01*
X105766000Y-58215600D01*
X106020000Y-58215600D01*
X106020000Y-58235600D01*
X106040000Y-58235600D01*
X106040000Y-58489600D01*
X106020000Y-58489600D01*
X106020000Y-58509600D01*
X105766000Y-58509600D01*
X105766000Y-58489600D01*
X104748776Y-58489600D01*
X104625090Y-58692000D01*
X104655762Y-58793128D01*
X104763527Y-59026229D01*
X104914697Y-59233827D01*
X105050648Y-59359228D01*
X104962208Y-59431808D01*
X104798505Y-59631282D01*
X104676862Y-59858859D01*
X104601955Y-60105795D01*
X104576662Y-60362600D01*
X104601955Y-60619405D01*
X104676862Y-60866341D01*
X104798505Y-61093918D01*
X104962208Y-61293392D01*
X105046539Y-61362600D01*
X104962208Y-61431808D01*
X104798505Y-61631282D01*
X104676862Y-61858859D01*
X104601955Y-62105795D01*
X104576662Y-62362600D01*
X104601955Y-62619405D01*
X104676862Y-62866341D01*
X104798505Y-63093918D01*
X104962208Y-63293392D01*
X105046539Y-63362600D01*
X104962208Y-63431808D01*
X104819113Y-63606171D01*
X104743714Y-63613597D01*
X104600453Y-63657054D01*
X104468424Y-63727626D01*
X104352699Y-63822599D01*
X104328901Y-63851597D01*
X102894699Y-65285800D01*
X97309104Y-65285800D01*
X97327099Y-65252134D01*
X97412013Y-64972211D01*
X97440685Y-64681100D01*
X97412013Y-64389989D01*
X97327099Y-64110066D01*
X97189206Y-63852086D01*
X97003634Y-63625966D01*
X96777514Y-63440394D01*
X96722709Y-63411100D01*
X96777514Y-63381806D01*
X97003634Y-63196234D01*
X97189206Y-62970114D01*
X97327099Y-62712134D01*
X97412013Y-62432211D01*
X97440685Y-62141100D01*
X97412013Y-61849989D01*
X97327099Y-61570066D01*
X97189206Y-61312086D01*
X97003634Y-61085966D01*
X96990882Y-61075500D01*
X100021928Y-61075500D01*
X100034188Y-61199982D01*
X100070498Y-61319680D01*
X100129463Y-61429994D01*
X100208815Y-61526685D01*
X100305506Y-61606037D01*
X100415820Y-61665002D01*
X100535518Y-61701312D01*
X100660000Y-61713572D01*
X101174250Y-61710500D01*
X101333000Y-61551750D01*
X101333000Y-59902500D01*
X101587000Y-59902500D01*
X101587000Y-61551750D01*
X101745750Y-61710500D01*
X102260000Y-61713572D01*
X102384482Y-61701312D01*
X102504180Y-61665002D01*
X102614494Y-61606037D01*
X102711185Y-61526685D01*
X102790537Y-61429994D01*
X102849502Y-61319680D01*
X102885812Y-61199982D01*
X102898072Y-61075500D01*
X102895000Y-60061250D01*
X102736250Y-59902500D01*
X101587000Y-59902500D01*
X101333000Y-59902500D01*
X100183750Y-59902500D01*
X100025000Y-60061250D01*
X100021928Y-61075500D01*
X96990882Y-61075500D01*
X96777514Y-60900394D01*
X96712977Y-60865899D01*
X96829855Y-60796278D01*
X97046088Y-60601369D01*
X97220141Y-60368020D01*
X97345325Y-60105199D01*
X97389976Y-59957990D01*
X97268655Y-59728100D01*
X96075500Y-59728100D01*
X96075500Y-59748100D01*
X95821500Y-59748100D01*
X95821500Y-59728100D01*
X94628345Y-59728100D01*
X94507024Y-59957990D01*
X94551675Y-60105199D01*
X94676859Y-60368020D01*
X94850912Y-60601369D01*
X95067145Y-60796278D01*
X95184023Y-60865899D01*
X95119486Y-60900394D01*
X94893366Y-61085966D01*
X94707794Y-61312086D01*
X94569901Y-61570066D01*
X94484987Y-61849989D01*
X94456315Y-62141100D01*
X94484987Y-62432211D01*
X94569901Y-62712134D01*
X94707794Y-62970114D01*
X94893366Y-63196234D01*
X95119486Y-63381806D01*
X95174291Y-63411100D01*
X95119486Y-63440394D01*
X94893366Y-63625966D01*
X94848066Y-63681164D01*
X92890404Y-61723503D01*
X92866601Y-61694499D01*
X92750876Y-61599526D01*
X92618847Y-61528954D01*
X92475586Y-61485497D01*
X92363933Y-61474500D01*
X92363922Y-61474500D01*
X92326600Y-61470824D01*
X92289278Y-61474500D01*
X90581072Y-61474500D01*
X90581072Y-61434500D01*
X90568812Y-61310018D01*
X90532502Y-61190320D01*
X90473537Y-61080006D01*
X90394185Y-60983315D01*
X90297494Y-60903963D01*
X90200098Y-60851903D01*
X93230902Y-57821100D01*
X94460428Y-57821100D01*
X94460428Y-57911100D01*
X94472688Y-58035582D01*
X94508998Y-58155280D01*
X94567963Y-58265594D01*
X94647315Y-58362285D01*
X94744006Y-58441637D01*
X94854320Y-58500602D01*
X94934966Y-58525066D01*
X94850912Y-58600831D01*
X94676859Y-58834180D01*
X94551675Y-59097001D01*
X94507024Y-59244210D01*
X94628345Y-59474100D01*
X95821500Y-59474100D01*
X95821500Y-59454100D01*
X96075500Y-59454100D01*
X96075500Y-59474100D01*
X97268655Y-59474100D01*
X97389976Y-59244210D01*
X97345325Y-59097001D01*
X97220141Y-58834180D01*
X97046088Y-58600831D01*
X96962034Y-58525066D01*
X97042680Y-58500602D01*
X97152994Y-58441637D01*
X97249685Y-58362285D01*
X97329037Y-58265594D01*
X97388002Y-58155280D01*
X97424312Y-58035582D01*
X97436572Y-57911100D01*
X97436572Y-57755675D01*
X97548076Y-57696074D01*
X97663801Y-57601101D01*
X97687603Y-57572098D01*
X98324202Y-56935500D01*
X100021928Y-56935500D01*
X100021928Y-57225500D01*
G36*
X108620000Y-53943250D02*
G01*
X108778750Y-54102000D01*
X109728000Y-54102000D01*
X109728000Y-54082000D01*
X109982000Y-54082000D01*
X109982000Y-54102000D01*
X110002000Y-54102000D01*
X110002000Y-54356000D01*
X109982000Y-54356000D01*
X109982000Y-54376000D01*
X109728000Y-54376000D01*
X109728000Y-54356000D01*
X108778750Y-54356000D01*
X108620000Y-54514750D01*
X108618797Y-54794400D01*
X108398902Y-54794400D01*
X107264501Y-53660000D01*
X108618782Y-53660000D01*
X108620000Y-53943250D01*
X108620000Y-53943250D01*
G37*
X108620000Y-53943250D02*
X108778750Y-54102000D01*
X109728000Y-54102000D01*
X109728000Y-54082000D01*
X109982000Y-54082000D01*
X109982000Y-54102000D01*
X110002000Y-54102000D01*
X110002000Y-54356000D01*
X109982000Y-54356000D01*
X109982000Y-54376000D01*
X109728000Y-54376000D01*
X109728000Y-54356000D01*
X108778750Y-54356000D01*
X108620000Y-54514750D01*
X108618797Y-54794400D01*
X108398902Y-54794400D01*
X107264501Y-53660000D01*
X108618782Y-53660000D01*
X108620000Y-53943250D01*
M02*
