G04 #@! TF.GenerationSoftware,KiCad,Pcbnew,(5.1.4-0-10_14)*
G04 #@! TF.CreationDate,2019-09-18T16:42:36+02:00*
G04 #@! TF.ProjectId,hb-rc-2-pbu-led,68622d72-632d-4322-9d70-62752d6c6564,rev?*
G04 #@! TF.SameCoordinates,Original*
G04 #@! TF.FileFunction,Copper,L2,Bot*
G04 #@! TF.FilePolarity,Positive*
%FSLAX46Y46*%
G04 Gerber Fmt 4.6, Leading zero omitted, Abs format (unit mm)*
G04 Created by KiCad (PCBNEW (5.1.4-0-10_14)) date 2019-09-18 16:42:36*
%MOMM*%
%LPD*%
G04 APERTURE LIST*
%ADD10O,1.800000X1.800000*%
%ADD11R,1.800000X1.800000*%
%ADD12O,1.700000X1.700000*%
%ADD13R,1.700000X1.700000*%
%ADD14O,1.350000X1.350000*%
%ADD15R,1.350000X1.350000*%
%ADD16C,1.800000*%
%ADD17C,0.800000*%
%ADD18C,0.250000*%
%ADD19C,0.254000*%
G04 APERTURE END LIST*
D10*
X125984000Y-73025000D03*
D11*
X125984000Y-78105000D03*
D10*
X78486000Y-78105000D03*
D11*
X78486000Y-73025000D03*
D12*
X95948500Y-69761100D03*
X95948500Y-67221100D03*
X95948500Y-64681100D03*
X95948500Y-62141100D03*
X95948500Y-59601100D03*
D13*
X95948500Y-57061100D03*
D12*
X84455000Y-88646000D03*
X84455000Y-86106000D03*
X84455000Y-83566000D03*
X84455000Y-81026000D03*
X84455000Y-78486000D03*
D13*
X84455000Y-75946000D03*
D14*
X105893000Y-70362600D03*
X105893000Y-68362600D03*
X105893000Y-66362600D03*
X105893000Y-64362600D03*
X105893000Y-62362600D03*
X105893000Y-60362600D03*
X105893000Y-58362600D03*
D15*
X105893000Y-56362600D03*
D16*
X102235000Y-72948800D03*
X102235000Y-75488800D03*
D11*
X102235000Y-78028800D03*
D17*
X87268000Y-72815500D03*
X85668000Y-72510500D03*
X108204000Y-54038500D03*
X123317000Y-58166000D03*
X116395500Y-66040000D03*
X92145800Y-71023900D03*
X88252200Y-68634400D03*
X92938400Y-64578700D03*
X94040000Y-70067000D03*
X93279800Y-96161600D03*
X93461500Y-86074400D03*
X94939700Y-77383100D03*
X85969500Y-67078900D03*
X94942300Y-72361600D03*
X86078300Y-65439300D03*
X82494200Y-61921200D03*
D18*
X95948500Y-69761100D02*
X94773200Y-69761100D01*
X92145800Y-71023900D02*
X92145800Y-70925500D01*
X92145800Y-70925500D02*
X93763300Y-69308000D01*
X93763300Y-69308000D02*
X94320100Y-69308000D01*
X94320100Y-69308000D02*
X94773200Y-69761100D01*
X104892700Y-68362600D02*
X104669500Y-68585800D01*
X104669500Y-68585800D02*
X88300800Y-68585800D01*
X88300800Y-68585800D02*
X88252200Y-68634400D01*
X105893000Y-68362600D02*
X104892700Y-68362600D01*
X95948500Y-64681100D02*
X97123800Y-64681100D01*
X105893000Y-62362600D02*
X99442300Y-62362600D01*
X99442300Y-62362600D02*
X97123800Y-64681100D01*
X95948500Y-62141100D02*
X97123800Y-62141100D01*
X105893000Y-60362600D02*
X98902300Y-60362600D01*
X98902300Y-60362600D02*
X97123800Y-62141100D01*
X95948500Y-62141100D02*
X94773200Y-62141100D01*
X94773200Y-62141100D02*
X94773200Y-62743900D01*
X94773200Y-62743900D02*
X92938400Y-64578700D01*
X94040000Y-70067000D02*
X95695800Y-71722800D01*
X95695800Y-71722800D02*
X95695800Y-83840100D01*
X95695800Y-83840100D02*
X93461500Y-86074400D01*
X93461500Y-86074400D02*
X93279800Y-86256100D01*
X93279800Y-86256100D02*
X93279800Y-96161600D01*
X94939700Y-77383100D02*
X85969500Y-68412900D01*
X85969500Y-68412900D02*
X85969500Y-67078900D01*
X86078300Y-65439300D02*
X87353600Y-66714600D01*
X87353600Y-66714600D02*
X87353600Y-68761700D01*
X87353600Y-68761700D02*
X90953500Y-72361600D01*
X90953500Y-72361600D02*
X94942300Y-72361600D01*
X125984000Y-73025000D02*
X124758700Y-73025000D01*
X82494200Y-61921200D02*
X89053200Y-55362200D01*
X89053200Y-55362200D02*
X107095900Y-55362200D01*
X107095900Y-55362200D02*
X124758700Y-73025000D01*
D19*
G36*
X126340000Y-57083381D02*
G01*
X126340000Y-71528921D01*
X126284913Y-71512210D01*
X126059408Y-71490000D01*
X125908592Y-71490000D01*
X125683087Y-71512210D01*
X125393739Y-71599983D01*
X125127073Y-71742519D01*
X124893339Y-71934339D01*
X124825501Y-72016999D01*
X116733596Y-63925094D01*
X121238508Y-63925094D01*
X121238508Y-64333386D01*
X121318162Y-64733834D01*
X121474409Y-65111047D01*
X121701244Y-65450530D01*
X121989950Y-65739236D01*
X122329433Y-65966071D01*
X122706646Y-66122318D01*
X123107094Y-66201972D01*
X123515386Y-66201972D01*
X123915834Y-66122318D01*
X124293047Y-65966071D01*
X124632530Y-65739236D01*
X124921236Y-65450530D01*
X125148071Y-65111047D01*
X125304318Y-64733834D01*
X125383972Y-64333386D01*
X125383972Y-63925094D01*
X125304318Y-63524646D01*
X125148071Y-63147433D01*
X124921236Y-62807950D01*
X124632530Y-62519244D01*
X124293047Y-62292409D01*
X123915834Y-62136162D01*
X123515386Y-62056508D01*
X123107094Y-62056508D01*
X122706646Y-62136162D01*
X122329433Y-62292409D01*
X121989950Y-62519244D01*
X121701244Y-62807950D01*
X121474409Y-63147433D01*
X121318162Y-63524646D01*
X121238508Y-63925094D01*
X116733596Y-63925094D01*
X107659704Y-54851203D01*
X107635901Y-54822199D01*
X107520176Y-54727226D01*
X107388147Y-54656654D01*
X107244886Y-54613197D01*
X107133233Y-54602200D01*
X107133222Y-54602200D01*
X107095900Y-54598524D01*
X107058578Y-54602200D01*
X89090525Y-54602200D01*
X89053200Y-54598524D01*
X89015875Y-54602200D01*
X89015867Y-54602200D01*
X88904214Y-54613197D01*
X88760953Y-54656654D01*
X88628924Y-54727226D01*
X88513199Y-54822199D01*
X88489401Y-54851197D01*
X82454399Y-60886200D01*
X82392261Y-60886200D01*
X82192302Y-60925974D01*
X82003944Y-61003995D01*
X81834426Y-61117263D01*
X81690263Y-61261426D01*
X81576995Y-61430944D01*
X81498974Y-61619302D01*
X81459200Y-61819261D01*
X81459200Y-62023139D01*
X81498974Y-62223098D01*
X81576995Y-62411456D01*
X81690263Y-62580974D01*
X81834426Y-62725137D01*
X82003944Y-62838405D01*
X82192302Y-62916426D01*
X82392261Y-62956200D01*
X82596139Y-62956200D01*
X82796098Y-62916426D01*
X82984456Y-62838405D01*
X83153974Y-62725137D01*
X83298137Y-62580974D01*
X83411405Y-62411456D01*
X83489426Y-62223098D01*
X83529200Y-62023139D01*
X83529200Y-61961001D01*
X89368002Y-56122200D01*
X94469184Y-56122200D01*
X94460428Y-56211100D01*
X94460428Y-57911100D01*
X94472688Y-58035582D01*
X94508998Y-58155280D01*
X94567963Y-58265594D01*
X94647315Y-58362285D01*
X94744006Y-58441637D01*
X94854320Y-58500602D01*
X94934966Y-58525066D01*
X94850912Y-58600831D01*
X94676859Y-58834180D01*
X94551675Y-59097001D01*
X94507024Y-59244210D01*
X94628345Y-59474100D01*
X95821500Y-59474100D01*
X95821500Y-59454100D01*
X96075500Y-59454100D01*
X96075500Y-59474100D01*
X97268655Y-59474100D01*
X97389976Y-59244210D01*
X97345325Y-59097001D01*
X97220141Y-58834180D01*
X97046088Y-58600831D01*
X96962034Y-58525066D01*
X97042680Y-58500602D01*
X97152994Y-58441637D01*
X97249685Y-58362285D01*
X97329037Y-58265594D01*
X97388002Y-58155280D01*
X97424312Y-58035582D01*
X97436572Y-57911100D01*
X97436572Y-56211100D01*
X97427816Y-56122200D01*
X104579928Y-56122200D01*
X104579928Y-57037600D01*
X104592188Y-57162082D01*
X104628498Y-57281780D01*
X104687463Y-57392094D01*
X104766815Y-57488785D01*
X104860559Y-57565719D01*
X104763527Y-57698971D01*
X104655762Y-57932072D01*
X104625090Y-58033200D01*
X104748776Y-58235600D01*
X105766000Y-58235600D01*
X105766000Y-58215600D01*
X106020000Y-58215600D01*
X106020000Y-58235600D01*
X107037224Y-58235600D01*
X107160910Y-58033200D01*
X107130238Y-57932072D01*
X107022473Y-57698971D01*
X106925441Y-57565719D01*
X107019185Y-57488785D01*
X107098537Y-57392094D01*
X107157502Y-57281780D01*
X107193812Y-57162082D01*
X107206072Y-57037600D01*
X107206072Y-56547173D01*
X124194901Y-73536003D01*
X124218699Y-73565001D01*
X124334424Y-73659974D01*
X124466453Y-73730546D01*
X124609714Y-73774003D01*
X124645728Y-73777550D01*
X124701519Y-73881927D01*
X124893339Y-74115661D01*
X125127073Y-74307481D01*
X125393739Y-74450017D01*
X125683087Y-74537790D01*
X125908592Y-74560000D01*
X126059408Y-74560000D01*
X126284913Y-74537790D01*
X126340000Y-74521079D01*
X126340001Y-76569649D01*
X126269750Y-76570000D01*
X126111000Y-76728750D01*
X126111000Y-77978000D01*
X126131000Y-77978000D01*
X126131000Y-78232000D01*
X126111000Y-78232000D01*
X126111000Y-79481250D01*
X126269750Y-79640000D01*
X126340001Y-79640351D01*
X126340001Y-93735975D01*
X122907168Y-97340000D01*
X81562833Y-97340000D01*
X78130000Y-93735977D01*
X78130000Y-89002890D01*
X83013524Y-89002890D01*
X83058175Y-89150099D01*
X83183359Y-89412920D01*
X83357412Y-89646269D01*
X83573645Y-89841178D01*
X83823748Y-89990157D01*
X84098109Y-90087481D01*
X84328000Y-89966814D01*
X84328000Y-88773000D01*
X84582000Y-88773000D01*
X84582000Y-89966814D01*
X84811891Y-90087481D01*
X85086252Y-89990157D01*
X85336355Y-89841178D01*
X85552588Y-89646269D01*
X85726641Y-89412920D01*
X85851825Y-89150099D01*
X85896476Y-89002890D01*
X85775155Y-88773000D01*
X84582000Y-88773000D01*
X84328000Y-88773000D01*
X83134845Y-88773000D01*
X83013524Y-89002890D01*
X78130000Y-89002890D01*
X78130000Y-86462890D01*
X83013524Y-86462890D01*
X83058175Y-86610099D01*
X83183359Y-86872920D01*
X83357412Y-87106269D01*
X83573645Y-87301178D01*
X83699255Y-87376000D01*
X83573645Y-87450822D01*
X83357412Y-87645731D01*
X83183359Y-87879080D01*
X83058175Y-88141901D01*
X83013524Y-88289110D01*
X83134845Y-88519000D01*
X84328000Y-88519000D01*
X84328000Y-86233000D01*
X84582000Y-86233000D01*
X84582000Y-88519000D01*
X85775155Y-88519000D01*
X85896476Y-88289110D01*
X85851825Y-88141901D01*
X85726641Y-87879080D01*
X85552588Y-87645731D01*
X85336355Y-87450822D01*
X85210745Y-87376000D01*
X85336355Y-87301178D01*
X85552588Y-87106269D01*
X85726641Y-86872920D01*
X85851825Y-86610099D01*
X85896476Y-86462890D01*
X85775155Y-86233000D01*
X84582000Y-86233000D01*
X84328000Y-86233000D01*
X83134845Y-86233000D01*
X83013524Y-86462890D01*
X78130000Y-86462890D01*
X78130000Y-79591600D01*
X78359000Y-79475378D01*
X78359000Y-78232000D01*
X78613000Y-78232000D01*
X78613000Y-79475378D01*
X78850740Y-79596036D01*
X79011107Y-79547394D01*
X79282414Y-79417236D01*
X79523116Y-79236649D01*
X79723962Y-79012573D01*
X79877234Y-78753620D01*
X79971324Y-78486000D01*
X82962815Y-78486000D01*
X82991487Y-78777111D01*
X83076401Y-79057034D01*
X83214294Y-79315014D01*
X83399866Y-79541134D01*
X83625986Y-79726706D01*
X83680791Y-79756000D01*
X83625986Y-79785294D01*
X83399866Y-79970866D01*
X83214294Y-80196986D01*
X83076401Y-80454966D01*
X82991487Y-80734889D01*
X82962815Y-81026000D01*
X82991487Y-81317111D01*
X83076401Y-81597034D01*
X83214294Y-81855014D01*
X83399866Y-82081134D01*
X83625986Y-82266706D01*
X83680791Y-82296000D01*
X83625986Y-82325294D01*
X83399866Y-82510866D01*
X83214294Y-82736986D01*
X83076401Y-82994966D01*
X82991487Y-83274889D01*
X82962815Y-83566000D01*
X82991487Y-83857111D01*
X83076401Y-84137034D01*
X83214294Y-84395014D01*
X83399866Y-84621134D01*
X83625986Y-84806706D01*
X83690523Y-84841201D01*
X83573645Y-84910822D01*
X83357412Y-85105731D01*
X83183359Y-85339080D01*
X83058175Y-85601901D01*
X83013524Y-85749110D01*
X83134845Y-85979000D01*
X84328000Y-85979000D01*
X84328000Y-85959000D01*
X84582000Y-85959000D01*
X84582000Y-85979000D01*
X85775155Y-85979000D01*
X85896476Y-85749110D01*
X85851825Y-85601901D01*
X85726641Y-85339080D01*
X85552588Y-85105731D01*
X85336355Y-84910822D01*
X85219477Y-84841201D01*
X85284014Y-84806706D01*
X85510134Y-84621134D01*
X85695706Y-84395014D01*
X85833599Y-84137034D01*
X85918513Y-83857111D01*
X85947185Y-83566000D01*
X85918513Y-83274889D01*
X85833599Y-82994966D01*
X85695706Y-82736986D01*
X85510134Y-82510866D01*
X85284014Y-82325294D01*
X85229209Y-82296000D01*
X85284014Y-82266706D01*
X85510134Y-82081134D01*
X85695706Y-81855014D01*
X85833599Y-81597034D01*
X85918513Y-81317111D01*
X85947185Y-81026000D01*
X85918513Y-80734889D01*
X85833599Y-80454966D01*
X85695706Y-80196986D01*
X85510134Y-79970866D01*
X85284014Y-79785294D01*
X85229209Y-79756000D01*
X85284014Y-79726706D01*
X85510134Y-79541134D01*
X85695706Y-79315014D01*
X85833599Y-79057034D01*
X85918513Y-78777111D01*
X85947185Y-78486000D01*
X85918513Y-78194889D01*
X85833599Y-77914966D01*
X85695706Y-77656986D01*
X85510134Y-77430866D01*
X85480313Y-77406393D01*
X85549180Y-77385502D01*
X85659494Y-77326537D01*
X85756185Y-77247185D01*
X85835537Y-77150494D01*
X85894502Y-77040180D01*
X85930812Y-76920482D01*
X85943072Y-76796000D01*
X85943072Y-75096000D01*
X85930812Y-74971518D01*
X85894502Y-74851820D01*
X85835537Y-74741506D01*
X85756185Y-74644815D01*
X85659494Y-74565463D01*
X85549180Y-74506498D01*
X85429482Y-74470188D01*
X85305000Y-74457928D01*
X83605000Y-74457928D01*
X83480518Y-74470188D01*
X83360820Y-74506498D01*
X83250506Y-74565463D01*
X83153815Y-74644815D01*
X83074463Y-74741506D01*
X83015498Y-74851820D01*
X82979188Y-74971518D01*
X82966928Y-75096000D01*
X82966928Y-76796000D01*
X82979188Y-76920482D01*
X83015498Y-77040180D01*
X83074463Y-77150494D01*
X83153815Y-77247185D01*
X83250506Y-77326537D01*
X83360820Y-77385502D01*
X83429687Y-77406393D01*
X83399866Y-77430866D01*
X83214294Y-77656986D01*
X83076401Y-77914966D01*
X82991487Y-78194889D01*
X82962815Y-78486000D01*
X79971324Y-78486000D01*
X79977041Y-78469741D01*
X79856992Y-78232000D01*
X78613000Y-78232000D01*
X78359000Y-78232000D01*
X78339000Y-78232000D01*
X78339000Y-77978000D01*
X78359000Y-77978000D01*
X78359000Y-76734622D01*
X78613000Y-76734622D01*
X78613000Y-77978000D01*
X79856992Y-77978000D01*
X79977041Y-77740259D01*
X79877234Y-77456380D01*
X79723962Y-77197427D01*
X79523116Y-76973351D01*
X79282414Y-76792764D01*
X79011107Y-76662606D01*
X78850740Y-76613964D01*
X78613000Y-76734622D01*
X78359000Y-76734622D01*
X78130000Y-76618400D01*
X78130000Y-74563072D01*
X79386000Y-74563072D01*
X79510482Y-74550812D01*
X79630180Y-74514502D01*
X79740494Y-74455537D01*
X79837185Y-74376185D01*
X79916537Y-74279494D01*
X79975502Y-74169180D01*
X80011812Y-74049482D01*
X80024072Y-73925000D01*
X80024072Y-72125000D01*
X80011812Y-72000518D01*
X79975502Y-71880820D01*
X79916537Y-71770506D01*
X79837185Y-71673815D01*
X79740494Y-71594463D01*
X79630180Y-71535498D01*
X79510482Y-71499188D01*
X79386000Y-71486928D01*
X78130000Y-71486928D01*
X78130000Y-66976961D01*
X84934500Y-66976961D01*
X84934500Y-67180839D01*
X84974274Y-67380798D01*
X85052295Y-67569156D01*
X85165563Y-67738674D01*
X85209500Y-67782611D01*
X85209500Y-68375577D01*
X85205824Y-68412900D01*
X85209500Y-68450222D01*
X85209500Y-68450232D01*
X85220497Y-68561885D01*
X85263954Y-68705146D01*
X85334526Y-68837176D01*
X85364421Y-68873603D01*
X85429499Y-68952901D01*
X85458503Y-68976704D01*
X93904700Y-77422903D01*
X93904700Y-77485039D01*
X93944474Y-77684998D01*
X94022495Y-77873356D01*
X94135763Y-78042874D01*
X94279926Y-78187037D01*
X94449444Y-78300305D01*
X94637802Y-78378326D01*
X94837761Y-78418100D01*
X94935801Y-78418100D01*
X94935801Y-83525297D01*
X93421699Y-85039400D01*
X93359561Y-85039400D01*
X93159602Y-85079174D01*
X92971244Y-85157195D01*
X92801726Y-85270463D01*
X92657563Y-85414626D01*
X92544295Y-85584144D01*
X92466274Y-85772502D01*
X92426500Y-85972461D01*
X92426500Y-86176339D01*
X92466274Y-86376298D01*
X92519800Y-86505520D01*
X92519801Y-95457888D01*
X92475863Y-95501826D01*
X92362595Y-95671344D01*
X92284574Y-95859702D01*
X92244800Y-96059661D01*
X92244800Y-96263539D01*
X92284574Y-96463498D01*
X92362595Y-96651856D01*
X92475863Y-96821374D01*
X92620026Y-96965537D01*
X92789544Y-97078805D01*
X92977902Y-97156826D01*
X93177861Y-97196600D01*
X93381739Y-97196600D01*
X93581698Y-97156826D01*
X93770056Y-97078805D01*
X93939574Y-96965537D01*
X94083737Y-96821374D01*
X94197005Y-96651856D01*
X94275026Y-96463498D01*
X94314800Y-96263539D01*
X94314800Y-96059661D01*
X94275026Y-95859702D01*
X94197005Y-95671344D01*
X94083737Y-95501826D01*
X94039800Y-95457889D01*
X94039800Y-86932776D01*
X94121274Y-86878337D01*
X94265437Y-86734174D01*
X94378705Y-86564656D01*
X94456726Y-86376298D01*
X94496500Y-86176339D01*
X94496500Y-86114201D01*
X96206803Y-84403899D01*
X96235801Y-84380101D01*
X96330774Y-84264376D01*
X96401346Y-84132347D01*
X96444803Y-83989086D01*
X96455800Y-83877433D01*
X96455800Y-83877424D01*
X96459476Y-83840101D01*
X96455800Y-83802778D01*
X96455800Y-75555353D01*
X100694009Y-75555353D01*
X100736603Y-75854707D01*
X100836778Y-76139999D01*
X100916739Y-76289592D01*
X101170918Y-76373274D01*
X101054970Y-76489222D01*
X101101735Y-76535987D01*
X101090820Y-76539298D01*
X100980506Y-76598263D01*
X100883815Y-76677615D01*
X100804463Y-76774306D01*
X100745498Y-76884620D01*
X100709188Y-77004318D01*
X100696928Y-77128800D01*
X100696928Y-78928800D01*
X100709188Y-79053282D01*
X100745498Y-79172980D01*
X100804463Y-79283294D01*
X100883815Y-79379985D01*
X100980506Y-79459337D01*
X101090820Y-79518302D01*
X101210518Y-79554612D01*
X101335000Y-79566872D01*
X103135000Y-79566872D01*
X103259482Y-79554612D01*
X103379180Y-79518302D01*
X103489494Y-79459337D01*
X103586185Y-79379985D01*
X103665537Y-79283294D01*
X103724502Y-79172980D01*
X103760812Y-79053282D01*
X103765567Y-79005000D01*
X124445928Y-79005000D01*
X124458188Y-79129482D01*
X124494498Y-79249180D01*
X124553463Y-79359494D01*
X124632815Y-79456185D01*
X124729506Y-79535537D01*
X124839820Y-79594502D01*
X124959518Y-79630812D01*
X125084000Y-79643072D01*
X125698250Y-79640000D01*
X125857000Y-79481250D01*
X125857000Y-78232000D01*
X124607750Y-78232000D01*
X124449000Y-78390750D01*
X124445928Y-79005000D01*
X103765567Y-79005000D01*
X103773072Y-78928800D01*
X103773072Y-77205000D01*
X124445928Y-77205000D01*
X124449000Y-77819250D01*
X124607750Y-77978000D01*
X125857000Y-77978000D01*
X125857000Y-76728750D01*
X125698250Y-76570000D01*
X125084000Y-76566928D01*
X124959518Y-76579188D01*
X124839820Y-76615498D01*
X124729506Y-76674463D01*
X124632815Y-76753815D01*
X124553463Y-76850506D01*
X124494498Y-76960820D01*
X124458188Y-77080518D01*
X124445928Y-77205000D01*
X103773072Y-77205000D01*
X103773072Y-77128800D01*
X103760812Y-77004318D01*
X103724502Y-76884620D01*
X103665537Y-76774306D01*
X103586185Y-76677615D01*
X103489494Y-76598263D01*
X103379180Y-76539298D01*
X103368265Y-76535987D01*
X103415030Y-76489222D01*
X103299082Y-76373274D01*
X103553261Y-76289592D01*
X103684158Y-76017025D01*
X103759365Y-75724158D01*
X103775991Y-75422247D01*
X103733397Y-75122893D01*
X103633222Y-74837601D01*
X103553261Y-74688008D01*
X103299080Y-74604325D01*
X102414605Y-75488800D01*
X102428748Y-75502943D01*
X102249143Y-75682548D01*
X102235000Y-75668405D01*
X102220858Y-75682548D01*
X102041253Y-75502943D01*
X102055395Y-75488800D01*
X101170920Y-74604325D01*
X100916739Y-74688008D01*
X100785842Y-74960575D01*
X100710635Y-75253442D01*
X100694009Y-75555353D01*
X96455800Y-75555353D01*
X96455800Y-72797616D01*
X100700000Y-72797616D01*
X100700000Y-73099984D01*
X100758989Y-73396543D01*
X100874701Y-73675895D01*
X101042688Y-73927305D01*
X101256495Y-74141112D01*
X101410105Y-74243751D01*
X101350525Y-74424720D01*
X102235000Y-75309195D01*
X103119475Y-74424720D01*
X103059895Y-74243751D01*
X103213505Y-74141112D01*
X103427312Y-73927305D01*
X103595299Y-73675895D01*
X103711011Y-73396543D01*
X103770000Y-73099984D01*
X103770000Y-72797616D01*
X103711011Y-72501057D01*
X103595299Y-72221705D01*
X103427312Y-71970295D01*
X103213505Y-71756488D01*
X102962095Y-71588501D01*
X102682743Y-71472789D01*
X102386184Y-71413800D01*
X102083816Y-71413800D01*
X101787257Y-71472789D01*
X101507905Y-71588501D01*
X101256495Y-71756488D01*
X101042688Y-71970295D01*
X100874701Y-72221705D01*
X100758989Y-72501057D01*
X100700000Y-72797616D01*
X96455800Y-72797616D01*
X96455800Y-71760123D01*
X96459476Y-71722800D01*
X96455800Y-71685477D01*
X96455800Y-71685467D01*
X96444803Y-71573814D01*
X96401346Y-71430553D01*
X96330774Y-71298524D01*
X96264036Y-71217204D01*
X96519534Y-71139699D01*
X96777514Y-71001806D01*
X97003634Y-70816234D01*
X97189206Y-70590114D01*
X97327099Y-70332134D01*
X97412013Y-70052211D01*
X97440685Y-69761100D01*
X97412013Y-69469989D01*
X97374341Y-69345800D01*
X104632178Y-69345800D01*
X104669500Y-69349476D01*
X104706822Y-69345800D01*
X104706833Y-69345800D01*
X104818486Y-69334803D01*
X104960772Y-69291642D01*
X104962208Y-69293392D01*
X105046539Y-69362600D01*
X104962208Y-69431808D01*
X104798505Y-69631282D01*
X104676862Y-69858859D01*
X104601955Y-70105795D01*
X104576662Y-70362600D01*
X104601955Y-70619405D01*
X104676862Y-70866341D01*
X104798505Y-71093918D01*
X104962208Y-71293392D01*
X105161682Y-71457095D01*
X105389259Y-71578738D01*
X105636195Y-71653645D01*
X105828649Y-71672600D01*
X105957351Y-71672600D01*
X106149805Y-71653645D01*
X106396741Y-71578738D01*
X106624318Y-71457095D01*
X106823792Y-71293392D01*
X106987495Y-71093918D01*
X107109138Y-70866341D01*
X107184045Y-70619405D01*
X107209338Y-70362600D01*
X107184045Y-70105795D01*
X107109138Y-69858859D01*
X106987495Y-69631282D01*
X106823792Y-69431808D01*
X106739461Y-69362600D01*
X106823792Y-69293392D01*
X106987495Y-69093918D01*
X107109138Y-68866341D01*
X107184045Y-68619405D01*
X107209338Y-68362600D01*
X107184045Y-68105795D01*
X107109138Y-67858859D01*
X106987495Y-67631282D01*
X106823792Y-67431808D01*
X106739461Y-67362600D01*
X106823792Y-67293392D01*
X106987495Y-67093918D01*
X107109138Y-66866341D01*
X107184045Y-66619405D01*
X107209338Y-66362600D01*
X107184045Y-66105795D01*
X107109138Y-65858859D01*
X106987495Y-65631282D01*
X106823792Y-65431808D01*
X106739461Y-65362600D01*
X106823792Y-65293392D01*
X106987495Y-65093918D01*
X107109138Y-64866341D01*
X107184045Y-64619405D01*
X107209338Y-64362600D01*
X107184045Y-64105795D01*
X107109138Y-63858859D01*
X106987495Y-63631282D01*
X106823792Y-63431808D01*
X106739461Y-63362600D01*
X106823792Y-63293392D01*
X106987495Y-63093918D01*
X107109138Y-62866341D01*
X107184045Y-62619405D01*
X107209338Y-62362600D01*
X107184045Y-62105795D01*
X107109138Y-61858859D01*
X106987495Y-61631282D01*
X106823792Y-61431808D01*
X106739461Y-61362600D01*
X106823792Y-61293392D01*
X106987495Y-61093918D01*
X107109138Y-60866341D01*
X107184045Y-60619405D01*
X107209338Y-60362600D01*
X107184045Y-60105795D01*
X107109138Y-59858859D01*
X106987495Y-59631282D01*
X106823792Y-59431808D01*
X106735352Y-59359228D01*
X106871303Y-59233827D01*
X107022473Y-59026229D01*
X107130238Y-58793128D01*
X107160910Y-58692000D01*
X107037224Y-58489600D01*
X106020000Y-58489600D01*
X106020000Y-58509600D01*
X105766000Y-58509600D01*
X105766000Y-58489600D01*
X104748776Y-58489600D01*
X104625090Y-58692000D01*
X104655762Y-58793128D01*
X104763527Y-59026229D01*
X104914697Y-59233827D01*
X105050648Y-59359228D01*
X104962208Y-59431808D01*
X104822044Y-59602600D01*
X98939623Y-59602600D01*
X98902300Y-59598924D01*
X98864977Y-59602600D01*
X98864967Y-59602600D01*
X98753314Y-59613597D01*
X98610053Y-59657054D01*
X98478024Y-59727626D01*
X98362299Y-59822599D01*
X98338501Y-59851597D01*
X97048934Y-61141164D01*
X97003634Y-61085966D01*
X96777514Y-60900394D01*
X96712977Y-60865899D01*
X96829855Y-60796278D01*
X97046088Y-60601369D01*
X97220141Y-60368020D01*
X97345325Y-60105199D01*
X97389976Y-59957990D01*
X97268655Y-59728100D01*
X96075500Y-59728100D01*
X96075500Y-59748100D01*
X95821500Y-59748100D01*
X95821500Y-59728100D01*
X94628345Y-59728100D01*
X94507024Y-59957990D01*
X94551675Y-60105199D01*
X94676859Y-60368020D01*
X94850912Y-60601369D01*
X95067145Y-60796278D01*
X95184023Y-60865899D01*
X95119486Y-60900394D01*
X94893366Y-61085966D01*
X94707794Y-61312086D01*
X94667295Y-61387854D01*
X94624214Y-61392097D01*
X94480953Y-61435554D01*
X94348924Y-61506126D01*
X94233199Y-61601099D01*
X94138226Y-61716824D01*
X94067654Y-61848853D01*
X94024197Y-61992114D01*
X94009523Y-62141100D01*
X94013200Y-62178433D01*
X94013200Y-62429098D01*
X92898599Y-63543700D01*
X92836461Y-63543700D01*
X92636502Y-63583474D01*
X92448144Y-63661495D01*
X92278626Y-63774763D01*
X92134463Y-63918926D01*
X92021195Y-64088444D01*
X91943174Y-64276802D01*
X91903400Y-64476761D01*
X91903400Y-64680639D01*
X91943174Y-64880598D01*
X92021195Y-65068956D01*
X92134463Y-65238474D01*
X92278626Y-65382637D01*
X92448144Y-65495905D01*
X92636502Y-65573926D01*
X92836461Y-65613700D01*
X93040339Y-65613700D01*
X93240298Y-65573926D01*
X93428656Y-65495905D01*
X93598174Y-65382637D01*
X93742337Y-65238474D01*
X93855605Y-65068956D01*
X93933626Y-64880598D01*
X93973400Y-64680639D01*
X93973400Y-64618501D01*
X94671024Y-63920877D01*
X94569901Y-64110066D01*
X94484987Y-64389989D01*
X94456315Y-64681100D01*
X94484987Y-64972211D01*
X94569901Y-65252134D01*
X94707794Y-65510114D01*
X94893366Y-65736234D01*
X95119486Y-65921806D01*
X95174291Y-65951100D01*
X95119486Y-65980394D01*
X94893366Y-66165966D01*
X94707794Y-66392086D01*
X94569901Y-66650066D01*
X94484987Y-66929989D01*
X94456315Y-67221100D01*
X94484987Y-67512211D01*
X94569901Y-67792134D01*
X94587896Y-67825800D01*
X88904995Y-67825800D01*
X88742456Y-67717195D01*
X88554098Y-67639174D01*
X88354139Y-67599400D01*
X88150261Y-67599400D01*
X88113600Y-67606692D01*
X88113600Y-66751933D01*
X88117277Y-66714600D01*
X88102603Y-66565614D01*
X88059146Y-66422353D01*
X87988574Y-66290324D01*
X87917399Y-66203597D01*
X87893601Y-66174599D01*
X87864604Y-66150802D01*
X87113300Y-65399499D01*
X87113300Y-65337361D01*
X87073526Y-65137402D01*
X86995505Y-64949044D01*
X86882237Y-64779526D01*
X86738074Y-64635363D01*
X86568556Y-64522095D01*
X86380198Y-64444074D01*
X86180239Y-64404300D01*
X85976361Y-64404300D01*
X85776402Y-64444074D01*
X85588044Y-64522095D01*
X85418526Y-64635363D01*
X85274363Y-64779526D01*
X85161095Y-64949044D01*
X85083074Y-65137402D01*
X85043300Y-65337361D01*
X85043300Y-65541239D01*
X85083074Y-65741198D01*
X85161095Y-65929556D01*
X85274363Y-66099074D01*
X85393965Y-66218676D01*
X85309726Y-66274963D01*
X85165563Y-66419126D01*
X85052295Y-66588644D01*
X84974274Y-66777002D01*
X84934500Y-66976961D01*
X78130000Y-66976961D01*
X78130000Y-57083380D01*
X81553381Y-53660000D01*
X122916620Y-53660000D01*
X126340000Y-57083381D01*
X126340000Y-57083381D01*
G37*
X126340000Y-57083381D02*
X126340000Y-71528921D01*
X126284913Y-71512210D01*
X126059408Y-71490000D01*
X125908592Y-71490000D01*
X125683087Y-71512210D01*
X125393739Y-71599983D01*
X125127073Y-71742519D01*
X124893339Y-71934339D01*
X124825501Y-72016999D01*
X116733596Y-63925094D01*
X121238508Y-63925094D01*
X121238508Y-64333386D01*
X121318162Y-64733834D01*
X121474409Y-65111047D01*
X121701244Y-65450530D01*
X121989950Y-65739236D01*
X122329433Y-65966071D01*
X122706646Y-66122318D01*
X123107094Y-66201972D01*
X123515386Y-66201972D01*
X123915834Y-66122318D01*
X124293047Y-65966071D01*
X124632530Y-65739236D01*
X124921236Y-65450530D01*
X125148071Y-65111047D01*
X125304318Y-64733834D01*
X125383972Y-64333386D01*
X125383972Y-63925094D01*
X125304318Y-63524646D01*
X125148071Y-63147433D01*
X124921236Y-62807950D01*
X124632530Y-62519244D01*
X124293047Y-62292409D01*
X123915834Y-62136162D01*
X123515386Y-62056508D01*
X123107094Y-62056508D01*
X122706646Y-62136162D01*
X122329433Y-62292409D01*
X121989950Y-62519244D01*
X121701244Y-62807950D01*
X121474409Y-63147433D01*
X121318162Y-63524646D01*
X121238508Y-63925094D01*
X116733596Y-63925094D01*
X107659704Y-54851203D01*
X107635901Y-54822199D01*
X107520176Y-54727226D01*
X107388147Y-54656654D01*
X107244886Y-54613197D01*
X107133233Y-54602200D01*
X107133222Y-54602200D01*
X107095900Y-54598524D01*
X107058578Y-54602200D01*
X89090525Y-54602200D01*
X89053200Y-54598524D01*
X89015875Y-54602200D01*
X89015867Y-54602200D01*
X88904214Y-54613197D01*
X88760953Y-54656654D01*
X88628924Y-54727226D01*
X88513199Y-54822199D01*
X88489401Y-54851197D01*
X82454399Y-60886200D01*
X82392261Y-60886200D01*
X82192302Y-60925974D01*
X82003944Y-61003995D01*
X81834426Y-61117263D01*
X81690263Y-61261426D01*
X81576995Y-61430944D01*
X81498974Y-61619302D01*
X81459200Y-61819261D01*
X81459200Y-62023139D01*
X81498974Y-62223098D01*
X81576995Y-62411456D01*
X81690263Y-62580974D01*
X81834426Y-62725137D01*
X82003944Y-62838405D01*
X82192302Y-62916426D01*
X82392261Y-62956200D01*
X82596139Y-62956200D01*
X82796098Y-62916426D01*
X82984456Y-62838405D01*
X83153974Y-62725137D01*
X83298137Y-62580974D01*
X83411405Y-62411456D01*
X83489426Y-62223098D01*
X83529200Y-62023139D01*
X83529200Y-61961001D01*
X89368002Y-56122200D01*
X94469184Y-56122200D01*
X94460428Y-56211100D01*
X94460428Y-57911100D01*
X94472688Y-58035582D01*
X94508998Y-58155280D01*
X94567963Y-58265594D01*
X94647315Y-58362285D01*
X94744006Y-58441637D01*
X94854320Y-58500602D01*
X94934966Y-58525066D01*
X94850912Y-58600831D01*
X94676859Y-58834180D01*
X94551675Y-59097001D01*
X94507024Y-59244210D01*
X94628345Y-59474100D01*
X95821500Y-59474100D01*
X95821500Y-59454100D01*
X96075500Y-59454100D01*
X96075500Y-59474100D01*
X97268655Y-59474100D01*
X97389976Y-59244210D01*
X97345325Y-59097001D01*
X97220141Y-58834180D01*
X97046088Y-58600831D01*
X96962034Y-58525066D01*
X97042680Y-58500602D01*
X97152994Y-58441637D01*
X97249685Y-58362285D01*
X97329037Y-58265594D01*
X97388002Y-58155280D01*
X97424312Y-58035582D01*
X97436572Y-57911100D01*
X97436572Y-56211100D01*
X97427816Y-56122200D01*
X104579928Y-56122200D01*
X104579928Y-57037600D01*
X104592188Y-57162082D01*
X104628498Y-57281780D01*
X104687463Y-57392094D01*
X104766815Y-57488785D01*
X104860559Y-57565719D01*
X104763527Y-57698971D01*
X104655762Y-57932072D01*
X104625090Y-58033200D01*
X104748776Y-58235600D01*
X105766000Y-58235600D01*
X105766000Y-58215600D01*
X106020000Y-58215600D01*
X106020000Y-58235600D01*
X107037224Y-58235600D01*
X107160910Y-58033200D01*
X107130238Y-57932072D01*
X107022473Y-57698971D01*
X106925441Y-57565719D01*
X107019185Y-57488785D01*
X107098537Y-57392094D01*
X107157502Y-57281780D01*
X107193812Y-57162082D01*
X107206072Y-57037600D01*
X107206072Y-56547173D01*
X124194901Y-73536003D01*
X124218699Y-73565001D01*
X124334424Y-73659974D01*
X124466453Y-73730546D01*
X124609714Y-73774003D01*
X124645728Y-73777550D01*
X124701519Y-73881927D01*
X124893339Y-74115661D01*
X125127073Y-74307481D01*
X125393739Y-74450017D01*
X125683087Y-74537790D01*
X125908592Y-74560000D01*
X126059408Y-74560000D01*
X126284913Y-74537790D01*
X126340000Y-74521079D01*
X126340001Y-76569649D01*
X126269750Y-76570000D01*
X126111000Y-76728750D01*
X126111000Y-77978000D01*
X126131000Y-77978000D01*
X126131000Y-78232000D01*
X126111000Y-78232000D01*
X126111000Y-79481250D01*
X126269750Y-79640000D01*
X126340001Y-79640351D01*
X126340001Y-93735975D01*
X122907168Y-97340000D01*
X81562833Y-97340000D01*
X78130000Y-93735977D01*
X78130000Y-89002890D01*
X83013524Y-89002890D01*
X83058175Y-89150099D01*
X83183359Y-89412920D01*
X83357412Y-89646269D01*
X83573645Y-89841178D01*
X83823748Y-89990157D01*
X84098109Y-90087481D01*
X84328000Y-89966814D01*
X84328000Y-88773000D01*
X84582000Y-88773000D01*
X84582000Y-89966814D01*
X84811891Y-90087481D01*
X85086252Y-89990157D01*
X85336355Y-89841178D01*
X85552588Y-89646269D01*
X85726641Y-89412920D01*
X85851825Y-89150099D01*
X85896476Y-89002890D01*
X85775155Y-88773000D01*
X84582000Y-88773000D01*
X84328000Y-88773000D01*
X83134845Y-88773000D01*
X83013524Y-89002890D01*
X78130000Y-89002890D01*
X78130000Y-86462890D01*
X83013524Y-86462890D01*
X83058175Y-86610099D01*
X83183359Y-86872920D01*
X83357412Y-87106269D01*
X83573645Y-87301178D01*
X83699255Y-87376000D01*
X83573645Y-87450822D01*
X83357412Y-87645731D01*
X83183359Y-87879080D01*
X83058175Y-88141901D01*
X83013524Y-88289110D01*
X83134845Y-88519000D01*
X84328000Y-88519000D01*
X84328000Y-86233000D01*
X84582000Y-86233000D01*
X84582000Y-88519000D01*
X85775155Y-88519000D01*
X85896476Y-88289110D01*
X85851825Y-88141901D01*
X85726641Y-87879080D01*
X85552588Y-87645731D01*
X85336355Y-87450822D01*
X85210745Y-87376000D01*
X85336355Y-87301178D01*
X85552588Y-87106269D01*
X85726641Y-86872920D01*
X85851825Y-86610099D01*
X85896476Y-86462890D01*
X85775155Y-86233000D01*
X84582000Y-86233000D01*
X84328000Y-86233000D01*
X83134845Y-86233000D01*
X83013524Y-86462890D01*
X78130000Y-86462890D01*
X78130000Y-79591600D01*
X78359000Y-79475378D01*
X78359000Y-78232000D01*
X78613000Y-78232000D01*
X78613000Y-79475378D01*
X78850740Y-79596036D01*
X79011107Y-79547394D01*
X79282414Y-79417236D01*
X79523116Y-79236649D01*
X79723962Y-79012573D01*
X79877234Y-78753620D01*
X79971324Y-78486000D01*
X82962815Y-78486000D01*
X82991487Y-78777111D01*
X83076401Y-79057034D01*
X83214294Y-79315014D01*
X83399866Y-79541134D01*
X83625986Y-79726706D01*
X83680791Y-79756000D01*
X83625986Y-79785294D01*
X83399866Y-79970866D01*
X83214294Y-80196986D01*
X83076401Y-80454966D01*
X82991487Y-80734889D01*
X82962815Y-81026000D01*
X82991487Y-81317111D01*
X83076401Y-81597034D01*
X83214294Y-81855014D01*
X83399866Y-82081134D01*
X83625986Y-82266706D01*
X83680791Y-82296000D01*
X83625986Y-82325294D01*
X83399866Y-82510866D01*
X83214294Y-82736986D01*
X83076401Y-82994966D01*
X82991487Y-83274889D01*
X82962815Y-83566000D01*
X82991487Y-83857111D01*
X83076401Y-84137034D01*
X83214294Y-84395014D01*
X83399866Y-84621134D01*
X83625986Y-84806706D01*
X83690523Y-84841201D01*
X83573645Y-84910822D01*
X83357412Y-85105731D01*
X83183359Y-85339080D01*
X83058175Y-85601901D01*
X83013524Y-85749110D01*
X83134845Y-85979000D01*
X84328000Y-85979000D01*
X84328000Y-85959000D01*
X84582000Y-85959000D01*
X84582000Y-85979000D01*
X85775155Y-85979000D01*
X85896476Y-85749110D01*
X85851825Y-85601901D01*
X85726641Y-85339080D01*
X85552588Y-85105731D01*
X85336355Y-84910822D01*
X85219477Y-84841201D01*
X85284014Y-84806706D01*
X85510134Y-84621134D01*
X85695706Y-84395014D01*
X85833599Y-84137034D01*
X85918513Y-83857111D01*
X85947185Y-83566000D01*
X85918513Y-83274889D01*
X85833599Y-82994966D01*
X85695706Y-82736986D01*
X85510134Y-82510866D01*
X85284014Y-82325294D01*
X85229209Y-82296000D01*
X85284014Y-82266706D01*
X85510134Y-82081134D01*
X85695706Y-81855014D01*
X85833599Y-81597034D01*
X85918513Y-81317111D01*
X85947185Y-81026000D01*
X85918513Y-80734889D01*
X85833599Y-80454966D01*
X85695706Y-80196986D01*
X85510134Y-79970866D01*
X85284014Y-79785294D01*
X85229209Y-79756000D01*
X85284014Y-79726706D01*
X85510134Y-79541134D01*
X85695706Y-79315014D01*
X85833599Y-79057034D01*
X85918513Y-78777111D01*
X85947185Y-78486000D01*
X85918513Y-78194889D01*
X85833599Y-77914966D01*
X85695706Y-77656986D01*
X85510134Y-77430866D01*
X85480313Y-77406393D01*
X85549180Y-77385502D01*
X85659494Y-77326537D01*
X85756185Y-77247185D01*
X85835537Y-77150494D01*
X85894502Y-77040180D01*
X85930812Y-76920482D01*
X85943072Y-76796000D01*
X85943072Y-75096000D01*
X85930812Y-74971518D01*
X85894502Y-74851820D01*
X85835537Y-74741506D01*
X85756185Y-74644815D01*
X85659494Y-74565463D01*
X85549180Y-74506498D01*
X85429482Y-74470188D01*
X85305000Y-74457928D01*
X83605000Y-74457928D01*
X83480518Y-74470188D01*
X83360820Y-74506498D01*
X83250506Y-74565463D01*
X83153815Y-74644815D01*
X83074463Y-74741506D01*
X83015498Y-74851820D01*
X82979188Y-74971518D01*
X82966928Y-75096000D01*
X82966928Y-76796000D01*
X82979188Y-76920482D01*
X83015498Y-77040180D01*
X83074463Y-77150494D01*
X83153815Y-77247185D01*
X83250506Y-77326537D01*
X83360820Y-77385502D01*
X83429687Y-77406393D01*
X83399866Y-77430866D01*
X83214294Y-77656986D01*
X83076401Y-77914966D01*
X82991487Y-78194889D01*
X82962815Y-78486000D01*
X79971324Y-78486000D01*
X79977041Y-78469741D01*
X79856992Y-78232000D01*
X78613000Y-78232000D01*
X78359000Y-78232000D01*
X78339000Y-78232000D01*
X78339000Y-77978000D01*
X78359000Y-77978000D01*
X78359000Y-76734622D01*
X78613000Y-76734622D01*
X78613000Y-77978000D01*
X79856992Y-77978000D01*
X79977041Y-77740259D01*
X79877234Y-77456380D01*
X79723962Y-77197427D01*
X79523116Y-76973351D01*
X79282414Y-76792764D01*
X79011107Y-76662606D01*
X78850740Y-76613964D01*
X78613000Y-76734622D01*
X78359000Y-76734622D01*
X78130000Y-76618400D01*
X78130000Y-74563072D01*
X79386000Y-74563072D01*
X79510482Y-74550812D01*
X79630180Y-74514502D01*
X79740494Y-74455537D01*
X79837185Y-74376185D01*
X79916537Y-74279494D01*
X79975502Y-74169180D01*
X80011812Y-74049482D01*
X80024072Y-73925000D01*
X80024072Y-72125000D01*
X80011812Y-72000518D01*
X79975502Y-71880820D01*
X79916537Y-71770506D01*
X79837185Y-71673815D01*
X79740494Y-71594463D01*
X79630180Y-71535498D01*
X79510482Y-71499188D01*
X79386000Y-71486928D01*
X78130000Y-71486928D01*
X78130000Y-66976961D01*
X84934500Y-66976961D01*
X84934500Y-67180839D01*
X84974274Y-67380798D01*
X85052295Y-67569156D01*
X85165563Y-67738674D01*
X85209500Y-67782611D01*
X85209500Y-68375577D01*
X85205824Y-68412900D01*
X85209500Y-68450222D01*
X85209500Y-68450232D01*
X85220497Y-68561885D01*
X85263954Y-68705146D01*
X85334526Y-68837176D01*
X85364421Y-68873603D01*
X85429499Y-68952901D01*
X85458503Y-68976704D01*
X93904700Y-77422903D01*
X93904700Y-77485039D01*
X93944474Y-77684998D01*
X94022495Y-77873356D01*
X94135763Y-78042874D01*
X94279926Y-78187037D01*
X94449444Y-78300305D01*
X94637802Y-78378326D01*
X94837761Y-78418100D01*
X94935801Y-78418100D01*
X94935801Y-83525297D01*
X93421699Y-85039400D01*
X93359561Y-85039400D01*
X93159602Y-85079174D01*
X92971244Y-85157195D01*
X92801726Y-85270463D01*
X92657563Y-85414626D01*
X92544295Y-85584144D01*
X92466274Y-85772502D01*
X92426500Y-85972461D01*
X92426500Y-86176339D01*
X92466274Y-86376298D01*
X92519800Y-86505520D01*
X92519801Y-95457888D01*
X92475863Y-95501826D01*
X92362595Y-95671344D01*
X92284574Y-95859702D01*
X92244800Y-96059661D01*
X92244800Y-96263539D01*
X92284574Y-96463498D01*
X92362595Y-96651856D01*
X92475863Y-96821374D01*
X92620026Y-96965537D01*
X92789544Y-97078805D01*
X92977902Y-97156826D01*
X93177861Y-97196600D01*
X93381739Y-97196600D01*
X93581698Y-97156826D01*
X93770056Y-97078805D01*
X93939574Y-96965537D01*
X94083737Y-96821374D01*
X94197005Y-96651856D01*
X94275026Y-96463498D01*
X94314800Y-96263539D01*
X94314800Y-96059661D01*
X94275026Y-95859702D01*
X94197005Y-95671344D01*
X94083737Y-95501826D01*
X94039800Y-95457889D01*
X94039800Y-86932776D01*
X94121274Y-86878337D01*
X94265437Y-86734174D01*
X94378705Y-86564656D01*
X94456726Y-86376298D01*
X94496500Y-86176339D01*
X94496500Y-86114201D01*
X96206803Y-84403899D01*
X96235801Y-84380101D01*
X96330774Y-84264376D01*
X96401346Y-84132347D01*
X96444803Y-83989086D01*
X96455800Y-83877433D01*
X96455800Y-83877424D01*
X96459476Y-83840101D01*
X96455800Y-83802778D01*
X96455800Y-75555353D01*
X100694009Y-75555353D01*
X100736603Y-75854707D01*
X100836778Y-76139999D01*
X100916739Y-76289592D01*
X101170918Y-76373274D01*
X101054970Y-76489222D01*
X101101735Y-76535987D01*
X101090820Y-76539298D01*
X100980506Y-76598263D01*
X100883815Y-76677615D01*
X100804463Y-76774306D01*
X100745498Y-76884620D01*
X100709188Y-77004318D01*
X100696928Y-77128800D01*
X100696928Y-78928800D01*
X100709188Y-79053282D01*
X100745498Y-79172980D01*
X100804463Y-79283294D01*
X100883815Y-79379985D01*
X100980506Y-79459337D01*
X101090820Y-79518302D01*
X101210518Y-79554612D01*
X101335000Y-79566872D01*
X103135000Y-79566872D01*
X103259482Y-79554612D01*
X103379180Y-79518302D01*
X103489494Y-79459337D01*
X103586185Y-79379985D01*
X103665537Y-79283294D01*
X103724502Y-79172980D01*
X103760812Y-79053282D01*
X103765567Y-79005000D01*
X124445928Y-79005000D01*
X124458188Y-79129482D01*
X124494498Y-79249180D01*
X124553463Y-79359494D01*
X124632815Y-79456185D01*
X124729506Y-79535537D01*
X124839820Y-79594502D01*
X124959518Y-79630812D01*
X125084000Y-79643072D01*
X125698250Y-79640000D01*
X125857000Y-79481250D01*
X125857000Y-78232000D01*
X124607750Y-78232000D01*
X124449000Y-78390750D01*
X124445928Y-79005000D01*
X103765567Y-79005000D01*
X103773072Y-78928800D01*
X103773072Y-77205000D01*
X124445928Y-77205000D01*
X124449000Y-77819250D01*
X124607750Y-77978000D01*
X125857000Y-77978000D01*
X125857000Y-76728750D01*
X125698250Y-76570000D01*
X125084000Y-76566928D01*
X124959518Y-76579188D01*
X124839820Y-76615498D01*
X124729506Y-76674463D01*
X124632815Y-76753815D01*
X124553463Y-76850506D01*
X124494498Y-76960820D01*
X124458188Y-77080518D01*
X124445928Y-77205000D01*
X103773072Y-77205000D01*
X103773072Y-77128800D01*
X103760812Y-77004318D01*
X103724502Y-76884620D01*
X103665537Y-76774306D01*
X103586185Y-76677615D01*
X103489494Y-76598263D01*
X103379180Y-76539298D01*
X103368265Y-76535987D01*
X103415030Y-76489222D01*
X103299082Y-76373274D01*
X103553261Y-76289592D01*
X103684158Y-76017025D01*
X103759365Y-75724158D01*
X103775991Y-75422247D01*
X103733397Y-75122893D01*
X103633222Y-74837601D01*
X103553261Y-74688008D01*
X103299080Y-74604325D01*
X102414605Y-75488800D01*
X102428748Y-75502943D01*
X102249143Y-75682548D01*
X102235000Y-75668405D01*
X102220858Y-75682548D01*
X102041253Y-75502943D01*
X102055395Y-75488800D01*
X101170920Y-74604325D01*
X100916739Y-74688008D01*
X100785842Y-74960575D01*
X100710635Y-75253442D01*
X100694009Y-75555353D01*
X96455800Y-75555353D01*
X96455800Y-72797616D01*
X100700000Y-72797616D01*
X100700000Y-73099984D01*
X100758989Y-73396543D01*
X100874701Y-73675895D01*
X101042688Y-73927305D01*
X101256495Y-74141112D01*
X101410105Y-74243751D01*
X101350525Y-74424720D01*
X102235000Y-75309195D01*
X103119475Y-74424720D01*
X103059895Y-74243751D01*
X103213505Y-74141112D01*
X103427312Y-73927305D01*
X103595299Y-73675895D01*
X103711011Y-73396543D01*
X103770000Y-73099984D01*
X103770000Y-72797616D01*
X103711011Y-72501057D01*
X103595299Y-72221705D01*
X103427312Y-71970295D01*
X103213505Y-71756488D01*
X102962095Y-71588501D01*
X102682743Y-71472789D01*
X102386184Y-71413800D01*
X102083816Y-71413800D01*
X101787257Y-71472789D01*
X101507905Y-71588501D01*
X101256495Y-71756488D01*
X101042688Y-71970295D01*
X100874701Y-72221705D01*
X100758989Y-72501057D01*
X100700000Y-72797616D01*
X96455800Y-72797616D01*
X96455800Y-71760123D01*
X96459476Y-71722800D01*
X96455800Y-71685477D01*
X96455800Y-71685467D01*
X96444803Y-71573814D01*
X96401346Y-71430553D01*
X96330774Y-71298524D01*
X96264036Y-71217204D01*
X96519534Y-71139699D01*
X96777514Y-71001806D01*
X97003634Y-70816234D01*
X97189206Y-70590114D01*
X97327099Y-70332134D01*
X97412013Y-70052211D01*
X97440685Y-69761100D01*
X97412013Y-69469989D01*
X97374341Y-69345800D01*
X104632178Y-69345800D01*
X104669500Y-69349476D01*
X104706822Y-69345800D01*
X104706833Y-69345800D01*
X104818486Y-69334803D01*
X104960772Y-69291642D01*
X104962208Y-69293392D01*
X105046539Y-69362600D01*
X104962208Y-69431808D01*
X104798505Y-69631282D01*
X104676862Y-69858859D01*
X104601955Y-70105795D01*
X104576662Y-70362600D01*
X104601955Y-70619405D01*
X104676862Y-70866341D01*
X104798505Y-71093918D01*
X104962208Y-71293392D01*
X105161682Y-71457095D01*
X105389259Y-71578738D01*
X105636195Y-71653645D01*
X105828649Y-71672600D01*
X105957351Y-71672600D01*
X106149805Y-71653645D01*
X106396741Y-71578738D01*
X106624318Y-71457095D01*
X106823792Y-71293392D01*
X106987495Y-71093918D01*
X107109138Y-70866341D01*
X107184045Y-70619405D01*
X107209338Y-70362600D01*
X107184045Y-70105795D01*
X107109138Y-69858859D01*
X106987495Y-69631282D01*
X106823792Y-69431808D01*
X106739461Y-69362600D01*
X106823792Y-69293392D01*
X106987495Y-69093918D01*
X107109138Y-68866341D01*
X107184045Y-68619405D01*
X107209338Y-68362600D01*
X107184045Y-68105795D01*
X107109138Y-67858859D01*
X106987495Y-67631282D01*
X106823792Y-67431808D01*
X106739461Y-67362600D01*
X106823792Y-67293392D01*
X106987495Y-67093918D01*
X107109138Y-66866341D01*
X107184045Y-66619405D01*
X107209338Y-66362600D01*
X107184045Y-66105795D01*
X107109138Y-65858859D01*
X106987495Y-65631282D01*
X106823792Y-65431808D01*
X106739461Y-65362600D01*
X106823792Y-65293392D01*
X106987495Y-65093918D01*
X107109138Y-64866341D01*
X107184045Y-64619405D01*
X107209338Y-64362600D01*
X107184045Y-64105795D01*
X107109138Y-63858859D01*
X106987495Y-63631282D01*
X106823792Y-63431808D01*
X106739461Y-63362600D01*
X106823792Y-63293392D01*
X106987495Y-63093918D01*
X107109138Y-62866341D01*
X107184045Y-62619405D01*
X107209338Y-62362600D01*
X107184045Y-62105795D01*
X107109138Y-61858859D01*
X106987495Y-61631282D01*
X106823792Y-61431808D01*
X106739461Y-61362600D01*
X106823792Y-61293392D01*
X106987495Y-61093918D01*
X107109138Y-60866341D01*
X107184045Y-60619405D01*
X107209338Y-60362600D01*
X107184045Y-60105795D01*
X107109138Y-59858859D01*
X106987495Y-59631282D01*
X106823792Y-59431808D01*
X106735352Y-59359228D01*
X106871303Y-59233827D01*
X107022473Y-59026229D01*
X107130238Y-58793128D01*
X107160910Y-58692000D01*
X107037224Y-58489600D01*
X106020000Y-58489600D01*
X106020000Y-58509600D01*
X105766000Y-58509600D01*
X105766000Y-58489600D01*
X104748776Y-58489600D01*
X104625090Y-58692000D01*
X104655762Y-58793128D01*
X104763527Y-59026229D01*
X104914697Y-59233827D01*
X105050648Y-59359228D01*
X104962208Y-59431808D01*
X104822044Y-59602600D01*
X98939623Y-59602600D01*
X98902300Y-59598924D01*
X98864977Y-59602600D01*
X98864967Y-59602600D01*
X98753314Y-59613597D01*
X98610053Y-59657054D01*
X98478024Y-59727626D01*
X98362299Y-59822599D01*
X98338501Y-59851597D01*
X97048934Y-61141164D01*
X97003634Y-61085966D01*
X96777514Y-60900394D01*
X96712977Y-60865899D01*
X96829855Y-60796278D01*
X97046088Y-60601369D01*
X97220141Y-60368020D01*
X97345325Y-60105199D01*
X97389976Y-59957990D01*
X97268655Y-59728100D01*
X96075500Y-59728100D01*
X96075500Y-59748100D01*
X95821500Y-59748100D01*
X95821500Y-59728100D01*
X94628345Y-59728100D01*
X94507024Y-59957990D01*
X94551675Y-60105199D01*
X94676859Y-60368020D01*
X94850912Y-60601369D01*
X95067145Y-60796278D01*
X95184023Y-60865899D01*
X95119486Y-60900394D01*
X94893366Y-61085966D01*
X94707794Y-61312086D01*
X94667295Y-61387854D01*
X94624214Y-61392097D01*
X94480953Y-61435554D01*
X94348924Y-61506126D01*
X94233199Y-61601099D01*
X94138226Y-61716824D01*
X94067654Y-61848853D01*
X94024197Y-61992114D01*
X94009523Y-62141100D01*
X94013200Y-62178433D01*
X94013200Y-62429098D01*
X92898599Y-63543700D01*
X92836461Y-63543700D01*
X92636502Y-63583474D01*
X92448144Y-63661495D01*
X92278626Y-63774763D01*
X92134463Y-63918926D01*
X92021195Y-64088444D01*
X91943174Y-64276802D01*
X91903400Y-64476761D01*
X91903400Y-64680639D01*
X91943174Y-64880598D01*
X92021195Y-65068956D01*
X92134463Y-65238474D01*
X92278626Y-65382637D01*
X92448144Y-65495905D01*
X92636502Y-65573926D01*
X92836461Y-65613700D01*
X93040339Y-65613700D01*
X93240298Y-65573926D01*
X93428656Y-65495905D01*
X93598174Y-65382637D01*
X93742337Y-65238474D01*
X93855605Y-65068956D01*
X93933626Y-64880598D01*
X93973400Y-64680639D01*
X93973400Y-64618501D01*
X94671024Y-63920877D01*
X94569901Y-64110066D01*
X94484987Y-64389989D01*
X94456315Y-64681100D01*
X94484987Y-64972211D01*
X94569901Y-65252134D01*
X94707794Y-65510114D01*
X94893366Y-65736234D01*
X95119486Y-65921806D01*
X95174291Y-65951100D01*
X95119486Y-65980394D01*
X94893366Y-66165966D01*
X94707794Y-66392086D01*
X94569901Y-66650066D01*
X94484987Y-66929989D01*
X94456315Y-67221100D01*
X94484987Y-67512211D01*
X94569901Y-67792134D01*
X94587896Y-67825800D01*
X88904995Y-67825800D01*
X88742456Y-67717195D01*
X88554098Y-67639174D01*
X88354139Y-67599400D01*
X88150261Y-67599400D01*
X88113600Y-67606692D01*
X88113600Y-66751933D01*
X88117277Y-66714600D01*
X88102603Y-66565614D01*
X88059146Y-66422353D01*
X87988574Y-66290324D01*
X87917399Y-66203597D01*
X87893601Y-66174599D01*
X87864604Y-66150802D01*
X87113300Y-65399499D01*
X87113300Y-65337361D01*
X87073526Y-65137402D01*
X86995505Y-64949044D01*
X86882237Y-64779526D01*
X86738074Y-64635363D01*
X86568556Y-64522095D01*
X86380198Y-64444074D01*
X86180239Y-64404300D01*
X85976361Y-64404300D01*
X85776402Y-64444074D01*
X85588044Y-64522095D01*
X85418526Y-64635363D01*
X85274363Y-64779526D01*
X85161095Y-64949044D01*
X85083074Y-65137402D01*
X85043300Y-65337361D01*
X85043300Y-65541239D01*
X85083074Y-65741198D01*
X85161095Y-65929556D01*
X85274363Y-66099074D01*
X85393965Y-66218676D01*
X85309726Y-66274963D01*
X85165563Y-66419126D01*
X85052295Y-66588644D01*
X84974274Y-66777002D01*
X84934500Y-66976961D01*
X78130000Y-66976961D01*
X78130000Y-57083380D01*
X81553381Y-53660000D01*
X122916620Y-53660000D01*
X126340000Y-57083381D01*
M02*
