G04 #@! TF.GenerationSoftware,KiCad,Pcbnew,(5.1.4-0-10_14)*
G04 #@! TF.CreationDate,2019-09-12T08:31:01+02:00*
G04 #@! TF.ProjectId,hb-rc-2-pbu-led,68622d72-632d-4322-9d70-62752d6c6564,rev?*
G04 #@! TF.SameCoordinates,Original*
G04 #@! TF.FileFunction,Legend,Top*
G04 #@! TF.FilePolarity,Positive*
%FSLAX46Y46*%
G04 Gerber Fmt 4.6, Leading zero omitted, Abs format (unit mm)*
G04 Created by KiCad (PCBNEW (5.1.4-0-10_14)) date 2019-09-12 08:31:01*
%MOMM*%
%LPD*%
G04 APERTURE LIST*
%ADD10C,0.150000*%
%ADD11C,0.100000*%
%ADD12C,0.120000*%
%ADD13C,0.250000*%
%ADD14C,0.200000*%
G04 APERTURE END LIST*
D10*
X94305380Y-59142190D02*
X93305380Y-59142190D01*
X94257761Y-58713619D02*
X94305380Y-58570761D01*
X94305380Y-58332666D01*
X94257761Y-58237428D01*
X94210142Y-58189809D01*
X94114904Y-58142190D01*
X94019666Y-58142190D01*
X93924428Y-58189809D01*
X93876809Y-58237428D01*
X93829190Y-58332666D01*
X93781571Y-58523142D01*
X93733952Y-58618380D01*
X93686333Y-58666000D01*
X93591095Y-58713619D01*
X93495857Y-58713619D01*
X93400619Y-58666000D01*
X93353000Y-58618380D01*
X93305380Y-58523142D01*
X93305380Y-58285047D01*
X93353000Y-58142190D01*
X94305380Y-57713619D02*
X93305380Y-57713619D01*
X93305380Y-57332666D01*
X93353000Y-57237428D01*
X93400619Y-57189809D01*
X93495857Y-57142190D01*
X93638714Y-57142190D01*
X93733952Y-57189809D01*
X93781571Y-57237428D01*
X93829190Y-57332666D01*
X93829190Y-57713619D01*
X83693095Y-90559000D02*
X83597857Y-90511380D01*
X83455000Y-90511380D01*
X83312142Y-90559000D01*
X83216904Y-90654238D01*
X83169285Y-90749476D01*
X83121666Y-90939952D01*
X83121666Y-91082809D01*
X83169285Y-91273285D01*
X83216904Y-91368523D01*
X83312142Y-91463761D01*
X83455000Y-91511380D01*
X83550238Y-91511380D01*
X83693095Y-91463761D01*
X83740714Y-91416142D01*
X83740714Y-91082809D01*
X83550238Y-91082809D01*
X84169285Y-91511380D02*
X84169285Y-90511380D01*
X84740714Y-91511380D01*
X84740714Y-90511380D01*
X85216904Y-91511380D02*
X85216904Y-90511380D01*
X85455000Y-90511380D01*
X85597857Y-90559000D01*
X85693095Y-90654238D01*
X85740714Y-90749476D01*
X85788333Y-90939952D01*
X85788333Y-91082809D01*
X85740714Y-91273285D01*
X85693095Y-91368523D01*
X85597857Y-91463761D01*
X85455000Y-91511380D01*
X85216904Y-91511380D01*
X82351571Y-78065190D02*
X82351571Y-78398523D01*
X82875380Y-78398523D02*
X81875380Y-78398523D01*
X81875380Y-77922333D01*
X81875380Y-77684238D02*
X81875380Y-77112809D01*
X82875380Y-77398523D02*
X81875380Y-77398523D01*
X82875380Y-76779476D02*
X81875380Y-76779476D01*
X81875380Y-76541380D01*
X81923000Y-76398523D01*
X82018238Y-76303285D01*
X82113476Y-76255666D01*
X82303952Y-76208047D01*
X82446809Y-76208047D01*
X82637285Y-76255666D01*
X82732523Y-76303285D01*
X82827761Y-76398523D01*
X82875380Y-76541380D01*
X82875380Y-76779476D01*
X82875380Y-75779476D02*
X81875380Y-75779476D01*
D11*
X84756809Y-95591380D02*
X85375857Y-95591380D01*
X85042523Y-95972333D01*
X85185380Y-95972333D01*
X85280619Y-96019952D01*
X85328238Y-96067571D01*
X85375857Y-96162809D01*
X85375857Y-96400904D01*
X85328238Y-96496142D01*
X85280619Y-96543761D01*
X85185380Y-96591380D01*
X84899666Y-96591380D01*
X84804428Y-96543761D01*
X84756809Y-96496142D01*
X85804428Y-96496142D02*
X85852047Y-96543761D01*
X85804428Y-96591380D01*
X85756809Y-96543761D01*
X85804428Y-96496142D01*
X85804428Y-96591380D01*
X86185380Y-95591380D02*
X86804428Y-95591380D01*
X86471095Y-95972333D01*
X86613952Y-95972333D01*
X86709190Y-96019952D01*
X86756809Y-96067571D01*
X86804428Y-96162809D01*
X86804428Y-96400904D01*
X86756809Y-96496142D01*
X86709190Y-96543761D01*
X86613952Y-96591380D01*
X86328238Y-96591380D01*
X86233000Y-96543761D01*
X86185380Y-96496142D01*
X87090142Y-95591380D02*
X87423476Y-96591380D01*
X87756809Y-95591380D01*
X86804523Y-91781380D02*
X86328333Y-91781380D01*
X86280714Y-92257571D01*
X86328333Y-92209952D01*
X86423571Y-92162333D01*
X86661666Y-92162333D01*
X86756904Y-92209952D01*
X86804523Y-92257571D01*
X86852142Y-92352809D01*
X86852142Y-92590904D01*
X86804523Y-92686142D01*
X86756904Y-92733761D01*
X86661666Y-92781380D01*
X86423571Y-92781380D01*
X86328333Y-92733761D01*
X86280714Y-92686142D01*
X87137857Y-91781380D02*
X87471190Y-92781380D01*
X87804523Y-91781380D01*
X89050880Y-90106333D02*
X90050880Y-89773000D01*
X89050880Y-89439666D01*
X89955642Y-88534904D02*
X90003261Y-88582523D01*
X90050880Y-88725380D01*
X90050880Y-88820619D01*
X90003261Y-88963476D01*
X89908023Y-89058714D01*
X89812785Y-89106333D01*
X89622309Y-89153952D01*
X89479452Y-89153952D01*
X89288976Y-89106333D01*
X89193738Y-89058714D01*
X89098500Y-88963476D01*
X89050880Y-88820619D01*
X89050880Y-88725380D01*
X89098500Y-88582523D01*
X89146119Y-88534904D01*
X89955642Y-87534904D02*
X90003261Y-87582523D01*
X90050880Y-87725380D01*
X90050880Y-87820619D01*
X90003261Y-87963476D01*
X89908023Y-88058714D01*
X89812785Y-88106333D01*
X89622309Y-88153952D01*
X89479452Y-88153952D01*
X89288976Y-88106333D01*
X89193738Y-88058714D01*
X89098500Y-87963476D01*
X89050880Y-87820619D01*
X89050880Y-87725380D01*
X89098500Y-87582523D01*
X89146119Y-87534904D01*
X92400380Y-90050809D02*
X91400380Y-90050809D01*
X91400380Y-89812714D01*
X91448000Y-89669857D01*
X91543238Y-89574619D01*
X91638476Y-89527000D01*
X91828952Y-89479380D01*
X91971809Y-89479380D01*
X92162285Y-89527000D01*
X92257523Y-89574619D01*
X92352761Y-89669857D01*
X92400380Y-89812714D01*
X92400380Y-90050809D01*
X92400380Y-89050809D02*
X91400380Y-89050809D01*
X92400380Y-88574619D02*
X91400380Y-88574619D01*
X92400380Y-88003190D01*
X91400380Y-88003190D01*
D12*
X88265000Y-94488000D02*
X93091000Y-94488000D01*
X88265000Y-97917000D02*
X88265000Y-94488000D01*
X93091000Y-97917000D02*
X88265000Y-97917000D01*
X93091000Y-94488000D02*
X93091000Y-97917000D01*
X88265000Y-94107000D02*
X88265000Y-90424000D01*
X93091000Y-94107000D02*
X88265000Y-94107000D01*
X93091000Y-90424000D02*
X93091000Y-94107000D01*
X88265000Y-90424000D02*
X93091000Y-90424000D01*
D11*
X95385000Y-96900904D02*
X95337380Y-96996142D01*
X95337380Y-97139000D01*
X95385000Y-97281857D01*
X95480238Y-97377095D01*
X95575476Y-97424714D01*
X95765952Y-97472333D01*
X95908809Y-97472333D01*
X96099285Y-97424714D01*
X96194523Y-97377095D01*
X96289761Y-97281857D01*
X96337380Y-97139000D01*
X96337380Y-97043761D01*
X96289761Y-96900904D01*
X96242142Y-96853285D01*
X95908809Y-96853285D01*
X95908809Y-97043761D01*
X96337380Y-96424714D02*
X95337380Y-96424714D01*
X96337380Y-95853285D01*
X95337380Y-95853285D01*
X96337380Y-95377095D02*
X95337380Y-95377095D01*
X95337380Y-95139000D01*
X95385000Y-94996142D01*
X95480238Y-94900904D01*
X95575476Y-94853285D01*
X95765952Y-94805666D01*
X95908809Y-94805666D01*
X96099285Y-94853285D01*
X96194523Y-94900904D01*
X96289761Y-94996142D01*
X96337380Y-95139000D01*
X96337380Y-95377095D01*
D10*
X121547000Y-96392904D02*
X121499380Y-96488142D01*
X121499380Y-96631000D01*
X121547000Y-96773857D01*
X121642238Y-96869095D01*
X121737476Y-96916714D01*
X121927952Y-96964333D01*
X122070809Y-96964333D01*
X122261285Y-96916714D01*
X122356523Y-96869095D01*
X122451761Y-96773857D01*
X122499380Y-96631000D01*
X122499380Y-96535761D01*
X122451761Y-96392904D01*
X122404142Y-96345285D01*
X122070809Y-96345285D01*
X122070809Y-96535761D01*
X122499380Y-95916714D02*
X121499380Y-95916714D01*
X122499380Y-95345285D01*
X121499380Y-95345285D01*
X122499380Y-94869095D02*
X121499380Y-94869095D01*
X121499380Y-94631000D01*
X121547000Y-94488142D01*
X121642238Y-94392904D01*
X121737476Y-94345285D01*
X121927952Y-94297666D01*
X122070809Y-94297666D01*
X122261285Y-94345285D01*
X122356523Y-94392904D01*
X122451761Y-94488142D01*
X122499380Y-94631000D01*
X122499380Y-94869095D01*
X122118428Y-93106714D02*
X122118428Y-92344809D01*
X122499380Y-92725761D02*
X121737476Y-92725761D01*
X121499380Y-91392428D02*
X121499380Y-91868619D01*
X121975571Y-91916238D01*
X121927952Y-91868619D01*
X121880333Y-91773380D01*
X121880333Y-91535285D01*
X121927952Y-91440047D01*
X121975571Y-91392428D01*
X122070809Y-91344809D01*
X122308904Y-91344809D01*
X122404142Y-91392428D01*
X122451761Y-91440047D01*
X122499380Y-91535285D01*
X122499380Y-91773380D01*
X122451761Y-91868619D01*
X122404142Y-91916238D01*
X121499380Y-91059095D02*
X122499380Y-90725761D01*
X121499380Y-90392428D01*
D13*
X81351380Y-95630047D02*
X80351380Y-95630047D01*
X80827571Y-95630047D02*
X80827571Y-95058619D01*
X81351380Y-95058619D02*
X80351380Y-95058619D01*
X80827571Y-94249095D02*
X80875190Y-94106238D01*
X80922809Y-94058619D01*
X81018047Y-94011000D01*
X81160904Y-94011000D01*
X81256142Y-94058619D01*
X81303761Y-94106238D01*
X81351380Y-94201476D01*
X81351380Y-94582428D01*
X80351380Y-94582428D01*
X80351380Y-94249095D01*
X80399000Y-94153857D01*
X80446619Y-94106238D01*
X80541857Y-94058619D01*
X80637095Y-94058619D01*
X80732333Y-94106238D01*
X80779952Y-94153857D01*
X80827571Y-94249095D01*
X80827571Y-94582428D01*
X80970428Y-93582428D02*
X80970428Y-92820523D01*
X81351380Y-91772904D02*
X80875190Y-92106238D01*
X81351380Y-92344333D02*
X80351380Y-92344333D01*
X80351380Y-91963380D01*
X80399000Y-91868142D01*
X80446619Y-91820523D01*
X80541857Y-91772904D01*
X80684714Y-91772904D01*
X80779952Y-91820523D01*
X80827571Y-91868142D01*
X80875190Y-91963380D01*
X80875190Y-92344333D01*
X81256142Y-90772904D02*
X81303761Y-90820523D01*
X81351380Y-90963380D01*
X81351380Y-91058619D01*
X81303761Y-91201476D01*
X81208523Y-91296714D01*
X81113285Y-91344333D01*
X80922809Y-91391952D01*
X80779952Y-91391952D01*
X80589476Y-91344333D01*
X80494238Y-91296714D01*
X80399000Y-91201476D01*
X80351380Y-91058619D01*
X80351380Y-90963380D01*
X80399000Y-90820523D01*
X80446619Y-90772904D01*
X80970428Y-90344333D02*
X80970428Y-89582428D01*
X80446619Y-89153857D02*
X80399000Y-89106238D01*
X80351380Y-89011000D01*
X80351380Y-88772904D01*
X80399000Y-88677666D01*
X80446619Y-88630047D01*
X80541857Y-88582428D01*
X80637095Y-88582428D01*
X80779952Y-88630047D01*
X81351380Y-89201476D01*
X81351380Y-88582428D01*
X80970428Y-88153857D02*
X80970428Y-87391952D01*
X81351380Y-86915761D02*
X80351380Y-86915761D01*
X80351380Y-86534809D01*
X80399000Y-86439571D01*
X80446619Y-86391952D01*
X80541857Y-86344333D01*
X80684714Y-86344333D01*
X80779952Y-86391952D01*
X80827571Y-86439571D01*
X80875190Y-86534809D01*
X80875190Y-86915761D01*
X80827571Y-85582428D02*
X80875190Y-85439571D01*
X80922809Y-85391952D01*
X81018047Y-85344333D01*
X81160904Y-85344333D01*
X81256142Y-85391952D01*
X81303761Y-85439571D01*
X81351380Y-85534809D01*
X81351380Y-85915761D01*
X80351380Y-85915761D01*
X80351380Y-85582428D01*
X80399000Y-85487190D01*
X80446619Y-85439571D01*
X80541857Y-85391952D01*
X80637095Y-85391952D01*
X80732333Y-85439571D01*
X80779952Y-85487190D01*
X80827571Y-85582428D01*
X80827571Y-85915761D01*
X80351380Y-84915761D02*
X81160904Y-84915761D01*
X81256142Y-84868142D01*
X81303761Y-84820523D01*
X81351380Y-84725285D01*
X81351380Y-84534809D01*
X81303761Y-84439571D01*
X81256142Y-84391952D01*
X81160904Y-84344333D01*
X80351380Y-84344333D01*
X80970428Y-83868142D02*
X80970428Y-83106238D01*
X81351380Y-82153857D02*
X81351380Y-82630047D01*
X80351380Y-82630047D01*
X80827571Y-81820523D02*
X80827571Y-81487190D01*
X81351380Y-81344333D02*
X81351380Y-81820523D01*
X80351380Y-81820523D01*
X80351380Y-81344333D01*
X81351380Y-80915761D02*
X80351380Y-80915761D01*
X80351380Y-80677666D01*
X80399000Y-80534809D01*
X80494238Y-80439571D01*
X80589476Y-80391952D01*
X80779952Y-80344333D01*
X80922809Y-80344333D01*
X81113285Y-80391952D01*
X81208523Y-80439571D01*
X81303761Y-80534809D01*
X81351380Y-80677666D01*
X81351380Y-80915761D01*
D14*
X99595914Y-97122190D02*
X100453057Y-97122190D01*
X100548295Y-97169809D01*
X100595914Y-97265047D01*
X100595914Y-97312666D01*
X99262580Y-97122190D02*
X99310200Y-97169809D01*
X99357819Y-97122190D01*
X99310200Y-97074571D01*
X99262580Y-97122190D01*
X99357819Y-97122190D01*
X99595914Y-96646000D02*
X100595914Y-96646000D01*
X99643533Y-96646000D02*
X99595914Y-96550761D01*
X99595914Y-96360285D01*
X99643533Y-96265047D01*
X99691152Y-96217428D01*
X99786390Y-96169809D01*
X100072104Y-96169809D01*
X100167342Y-96217428D01*
X100214961Y-96265047D01*
X100262580Y-96360285D01*
X100262580Y-96550761D01*
X100214961Y-96646000D01*
X100262580Y-95217428D02*
X100262580Y-95788857D01*
X100262580Y-95503142D02*
X99262580Y-95503142D01*
X99405438Y-95598380D01*
X99500676Y-95693619D01*
X99548295Y-95788857D01*
X100262580Y-94265047D02*
X100262580Y-94836476D01*
X100262580Y-94550761D02*
X99262580Y-94550761D01*
X99405438Y-94646000D01*
X99500676Y-94741238D01*
X99548295Y-94836476D01*
X99357819Y-93884095D02*
X99310200Y-93836476D01*
X99262580Y-93741238D01*
X99262580Y-93503142D01*
X99310200Y-93407904D01*
X99357819Y-93360285D01*
X99453057Y-93312666D01*
X99548295Y-93312666D01*
X99691152Y-93360285D01*
X100262580Y-93931714D01*
X100262580Y-93312666D01*
X100214961Y-92931714D02*
X100262580Y-92836476D01*
X100262580Y-92646000D01*
X100214961Y-92550761D01*
X100119723Y-92503142D01*
X100072104Y-92503142D01*
X99976866Y-92550761D01*
X99929247Y-92646000D01*
X99929247Y-92788857D01*
X99881628Y-92884095D01*
X99786390Y-92931714D01*
X99738771Y-92931714D01*
X99643533Y-92884095D01*
X99595914Y-92788857D01*
X99595914Y-92646000D01*
X99643533Y-92550761D01*
X100262580Y-91646000D02*
X99262580Y-91646000D01*
X100214961Y-91646000D02*
X100262580Y-91741238D01*
X100262580Y-91931714D01*
X100214961Y-92026952D01*
X100167342Y-92074571D01*
X100072104Y-92122190D01*
X99786390Y-92122190D01*
X99691152Y-92074571D01*
X99643533Y-92026952D01*
X99595914Y-91931714D01*
X99595914Y-91741238D01*
X99643533Y-91646000D01*
X100262580Y-91026952D02*
X100214961Y-91122190D01*
X100119723Y-91169809D01*
X99262580Y-91169809D01*
X99262580Y-90026952D02*
X100262580Y-89693619D01*
X99262580Y-89360285D01*
X100262580Y-88503142D02*
X100262580Y-89074571D01*
X100262580Y-88788857D02*
X99262580Y-88788857D01*
X99405438Y-88884095D01*
X99500676Y-88979333D01*
X99548295Y-89074571D01*
X100167342Y-88074571D02*
X100214961Y-88026952D01*
X100262580Y-88074571D01*
X100214961Y-88122190D01*
X100167342Y-88074571D01*
X100262580Y-88074571D01*
X100262580Y-87074571D02*
X100262580Y-87646000D01*
X100262580Y-87360285D02*
X99262580Y-87360285D01*
X99405438Y-87455523D01*
X99500676Y-87550761D01*
X99548295Y-87646000D01*
X100643533Y-85598380D02*
X100595914Y-85646000D01*
X100453057Y-85741238D01*
X100357819Y-85788857D01*
X100214961Y-85836476D01*
X99976866Y-85884095D01*
X99786390Y-85884095D01*
X99548295Y-85836476D01*
X99405438Y-85788857D01*
X99310200Y-85741238D01*
X99167342Y-85646000D01*
X99119723Y-85598380D01*
X99262580Y-85026952D02*
X99262580Y-84931714D01*
X99310200Y-84836476D01*
X99357819Y-84788857D01*
X99453057Y-84741238D01*
X99643533Y-84693619D01*
X99881628Y-84693619D01*
X100072104Y-84741238D01*
X100167342Y-84788857D01*
X100214961Y-84836476D01*
X100262580Y-84931714D01*
X100262580Y-85026952D01*
X100214961Y-85122190D01*
X100167342Y-85169809D01*
X100072104Y-85217428D01*
X99881628Y-85265047D01*
X99643533Y-85265047D01*
X99453057Y-85217428D01*
X99357819Y-85169809D01*
X99310200Y-85122190D01*
X99262580Y-85026952D01*
X100262580Y-84217428D02*
X100262580Y-84026952D01*
X100214961Y-83931714D01*
X100167342Y-83884095D01*
X100024485Y-83788857D01*
X99834009Y-83741238D01*
X99453057Y-83741238D01*
X99357819Y-83788857D01*
X99310200Y-83836476D01*
X99262580Y-83931714D01*
X99262580Y-84122190D01*
X99310200Y-84217428D01*
X99357819Y-84265047D01*
X99453057Y-84312666D01*
X99691152Y-84312666D01*
X99786390Y-84265047D01*
X99834009Y-84217428D01*
X99881628Y-84122190D01*
X99881628Y-83931714D01*
X99834009Y-83836476D01*
X99786390Y-83788857D01*
X99691152Y-83741238D01*
X99214961Y-82598380D02*
X100500676Y-83455523D01*
X100262580Y-81741238D02*
X100262580Y-82312666D01*
X100262580Y-82026952D02*
X99262580Y-82026952D01*
X99405438Y-82122190D01*
X99500676Y-82217428D01*
X99548295Y-82312666D01*
X100262580Y-81265047D02*
X100262580Y-81074571D01*
X100214961Y-80979333D01*
X100167342Y-80931714D01*
X100024485Y-80836476D01*
X99834009Y-80788857D01*
X99453057Y-80788857D01*
X99357819Y-80836476D01*
X99310200Y-80884095D01*
X99262580Y-80979333D01*
X99262580Y-81169809D01*
X99310200Y-81265047D01*
X99357819Y-81312666D01*
X99453057Y-81360285D01*
X99691152Y-81360285D01*
X99786390Y-81312666D01*
X99834009Y-81265047D01*
X99881628Y-81169809D01*
X99881628Y-80979333D01*
X99834009Y-80884095D01*
X99786390Y-80836476D01*
X99691152Y-80788857D01*
X100643533Y-80455523D02*
X100595914Y-80407904D01*
X100453057Y-80312666D01*
X100357819Y-80265047D01*
X100214961Y-80217428D01*
X99976866Y-80169809D01*
X99786390Y-80169809D01*
X99548295Y-80217428D01*
X99405438Y-80265047D01*
X99310200Y-80312666D01*
X99167342Y-80407904D01*
X99119723Y-80455523D01*
X101867342Y-94884095D02*
X101914961Y-94931714D01*
X101962580Y-95074571D01*
X101962580Y-95169809D01*
X101914961Y-95312666D01*
X101819723Y-95407904D01*
X101724485Y-95455523D01*
X101534009Y-95503142D01*
X101391152Y-95503142D01*
X101200676Y-95455523D01*
X101105438Y-95407904D01*
X101010200Y-95312666D01*
X100962580Y-95169809D01*
X100962580Y-95074571D01*
X101010200Y-94931714D01*
X101057819Y-94884095D01*
X101867342Y-93884095D02*
X101914961Y-93931714D01*
X101962580Y-94074571D01*
X101962580Y-94169809D01*
X101914961Y-94312666D01*
X101819723Y-94407904D01*
X101724485Y-94455523D01*
X101534009Y-94503142D01*
X101391152Y-94503142D01*
X101200676Y-94455523D01*
X101105438Y-94407904D01*
X101010200Y-94312666D01*
X100962580Y-94169809D01*
X100962580Y-94074571D01*
X101010200Y-93931714D01*
X101057819Y-93884095D01*
X101438771Y-92360285D02*
X101486390Y-92217428D01*
X101534009Y-92169809D01*
X101629247Y-92122190D01*
X101772104Y-92122190D01*
X101867342Y-92169809D01*
X101914961Y-92217428D01*
X101962580Y-92312666D01*
X101962580Y-92693619D01*
X100962580Y-92693619D01*
X100962580Y-92360285D01*
X101010200Y-92265047D01*
X101057819Y-92217428D01*
X101153057Y-92169809D01*
X101248295Y-92169809D01*
X101343533Y-92217428D01*
X101391152Y-92265047D01*
X101438771Y-92360285D01*
X101438771Y-92693619D01*
X101486390Y-91503142D02*
X101962580Y-91503142D01*
X100962580Y-91836476D02*
X101486390Y-91503142D01*
X100962580Y-91169809D01*
X101581628Y-90836476D02*
X101581628Y-90074571D01*
X101962580Y-89598380D02*
X100962580Y-89598380D01*
X101962580Y-89026952D01*
X100962580Y-89026952D01*
X101867342Y-87979333D02*
X101914961Y-88026952D01*
X101962580Y-88169809D01*
X101962580Y-88265047D01*
X101914961Y-88407904D01*
X101819723Y-88503142D01*
X101724485Y-88550761D01*
X101534009Y-88598380D01*
X101391152Y-88598380D01*
X101200676Y-88550761D01*
X101105438Y-88503142D01*
X101010200Y-88407904D01*
X100962580Y-88265047D01*
X100962580Y-88169809D01*
X101010200Y-88026952D01*
X101057819Y-87979333D01*
X101581628Y-87550761D02*
X101581628Y-86788857D01*
X101914961Y-86360285D02*
X101962580Y-86217428D01*
X101962580Y-85979333D01*
X101914961Y-85884095D01*
X101867342Y-85836476D01*
X101772104Y-85788857D01*
X101676866Y-85788857D01*
X101581628Y-85836476D01*
X101534009Y-85884095D01*
X101486390Y-85979333D01*
X101438771Y-86169809D01*
X101391152Y-86265047D01*
X101343533Y-86312666D01*
X101248295Y-86360285D01*
X101153057Y-86360285D01*
X101057819Y-86312666D01*
X101010200Y-86265047D01*
X100962580Y-86169809D01*
X100962580Y-85931714D01*
X101010200Y-85788857D01*
X101676866Y-85407904D02*
X101676866Y-84931714D01*
X101962580Y-85503142D02*
X100962580Y-85169809D01*
X101962580Y-84836476D01*
X101295914Y-83312666D02*
X101962580Y-83312666D01*
X100914961Y-83550761D02*
X101629247Y-83788857D01*
X101629247Y-83169809D01*
X101867342Y-82788857D02*
X101914961Y-82741238D01*
X101962580Y-82788857D01*
X101914961Y-82836476D01*
X101867342Y-82788857D01*
X101962580Y-82788857D01*
X100962580Y-82122190D02*
X100962580Y-82026952D01*
X101010200Y-81931714D01*
X101057819Y-81884095D01*
X101153057Y-81836476D01*
X101343533Y-81788857D01*
X101581628Y-81788857D01*
X101772104Y-81836476D01*
X101867342Y-81884095D01*
X101914961Y-81931714D01*
X101962580Y-82026952D01*
X101962580Y-82122190D01*
X101914961Y-82217428D01*
X101867342Y-82265047D01*
X101772104Y-82312666D01*
X101581628Y-82360285D01*
X101343533Y-82360285D01*
X101153057Y-82312666D01*
X101057819Y-82265047D01*
X101010200Y-82217428D01*
X100962580Y-82122190D01*
D12*
X105892600Y-71602600D02*
X105892600Y-55092600D01*
X124942600Y-71602600D02*
X105892600Y-71602600D01*
X124942600Y-55092600D02*
X124942600Y-71602600D01*
X105892600Y-55092600D02*
X124942600Y-55092600D01*
X94618500Y-55731100D02*
X95948500Y-55731100D01*
X94618500Y-57061100D02*
X94618500Y-55731100D01*
X94618500Y-58331100D02*
X97278500Y-58331100D01*
X97278500Y-58331100D02*
X97278500Y-71091100D01*
X94618500Y-58331100D02*
X94618500Y-71091100D01*
X94618500Y-71091100D02*
X97278500Y-71091100D01*
X117570000Y-87840000D02*
X118070000Y-87840000D01*
X117820000Y-88090000D02*
X117820000Y-87590000D01*
X120575563Y-87350000D02*
X121640000Y-86285563D01*
X118184437Y-87350000D02*
X117120000Y-86285563D01*
X118184437Y-87350000D02*
X118320000Y-87350000D01*
X120575563Y-87350000D02*
X120440000Y-87350000D01*
X121640000Y-86285563D02*
X121640000Y-82830000D01*
X117120000Y-86285563D02*
X117120000Y-82830000D01*
X117120000Y-82830000D02*
X118320000Y-82830000D01*
X121640000Y-82830000D02*
X120440000Y-82830000D01*
X108807000Y-87840000D02*
X109307000Y-87840000D01*
X109057000Y-88090000D02*
X109057000Y-87590000D01*
X111812563Y-87350000D02*
X112877000Y-86285563D01*
X109421437Y-87350000D02*
X108357000Y-86285563D01*
X109421437Y-87350000D02*
X109557000Y-87350000D01*
X111812563Y-87350000D02*
X111677000Y-87350000D01*
X112877000Y-86285563D02*
X112877000Y-82830000D01*
X108357000Y-86285563D02*
X108357000Y-82830000D01*
X108357000Y-82830000D02*
X109557000Y-82830000D01*
X112877000Y-82830000D02*
X111677000Y-82830000D01*
X103270000Y-55225500D02*
X102770000Y-55225500D01*
X103020000Y-54975500D02*
X103020000Y-55475500D01*
X100264437Y-55715500D02*
X99200000Y-56779937D01*
X102655563Y-55715500D02*
X103720000Y-56779937D01*
X102655563Y-55715500D02*
X102520000Y-55715500D01*
X100264437Y-55715500D02*
X100400000Y-55715500D01*
X99200000Y-56779937D02*
X99200000Y-60235500D01*
X103720000Y-56779937D02*
X103720000Y-60235500D01*
X103720000Y-60235500D02*
X102520000Y-60235500D01*
X99200000Y-60235500D02*
X100400000Y-60235500D01*
X101982748Y-71042600D02*
X102505252Y-71042600D01*
X101982748Y-69622600D02*
X102505252Y-69622600D01*
X89483000Y-82802252D02*
X89483000Y-82279748D01*
X88063000Y-82802252D02*
X88063000Y-82279748D01*
X97265748Y-73608000D02*
X97788252Y-73608000D01*
X97265748Y-72188000D02*
X97788252Y-72188000D01*
X97265748Y-78688000D02*
X97788252Y-78688000D01*
X97265748Y-77268000D02*
X97788252Y-77268000D01*
X87628252Y-59170500D02*
X87105748Y-59170500D01*
X87628252Y-60590500D02*
X87105748Y-60590500D01*
X107517000Y-84716252D02*
X107517000Y-84193748D01*
X106097000Y-84716252D02*
X106097000Y-84193748D01*
X105358000Y-84716252D02*
X105358000Y-84193748D01*
X103938000Y-84716252D02*
X103938000Y-84193748D01*
X88063000Y-76700748D02*
X88063000Y-77223252D01*
X89483000Y-76700748D02*
X89483000Y-77223252D01*
X120580000Y-95631000D02*
G75*
G03X120580000Y-95631000I-1200000J0D01*
G01*
X120580000Y-91694000D02*
G75*
G03X120580000Y-91694000I-1200000J0D01*
G01*
X117868000Y-73755000D02*
X117868000Y-77375000D01*
X111748000Y-73755000D02*
X117868000Y-73755000D01*
X111748000Y-77375000D02*
X111748000Y-73755000D01*
X117868000Y-77375000D02*
X111748000Y-77375000D01*
X95134000Y-82464000D02*
X92684000Y-82464000D01*
X93334000Y-85684000D02*
X95134000Y-85684000D01*
X107310000Y-90189000D02*
X107310000Y-91449000D01*
X107310000Y-97009000D02*
X107310000Y-95749000D01*
X111070000Y-90189000D02*
X107310000Y-90189000D01*
X113320000Y-97009000D02*
X107310000Y-97009000D01*
D10*
X83468000Y-70109500D02*
X83468000Y-71534500D01*
X83243000Y-62859500D02*
X83243000Y-63184500D01*
X90493000Y-62859500D02*
X90493000Y-63184500D01*
X90493000Y-70109500D02*
X90493000Y-69784500D01*
X83243000Y-70109500D02*
X83243000Y-69784500D01*
X90493000Y-70109500D02*
X90168000Y-70109500D01*
X90493000Y-62859500D02*
X90168000Y-62859500D01*
X83243000Y-62859500D02*
X83568000Y-62859500D01*
X83243000Y-70109500D02*
X83468000Y-70109500D01*
D12*
X83125000Y-74616000D02*
X84455000Y-74616000D01*
X83125000Y-75946000D02*
X83125000Y-74616000D01*
X83125000Y-77216000D02*
X85785000Y-77216000D01*
X85785000Y-77216000D02*
X85785000Y-89976000D01*
X83125000Y-77216000D02*
X83125000Y-89976000D01*
X83125000Y-89976000D02*
X85785000Y-89976000D01*
X104833000Y-55302600D02*
X105893000Y-55302600D01*
X104833000Y-56362600D02*
X104833000Y-55302600D01*
X104833000Y-57362600D02*
X106953000Y-57362600D01*
X106953000Y-57362600D02*
X106953000Y-71422600D01*
X104833000Y-57362600D02*
X104833000Y-71422600D01*
X104833000Y-71422600D02*
X106953000Y-71422600D01*
X103315000Y-77048800D02*
X103471000Y-77048800D01*
X100999000Y-77048800D02*
X101155000Y-77048800D01*
X103314837Y-74447670D02*
G75*
G02X103315000Y-76529761I-1079837J-1041130D01*
G01*
X101155163Y-74447670D02*
G75*
G03X101155000Y-76529761I1079837J-1041130D01*
G01*
X103313608Y-73816465D02*
G75*
G02X103470516Y-77048800I-1078608J-1672335D01*
G01*
X101156392Y-73816465D02*
G75*
G03X100999484Y-77048800I1078608J-1672335D01*
G01*
D10*
X124547261Y-76771333D02*
X124594880Y-76628476D01*
X124594880Y-76390380D01*
X124547261Y-76295142D01*
X124499642Y-76247523D01*
X124404404Y-76199904D01*
X124309166Y-76199904D01*
X124213928Y-76247523D01*
X124166309Y-76295142D01*
X124118690Y-76390380D01*
X124071071Y-76580857D01*
X124023452Y-76676095D01*
X123975833Y-76723714D01*
X123880595Y-76771333D01*
X123785357Y-76771333D01*
X123690119Y-76723714D01*
X123642500Y-76676095D01*
X123594880Y-76580857D01*
X123594880Y-76342761D01*
X123642500Y-76199904D01*
X123594880Y-75866571D02*
X124594880Y-75628476D01*
X123880595Y-75438000D01*
X124594880Y-75247523D01*
X123594880Y-75009428D01*
X123690119Y-74676095D02*
X123642500Y-74628476D01*
X123594880Y-74533238D01*
X123594880Y-74295142D01*
X123642500Y-74199904D01*
X123690119Y-74152285D01*
X123785357Y-74104666D01*
X123880595Y-74104666D01*
X124023452Y-74152285D01*
X124594880Y-74723714D01*
X124594880Y-74104666D01*
X80732261Y-77152333D02*
X80779880Y-77009476D01*
X80779880Y-76771380D01*
X80732261Y-76676142D01*
X80684642Y-76628523D01*
X80589404Y-76580904D01*
X80494166Y-76580904D01*
X80398928Y-76628523D01*
X80351309Y-76676142D01*
X80303690Y-76771380D01*
X80256071Y-76961857D01*
X80208452Y-77057095D01*
X80160833Y-77104714D01*
X80065595Y-77152333D01*
X79970357Y-77152333D01*
X79875119Y-77104714D01*
X79827500Y-77057095D01*
X79779880Y-76961857D01*
X79779880Y-76723761D01*
X79827500Y-76580904D01*
X79779880Y-76247571D02*
X80779880Y-76009476D01*
X80065595Y-75819000D01*
X80779880Y-75628523D01*
X79779880Y-75390428D01*
X79779880Y-75104714D02*
X79779880Y-74485666D01*
X80160833Y-74819000D01*
X80160833Y-74676142D01*
X80208452Y-74580904D01*
X80256071Y-74533285D01*
X80351309Y-74485666D01*
X80589404Y-74485666D01*
X80684642Y-74533285D01*
X80732261Y-74580904D01*
X80779880Y-74676142D01*
X80779880Y-74961857D01*
X80732261Y-75057095D01*
X80684642Y-75104714D01*
D11*
X109355000Y-57911904D02*
X109307380Y-58007142D01*
X109307380Y-58150000D01*
X109355000Y-58292857D01*
X109450238Y-58388095D01*
X109545476Y-58435714D01*
X109735952Y-58483333D01*
X109878809Y-58483333D01*
X110069285Y-58435714D01*
X110164523Y-58388095D01*
X110259761Y-58292857D01*
X110307380Y-58150000D01*
X110307380Y-58054761D01*
X110259761Y-57911904D01*
X110212142Y-57864285D01*
X109878809Y-57864285D01*
X109878809Y-58054761D01*
X110307380Y-57435714D02*
X109307380Y-57435714D01*
X110307380Y-56864285D01*
X109307380Y-56864285D01*
X110307380Y-56388095D02*
X109307380Y-56388095D01*
X109307380Y-56150000D01*
X109355000Y-56007142D01*
X109450238Y-55911904D01*
X109545476Y-55864285D01*
X109735952Y-55816666D01*
X109878809Y-55816666D01*
X110069285Y-55864285D01*
X110164523Y-55911904D01*
X110259761Y-56007142D01*
X110307380Y-56150000D01*
X110307380Y-56388095D01*
X112847380Y-57919809D02*
X111847380Y-57919809D01*
X111847380Y-57681714D01*
X111895000Y-57538857D01*
X111990238Y-57443619D01*
X112085476Y-57396000D01*
X112275952Y-57348380D01*
X112418809Y-57348380D01*
X112609285Y-57396000D01*
X112704523Y-57443619D01*
X112799761Y-57538857D01*
X112847380Y-57681714D01*
X112847380Y-57919809D01*
X112847380Y-56919809D02*
X111847380Y-56919809D01*
X112847380Y-56443619D02*
X111847380Y-56443619D01*
X112847380Y-55872190D01*
X111847380Y-55872190D01*
X114387380Y-58419833D02*
X115387380Y-58086500D01*
X114387380Y-57753166D01*
X115292142Y-56848404D02*
X115339761Y-56896023D01*
X115387380Y-57038880D01*
X115387380Y-57134119D01*
X115339761Y-57276976D01*
X115244523Y-57372214D01*
X115149285Y-57419833D01*
X114958809Y-57467452D01*
X114815952Y-57467452D01*
X114625476Y-57419833D01*
X114530238Y-57372214D01*
X114435000Y-57276976D01*
X114387380Y-57134119D01*
X114387380Y-57038880D01*
X114435000Y-56896023D01*
X114482619Y-56848404D01*
X115292142Y-55848404D02*
X115339761Y-55896023D01*
X115387380Y-56038880D01*
X115387380Y-56134119D01*
X115339761Y-56276976D01*
X115244523Y-56372214D01*
X115149285Y-56419833D01*
X114958809Y-56467452D01*
X114815952Y-56467452D01*
X114625476Y-56419833D01*
X114530238Y-56372214D01*
X114435000Y-56276976D01*
X114387380Y-56134119D01*
X114387380Y-56038880D01*
X114435000Y-55896023D01*
X114482619Y-55848404D01*
X88796880Y-58356333D02*
X89796880Y-58023000D01*
X88796880Y-57689666D01*
X89701642Y-56784904D02*
X89749261Y-56832523D01*
X89796880Y-56975380D01*
X89796880Y-57070619D01*
X89749261Y-57213476D01*
X89654023Y-57308714D01*
X89558785Y-57356333D01*
X89368309Y-57403952D01*
X89225452Y-57403952D01*
X89034976Y-57356333D01*
X88939738Y-57308714D01*
X88844500Y-57213476D01*
X88796880Y-57070619D01*
X88796880Y-56975380D01*
X88844500Y-56832523D01*
X88892119Y-56784904D01*
X89701642Y-55784904D02*
X89749261Y-55832523D01*
X89796880Y-55975380D01*
X89796880Y-56070619D01*
X89749261Y-56213476D01*
X89654023Y-56308714D01*
X89558785Y-56356333D01*
X89368309Y-56403952D01*
X89225452Y-56403952D01*
X89034976Y-56356333D01*
X88939738Y-56308714D01*
X88844500Y-56213476D01*
X88796880Y-56070619D01*
X88796880Y-55975380D01*
X88844500Y-55832523D01*
X88892119Y-55784904D01*
X92463880Y-59157976D02*
X91463880Y-59157976D01*
X91463880Y-58919880D01*
X91511500Y-58777023D01*
X91606738Y-58681785D01*
X91701976Y-58634166D01*
X91892452Y-58586547D01*
X92035309Y-58586547D01*
X92225785Y-58634166D01*
X92321023Y-58681785D01*
X92416261Y-58777023D01*
X92463880Y-58919880D01*
X92463880Y-59157976D01*
X91463880Y-57967500D02*
X91463880Y-57777023D01*
X91511500Y-57681785D01*
X91606738Y-57586547D01*
X91797214Y-57538928D01*
X92130547Y-57538928D01*
X92321023Y-57586547D01*
X92416261Y-57681785D01*
X92463880Y-57777023D01*
X92463880Y-57967500D01*
X92416261Y-58062738D01*
X92321023Y-58157976D01*
X92130547Y-58205595D01*
X91797214Y-58205595D01*
X91606738Y-58157976D01*
X91511500Y-58062738D01*
X91463880Y-57967500D01*
X91463880Y-57110357D02*
X92273404Y-57110357D01*
X92368642Y-57062738D01*
X92416261Y-57015119D01*
X92463880Y-56919880D01*
X92463880Y-56729404D01*
X92416261Y-56634166D01*
X92368642Y-56586547D01*
X92273404Y-56538928D01*
X91463880Y-56538928D01*
X91463880Y-56205595D02*
X91463880Y-55634166D01*
X92463880Y-55919880D02*
X91463880Y-55919880D01*
D10*
X123521742Y-84862966D02*
X123569361Y-84910585D01*
X123616980Y-85053442D01*
X123616980Y-85148680D01*
X123569361Y-85291538D01*
X123474123Y-85386776D01*
X123378885Y-85434395D01*
X123188409Y-85482014D01*
X123045552Y-85482014D01*
X122855076Y-85434395D01*
X122759838Y-85386776D01*
X122664600Y-85291538D01*
X122616980Y-85148680D01*
X122616980Y-85053442D01*
X122664600Y-84910585D01*
X122712219Y-84862966D01*
X122616980Y-84005823D02*
X122616980Y-84196300D01*
X122664600Y-84291538D01*
X122712219Y-84339157D01*
X122855076Y-84434395D01*
X123045552Y-84482014D01*
X123426504Y-84482014D01*
X123521742Y-84434395D01*
X123569361Y-84386776D01*
X123616980Y-84291538D01*
X123616980Y-84101061D01*
X123569361Y-84005823D01*
X123521742Y-83958204D01*
X123426504Y-83910585D01*
X123188409Y-83910585D01*
X123093171Y-83958204D01*
X123045552Y-84005823D01*
X122997933Y-84101061D01*
X122997933Y-84291538D01*
X123045552Y-84386776D01*
X123093171Y-84434395D01*
X123188409Y-84482014D01*
X114238042Y-84735966D02*
X114285661Y-84783585D01*
X114333280Y-84926442D01*
X114333280Y-85021680D01*
X114285661Y-85164538D01*
X114190423Y-85259776D01*
X114095185Y-85307395D01*
X113904709Y-85355014D01*
X113761852Y-85355014D01*
X113571376Y-85307395D01*
X113476138Y-85259776D01*
X113380900Y-85164538D01*
X113333280Y-85021680D01*
X113333280Y-84926442D01*
X113380900Y-84783585D01*
X113428519Y-84735966D01*
X113333280Y-84402633D02*
X113333280Y-83783585D01*
X113714233Y-84116919D01*
X113714233Y-83974061D01*
X113761852Y-83878823D01*
X113809471Y-83831204D01*
X113904709Y-83783585D01*
X114142804Y-83783585D01*
X114238042Y-83831204D01*
X114285661Y-83878823D01*
X114333280Y-83974061D01*
X114333280Y-84259776D01*
X114285661Y-84355014D01*
X114238042Y-84402633D01*
X101306033Y-62853842D02*
X101258414Y-62901461D01*
X101115557Y-62949080D01*
X101020319Y-62949080D01*
X100877461Y-62901461D01*
X100782223Y-62806223D01*
X100734604Y-62710985D01*
X100686985Y-62520509D01*
X100686985Y-62377652D01*
X100734604Y-62187176D01*
X100782223Y-62091938D01*
X100877461Y-61996700D01*
X101020319Y-61949080D01*
X101115557Y-61949080D01*
X101258414Y-61996700D01*
X101306033Y-62044319D01*
X102258414Y-62949080D02*
X101686985Y-62949080D01*
X101972700Y-62949080D02*
X101972700Y-61949080D01*
X101877461Y-62091938D01*
X101782223Y-62187176D01*
X101686985Y-62234795D01*
X100147380Y-70524666D02*
X99671190Y-70858000D01*
X100147380Y-71096095D02*
X99147380Y-71096095D01*
X99147380Y-70715142D01*
X99195000Y-70619904D01*
X99242619Y-70572285D01*
X99337857Y-70524666D01*
X99480714Y-70524666D01*
X99575952Y-70572285D01*
X99623571Y-70619904D01*
X99671190Y-70715142D01*
X99671190Y-71096095D01*
X99480714Y-69667523D02*
X100147380Y-69667523D01*
X99099761Y-69905619D02*
X99814047Y-70143714D01*
X99814047Y-69524666D01*
X91041480Y-82665866D02*
X90565290Y-82999200D01*
X91041480Y-83237295D02*
X90041480Y-83237295D01*
X90041480Y-82856342D01*
X90089100Y-82761104D01*
X90136719Y-82713485D01*
X90231957Y-82665866D01*
X90374814Y-82665866D01*
X90470052Y-82713485D01*
X90517671Y-82761104D01*
X90565290Y-82856342D01*
X90565290Y-83237295D01*
X90041480Y-82332533D02*
X90041480Y-81713485D01*
X90422433Y-82046819D01*
X90422433Y-81903961D01*
X90470052Y-81808723D01*
X90517671Y-81761104D01*
X90612909Y-81713485D01*
X90851004Y-81713485D01*
X90946242Y-81761104D01*
X90993861Y-81808723D01*
X91041480Y-81903961D01*
X91041480Y-82189676D01*
X90993861Y-82284914D01*
X90946242Y-82332533D01*
X95448380Y-73064666D02*
X94972190Y-73398000D01*
X95448380Y-73636095D02*
X94448380Y-73636095D01*
X94448380Y-73255142D01*
X94496000Y-73159904D01*
X94543619Y-73112285D01*
X94638857Y-73064666D01*
X94781714Y-73064666D01*
X94876952Y-73112285D01*
X94924571Y-73159904D01*
X94972190Y-73255142D01*
X94972190Y-73636095D01*
X94543619Y-72683714D02*
X94496000Y-72636095D01*
X94448380Y-72540857D01*
X94448380Y-72302761D01*
X94496000Y-72207523D01*
X94543619Y-72159904D01*
X94638857Y-72112285D01*
X94734095Y-72112285D01*
X94876952Y-72159904D01*
X95448380Y-72731333D01*
X95448380Y-72112285D01*
X95448380Y-78144666D02*
X94972190Y-78478000D01*
X95448380Y-78716095D02*
X94448380Y-78716095D01*
X94448380Y-78335142D01*
X94496000Y-78239904D01*
X94543619Y-78192285D01*
X94638857Y-78144666D01*
X94781714Y-78144666D01*
X94876952Y-78192285D01*
X94924571Y-78239904D01*
X94972190Y-78335142D01*
X94972190Y-78716095D01*
X95448380Y-77192285D02*
X95448380Y-77763714D01*
X95448380Y-77478000D02*
X94448380Y-77478000D01*
X94591238Y-77573238D01*
X94686476Y-77668476D01*
X94734095Y-77763714D01*
X85129642Y-59996366D02*
X85177261Y-60043985D01*
X85224880Y-60186842D01*
X85224880Y-60282080D01*
X85177261Y-60424938D01*
X85082023Y-60520176D01*
X84986785Y-60567795D01*
X84796309Y-60615414D01*
X84653452Y-60615414D01*
X84462976Y-60567795D01*
X84367738Y-60520176D01*
X84272500Y-60424938D01*
X84224880Y-60282080D01*
X84224880Y-60186842D01*
X84272500Y-60043985D01*
X84320119Y-59996366D01*
X84224880Y-59663033D02*
X84224880Y-58996366D01*
X85224880Y-59424938D01*
X107113342Y-81472066D02*
X107160961Y-81519685D01*
X107208580Y-81662542D01*
X107208580Y-81757780D01*
X107160961Y-81900638D01*
X107065723Y-81995876D01*
X106970485Y-82043495D01*
X106780009Y-82091114D01*
X106637152Y-82091114D01*
X106446676Y-82043495D01*
X106351438Y-81995876D01*
X106256200Y-81900638D01*
X106208580Y-81757780D01*
X106208580Y-81662542D01*
X106256200Y-81519685D01*
X106303819Y-81472066D01*
X106208580Y-80567304D02*
X106208580Y-81043495D01*
X106684771Y-81091114D01*
X106637152Y-81043495D01*
X106589533Y-80948257D01*
X106589533Y-80710161D01*
X106637152Y-80614923D01*
X106684771Y-80567304D01*
X106780009Y-80519685D01*
X107018104Y-80519685D01*
X107113342Y-80567304D01*
X107160961Y-80614923D01*
X107208580Y-80710161D01*
X107208580Y-80948257D01*
X107160961Y-81043495D01*
X107113342Y-81091114D01*
X105005142Y-81472066D02*
X105052761Y-81519685D01*
X105100380Y-81662542D01*
X105100380Y-81757780D01*
X105052761Y-81900638D01*
X104957523Y-81995876D01*
X104862285Y-82043495D01*
X104671809Y-82091114D01*
X104528952Y-82091114D01*
X104338476Y-82043495D01*
X104243238Y-81995876D01*
X104148000Y-81900638D01*
X104100380Y-81757780D01*
X104100380Y-81662542D01*
X104148000Y-81519685D01*
X104195619Y-81472066D01*
X104433714Y-80614923D02*
X105100380Y-80614923D01*
X104052761Y-80853019D02*
X104767047Y-81091114D01*
X104767047Y-80472066D01*
X90870042Y-77179466D02*
X90917661Y-77227085D01*
X90965280Y-77369942D01*
X90965280Y-77465180D01*
X90917661Y-77608038D01*
X90822423Y-77703276D01*
X90727185Y-77750895D01*
X90536709Y-77798514D01*
X90393852Y-77798514D01*
X90203376Y-77750895D01*
X90108138Y-77703276D01*
X90012900Y-77608038D01*
X89965280Y-77465180D01*
X89965280Y-77369942D01*
X90012900Y-77227085D01*
X90060519Y-77179466D01*
X90060519Y-76798514D02*
X90012900Y-76750895D01*
X89965280Y-76655657D01*
X89965280Y-76417561D01*
X90012900Y-76322323D01*
X90060519Y-76274704D01*
X90155757Y-76227085D01*
X90250995Y-76227085D01*
X90393852Y-76274704D01*
X90965280Y-76846133D01*
X90965280Y-76227085D01*
X113677866Y-79106661D02*
X113820723Y-79154280D01*
X114058819Y-79154280D01*
X114154057Y-79106661D01*
X114201676Y-79059042D01*
X114249295Y-78963804D01*
X114249295Y-78868566D01*
X114201676Y-78773328D01*
X114154057Y-78725709D01*
X114058819Y-78678090D01*
X113868342Y-78630471D01*
X113773104Y-78582852D01*
X113725485Y-78535233D01*
X113677866Y-78439995D01*
X113677866Y-78344757D01*
X113725485Y-78249519D01*
X113773104Y-78201900D01*
X113868342Y-78154280D01*
X114106438Y-78154280D01*
X114249295Y-78201900D01*
X114582628Y-78154280D02*
X114820723Y-79154280D01*
X115011200Y-78439995D01*
X115201676Y-79154280D01*
X115439771Y-78154280D01*
X116344533Y-79154280D02*
X115773104Y-79154280D01*
X116058819Y-79154280D02*
X116058819Y-78154280D01*
X115963580Y-78297138D01*
X115868342Y-78392376D01*
X115773104Y-78439995D01*
X113236571Y-72922142D02*
X113188952Y-72969761D01*
X113046095Y-73017380D01*
X112950857Y-73017380D01*
X112808000Y-72969761D01*
X112712761Y-72874523D01*
X112665142Y-72779285D01*
X112617523Y-72588809D01*
X112617523Y-72445952D01*
X112665142Y-72255476D01*
X112712761Y-72160238D01*
X112808000Y-72065000D01*
X112950857Y-72017380D01*
X113046095Y-72017380D01*
X113188952Y-72065000D01*
X113236571Y-72112619D01*
X113808000Y-73017380D02*
X113712761Y-72969761D01*
X113665142Y-72922142D01*
X113617523Y-72826904D01*
X113617523Y-72541190D01*
X113665142Y-72445952D01*
X113712761Y-72398333D01*
X113808000Y-72350714D01*
X113950857Y-72350714D01*
X114046095Y-72398333D01*
X114093714Y-72445952D01*
X114141333Y-72541190D01*
X114141333Y-72826904D01*
X114093714Y-72922142D01*
X114046095Y-72969761D01*
X113950857Y-73017380D01*
X113808000Y-73017380D01*
X114569904Y-72350714D02*
X114569904Y-73017380D01*
X114569904Y-72445952D02*
X114617523Y-72398333D01*
X114712761Y-72350714D01*
X114855619Y-72350714D01*
X114950857Y-72398333D01*
X114998476Y-72493571D01*
X114998476Y-73017380D01*
X115331809Y-72350714D02*
X115712761Y-72350714D01*
X115474666Y-73017380D02*
X115474666Y-72160238D01*
X115522285Y-72065000D01*
X115617523Y-72017380D01*
X115712761Y-72017380D01*
X116046095Y-73017380D02*
X116046095Y-72350714D01*
X116046095Y-72017380D02*
X115998476Y-72065000D01*
X116046095Y-72112619D01*
X116093714Y-72065000D01*
X116046095Y-72017380D01*
X116046095Y-72112619D01*
X116950857Y-72350714D02*
X116950857Y-73160238D01*
X116903238Y-73255476D01*
X116855619Y-73303095D01*
X116760380Y-73350714D01*
X116617523Y-73350714D01*
X116522285Y-73303095D01*
X116950857Y-72969761D02*
X116855619Y-73017380D01*
X116665142Y-73017380D01*
X116569904Y-72969761D01*
X116522285Y-72922142D01*
X116474666Y-72826904D01*
X116474666Y-72541190D01*
X116522285Y-72445952D01*
X116569904Y-72398333D01*
X116665142Y-72350714D01*
X116855619Y-72350714D01*
X116950857Y-72398333D01*
X93472095Y-80626380D02*
X93472095Y-81435904D01*
X93519714Y-81531142D01*
X93567333Y-81578761D01*
X93662571Y-81626380D01*
X93853047Y-81626380D01*
X93948285Y-81578761D01*
X93995904Y-81531142D01*
X94043523Y-81435904D01*
X94043523Y-80626380D01*
X94424476Y-80626380D02*
X95043523Y-80626380D01*
X94710190Y-81007333D01*
X94853047Y-81007333D01*
X94948285Y-81054952D01*
X94995904Y-81102571D01*
X95043523Y-81197809D01*
X95043523Y-81435904D01*
X94995904Y-81531142D01*
X94948285Y-81578761D01*
X94853047Y-81626380D01*
X94567333Y-81626380D01*
X94472095Y-81578761D01*
X94424476Y-81531142D01*
X103465380Y-94233904D02*
X104274904Y-94233904D01*
X104370142Y-94186285D01*
X104417761Y-94138666D01*
X104465380Y-94043428D01*
X104465380Y-93852952D01*
X104417761Y-93757714D01*
X104370142Y-93710095D01*
X104274904Y-93662476D01*
X103465380Y-93662476D01*
X103560619Y-93233904D02*
X103513000Y-93186285D01*
X103465380Y-93091047D01*
X103465380Y-92852952D01*
X103513000Y-92757714D01*
X103560619Y-92710095D01*
X103655857Y-92662476D01*
X103751095Y-92662476D01*
X103893952Y-92710095D01*
X104465380Y-93281523D01*
X104465380Y-92662476D01*
X80270380Y-67246404D02*
X81079904Y-67246404D01*
X81175142Y-67198785D01*
X81222761Y-67151166D01*
X81270380Y-67055928D01*
X81270380Y-66865452D01*
X81222761Y-66770214D01*
X81175142Y-66722595D01*
X81079904Y-66674976D01*
X80270380Y-66674976D01*
X81270380Y-65674976D02*
X81270380Y-66246404D01*
X81270380Y-65960690D02*
X80270380Y-65960690D01*
X80413238Y-66055928D01*
X80508476Y-66151166D01*
X80556095Y-66246404D01*
X104110180Y-64831790D02*
X103110180Y-64831790D01*
X104014942Y-63784171D02*
X104062561Y-63831790D01*
X104110180Y-63974647D01*
X104110180Y-64069885D01*
X104062561Y-64212742D01*
X103967323Y-64307980D01*
X103872085Y-64355600D01*
X103681609Y-64403219D01*
X103538752Y-64403219D01*
X103348276Y-64355600D01*
X103253038Y-64307980D01*
X103157800Y-64212742D01*
X103110180Y-64069885D01*
X103110180Y-63974647D01*
X103157800Y-63831790D01*
X103205419Y-63784171D01*
X104110180Y-62831790D02*
X104110180Y-63403219D01*
X104110180Y-63117504D02*
X103110180Y-63117504D01*
X103253038Y-63212742D01*
X103348276Y-63307980D01*
X103395895Y-63403219D01*
X105647380Y-76226895D02*
X104647380Y-76226895D01*
X104647380Y-75988800D01*
X104695000Y-75845942D01*
X104790238Y-75750704D01*
X104885476Y-75703085D01*
X105075952Y-75655466D01*
X105218809Y-75655466D01*
X105409285Y-75703085D01*
X105504523Y-75750704D01*
X105599761Y-75845942D01*
X105647380Y-75988800D01*
X105647380Y-76226895D01*
X105647380Y-74703085D02*
X105647380Y-75274514D01*
X105647380Y-74988800D02*
X104647380Y-74988800D01*
X104790238Y-75084038D01*
X104885476Y-75179276D01*
X104933095Y-75274514D01*
M02*
