M48
; DRILL file {KiCad (5.1.4)-1} date 20.09.2019 07:49:55
; FORMAT={-:-/ absolute / inch / decimal}
; #@! TF.CreationDate,2019-09-20T07:49:55+02:00
; #@! TF.GenerationSoftware,Kicad,Pcbnew,(5.1.4)-1
; #@! TF.FileFunction,Plated,1,2,PTH
FMAT,2
INCH
T1C0.0157
T2C0.0315
T3C0.0354
T4C0.0394
%
G90
G05
T1
X3.2478Y-2.4378
X3.3728Y-2.8547
X3.3846Y-2.6409
X3.3889Y-2.5764
X3.4357Y-2.8668
X3.4745Y-2.7021
X3.5415Y-2.2795
X3.573Y-3.3915
X3.6278Y-2.7962
X3.659Y-2.5425
X3.6724Y-3.7859
X3.6796Y-3.3888
X3.7024Y-2.7585
X3.7378Y-3.0466
X3.7379Y-2.8489
X4.1775Y-3.004
X4.26Y-2.1275
X4.5825Y-2.6
X4.855Y-2.29
T2
X4.169Y-2.219
X4.169Y-2.2977
X4.169Y-2.3765
X4.169Y-2.4552
X4.169Y-2.534
X4.169Y-2.6127
X4.169Y-2.6914
X4.169Y-2.7702
T3
X4.025Y-2.872
X4.025Y-2.972
X4.025Y-3.072
T4
X4.96Y-2.875
X4.96Y-3.075
X3.7775Y-2.2465
X3.7775Y-2.3465
X3.7775Y-2.4465
X3.7775Y-2.5465
X3.7775Y-2.6465
X3.7775Y-2.7465
X3.325Y-2.99
X3.325Y-3.09
X3.325Y-3.19
X3.325Y-3.29
X3.325Y-3.39
X3.325Y-3.49
X3.09Y-2.875
X3.09Y-3.075
T0
M30
