G04 #@! TF.GenerationSoftware,KiCad,Pcbnew,(5.1.4)-1*
G04 #@! TF.CreationDate,2019-09-10T08:34:51+02:00*
G04 #@! TF.ProjectId,hb-rc-2-pbu-led,68622d72-632d-4322-9d70-62752d6c6564,rev?*
G04 #@! TF.SameCoordinates,Original*
G04 #@! TF.FileFunction,Copper,L2,Bot*
G04 #@! TF.FilePolarity,Positive*
%FSLAX46Y46*%
G04 Gerber Fmt 4.6, Leading zero omitted, Abs format (unit mm)*
G04 Created by KiCad (PCBNEW (5.1.4)-1) date 2019-09-10 08:34:51*
%MOMM*%
%LPD*%
G04 APERTURE LIST*
%ADD10O,1.800000X1.800000*%
%ADD11R,1.800000X1.800000*%
%ADD12O,1.700000X1.700000*%
%ADD13R,1.700000X1.700000*%
%ADD14O,1.350000X1.350000*%
%ADD15R,1.350000X1.350000*%
%ADD16C,1.800000*%
%ADD17C,0.800000*%
%ADD18C,0.250000*%
%ADD19C,0.254000*%
G04 APERTURE END LIST*
D10*
X125984000Y-73025000D03*
D11*
X125984000Y-78105000D03*
D10*
X78486000Y-78105000D03*
D11*
X78486000Y-73025000D03*
D12*
X95948500Y-69761100D03*
X95948500Y-67221100D03*
X95948500Y-64681100D03*
X95948500Y-62141100D03*
X95948500Y-59601100D03*
D13*
X95948500Y-57061100D03*
D12*
X84455000Y-88646000D03*
X84455000Y-86106000D03*
X84455000Y-83566000D03*
X84455000Y-81026000D03*
X84455000Y-78486000D03*
D13*
X84455000Y-75946000D03*
D14*
X105893000Y-70362600D03*
X105893000Y-68362600D03*
X105893000Y-66362600D03*
X105893000Y-64362600D03*
X105893000Y-62362600D03*
X105893000Y-60362600D03*
X105893000Y-58362600D03*
D15*
X105893000Y-56362600D03*
D16*
X102235000Y-72948800D03*
X102235000Y-75488800D03*
D11*
X102235000Y-78028800D03*
D17*
X93500700Y-70141900D03*
X88007700Y-66140600D03*
X92548000Y-63528300D03*
X86901700Y-96161600D03*
X89666600Y-66962900D03*
X95305700Y-86074400D03*
X91412100Y-72281300D03*
X84219400Y-63839900D03*
X91966200Y-71305700D03*
X86406900Y-63140800D03*
X111125000Y-54219700D03*
X90665500Y-54220600D03*
D18*
X95948500Y-69761100D02*
X94773200Y-69761100D01*
X93500700Y-70141900D02*
X94392400Y-70141900D01*
X94392400Y-70141900D02*
X94773200Y-69761100D01*
X105893000Y-68362600D02*
X104892700Y-68362600D01*
X104892700Y-68362600D02*
X102575900Y-66045800D01*
X102575900Y-66045800D02*
X88102500Y-66045800D01*
X88102500Y-66045800D02*
X88007700Y-66140600D01*
X95948500Y-64681100D02*
X97123800Y-64681100D01*
X105893000Y-62362600D02*
X99442300Y-62362600D01*
X99442300Y-62362600D02*
X97123800Y-64681100D01*
X95948500Y-62141100D02*
X97123800Y-62141100D01*
X105893000Y-60362600D02*
X98902300Y-60362600D01*
X98902300Y-60362600D02*
X97123800Y-62141100D01*
X95948500Y-62141100D02*
X93935200Y-62141100D01*
X93935200Y-62141100D02*
X92548000Y-63528300D01*
X95305700Y-86074400D02*
X95305700Y-87757600D01*
X95305700Y-87757600D02*
X86901700Y-96161600D01*
X89666600Y-66962900D02*
X89666600Y-67664000D01*
X89666600Y-67664000D02*
X95305700Y-73303100D01*
X95305700Y-73303100D02*
X95305700Y-86074400D01*
X84219400Y-63839900D02*
X84219400Y-65088600D01*
X84219400Y-65088600D02*
X91412100Y-72281300D01*
X86406900Y-63140800D02*
X86406900Y-65746400D01*
X86406900Y-65746400D02*
X91966200Y-71305700D01*
X90665500Y-54220600D02*
X111124100Y-54220600D01*
X111124100Y-54220600D02*
X111125000Y-54219700D01*
D19*
G36*
X89748295Y-53730344D02*
G01*
X89670274Y-53918702D01*
X89630500Y-54118661D01*
X89630500Y-54322539D01*
X89670274Y-54522498D01*
X89748295Y-54710856D01*
X89861563Y-54880374D01*
X90005726Y-55024537D01*
X90175244Y-55137805D01*
X90363602Y-55215826D01*
X90563561Y-55255600D01*
X90767439Y-55255600D01*
X90967398Y-55215826D01*
X91155756Y-55137805D01*
X91325274Y-55024537D01*
X91369211Y-54980600D01*
X110422189Y-54980600D01*
X110465226Y-55023637D01*
X110634744Y-55136905D01*
X110823102Y-55214926D01*
X111023061Y-55254700D01*
X111226939Y-55254700D01*
X111426898Y-55214926D01*
X111615256Y-55136905D01*
X111784774Y-55023637D01*
X111928937Y-54879474D01*
X112042205Y-54709956D01*
X112120226Y-54521598D01*
X112160000Y-54321639D01*
X112160000Y-54117761D01*
X112120226Y-53917802D01*
X112042205Y-53729444D01*
X111995804Y-53660000D01*
X122916620Y-53660000D01*
X126340000Y-57083381D01*
X126340000Y-71528921D01*
X126284913Y-71512210D01*
X126059408Y-71490000D01*
X125908592Y-71490000D01*
X125683087Y-71512210D01*
X125393739Y-71599983D01*
X125127073Y-71742519D01*
X124893339Y-71934339D01*
X124701519Y-72168073D01*
X124558983Y-72434739D01*
X124471210Y-72724087D01*
X124441573Y-73025000D01*
X124471210Y-73325913D01*
X124558983Y-73615261D01*
X124701519Y-73881927D01*
X124893339Y-74115661D01*
X125127073Y-74307481D01*
X125393739Y-74450017D01*
X125683087Y-74537790D01*
X125908592Y-74560000D01*
X126059408Y-74560000D01*
X126284913Y-74537790D01*
X126340000Y-74521079D01*
X126340001Y-76569649D01*
X126269750Y-76570000D01*
X126111000Y-76728750D01*
X126111000Y-77978000D01*
X126131000Y-77978000D01*
X126131000Y-78232000D01*
X126111000Y-78232000D01*
X126111000Y-79481250D01*
X126269750Y-79640000D01*
X126340001Y-79640351D01*
X126340001Y-93735975D01*
X122907168Y-97340000D01*
X81562833Y-97340000D01*
X78130000Y-93735977D01*
X78130000Y-89002890D01*
X83013524Y-89002890D01*
X83058175Y-89150099D01*
X83183359Y-89412920D01*
X83357412Y-89646269D01*
X83573645Y-89841178D01*
X83823748Y-89990157D01*
X84098109Y-90087481D01*
X84328000Y-89966814D01*
X84328000Y-88773000D01*
X84582000Y-88773000D01*
X84582000Y-89966814D01*
X84811891Y-90087481D01*
X85086252Y-89990157D01*
X85336355Y-89841178D01*
X85552588Y-89646269D01*
X85726641Y-89412920D01*
X85851825Y-89150099D01*
X85896476Y-89002890D01*
X85775155Y-88773000D01*
X84582000Y-88773000D01*
X84328000Y-88773000D01*
X83134845Y-88773000D01*
X83013524Y-89002890D01*
X78130000Y-89002890D01*
X78130000Y-86462890D01*
X83013524Y-86462890D01*
X83058175Y-86610099D01*
X83183359Y-86872920D01*
X83357412Y-87106269D01*
X83573645Y-87301178D01*
X83699255Y-87376000D01*
X83573645Y-87450822D01*
X83357412Y-87645731D01*
X83183359Y-87879080D01*
X83058175Y-88141901D01*
X83013524Y-88289110D01*
X83134845Y-88519000D01*
X84328000Y-88519000D01*
X84328000Y-86233000D01*
X84582000Y-86233000D01*
X84582000Y-88519000D01*
X85775155Y-88519000D01*
X85896476Y-88289110D01*
X85851825Y-88141901D01*
X85726641Y-87879080D01*
X85552588Y-87645731D01*
X85336355Y-87450822D01*
X85210745Y-87376000D01*
X85336355Y-87301178D01*
X85552588Y-87106269D01*
X85726641Y-86872920D01*
X85851825Y-86610099D01*
X85896476Y-86462890D01*
X85775155Y-86233000D01*
X84582000Y-86233000D01*
X84328000Y-86233000D01*
X83134845Y-86233000D01*
X83013524Y-86462890D01*
X78130000Y-86462890D01*
X78130000Y-79591600D01*
X78359000Y-79475378D01*
X78359000Y-78232000D01*
X78613000Y-78232000D01*
X78613000Y-79475378D01*
X78850740Y-79596036D01*
X79011107Y-79547394D01*
X79282414Y-79417236D01*
X79523116Y-79236649D01*
X79723962Y-79012573D01*
X79877234Y-78753620D01*
X79971324Y-78486000D01*
X82962815Y-78486000D01*
X82991487Y-78777111D01*
X83076401Y-79057034D01*
X83214294Y-79315014D01*
X83399866Y-79541134D01*
X83625986Y-79726706D01*
X83680791Y-79756000D01*
X83625986Y-79785294D01*
X83399866Y-79970866D01*
X83214294Y-80196986D01*
X83076401Y-80454966D01*
X82991487Y-80734889D01*
X82962815Y-81026000D01*
X82991487Y-81317111D01*
X83076401Y-81597034D01*
X83214294Y-81855014D01*
X83399866Y-82081134D01*
X83625986Y-82266706D01*
X83680791Y-82296000D01*
X83625986Y-82325294D01*
X83399866Y-82510866D01*
X83214294Y-82736986D01*
X83076401Y-82994966D01*
X82991487Y-83274889D01*
X82962815Y-83566000D01*
X82991487Y-83857111D01*
X83076401Y-84137034D01*
X83214294Y-84395014D01*
X83399866Y-84621134D01*
X83625986Y-84806706D01*
X83690523Y-84841201D01*
X83573645Y-84910822D01*
X83357412Y-85105731D01*
X83183359Y-85339080D01*
X83058175Y-85601901D01*
X83013524Y-85749110D01*
X83134845Y-85979000D01*
X84328000Y-85979000D01*
X84328000Y-85959000D01*
X84582000Y-85959000D01*
X84582000Y-85979000D01*
X85775155Y-85979000D01*
X85896476Y-85749110D01*
X85851825Y-85601901D01*
X85726641Y-85339080D01*
X85552588Y-85105731D01*
X85336355Y-84910822D01*
X85219477Y-84841201D01*
X85284014Y-84806706D01*
X85510134Y-84621134D01*
X85695706Y-84395014D01*
X85833599Y-84137034D01*
X85918513Y-83857111D01*
X85947185Y-83566000D01*
X85918513Y-83274889D01*
X85833599Y-82994966D01*
X85695706Y-82736986D01*
X85510134Y-82510866D01*
X85284014Y-82325294D01*
X85229209Y-82296000D01*
X85284014Y-82266706D01*
X85510134Y-82081134D01*
X85695706Y-81855014D01*
X85833599Y-81597034D01*
X85918513Y-81317111D01*
X85947185Y-81026000D01*
X85918513Y-80734889D01*
X85833599Y-80454966D01*
X85695706Y-80196986D01*
X85510134Y-79970866D01*
X85284014Y-79785294D01*
X85229209Y-79756000D01*
X85284014Y-79726706D01*
X85510134Y-79541134D01*
X85695706Y-79315014D01*
X85833599Y-79057034D01*
X85918513Y-78777111D01*
X85947185Y-78486000D01*
X85918513Y-78194889D01*
X85833599Y-77914966D01*
X85695706Y-77656986D01*
X85510134Y-77430866D01*
X85480313Y-77406393D01*
X85549180Y-77385502D01*
X85659494Y-77326537D01*
X85756185Y-77247185D01*
X85835537Y-77150494D01*
X85894502Y-77040180D01*
X85930812Y-76920482D01*
X85943072Y-76796000D01*
X85943072Y-75096000D01*
X85930812Y-74971518D01*
X85894502Y-74851820D01*
X85835537Y-74741506D01*
X85756185Y-74644815D01*
X85659494Y-74565463D01*
X85549180Y-74506498D01*
X85429482Y-74470188D01*
X85305000Y-74457928D01*
X83605000Y-74457928D01*
X83480518Y-74470188D01*
X83360820Y-74506498D01*
X83250506Y-74565463D01*
X83153815Y-74644815D01*
X83074463Y-74741506D01*
X83015498Y-74851820D01*
X82979188Y-74971518D01*
X82966928Y-75096000D01*
X82966928Y-76796000D01*
X82979188Y-76920482D01*
X83015498Y-77040180D01*
X83074463Y-77150494D01*
X83153815Y-77247185D01*
X83250506Y-77326537D01*
X83360820Y-77385502D01*
X83429687Y-77406393D01*
X83399866Y-77430866D01*
X83214294Y-77656986D01*
X83076401Y-77914966D01*
X82991487Y-78194889D01*
X82962815Y-78486000D01*
X79971324Y-78486000D01*
X79977041Y-78469741D01*
X79856992Y-78232000D01*
X78613000Y-78232000D01*
X78359000Y-78232000D01*
X78339000Y-78232000D01*
X78339000Y-77978000D01*
X78359000Y-77978000D01*
X78359000Y-76734622D01*
X78613000Y-76734622D01*
X78613000Y-77978000D01*
X79856992Y-77978000D01*
X79977041Y-77740259D01*
X79877234Y-77456380D01*
X79723962Y-77197427D01*
X79523116Y-76973351D01*
X79282414Y-76792764D01*
X79011107Y-76662606D01*
X78850740Y-76613964D01*
X78613000Y-76734622D01*
X78359000Y-76734622D01*
X78130000Y-76618400D01*
X78130000Y-74563072D01*
X79386000Y-74563072D01*
X79510482Y-74550812D01*
X79630180Y-74514502D01*
X79740494Y-74455537D01*
X79837185Y-74376185D01*
X79916537Y-74279494D01*
X79975502Y-74169180D01*
X80011812Y-74049482D01*
X80024072Y-73925000D01*
X80024072Y-72125000D01*
X80011812Y-72000518D01*
X79975502Y-71880820D01*
X79916537Y-71770506D01*
X79837185Y-71673815D01*
X79740494Y-71594463D01*
X79630180Y-71535498D01*
X79510482Y-71499188D01*
X79386000Y-71486928D01*
X78130000Y-71486928D01*
X78130000Y-63737961D01*
X83184400Y-63737961D01*
X83184400Y-63941839D01*
X83224174Y-64141798D01*
X83302195Y-64330156D01*
X83415463Y-64499674D01*
X83459401Y-64543612D01*
X83459401Y-65051268D01*
X83455724Y-65088600D01*
X83459401Y-65125933D01*
X83470398Y-65237586D01*
X83474811Y-65252134D01*
X83513854Y-65380846D01*
X83584426Y-65512876D01*
X83653806Y-65597415D01*
X83679400Y-65628601D01*
X83708398Y-65652399D01*
X90377100Y-72321102D01*
X90377100Y-72383239D01*
X90416874Y-72583198D01*
X90494895Y-72771556D01*
X90608163Y-72941074D01*
X90752326Y-73085237D01*
X90921844Y-73198505D01*
X91110202Y-73276526D01*
X91310161Y-73316300D01*
X91514039Y-73316300D01*
X91713998Y-73276526D01*
X91902356Y-73198505D01*
X92071874Y-73085237D01*
X92216037Y-72941074D01*
X92329305Y-72771556D01*
X92407326Y-72583198D01*
X92447100Y-72383239D01*
X92447100Y-72226780D01*
X92456456Y-72222905D01*
X92625974Y-72109637D01*
X92770137Y-71965474D01*
X92819458Y-71891660D01*
X94545700Y-73617902D01*
X94545701Y-85370688D01*
X94501763Y-85414626D01*
X94388495Y-85584144D01*
X94310474Y-85772502D01*
X94270700Y-85972461D01*
X94270700Y-86176339D01*
X94310474Y-86376298D01*
X94388495Y-86564656D01*
X94501763Y-86734174D01*
X94545700Y-86778111D01*
X94545701Y-87442797D01*
X86861899Y-95126600D01*
X86799761Y-95126600D01*
X86599802Y-95166374D01*
X86411444Y-95244395D01*
X86241926Y-95357663D01*
X86097763Y-95501826D01*
X85984495Y-95671344D01*
X85906474Y-95859702D01*
X85866700Y-96059661D01*
X85866700Y-96263539D01*
X85906474Y-96463498D01*
X85984495Y-96651856D01*
X86097763Y-96821374D01*
X86241926Y-96965537D01*
X86411444Y-97078805D01*
X86599802Y-97156826D01*
X86799761Y-97196600D01*
X87003639Y-97196600D01*
X87203598Y-97156826D01*
X87391956Y-97078805D01*
X87561474Y-96965537D01*
X87705637Y-96821374D01*
X87818905Y-96651856D01*
X87896926Y-96463498D01*
X87936700Y-96263539D01*
X87936700Y-96201401D01*
X95816703Y-88321399D01*
X95845701Y-88297601D01*
X95940674Y-88181876D01*
X96011246Y-88049847D01*
X96054703Y-87906586D01*
X96065700Y-87794933D01*
X96065700Y-87794925D01*
X96069376Y-87757600D01*
X96065700Y-87720275D01*
X96065700Y-86778111D01*
X96109637Y-86734174D01*
X96222905Y-86564656D01*
X96300926Y-86376298D01*
X96340700Y-86176339D01*
X96340700Y-85972461D01*
X96300926Y-85772502D01*
X96222905Y-85584144D01*
X96109637Y-85414626D01*
X96065700Y-85370689D01*
X96065700Y-75555353D01*
X100694009Y-75555353D01*
X100736603Y-75854707D01*
X100836778Y-76139999D01*
X100916739Y-76289592D01*
X101170918Y-76373274D01*
X101054970Y-76489222D01*
X101101735Y-76535987D01*
X101090820Y-76539298D01*
X100980506Y-76598263D01*
X100883815Y-76677615D01*
X100804463Y-76774306D01*
X100745498Y-76884620D01*
X100709188Y-77004318D01*
X100696928Y-77128800D01*
X100696928Y-78928800D01*
X100709188Y-79053282D01*
X100745498Y-79172980D01*
X100804463Y-79283294D01*
X100883815Y-79379985D01*
X100980506Y-79459337D01*
X101090820Y-79518302D01*
X101210518Y-79554612D01*
X101335000Y-79566872D01*
X103135000Y-79566872D01*
X103259482Y-79554612D01*
X103379180Y-79518302D01*
X103489494Y-79459337D01*
X103586185Y-79379985D01*
X103665537Y-79283294D01*
X103724502Y-79172980D01*
X103760812Y-79053282D01*
X103765567Y-79005000D01*
X124445928Y-79005000D01*
X124458188Y-79129482D01*
X124494498Y-79249180D01*
X124553463Y-79359494D01*
X124632815Y-79456185D01*
X124729506Y-79535537D01*
X124839820Y-79594502D01*
X124959518Y-79630812D01*
X125084000Y-79643072D01*
X125698250Y-79640000D01*
X125857000Y-79481250D01*
X125857000Y-78232000D01*
X124607750Y-78232000D01*
X124449000Y-78390750D01*
X124445928Y-79005000D01*
X103765567Y-79005000D01*
X103773072Y-78928800D01*
X103773072Y-77205000D01*
X124445928Y-77205000D01*
X124449000Y-77819250D01*
X124607750Y-77978000D01*
X125857000Y-77978000D01*
X125857000Y-76728750D01*
X125698250Y-76570000D01*
X125084000Y-76566928D01*
X124959518Y-76579188D01*
X124839820Y-76615498D01*
X124729506Y-76674463D01*
X124632815Y-76753815D01*
X124553463Y-76850506D01*
X124494498Y-76960820D01*
X124458188Y-77080518D01*
X124445928Y-77205000D01*
X103773072Y-77205000D01*
X103773072Y-77128800D01*
X103760812Y-77004318D01*
X103724502Y-76884620D01*
X103665537Y-76774306D01*
X103586185Y-76677615D01*
X103489494Y-76598263D01*
X103379180Y-76539298D01*
X103368265Y-76535987D01*
X103415030Y-76489222D01*
X103299082Y-76373274D01*
X103553261Y-76289592D01*
X103684158Y-76017025D01*
X103759365Y-75724158D01*
X103775991Y-75422247D01*
X103733397Y-75122893D01*
X103633222Y-74837601D01*
X103553261Y-74688008D01*
X103299080Y-74604325D01*
X102414605Y-75488800D01*
X102428748Y-75502943D01*
X102249143Y-75682548D01*
X102235000Y-75668405D01*
X102220858Y-75682548D01*
X102041253Y-75502943D01*
X102055395Y-75488800D01*
X101170920Y-74604325D01*
X100916739Y-74688008D01*
X100785842Y-74960575D01*
X100710635Y-75253442D01*
X100694009Y-75555353D01*
X96065700Y-75555353D01*
X96065700Y-73340425D01*
X96069376Y-73303100D01*
X96065700Y-73265775D01*
X96065700Y-73265767D01*
X96054703Y-73154114D01*
X96011246Y-73010853D01*
X95940674Y-72878824D01*
X95874029Y-72797616D01*
X100700000Y-72797616D01*
X100700000Y-73099984D01*
X100758989Y-73396543D01*
X100874701Y-73675895D01*
X101042688Y-73927305D01*
X101256495Y-74141112D01*
X101410105Y-74243751D01*
X101350525Y-74424720D01*
X102235000Y-75309195D01*
X103119475Y-74424720D01*
X103059895Y-74243751D01*
X103213505Y-74141112D01*
X103427312Y-73927305D01*
X103595299Y-73675895D01*
X103711011Y-73396543D01*
X103770000Y-73099984D01*
X103770000Y-72797616D01*
X103711011Y-72501057D01*
X103595299Y-72221705D01*
X103427312Y-71970295D01*
X103213505Y-71756488D01*
X102962095Y-71588501D01*
X102682743Y-71472789D01*
X102386184Y-71413800D01*
X102083816Y-71413800D01*
X101787257Y-71472789D01*
X101507905Y-71588501D01*
X101256495Y-71756488D01*
X101042688Y-71970295D01*
X100874701Y-72221705D01*
X100758989Y-72501057D01*
X100700000Y-72797616D01*
X95874029Y-72797616D01*
X95845701Y-72763099D01*
X95816704Y-72739302D01*
X94078207Y-71000806D01*
X94160474Y-70945837D01*
X94204411Y-70901900D01*
X94355078Y-70901900D01*
X94392400Y-70905576D01*
X94429722Y-70901900D01*
X94429733Y-70901900D01*
X94541386Y-70890903D01*
X94684647Y-70847446D01*
X94816676Y-70776874D01*
X94843200Y-70755106D01*
X94893366Y-70816234D01*
X95119486Y-71001806D01*
X95377466Y-71139699D01*
X95657389Y-71224613D01*
X95875550Y-71246100D01*
X96021450Y-71246100D01*
X96239611Y-71224613D01*
X96519534Y-71139699D01*
X96777514Y-71001806D01*
X97003634Y-70816234D01*
X97189206Y-70590114D01*
X97327099Y-70332134D01*
X97412013Y-70052211D01*
X97440685Y-69761100D01*
X97412013Y-69469989D01*
X97327099Y-69190066D01*
X97189206Y-68932086D01*
X97003634Y-68705966D01*
X96777514Y-68520394D01*
X96722709Y-68491100D01*
X96777514Y-68461806D01*
X97003634Y-68276234D01*
X97189206Y-68050114D01*
X97327099Y-67792134D01*
X97412013Y-67512211D01*
X97440685Y-67221100D01*
X97412013Y-66929989D01*
X97374341Y-66805800D01*
X102261099Y-66805800D01*
X104328901Y-68873603D01*
X104352699Y-68902601D01*
X104381697Y-68926399D01*
X104468423Y-68997574D01*
X104571369Y-69052600D01*
X104600453Y-69068146D01*
X104743714Y-69111603D01*
X104819113Y-69119029D01*
X104962208Y-69293392D01*
X105046539Y-69362600D01*
X104962208Y-69431808D01*
X104798505Y-69631282D01*
X104676862Y-69858859D01*
X104601955Y-70105795D01*
X104576662Y-70362600D01*
X104601955Y-70619405D01*
X104676862Y-70866341D01*
X104798505Y-71093918D01*
X104962208Y-71293392D01*
X105161682Y-71457095D01*
X105389259Y-71578738D01*
X105636195Y-71653645D01*
X105828649Y-71672600D01*
X105957351Y-71672600D01*
X106149805Y-71653645D01*
X106396741Y-71578738D01*
X106624318Y-71457095D01*
X106823792Y-71293392D01*
X106987495Y-71093918D01*
X107109138Y-70866341D01*
X107184045Y-70619405D01*
X107209338Y-70362600D01*
X107184045Y-70105795D01*
X107109138Y-69858859D01*
X106987495Y-69631282D01*
X106823792Y-69431808D01*
X106739461Y-69362600D01*
X106823792Y-69293392D01*
X106987495Y-69093918D01*
X107109138Y-68866341D01*
X107184045Y-68619405D01*
X107209338Y-68362600D01*
X107184045Y-68105795D01*
X107109138Y-67858859D01*
X106987495Y-67631282D01*
X106823792Y-67431808D01*
X106739461Y-67362600D01*
X106823792Y-67293392D01*
X106987495Y-67093918D01*
X107109138Y-66866341D01*
X107184045Y-66619405D01*
X107209338Y-66362600D01*
X107184045Y-66105795D01*
X107109138Y-65858859D01*
X106987495Y-65631282D01*
X106823792Y-65431808D01*
X106739461Y-65362600D01*
X106823792Y-65293392D01*
X106987495Y-65093918D01*
X107109138Y-64866341D01*
X107184045Y-64619405D01*
X107209338Y-64362600D01*
X107184045Y-64105795D01*
X107129231Y-63925094D01*
X121238508Y-63925094D01*
X121238508Y-64333386D01*
X121318162Y-64733834D01*
X121474409Y-65111047D01*
X121701244Y-65450530D01*
X121989950Y-65739236D01*
X122329433Y-65966071D01*
X122706646Y-66122318D01*
X123107094Y-66201972D01*
X123515386Y-66201972D01*
X123915834Y-66122318D01*
X124293047Y-65966071D01*
X124632530Y-65739236D01*
X124921236Y-65450530D01*
X125148071Y-65111047D01*
X125304318Y-64733834D01*
X125383972Y-64333386D01*
X125383972Y-63925094D01*
X125304318Y-63524646D01*
X125148071Y-63147433D01*
X124921236Y-62807950D01*
X124632530Y-62519244D01*
X124293047Y-62292409D01*
X123915834Y-62136162D01*
X123515386Y-62056508D01*
X123107094Y-62056508D01*
X122706646Y-62136162D01*
X122329433Y-62292409D01*
X121989950Y-62519244D01*
X121701244Y-62807950D01*
X121474409Y-63147433D01*
X121318162Y-63524646D01*
X121238508Y-63925094D01*
X107129231Y-63925094D01*
X107109138Y-63858859D01*
X106987495Y-63631282D01*
X106823792Y-63431808D01*
X106739461Y-63362600D01*
X106823792Y-63293392D01*
X106987495Y-63093918D01*
X107109138Y-62866341D01*
X107184045Y-62619405D01*
X107209338Y-62362600D01*
X107184045Y-62105795D01*
X107109138Y-61858859D01*
X106987495Y-61631282D01*
X106823792Y-61431808D01*
X106739461Y-61362600D01*
X106823792Y-61293392D01*
X106987495Y-61093918D01*
X107109138Y-60866341D01*
X107184045Y-60619405D01*
X107209338Y-60362600D01*
X107184045Y-60105795D01*
X107109138Y-59858859D01*
X106987495Y-59631282D01*
X106823792Y-59431808D01*
X106735352Y-59359228D01*
X106871303Y-59233827D01*
X107022473Y-59026229D01*
X107130238Y-58793128D01*
X107160910Y-58692000D01*
X107037224Y-58489600D01*
X106020000Y-58489600D01*
X106020000Y-58509600D01*
X105766000Y-58509600D01*
X105766000Y-58489600D01*
X104748776Y-58489600D01*
X104625090Y-58692000D01*
X104655762Y-58793128D01*
X104763527Y-59026229D01*
X104914697Y-59233827D01*
X105050648Y-59359228D01*
X104962208Y-59431808D01*
X104822044Y-59602600D01*
X98939623Y-59602600D01*
X98902300Y-59598924D01*
X98864977Y-59602600D01*
X98864967Y-59602600D01*
X98753314Y-59613597D01*
X98610053Y-59657054D01*
X98478024Y-59727626D01*
X98362299Y-59822599D01*
X98338501Y-59851597D01*
X97048934Y-61141164D01*
X97003634Y-61085966D01*
X96777514Y-60900394D01*
X96712977Y-60865899D01*
X96829855Y-60796278D01*
X97046088Y-60601369D01*
X97220141Y-60368020D01*
X97345325Y-60105199D01*
X97389976Y-59957990D01*
X97268655Y-59728100D01*
X96075500Y-59728100D01*
X96075500Y-59748100D01*
X95821500Y-59748100D01*
X95821500Y-59728100D01*
X94628345Y-59728100D01*
X94507024Y-59957990D01*
X94551675Y-60105199D01*
X94676859Y-60368020D01*
X94850912Y-60601369D01*
X95067145Y-60796278D01*
X95184023Y-60865899D01*
X95119486Y-60900394D01*
X94893366Y-61085966D01*
X94707794Y-61312086D01*
X94670905Y-61381100D01*
X93972522Y-61381100D01*
X93935199Y-61377424D01*
X93897876Y-61381100D01*
X93897867Y-61381100D01*
X93786214Y-61392097D01*
X93655302Y-61431808D01*
X93642953Y-61435554D01*
X93510923Y-61506126D01*
X93433013Y-61570066D01*
X93395199Y-61601099D01*
X93371401Y-61630097D01*
X92508199Y-62493300D01*
X92446061Y-62493300D01*
X92246102Y-62533074D01*
X92057744Y-62611095D01*
X91888226Y-62724363D01*
X91744063Y-62868526D01*
X91630795Y-63038044D01*
X91552774Y-63226402D01*
X91513000Y-63426361D01*
X91513000Y-63630239D01*
X91552774Y-63830198D01*
X91630795Y-64018556D01*
X91744063Y-64188074D01*
X91888226Y-64332237D01*
X92057744Y-64445505D01*
X92246102Y-64523526D01*
X92446061Y-64563300D01*
X92649939Y-64563300D01*
X92849898Y-64523526D01*
X93038256Y-64445505D01*
X93207774Y-64332237D01*
X93351937Y-64188074D01*
X93465205Y-64018556D01*
X93543226Y-63830198D01*
X93583000Y-63630239D01*
X93583000Y-63568101D01*
X94250002Y-62901100D01*
X94670905Y-62901100D01*
X94707794Y-62970114D01*
X94893366Y-63196234D01*
X95119486Y-63381806D01*
X95174291Y-63411100D01*
X95119486Y-63440394D01*
X94893366Y-63625966D01*
X94707794Y-63852086D01*
X94569901Y-64110066D01*
X94484987Y-64389989D01*
X94456315Y-64681100D01*
X94484987Y-64972211D01*
X94569901Y-65252134D01*
X94587896Y-65285800D01*
X88591352Y-65285800D01*
X88497956Y-65223395D01*
X88309598Y-65145374D01*
X88109639Y-65105600D01*
X87905761Y-65105600D01*
X87705802Y-65145374D01*
X87517444Y-65223395D01*
X87347926Y-65336663D01*
X87209945Y-65474644D01*
X87166900Y-65431599D01*
X87166900Y-63844511D01*
X87210837Y-63800574D01*
X87324105Y-63631056D01*
X87402126Y-63442698D01*
X87441900Y-63242739D01*
X87441900Y-63038861D01*
X87402126Y-62838902D01*
X87324105Y-62650544D01*
X87210837Y-62481026D01*
X87066674Y-62336863D01*
X86897156Y-62223595D01*
X86708798Y-62145574D01*
X86508839Y-62105800D01*
X86304961Y-62105800D01*
X86105002Y-62145574D01*
X85916644Y-62223595D01*
X85747126Y-62336863D01*
X85602963Y-62481026D01*
X85489695Y-62650544D01*
X85411674Y-62838902D01*
X85371900Y-63038861D01*
X85371900Y-63242739D01*
X85411674Y-63442698D01*
X85489695Y-63631056D01*
X85602963Y-63800574D01*
X85646900Y-63844511D01*
X85646901Y-65441300D01*
X84979400Y-64773799D01*
X84979400Y-64543611D01*
X85023337Y-64499674D01*
X85136605Y-64330156D01*
X85214626Y-64141798D01*
X85254400Y-63941839D01*
X85254400Y-63737961D01*
X85214626Y-63538002D01*
X85136605Y-63349644D01*
X85023337Y-63180126D01*
X84879174Y-63035963D01*
X84709656Y-62922695D01*
X84521298Y-62844674D01*
X84321339Y-62804900D01*
X84117461Y-62804900D01*
X83917502Y-62844674D01*
X83729144Y-62922695D01*
X83559626Y-63035963D01*
X83415463Y-63180126D01*
X83302195Y-63349644D01*
X83224174Y-63538002D01*
X83184400Y-63737961D01*
X78130000Y-63737961D01*
X78130000Y-57083380D01*
X79002280Y-56211100D01*
X94460428Y-56211100D01*
X94460428Y-57911100D01*
X94472688Y-58035582D01*
X94508998Y-58155280D01*
X94567963Y-58265594D01*
X94647315Y-58362285D01*
X94744006Y-58441637D01*
X94854320Y-58500602D01*
X94934966Y-58525066D01*
X94850912Y-58600831D01*
X94676859Y-58834180D01*
X94551675Y-59097001D01*
X94507024Y-59244210D01*
X94628345Y-59474100D01*
X95821500Y-59474100D01*
X95821500Y-59454100D01*
X96075500Y-59454100D01*
X96075500Y-59474100D01*
X97268655Y-59474100D01*
X97389976Y-59244210D01*
X97345325Y-59097001D01*
X97220141Y-58834180D01*
X97046088Y-58600831D01*
X96962034Y-58525066D01*
X97042680Y-58500602D01*
X97152994Y-58441637D01*
X97249685Y-58362285D01*
X97329037Y-58265594D01*
X97388002Y-58155280D01*
X97424312Y-58035582D01*
X97436572Y-57911100D01*
X97436572Y-56211100D01*
X97424312Y-56086618D01*
X97388002Y-55966920D01*
X97329037Y-55856606D01*
X97249685Y-55759915D01*
X97161569Y-55687600D01*
X104579928Y-55687600D01*
X104579928Y-57037600D01*
X104592188Y-57162082D01*
X104628498Y-57281780D01*
X104687463Y-57392094D01*
X104766815Y-57488785D01*
X104860559Y-57565719D01*
X104763527Y-57698971D01*
X104655762Y-57932072D01*
X104625090Y-58033200D01*
X104748776Y-58235600D01*
X105766000Y-58235600D01*
X105766000Y-58215600D01*
X106020000Y-58215600D01*
X106020000Y-58235600D01*
X107037224Y-58235600D01*
X107160910Y-58033200D01*
X107130238Y-57932072D01*
X107022473Y-57698971D01*
X106925441Y-57565719D01*
X107019185Y-57488785D01*
X107098537Y-57392094D01*
X107157502Y-57281780D01*
X107193812Y-57162082D01*
X107206072Y-57037600D01*
X107206072Y-55687600D01*
X107193812Y-55563118D01*
X107157502Y-55443420D01*
X107098537Y-55333106D01*
X107019185Y-55236415D01*
X106922494Y-55157063D01*
X106812180Y-55098098D01*
X106692482Y-55061788D01*
X106568000Y-55049528D01*
X105218000Y-55049528D01*
X105093518Y-55061788D01*
X104973820Y-55098098D01*
X104863506Y-55157063D01*
X104766815Y-55236415D01*
X104687463Y-55333106D01*
X104628498Y-55443420D01*
X104592188Y-55563118D01*
X104579928Y-55687600D01*
X97161569Y-55687600D01*
X97152994Y-55680563D01*
X97042680Y-55621598D01*
X96922982Y-55585288D01*
X96798500Y-55573028D01*
X95098500Y-55573028D01*
X94974018Y-55585288D01*
X94854320Y-55621598D01*
X94744006Y-55680563D01*
X94647315Y-55759915D01*
X94567963Y-55856606D01*
X94508998Y-55966920D01*
X94472688Y-56086618D01*
X94460428Y-56211100D01*
X79002280Y-56211100D01*
X81553381Y-53660000D01*
X89795297Y-53660000D01*
X89748295Y-53730344D01*
X89748295Y-53730344D01*
G37*
X89748295Y-53730344D02*
X89670274Y-53918702D01*
X89630500Y-54118661D01*
X89630500Y-54322539D01*
X89670274Y-54522498D01*
X89748295Y-54710856D01*
X89861563Y-54880374D01*
X90005726Y-55024537D01*
X90175244Y-55137805D01*
X90363602Y-55215826D01*
X90563561Y-55255600D01*
X90767439Y-55255600D01*
X90967398Y-55215826D01*
X91155756Y-55137805D01*
X91325274Y-55024537D01*
X91369211Y-54980600D01*
X110422189Y-54980600D01*
X110465226Y-55023637D01*
X110634744Y-55136905D01*
X110823102Y-55214926D01*
X111023061Y-55254700D01*
X111226939Y-55254700D01*
X111426898Y-55214926D01*
X111615256Y-55136905D01*
X111784774Y-55023637D01*
X111928937Y-54879474D01*
X112042205Y-54709956D01*
X112120226Y-54521598D01*
X112160000Y-54321639D01*
X112160000Y-54117761D01*
X112120226Y-53917802D01*
X112042205Y-53729444D01*
X111995804Y-53660000D01*
X122916620Y-53660000D01*
X126340000Y-57083381D01*
X126340000Y-71528921D01*
X126284913Y-71512210D01*
X126059408Y-71490000D01*
X125908592Y-71490000D01*
X125683087Y-71512210D01*
X125393739Y-71599983D01*
X125127073Y-71742519D01*
X124893339Y-71934339D01*
X124701519Y-72168073D01*
X124558983Y-72434739D01*
X124471210Y-72724087D01*
X124441573Y-73025000D01*
X124471210Y-73325913D01*
X124558983Y-73615261D01*
X124701519Y-73881927D01*
X124893339Y-74115661D01*
X125127073Y-74307481D01*
X125393739Y-74450017D01*
X125683087Y-74537790D01*
X125908592Y-74560000D01*
X126059408Y-74560000D01*
X126284913Y-74537790D01*
X126340000Y-74521079D01*
X126340001Y-76569649D01*
X126269750Y-76570000D01*
X126111000Y-76728750D01*
X126111000Y-77978000D01*
X126131000Y-77978000D01*
X126131000Y-78232000D01*
X126111000Y-78232000D01*
X126111000Y-79481250D01*
X126269750Y-79640000D01*
X126340001Y-79640351D01*
X126340001Y-93735975D01*
X122907168Y-97340000D01*
X81562833Y-97340000D01*
X78130000Y-93735977D01*
X78130000Y-89002890D01*
X83013524Y-89002890D01*
X83058175Y-89150099D01*
X83183359Y-89412920D01*
X83357412Y-89646269D01*
X83573645Y-89841178D01*
X83823748Y-89990157D01*
X84098109Y-90087481D01*
X84328000Y-89966814D01*
X84328000Y-88773000D01*
X84582000Y-88773000D01*
X84582000Y-89966814D01*
X84811891Y-90087481D01*
X85086252Y-89990157D01*
X85336355Y-89841178D01*
X85552588Y-89646269D01*
X85726641Y-89412920D01*
X85851825Y-89150099D01*
X85896476Y-89002890D01*
X85775155Y-88773000D01*
X84582000Y-88773000D01*
X84328000Y-88773000D01*
X83134845Y-88773000D01*
X83013524Y-89002890D01*
X78130000Y-89002890D01*
X78130000Y-86462890D01*
X83013524Y-86462890D01*
X83058175Y-86610099D01*
X83183359Y-86872920D01*
X83357412Y-87106269D01*
X83573645Y-87301178D01*
X83699255Y-87376000D01*
X83573645Y-87450822D01*
X83357412Y-87645731D01*
X83183359Y-87879080D01*
X83058175Y-88141901D01*
X83013524Y-88289110D01*
X83134845Y-88519000D01*
X84328000Y-88519000D01*
X84328000Y-86233000D01*
X84582000Y-86233000D01*
X84582000Y-88519000D01*
X85775155Y-88519000D01*
X85896476Y-88289110D01*
X85851825Y-88141901D01*
X85726641Y-87879080D01*
X85552588Y-87645731D01*
X85336355Y-87450822D01*
X85210745Y-87376000D01*
X85336355Y-87301178D01*
X85552588Y-87106269D01*
X85726641Y-86872920D01*
X85851825Y-86610099D01*
X85896476Y-86462890D01*
X85775155Y-86233000D01*
X84582000Y-86233000D01*
X84328000Y-86233000D01*
X83134845Y-86233000D01*
X83013524Y-86462890D01*
X78130000Y-86462890D01*
X78130000Y-79591600D01*
X78359000Y-79475378D01*
X78359000Y-78232000D01*
X78613000Y-78232000D01*
X78613000Y-79475378D01*
X78850740Y-79596036D01*
X79011107Y-79547394D01*
X79282414Y-79417236D01*
X79523116Y-79236649D01*
X79723962Y-79012573D01*
X79877234Y-78753620D01*
X79971324Y-78486000D01*
X82962815Y-78486000D01*
X82991487Y-78777111D01*
X83076401Y-79057034D01*
X83214294Y-79315014D01*
X83399866Y-79541134D01*
X83625986Y-79726706D01*
X83680791Y-79756000D01*
X83625986Y-79785294D01*
X83399866Y-79970866D01*
X83214294Y-80196986D01*
X83076401Y-80454966D01*
X82991487Y-80734889D01*
X82962815Y-81026000D01*
X82991487Y-81317111D01*
X83076401Y-81597034D01*
X83214294Y-81855014D01*
X83399866Y-82081134D01*
X83625986Y-82266706D01*
X83680791Y-82296000D01*
X83625986Y-82325294D01*
X83399866Y-82510866D01*
X83214294Y-82736986D01*
X83076401Y-82994966D01*
X82991487Y-83274889D01*
X82962815Y-83566000D01*
X82991487Y-83857111D01*
X83076401Y-84137034D01*
X83214294Y-84395014D01*
X83399866Y-84621134D01*
X83625986Y-84806706D01*
X83690523Y-84841201D01*
X83573645Y-84910822D01*
X83357412Y-85105731D01*
X83183359Y-85339080D01*
X83058175Y-85601901D01*
X83013524Y-85749110D01*
X83134845Y-85979000D01*
X84328000Y-85979000D01*
X84328000Y-85959000D01*
X84582000Y-85959000D01*
X84582000Y-85979000D01*
X85775155Y-85979000D01*
X85896476Y-85749110D01*
X85851825Y-85601901D01*
X85726641Y-85339080D01*
X85552588Y-85105731D01*
X85336355Y-84910822D01*
X85219477Y-84841201D01*
X85284014Y-84806706D01*
X85510134Y-84621134D01*
X85695706Y-84395014D01*
X85833599Y-84137034D01*
X85918513Y-83857111D01*
X85947185Y-83566000D01*
X85918513Y-83274889D01*
X85833599Y-82994966D01*
X85695706Y-82736986D01*
X85510134Y-82510866D01*
X85284014Y-82325294D01*
X85229209Y-82296000D01*
X85284014Y-82266706D01*
X85510134Y-82081134D01*
X85695706Y-81855014D01*
X85833599Y-81597034D01*
X85918513Y-81317111D01*
X85947185Y-81026000D01*
X85918513Y-80734889D01*
X85833599Y-80454966D01*
X85695706Y-80196986D01*
X85510134Y-79970866D01*
X85284014Y-79785294D01*
X85229209Y-79756000D01*
X85284014Y-79726706D01*
X85510134Y-79541134D01*
X85695706Y-79315014D01*
X85833599Y-79057034D01*
X85918513Y-78777111D01*
X85947185Y-78486000D01*
X85918513Y-78194889D01*
X85833599Y-77914966D01*
X85695706Y-77656986D01*
X85510134Y-77430866D01*
X85480313Y-77406393D01*
X85549180Y-77385502D01*
X85659494Y-77326537D01*
X85756185Y-77247185D01*
X85835537Y-77150494D01*
X85894502Y-77040180D01*
X85930812Y-76920482D01*
X85943072Y-76796000D01*
X85943072Y-75096000D01*
X85930812Y-74971518D01*
X85894502Y-74851820D01*
X85835537Y-74741506D01*
X85756185Y-74644815D01*
X85659494Y-74565463D01*
X85549180Y-74506498D01*
X85429482Y-74470188D01*
X85305000Y-74457928D01*
X83605000Y-74457928D01*
X83480518Y-74470188D01*
X83360820Y-74506498D01*
X83250506Y-74565463D01*
X83153815Y-74644815D01*
X83074463Y-74741506D01*
X83015498Y-74851820D01*
X82979188Y-74971518D01*
X82966928Y-75096000D01*
X82966928Y-76796000D01*
X82979188Y-76920482D01*
X83015498Y-77040180D01*
X83074463Y-77150494D01*
X83153815Y-77247185D01*
X83250506Y-77326537D01*
X83360820Y-77385502D01*
X83429687Y-77406393D01*
X83399866Y-77430866D01*
X83214294Y-77656986D01*
X83076401Y-77914966D01*
X82991487Y-78194889D01*
X82962815Y-78486000D01*
X79971324Y-78486000D01*
X79977041Y-78469741D01*
X79856992Y-78232000D01*
X78613000Y-78232000D01*
X78359000Y-78232000D01*
X78339000Y-78232000D01*
X78339000Y-77978000D01*
X78359000Y-77978000D01*
X78359000Y-76734622D01*
X78613000Y-76734622D01*
X78613000Y-77978000D01*
X79856992Y-77978000D01*
X79977041Y-77740259D01*
X79877234Y-77456380D01*
X79723962Y-77197427D01*
X79523116Y-76973351D01*
X79282414Y-76792764D01*
X79011107Y-76662606D01*
X78850740Y-76613964D01*
X78613000Y-76734622D01*
X78359000Y-76734622D01*
X78130000Y-76618400D01*
X78130000Y-74563072D01*
X79386000Y-74563072D01*
X79510482Y-74550812D01*
X79630180Y-74514502D01*
X79740494Y-74455537D01*
X79837185Y-74376185D01*
X79916537Y-74279494D01*
X79975502Y-74169180D01*
X80011812Y-74049482D01*
X80024072Y-73925000D01*
X80024072Y-72125000D01*
X80011812Y-72000518D01*
X79975502Y-71880820D01*
X79916537Y-71770506D01*
X79837185Y-71673815D01*
X79740494Y-71594463D01*
X79630180Y-71535498D01*
X79510482Y-71499188D01*
X79386000Y-71486928D01*
X78130000Y-71486928D01*
X78130000Y-63737961D01*
X83184400Y-63737961D01*
X83184400Y-63941839D01*
X83224174Y-64141798D01*
X83302195Y-64330156D01*
X83415463Y-64499674D01*
X83459401Y-64543612D01*
X83459401Y-65051268D01*
X83455724Y-65088600D01*
X83459401Y-65125933D01*
X83470398Y-65237586D01*
X83474811Y-65252134D01*
X83513854Y-65380846D01*
X83584426Y-65512876D01*
X83653806Y-65597415D01*
X83679400Y-65628601D01*
X83708398Y-65652399D01*
X90377100Y-72321102D01*
X90377100Y-72383239D01*
X90416874Y-72583198D01*
X90494895Y-72771556D01*
X90608163Y-72941074D01*
X90752326Y-73085237D01*
X90921844Y-73198505D01*
X91110202Y-73276526D01*
X91310161Y-73316300D01*
X91514039Y-73316300D01*
X91713998Y-73276526D01*
X91902356Y-73198505D01*
X92071874Y-73085237D01*
X92216037Y-72941074D01*
X92329305Y-72771556D01*
X92407326Y-72583198D01*
X92447100Y-72383239D01*
X92447100Y-72226780D01*
X92456456Y-72222905D01*
X92625974Y-72109637D01*
X92770137Y-71965474D01*
X92819458Y-71891660D01*
X94545700Y-73617902D01*
X94545701Y-85370688D01*
X94501763Y-85414626D01*
X94388495Y-85584144D01*
X94310474Y-85772502D01*
X94270700Y-85972461D01*
X94270700Y-86176339D01*
X94310474Y-86376298D01*
X94388495Y-86564656D01*
X94501763Y-86734174D01*
X94545700Y-86778111D01*
X94545701Y-87442797D01*
X86861899Y-95126600D01*
X86799761Y-95126600D01*
X86599802Y-95166374D01*
X86411444Y-95244395D01*
X86241926Y-95357663D01*
X86097763Y-95501826D01*
X85984495Y-95671344D01*
X85906474Y-95859702D01*
X85866700Y-96059661D01*
X85866700Y-96263539D01*
X85906474Y-96463498D01*
X85984495Y-96651856D01*
X86097763Y-96821374D01*
X86241926Y-96965537D01*
X86411444Y-97078805D01*
X86599802Y-97156826D01*
X86799761Y-97196600D01*
X87003639Y-97196600D01*
X87203598Y-97156826D01*
X87391956Y-97078805D01*
X87561474Y-96965537D01*
X87705637Y-96821374D01*
X87818905Y-96651856D01*
X87896926Y-96463498D01*
X87936700Y-96263539D01*
X87936700Y-96201401D01*
X95816703Y-88321399D01*
X95845701Y-88297601D01*
X95940674Y-88181876D01*
X96011246Y-88049847D01*
X96054703Y-87906586D01*
X96065700Y-87794933D01*
X96065700Y-87794925D01*
X96069376Y-87757600D01*
X96065700Y-87720275D01*
X96065700Y-86778111D01*
X96109637Y-86734174D01*
X96222905Y-86564656D01*
X96300926Y-86376298D01*
X96340700Y-86176339D01*
X96340700Y-85972461D01*
X96300926Y-85772502D01*
X96222905Y-85584144D01*
X96109637Y-85414626D01*
X96065700Y-85370689D01*
X96065700Y-75555353D01*
X100694009Y-75555353D01*
X100736603Y-75854707D01*
X100836778Y-76139999D01*
X100916739Y-76289592D01*
X101170918Y-76373274D01*
X101054970Y-76489222D01*
X101101735Y-76535987D01*
X101090820Y-76539298D01*
X100980506Y-76598263D01*
X100883815Y-76677615D01*
X100804463Y-76774306D01*
X100745498Y-76884620D01*
X100709188Y-77004318D01*
X100696928Y-77128800D01*
X100696928Y-78928800D01*
X100709188Y-79053282D01*
X100745498Y-79172980D01*
X100804463Y-79283294D01*
X100883815Y-79379985D01*
X100980506Y-79459337D01*
X101090820Y-79518302D01*
X101210518Y-79554612D01*
X101335000Y-79566872D01*
X103135000Y-79566872D01*
X103259482Y-79554612D01*
X103379180Y-79518302D01*
X103489494Y-79459337D01*
X103586185Y-79379985D01*
X103665537Y-79283294D01*
X103724502Y-79172980D01*
X103760812Y-79053282D01*
X103765567Y-79005000D01*
X124445928Y-79005000D01*
X124458188Y-79129482D01*
X124494498Y-79249180D01*
X124553463Y-79359494D01*
X124632815Y-79456185D01*
X124729506Y-79535537D01*
X124839820Y-79594502D01*
X124959518Y-79630812D01*
X125084000Y-79643072D01*
X125698250Y-79640000D01*
X125857000Y-79481250D01*
X125857000Y-78232000D01*
X124607750Y-78232000D01*
X124449000Y-78390750D01*
X124445928Y-79005000D01*
X103765567Y-79005000D01*
X103773072Y-78928800D01*
X103773072Y-77205000D01*
X124445928Y-77205000D01*
X124449000Y-77819250D01*
X124607750Y-77978000D01*
X125857000Y-77978000D01*
X125857000Y-76728750D01*
X125698250Y-76570000D01*
X125084000Y-76566928D01*
X124959518Y-76579188D01*
X124839820Y-76615498D01*
X124729506Y-76674463D01*
X124632815Y-76753815D01*
X124553463Y-76850506D01*
X124494498Y-76960820D01*
X124458188Y-77080518D01*
X124445928Y-77205000D01*
X103773072Y-77205000D01*
X103773072Y-77128800D01*
X103760812Y-77004318D01*
X103724502Y-76884620D01*
X103665537Y-76774306D01*
X103586185Y-76677615D01*
X103489494Y-76598263D01*
X103379180Y-76539298D01*
X103368265Y-76535987D01*
X103415030Y-76489222D01*
X103299082Y-76373274D01*
X103553261Y-76289592D01*
X103684158Y-76017025D01*
X103759365Y-75724158D01*
X103775991Y-75422247D01*
X103733397Y-75122893D01*
X103633222Y-74837601D01*
X103553261Y-74688008D01*
X103299080Y-74604325D01*
X102414605Y-75488800D01*
X102428748Y-75502943D01*
X102249143Y-75682548D01*
X102235000Y-75668405D01*
X102220858Y-75682548D01*
X102041253Y-75502943D01*
X102055395Y-75488800D01*
X101170920Y-74604325D01*
X100916739Y-74688008D01*
X100785842Y-74960575D01*
X100710635Y-75253442D01*
X100694009Y-75555353D01*
X96065700Y-75555353D01*
X96065700Y-73340425D01*
X96069376Y-73303100D01*
X96065700Y-73265775D01*
X96065700Y-73265767D01*
X96054703Y-73154114D01*
X96011246Y-73010853D01*
X95940674Y-72878824D01*
X95874029Y-72797616D01*
X100700000Y-72797616D01*
X100700000Y-73099984D01*
X100758989Y-73396543D01*
X100874701Y-73675895D01*
X101042688Y-73927305D01*
X101256495Y-74141112D01*
X101410105Y-74243751D01*
X101350525Y-74424720D01*
X102235000Y-75309195D01*
X103119475Y-74424720D01*
X103059895Y-74243751D01*
X103213505Y-74141112D01*
X103427312Y-73927305D01*
X103595299Y-73675895D01*
X103711011Y-73396543D01*
X103770000Y-73099984D01*
X103770000Y-72797616D01*
X103711011Y-72501057D01*
X103595299Y-72221705D01*
X103427312Y-71970295D01*
X103213505Y-71756488D01*
X102962095Y-71588501D01*
X102682743Y-71472789D01*
X102386184Y-71413800D01*
X102083816Y-71413800D01*
X101787257Y-71472789D01*
X101507905Y-71588501D01*
X101256495Y-71756488D01*
X101042688Y-71970295D01*
X100874701Y-72221705D01*
X100758989Y-72501057D01*
X100700000Y-72797616D01*
X95874029Y-72797616D01*
X95845701Y-72763099D01*
X95816704Y-72739302D01*
X94078207Y-71000806D01*
X94160474Y-70945837D01*
X94204411Y-70901900D01*
X94355078Y-70901900D01*
X94392400Y-70905576D01*
X94429722Y-70901900D01*
X94429733Y-70901900D01*
X94541386Y-70890903D01*
X94684647Y-70847446D01*
X94816676Y-70776874D01*
X94843200Y-70755106D01*
X94893366Y-70816234D01*
X95119486Y-71001806D01*
X95377466Y-71139699D01*
X95657389Y-71224613D01*
X95875550Y-71246100D01*
X96021450Y-71246100D01*
X96239611Y-71224613D01*
X96519534Y-71139699D01*
X96777514Y-71001806D01*
X97003634Y-70816234D01*
X97189206Y-70590114D01*
X97327099Y-70332134D01*
X97412013Y-70052211D01*
X97440685Y-69761100D01*
X97412013Y-69469989D01*
X97327099Y-69190066D01*
X97189206Y-68932086D01*
X97003634Y-68705966D01*
X96777514Y-68520394D01*
X96722709Y-68491100D01*
X96777514Y-68461806D01*
X97003634Y-68276234D01*
X97189206Y-68050114D01*
X97327099Y-67792134D01*
X97412013Y-67512211D01*
X97440685Y-67221100D01*
X97412013Y-66929989D01*
X97374341Y-66805800D01*
X102261099Y-66805800D01*
X104328901Y-68873603D01*
X104352699Y-68902601D01*
X104381697Y-68926399D01*
X104468423Y-68997574D01*
X104571369Y-69052600D01*
X104600453Y-69068146D01*
X104743714Y-69111603D01*
X104819113Y-69119029D01*
X104962208Y-69293392D01*
X105046539Y-69362600D01*
X104962208Y-69431808D01*
X104798505Y-69631282D01*
X104676862Y-69858859D01*
X104601955Y-70105795D01*
X104576662Y-70362600D01*
X104601955Y-70619405D01*
X104676862Y-70866341D01*
X104798505Y-71093918D01*
X104962208Y-71293392D01*
X105161682Y-71457095D01*
X105389259Y-71578738D01*
X105636195Y-71653645D01*
X105828649Y-71672600D01*
X105957351Y-71672600D01*
X106149805Y-71653645D01*
X106396741Y-71578738D01*
X106624318Y-71457095D01*
X106823792Y-71293392D01*
X106987495Y-71093918D01*
X107109138Y-70866341D01*
X107184045Y-70619405D01*
X107209338Y-70362600D01*
X107184045Y-70105795D01*
X107109138Y-69858859D01*
X106987495Y-69631282D01*
X106823792Y-69431808D01*
X106739461Y-69362600D01*
X106823792Y-69293392D01*
X106987495Y-69093918D01*
X107109138Y-68866341D01*
X107184045Y-68619405D01*
X107209338Y-68362600D01*
X107184045Y-68105795D01*
X107109138Y-67858859D01*
X106987495Y-67631282D01*
X106823792Y-67431808D01*
X106739461Y-67362600D01*
X106823792Y-67293392D01*
X106987495Y-67093918D01*
X107109138Y-66866341D01*
X107184045Y-66619405D01*
X107209338Y-66362600D01*
X107184045Y-66105795D01*
X107109138Y-65858859D01*
X106987495Y-65631282D01*
X106823792Y-65431808D01*
X106739461Y-65362600D01*
X106823792Y-65293392D01*
X106987495Y-65093918D01*
X107109138Y-64866341D01*
X107184045Y-64619405D01*
X107209338Y-64362600D01*
X107184045Y-64105795D01*
X107129231Y-63925094D01*
X121238508Y-63925094D01*
X121238508Y-64333386D01*
X121318162Y-64733834D01*
X121474409Y-65111047D01*
X121701244Y-65450530D01*
X121989950Y-65739236D01*
X122329433Y-65966071D01*
X122706646Y-66122318D01*
X123107094Y-66201972D01*
X123515386Y-66201972D01*
X123915834Y-66122318D01*
X124293047Y-65966071D01*
X124632530Y-65739236D01*
X124921236Y-65450530D01*
X125148071Y-65111047D01*
X125304318Y-64733834D01*
X125383972Y-64333386D01*
X125383972Y-63925094D01*
X125304318Y-63524646D01*
X125148071Y-63147433D01*
X124921236Y-62807950D01*
X124632530Y-62519244D01*
X124293047Y-62292409D01*
X123915834Y-62136162D01*
X123515386Y-62056508D01*
X123107094Y-62056508D01*
X122706646Y-62136162D01*
X122329433Y-62292409D01*
X121989950Y-62519244D01*
X121701244Y-62807950D01*
X121474409Y-63147433D01*
X121318162Y-63524646D01*
X121238508Y-63925094D01*
X107129231Y-63925094D01*
X107109138Y-63858859D01*
X106987495Y-63631282D01*
X106823792Y-63431808D01*
X106739461Y-63362600D01*
X106823792Y-63293392D01*
X106987495Y-63093918D01*
X107109138Y-62866341D01*
X107184045Y-62619405D01*
X107209338Y-62362600D01*
X107184045Y-62105795D01*
X107109138Y-61858859D01*
X106987495Y-61631282D01*
X106823792Y-61431808D01*
X106739461Y-61362600D01*
X106823792Y-61293392D01*
X106987495Y-61093918D01*
X107109138Y-60866341D01*
X107184045Y-60619405D01*
X107209338Y-60362600D01*
X107184045Y-60105795D01*
X107109138Y-59858859D01*
X106987495Y-59631282D01*
X106823792Y-59431808D01*
X106735352Y-59359228D01*
X106871303Y-59233827D01*
X107022473Y-59026229D01*
X107130238Y-58793128D01*
X107160910Y-58692000D01*
X107037224Y-58489600D01*
X106020000Y-58489600D01*
X106020000Y-58509600D01*
X105766000Y-58509600D01*
X105766000Y-58489600D01*
X104748776Y-58489600D01*
X104625090Y-58692000D01*
X104655762Y-58793128D01*
X104763527Y-59026229D01*
X104914697Y-59233827D01*
X105050648Y-59359228D01*
X104962208Y-59431808D01*
X104822044Y-59602600D01*
X98939623Y-59602600D01*
X98902300Y-59598924D01*
X98864977Y-59602600D01*
X98864967Y-59602600D01*
X98753314Y-59613597D01*
X98610053Y-59657054D01*
X98478024Y-59727626D01*
X98362299Y-59822599D01*
X98338501Y-59851597D01*
X97048934Y-61141164D01*
X97003634Y-61085966D01*
X96777514Y-60900394D01*
X96712977Y-60865899D01*
X96829855Y-60796278D01*
X97046088Y-60601369D01*
X97220141Y-60368020D01*
X97345325Y-60105199D01*
X97389976Y-59957990D01*
X97268655Y-59728100D01*
X96075500Y-59728100D01*
X96075500Y-59748100D01*
X95821500Y-59748100D01*
X95821500Y-59728100D01*
X94628345Y-59728100D01*
X94507024Y-59957990D01*
X94551675Y-60105199D01*
X94676859Y-60368020D01*
X94850912Y-60601369D01*
X95067145Y-60796278D01*
X95184023Y-60865899D01*
X95119486Y-60900394D01*
X94893366Y-61085966D01*
X94707794Y-61312086D01*
X94670905Y-61381100D01*
X93972522Y-61381100D01*
X93935199Y-61377424D01*
X93897876Y-61381100D01*
X93897867Y-61381100D01*
X93786214Y-61392097D01*
X93655302Y-61431808D01*
X93642953Y-61435554D01*
X93510923Y-61506126D01*
X93433013Y-61570066D01*
X93395199Y-61601099D01*
X93371401Y-61630097D01*
X92508199Y-62493300D01*
X92446061Y-62493300D01*
X92246102Y-62533074D01*
X92057744Y-62611095D01*
X91888226Y-62724363D01*
X91744063Y-62868526D01*
X91630795Y-63038044D01*
X91552774Y-63226402D01*
X91513000Y-63426361D01*
X91513000Y-63630239D01*
X91552774Y-63830198D01*
X91630795Y-64018556D01*
X91744063Y-64188074D01*
X91888226Y-64332237D01*
X92057744Y-64445505D01*
X92246102Y-64523526D01*
X92446061Y-64563300D01*
X92649939Y-64563300D01*
X92849898Y-64523526D01*
X93038256Y-64445505D01*
X93207774Y-64332237D01*
X93351937Y-64188074D01*
X93465205Y-64018556D01*
X93543226Y-63830198D01*
X93583000Y-63630239D01*
X93583000Y-63568101D01*
X94250002Y-62901100D01*
X94670905Y-62901100D01*
X94707794Y-62970114D01*
X94893366Y-63196234D01*
X95119486Y-63381806D01*
X95174291Y-63411100D01*
X95119486Y-63440394D01*
X94893366Y-63625966D01*
X94707794Y-63852086D01*
X94569901Y-64110066D01*
X94484987Y-64389989D01*
X94456315Y-64681100D01*
X94484987Y-64972211D01*
X94569901Y-65252134D01*
X94587896Y-65285800D01*
X88591352Y-65285800D01*
X88497956Y-65223395D01*
X88309598Y-65145374D01*
X88109639Y-65105600D01*
X87905761Y-65105600D01*
X87705802Y-65145374D01*
X87517444Y-65223395D01*
X87347926Y-65336663D01*
X87209945Y-65474644D01*
X87166900Y-65431599D01*
X87166900Y-63844511D01*
X87210837Y-63800574D01*
X87324105Y-63631056D01*
X87402126Y-63442698D01*
X87441900Y-63242739D01*
X87441900Y-63038861D01*
X87402126Y-62838902D01*
X87324105Y-62650544D01*
X87210837Y-62481026D01*
X87066674Y-62336863D01*
X86897156Y-62223595D01*
X86708798Y-62145574D01*
X86508839Y-62105800D01*
X86304961Y-62105800D01*
X86105002Y-62145574D01*
X85916644Y-62223595D01*
X85747126Y-62336863D01*
X85602963Y-62481026D01*
X85489695Y-62650544D01*
X85411674Y-62838902D01*
X85371900Y-63038861D01*
X85371900Y-63242739D01*
X85411674Y-63442698D01*
X85489695Y-63631056D01*
X85602963Y-63800574D01*
X85646900Y-63844511D01*
X85646901Y-65441300D01*
X84979400Y-64773799D01*
X84979400Y-64543611D01*
X85023337Y-64499674D01*
X85136605Y-64330156D01*
X85214626Y-64141798D01*
X85254400Y-63941839D01*
X85254400Y-63737961D01*
X85214626Y-63538002D01*
X85136605Y-63349644D01*
X85023337Y-63180126D01*
X84879174Y-63035963D01*
X84709656Y-62922695D01*
X84521298Y-62844674D01*
X84321339Y-62804900D01*
X84117461Y-62804900D01*
X83917502Y-62844674D01*
X83729144Y-62922695D01*
X83559626Y-63035963D01*
X83415463Y-63180126D01*
X83302195Y-63349644D01*
X83224174Y-63538002D01*
X83184400Y-63737961D01*
X78130000Y-63737961D01*
X78130000Y-57083380D01*
X79002280Y-56211100D01*
X94460428Y-56211100D01*
X94460428Y-57911100D01*
X94472688Y-58035582D01*
X94508998Y-58155280D01*
X94567963Y-58265594D01*
X94647315Y-58362285D01*
X94744006Y-58441637D01*
X94854320Y-58500602D01*
X94934966Y-58525066D01*
X94850912Y-58600831D01*
X94676859Y-58834180D01*
X94551675Y-59097001D01*
X94507024Y-59244210D01*
X94628345Y-59474100D01*
X95821500Y-59474100D01*
X95821500Y-59454100D01*
X96075500Y-59454100D01*
X96075500Y-59474100D01*
X97268655Y-59474100D01*
X97389976Y-59244210D01*
X97345325Y-59097001D01*
X97220141Y-58834180D01*
X97046088Y-58600831D01*
X96962034Y-58525066D01*
X97042680Y-58500602D01*
X97152994Y-58441637D01*
X97249685Y-58362285D01*
X97329037Y-58265594D01*
X97388002Y-58155280D01*
X97424312Y-58035582D01*
X97436572Y-57911100D01*
X97436572Y-56211100D01*
X97424312Y-56086618D01*
X97388002Y-55966920D01*
X97329037Y-55856606D01*
X97249685Y-55759915D01*
X97161569Y-55687600D01*
X104579928Y-55687600D01*
X104579928Y-57037600D01*
X104592188Y-57162082D01*
X104628498Y-57281780D01*
X104687463Y-57392094D01*
X104766815Y-57488785D01*
X104860559Y-57565719D01*
X104763527Y-57698971D01*
X104655762Y-57932072D01*
X104625090Y-58033200D01*
X104748776Y-58235600D01*
X105766000Y-58235600D01*
X105766000Y-58215600D01*
X106020000Y-58215600D01*
X106020000Y-58235600D01*
X107037224Y-58235600D01*
X107160910Y-58033200D01*
X107130238Y-57932072D01*
X107022473Y-57698971D01*
X106925441Y-57565719D01*
X107019185Y-57488785D01*
X107098537Y-57392094D01*
X107157502Y-57281780D01*
X107193812Y-57162082D01*
X107206072Y-57037600D01*
X107206072Y-55687600D01*
X107193812Y-55563118D01*
X107157502Y-55443420D01*
X107098537Y-55333106D01*
X107019185Y-55236415D01*
X106922494Y-55157063D01*
X106812180Y-55098098D01*
X106692482Y-55061788D01*
X106568000Y-55049528D01*
X105218000Y-55049528D01*
X105093518Y-55061788D01*
X104973820Y-55098098D01*
X104863506Y-55157063D01*
X104766815Y-55236415D01*
X104687463Y-55333106D01*
X104628498Y-55443420D01*
X104592188Y-55563118D01*
X104579928Y-55687600D01*
X97161569Y-55687600D01*
X97152994Y-55680563D01*
X97042680Y-55621598D01*
X96922982Y-55585288D01*
X96798500Y-55573028D01*
X95098500Y-55573028D01*
X94974018Y-55585288D01*
X94854320Y-55621598D01*
X94744006Y-55680563D01*
X94647315Y-55759915D01*
X94567963Y-55856606D01*
X94508998Y-55966920D01*
X94472688Y-56086618D01*
X94460428Y-56211100D01*
X79002280Y-56211100D01*
X81553381Y-53660000D01*
X89795297Y-53660000D01*
X89748295Y-53730344D01*
M02*
